<svg xmlns="http://www.w3.org/2000/svg" width="77.092" height="98.624" viewBox="0 0 77.092 98.624">
  <g id="arrow02" transform="translate(109.51 297.388) rotate(180)" opacity="0.9">
    <g id="Group_145" data-name="Group 145" transform="translate(38.701 198.764)">
      <path id="Path_495" data-name="Path 495" d="M82.816,211.895c-5.589,3.11-11.058,6.167-16.153,9.6A68,68,0,0,0,52.98,233.26,41.76,41.76,0,0,0,44.414,248.6a28.275,28.275,0,0,0,.216,17.171A35.576,35.576,0,0,0,54.686,280.52a49.526,49.526,0,0,0,15.871,9.488,84.41,84.41,0,0,0,18.427,4.421c6.314.872,12.712,1.293,19.1,1.7-6.4.026-12.814.038-19.236-.411a86.316,86.316,0,0,1-19.121-3.257,52.77,52.77,0,0,1-17.543-8.972A40.075,40.075,0,0,1,39.792,267.6a32.762,32.762,0,0,1-2.425-10.147,36.7,36.7,0,0,1,.775-10.424,48.781,48.781,0,0,1,8.773-18.6A76.183,76.183,0,0,1,61.338,214.18c5.264-4.093,10.769-7.663,16.146-11.151Z" transform="translate(-37.276 -197.513)" fill="#3343e0"/>
      <g id="Group_144" data-name="Group 144" transform="translate(32.597)">
        <path id="Path_496" data-name="Path 496" d="M62.484,199.242l26.817-.479L76.31,222.228Z" transform="translate(-62.484 -198.764)" fill="#3343e0"/>
      </g>
    </g>
    <path id="Path_497" data-name="Path 497" d="M41.45,225.827a56.65,56.65,0,0,0-4.5,10.44,41.643,41.643,0,0,0-1.893,10.945,35.547,35.547,0,0,0,1.17,11,41.557,41.557,0,0,0,1.712,5.361,21.006,21.006,0,0,0,1.126,2.616c.4.868.786,1.751,1.165,2.652-.605-.747-1.2-1.51-1.785-2.292a18.188,18.188,0,0,1-1.647-2.417,29.666,29.666,0,0,1-2.5-5.328,30.543,30.543,0,0,1-1.519-5.743c-.177-.978-.176-1.979-.27-2.969-.027-.5-.093-.993-.087-1.49l.053-1.492a32.868,32.868,0,0,1,2.589-11.532A30.915,30.915,0,0,1,41.45,225.827Z" transform="translate(0 7.934)" fill="#3343e0"/>
    <path id="Path_498" data-name="Path 498" d="M73.109,216.378a166.843,166.843,0,0,0-14.173,11.778,85.554,85.554,0,0,0-6.308,6.574c-2.03,2.288-3.782,4.773-5.667,7.306a30.783,30.783,0,0,1,4.058-8.526,42.4,42.4,0,0,1,6.14-7.231,50.278,50.278,0,0,1,7.471-5.8A37.573,37.573,0,0,1,73.109,216.378Z" transform="translate(4.263 5.164)" fill="#3343e0"/>
  </g>
</svg>
