<svg xmlns="http://www.w3.org/2000/svg" width="167.254" height="202.271" viewBox="0 0 167.254 202.271">
  <g id="arrow03" transform="matrix(0.545, -0.839, 0.839, 0.545, -126.484, 225.84)" opacity="0.9">
    <g id="Group_140" data-name="Group 140" transform="translate(146.192 48.113)">
      <path id="Path_489" data-name="Path 489" d="M154.392,155.077a75.061,75.061,0,0,1-2.263-13.817,80.133,80.133,0,0,1,.486-13.762,85.859,85.859,0,0,1,2.9-13.255,90.255,90.255,0,0,1,5.023-12.448A91.619,91.619,0,0,1,167.455,90.4a95.5,95.5,0,0,1,8.561-10.055,103.863,103.863,0,0,1,9.818-8.608A112.916,112.916,0,0,1,196.6,64.573c14.877-8.633,31.484-13.462,48.1-15.359,16.652-1.931,33.339-1.144,49.711.972-16.488-.758-33.073-.141-49.071,3.079-15.972,3.173-31.3,9.137-44.346,18.233-13.024,9.032-23.659,21.23-29.249,35.389-5.687,14.075-6.63,29.936-1.693,43.3Z" transform="translate(-140.069 -48.113)" fill="#3343e0"/>
      <g id="Group_139" data-name="Group 139" transform="translate(0 92.242)">
        <path id="Path_490" data-name="Path 490" d="M186.783,93.109l-9.319,41.485-31.271-28.809Z" transform="translate(-146.192 -93.109)" fill="#3343e0"/>
      </g>
    </g>
    <path id="Path_491" data-name="Path 491" d="M150.071,134.936a64.76,64.76,0,0,1-.783-21.718c.262-1.806.488-3.626.838-5.424l1.216-5.363a88.1,88.1,0,0,1,3.635-10.391l1.084-2.534,1.287-2.44c.9-1.605,1.644-3.292,2.661-4.824a71.869,71.869,0,0,1,6.5-8.864l1.777-2.089a15.4,15.4,0,0,1,1.886-1.984l4-3.735a39.139,39.139,0,0,1,4.287-3.364q2.2-1.6,4.444-3.1-1.833,2.02-3.692,3.954A45.317,45.317,0,0,0,175.6,67a97.141,97.141,0,0,0-6.556,8.346,91.44,91.44,0,0,0-10.3,18.309,98.921,98.921,0,0,0-6.31,20.078A114.668,114.668,0,0,0,150.071,134.936Z" transform="translate(2.669 11.539)" fill="#3343e0"/>
    <path id="Path_492" data-name="Path 492" d="M259.331,53.738c-7.222.07-14.346.471-21.42,1.158a182.356,182.356,0,0,0-20.963,3.333l-5.16,1.187L206.713,60.9c-1.72.418-3.356,1.072-5.023,1.646-1.646.623-3.366,1.089-4.965,1.831a129.3,129.3,0,0,0-19.04,9.658c1.316-1.224,2.657-2.439,4.028-3.633.685-.6,1.367-1.205,2.081-1.769l2.232-1.562c1.513-1.007,3-2.085,4.561-3.024l4.826-2.589a89.624,89.624,0,0,1,20.644-7.23,111.354,111.354,0,0,1,21.669-2.515A91.1,91.1,0,0,1,259.331,53.738Z" transform="translate(33.068 3.77)" fill="#3343e0"/>
  </g>
</svg>
