<svg xmlns="http://www.w3.org/2000/svg" width="77.092" height="98.624" viewBox="0 0 77.092 98.624">
  <g id="arrow01" transform="translate(0 0)" opacity="0.9">
    <g id="Group_145" data-name="Group 145" transform="translate(6.283 0)">
      <path id="Path_495" data-name="Path 495" d="M45.539,84.243c-5.589-3.11-11.058-6.167-16.153-9.6A68,68,0,0,1,15.7,62.877,41.76,41.76,0,0,1,7.138,47.542a28.275,28.275,0,0,1,.216-17.171A35.576,35.576,0,0,1,17.409,15.617,49.526,49.526,0,0,1,33.28,6.13,84.409,84.409,0,0,1,51.707,1.708C58.022.837,64.419.415,70.809.01c-6.4-.026-12.814-.038-19.236.411A86.316,86.316,0,0,0,32.452,3.679a52.77,52.77,0,0,0-17.543,8.972A40.075,40.075,0,0,0,2.516,28.541,32.762,32.762,0,0,0,.091,38.689,36.7,36.7,0,0,0,.866,49.113a48.781,48.781,0,0,0,8.773,18.6A76.183,76.183,0,0,0,24.061,81.958c5.264,4.093,10.769,7.663,16.146,11.151Z" fill="#FEB848"/>
      <g id="Group_144" data-name="Group 144" transform="translate(32.597 75.159)">
        <path id="Path_496" data-name="Path 496" d="M0,22.986l26.817.479L13.826,0Z" fill="#FEB848"/>
      </g>
    </g>
    <path id="Path_497" data-name="Path 497" d="M9.032,43.01a56.65,56.65,0,0,1-4.5-10.44A41.644,41.644,0,0,1,2.636,21.625a35.547,35.547,0,0,1,1.17-11A41.557,41.557,0,0,1,5.518,5.268,21.006,21.006,0,0,1,6.645,2.652C7.046,1.785,7.431.9,7.81,0,7.2.747,6.607,1.51,6.025,2.292A18.188,18.188,0,0,0,4.378,4.708a29.666,29.666,0,0,0-2.5,5.328A30.542,30.542,0,0,0,.357,15.779c-.177.978-.176,1.979-.27,2.969-.027.5-.093.993-.087,1.49L.053,21.73A32.868,32.868,0,0,0,2.642,33.263,30.915,30.915,0,0,0,9.032,43.01Z" transform="translate(0 20.617)" fill="#FEB848"/>
    <path id="Path_498" data-name="Path 498" d="M26.148,25.659A166.843,166.843,0,0,1,11.975,13.881,85.554,85.554,0,0,1,5.667,7.306C3.636,5.019,1.884,2.533,0,0A30.783,30.783,0,0,0,4.058,8.526a42.4,42.4,0,0,0,6.14,7.231,50.278,50.278,0,0,0,7.471,5.8A37.573,37.573,0,0,0,26.148,25.659Z" transform="translate(18.807 50.187)" fill="#FEB848"/>
  </g>
</svg>
