<svg xmlns="http://www.w3.org/2000/svg" width="28.414" height="27.977" viewBox="0 0 28.414 27.977">
  <path id="cart" d="M56.306,73.494a2.841,2.841,0,1,0,2.841,2.841A2.85,2.85,0,0,0,56.306,73.494ZM48,51.2v2.841h2.841L55.956,64.4l-2.138,3.48a2.722,2.722,0,0,0-.355,1.35c0,1.9,1.3,2.841,3.062,2.841H73.135V69.341H56.872a.336.336,0,0,1-.355-.355,1.772,1.772,0,0,1,.151-.355l1.419-2.24H68.671A2.787,2.787,0,0,0,71.157,64.9l5.115-8.8a1.661,1.661,0,0,0,.142-.71,1.366,1.366,0,0,0-1.421-1.35H53.967L52.617,51.2ZM70.294,73.494a2.841,2.841,0,1,0,2.841,2.841A2.85,2.85,0,0,0,70.294,73.494Z" transform="translate(-48 -51.2)" fill="#fff"/>
</svg>
