<svg xmlns="http://www.w3.org/2000/svg" width="464" height="512" viewBox="0 0 464 512">
  <g id="email" transform="translate(-24)">
    <path id="Path_1839" data-name="Path 1839" d="M37.95,194.65A8.007,8.007,0,0,0,24,200V472a39.75,39.75,0,0,0,6.943,22.506,2,2,0,0,0,3.3-.025L151.089,322.637a2,2,0,0,0-.167-2.463Z" fill="#feb848"/>
    <path id="Path_1840" data-name="Path 1840" d="M337.21,346.7a16.043,16.043,0,0,1-11.9,5.3H186.69a16.032,16.032,0,0,1-11.89-5.29l-10.1-11.224a2,2,0,0,0-3.14.213L46.243,505.283a2.007,2.007,0,0,0,.8,2.943A39.735,39.735,0,0,0,64,512H448a39.749,39.749,0,0,0,16.954-3.773,2.008,2.008,0,0,0,.8-2.943L350.444,335.7a2,2,0,0,0-3.14-.213Z" fill="#feb848"/>
    <path id="Path_1841" data-name="Path 1841" d="M474.05,194.65,361.079,320.184a2,2,0,0,0-.167,2.462L477.76,494.48a2,2,0,0,0,3.3.025A39.751,39.751,0,0,0,488,472V200a8.007,8.007,0,0,0-13.95-5.35Z" fill="#feb848"/>
    <path id="Path_1842" data-name="Path 1842" d="M468.687,177.367l-25.273-25.273A2,2,0,0,0,440,153.508v49.843a2,2,0,0,0,3.49,1.334c18.421-20.537,20.487-23.381,24.945-25.722a1,1,0,0,0,.252-1.6Z" fill="#feb848"/>
    <path id="Path_1843" data-name="Path 1843" d="M72,203.339v-49.83a2,2,0,0,0-3.414-1.414L43.307,177.374a1,1,0,0,0,.245,1.591c4.912,2.62,7.4,6.1,24.953,25.7A2,2,0,0,0,72,203.339Z" fill="#feb848"/>
    <path id="Path_1844" data-name="Path 1844" d="M188.026,336.01,323.974,336a3,3,0,0,0,2.23-.993l97.026-107.8A3,3,0,0,0,424,225.2V24A24,24,0,0,0,400,0H112A24,24,0,0,0,88,24V225.189a3,3,0,0,0,.77,2.007L185.8,335.017a3,3,0,0,0,2.23.993ZM152,40H360a8,8,0,0,1,0,16H152a8,8,0,0,1,0-16Zm0,64H360a8,8,0,0,1,0,16H152a8,8,0,0,1,0-16Zm0,64H360a8,8,0,0,1,0,16H152a8,8,0,0,1,0-16Zm0,64H360a8,8,0,0,1,0,16H152a8,8,0,0,1,0-16Z" fill="#feb848"/>
  </g>
</svg>
