<svg xmlns="http://www.w3.org/2000/svg" width="512" height="512" viewBox="0 0 512 512">
  <g id="facebook" transform="translate(0)">
    <path id="Path_1845" data-name="Path 1845" d="M483.738,0H28.238A28.256,28.256,0,0,0,0,28.262v455.5A28.256,28.256,0,0,0,28.261,512H483.738A28.256,28.256,0,0,0,512,483.75V28.238A28.256,28.256,0,0,0,483.738,0Zm0,0" fill="#fff"/>
    <path id="Path_1846" data-name="Path 1846" d="M353.5,512V314h66.75l10-77.5H353.5V187.141c0-22.387,6.215-37.641,38.316-37.641H432.5V80.371c-7.078-.941-31.363-3.047-59.621-3.047-59,0-99.379,36-99.379,102.141V236.5H207V314h66.5V512Zm0,0" fill="#4267b2"/>
  </g>
</svg>
