<svg id="google" xmlns="http://www.w3.org/2000/svg" width="512" height="512" viewBox="0 0 512 512">
  <path id="Path_1847" data-name="Path 1847" d="M120,256a135.165,135.165,0,0,1,19.131-69.477V100.215H52.823a256.131,256.131,0,0,0,0,311.57h86.308V325.477A135.165,135.165,0,0,1,120,256Z" fill="#fbbd00"/>
  <path id="Path_1848" data-name="Path 1848" d="M256,392l-60,60,60,60a254.061,254.061,0,0,0,155.785-52.823V372.961H325.569A135.981,135.981,0,0,1,256,392Z" fill="#0f9d58"/>
  <path id="Path_1849" data-name="Path 1849" d="M139.131,325.477,52.823,411.785A260.08,260.08,0,0,0,74.981,437.02,254.327,254.327,0,0,0,256,512V392a136.056,136.056,0,0,1-116.869-66.523Z" fill="#31aa52"/>
  <path id="Path_1850" data-name="Path 1850" d="M512,256a258.242,258.242,0,0,0-4.192-46.377l-2.251-12.3H256v120H377.452a135.385,135.385,0,0,1-51.884,55.638l86.216,86.216a260.082,260.082,0,0,0,25.235-22.158A254.328,254.328,0,0,0,512,256Z" fill="#3c79e6"/>
  <path id="Path_1851" data-name="Path 1851" d="M352.167,159.833l10.606,10.606,84.853-84.852L437.02,74.981A254.324,254.324,0,0,0,256,0L196,60l60,60A135.114,135.114,0,0,1,352.167,159.833Z" fill="#cf2d48"/>
  <path id="Path_1852" data-name="Path 1852" d="M256,120V0A254.331,254.331,0,0,0,74.98,74.98a259.849,259.849,0,0,0-22.158,25.235l86.308,86.308A136.059,136.059,0,0,1,256,120Z" fill="#eb4132"/>
</svg>
