<svg xmlns="http://www.w3.org/2000/svg" width="796.322" height="554.243" viewBox="0 0 796.322 554.243">
  <g id="grow" transform="translate(0)">
    <g id="Group_216" data-name="Group 216" transform="translate(0)">
      <g id="Group_213" data-name="Group 213" transform="translate(57.852 56.821)">
        <path id="Path_650" data-name="Path 650" d="M544.9,534.06h167.78V467.285H572.563l-185.5-185.5H200.306L35.313,116.795l-47.219,47.219L172.647,348.564h186.76Z" transform="translate(11.906 -116.795)" fill="#fff"/>
      </g>
      <g id="Group_214" data-name="Group 214" transform="translate(292.696 352.551)">
        <path id="Path_651" data-name="Path 651" d="M279.111,407.062H469V373.675H292.942l-83.915-83.915H99.873l-84.39-84.39L-8.126,228.979l94.168,94.168H195.2Z" transform="translate(8.126 -205.37)" fill="#feb848"/>
      </g>
      <g id="Group_215" data-name="Group 215" transform="translate(281.024 88.501)">
        <path id="Path_652" data-name="Path 652" d="M362.346,394.541h136.89V361.153H376.177L205.822,190.8H72.062L7.546,126.283l-23.609,23.609,74.294,74.293h133.76Z" transform="translate(16.063 -126.283)" fill="#feb848"/>
      </g>
      <path id="Path_653" data-name="Path 653" d="M118.323,116.669l92.5,15.288-77.215,77.215Z" transform="translate(136.816 -60.268)" fill="#feb848"/>
      <path id="Path_654" data-name="Path 654" d="M116.15,196.039l92.5,15.288-77.215,77.215Z" transform="translate(146.245 125.359)" fill="#feb848"/>
      <path id="Path_655" data-name="Path 655" d="M169.841,99.776,345.477,128.8,198.868,275.412Z" transform="translate(-169.841 -99.776)" fill="#fff"/>
    </g>
  </g>
</svg>
