<svg xmlns="http://www.w3.org/2000/svg" xmlns:xlink="http://www.w3.org/1999/xlink" width="606.125" height="681.238" viewBox="0 0 606.125 681.238">
  <defs>
    <clipPath id="clip-path">
      <path id="Path_562" data-name="Path 562" d="M286.7,233.78s18.742,40,18.742,42.117-16.635,11.161-19.795,13.057a76.186,76.186,0,0,1-7.581,3.79l1.9,18.531s28.638-6.528,40.642-13.055,11.582-13.905,8.845-24.848-21.27-53.271-21.27-53.271Z" transform="translate(-278.064 -220.1)" fill="#fff" stroke="#263238" stroke-linecap="round" stroke-linejoin="round" stroke-width="1"/>
    </clipPath>
    <clipPath id="clip-path-2">
      <path id="Path_566" data-name="Path 566" d="M212.257,222.847s-13.687,50.118-14.109,58.965,27.166,26.319,28.219,27.375-1.563-30.45-1.563-30.45l9.346-45.781Z" transform="translate(-198.143 -222.847)" fill="#fff" stroke="#263238" stroke-linecap="round" stroke-linejoin="round" stroke-width="1"/>
    </clipPath>
    <clipPath id="clip-path-3">
      <path id="Path_585" data-name="Path 585" d="M231.489,195.874s5.474,19.374,15.792,30.746,14.109,14.108,19.585,13.266,11.37-8,19.583-22.954,8.845-26.323,9.477-27.375-1.683-22.109-13.476-31.165-24.848-13.055-36.22-3.159S227.7,181.344,231.489,195.874Z" transform="translate(-230.466 -149.459)" fill="#fff" stroke="#263238" stroke-linecap="round" stroke-linejoin="round" stroke-width="1"/>
    </clipPath>
  </defs>
  <g id="homeS" transform="translate(-80.317 -61.949)">
    <g id="Background_simple" data-name="Background simple" transform="translate(80.317 131.406)">
      <g id="Group_171" data-name="Group 171">
        <path id="Path_548" data-name="Path 548" d="M686.254,309.573c2.695-72.9-23.5-146.681-81.234-181.8-28.514-17.343-61.825-27.492-95.159-26-35.755,1.6-69.432,16.155-103.162,28.131s-70.24,21.6-105,13.085c-25.158-6.161-47.284-21.389-72.24-28.338-97.989-27.251-183.364,84-135.385,172.39,11.774,21.692,29.944,39.075,45.174,58.5s28.057,42.852,26.008,67.449c-1.7,20.356-13.31,38.5-18.11,58.352-9.195,38.019,9.033,79.872,40.559,103.042S261.75,603.024,299.7,593.494s71.451-32.883,97.811-61.793c14.111-15.477,27.867-33.576,48.14-38.836,19.439-5.041,39.5,3.156,59.222,6.924a136.353,136.353,0,0,0,105.2-23.938C657.777,440.628,683.82,375.458,686.254,309.573Z" transform="translate(-80.317 -101.626)" fill="#3343e0"/>
        <path id="Path_549" data-name="Path 549" d="M686.254,309.573c2.695-72.9-23.5-146.681-81.234-181.8-28.514-17.343-61.825-27.492-95.159-26-35.755,1.6-69.432,16.155-103.162,28.131s-70.24,21.6-105,13.085c-25.158-6.161-47.284-21.389-72.24-28.338-97.989-27.251-183.364,84-135.385,172.39,11.774,21.692,29.944,39.075,45.174,58.5s28.057,42.852,26.008,67.449c-1.7,20.356-13.31,38.5-18.11,58.352-9.195,38.019,9.033,79.872,40.559,103.042S261.75,603.024,299.7,593.494s71.451-32.883,97.811-61.793c14.111-15.477,27.867-33.576,48.14-38.836,19.439-5.041,39.5,3.156,59.222,6.924a136.353,136.353,0,0,0,105.2-23.938C657.777,440.628,683.82,375.458,686.254,309.573Z" transform="translate(-80.317 -101.626)" fill="#fff" opacity="0.9"/>
      </g>
    </g>
    <g id="Shadow" transform="translate(134.631 647.992)">
      <g id="Group_172" data-name="Group 172">
        <ellipse id="Ellipse_10" data-name="Ellipse 10" cx="237.989" cy="47.598" rx="237.989" ry="47.598" fill="#3343e0"/>
        <ellipse id="Ellipse_11" data-name="Ellipse 11" cx="237.989" cy="47.598" rx="237.989" ry="47.598" fill="#fff" opacity="0.5"/>
      </g>
    </g>
    <g id="Graphics_2" data-name="Graphics 2" transform="translate(443.063 62.449)">
      <g id="Group_177" data-name="Group 177">
        <rect id="Rectangle_61" data-name="Rectangle 61" width="192.818" height="210.384" rx="6.033" fill="#fff" stroke="#263238" stroke-linecap="round" stroke-linejoin="round" stroke-width="1"/>
        <path id="Rectangle_62" data-name="Rectangle 62" d="M10.619,0H182.2a10.619,10.619,0,0,1,10.619,10.619V21.637H0V10.619A10.619,10.619,0,0,1,10.619,0Z" fill="#263238" stroke="#263238" stroke-linecap="round" stroke-linejoin="round" stroke-width="1"/>
        <g id="Group_175" data-name="Group 175" transform="translate(10.515 112.325)">
          <g id="Group_173" data-name="Group 173">
            <line id="Line_60" data-name="Line 60" x2="77.582" fill="none" stroke="#263238" stroke-linecap="round" stroke-linejoin="round" stroke-width="1"/>
            <line id="Line_61" data-name="Line 61" x2="77.582" transform="translate(0 10.02)" fill="none" stroke="#263238" stroke-linecap="round" stroke-linejoin="round" stroke-width="1"/>
            <line id="Line_62" data-name="Line 62" x2="77.582" transform="translate(0 20.039)" fill="none" stroke="#263238" stroke-linecap="round" stroke-linejoin="round" stroke-width="1"/>
            <line id="Line_63" data-name="Line 63" x2="77.582" transform="translate(0 30.058)" fill="none" stroke="#263238" stroke-linecap="round" stroke-linejoin="round" stroke-width="1"/>
            <line id="Line_64" data-name="Line 64" x2="77.582" transform="translate(0 40.078)" fill="none" stroke="#263238" stroke-linecap="round" stroke-linejoin="round" stroke-width="1"/>
            <line id="Line_65" data-name="Line 65" x2="77.582" transform="translate(0 50.097)" fill="none" stroke="#263238" stroke-linecap="round" stroke-linejoin="round" stroke-width="1"/>
            <line id="Line_66" data-name="Line 66" x2="77.582" transform="translate(0 60.118)" fill="none" stroke="#263238" stroke-linecap="round" stroke-linejoin="round" stroke-width="1"/>
            <line id="Line_67" data-name="Line 67" x2="77.582" transform="translate(0 70.136)" fill="none" stroke="#263238" stroke-linecap="round" stroke-linejoin="round" stroke-width="1"/>
            <line id="Line_68" data-name="Line 68" x2="77.582" transform="translate(0 80.157)" fill="none" stroke="#263238" stroke-linecap="round" stroke-linejoin="round" stroke-width="1"/>
          </g>
          <g id="Group_174" data-name="Group 174" transform="translate(91.232)">
            <line id="Line_69" data-name="Line 69" x2="77.582" fill="none" stroke="#263238" stroke-linecap="round" stroke-linejoin="round" stroke-width="1"/>
            <line id="Line_70" data-name="Line 70" x2="77.582" transform="translate(0 10.02)" fill="none" stroke="#263238" stroke-linecap="round" stroke-linejoin="round" stroke-width="1"/>
            <line id="Line_71" data-name="Line 71" x2="77.582" transform="translate(0 20.039)" fill="none" stroke="#263238" stroke-linecap="round" stroke-linejoin="round" stroke-width="1"/>
            <line id="Line_72" data-name="Line 72" x2="77.582" transform="translate(0 30.058)" fill="none" stroke="#263238" stroke-linecap="round" stroke-linejoin="round" stroke-width="1"/>
            <line id="Line_73" data-name="Line 73" x2="77.582" transform="translate(0 40.078)" fill="none" stroke="#263238" stroke-linecap="round" stroke-linejoin="round" stroke-width="1"/>
            <line id="Line_74" data-name="Line 74" x2="77.582" transform="translate(0 50.097)" fill="none" stroke="#263238" stroke-linecap="round" stroke-linejoin="round" stroke-width="1"/>
            <line id="Line_75" data-name="Line 75" x2="77.582" transform="translate(0 60.118)" fill="none" stroke="#263238" stroke-linecap="round" stroke-linejoin="round" stroke-width="1"/>
            <line id="Line_76" data-name="Line 76" x2="77.582" transform="translate(0 70.136)" fill="none" stroke="#263238" stroke-linecap="round" stroke-linejoin="round" stroke-width="1"/>
            <line id="Line_77" data-name="Line 77" x2="77.582" transform="translate(0 80.157)" fill="none" stroke="#263238" stroke-linecap="round" stroke-linejoin="round" stroke-width="1"/>
          </g>
        </g>
        <path id="Path_550" data-name="Path 550" d="M345.005,94.379a12.049,12.049,0,0,0,.6-3.682c0-4.55-4.619-4.818-9.17-4.818H335.3V84.8h19.816v1.072c-5.155,0-6.961,3.279-8.635,8.165L335.974,125.56c-.8,2.343-1.471,4.084-3.948,4.084h-.2l-9.306-30.111-8.7,26.034c-.8,2.343-1.471,4.084-3.948,4.084h-.2L296.152,85.879H291.4V84.8h17.4v1.072h-4.958l10.033,34.536h.4l7.569-23.024L318.3,85.872h-4.752V84.8h17.4v1.072H326l10.033,34.536h.4Z" transform="translate(-282.61 -45.459)" fill="#3343e0"/>
        <g id="Group_176" data-name="Group 176" transform="translate(100.034 29.366)">
          <rect id="Rectangle_63" data-name="Rectangle 63" width="79.842" height="72.159" transform="translate(0.007)" fill="#3343e0" stroke="#263238" stroke-linecap="round" stroke-linejoin="round" stroke-width="2"/>
          <path id="Path_551" data-name="Path 551" d="M423.081,96.266a49.055,49.055,0,0,0-7.968,1.123c-12.129,2.64-15.294,20.039-29,20.039-12.145,0-13.185-16.348-30.586-18.457a19.115,19.115,0,0,0-12.284,2.184v37.113h79.842Z" transform="translate(-343.239 -66.109)" fill="#263238" stroke="#263238" stroke-linecap="round" stroke-linejoin="round" stroke-width="1"/>
          <path id="Path_552" data-name="Path 552" d="M366.055,92.386a8.966,8.966,0,1,1-8.965-8.964,8.967,8.967,0,0,1,8.965,8.964Z" transform="translate(-339.526 -75.873)" fill="#fff" stroke="#263238" stroke-linecap="round" stroke-linejoin="round" stroke-width="1"/>
        </g>
        <rect id="Rectangle_64" data-name="Rectangle 64" width="177.714" height="6.856" transform="translate(5.801 6.329)" fill="#fff" stroke="#263238" stroke-linecap="round" stroke-linejoin="round" stroke-width="1"/>
      </g>
      <g id="Group_179" data-name="Group 179" transform="translate(83.508 252.376)">
        <path id="Path_553" data-name="Path 553" d="M422.779,205.833H345.836a11.4,11.4,0,0,0-11.4,11.4v41.152a11.4,11.4,0,0,0,11.4,11.4h2.4c-2.389,5.31-6.982,13.377-14.382,18.188,0,0,15.607-1.088,31.874-18.188h57.055a11.4,11.4,0,0,0,11.4-11.4V217.233a11.4,11.4,0,0,0-11.4-11.4Z" transform="translate(-333.85 -205.833)" fill="#263238" stroke="#263238" stroke-linecap="round" stroke-linejoin="round" stroke-width="1"/>
        <g id="Group_178" data-name="Group 178" transform="translate(25.494 24.644)">
          <path id="Path_554" data-name="Path 554" d="M360.067,225.7a5.867,5.867,0,1,0-5.867,5.867,5.866,5.866,0,0,0,5.867-5.867Z" transform="translate(-348.334 -219.834)" fill="#3343e0" stroke="#263238" stroke-linecap="round" stroke-linejoin="round" stroke-width="1"/>
          <path id="Path_555" data-name="Path 555" d="M371.4,225.7a5.867,5.867,0,1,0-5.867,5.867A5.866,5.866,0,0,0,371.4,225.7Z" transform="translate(-339.719 -219.834)" fill="#3343e0" stroke="#263238" stroke-linecap="round" stroke-linejoin="round" stroke-width="1"/>
          <path id="Path_556" data-name="Path 556" d="M382.734,225.7a5.867,5.867,0,1,0-5.867,5.867,5.866,5.866,0,0,0,5.867-5.867Z" transform="translate(-331.104 -219.834)" fill="#3343e0" stroke="#263238" stroke-linecap="round" stroke-linejoin="round" stroke-width="1"/>
        </g>
      </g>
    </g>
    <g id="Graphics_1" data-name="Graphics 1" transform="translate(119.131 87.406)">
      <g id="Group_181" data-name="Group 181" transform="translate(61.968)">
        <path id="Rectangle_65" data-name="Rectangle 65" d="M11.376,0h126.6A11.376,11.376,0,0,1,149.35,11.376v87.8H0v-87.8A11.376,11.376,0,0,1,11.376,0Z" fill="#3343e0" stroke="#263238" stroke-linecap="round" stroke-linejoin="round" stroke-width="1"/>
        <rect id="Rectangle_66" data-name="Rectangle 66" width="149.35" height="14.123" transform="translate(0 85.05)" fill="#263238" stroke="#263238" stroke-linecap="round" stroke-linejoin="round" stroke-width="1"/>
        <rect id="Rectangle_67" data-name="Rectangle 67" width="135.675" height="4.467" transform="translate(6.836 89.878)" fill="#fff" stroke="#263238" stroke-linecap="round" stroke-linejoin="round" stroke-width="1"/>
        <g id="Group_180" data-name="Group 180" transform="translate(54.047 24.41)">
          <circle id="Ellipse_12" data-name="Ellipse 12" cx="20.627" cy="20.627" r="20.627" fill="#263238" stroke="#263238" stroke-linecap="round" stroke-linejoin="round" stroke-width="1"/>
          <path id="Path_557" data-name="Path 557" d="M174.712,94.915l22.254,12.849-22.254,12.849Z" transform="translate(-163.392 -87.137)" fill="#fff" stroke="#263238" stroke-linecap="round" stroke-linejoin="round" stroke-width="1"/>
        </g>
      </g>
      <g id="Group_183" data-name="Group 183" transform="translate(0 135.306)">
        <rect id="Rectangle_68" data-name="Rectangle 68" width="151.673" height="63.951" rx="2.815" fill="#263238" stroke="#263238" stroke-linecap="round" stroke-linejoin="round" stroke-width="1"/>
        <g id="Group_182" data-name="Group 182" transform="translate(10.86 8.711)">
          <path id="Path_558" data-name="Path 558" d="M115.741,158.449l.736,1.232c-3.344,1.878-6.454,5.147-6.454,8.987a4.944,4.944,0,0,0,4.738,5.31c.491,0,.817-.245.817-.736q0-.613-.734-.734a2.9,2.9,0,0,1-2.124-3.107,4.027,4.027,0,0,1,4.33-3.922,4.432,4.432,0,0,1,4.411,4.576,5.551,5.551,0,0,1-5.808,5.474,6.627,6.627,0,0,1-7.107-6.865C108.551,164.171,111.991,160.573,115.741,158.449Zm15.114,0,.736,1.232c-3.344,1.878-6.454,5.147-6.454,8.987a4.944,4.944,0,0,0,4.738,5.31c.491,0,.817-.245.817-.736q0-.613-.734-.734a2.9,2.9,0,0,1-2.124-3.107,4.027,4.027,0,0,1,4.33-3.922,4.432,4.432,0,0,1,4.411,4.576,5.551,5.551,0,0,1-5.808,5.474,6.627,6.627,0,0,1-7.109-6.865c.009-4.5,3.441-8.093,7.2-10.218Z" transform="translate(-108.539 -158.449)" fill="#3343e0"/>
        </g>
        <line id="Line_78" data-name="Line 78" x2="86.305" transform="translate(47.656 21.741)" fill="none" stroke="#fff" stroke-linecap="round" stroke-linejoin="round" stroke-width="1"/>
        <line id="Line_79" data-name="Line 79" x2="86.305" transform="translate(47.656 29.153)" fill="none" stroke="#fff" stroke-linecap="round" stroke-linejoin="round" stroke-width="1"/>
        <line id="Line_80" data-name="Line 80" x2="86.305" transform="translate(47.656 36.567)" fill="none" stroke="#fff" stroke-linecap="round" stroke-linejoin="round" stroke-width="1"/>
        <line id="Line_81" data-name="Line 81" x2="86.305" transform="translate(47.656 43.979)" fill="none" stroke="#fff" stroke-linecap="round" stroke-linejoin="round" stroke-width="1"/>
      </g>
      <g id="Group_184" data-name="Group 184" transform="translate(74.519 227.25)">
        <circle id="Ellipse_13" data-name="Ellipse 13" cx="32.693" cy="32.693" r="32.693" transform="matrix(0.987, -0.161, 0.161, 0.987, 1.383, 11.895)" fill="#263238" stroke="#263238" stroke-linecap="round" stroke-linejoin="round" stroke-width="1"/>
        <circle id="Ellipse_14" data-name="Ellipse 14" cx="27.576" cy="27.576" r="27.576" transform="translate(0 41.419) rotate(-48.69)" fill="#fff" stroke="#263238" stroke-linecap="round" stroke-linejoin="round" stroke-width="1"/>
        <path id="Path_559" data-name="Path 559" d="M166.816,216.5v19.948h13.5" transform="translate(-127.899 -197.556)" fill="none" stroke="#263238" stroke-linecap="round" stroke-linejoin="round" stroke-width="2"/>
      </g>
    </g>
    <g id="Character" transform="translate(206.723 169.881)">
      <g id="Group_208" data-name="Group 208">
        <g id="Group_189" data-name="Group 189" transform="translate(80.985 170.056)">
          <g id="Group_186" data-name="Group 186" transform="translate(140.672)">
            <path id="Path_560" data-name="Path 560" d="M286.7,233.78s18.742,40,18.742,42.117-16.635,11.161-19.795,13.057a76.186,76.186,0,0,1-7.581,3.79l1.9,18.531s28.638-6.528,40.642-13.055,11.582-13.905,8.845-24.848-21.27-53.271-21.27-53.271Z" transform="translate(-278.064 -220.1)" fill="#fff"/>
            <g id="Group_185" data-name="Group 185" clip-path="url(#clip-path)">
              <path id="Path_561" data-name="Path 561" d="M314.793,298.217c12-6.528,11.582-13.905,8.845-24.848s-21.27-53.269-21.27-53.269l-2.992,1.906-.954,1.808s17.26,42.367,18.305,56.49c.7,9.482-18.392,21.315-31.022,28.071C295.051,305.854,307.768,302.036,314.793,298.217Z" transform="translate(-272.256 -220.1)" fill="#3343e0" opacity="0.5"/>
            </g>
            <path id="Path_563" data-name="Path 563" d="M286.7,233.78s18.742,40,18.742,42.117-16.635,11.161-19.795,13.057a76.186,76.186,0,0,1-7.581,3.79l1.9,18.531s28.638-6.528,40.642-13.055,11.582-13.905,8.845-24.848-21.27-53.271-21.27-53.271Z" transform="translate(-278.064 -220.1)" fill="none" stroke="#263238" stroke-linecap="round" stroke-linejoin="round" stroke-width="1"/>
          </g>
          <g id="Group_188" data-name="Group 188" transform="translate(0 4.835)">
            <path id="Path_564" data-name="Path 564" d="M212.257,222.847s-13.687,50.118-14.109,58.965,27.166,26.319,28.219,27.375-1.563-30.45-1.563-30.45l9.346-45.781Z" transform="translate(-198.143 -222.847)" fill="#fff"/>
            <g id="Group_187" data-name="Group 187" clip-path="url(#clip-path-2)">
              <path id="Path_565" data-name="Path 565" d="M218.527,226.946l-.306-1.346-5.963-2.753s-13.687,50.118-14.109,58.965,27.166,26.319,28.219,27.375c.417.417.257-4.288-.088-10.116-8.2-6.958-19.976-16.735-21.352-20.861" transform="translate(-198.143 -222.847)" fill="#3343e0" opacity="0.5"/>
            </g>
            <path id="Path_567" data-name="Path 567" d="M212.257,222.847s-13.687,50.118-14.109,58.965,27.166,26.319,28.219,27.375-1.563-30.45-1.563-30.45l9.346-45.781Z" transform="translate(-198.143 -222.847)" fill="none" stroke="#263238" stroke-linecap="round" stroke-linejoin="round" stroke-width="1"/>
          </g>
        </g>
        <g id="Group_190" data-name="Group 190" transform="translate(85.2 120.622)">
          <path id="Path_568" data-name="Path 568" d="M274.663,195.956s-5.265,3.79-15.583,4.21-10.784-7.011-23.586-6.949c-15.5.074-34.956,49.066-34.956,49.066s9.681,9.477,19.163,13.477a67.827,67.827,0,0,0,16.426,4.842l1.473,32.219H342.046L343.31,260.6l32.647-21.266s-16-28.639-23.8-39.378-20.847-6.74-24.848-4S311.52,199.327,307.1,198.7a174.12,174.12,0,0,1-16.846-4.633S283.508,188.375,274.663,195.956Z" transform="translate(-200.538 -192.015)" fill="#3343e0" stroke="#263238" stroke-linecap="round" stroke-linejoin="round" stroke-width="1"/>
          <line id="Line_82" data-name="Line 82" x1="0.421" y2="53.487" transform="translate(36.222 15.312)" fill="none" stroke="#263238" stroke-linecap="round" stroke-linejoin="round" stroke-width="0.5"/>
          <path id="Path_569" data-name="Path 569" d="M223.509,203.466s1.475,26.112,6.949,40.642" transform="translate(-183.077 -183.31)" fill="none" stroke="#263238" stroke-linecap="round" stroke-linejoin="round" stroke-width="0.5"/>
          <path id="Path_570" data-name="Path 570" d="M228.056,227.752a72.984,72.984,0,0,0,4.421,10.318" transform="translate(-179.62 -164.849)" fill="none" stroke="#263238" stroke-linecap="round" stroke-linejoin="round" stroke-width="0.5"/>
          <path id="Path_571" data-name="Path 571" d="M225.424,201.791a166.353,166.353,0,0,0,8.422,27.8" transform="translate(-181.621 -184.583)" fill="none" stroke="#263238" stroke-linecap="round" stroke-linejoin="round" stroke-width="0.5"/>
          <path id="Path_572" data-name="Path 572" d="M281.079,204.423s-5.053,20.636-9.475,29.9" transform="translate(-146.518 -182.583)" fill="none" stroke="#263238" stroke-linecap="round" stroke-linejoin="round" stroke-width="0.5"/>
          <line id="Line_83" data-name="Line 83" x1="0.211" y1="41.694" transform="translate(142.564 26.894)" fill="none" stroke="#263238" stroke-linecap="round" stroke-linejoin="round" stroke-width="0.5"/>
          <path id="Path_573" data-name="Path 573" d="M285.975,207.773s-3.79,26.321-13.055,40.219" transform="translate(-145.517 -180.036)" fill="none" stroke="#263238" stroke-linecap="round" stroke-linejoin="round" stroke-width="0.5"/>
          <path id="Path_574" data-name="Path 574" d="M280.792,227.632s-4.212,8-7.16,12.214" transform="translate(-144.976 -164.94)" fill="none" stroke="#263238" stroke-linecap="round" stroke-linejoin="round" stroke-width="0.5"/>
          <path id="Path_575" data-name="Path 575" d="M239.3,196.048s2.946,18.11,7.158,27.375,11.582,11.161,17.9,8.422,10.952-16.214,10.529-33.481" transform="translate(-171.073 -188.949)" fill="none" stroke="#263238" stroke-linecap="round" stroke-linejoin="round" stroke-width="0.5"/>
        </g>
        <g id="Group_197" data-name="Group 197" transform="translate(130.394 45.718)">
          <g id="Group_192" data-name="Group 192" transform="translate(0 39.705)">
            <g id="Group_191" data-name="Group 191">
              <path id="Path_576" data-name="Path 576" d="M234.3,176.412s-4-6.951-7.158-3.371,2.526,11.793,5.685,14.53,5.474,1.056,5.265-1.894S234.3,176.412,234.3,176.412Z" transform="translate(-226.214 -172.017)" fill="#3343e0" stroke="#263238" stroke-linecap="round" stroke-linejoin="round" stroke-width="1"/>
              <path id="Path_577" data-name="Path 577" d="M234.3,176.412s-4-6.951-7.158-3.371,2.526,11.793,5.685,14.53,5.474,1.056,5.265-1.894S234.3,176.412,234.3,176.412Z" transform="translate(-226.214 -172.017)" fill="#fff" opacity="0.5"/>
            </g>
            <path id="Path_578" data-name="Path 578" d="M234.3,176.412s-4-6.951-7.158-3.371,2.526,11.793,5.685,14.53,5.474,1.056,5.265-1.894S234.3,176.412,234.3,176.412Z" transform="translate(-226.214 -172.017)" fill="none" stroke="#263238" stroke-linecap="round" stroke-linejoin="round" stroke-width="1"/>
          </g>
          <g id="Group_194" data-name="Group 194" transform="translate(68.016 39.705)">
            <g id="Group_193" data-name="Group 193">
              <path id="Path_579" data-name="Path 579" d="M268.661,176.412s4-6.951,7.158-3.371-2.526,11.793-5.685,14.53-5.474,1.056-5.265-1.894S268.661,176.412,268.661,176.412Z" transform="translate(-264.856 -172.017)" fill="#3343e0" stroke="#263238" stroke-linecap="round" stroke-linejoin="round" stroke-width="1"/>
              <path id="Path_580" data-name="Path 580" d="M268.661,176.412s4-6.951,7.158-3.371-2.526,11.793-5.685,14.53-5.474,1.056-5.265-1.894S268.661,176.412,268.661,176.412Z" transform="translate(-264.856 -172.017)" fill="#fff" opacity="0.5"/>
            </g>
            <path id="Path_581" data-name="Path 581" d="M268.661,176.412s4-6.951,7.158-3.371-2.526,11.793-5.685,14.53-5.474,1.056-5.265-1.894S268.661,176.412,268.661,176.412Z" transform="translate(-264.856 -172.017)" fill="none" stroke="#263238" stroke-linecap="round" stroke-linejoin="round" stroke-width="1"/>
          </g>
          <path id="Path_582" data-name="Path 582" d="M241.575,193.416a225.165,225.165,0,0,0,7.581,26.532c3.79,9.477,10.95,9.477,13.905,3.371s4.842-28.85,4.842-28.85S248.1,197.207,241.575,193.416Z" transform="translate(-214.538 -116.045)" fill="#fff" stroke="#263238" stroke-linecap="round" stroke-linejoin="round" stroke-width="1"/>
          <g id="Group_196" data-name="Group 196" transform="translate(7.484)">
            <path id="Path_583" data-name="Path 583" d="M231.489,195.874s5.474,19.374,15.792,30.746,14.109,14.108,19.585,13.266,11.37-8,19.583-22.954,8.845-26.323,9.477-27.375-1.683-22.109-13.476-31.165-24.848-13.055-36.22-3.159S227.7,181.344,231.489,195.874Z" transform="translate(-230.466 -149.459)" fill="#fff"/>
            <g id="Group_195" data-name="Group 195" clip-path="url(#clip-path-3)">
              <path id="Path_584" data-name="Path 584" d="M282.449,158.392c-11.793-9.054-24.848-13.055-36.22-3.159S227.7,181.344,231.49,195.874c0,0,1.056,3.724,3.1,8.864a6.438,6.438,0,0,1,.266-1.913c2.512-7.966,9.939-23.41,34.942-16.336,19.842,5.611,17.415,23.058,15.568,32.387.352-.635.715-1.271,1.081-1.936,8.213-14.951,8.845-26.321,9.477-27.375S294.242,167.446,282.449,158.392Z" transform="translate(-230.465 -149.459)" fill="#3343e0" opacity="0.5"/>
            </g>
            <path id="Path_586" data-name="Path 586" d="M231.489,195.874s5.474,19.374,15.792,30.746,14.109,14.108,19.585,13.266,11.37-8,19.583-22.954,8.845-26.323,9.477-27.375-1.683-22.109-13.476-31.165-24.848-13.055-36.22-3.159S227.7,181.344,231.489,195.874Z" transform="translate(-230.466 -149.459)" fill="none" stroke="#263238" stroke-linecap="round" stroke-linejoin="round" stroke-width="1"/>
          </g>
          <path id="Path_587" data-name="Path 587" d="M253.512,181.572A86.077,86.077,0,0,0,252.455,194c.211,4.21,1.475,5.474-.421,5.895s-4-2.526-4-2.526" transform="translate(-209.628 -125.048)" fill="none" stroke="#263238" stroke-linecap="round" stroke-linejoin="round" stroke-width="1"/>
          <path id="Path_588" data-name="Path 588" d="M239.182,183.486a7.435,7.435,0,0,0,8.422.211" transform="translate(-216.357 -123.593)" fill="none" stroke="#263238" stroke-linecap="round" stroke-linejoin="round" stroke-width="1"/>
          <path id="Path_589" data-name="Path 589" d="M254.376,183.486a7.437,7.437,0,0,0,8.422.211" transform="translate(-204.807 -123.593)" fill="none" stroke="#263238" stroke-linecap="round" stroke-linejoin="round" stroke-width="1"/>
          <path id="Path_590" data-name="Path 590" d="M254.274,182.264s-4-9.9-17.267-5.265" transform="translate(-218.01 -129.463)" fill="none" stroke="#263238" stroke-linecap="round" stroke-linejoin="round" stroke-width="1"/>
          <path id="Path_591" data-name="Path 591" d="M253.085,181.264s3.371-9.681,15.373-4" transform="translate(-205.789 -129.681)" fill="none" stroke="#263238" stroke-linecap="round" stroke-linejoin="round" stroke-width="1"/>
          <path id="Path_592" data-name="Path 592" d="M260.284,187.22c0,5.407-6.222,9.792-13.905,9.792s-13.905-4.385-13.905-9.792,5.808-7.687,13.477-7.687S260.284,181.821,260.284,187.22Z" transform="translate(-221.456 -126.598)" fill="none" stroke="#263238" stroke-linecap="round" stroke-linejoin="round" stroke-width="1"/>
          <path id="Path_593" data-name="Path 593" d="M278.469,187.22c0,5.407-6.222,9.792-13.905,9.792s-13.905-4.385-13.905-9.792,5.808-7.687,13.477-7.687S278.469,181.821,278.469,187.22Z" transform="translate(-207.633 -126.598)" fill="none" stroke="#263238" stroke-linecap="round" stroke-linejoin="round" stroke-width="1"/>
        </g>
        <g id="Group_198" data-name="Group 198" transform="translate(8.519 275.195)">
          <path id="Path_594" data-name="Path 594" d="M166.008,279.833,165.14,493.2a2.529,2.529,0,0,0,2.529,2.542h0A2.527,2.527,0,0,0,170.2,493.3l6.078-213.174Z" transform="translate(-150.765 -279.833)" fill="#fff" stroke="#263238" stroke-linecap="round" stroke-linejoin="round" stroke-width="1"/>
          <path id="Path_595" data-name="Path 595" d="M157.841,308.167l-.868,220.6a2.529,2.529,0,0,0,2.529,2.542h0a2.531,2.531,0,0,0,2.529-2.443l6.078-220.41Z" transform="translate(-156.973 -258.295)" fill="#fff" stroke="#263238" stroke-linecap="round" stroke-linejoin="round" stroke-width="1"/>
          <path id="Path_596" data-name="Path 596" d="M337.663,279.833l.868,213.37A2.529,2.529,0,0,1,336,495.744h0a2.528,2.528,0,0,1-2.528-2.443L327.4,280.127Z" transform="translate(-27.424 -279.833)" fill="#fff" stroke="#263238" stroke-linecap="round" stroke-linejoin="round" stroke-width="1"/>
          <path id="Path_597" data-name="Path 597" d="M345.834,308.167l.868,220.6a2.529,2.529,0,0,1-2.529,2.542h0a2.531,2.531,0,0,1-2.529-2.443l-6.076-220.41Z" transform="translate(-21.216 -258.295)" fill="#fff" stroke="#263238" stroke-linecap="round" stroke-linejoin="round" stroke-width="1"/>
        </g>
        <g id="Group_199" data-name="Group 199" transform="translate(90.413 312.158)">
          <path id="Path_598" data-name="Path 598" d="M214.535,313.377l-.551,195.805a1.892,1.892,0,0,0,1.609,2.089h0a1.871,1.871,0,0,0,1.609-2.008l3.86-195.645Z" transform="translate(-195.54 -291.298)" fill="#fff" stroke="#263238" stroke-linecap="round" stroke-linejoin="round" stroke-width="1"/>
          <path id="Path_599" data-name="Path 599" d="M287.082,309.8l.466,170.88a1.6,1.6,0,0,1-1.359,1.76h0a1.584,1.584,0,0,1-1.359-1.7L281.566,310Z" transform="translate(-144.159 -294.017)" fill="#fff" stroke="#263238" stroke-linecap="round" stroke-linejoin="round" stroke-width="1"/>
          <path id="Path_600" data-name="Path 600" d="M215.582,309.8l.466,170.88a1.6,1.6,0,0,1-1.359,1.76h0a1.584,1.584,0,0,1-1.359-1.7L210.066,310Z" transform="translate(-198.509 -294.017)" fill="#fff" stroke="#263238" stroke-linecap="round" stroke-linejoin="round" stroke-width="1"/>
          <path id="Path_601" data-name="Path 601" d="M285.514,313.377l.547,195.805a1.892,1.892,0,0,1-1.609,2.089h0a1.871,1.871,0,0,1-1.607-2.008l-3.872-195.645Z" transform="translate(-146.13 -291.298)" fill="#fff" stroke="#263238" stroke-linecap="round" stroke-linejoin="round" stroke-width="1"/>
          <ellipse id="Ellipse_15" data-name="Ellipse 15" cx="78.326" cy="17.895" rx="78.326" ry="17.895" fill="#fff" stroke="#263238" stroke-linecap="round" stroke-linejoin="round" stroke-width="1"/>
        </g>
        <g id="Group_200" data-name="Group 200" transform="translate(61.741 306.242)">
          <path id="Path_602" data-name="Path 602" d="M228.821,399.266s-4.106,5.868-1.172,8.8,5.867,1.76,5.573,4.694-4.986,12.907-9.093,23.468,4.4,21.122,12.321,18.189,7.041-32.27,8.213-37.551,2.054-6.16,1.76-11.147-.586-10.267-4.4-10.855S230.581,397.214,228.821,399.266Z" transform="translate(-159.96 -223.497)" fill="#fff" stroke="#263238" stroke-linecap="round" stroke-linejoin="round" stroke-width="1"/>
          <path id="Path_603" data-name="Path 603" d="M241.238,424.715c-5.28-2-13.377-1.584-17.953-1.128,1.531,6.634,7.393,11.3,12.988,9.228C238.595,431.956,240.156,428.825,241.238,424.715Z" transform="translate(-159.788 -201.894)" fill="#3343e0" stroke="#263238" stroke-linecap="round" stroke-linejoin="round" stroke-width="1"/>
          <path id="Path_604" data-name="Path 604" d="M221.167,391.9s8.507,14.375,10.853,18.188,10.269,2.64,11.149-2.64-3.228-19.948-3.228-19.948l-17.6,4.4Z" transform="translate(-161.398 -229.039)" fill="#fff" stroke="#263238" stroke-linecap="round" stroke-linejoin="round" stroke-width="1"/>
          <path id="Path_605" data-name="Path 605" d="M210.316,381.435s-2.348,3.814-1.174,6.454,4.4,10.267,6.454,14.081,11.441,6.16,22.294,4.4,17.015-6.748,17.309-11.149-1.76-10.267-3.228-17.307-5.28-6.747-10.561-6.747S214.716,377.328,210.316,381.435Z" transform="translate(-170.789 -241.455)" fill="#3343e0" stroke="#263238" stroke-linecap="round" stroke-linejoin="round" stroke-width="1"/>
          <path id="Path_606" data-name="Path 606" d="M251.5,347.972c.162-7.217,4.339-10.77,4.65-15.716a62.338,62.338,0,0,0-1.6-19.553l-8.031-10.976c-23.086.3-39.644.688-39.906.776-.88.292-1.468,5.28-2.054,9.387,0,0-9.8,1.243-8.035,28.525.246,3.814,10.137,47.8,10.851,52.787,4.4,30.656,14.2,46,14.2,46s.88,3.814,12.321,2.934,22.882-8.507,22.882-8.507S250.911,374.08,251.5,347.972Z" transform="translate(-180.29 -294.239)" fill="#263238" stroke="#263238" stroke-linecap="round" stroke-linejoin="round" stroke-width="1"/>
          <path id="Path_607" data-name="Path 607" d="M209.89,305.567s-12.115,1.82-19.538,10.239-1.125,14.063,13.314,12.576,31.079-16.292,31.785-17.073S220.381,300.551,209.89,305.567Z" transform="translate(-187.203 -292.386)" fill="#fff" stroke="#263238" stroke-linecap="round" stroke-linejoin="round" stroke-width="1"/>
          <path id="Path_608" data-name="Path 608" d="M214.162,312.561a115.065,115.065,0,0,1,22.882,3.52c9.975,2.934,27.576,8.8,31.682,8.8s2.934-15.255,2.934-18.188S218.856,302,212.4,302,214.162,312.561,214.162,312.561Z" transform="translate(-169.942 -294.031)" fill="#fff" stroke="#263238" stroke-linecap="round" stroke-linejoin="round" stroke-width="1"/>
          <path id="Path_609" data-name="Path 609" d="M248.829,304.671s-4.694,2.346-6.454,11.147-4.106,13.5-.586,15.841,18.775,4.106,21.122,1.76,8.8-14.081,9.975-21.708S248.829,304.671,248.829,304.671Z" transform="translate(-147.111 -292.008)" fill="#3343e0" stroke="#263238" stroke-linecap="round" stroke-linejoin="round" stroke-width="1"/>
          <path id="Path_610" data-name="Path 610" d="M260.387,313.068a36.688,36.688,0,0,0-6.453,10.561A97.686,97.686,0,0,0,251,335.95a115.322,115.322,0,0,1,16.427,5.868c9.389,4.106,25.23,7.04,40.483,10.561s19.362,7.041,24.642,7.041,11.735-4.108,19.949-14.081,1.172-31.1-7.041-37.551-52.218-11.733-58.085-9.973S260.387,313.068,260.387,313.068Z" transform="translate(-138.721 -297.472)" fill="#263238" stroke="#263238" stroke-linecap="round" stroke-linejoin="round" stroke-width="1"/>
          <path id="Path_611" data-name="Path 611" d="M198.8,324.286a35.617,35.617,0,0,0-6.865-14.433q-.819.771-1.584,1.625C183.813,318.882,187.9,324.135,198.8,324.286Z" transform="translate(-187.21 -288.061)" fill="#3343e0" stroke="#263238" stroke-linecap="round" stroke-linejoin="round" stroke-width="1"/>
          <path id="Path_612" data-name="Path 612" d="M235.116,320.692s-6.055,64.773-18.418,74.871" transform="translate(-164.796 -279.822)" fill="none" stroke="#fff" stroke-linecap="round" stroke-linejoin="round" stroke-width="0.5"/>
          <path id="Path_613" data-name="Path 613" d="M232.243,355.632s-4.8,21.194-17.408,29.514" transform="translate(-166.212 -253.263)" fill="none" stroke="#fff" stroke-linecap="round" stroke-linejoin="round" stroke-width="0.5"/>
          <path id="Path_614" data-name="Path 614" d="M273.6,314s-18.775,1.174-6.454,9.387,34.617,13.495,34.617,13.495" transform="translate(-129.636 -284.909)" fill="none" stroke="#fff" stroke-linecap="round" stroke-linejoin="round" stroke-width="0.5"/>
        </g>
        <g id="Group_201" data-name="Group 201" transform="translate(0 262.727)">
          <path id="Path_615" data-name="Path 615" d="M494.181,319.577l-6.336-5.71-14.639-31.633a8.424,8.424,0,0,0-7.687-4.77H181.08a8.427,8.427,0,0,0-7.688,4.77l-18.256,39.452-3-1.105v9.031l.15-.116a5,5,0,0,0,5.05,4.293H489.263a4.958,4.958,0,0,0,5.06-4.666Z" transform="translate(-152.133 -269.166)" fill="#263238" stroke="#263238" stroke-linecap="round" stroke-linejoin="round" stroke-width="1"/>
          <path id="Path_616" data-name="Path 616" d="M489.2,329.075H157.267a4.862,4.862,0,0,1-4.657-6.785l20.717-44.769a8.429,8.429,0,0,1,7.688-4.77H465.454a8.424,8.424,0,0,1,7.687,4.77l20.719,44.769a4.862,4.862,0,0,1-4.656,6.785Z" transform="translate(-152.073 -272.75)" fill="#fff" stroke="#263238" stroke-linecap="round" stroke-linejoin="round" stroke-width="1"/>
          <path id="Path_617" data-name="Path 617" d="M166.518,296.934S159,302.1,163.7,303.975s58.72.47,65.3-1.408S243.1,283.306,243.1,280.488s-9.463-4.833-12.953-5-49.525,2.653-49.525,2.653Z" transform="translate(-144.514 -270.674)" fill="#3343e0" opacity="0.5"/>
          <ellipse id="Ellipse_16" data-name="Ellipse 16" cx="19.259" cy="7.986" rx="19.259" ry="7.986" transform="translate(271.445 19.214)" fill="#3343e0" opacity="0.5"/>
          <ellipse id="Ellipse_17" data-name="Ellipse 17" cx="69.054" cy="12.918" rx="69.054" ry="12.918" transform="translate(99.043 19.214)" fill="#3343e0" opacity="0.5"/>
        </g>
        <g id="Group_202" data-name="Group 202" transform="translate(267.645 254.245)">
          <path id="Path_618" data-name="Path 618" d="M313.164,271.946s-1.262-5.053-5.474-3.369-3.791,12.849-2.948,19.163,6.528,3.369,6.528,3.369v-3.791s-2.112,1.684-3.168-.63-.841-13.905.211-13.689,3.158,3.791,3.158,3.791S312.111,276.368,313.164,271.946Z" transform="translate(-304.192 -267.701)" fill="#3343e0" stroke="#263238" stroke-linecap="round" stroke-linejoin="round" stroke-width="1"/>
          <path id="Path_619" data-name="Path 619" d="M307.57,270.822v27.673c0,3.249,7.482,5.881,16.721,5.881s16.721-2.631,16.721-5.881V270.822Z" transform="translate(-301.624 -265.733)" fill="#3343e0" stroke="#263238" stroke-linecap="round" stroke-linejoin="round" stroke-width="1"/>
          <path id="Path_620" data-name="Path 620" d="M341,273.02c0,2.816-7.484,5.085-16.721,5.085s-16.721-2.276-16.721-5.085,7.482-5.089,16.721-5.089S341,270.209,341,273.02Z" transform="translate(-301.63 -267.931)" fill="#fff" stroke="#263238" stroke-linecap="round" stroke-linejoin="round" stroke-width="1"/>
          <path id="Path_621" data-name="Path 621" d="M337.871,272.732c0,2.441-6.513,4.422-14.53,4.422s-14.53-1.98-14.53-4.422,6.513-4.423,14.53-4.423S337.871,270.289,337.871,272.732Z" transform="translate(-300.68 -267.644)" fill="#fff" stroke="#263238" stroke-linecap="round" stroke-linejoin="round" stroke-width="1"/>
          <path id="Path_622" data-name="Path 622" d="M310.7,273.115a39.866,39.866,0,0,0,22.41,0A39.867,39.867,0,0,0,310.7,273.115Z" transform="translate(-299.244 -265.212)" fill="#263238" stroke="#263238" stroke-linecap="round" stroke-linejoin="round" stroke-width="1"/>
        </g>
        <g id="Group_204" data-name="Group 204" transform="translate(9.324 243.44)">
          <path id="Path_623" data-name="Path 623" d="M163.452,278.363l.211,9.477,63.805.632v-10.95Z" transform="translate(-152.853 -249.835)" fill="#fff" stroke="#263238" stroke-linecap="round" stroke-linejoin="round" stroke-width="1"/>
          <path id="Path_624" data-name="Path 624" d="M200,294.928l9.265-20.006v-5.9l-9.681,16.846Z" transform="translate(-125.387 -256.294)" fill="#fff" stroke="#263238" stroke-linecap="round" stroke-linejoin="round" stroke-width="1"/>
          <path id="Path_625" data-name="Path 625" d="M163.452,283.263l.211,9.477,63.805.632v-10.95Z" transform="translate(-152.853 -246.111)" fill="#fff" stroke="#263238" stroke-linecap="round" stroke-linejoin="round" stroke-width="1"/>
          <path id="Path_626" data-name="Path 626" d="M200,299.833l9.265-20.006v-5.9l-9.681,16.846Z" transform="translate(-125.387 -252.565)" fill="#fff" stroke="#263238" stroke-linecap="round" stroke-linejoin="round" stroke-width="1"/>
          <g id="Group_203" data-name="Group 203">
            <path id="Path_627" data-name="Path 627" d="M192.666,266.314s1.475-2.948-.632-4.212-4.421,1.684-5.685,2.739-27.8,18.531-28.639,21.268,0,8.845,5.687,9.477,10.737-3.159,13.266-3.791,3.58-.841,3.58-.841l17.476-23.586Z" transform="translate(-157.431 -261.792)" fill="#fff" stroke="#263238" stroke-linecap="round" stroke-linejoin="round" stroke-width="1"/>
            <path id="Path_628" data-name="Path 628" d="M163.4,285.457c5.685.632,10.737-3.159,13.266-3.791s3.578-.841,3.578-.841l.635-.855-16.427-3.357a5.511,5.511,0,0,0-6.74-.632C156.868,278.717,157.709,284.825,163.4,285.457Z" transform="translate(-157.43 -251.665)" fill="#fff" stroke="#263238" stroke-linecap="round" stroke-linejoin="round" stroke-width="1"/>
            <path id="Path_629" data-name="Path 629" d="M161.418,284.787h49.275c15.371,0,20-.843,20-.843l9.477-19.583s-29.9,1.9-39.167,1.264a69.673,69.673,0,0,1-11.372-1.264Z" transform="translate(-154.4 -259.84)" fill="#fff" stroke="#263238" stroke-linecap="round" stroke-linejoin="round" stroke-width="1"/>
            <path id="Path_630" data-name="Path 630" d="M161.418,276.33l.841,3.79s40.01.211,50.539.211,18.531.421,18.531.421l-.632-5.265Z" transform="translate(-154.4 -251.382)" fill="#fff" stroke="#263238" stroke-linecap="round" stroke-linejoin="round" stroke-width="1"/>
            <path id="Path_631" data-name="Path 631" d="M201.41,289.209l8.845-20.215v-4.633l-9.477,19.583Z" transform="translate(-124.48 -259.84)" fill="#fff" stroke="#263238" stroke-linecap="round" stroke-linejoin="round" stroke-width="1"/>
          </g>
        </g>
        <g id="Group_205" data-name="Group 205" transform="translate(98.196 208.577)">
          <path id="Path_632" data-name="Path 632" d="M334.887,293.672H214.221a2.028,2.028,0,0,1-2.028-2.028h0a2.028,2.028,0,0,1,2.028-2.028H334.887a2.028,2.028,0,0,1,2.028,2.028h0A2.028,2.028,0,0,1,334.887,293.672Z" transform="translate(-204.674 -205.778)" fill="#fff" stroke="#263238" stroke-linecap="round" stroke-linejoin="round" stroke-width="1"/>
          <path id="Path_633" data-name="Path 633" d="M339.15,325.794H216.431a1.82,1.82,0,0,1-1.815-1.669l-6.689-80.169a1.822,1.822,0,0,1,1.815-1.971H345.821a1.818,1.818,0,0,1,1.813,1.971l-6.678,80.169A1.82,1.82,0,0,1,339.15,325.794Z" transform="translate(-207.921 -241.985)" fill="#fff" stroke="#263238" stroke-linecap="round" stroke-linejoin="round" stroke-width="1"/>
          <path id="Path_634" data-name="Path 634" d="M264.209,270.32c0,4.781-5.189,8.655-11.589,8.655s-11.587-3.872-11.587-8.655,5.187-8.653,11.587-8.653S264.209,265.541,264.209,270.32Z" transform="translate(-182.752 -227.024)" fill="#fff" stroke="#263238" stroke-linecap="round" stroke-linejoin="round" stroke-width="1"/>
        </g>
        <g id="Group_206" data-name="Group 206" transform="translate(276.689 178.107)">
          <path id="Path_635" data-name="Path 635" d="M322.331,235.765a10.519,10.519,0,0,0,3.746-5.875,10.645,10.645,0,0,0-.127-5.215" transform="translate(-299.447 -224.674)" fill="none" stroke="#263238" stroke-linecap="round" stroke-linejoin="round" stroke-width="1"/>
          <path id="Path_636" data-name="Path 636" d="M318.168,292.631s11.712-6.983,7.884-15.09-16.721-13.366-16.721-25.906c0-10.807,11.49-14.8,18.98-19.138" transform="translate(-309.33 -218.727)" fill="none" stroke="#263238" stroke-linecap="round" stroke-linejoin="round" stroke-width="1"/>
          <path id="Path_637" data-name="Path 637" d="M322.633,277.915s6.532-4.348,6.532-11.265c0-4.631-4.955-7.657-11.487-15.088" transform="translate(-302.984 -204.235)" fill="none" stroke="#263238" stroke-linecap="round" stroke-linejoin="round" stroke-width="1"/>
          <path id="Path_638" data-name="Path 638" d="M316.618,253.186s-4.279-3.378-1.126-9.681" transform="translate(-305.527 -210.36)" fill="none" stroke="#263238" stroke-linecap="round" stroke-linejoin="round" stroke-width="1"/>
        </g>
        <g id="Group_207" data-name="Group 207" transform="translate(131.053)">
          <path id="Path_639" data-name="Path 639" d="M284.211,160.034c2.1-.433,6.583-2.172,9.621-9.184a.881.881,0,0,0-1.616-.7c-2.786,6.432-6.77,7.857-8.415,8.174a20.169,20.169,0,0,0,4.626-12.724c0-12.212-11.314-22.111-25.27-22.111s-25.269,9.9-25.269,22.111a20.107,20.107,0,0,0,4.235,12.247c-2.656-.139-7.146.987-12.837,7.627a.88.88,0,1,0,1.334,1.146c7.264-8.475,12.078-7.072,13.051-6.66a26.2,26.2,0,0,0-4.6,3.225c-8.12,7.306-13.057,21.057-12.425,32.64a42.368,42.368,0,0,0,8,21.057,49.131,49.131,0,0,0,14.32-16,136.946,136.946,0,0,0,7.072-14.391c0,5.162.678,11.4,3.379,15.81a22.5,22.5,0,0,0,19.742,11.554,18.9,18.9,0,0,0,4.145-.407.88.88,0,0,0,.553-.445c6.794,1.44,13.553,1.313,14.593-.118,1.684-2.316,4.061-9.5,4.844-18.32C304.605,179.808,295.2,166.844,284.211,160.034Zm-23.292,41.344c-3.413-5.576-3.313-14.678-2.9-19.905.137-.377.215-.6.215-.6a35.881,35.881,0,0,0,14.319,27.587,25.479,25.479,0,0,0,7.8,3.636C276.04,212.39,267.162,211.575,260.919,201.378Z" transform="translate(-226.589 -123.485)" fill="#263238"/>
          <path id="Path_640" data-name="Path 640" d="M246.279,152.029s-1.445,10.665,12.112,21.148,26.39,6.326,26.39,6.326" transform="translate(-211.656 -101.788)" fill="none" stroke="#fff" stroke-linecap="round" stroke-linejoin="round" stroke-width="0.5"/>
          <path id="Path_641" data-name="Path 641" d="M247.39,149.975s14.28,20.787,33.981,15.364" transform="translate(-210.778 -103.349)" fill="none" stroke="#fff" stroke-linecap="round" stroke-linejoin="round" stroke-width="0.5"/>
          <path id="Path_642" data-name="Path 642" d="M254.47,146.719a13.8,13.8,0,0,0-14.28,1.084c-7.591,5.06-11.388,16.991-11.388,16.991" transform="translate(-224.907 -106.961)" fill="none" stroke="#fff" stroke-linecap="round" stroke-linejoin="round" stroke-width="0.5"/>
          <path id="Path_643" data-name="Path 643" d="M249.913,149.509s-6.145-1.626-9.941,2.168a24.082,24.082,0,0,0-4.7,5.784" transform="translate(-219.989 -103.967)" fill="none" stroke="#fff" stroke-linecap="round" stroke-linejoin="round" stroke-width="0.5"/>
        </g>
      </g>
    </g>
  </g>
</svg>
