<svg xmlns="http://www.w3.org/2000/svg" width="66.056" height="82.679" viewBox="0 0 66.056 82.679">
  <g id="not" transform="translate(-6.775 -3.93)">
    <path id="Path_1837" data-name="Path 1837" d="M31.36,28.336a2.676,2.676,0,0,0-2.624,2.108A5.179,5.179,0,0,1,27.7,32.7c-.269.31-1.054,1.219-3.327,1.219s-3.058-.93-3.327-1.219a5.179,5.179,0,0,1-1.033-2.252,2.676,2.676,0,0,0-2.624-2.108h0a2.7,2.7,0,0,0-2.624,3.286,9.233,9.233,0,0,0,9.609,7.667,9.216,9.216,0,0,0,9.609-7.667,2.7,2.7,0,0,0-2.624-3.286Z" transform="translate(15.369 47.322)"/>
    <path id="Path_1838" data-name="Path 1838" d="M72,65.16c-3.182-4.195-9.444-6.654-9.444-25.438,0-19.28-8.514-27.029-16.449-28.889-.744-.186-1.281-.434-1.281-1.219v-.6a5.068,5.068,0,0,0-4.96-5.084h-.124a5.068,5.068,0,0,0-4.96,5.084v.6c0,.765-.537,1.033-1.281,1.219-7.956,1.88-16.449,9.609-16.449,28.889,0,18.784-6.261,21.223-9.444,25.438A4.1,4.1,0,0,0,10.9,71.731H68.778A4.1,4.1,0,0,0,72,65.16Zm-8.059,1.2H15.753a.906.906,0,0,1-.682-1.509,25.035,25.035,0,0,0,4.34-6.9c1.984-4.67,2.955-10.642,2.955-18.226,0-7.708,1.447-13.742,4.319-17.937a13.259,13.259,0,0,1,8-5.7,7.242,7.242,0,0,0,3.844-2.17,1.634,1.634,0,0,1,2.459-.041,7.487,7.487,0,0,0,3.885,2.211,13.259,13.259,0,0,1,8,5.7c2.872,4.195,4.319,10.229,4.319,17.937,0,7.584.971,13.556,2.955,18.226a25.32,25.32,0,0,0,4.443,7.005A.854.854,0,0,1,63.943,66.358Z" transform="translate(0 0)"/>
  </g>
</svg>
