<svg id="seo" xmlns="http://www.w3.org/2000/svg" width="511.998" height="512" viewBox="0 0 511.998 512">
  <path id="Path_536" data-name="Path 536" d="M123.806,105h234.55a38.468,38.468,0,0,1,38.349,38.5V246.056a7.5,7.5,0,1,0,15,0V143.5A53.485,53.485,0,0,0,358.356,90H123.806a7.5,7.5,0,1,0,0,15Z" fill="#303778"/>
  <path id="Path_537" data-name="Path 537" d="M306.358,336.556H164.927a7.5,7.5,0,0,0-5.716,2.645l-42.5,50.021L74.218,339.2a7.5,7.5,0,0,0-5.716-2.645H53.349A38.468,38.468,0,0,1,15,298.055V143.5A38.468,38.468,0,0,1,53.349,105H89.028a7.5,7.5,0,0,0,0-15H53.349A53.485,53.485,0,0,0,0,143.5V298.056a53.485,53.485,0,0,0,53.349,53.5H65.033L111,405.661a7.5,7.5,0,0,0,11.432,0L168.4,351.556H306.358a7.5,7.5,0,0,0,0-15Z" fill="#303778"/>
  <path id="Path_538" data-name="Path 538" d="M221.328,447.329H153.144a7.5,7.5,0,1,0,0,15h68.184a17.336,17.336,0,0,1,0,34.671H32.28a17.336,17.336,0,0,1,0-34.671h6.635a7.5,7.5,0,0,0,6.076-3.1l13.033-18.009,13.033,18.009a7.5,7.5,0,0,0,6.076,3.1h41.332a7.5,7.5,0,1,0,0-15h-37.5L64.1,424.027a7.5,7.5,0,0,0-12.152,0l-16.863,23.3H32.28a32.336,32.336,0,0,0,0,64.671H221.328a32.336,32.336,0,0,0,0-64.671Z" fill="#303778"/>
  <path id="Path_539" data-name="Path 539" d="M290.659,64.671h28.213a7.5,7.5,0,1,0,0-15H290.659a17.336,17.336,0,0,1,0-34.671H479.707a17.336,17.336,0,0,1,0,34.671h-6.635a7.5,7.5,0,0,0-6.076,3.1L453.963,70.783,440.93,52.773a7.5,7.5,0,0,0-6.076-3.1h-81.3a7.5,7.5,0,0,0,0,15h77.472l16.863,23.3a7.5,7.5,0,0,0,12.152,0L476.9,64.67h2.8a32.335,32.335,0,0,0,0-64.67H290.659a32.336,32.336,0,0,0,0,64.671Z" fill="#303778"/>
  <path id="Path_540" data-name="Path 540" d="M109.855,253.936a7.5,7.5,0,0,0,0,15h40a7.5,7.5,0,0,0,7.5-7.5v-40a7.5,7.5,0,0,0-7.5-7.5h-32.5v-25h32.5a7.5,7.5,0,0,0,0-15h-40a7.5,7.5,0,0,0-7.5,7.5v40a7.5,7.5,0,0,0,7.5,7.5h32.5v25Z" fill="#303778"/>
  <path id="Path_541" data-name="Path 541" d="M224.852,188.936a7.5,7.5,0,0,0,0-15h-40a7.5,7.5,0,0,0-7.5,7.5v80a7.5,7.5,0,0,0,7.5,7.5h40a7.5,7.5,0,1,0,0-15h-32.5v-25h32.5a7.5,7.5,0,0,0,0-15h-32.5v-25Z" fill="#303778"/>
  <path id="Path_542" data-name="Path 542" d="M259.852,173.936a7.5,7.5,0,0,0-7.5,7.5v80a7.5,7.5,0,0,0,7.5,7.5h40a7.5,7.5,0,0,0,7.5-7.5v-80a7.5,7.5,0,0,0-7.5-7.5Zm32.5,80h-25v-65h25Z" fill="#303778"/>
  <path id="Path_543" data-name="Path 543" d="M511.987,345.242a7.5,7.5,0,0,0-6.325-7.4L495.314,336.2l-4.939-11.919,6.154-8.489a7.5,7.5,0,0,0-.77-9.706L474.577,284.9a7.5,7.5,0,0,0-9.713-.763l-8.471,6.158-11.914-4.934-1.647-10.352a7.5,7.5,0,0,0-7.407-6.321h0l-29.945.012a7.5,7.5,0,0,0-7.4,6.328l-1.639,10.357-11.9,4.939-8.479-6.154a7.5,7.5,0,0,0-9.712.77l-21.167,21.2a7.5,7.5,0,0,0-.762,9.706l6.157,8.48-4.933,11.929L335.293,337.9a7.5,7.5,0,0,0-6.32,7.409l.012,29.965a7.5,7.5,0,0,0,6.326,7.4l10.347,1.641,4.939,11.919-6.154,8.489a7.5,7.5,0,0,0,.769,9.706l21.181,21.181a7.5,7.5,0,0,0,9.713.763l8.471-6.158,11.913,4.934,1.647,10.352a7.5,7.5,0,0,0,7.407,6.321h0l29.945-.013a7.5,7.5,0,0,0,7.4-6.327l1.64-10.358,11.9-4.939,8.479,6.155a7.5,7.5,0,0,0,9.712-.77l21.167-21.2a7.5,7.5,0,0,0,.763-9.706l-6.157-8.481,4.933-11.929,10.341-1.647a7.5,7.5,0,0,0,6.32-7.409Zm-23.154,24.869a7.5,7.5,0,0,0-5.751,4.54l-8.141,19.686a7.5,7.5,0,0,0,.861,7.272l4.863,6.7-12.118,12.135-6.694-4.859a7.5,7.5,0,0,0-7.28-.858l-19.661,8.158a7.5,7.5,0,0,0-4.533,5.755l-1.3,8.18-17.138.007-1.3-8.173a7.5,7.5,0,0,0-4.538-5.751l-19.672-8.146a7.5,7.5,0,0,0-7.28.864l-6.686,4.86-12.125-12.125,4.861-6.706a7.5,7.5,0,0,0,.856-7.273L357.91,374.7a7.5,7.5,0,0,0-5.754-4.536l-8.171-1.3-.007-17.16,8.165-1.3a7.5,7.5,0,0,0,5.75-4.54l8.141-19.686a7.5,7.5,0,0,0-.862-7.272l-4.863-6.7,12.118-12.134,6.694,4.858a7.5,7.5,0,0,0,7.28.858l19.661-8.158a7.5,7.5,0,0,0,4.533-5.756l1.294-8.179,17.138-.006,1.3,8.173a7.5,7.5,0,0,0,4.538,5.751l19.673,8.146a7.5,7.5,0,0,0,7.279-.863l6.686-4.86,12.126,12.125-4.861,6.7a7.5,7.5,0,0,0-.856,7.273l8.153,19.674a7.5,7.5,0,0,0,5.754,4.536l8.172,1.3L497,368.81Z" fill="#303778"/>
  <path id="Path_544" data-name="Path 544" d="M452.329,352.759a7.5,7.5,0,0,0-7.5,7.5,24.319,24.319,0,1,1-14.271-22.17,7.5,7.5,0,0,0,6.215-13.653,39.348,39.348,0,1,0,23.056,35.822,7.5,7.5,0,0,0-7.5-7.5Z" fill="#303778"/>
</svg>
