<svg xmlns="http://www.w3.org/2000/svg" xmlns:xlink="http://www.w3.org/1999/xlink" width="452.975" height="427.555" viewBox="0 0 452.975 427.555">
  <defs>
    <style>
      .cls-1 {
        fill: #92e3a9;
      }

      .cls-1, .cls-10, .cls-14, .cls-2, .cls-3, .cls-6 {
        stroke: #263238;
        stroke-linecap: round;
        stroke-linejoin: round;
      }

      .cls-11, .cls-18, .cls-2, .cls-5 {
        fill: #fff;
      }

      .cls-15, .cls-3 {
        fill: #757575;
      }

      .cls-10, .cls-25, .cls-4 {
        fill: #3343e0;
      }

      .cls-20, .cls-5 {
        opacity: 0.7;
      }

      .cls-6 {
        fill: none;
      }

      .cls-7 {
        clip-path: url(#clip-path);
      }

      .cls-18, .cls-24, .cls-8 {
        opacity: 0.2;
      }

      .cls-9 {
        fill: #263238;
      }

      .cls-12 {
        clip-path: url(#clip-path-2);
      }

      .cls-13 {
        opacity: 0.4;
      }

      .cls-14 {
        fill: #999;
      }

      .cls-16 {
        clip-path: url(#clip-path-3);
      }

      .cls-17 {
        clip-path: url(#clip-path-4);
      }

      .cls-19 {
        clip-path: url(#clip-path-5);
      }

      .cls-21 {
        clip-path: url(#clip-path-6);
      }

      .cls-22 {
        clip-path: url(#clip-path-7);
      }

      .cls-23 {
        clip-path: url(#clip-path-8);
      }

      .cls-24 {
        fill: rgba(0,0,0,0.7);
      }

      .cls-25 {
        opacity: 0.25;
      }
    </style>
    <clipPath id="clip-path">
      <rect id="Rectangle_26" data-name="Rectangle 26" class="cls-1" width="266.916" height="242.195" rx="8.789" transform="translate(114.804 89.623)"/>
    </clipPath>
    <clipPath id="clip-path-2">
      <path id="Path_234" data-name="Path 234" class="cls-2" d="M350.779,105.063H145.744A232.832,232.832,0,0,0,136.7,63.211H359.824A223.785,223.785,0,0,0,350.779,105.063Z"/>
    </clipPath>
    <clipPath id="clip-path-3">
      <rect id="Rectangle_35" data-name="Rectangle 35" class="cls-3" width="8.229" height="23.02" transform="translate(385.816 111.656)"/>
    </clipPath>
    <clipPath id="clip-path-4">
      <rect id="Rectangle_40" data-name="Rectangle 40" class="cls-3" width="8.229" height="23.02" transform="translate(110.707 134.676) rotate(180)"/>
    </clipPath>
    <clipPath id="clip-path-5">
      <path id="Path_290" data-name="Path 290" class="cls-2" d="M350.779,150.285H145.744a107.408,107.408,0,0,1-9.044-41.852H359.824C359.824,127.808,350.779,150.285,350.779,150.285Z"/>
    </clipPath>
    <clipPath id="clip-path-6">
      <rect id="Rectangle_46" data-name="Rectangle 46" class="cls-3" width="6.112" height="42.676" transform="translate(117.227 101.828)"/>
    </clipPath>
    <clipPath id="clip-path-7">
      <rect id="Rectangle_50" data-name="Rectangle 50" class="cls-3" width="6.112" height="42.676" transform="translate(373.184 101.828)"/>
    </clipPath>
    <clipPath id="clip-path-8">
      <path id="Path_296" data-name="Path 296" class="cls-1" d="M388.036,152.475v69.818a4.441,4.441,0,0,1-4.442,4.442H112.927a4.447,4.447,0,0,1-4.442-4.442V152.475a4.454,4.454,0,0,1,4.442-4.442h124.7v4.442s-21.291,18.468-58.042,25.287c5.257,23.812,34.016,42.018,68.682,42.018s63.416-18.206,68.683-42.018c-36.761-6.819-58.052-25.287-58.052-25.287v-4.442h124.7A4.447,4.447,0,0,1,388.036,152.475Z"/>
    </clipPath>
  </defs>
  <g id="ser-2" transform="translate(-25.848 -27.687)">
    <g id="Background_Simple" data-name="Background Simple">
      <g id="Group_35" data-name="Group 35">
        <path id="Path_135" data-name="Path 135" class="cls-4" d="M232.691,28.845C356.727,17.8,356.936,87.779,412.823,152.974S480.67,247.727,459.6,322.882,367.538,456.951,279.71,423.57,141.57,422.245,86.173,392.6,10.2,305.689,50.753,238.193,79.75,42.466,232.691,28.845Z"/>
        <path id="Path_136" data-name="Path 136" class="cls-5" d="M232.691,28.845C356.727,17.8,356.936,87.779,412.823,152.974S480.67,247.727,459.6,322.882,367.538,456.951,279.71,423.57,141.57,422.245,86.173,392.6,10.2,305.689,50.753,238.193,79.75,42.466,232.691,28.845Z"/>
      </g>
    </g>
    <g id="Bubbles">
      <g id="Group_38" data-name="Group 38">
        <g id="Group_36" data-name="Group 36">
          <path id="Path_137" data-name="Path 137" class="cls-6" d="M426.937,323.714l-.774,6.972,13.6-15.911a48.944,48.944,0,0,0,4.9.27"/>
          <path id="Path_138" data-name="Path 138" class="cls-6" d="M409.885,275.435a20.429,20.429,0,0,0-3.26,8.958c-1.292,11.63,7.823,22.629,21.6,27.713l-.7,6.253"/>
          <path id="Path_139" data-name="Path 139" class="cls-6" d="M415.177,269.643a27.275,27.275,0,0,0-2.517,2.312"/>
          <path id="Path_140" data-name="Path 140" class="cls-6" d="M466.219,269.642a44.79,44.79,0,0,0-20.885-7.66,44.337,44.337,0,0,0-23.259,3.419"/>
          <path id="Path_141" data-name="Path 141" class="cls-6" d="M454.139,314.116c13.035-2.691,22.848-10.989,24.046-21.778.837-7.537-2.7-14.812-9.034-20.383"/>
          <path id="Path_142" data-name="Path 142" class="cls-6" d="M422.077,277.365a8.521,8.521,0,0,0,6.386-1.351l4.858,3.77c-.346.105-.31-.612.051-.637s.625.311.874.573c1.148,1.206,3.063,1.249,4.69.9s3.224-1.019,4.887-.932a11.974,11.974,0,0,1,2.89.663c6.679,2.078,13.632,3.109,20.551,4.132"/>
          <path id="Path_143" data-name="Path 143" class="cls-6" d="M416.336,284.479c1.033-.059,6.576-.01,7.375-.666l1.36,2.367,1.5-1.452q.384,1.473.769,2.945c1.131.271.98-1.915,1.948-2.559a1.356,1.356,0,0,1,1.768.531,3.95,3.95,0,0,1,.467,1.973l6.836.559,1.333.109a3.92,3.92,0,0,1,2-1.55c-.249,1.588,1.742,2.48,3.316,2.8q11.672,2.388,23.465,4.11"/>
          <path id="Path_144" data-name="Path 144" class="cls-6" d="M419.377,295.337c.637.44,1.406-.375,2.174-.482s1.4.49,2.08.832,1.8.2,1.838-.559c.161,1.006,1.4,1.362,2.411,1.5l26.259,3.684"/>
        </g>
        <g id="Group_37" data-name="Group 37">
          <path id="Path_145" data-name="Path 145" class="cls-6" d="M68.011,261.179l10.517,14.159-2.11-18.525a49.766,49.766,0,0,0,7.193-4.292c10.782-7.8,15.122-20.349,11.168-30.458C92.017,215,85.508,210.2,77.306,208.214"/>
          <path id="Path_146" data-name="Path 146" class="cls-6" d="M26.449,238.842a20.437,20.437,0,0,0,1.276,9.447c4.263,10.9,17.445,16.4,32.008,14.5"/>
          <path id="Path_147" data-name="Path 147" class="cls-6" d="M28.443,231.253a27.122,27.122,0,0,0-1.154,3.218"/>
          <path id="Path_148" data-name="Path 148" class="cls-6" d="M73.636,207.529a44.778,44.778,0,0,0-22.053,2.925,44.334,44.334,0,0,0-19.005,13.838"/>
          <path id="Path_149" data-name="Path 149" class="cls-6" d="M38.141,234.884a8.521,8.521,0,0,0,5.026-4.165l6.054,1.081c-.257.253-.559-.4-.251-.588s.7-.015,1.04.1c1.577.534,3.293-.318,4.569-1.387s2.381-2.4,3.894-3.1a11.952,11.952,0,0,1,2.867-.755c6.88-1.265,13.515-3.584,20.117-5.894"/>
          <path id="Path_150" data-name="Path 150" class="cls-6" d="M36.365,243.851c.887-.532,5.817-3.065,6.22-4.018l2.3,1.464q.327-.991.655-1.983l2.05,2.25c1.127-.286-.023-2.151.535-3.172a1.356,1.356,0,0,1,1.812-.351,3.935,3.935,0,0,1,1.331,1.53l6.312-2.682,1.231-.523a3.918,3.918,0,0,1,1.049-2.3c.517,1.522,2.695,1.386,4.239.94q11.444-3.311,22.686-7.267"/>
          <path id="Path_151" data-name="Path 151" class="cls-6" d="M44.1,252.052c.769.093,1.072-.986,1.7-1.437s1.467-.217,2.229-.231,1.686-.656,1.367-1.349c.61.816,1.875.555,2.834.211L77.2,240.3"/>
        </g>
      </g>
    </g>
    <g id="Typewritter">
      <g id="Group_63" data-name="Group 63">
        <g id="Group_46" data-name="Group 46">
          <g id="Group_40" data-name="Group 40">
            <rect id="Rectangle_25" data-name="Rectangle 25" class="cls-4" width="266.916" height="242.195" rx="8.789" transform="translate(114.804 89.623)"/>
            <g id="Group_39" data-name="Group 39" class="cls-7">
              <path id="Path_152" data-name="Path 152" class="cls-8" d="M381.722,222.293v101a8.532,8.532,0,0,1-8.526,8.526H123.325a8.532,8.532,0,0,1-8.526-8.526v-20h.534v13.472a9.753,9.753,0,0,0,9.758,9.758H366.484a9.752,9.752,0,0,0,9.757-9.758v-79.5a6.79,6.79,0,0,0-6.789-6.79H114.8v-8.186Z"/>
            </g>
            <rect id="Rectangle_27" data-name="Rectangle 27" class="cls-6" width="266.916" height="242.195" rx="8.789" transform="translate(114.804 89.623)"/>
          </g>
          <path id="Path_153" data-name="Path 153" class="cls-9" d="M358.484,251.049V239.48A4.283,4.283,0,0,0,354.2,235.2H142.323a4.284,4.284,0,0,0-4.284,4.284v11.569a4.284,4.284,0,0,1-4.284,4.284h0a4.283,4.283,0,0,0-4.283,4.283v22.835A19.852,19.852,0,0,0,149.324,302.3h0a3.185,3.185,0,0,1,3.186,3.186v6.841a9.519,9.519,0,0,0,9.519,9.519H334.495a9.518,9.518,0,0,0,9.518-9.519v-6.841A3.186,3.186,0,0,1,347.2,302.3h0a19.853,19.853,0,0,0,19.853-19.852V259.616a4.283,4.283,0,0,0-4.284-4.283h0A4.284,4.284,0,0,1,358.484,251.049Z"/>
          <g id="Group_41" data-name="Group 41">
            <path id="Path_154" data-name="Path 154" class="cls-10" d="M154.273,241.751h-7.41a3.424,3.424,0,0,0-3.423,3.423v1.9c0,3.937,3.191,8.937,7.128,8.937s7.128-5,7.128-8.937v-1.9A3.424,3.424,0,0,0,154.273,241.751Z"/>
            <path id="Path_155" data-name="Path 155" class="cls-10" d="M172.035,241.751h-7.409a3.423,3.423,0,0,0-3.423,3.423v1.9c0,3.937,3.191,8.937,7.127,8.937s7.128-5,7.128-8.937v-1.9A3.423,3.423,0,0,0,172.035,241.751Z"/>
            <path id="Path_156" data-name="Path 156" class="cls-10" d="M189.8,241.751h-7.41a3.424,3.424,0,0,0-3.423,3.423v1.9c0,3.937,3.191,8.937,7.128,8.937s7.128-5,7.128-8.937v-1.9A3.424,3.424,0,0,0,189.8,241.751Z"/>
            <path id="Path_157" data-name="Path 157" class="cls-10" d="M207.56,241.751h-7.409a3.423,3.423,0,0,0-3.423,3.423v1.9c0,3.937,3.191,8.937,7.128,8.937s7.127-5,7.127-8.937v-1.9A3.423,3.423,0,0,0,207.56,241.751Z"/>
            <path id="Path_158" data-name="Path 158" class="cls-10" d="M225.323,241.751h-7.41a3.424,3.424,0,0,0-3.423,3.423v1.9c0,3.937,3.191,8.937,7.128,8.937s7.128-5,7.128-8.937v-1.9A3.424,3.424,0,0,0,225.323,241.751Z"/>
            <path id="Path_159" data-name="Path 159" class="cls-10" d="M243.085,241.751h-7.409a3.423,3.423,0,0,0-3.423,3.423v1.9c0,3.937,3.191,8.937,7.128,8.937s7.127-5,7.127-8.937v-1.9A3.423,3.423,0,0,0,243.085,241.751Z"/>
            <path id="Path_160" data-name="Path 160" class="cls-10" d="M260.848,241.751h-7.41a3.424,3.424,0,0,0-3.423,3.423v1.9c0,3.937,3.191,8.937,7.128,8.937s7.128-5,7.128-8.937v-1.9A3.424,3.424,0,0,0,260.848,241.751Z"/>
            <path id="Path_161" data-name="Path 161" class="cls-10" d="M278.61,241.751H271.2a3.423,3.423,0,0,0-3.423,3.423v1.9c0,3.937,3.191,8.937,7.128,8.937s7.127-5,7.127-8.937v-1.9A3.423,3.423,0,0,0,278.61,241.751Z"/>
            <path id="Path_162" data-name="Path 162" class="cls-10" d="M296.373,241.751h-7.41a3.424,3.424,0,0,0-3.423,3.423v1.9c0,3.937,3.191,8.937,7.128,8.937s7.128-5,7.128-8.937v-1.9A3.424,3.424,0,0,0,296.373,241.751Z"/>
            <path id="Path_163" data-name="Path 163" class="cls-10" d="M314.135,241.751h-7.409a3.423,3.423,0,0,0-3.423,3.423v1.9c0,3.937,3.191,8.937,7.128,8.937s7.127-5,7.127-8.937v-1.9A3.423,3.423,0,0,0,314.135,241.751Z"/>
            <path id="Path_164" data-name="Path 164" class="cls-10" d="M331.9,241.751h-7.41a3.424,3.424,0,0,0-3.423,3.423v1.9c0,3.937,3.191,8.937,7.128,8.937s7.128-5,7.128-8.937v-1.9A3.424,3.424,0,0,0,331.9,241.751Z"/>
            <path id="Path_165" data-name="Path 165" class="cls-10" d="M349.66,241.751h-7.409a3.423,3.423,0,0,0-3.423,3.423v1.9c0,3.937,3.191,8.937,7.128,8.937s7.127-5,7.127-8.937v-1.9A3.423,3.423,0,0,0,349.66,241.751Z"/>
            <path id="Path_166" data-name="Path 166" class="cls-10" d="M154.273,279.39h-7.41a3.423,3.423,0,0,0-3.423,3.423v1.9c0,3.936,3.191,8.937,7.128,8.937s7.128-5,7.128-8.937v-1.9A3.423,3.423,0,0,0,154.273,279.39Z"/>
            <path id="Path_167" data-name="Path 167" class="cls-10" d="M172.035,279.39h-7.409a3.422,3.422,0,0,0-3.423,3.423v1.9c0,3.936,3.191,8.937,7.127,8.937s7.128-5,7.128-8.937v-1.9A3.422,3.422,0,0,0,172.035,279.39Z"/>
            <path id="Path_168" data-name="Path 168" class="cls-10" d="M189.8,279.39h-7.41a3.423,3.423,0,0,0-3.423,3.423v1.9c0,3.936,3.191,8.937,7.128,8.937s7.128-5,7.128-8.937v-1.9A3.423,3.423,0,0,0,189.8,279.39Z"/>
            <path id="Path_169" data-name="Path 169" class="cls-10" d="M207.56,279.39h-7.409a3.422,3.422,0,0,0-3.423,3.423v1.9c0,3.936,3.191,8.937,7.128,8.937s7.127-5,7.127-8.937v-1.9A3.422,3.422,0,0,0,207.56,279.39Z"/>
            <path id="Path_170" data-name="Path 170" class="cls-10" d="M225.323,279.39h-7.41a3.423,3.423,0,0,0-3.423,3.423v1.9c0,3.936,3.191,8.937,7.128,8.937s7.128-5,7.128-8.937v-1.9A3.423,3.423,0,0,0,225.323,279.39Z"/>
            <path id="Path_171" data-name="Path 171" class="cls-10" d="M243.085,279.39h-7.409a3.422,3.422,0,0,0-3.423,3.423v1.9c0,3.936,3.191,8.937,7.128,8.937s7.127-5,7.127-8.937v-1.9A3.422,3.422,0,0,0,243.085,279.39Z"/>
            <path id="Path_172" data-name="Path 172" class="cls-10" d="M260.848,279.39h-7.41a3.423,3.423,0,0,0-3.423,3.423v1.9c0,3.936,3.191,8.937,7.128,8.937s7.128-5,7.128-8.937v-1.9A3.423,3.423,0,0,0,260.848,279.39Z"/>
            <path id="Path_173" data-name="Path 173" class="cls-10" d="M278.61,279.39H271.2a3.422,3.422,0,0,0-3.423,3.423v1.9c0,3.936,3.191,8.937,7.128,8.937s7.127-5,7.127-8.937v-1.9A3.422,3.422,0,0,0,278.61,279.39Z"/>
            <path id="Path_174" data-name="Path 174" class="cls-10" d="M296.373,279.39h-7.41a3.423,3.423,0,0,0-3.423,3.423v1.9c0,3.936,3.191,8.937,7.128,8.937s7.128-5,7.128-8.937v-1.9A3.423,3.423,0,0,0,296.373,279.39Z"/>
            <path id="Path_175" data-name="Path 175" class="cls-10" d="M314.135,279.39h-7.409a3.422,3.422,0,0,0-3.423,3.423v1.9c0,3.936,3.191,8.937,7.128,8.937s7.127-5,7.127-8.937v-1.9A3.422,3.422,0,0,0,314.135,279.39Z"/>
            <path id="Path_176" data-name="Path 176" class="cls-10" d="M331.9,279.39h-7.41a3.423,3.423,0,0,0-3.423,3.423v1.9c0,3.936,3.191,8.937,7.128,8.937s7.128-5,7.128-8.937v-1.9A3.423,3.423,0,0,0,331.9,279.39Z"/>
            <path id="Path_177" data-name="Path 177" class="cls-10" d="M349.66,279.39h-7.409a3.422,3.422,0,0,0-3.423,3.423v1.9c0,3.936,3.191,8.937,7.128,8.937s7.127-5,7.127-8.937v-1.9A3.422,3.422,0,0,0,349.66,279.39Z"/>
            <path id="Path_178" data-name="Path 178" class="cls-10" d="M145.392,261.179h-7.41a3.423,3.423,0,0,0-3.423,3.424V266.5c0,3.937,3.191,8.937,7.128,8.937s7.128-5,7.128-8.937V264.6A3.424,3.424,0,0,0,145.392,261.179Z"/>
            <path id="Path_179" data-name="Path 179" class="cls-10" d="M163.154,261.179h-7.41a3.424,3.424,0,0,0-3.423,3.424V266.5c0,3.937,3.192,8.937,7.128,8.937s7.128-5,7.128-8.937V264.6A3.423,3.423,0,0,0,163.154,261.179Z"/>
            <path id="Path_180" data-name="Path 180" class="cls-10" d="M180.917,261.179h-7.41a3.424,3.424,0,0,0-3.423,3.424V266.5c0,3.937,3.191,8.937,7.128,8.937s7.128-5,7.128-8.937V264.6A3.424,3.424,0,0,0,180.917,261.179Z"/>
            <path id="Path_181" data-name="Path 181" class="cls-10" d="M198.679,261.179h-7.41a3.424,3.424,0,0,0-3.423,3.424V266.5c0,3.937,3.192,8.937,7.128,8.937s7.128-5,7.128-8.937V264.6A3.423,3.423,0,0,0,198.679,261.179Z"/>
            <path id="Path_182" data-name="Path 182" class="cls-10" d="M216.442,261.179h-7.41a3.424,3.424,0,0,0-3.423,3.424V266.5c0,3.937,3.191,8.937,7.128,8.937s7.128-5,7.128-8.937V264.6A3.424,3.424,0,0,0,216.442,261.179Z"/>
            <path id="Path_183" data-name="Path 183" class="cls-10" d="M234.2,261.179h-7.41a3.424,3.424,0,0,0-3.423,3.424V266.5c0,3.937,3.192,8.937,7.128,8.937s7.128-5,7.128-8.937V264.6A3.423,3.423,0,0,0,234.2,261.179Z"/>
            <path id="Path_184" data-name="Path 184" class="cls-10" d="M251.967,261.179h-7.41a3.424,3.424,0,0,0-3.423,3.424V266.5c0,3.937,3.191,8.937,7.128,8.937s7.128-5,7.128-8.937V264.6A3.424,3.424,0,0,0,251.967,261.179Z"/>
            <path id="Path_185" data-name="Path 185" class="cls-10" d="M269.729,261.179H262.32A3.424,3.424,0,0,0,258.9,264.6V266.5c0,3.937,3.192,8.937,7.128,8.937s7.128-5,7.128-8.937V264.6A3.423,3.423,0,0,0,269.729,261.179Z"/>
            <path id="Path_186" data-name="Path 186" class="cls-10" d="M287.492,261.179h-7.41a3.424,3.424,0,0,0-3.423,3.424V266.5c0,3.937,3.191,8.937,7.128,8.937s7.128-5,7.128-8.937V264.6A3.424,3.424,0,0,0,287.492,261.179Z"/>
            <path id="Path_187" data-name="Path 187" class="cls-10" d="M305.254,261.179h-7.409a3.424,3.424,0,0,0-3.424,3.424V266.5c0,3.937,3.192,8.937,7.128,8.937s7.128-5,7.128-8.937V264.6A3.423,3.423,0,0,0,305.254,261.179Z"/>
            <path id="Path_188" data-name="Path 188" class="cls-10" d="M323.017,261.179h-7.41a3.424,3.424,0,0,0-3.423,3.424V266.5c0,3.937,3.191,8.937,7.128,8.937s7.128-5,7.128-8.937V264.6A3.424,3.424,0,0,0,323.017,261.179Z"/>
            <path id="Path_189" data-name="Path 189" class="cls-10" d="M340.779,261.179H333.37a3.424,3.424,0,0,0-3.424,3.424V266.5c0,3.937,3.192,8.937,7.128,8.937s7.128-5,7.128-8.937V264.6A3.423,3.423,0,0,0,340.779,261.179Z"/>
            <path id="Path_190" data-name="Path 190" class="cls-10" d="M358.542,261.179h-7.41a3.424,3.424,0,0,0-3.423,3.424V266.5c0,3.937,3.191,8.937,7.128,8.937s7.128-5,7.128-8.937V264.6A3.424,3.424,0,0,0,358.542,261.179Z"/>
            <rect id="Rectangle_28" data-name="Rectangle 28" class="cls-10" width="142.1" height="16.161" rx="3.211" transform="translate(177.212 298.348)"/>
            <path id="Path_191" data-name="Path 191" class="cls-10" d="M334.271,299.3h-7.41a3.423,3.423,0,0,0-3.423,3.423v1.9c0,3.936,3.191,8.936,7.128,8.936s7.128-5,7.128-8.936v-1.9A3.423,3.423,0,0,0,334.271,299.3Z"/>
            <path id="Path_192" data-name="Path 192" class="cls-10" d="M169.662,299.3h-7.409a3.422,3.422,0,0,0-3.423,3.423v1.9c0,3.936,3.191,8.936,7.128,8.936s7.127-5,7.127-8.936v-1.9A3.422,3.422,0,0,0,169.662,299.3Z"/>
          </g>
          <g id="Group_42" data-name="Group 42">
            <path id="Path_193" data-name="Path 193" class="cls-8" d="M154.679,247.178a5.933,5.933,0,0,1,1.067.1c0-.069.01-.139.01-.207v-1.9a1.485,1.485,0,0,0-1.483-1.483h-7.41a1.486,1.486,0,0,0-1.483,1.483v1.9c0,2.734,2.016,6.17,4.355,6.863C148.988,250.9,150.638,247.178,154.679,247.178Z"/>
            <path id="Path_194" data-name="Path 194" class="cls-8" d="M172.842,246.667a5.91,5.91,0,0,1,.676.039v-1.532a1.485,1.485,0,0,0-1.483-1.483h-7.409a1.485,1.485,0,0,0-1.483,1.483v1.9c0,2.964,2.369,6.752,4.95,6.976C166.934,250.927,168.517,246.667,172.842,246.667Z"/>
            <path id="Path_195" data-name="Path 195" class="cls-8" d="M191.133,246.411c.051,0,.1.006.148.007v-1.244a1.486,1.486,0,0,0-1.483-1.483h-7.41a1.485,1.485,0,0,0-1.483,1.483v1.9c0,3.055,2.516,7,5.188,7a2.782,2.782,0,0,0,.386-.035C185.143,250.9,186.7,246.411,191.133,246.411Z"/>
            <path id="Path_196" data-name="Path 196" class="cls-8" d="M207.76,245.9a5.853,5.853,0,0,1,1.284.141v-.866a1.486,1.486,0,0,0-1.484-1.483h-7.409a1.485,1.485,0,0,0-1.483,1.483v1.9c0,2.861,2.206,6.5,4.681,6.95C201.608,250.887,203.081,245.9,207.76,245.9Z"/>
            <path id="Path_197" data-name="Path 197" class="cls-8" d="M226.435,245.9c.127,0,.248.011.371.018v-.743a1.486,1.486,0,0,0-1.483-1.483h-7.41a1.485,1.485,0,0,0-1.483,1.483v1.9c0,3.055,2.516,7,5.188,7a2.826,2.826,0,0,0,.41-.037C220.279,250.9,221.751,245.9,226.435,245.9Z"/>
            <path id="Path_198" data-name="Path 198" class="cls-8" d="M244.342,246.027c.078,0,.15.008.227.011v-.864a1.486,1.486,0,0,0-1.484-1.483h-7.409a1.485,1.485,0,0,0-1.483,1.483v1.9c0,3.055,2.516,7,5.188,7a2.834,2.834,0,0,0,.486-.044C238.231,250.885,239.723,246.027,244.342,246.027Z"/>
            <path id="Path_199" data-name="Path 199" class="cls-8" d="M261.481,245.9a5.93,5.93,0,0,1,.85.066v-.791a1.486,1.486,0,0,0-1.483-1.483h-7.41a1.486,1.486,0,0,0-1.483,1.483v1.9c0,3.036,2.485,6.944,5.139,6.993C255.315,250.933,256.781,245.9,261.481,245.9Z"/>
            <path id="Path_200" data-name="Path 200" class="cls-8" d="M280.093,246.164v-.99a1.486,1.486,0,0,0-1.483-1.483H271.2a1.486,1.486,0,0,0-1.484,1.483v1.9c0,3.055,2.516,7,5.188,7a2.92,2.92,0,0,0,.8-.125C274.26,250.847,275.727,246.3,280.093,246.164Z"/>
            <path id="Path_201" data-name="Path 201" class="cls-8" d="M296.4,245.771a5.708,5.708,0,0,1,1.456.187v-.784a1.485,1.485,0,0,0-1.483-1.483h-7.41a1.486,1.486,0,0,0-1.483,1.483v1.9c0,2.816,2.139,6.379,4.566,6.919C290.218,250.864,291.671,245.771,296.4,245.771Z"/>
            <path id="Path_202" data-name="Path 202" class="cls-8" d="M314.562,245.771a5.923,5.923,0,0,1,1.057.1v-.694a1.486,1.486,0,0,0-1.483-1.483h-7.411a1.485,1.485,0,0,0-1.482,1.483v1.9c0,2.985,2.4,6.807,5,6.98C308.363,250.931,309.8,245.771,314.562,245.771Z"/>
            <path id="Path_203" data-name="Path 203" class="cls-8" d="M332.6,246.283a6.158,6.158,0,0,1,.784.055v-1.164a1.486,1.486,0,0,0-1.483-1.483h-7.41a1.485,1.485,0,0,0-1.483,1.483v1.9c0,2.984,2.4,6.8,5,6.98C326.559,250.91,328.09,246.283,332.6,246.283Z"/>
            <path id="Path_204" data-name="Path 204" class="cls-8" d="M351.144,246.052v-.878a1.486,1.486,0,0,0-1.484-1.483h-7.409a1.486,1.486,0,0,0-1.483,1.483v1.9c0,3.055,2.516,7,5.188,7a3.053,3.053,0,0,0,1.129-.236C345.663,250.813,347.019,246.392,351.144,246.052Z"/>
            <path id="Path_205" data-name="Path 205" class="cls-8" d="M155.191,282.992c.194,0,.382.011.565.028v-.207a1.485,1.485,0,0,0-1.483-1.483h-7.41a1.486,1.486,0,0,0-1.483,1.483v1.9c0,3.054,2.516,7,5.188,7a2.834,2.834,0,0,0,.557-.061C148.878,288.585,150.235,282.992,155.191,282.992Z"/>
            <path id="Path_206" data-name="Path 206" class="cls-8" d="M172.586,282.992a5.9,5.9,0,0,1,.932.078v-.257a1.485,1.485,0,0,0-1.483-1.483h-7.409a1.485,1.485,0,0,0-1.483,1.483v1.9c0,3.054,2.515,7,5.187,7,.074,0,.148-.014.221-.02C166.262,288.635,167.608,282.992,172.586,282.992Z"/>
            <path id="Path_207" data-name="Path 207" class="cls-8" d="M190.237,283.248a5.881,5.881,0,0,1,1.044.1v-.53a1.486,1.486,0,0,0-1.483-1.483h-7.41a1.485,1.485,0,0,0-1.483,1.483v1.9c0,3.031,2.477,6.931,5.126,6.991C183.985,288.6,185.388,283.248,190.237,283.248Z"/>
            <path id="Path_208" data-name="Path 208" class="cls-8" d="M208.272,283.376a6.176,6.176,0,0,1,.772.053v-.616a1.486,1.486,0,0,0-1.484-1.483h-7.409a1.485,1.485,0,0,0-1.483,1.483v1.9c0,3.054,2.515,7,5.188,7,.042,0,.084-.01.126-.012C202.061,288.579,203.492,283.376,208.272,283.376Z"/>
            <path id="Path_209" data-name="Path 209" class="cls-8" d="M225.667,282.992a5.887,5.887,0,0,1,1.139.11v-.289a1.486,1.486,0,0,0-1.483-1.483h-7.41a1.485,1.485,0,0,0-1.483,1.483v1.9c0,3.054,2.516,7,5.188,7l.028,0C219.338,288.657,220.68,282.992,225.667,282.992Z"/>
            <path id="Path_210" data-name="Path 210" class="cls-8" d="M243.7,283.12a6.013,6.013,0,0,1,.867.068v-.375a1.486,1.486,0,0,0-1.484-1.483h-7.409a1.485,1.485,0,0,0-1.483,1.483v1.9c0,3.054,2.516,7,5.188,7,.063,0,.126-.013.19-.017C237.412,288.611,238.793,283.12,243.7,283.12Z"/>
            <path id="Path_211" data-name="Path 211" class="cls-8" d="M262.121,283.5c.072,0,.139.008.21.01v-.7a1.486,1.486,0,0,0-1.483-1.483h-7.41a1.486,1.486,0,0,0-1.483,1.483v1.9c0,3.054,2.516,7,5.188,7a2.853,2.853,0,0,0,.574-.065C255.962,288.509,257.434,283.5,262.121,283.5Z"/>
            <path id="Path_212" data-name="Path 212" class="cls-8" d="M280.028,283.12c.022,0,.043,0,.065,0v-.31a1.486,1.486,0,0,0-1.483-1.483H271.2a1.486,1.486,0,0,0-1.484,1.483v1.9c0,3.054,2.516,7,5.188,7a2.938,2.938,0,0,0,.9-.153C273.781,288.453,275.188,283.12,280.028,283.12Z"/>
            <path id="Path_213" data-name="Path 213" class="cls-8" d="M297.3,282.736c.191,0,.375.011.556.028a1.482,1.482,0,0,0-1.478-1.434h-7.41a1.486,1.486,0,0,0-1.483,1.483v1.9c0,3.054,2.516,7,5.188,7a2.886,2.886,0,0,0,.724-.1C290.92,288.6,292.223,282.736,297.3,282.736Z"/>
            <path id="Path_214" data-name="Path 214" class="cls-8" d="M315.585,282.992l.034,0v-.181a1.486,1.486,0,0,0-1.483-1.483h-7.411a1.485,1.485,0,0,0-1.482,1.483v1.9c0,3.054,2.515,7,5.187,7a2.985,2.985,0,0,0,1-.18C309.306,288.442,310.7,282.992,315.585,282.992Z"/>
            <path id="Path_215" data-name="Path 215" class="cls-8" d="M332.981,282.992c.138,0,.268.011.4.02v-.2a1.486,1.486,0,0,0-1.483-1.483h-7.41a1.485,1.485,0,0,0-1.483,1.483v1.9c0,3.054,2.516,7,5.188,7a2.883,2.883,0,0,0,.694-.1C326.678,288.541,328.045,282.992,332.981,282.992Z"/>
            <path id="Path_216" data-name="Path 216" class="cls-8" d="M350.5,283.76a6.315,6.315,0,0,1,.64.033v-.98a1.486,1.486,0,0,0-1.484-1.483h-7.409a1.486,1.486,0,0,0-1.483,1.483v1.9c0,3.054,2.516,7,5.188,7,.015,0,.031,0,.047-.005C344.411,288.562,345.912,283.76,350.5,283.76Z"/>
            <path id="Path_217" data-name="Path 217" class="cls-8" d="M146.749,265.085c.043,0,.083.006.126.006V264.6a1.484,1.484,0,0,0-1.483-1.483h-7.41A1.484,1.484,0,0,0,136.5,264.6V266.5c0,3.055,2.515,7,5.188,7a2.894,2.894,0,0,0,.758-.114C140.545,270.264,141.98,265.085,146.749,265.085Z"/>
            <path id="Path_218" data-name="Path 218" class="cls-8" d="M164.144,265.085c.17,0,.332.012.493.024V264.6a1.484,1.484,0,0,0-1.483-1.483h-7.41a1.485,1.485,0,0,0-1.483,1.483V266.5c0,3.055,2.516,7,5.188,7a2.8,2.8,0,0,0,.438-.039C157.918,270.347,159.337,265.085,164.144,265.085Z"/>
            <path id="Path_219" data-name="Path 219" class="cls-8" d="M182.307,265.085c.032,0,.061,0,.093.005V264.6a1.485,1.485,0,0,0-1.483-1.483h-7.41a1.484,1.484,0,0,0-1.483,1.483V266.5c0,3.055,2.516,7,5.188,7a2.9,2.9,0,0,0,.786-.121C176.1,270.256,177.542,265.085,182.307,265.085Z"/>
            <path id="Path_220" data-name="Path 220" class="cls-8" d="M199.7,264.957c.159,0,.309.012.46.023V264.6a1.484,1.484,0,0,0-1.483-1.483h-7.41a1.484,1.484,0,0,0-1.482,1.483V266.5c0,3.055,2.515,7,5.187,7a2.814,2.814,0,0,0,.541-.056C193.44,270.347,194.838,264.957,199.7,264.957Z"/>
            <path id="Path_221" data-name="Path 221" class="cls-8" d="M216.97,265.085a5.949,5.949,0,0,1,.955.082V264.6a1.485,1.485,0,0,0-1.484-1.483h-7.409a1.484,1.484,0,0,0-1.483,1.483V266.5c0,3.055,2.516,7,5.188,7h0C210.73,270.392,212.142,265.085,216.97,265.085Z"/>
            <path id="Path_222" data-name="Path 222" class="cls-8" d="M234.877,264.446a5.88,5.88,0,0,1,.8.058,1.48,1.48,0,0,0-1.473-1.384h-7.409a1.485,1.485,0,0,0-1.484,1.483V266.5c0,3.055,2.516,7,5.188,7a2.863,2.863,0,0,0,.575-.065C228.466,270.463,229.737,264.446,234.877,264.446Z"/>
            <path id="Path_223" data-name="Path 223" class="cls-8" d="M252.783,265.213a5.981,5.981,0,0,1,.667.038V264.6a1.485,1.485,0,0,0-1.484-1.483h-7.409a1.484,1.484,0,0,0-1.483,1.483V266.5c0,3.055,2.516,7,5.188,7,.066,0,.132-.013.2-.017C246.589,270.357,248.031,265.213,252.783,265.213Z"/>
            <path id="Path_224" data-name="Path 224" class="cls-8" d="M271.212,264.6a1.485,1.485,0,0,0-1.483-1.478H262.32a1.485,1.485,0,0,0-1.484,1.483V266.5c0,3.055,2.516,7,5.188,7a3.23,3.23,0,0,0,1.519-.412C265.517,270.1,266.744,264.959,271.212,264.6Z"/>
            <path id="Path_225" data-name="Path 225" class="cls-8" d="M288.975,264.976V264.6a1.485,1.485,0,0,0-1.484-1.483h-7.409A1.485,1.485,0,0,0,278.6,264.6V266.5c0,3.055,2.515,7,5.188,7a3.109,3.109,0,0,0,1.246-.286C283.226,270.175,284.544,265.253,288.975,264.976Z"/>
            <path id="Path_226" data-name="Path 226" class="cls-8" d="M306.12,264.7a6.158,6.158,0,0,1,.617.031V264.6a1.484,1.484,0,0,0-1.483-1.483h-7.41a1.485,1.485,0,0,0-1.483,1.483V266.5c0,3.055,2.516,7,5.188,7a2.852,2.852,0,0,0,.566-.062C299.785,270.391,301.122,264.7,306.12,264.7Z"/>
            <path id="Path_227" data-name="Path 227" class="cls-8" d="M324.5,265.349V264.6a1.485,1.485,0,0,0-1.483-1.483h-7.41a1.484,1.484,0,0,0-1.483,1.483V266.5c0,3.055,2.516,7,5.188,7a2.969,2.969,0,0,0,.886-.147C318.573,270.249,320.011,265.468,324.5,265.349Z"/>
            <path id="Path_228" data-name="Path 228" class="cls-8" d="M341.423,264.829a6.073,6.073,0,0,1,.839.064v-.29a1.484,1.484,0,0,0-1.483-1.483H333.37a1.484,1.484,0,0,0-1.483,1.483V266.5c0,3.055,2.515,7,5.187,7,.092,0,.182-.015.273-.024C335.113,270.408,336.473,264.829,341.423,264.829Z"/>
            <path id="Path_229" data-name="Path 229" class="cls-8" d="M359.329,265.6a6,6,0,0,1,.7.042V264.6a1.485,1.485,0,0,0-1.484-1.483h-7.409a1.485,1.485,0,0,0-1.483,1.483V266.5c0,3.043,2.5,6.963,5.156,7C353.252,270.352,354.76,265.6,359.329,265.6Z"/>
            <path id="Rectangle_29" data-name="Rectangle 29" class="cls-8" d="M1.211,0H11.07a1.211,1.211,0,0,1,1.211,1.211v135.8a1.212,1.212,0,0,1-1.212,1.212H1.212A1.212,1.212,0,0,1,0,137.009V1.211A1.211,1.211,0,0,1,1.211,0Z" transform="translate(317.372 300.289) rotate(90)"/>
            <path id="Path_230" data-name="Path 230" class="cls-8" d="M335.754,303.715v-.991a1.486,1.486,0,0,0-1.483-1.484h-7.409a1.486,1.486,0,0,0-1.484,1.484v1.895c0,3.055,2.516,7,5.188,7a2.89,2.89,0,0,0,.664-.088C329.747,308.4,331.256,303.744,335.754,303.715Z"/>
            <path id="Path_231" data-name="Path 231" class="cls-8" d="M170.284,303.073a5.954,5.954,0,0,1,.862.068v-.417a1.486,1.486,0,0,0-1.484-1.484h-7.409a1.485,1.485,0,0,0-1.483,1.484v1.895c0,3.055,2.516,7,5.188,7,.056,0,.111-.011.167-.015C164.006,308.516,165.4,303.073,170.284,303.073Z"/>
          </g>
          <path id="Rectangle_30" data-name="Rectangle 30" class="cls-8" d="M6.351,0H251.466a6.351,6.351,0,0,1,6.351,6.351v56a0,0,0,0,1,0,0H0a0,0,0,0,1,0,0v-56A6.351,6.351,0,0,1,6.351,0Z" transform="translate(119.353 94.499)"/>
          <g id="Group_44" data-name="Group 44">
            <path id="Path_232" data-name="Path 232" class="cls-11" d="M350.779,105.063H145.744A232.832,232.832,0,0,0,136.7,63.211H359.824A223.785,223.785,0,0,0,350.779,105.063Z"/>
            <g id="Group_43" data-name="Group 43" class="cls-12">
              <path id="Path_233" data-name="Path 233" class="cls-8" d="M352.8,91.572c-1.484,8.137-2.018,13.492-2.018,13.492H145.741s-.524-5.258-2.047-13.492Z"/>
            </g>
            <path id="Path_235" data-name="Path 235" class="cls-6" d="M350.779,105.063H145.744A232.832,232.832,0,0,0,136.7,63.211H359.824A223.785,223.785,0,0,0,350.779,105.063Z"/>
          </g>
          <rect id="Rectangle_31" data-name="Rectangle 31" class="cls-9" width="201.112" height="82.739" transform="translate(146.875 140.302)"/>
          <g id="Group_45" data-name="Group 45" class="cls-13">
            <path id="Path_236" data-name="Path 236" class="cls-11" d="M242.423,215.717c.351.021.705.034,1.058.052q1.971-30.948,3.944-61.985Q244.921,184.83,242.423,215.717Z"/>
            <path id="Path_237" data-name="Path 237" class="cls-11" d="M239.043,215.458c.352.033.708.058,1.061.087q3.451-30.741,6.921-61.764Q243.026,184.817,239.043,215.458Z"/>
            <path id="Path_238" data-name="Path 238" class="cls-11" d="M235.667,215.08c.353.046.711.081,1.066.123q4.922-30.417,9.892-61.428Q241.126,184.8,235.667,215.08Z"/>
            <path id="Path_239" data-name="Path 239" class="cls-11" d="M232.3,214.574c.354.059.713.111,1.07.166q6.372-29.983,12.856-60.973Q239.219,184.778,232.3,214.574Z"/>
            <path id="Path_240" data-name="Path 240" class="cls-11" d="M228.944,213.939c.357.074.714.147,1.073.216q7.8-29.427,15.809-60.4Q237.309,184.738,228.944,213.939Z"/>
            <path id="Path_241" data-name="Path 241" class="cls-11" d="M225.6,213.177c.36.089.715.183,1.076.268,6.131-19.171,12.429-39.064,18.749-59.7C238.735,174.38,232.07,194.184,225.6,213.177Z"/>
            <path id="Path_242" data-name="Path 242" class="cls-11" d="M222.275,212.284c.361.1.718.213,1.082.313,7.037-18.64,14.336-38.253,21.669-58.865C237.316,174.344,229.645,193.852,222.275,212.284Z"/>
            <path id="Path_243" data-name="Path 243" class="cls-11" d="M218.968,211.256c.362.12.725.24,1.09.357,7.916-18.025,16.216-37.313,24.568-57.9C235.89,174.3,227.21,193.47,218.968,211.256Z"/>
            <path id="Path_244" data-name="Path 244" class="cls-11" d="M215.684,210.088c.363.139.733.27,1.1.4,8.76-17.324,18.065-36.241,27.443-56.792C234.455,174.255,224.763,193.037,215.684,210.088Z"/>
            <path id="Path_245" data-name="Path 245" class="cls-11" d="M212.437,208.771c.363.157.733.306,1.1.458,9.566-16.535,19.878-35.035,30.289-55.55C233.018,174.189,222.308,192.55,212.437,208.771Z"/>
            <path id="Path_246" data-name="Path 246" class="cls-11" d="M209.231,207.29c.366.178.729.36,1.1.534,10.324-15.651,21.65-33.7,33.1-54.166C231.573,174.118,219.848,191.991,209.231,207.29Z"/>
            <path id="Path_247" data-name="Path 247" class="cls-11" d="M206.068,205.653c.366.2.731.4,1.1.6,11.032-14.674,23.367-32.208,35.857-52.616A602.341,602.341,0,0,1,206.068,205.653Z"/>
            <path id="Path_248" data-name="Path 248" class="cls-11" d="M202.956,203.855c.364.224.74.438,1.11.657a522.219,522.219,0,0,0,38.563-50.9A475.678,475.678,0,0,1,202.956,203.855Z"/>
            <path id="Path_249" data-name="Path 249" class="cls-11" d="M199.931,201.863c.361.251.722.5,1.091.746a416.578,416.578,0,0,0,41.208-49.028A381.329,381.329,0,0,1,199.931,201.863Z"/>
            <path id="Path_250" data-name="Path 250" class="cls-11" d="M241.831,153.552c-16.09,20.152-31.855,35.523-44.844,46.143q.532.417,1.077.827A336.834,336.834,0,0,0,241.831,153.552Z"/>
            <path id="Path_251" data-name="Path 251" class="cls-11" d="M241.432,153.521c-17.141,20.023-33.89,34.617-47.279,43.816.346.307.7.609,1.059.911C208.42,188.466,224.74,173.567,241.432,153.521Z"/>
            <path id="Path_252" data-name="Path 252" class="cls-11" d="M241.033,153.488c-18.17,19.857-35.871,33.609-49.568,41.294.334.339.665.678,1.01,1.01C206.027,187.477,223.308,173.387,241.033,153.488Z"/>
            <path id="Path_253" data-name="Path 253" class="cls-11" d="M240.635,153.453c-19.168,19.648-37.784,32.5-51.692,38.592.315.369.643.732.971,1.1C203.712,186.372,221.911,173.155,240.635,153.453Z"/>
            <path id="Path_254" data-name="Path 254" class="cls-11" d="M186.644,189.135c.29.4.581.795.886,1.187,13.951-5.156,33.023-17.445,52.706-36.907C220.131,172.792,200.666,184.683,186.644,189.135Z"/>
            <path id="Path_255" data-name="Path 255" class="cls-11" d="M184.6,186.091c.259.423.53.842.805,1.259,14.011-3.519,33.873-14.832,54.434-33.974C218.878,172.406,198.647,183.3,184.6,186.091Z"/>
            <path id="Path_256" data-name="Path 256" class="cls-11" d="M182.86,182.979c.221.439.447.875.685,1.308,13.991-1.9,34.554-12.211,55.9-30.952C217.747,171.921,196.86,181.8,182.86,182.979Z"/>
            <path id="Path_257" data-name="Path 257" class="cls-11" d="M181.441,179.84c.179.445.368.886.563,1.326,13.912-.337,35.041-9.623,57.038-27.874C216.746,171.345,195.342,180.191,181.441,179.84Z"/>
            <path id="Path_258" data-name="Path 258" class="cls-11" d="M245.8,215.858c.351.008.705.012,1.057.017q.481-31.041.963-62.088Q246.815,184.835,245.8,215.858Z"/>
            <path id="Path_259" data-name="Path 259" class="cls-11" d="M249.188,215.883c.354,0,.706-.01,1.058-.018q-1.011-31.028-2.021-62.078Q248.707,184.837,249.188,215.883Z"/>
            <path id="Path_260" data-name="Path 260" class="cls-11" d="M252.571,215.792q.529-.024,1.059-.052-2.5-30.9-5.005-61.956Q250.6,184.84,252.571,215.792Z"/>
            <path id="Path_261" data-name="Path 261" class="cls-11" d="M255.951,215.584c.354-.028.709-.056,1.062-.088q-3.981-30.665-7.988-61.715Q252.493,184.834,255.951,215.584Z"/>
            <path id="Path_262" data-name="Path 262" class="cls-11" d="M259.326,215.257c.356-.041.713-.079,1.067-.124q-5.451-30.313-10.968-61.358Q254.391,184.821,259.326,215.257Z"/>
            <path id="Path_263" data-name="Path 263" class="cls-11" d="M262.7,214.809c.357-.054.718-.1,1.073-.16q-6.9-29.849-13.943-60.882Q256.295,184.807,262.7,214.809Z"/>
            <path id="Path_264" data-name="Path 264" class="cls-11" d="M266.055,214.238c.359-.068.722-.129,1.079-.2q-8.326-29.256-16.909-60.28Q258.2,184.779,266.055,214.238Z"/>
            <path id="Path_265" data-name="Path 265" class="cls-11" d="M269.4,213.542q.543-.125,1.083-.254c-6.481-19.028-13.159-38.868-19.862-59.542C256.955,174.416,263.263,194.341,269.4,213.542Z"/>
            <path id="Path_266" data-name="Path 266" class="cls-11" d="M272.739,212.717c.365-.1.723-.207,1.086-.31-7.385-18.468-15.073-38.017-22.8-58.675C258.373,174.388,265.687,194.041,272.739,212.717Z"/>
            <path id="Path_267" data-name="Path 267" class="cls-11" d="M276.052,211.748c.368-.115.729-.238,1.093-.358-8.26-17.823-16.962-37.036-25.721-57.674C259.8,174.352,268.118,193.685,276.052,211.748Z"/>
            <path id="Path_268" data-name="Path 268" class="cls-11" d="M279.341,210.638q.553-.2,1.1-.4c-9.1-17.091-18.82-35.921-28.619-56.535C261.228,174.308,270.559,193.274,279.341,210.638Z"/>
            <path id="Path_269" data-name="Path 269" class="cls-11" d="M282.6,209.385c.369-.151.744-.3,1.109-.451-9.9-16.261-20.644-34.676-31.489-55.255C262.667,174.259,273.011,192.81,282.6,209.385Z"/>
            <path id="Path_270" data-name="Path 270" class="cls-11" d="M285.828,207.988q.559-.258,1.112-.524c-10.648-15.337-22.417-33.268-34.317-53.806C264.109,174.193,275.475,192.3,285.828,207.988Z"/>
            <path id="Path_271" data-name="Path 271" class="cls-11" d="M289.017,206.432c.375-.2.738-.4,1.107-.6a602.58,602.58,0,0,1-37.1-52.2C265.565,174.127,277.95,191.721,289.017,206.432Z"/>
            <path id="Path_272" data-name="Path 272" class="cls-11" d="M292.144,204.7c.374-.218.748-.436,1.116-.66a475.6,475.6,0,0,1-39.839-50.428A522.332,522.332,0,0,0,292.144,204.7Z"/>
            <path id="Path_273" data-name="Path 273" class="cls-11" d="M253.82,153.581A416.454,416.454,0,0,0,295.214,202.8q.558-.368,1.107-.741A381.051,381.051,0,0,1,253.82,153.581Z"/>
            <path id="Path_274" data-name="Path 274" class="cls-11" d="M254.219,153.552a336.546,336.546,0,0,0,43.989,47.163c.368-.273.725-.554,1.085-.833C286.26,189.256,270.4,173.822,254.219,153.552Z"/>
            <path id="Path_275" data-name="Path 275" class="cls-11" d="M254.618,153.521c16.8,20.174,33.22,35.134,46.472,44.912.362-.3.727-.6,1.078-.911C288.734,188.335,271.875,173.679,254.618,153.521Z"/>
            <path id="Path_276" data-name="Path 276" class="cls-11" d="M255.017,153.488c17.854,20.042,35.256,34.191,48.85,42.482.35-.334.683-.678,1.021-1.018C291.151,187.3,273.321,173.491,255.017,153.488Z"/>
            <path id="Path_277" data-name="Path 277" class="cls-11" d="M255.416,153.453c18.873,19.86,37.212,33.128,51.049,39.846.333-.366.67-.73.99-1.1C293.511,186.167,274.743,173.265,255.416,153.453Z"/>
            <path id="Path_278" data-name="Path 278" class="cls-11" d="M308.893,190.456c.31-.395.6-.8.9-1.2-14.05-4.355-33.687-16.286-53.976-35.84C275.674,173.052,294.91,185.383,308.893,190.456Z"/>
            <path id="Path_279" data-name="Path 279" class="cls-11" d="M311.055,187.445c.281-.422.558-.846.823-1.274-14.064-2.656-34.491-13.57-55.666-32.795C276.977,172.707,297.024,184.048,311.055,187.445Z"/>
            <path id="Path_280" data-name="Path 280" class="cls-11" d="M312.95,184.341c.243-.439.471-.883.7-1.328-14-1-35.105-10.889-57.036-29.678C278.18,172.277,298.952,182.608,312.95,184.341Z"/>
            <path id="Path_281" data-name="Path 281" class="cls-11" d="M257.008,153.292c22.242,18.454,43.6,27.749,57.505,27.888.2-.448.392-.9.574-1.351C301.2,180.4,279.559,171.552,257.008,153.292Z"/>
          </g>
          <path id="Path_282" data-name="Path 282" class="cls-8" d="M218.968,155.269c-3.789,9.721.314,38.03,27.657,38.03s37.289-19.867,36.177-32.146l36.51-5.884s11.192,30.924-12.575,52.555-106.117,20.225-123.524,3.789-7.755-48.925-7.755-48.925Z"/>
        </g>
        <g id="Group_60" data-name="Group 60">
          <path id="Path_283" data-name="Path 283" class="cls-14" d="M379.237,113.327v-6.819a1.182,1.182,0,0,1,.836-1.131l5.042-1.552V96.976a3.071,3.071,0,0,1,3.071-3.071h5.993a1.133,1.133,0,0,1,1.133,1.133v2.206a1.133,1.133,0,0,1-1.133,1.133h-7.633v6.677a1.183,1.183,0,0,1-.569,1.011l-4.257,2.588V113.4Z"/>
          <g id="Group_51" data-name="Group 51">
            <rect id="Rectangle_32" data-name="Rectangle 32" class="cls-9" width="6.579" height="19.679" transform="translate(379.237 113.327)"/>
            <g id="Group_48" data-name="Group 48">
              <rect id="Rectangle_33" data-name="Rectangle 33" class="cls-15" width="8.229" height="23.02" transform="translate(385.816 111.656)"/>
              <g id="Group_47" data-name="Group 47" class="cls-16">
                <rect id="Rectangle_34" data-name="Rectangle 34" class="cls-8" width="8.208" height="9" transform="translate(385.816 125.677)"/>
              </g>
              <rect id="Rectangle_36" data-name="Rectangle 36" class="cls-6" width="8.229" height="23.02" transform="translate(385.816 111.656)"/>
            </g>
            <rect id="Rectangle_37" data-name="Rectangle 37" class="cls-9" width="6.579" height="19.679" transform="translate(117.287 133.006) rotate(180)"/>
            <g id="Group_50" data-name="Group 50">
              <rect id="Rectangle_38" data-name="Rectangle 38" class="cls-15" width="8.229" height="23.02" transform="translate(110.707 134.676) rotate(180)"/>
              <g id="Group_49" data-name="Group 49" class="cls-17">
                <rect id="Rectangle_39" data-name="Rectangle 39" class="cls-8" width="8.229" height="8.776" transform="translate(102.478 125.677)"/>
              </g>
              <rect id="Rectangle_41" data-name="Rectangle 41" class="cls-6" width="8.229" height="23.02" transform="translate(110.707 134.676) rotate(180)"/>
            </g>
          </g>
          <path id="Path_284" data-name="Path 284" class="cls-10" d="M116.29,124.337h0a8,8,0,0,0-2.358-8.976l-4.84-4.04a2.931,2.931,0,0,0-4.262.522L85.635,138.328a2.929,2.929,0,0,0-.556,1.716v28.428a2.875,2.875,0,0,0,2.875,2.875h0a2.875,2.875,0,0,0,2.875-2.875V145.379a2.715,2.715,0,0,1,.51-1.585l14.356-19.975a1.558,1.558,0,0,1,2.273-.279l2.644,2.244a3.614,3.614,0,0,0,2.341.859h0A3.568,3.568,0,0,0,116.29,124.337Z"/>
          <circle id="Ellipse_1" data-name="Ellipse 1" class="cls-14" cx="1.372" cy="1.372" r="1.372" transform="translate(110.96 119.01)"/>
          <rect id="Rectangle_42" data-name="Rectangle 42" class="cls-9" width="249.745" height="38.683" transform="translate(123.389 103.825)"/>
          <rect id="Rectangle_43" data-name="Rectangle 43" class="cls-18" width="245.388" height="9.017" rx="1.385" transform="translate(125.517 106.729)"/>
          <g id="Group_54" data-name="Group 54">
            <path id="Path_285" data-name="Path 285" class="cls-11" d="M350.779,150.285H145.744a107.408,107.408,0,0,1-9.044-41.852H359.824C359.824,127.808,350.779,150.285,350.779,150.285Z"/>
            <g id="Group_53" data-name="Group 53" class="cls-19">
              <g id="Group_52" data-name="Group 52" class="cls-20">
                <path id="Path_286" data-name="Path 286" class="cls-6" d="M162.363,147.136s4.485-.24,7-1.746,2.332,1.358,3.767,1.552,4.844-1,6.639-1,.436,1.1,2.46,1,.948.1,2.025-.1,8.686-1.455,8.686-1.455,4.411-.849,5.308-.425,2.052,2.559,3.358,1.977.6-1,2.57-1a13.148,13.148,0,0,1,3.581.514s.179-.512,1.076-.513,1.615,0,1.615,0,3.409.9,3.947.9,4.566-.9,4.705-.9,3.948-.979,3.948-.979a6.433,6.433,0,0,0,2.982,1.783c1.462.194,2.972-.194,4.1.291s4.717-.194,4.717-.194a18.833,18.833,0,0,1,2.584.194,6.708,6.708,0,0,0,3.387-.1,12.947,12.947,0,0,1,6.206-.1c3.252.582,6.236-.9,7.615-.9s6.9.61,8.806.61,6.927.679,10.425.291,5.79.485,8.142.485,4.864-.1,5.4-.1,3.133-1.7,6.859-1.289.41-.512,2.7,0,4.1,1,5.075,1.1a11.884,11.884,0,0,0,2.328-.1l4.012-.291h19.936"/>
                <path id="Path_287" data-name="Path 287" class="cls-6" d="M158.209,139.418s12.349,0,14.581-.2,3.419-1.343,4.606-1.343,7.2,1.145,7.2,1.145a2.042,2.042,0,0,1,2.045-1.145c1.631,0,.791.156,2.3.749s.716,0,1.507.594a13.9,13.9,0,0,0,3.7,1.082s5.566.26,5.778-1.082,3.025,1.082,3.025,1.082,7.561-1.082,10.484-1.082,10.241-.594,10.241-.594,6.021.792,6.274.792,1.271,1.571,2.345.884,2.1-1.478,3.367-1.28a15.4,15.4,0,0,1,3.376,1.28l2.788-1.478,3.2.2s3.267,2.165,5.6,1.28a52.594,52.594,0,0,0,5.189-2.425l2.865,2.425h1.877l5.578-1.082a3.365,3.365,0,0,0,3.648,1.082c2.361-.687,24.91,0,30.647,0s7.026-1.478,7.026-1.478l4.423,1.478h21.979"/>
              </g>
              <path id="Path_288" data-name="Path 288" class="cls-8" d="M352.865,144.5c-1.2,3.6-2.085,5.781-2.085,5.781H145.741s-1.009-2.105-2.367-5.781Z"/>
              <path id="Path_289" data-name="Path 289" class="cls-8" d="M357.143,129.361c-.689,3.046-1.455,5.926-2.2,8.516H141.182c-.747-2.541-1.5-5.4-2.163-8.516Z"/>
            </g>
            <path id="Path_291" data-name="Path 291" class="cls-6" d="M350.779,150.285H145.744a107.408,107.408,0,0,1-9.044-41.852H359.824C359.824,127.808,350.779,150.285,350.779,150.285Z"/>
          </g>
          <g id="Group_59" data-name="Group 59">
            <g id="Group_56" data-name="Group 56">
              <rect id="Rectangle_44" data-name="Rectangle 44" class="cls-15" width="6.112" height="42.676" transform="translate(117.227 101.828)"/>
              <g id="Group_55" data-name="Group 55" class="cls-21">
                <rect id="Rectangle_45" data-name="Rectangle 45" class="cls-8" width="5.948" height="12.659" transform="translate(117.267 131.845)"/>
              </g>
              <rect id="Rectangle_47" data-name="Rectangle 47" class="cls-6" width="6.112" height="42.676" transform="translate(117.227 101.828)"/>
            </g>
            <g id="Group_58" data-name="Group 58">
              <rect id="Rectangle_48" data-name="Rectangle 48" class="cls-15" width="6.112" height="42.676" transform="translate(373.184 101.828)"/>
              <g id="Group_57" data-name="Group 57" class="cls-22">
                <rect id="Rectangle_49" data-name="Rectangle 49" class="cls-8" width="6.162" height="12.659" transform="translate(373.134 131.845)"/>
              </g>
              <rect id="Rectangle_51" data-name="Rectangle 51" class="cls-6" width="6.112" height="42.676" transform="translate(373.184 101.828)"/>
            </g>
          </g>
          <path id="Path_292" data-name="Path 292" class="cls-14" d="M373.234,100.037v31.131H123.29V100.037h-2.4v33.225H375.629V100.037Z"/>
        </g>
        <path id="Path_293" data-name="Path 293" class="cls-1" d="M388.034,152.478v69.814a4.443,4.443,0,0,1-4.441,4.441H112.93a4.443,4.443,0,0,1-4.441-4.441V152.478a4.443,4.443,0,0,1,4.441-4.441h124.7v4.441s-21.291,18.469-58.048,25.279c5.264,23.814,34.017,42.021,68.684,42.021s63.419-18.207,68.683-42.021c-36.756-6.81-58.047-25.279-58.047-25.279v-4.441H383.593A4.443,4.443,0,0,1,388.034,152.478Z"/>
        <g id="Group_62" data-name="Group 62">
          <path id="Path_294" data-name="Path 294" class="cls-4" d="M388.036,152.475v69.818a4.441,4.441,0,0,1-4.442,4.442H112.927a4.447,4.447,0,0,1-4.442-4.442V152.475a4.454,4.454,0,0,1,4.442-4.442h124.7v4.442s-21.291,18.468-58.042,25.287c5.257,23.812,34.016,42.018,68.682,42.018s63.416-18.206,68.683-42.018c-36.761-6.819-58.052-25.287-58.052-25.287v-4.442h124.7A4.447,4.447,0,0,1,388.036,152.475Z"/>
          <g id="Group_61" data-name="Group 61" class="cls-23">
            <path id="Path_295" data-name="Path 295" class="cls-18" d="M382.032,153.552v64.453a3.262,3.262,0,0,1-3.269,3.259H115.6a3.253,3.253,0,0,1-3.259-3.259V153.552a3.262,3.262,0,0,1,3.259-3.269h122.03v2.192s-21.291,18.468-58.042,25.287c5.257,23.812,34.016,42.018,68.682,42.018s63.416-18.206,68.683-42.018c-36.761-6.819-58.052-25.287-58.052-25.287v-2.192H378.763A3.271,3.271,0,0,1,382.032,153.552Z"/>
          </g>
          <path id="Path_297" data-name="Path 297" class="cls-6" d="M388.036,152.475v69.818a4.441,4.441,0,0,1-4.442,4.442H112.927a4.447,4.447,0,0,1-4.442-4.442V152.475a4.454,4.454,0,0,1,4.442-4.442h124.7v4.442s-21.291,18.468-58.042,25.287c5.257,23.812,34.016,42.018,68.682,42.018s63.416-18.206,68.683-42.018c-36.761-6.819-58.052-25.287-58.052-25.287v-4.442h124.7A4.447,4.447,0,0,1,388.036,152.475Z"/>
        </g>
      </g>
    </g>
    <g id="Right_hand" data-name="Right hand">
      <g id="Group_66" data-name="Group 66">
        <path id="Path_298" data-name="Path 298" class="cls-24" d="M298.6,247.418l13.293,37.075s5.751-40.8,9.173-40.8,10.822,22.3,10.822,22.3,4.558-11.646,8.881-12.059,8.211,28.59,8.211,28.59l.67,64.367L344.2,444.24s-34.77-38.3-44.909-48.166-19.832-31.594-22.634-36.026-3.507-27.5-3.507-27.5a24.766,24.766,0,0,0,5.241-15.919s8.162-13.663,7.654-23.739S284.307,243.659,298.6,247.418Z"/>
        <g id="Group_65" data-name="Group 65">
          <path id="Path_299" data-name="Path 299" class="cls-11" d="M403.21,427.02l-52.64,27.69c-.02-.28-6.92-11.49-15.28-24.17-3.78-5.74-7.86-11.77-11.73-17.23-6.34-8.93-14.4-16.64-15.09-18.32-2.04-4.98-17.42-23.72-20.87-31.02s-4.24-29.93-5.76-35.26,2.84-10.42,6.34-12.9,7.17-8.97,7.17-8.97-3.87-15.08-3.91-22.75-2.65-34.44.47-36.94,5.91-1.45,6.69.27c2.56,5.67,4.86,19.93,6.83,26.5s5.67,25.63,7.49,26.99,5.06-3.77,5.06-3.77.31-15.97.98-22.63l-.97-21.04s-1.87-12.62,2.48-13.82c6-1.65,8.19,2.12,8.87,3.71s3.48,10.75,3.48,10.75.06.23.16.63c.02.06.03.12.05.19.01.03.02.07.03.11q.075.255.15.57c.11.42.24.92.38,1.49,1.33,5.21,3.89,15.64,3.78,18.21-.15,3.47-1.36,22.69.35,26.68l2.66-26.55s-4.39-20.44-3.13-23.39,7.14.31,7.84,1.47,6.42,8.18,7.44,10.86l1.01,2.68s1.41-6.34,4.72-4.69,3.72,9.71,3.95,13.23,2.63,26.16,3,26.2,4.19,11.8,3.67,19.57c-1.09,16.63,1.79,28.98,1.89,35.38s-4.71,21.16-4.71,21.16l.01.01c.17.29,3.31,5.63,4.17,10.32.63,3.44,11.84,15.87,21.03,25.76.01.01.01.01.01.02C397.59,420.81,402.93,426.39,403.21,427.02Z"/>
          <path id="Path_300" data-name="Path 300" class="cls-25" d="M335.3,430.54h-.01c-3.78-5.74-7.86-11.77-11.73-17.23-6.34-8.93-14.4-16.64-15.09-18.32-2.04-4.98-17.42-23.72-20.87-31.02s-4.24-29.93-5.76-35.26,2.84-10.42,6.34-12.9,7.17-8.97,7.17-8.97-3.87-15.08-3.91-22.75-2.65-34.44.47-36.94,5.91-1.45,6.69.27c2.56,5.67,4.86,19.93,6.83,26.5s5.67,25.63,7.49,26.99,5.06-3.77,5.06-3.77.31-15.97.98-22.63l-.97-21.04s-1.87-12.62,2.48-13.82c6-1.65,8.19,2.12,8.87,3.71s3.48,10.75,3.48,10.75.06.23.16.63c.02.06.03.12.05.19.01.03.02.07.03.11q.06.255.15.57c.11.42.24.92.38,1.49-1.55-2.45-3.68-4.54-6.53-5.09-7.97-1.56-6.27,7.34-5.51,12.68a36.961,36.961,0,0,1-.25,10.65l2-1.15c-1.44,2.57-3.5,23.93-3.5,28.68s-3.76,6.33-7.13,4.94-4.57-23.19-7.13-27.1-9.68,3.56-9.99,10.39,6.05,27.2,4.54,32.05-1.49,23.04-1.49,23.04l-1.84-4.69c.12.64-.03,2.79-3.85,9.12a18.846,18.846,0,0,0-2.09,15.56c2.26,5.14,14.21,18.84,16.19,20.23,0,0,1.45-5.94,6-4.36a26.236,26.236,0,0,0-3.34,7.96c-.94,4.36,8.55,7.15,11.52,11.3C323.03,403.88,324.22,411.59,335.3,430.54Z"/>
          <path id="Path_301" data-name="Path 301" class="cls-25" d="M391.28,414.02c-9.36-9.43-25.83-18.41-24.83-20.76,1.34-3.16-.36-9.89-3.24-15.35s.97-14.32.97-14.32l1.78,5.15a43.825,43.825,0,0,0,.49-18.12c-1.82-10.21-3.24-6.62-3.24-6.62s.37-9.2,2-14.22,2.98-17.21.75-24.42-6.99-5.85-8.27-3.37.09,12.15,1.14,15.32-3.42,8.5-3.51,4.54-1.78-15.01-1.78-15.01l3.39-22.17-3.39-17.61s1.41-6.34,4.72-4.69,3.72,9.71,3.95,13.23,2.63,26.16,3,26.2,4.19,11.8,3.67,19.57c-1.09,16.63,1.79,28.98,1.89,35.38s-4.71,21.16-4.71,21.16l.01.01c.17.29,3.31,5.63,4.17,10.32.63,3.44,11.84,15.87,21.03,25.76C391.28,414.01,391.28,414.01,391.28,414.02Z"/>
          <path id="Path_302" data-name="Path 302" class="cls-25" d="M352.53,264.38c.19.5.35.91.47,1.24-3.18-7.39-8.6-5.1-9.56-3-1.03,2.24,2.27,15.13,3,17.15s-2.9,18.15-3.43,23.49-1.94,6.43-1.94,6.43c-3.59.27-3.97-9.64-4.01-11.04a12.759,12.759,0,0,0,.66,3.34l2.66-26.55s-4.39-20.44-3.13-23.39,7.14.31,7.84,1.47S351.51,261.7,352.53,264.38Z"/>
          <g id="Group_64" data-name="Group 64">
            <path id="Path_303" data-name="Path 303" class="cls-6" d="M403.209,427.022c-.684-1.539-31.912-32.972-32.967-38.778-.877-4.825-4.185-10.333-4.185-10.333s4.816-14.754,4.717-21.158-2.988-18.751-1.891-35.38c.513-7.776-3.3-19.532-3.67-19.571s-2.782-22.687-3.006-26.206-.628-11.577-3.945-13.226-4.721,4.689-4.721,4.689l-1.013-2.679c-1.014-2.679-6.733-9.7-7.436-10.863s-6.585-4.427-7.842-1.47,3.128,23.389,3.128,23.389l-2.656,26.551c-1.71-3.991-.5-23.211-.35-26.681s-4.555-21.192-4.555-21.192-2.79-9.156-3.474-10.75-2.872-5.365-8.874-3.714c-4.352,1.2-2.482,13.822-2.482,13.822l.972,21.036c-.665,6.659-.981,22.635-.981,22.635s-3.234,5.131-5.058,3.77-5.515-20.417-7.489-26.991-4.271-20.834-6.832-26.5c-.775-1.714-3.567-2.764-6.687-.264s-.519,29.261-.475,36.934,3.909,22.749,3.909,22.749-3.67,6.485-7.166,8.969-7.857,7.565-6.341,12.9,2.312,27.96,5.761,35.262,18.825,26.04,20.868,31.023c.69,1.681,8.749,9.386,15.092,18.315,12.453,17.528,26.982,40.992,27.006,41.406"/>
            <path id="Path_304" data-name="Path 304" class="cls-6" d="M295.346,306.837s2.479,12.29,2.39,14.348c0,0-2.169,9.5-2.184,15.647a62.235,62.235,0,0,0-4.078,7.227c-.849,2.222-2.34,7.679-1.719,10.718"/>
            <path id="Path_305" data-name="Path 305" class="cls-6" d="M290.815,324.945s6.082.057,5.692,2.61"/>
            <path id="Path_306" data-name="Path 306" class="cls-6" d="M295.552,336.832s-3.9-1.7-5.277.577"/>
            <path id="Path_307" data-name="Path 307" class="cls-6" d="M317.978,297.143s-.282,9.412-2.76,8.671"/>
            <path id="Path_308" data-name="Path 308" class="cls-6" d="M337.722,301.987s-.726,5.156,1.214,6.739"/>
            <path id="Path_309" data-name="Path 309" class="cls-6" d="M353.541,267.059s2.7,13.043,3.319,16.082-3.073,18.8-3,22.888,1.819,9.94,1.579,12.691"/>
            <path id="Path_310" data-name="Path 310" class="cls-6" d="M364.323,365.788s-.87,8.5,1.734,12.123"/>
            <path id="Path_311" data-name="Path 311" class="cls-6" d="M311.892,382.592s-5.819,5.294-3.689,11.823"/>
            <path id="Path_312" data-name="Path 312" class="cls-6" d="M350.144,316.514c.089,3.737-2.108,8.1-2.332,13.264"/>
            <path id="Path_313" data-name="Path 313" class="cls-6" d="M331.6,313.169c1.238,3.066-1.463,9.725-1.871,12.217a15.329,15.329,0,0,0,.629,5.8"/>
            <path id="Path_314" data-name="Path 314" class="cls-6" d="M366.446,323.714c-.5,3.241-2.8,5.566-3.234,15.57"/>
            <path id="Path_315" data-name="Path 315" class="cls-6" d="M309.67,312.219c1.677,1.83.546,10.569.987,11.967"/>
            <path id="Path_316" data-name="Path 316" class="cls-6" d="M340.965,261.871s5.725-4.19,10.646.752"/>
            <path id="Path_317" data-name="Path 317" class="cls-6" d="M321.3,252.235s.98-1.661,5.827-1.253,5.686,3.132,5.686,3.132"/>
            <path id="Path_318" data-name="Path 318" class="cls-2" d="M307.193,280.788s-1.628-2.391-5.892-1.6-6.173,6.828-6.173,6.828"/>
            <path id="Path_319" data-name="Path 319" class="cls-6" d="M365.213,301.8s-3.566-5.162-7.839-2.952"/>
          </g>
        </g>
      </g>
    </g>
    <g id="Left_hand" data-name="Left hand">
      <g id="Group_69" data-name="Group 69">
        <path id="Path_320" data-name="Path 320" class="cls-24" d="M213.549,263.945c6.038,4.651.941,33.2.941,33.2l.535,9.286,10.286-4.442,4.644,19.862s-.116,7.275,3.695,9.971c0,0,.937,16.308,0,28.228s-20.032,25.929-26.572,38.44S157.7,447.8,157.7,447.8L121.418,430.54,147.654,324.6l23.492-30.209,13.932-34.756s2.394,22.7,1.015,37.976Z"/>
        <g id="Group_68" data-name="Group 68">
          <path id="Path_321" data-name="Path 321" class="cls-11" d="M223.65,327.4c-.91,4.38,1.28,28.39.9,31.63s-19.48,24.95-20.44,26.65-13.73,9.04-16.7,12.51c-13.88,16.19-21.46,31.1-27.55,46.05,0,.02,0,.03-.01.04-1.17,2.88-2.29,5.77-3.39,8.67l-55.08-32c4.63-5.74,9.02-10.84,12.98-15.48,8.05-9.41,14.37-16.94,17.49-24.05a39.76,39.76,0,0,1,3.28-5.2c1.24-1.76,2.35-3.21,2.35-3.21s-3.99-11.27-3.07-14.81-1.15-32.64-1.15-32.64-2.71-19.81-5.38-24.81a8.237,8.237,0,0,1-.86-4.22c.13-4.57,2.78-10.33,4.08-17.05,1.74-8.97.9-13.45,6.36-10.34s2.91,22.02,2.91,22.02l8.25,18.28c2.17-4.42-.03-17.32-.11-20.37-.01-.5-.04-1.33-.08-2.41-.17-5.26-.52-16.21-.07-20.53.02-.24.05-.46.08-.66.67-4.46,3.06-18.65,4.58-20.23,2.26-2.34,5.85-4.31,9.23,1.02,1.89,2.98,1.08,26.79,1.08,26.79s7.84-9.46,10.22-11.77,9.6-6.53,11.53-1.64-5.19,19.96-5.19,19.96c1.49,3.5,1.67,13.19,1.67,13.19s3.37,12.11,5.44,11.99a.277.277,0,0,0,.09-.01c.6-.13,1.26-2.33,1.95-5.42,1.7-7.57,3.55-20.52,4.99-21.65.22-.18.55-.46.96-.8a.752.752,0,0,1,.16-.15c.12-.11.24-.22.37-.33,3.54-3.15,10.97-10.15,10.97-10.15s.53-3.35,7.06-2.32-2.9,20.3-2.9,20.3c-1.31,6.13-3.32,21.9-3.32,21.9-.61,6.56-.25,24.19-.25,24.19s3.09-10.26,2.89-13.96,6.14-12.9,7.98-15.26,10.16-1.53,7.85,2.96S224.56,323.02,223.65,327.4Z"/>
          <path id="Path_322" data-name="Path 322" class="cls-25" d="M131.85,381.42a39.76,39.76,0,0,1,3.28-5.2s-3.25,8.96-3.57,13.79c-.21,3.16-8.53,8.63-17.2,15.46C122.41,396.06,128.73,388.53,131.85,381.42Z"/>
          <path id="Path_323" data-name="Path 323" class="cls-25" d="M135.13,376.22c1.24-1.76,2.35-3.21,2.35-3.21s-3.99-11.27-3.07-14.81-1.15-32.64-1.15-32.64-2.71-19.81-5.38-24.81l6.22,10.87s-.61,8.59,1.16,13.3S139.21,344,139.21,344s-2.62,12.08-1.73,16.43,4.9,2.77,4.9,2.77S144.4,371.16,135.13,376.22Z"/>
          <path id="Path_324" data-name="Path 324" class="cls-25" d="M149.64,294.39c4.29,25.12-3.1,18.17-5.77,12.75s-8.94-15.68-13.66-13.49a7.383,7.383,0,0,0-3.19,2.88c.13-4.57,2.78-10.33,4.08-17.05,1.74-8.97.9-13.45,6.36-10.34s2.91,22.02,2.91,22.02l8.25,18.28c2.17-4.42-.03-17.32-.11-20.37-.01-.5-.04-1.33-.08-2.41C148.76,289,149.16,291.57,149.64,294.39Z"/>
          <path id="Path_325" data-name="Path 325" class="cls-25" d="M160.14,269.57s-4.63-6.06-8.65-5.75a3.54,3.54,0,0,0-3.13,2.31c.02-.24.05-.46.08-.66.67-4.46,3.06-18.65,4.58-20.23,2.26-2.34,5.85-4.31,9.23,1.02,1.89,2.98,1.08,26.79,1.08,26.79s7.84-9.46,10.22-11.77,9.6-6.53,11.53-1.64-5.19,19.96-5.19,19.96c1.49,3.5,1.67,13.19,1.67,13.19s3.37,12.11,5.44,11.99c-4.56,8.58-7.6-10.39-7.6-10.39.68-3.92-1.74-12.42-1.5-14.66s-4.2-10.16-11.68-7.97-2.08,31.72-2.08,31.72a16.524,16.524,0,0,0-2.5,7.82c-2.31-2.85,0-11.01,0-11.01C159.59,292.5,160.14,269.57,160.14,269.57Z"/>
          <path id="Path_326" data-name="Path 326" class="cls-25" d="M194.99,276.9c-3.19,3.35-2.75,11.82-5.95,22.45,1.7-7.57,3.55-20.52,4.99-21.65C194.25,277.52,194.58,277.24,194.99,276.9Z"/>
          <path id="Path_327" data-name="Path 327" class="cls-25" d="M223.65,327.4c-.91,4.38,1.28,28.39.9,31.63s-19.48,24.95-20.44,26.65-13.73,9.04-16.7,12.51c-13.88,16.19-21.46,31.1-27.55,46.05a197.063,197.063,0,0,1,8.29-22.76c6.57-14.77,9.25-17.4,13.19-21.62s3.51-13.19,3.51-13.19a37.782,37.782,0,0,1,8.88-1.05c4.99,0,19.8-21.1,24.89-24.8s5.97-3.7,0-11.86-4.3,1.31-6.1.96-2.78,3.63-2.78,3.63c-.63-8.32-5.97-18.04-7.13-20.42s2.74-16.61,1.94-20.56,3.44-27.97,3.44-27.97-.53-9.23-8.89-9.26a5.481,5.481,0,0,0-3.58,1.08c3.54-3.15,10.97-10.15,10.97-10.15s.53-3.35,7.06-2.32-2.9,20.3-2.9,20.3c-1.31,6.13-3.32,21.9-3.32,21.9-.61,6.56-.25,24.19-.25,24.19s3.09-10.26,2.89-13.96,6.14-12.9,7.98-15.26,10.16-1.53,7.85,2.96S224.56,323.02,223.65,327.4Z"/>
          <g id="Group_67" data-name="Group 67">
            <path id="Path_328" data-name="Path 328" class="cls-6" d="M156.46,452.947c6.791-17.923,14.375-35.432,30.949-54.761,2.969-3.461,15.733-10.806,16.7-12.507s20.074-23.416,20.449-26.653-1.816-27.244-.9-31.625-.149-18.824,2.154-23.317-6.008-5.325-7.853-2.964-8.173,11.563-7.977,15.262-2.9,13.955-2.9,13.955-.358-17.625.255-24.189c0,0,2.006-15.771,3.313-21.9,0,0,9.427-19.286,2.9-20.307s-7.064,2.322-7.064,2.322-10.424,9.835-12.457,11.43-4.864,26.607-6.933,27.078-5.534-11.984-5.534-11.984-.18-9.687-1.668-13.192c0,0,7.108-15.072,5.185-19.961s-9.136-.655-11.524,1.647-10.227,11.766-10.227,11.766.817-23.814-1.073-26.79c-3.383-5.331-6.979-3.36-9.235-1.017-1.522,1.579-3.907,15.766-4.582,20.229s-.008,20.541.072,23.6,2.283,15.947.108,20.371l-8.251-18.282s2.569-18.909-2.9-22.019-4.626,1.368-6.364,10.342-5.883,16.258-3.217,21.265,5.375,24.818,5.375,24.818,2.065,29.1,1.149,32.636,3.07,14.807,3.07,14.807-4.617,6.091-5.631,8.408c-4.653,10.626-16.449,22.167-30.463,39.532"/>
            <path id="Path_329" data-name="Path 329" class="cls-6" d="M163.327,273.051a9.827,9.827,0,0,0-1.679,5.833c-.028,3.8,2.492,24.6,2.492,24.6s-1.8,2.135-1.9,4.022"/>
            <path id="Path_330" data-name="Path 330" class="cls-6" d="M207.078,330.337a29.462,29.462,0,0,0,2.669,10.141c2.344,4.621,1.579,7.168.785,9.9a35,35,0,0,0-.85,7.289"/>
            <path id="Path_331" data-name="Path 331" class="cls-6" d="M149.5,305.329s1.743,5.523-1.49,8.139"/>
            <path id="Path_332" data-name="Path 332" class="cls-6" d="M187.1,304.775s.337,2.166-2.737,2.367"/>
            <path id="Path_333" data-name="Path 333" class="cls-6" d="M207.71,279.766s-7.7-8.392-13.682-2.069"/>
            <path id="Path_334" data-name="Path 334" class="cls-6" d="M176.511,275.046s-3.546-4.488-6.631-4.215-7.24,2.147-7.712,4.619"/>
            <path id="Path_335" data-name="Path 335" class="cls-6" d="M211.191,347.679a17.678,17.678,0,0,1,2.664,5.875"/>
            <path id="Path_336" data-name="Path 336" class="cls-6" d="M191.188,313.54c-2.385,4.45-1.244,11.994-2.128,14.071"/>
            <path id="Path_337" data-name="Path 337" class="cls-6" d="M165.868,306.151c.564,2.558-1.209,6.731-1.482,9.8s2.241,7.819,1.78,12.124"/>
            <path id="Path_338" data-name="Path 338" class="cls-6" d="M149.637,316.629s-2.092,4.82-1.983,7.974,1.212,10.149,1.212,10.149"/>
            <path id="Path_339" data-name="Path 339" class="cls-6" d="M134.266,316.4s-.76,5.021.993,8.519,3.473,10.987,3.473,10.987"/>
            <path id="Path_340" data-name="Path 340" class="cls-6" d="M137.478,373.007a4.775,4.775,0,0,0,3.471-4.086"/>
            <path id="Path_341" data-name="Path 341" class="cls-6" d="M187.754,388.244s1.9,7.067-1.757,11.611"/>
            <path id="Path_342" data-name="Path 342" class="cls-6" d="M127.073,295.694s5.382-5.256,9.451-.822"/>
            <path id="Path_343" data-name="Path 343" class="cls-6" d="M148.437,265.473s4.007-4.189,8.683.288"/>
          </g>
        </g>
      </g>
    </g>
  </g>
</svg>
