<svg xmlns="http://www.w3.org/2000/svg" xmlns:xlink="http://www.w3.org/1999/xlink" width="460.945" height="429.342" viewBox="0 0 460.945 429.342">
  <defs>
    <style>
      .cls-1, .cls-13, .cls-2 {
        fill: #3343e0;
      }

      .cls-1, .cls-14, .cls-17, .cls-4, .cls-5, .cls-8 {
        stroke: #263238;
      }

      .cls-1, .cls-14, .cls-17, .cls-4, .cls-5, .cls-8, .cls-9 {
        stroke-linecap: round;
        stroke-linejoin: round;
      }

      .cls-16, .cls-3, .cls-4, .cls-6 {
        fill: #fff;
      }

      .cls-3 {
        opacity: 0.7;
      }

      .cls-5 {
        fill: #bfbfbf;
      }

      .cls-12, .cls-13, .cls-7, .cls-8 {
        opacity: 0.3;
      }

      .cls-10, .cls-14, .cls-17, .cls-8, .cls-9 {
        fill: none;
      }

      .cls-9 {
        stroke: #3343e0;
        stroke-width: 3px;
      }

      .cls-11 {
        opacity: 0.2;
      }

      .cls-12 {
        fill: rgba(0,0,0,0.7);
      }

      .cls-15 {
        clip-path: url(#clip-path);
      }

      .cls-16 {
        opacity: 0.4;
      }

      .cls-17 {
        stroke-width: 2px;
      }
    </style>
    <clipPath id="clip-path">
      <path id="Path_94" data-name="Path 94" class="cls-1" d="M352.14,208.12l-15.31,2.78-21.28,3.87-27.87,5.07a4.134,4.134,0,0,1-4.81-3.33l-6.12-33.65a4.149,4.149,0,0,1,3.33-4.81l16.21-2.95,23.58-4.28,24.67-4.49a4.134,4.134,0,0,1,4.81,3.33l6.12,33.65A4.134,4.134,0,0,1,352.14,208.12Z"/>
    </clipPath>
  </defs>
  <g id="ser-3" transform="translate(-17.79 -34.563)">
    <g id="Background_Simple" data-name="Background Simple">
      <g id="Group_5" data-name="Group 5">
        <path id="Path_1" data-name="Path 1" class="cls-2" d="M235.124,35.721C359.159,24.674,359.369,94.654,415.256,159.85S483.1,254.6,462.035,329.757s-92.064,134.07-179.892,100.689S144,429.121,88.606,399.478s-75.969-86.913-35.42-154.409S82.183,49.341,235.124,35.721Z"/>
        <path id="Path_2" data-name="Path 2" class="cls-3" d="M235.124,35.721C359.159,24.674,359.369,94.654,415.256,159.85S483.1,254.6,462.035,329.757s-92.064,134.07-179.892,100.689S144,429.121,88.606,399.478s-75.969-86.913-35.42-154.409S82.183,49.341,235.124,35.721Z"/>
      </g>
    </g>
    <g id="Document">
      <g id="Group_18" data-name="Group 18">
        <rect id="Rectangle_15" data-name="Rectangle 15" class="cls-4" width="196.113" height="272.62" transform="translate(122.783 87.347) rotate(-6.347)"/>
        <rect id="Rectangle_16" data-name="Rectangle 16" class="cls-5" width="196.113" height="37.722" transform="translate(122.783 87.347) rotate(-6.347)"/>
        <path id="Path_3" data-name="Path 3" class="cls-6" d="M263.54,82.924,179.4,92.283A2.877,2.877,0,1,0,180.041,98l84.135-9.359a2.877,2.877,0,1,0-.636-5.719Z"/>
        <path id="Path_4" data-name="Path 4" class="cls-6" d="M243.814,97.016l-42.068,4.679a1.439,1.439,0,0,0,.318,2.86l42.068-4.679a1.439,1.439,0,0,0-.318-2.86Z"/>
        <g id="Group_7" data-name="Group 7">
          <path id="Path_5" data-name="Path 5" class="cls-7" d="M275.252,129.421l-110.22,12.26a1.071,1.071,0,0,0,.237,2.128l110.22-12.26a1.071,1.071,0,1,0-.237-2.128Z"/>
          <path id="Path_6" data-name="Path 6" class="cls-7" d="M276.1,137.073l-126.764,14.1a1.071,1.071,0,1,0,.237,2.128L276.34,139.2a1.071,1.071,0,1,0-.237-2.128Z"/>
          <path id="Path_7" data-name="Path 7" class="cls-7" d="M243.866,148.4,150.19,158.824a1.071,1.071,0,0,0,.237,2.129l93.676-10.42a1.071,1.071,0,0,0-.237-2.128Z"/>
          <g id="Group_6" data-name="Group 6">
            <rect id="Rectangle_17" data-name="Rectangle 17" class="cls-8" width="16.727" height="16.727" rx="2.736" transform="translate(289.296 126.914) rotate(-6.347)"/>
            <path id="Path_8" data-name="Path 8" class="cls-9" d="M294.015,133.949l3.67,3.469,4.849-7.411"/>
          </g>
        </g>
        <g id="Group_9" data-name="Group 9">
          <path id="Path_9" data-name="Path 9" class="cls-7" d="M279.283,165.659l-110.22,12.26a1.071,1.071,0,0,0,.237,2.128l110.22-12.26a1.071,1.071,0,1,0-.237-2.128Z"/>
          <path id="Path_10" data-name="Path 10" class="cls-7" d="M280.134,173.311l-126.764,14.1a1.071,1.071,0,1,0,.237,2.128l126.764-14.1a1.071,1.071,0,1,0-.237-2.128Z"/>
          <path id="Path_11" data-name="Path 11" class="cls-7" d="M247.9,184.643l-93.676,10.42a1.071,1.071,0,1,0,.237,2.128l93.675-10.42a1.071,1.071,0,1,0-.236-2.128Z"/>
          <g id="Group_8" data-name="Group 8">
            <rect id="Rectangle_18" data-name="Rectangle 18" class="cls-8" width="16.727" height="16.727" rx="2.736" transform="matrix(0.994, -0.111, 0.111, 0.994, 293.327, 163.153)"/>
            <path id="Path_12" data-name="Path 12" class="cls-9" d="M298.046,170.188l3.67,3.469,4.849-7.411"/>
          </g>
        </g>
        <g id="Group_11" data-name="Group 11">
          <path id="Path_13" data-name="Path 13" class="cls-7" d="M283.314,201.9l-110.22,12.26a1.071,1.071,0,1,0,.237,2.128l110.22-12.26a1.071,1.071,0,0,0-.237-2.128Z"/>
          <path id="Path_14" data-name="Path 14" class="cls-7" d="M284.165,209.549,157.4,223.649a1.071,1.071,0,0,0,.236,2.128l126.765-14.1a1.071,1.071,0,0,0-.237-2.128Z"/>
          <path id="Path_15" data-name="Path 15" class="cls-7" d="M251.927,220.881,158.252,231.3a1.071,1.071,0,0,0,.236,2.128l93.676-10.42a1.071,1.071,0,1,0-.237-2.128Z"/>
          <g id="Group_10" data-name="Group 10">
            <rect id="Rectangle_19" data-name="Rectangle 19" class="cls-8" width="16.727" height="16.727" rx="2.736" transform="translate(297.358 199.391) rotate(-6.347)"/>
            <path id="Path_16" data-name="Path 16" class="cls-9" d="M302.077,206.426l3.67,3.469,4.849-7.411"/>
          </g>
        </g>
        <g id="Group_13" data-name="Group 13">
          <path id="Path_17" data-name="Path 17" class="cls-7" d="M287.345,238.135,177.125,250.4a1.071,1.071,0,0,0,.236,2.128l110.22-12.26a1.071,1.071,0,1,0-.236-2.128Z"/>
          <path id="Path_18" data-name="Path 18" class="cls-7" d="M288.2,245.787l-126.765,14.1a1.071,1.071,0,0,0,.237,2.128l126.765-14.1a1.071,1.071,0,0,0-.237-2.128Z"/>
          <path id="Path_19" data-name="Path 19" class="cls-7" d="M255.958,257.119l-93.675,10.42a1.071,1.071,0,1,0,.236,2.128l93.676-10.42a1.071,1.071,0,1,0-.237-2.128Z"/>
          <g id="Group_12" data-name="Group 12">
            <rect id="Rectangle_20" data-name="Rectangle 20" class="cls-8" width="16.727" height="16.727" rx="2.736" transform="matrix(0.994, -0.111, 0.111, 0.994, 301.389, 235.629)"/>
            <path id="Path_20" data-name="Path 20" class="cls-9" d="M306.108,242.664l3.67,3.469,4.849-7.411"/>
          </g>
        </g>
        <g id="Group_15" data-name="Group 15">
          <path id="Path_21" data-name="Path 21" class="cls-7" d="M291.376,274.373l-110.22,12.26a1.071,1.071,0,1,0,.236,2.128l110.22-12.26a1.071,1.071,0,0,0-.236-2.128Z"/>
          <path id="Path_22" data-name="Path 22" class="cls-7" d="M292.227,282.025l-126.765,14.1a1.071,1.071,0,0,0,.237,2.128l126.764-14.1a1.071,1.071,0,0,0-.236-2.128Z"/>
          <path id="Path_23" data-name="Path 23" class="cls-7" d="M259.989,293.357l-93.676,10.42a1.071,1.071,0,0,0,.237,2.128l93.676-10.42a1.071,1.071,0,0,0-.237-2.128Z"/>
          <g id="Group_14" data-name="Group 14">
            <rect id="Rectangle_21" data-name="Rectangle 21" class="cls-8" width="16.727" height="16.727" rx="2.736" transform="translate(305.42 271.867) rotate(-6.347)"/>
            <path id="Path_24" data-name="Path 24" class="cls-9" d="M310.139,278.9l3.67,3.469,4.849-7.411"/>
          </g>
        </g>
        <g id="Group_17" data-name="Group 17">
          <path id="Path_25" data-name="Path 25" class="cls-7" d="M294.451,302.025l-110.22,12.26a1.071,1.071,0,0,0,.237,2.128l110.22-12.26a1.071,1.071,0,1,0-.237-2.128Z"/>
          <path id="Path_26" data-name="Path 26" class="cls-7" d="M295.3,309.677l-126.764,14.1a1.071,1.071,0,1,0,.237,2.128l126.764-14.1a1.071,1.071,0,1,0-.237-2.128Z"/>
          <path id="Path_27" data-name="Path 27" class="cls-7" d="M263.065,321.009l-93.676,10.42a1.071,1.071,0,1,0,.237,2.128l93.675-10.42a1.071,1.071,0,1,0-.236-2.128Z"/>
          <g id="Group_16" data-name="Group 16">
            <rect id="Rectangle_22" data-name="Rectangle 22" class="cls-8" width="16.727" height="16.727" rx="2.736" transform="translate(308.495 299.518) rotate(-6.347)"/>
            <path id="Path_28" data-name="Path 28" class="cls-9" d="M313.214,306.553l3.67,3.469,4.849-7.411"/>
          </g>
        </g>
      </g>
    </g>
    <g id="Stamp">
      <g id="Group_22" data-name="Group 22">
        <g id="Group_19" data-name="Group 19">
          <path id="Path_29" data-name="Path 29" class="cls-10" d="M225.721,203.232c-.664-1.171-1.321-1.293-2.14-.828l-1.217.69,3.146,5.548,1.218-.69c.819-.465,1.052-1.092.388-2.262Z"/>
          <path id="Path_30" data-name="Path 30" class="cls-2" d="M202.811,231.268a5.227,5.227,0,0,0-.79-3.269l-1.235-2.177-2.434,1.381,1.327,2.341c.665,1.171.389,1.884-.431,2.349s-1.573.335-2.237-.835L194.143,226l-3.064.6,3.264,5.753c1.487,2.623,3.648,3.377,6.176,1.943a5.739,5.739,0,0,0,1.11-.828,1.577,1.577,0,0,1,.528-1.9A2.175,2.175,0,0,1,202.811,231.268Z"/>
          <path id="Path_31" data-name="Path 31" class="cls-2" d="M189.51,223.834l.578,1.019,3.376-.048-1.472-2.6c-.664-1.17-.4-1.907.418-2.372s1.586-.312,2.25.858l1,1.756,2.435-1.381-.9-1.592c-1.487-2.622-3.648-3.376-6.176-1.942a5.331,5.331,0,0,0-1.525,1.243,5.1,5.1,0,0,0,1.779.25l-2.4.9A4.774,4.774,0,0,0,189.51,223.834Z"/>
          <path id="Path_32" data-name="Path 32" class="cls-2" d="M208.2,213.173a6.38,6.38,0,0,1,1.011-.4c1.29-.575,1.583-2.433,1.474-3.741l-1.327-1.655-3.581,2.032,2.237,3.943A.779.779,0,0,1,208.2,213.173Z"/>
          <path id="Path_33" data-name="Path 33" class="cls-2" d="M223.448,221.044l2.435-1.381-9.295-16.387-2.3,1.307c.74.175,1.27.524,1.288,1.068-.717.1-1.6,0-2.378.14l4.68,12.134-.047.026-5.913-7.378a1,1,0,0,1-.361.87c-.271.187-.66.185-.876.433-.187.216-.176.55-.351.775s-.465.281-.69.438a5.039,5.039,0,0,0-.7.841.981.981,0,0,1-.442.269l6.579,11.6,2.247-1.275-6.573-11.587.047-.027,8.445,10.526,2.435-1.381-4.933-12.734.046-.027Z"/>
          <path id="Path_34" data-name="Path 34" class="cls-2" d="M229.6,206.745a1.473,1.473,0,0,1,.743.878,4.912,4.912,0,0,0-.749-3.558l-1.209-2.13c-1.487-2.622-3.561-3.333-6.136-1.873l-3.792,2.151,9.295,16.387,2.417-1.371c-.782-.492-1.651-.9-2.4-1.443a2.4,2.4,0,0,1-.821-.886,1.055,1.055,0,0,1,.117-1.146,1.165,1.165,0,0,1,1.241-.173l-1.474-2.6,1.218-.691a5.271,5.271,0,0,0,1.711-1.477C229.261,208,228.369,206.279,229.6,206.745Zm-2.876,1.207-1.218.69-3.146-5.548,1.217-.69c.819-.465,1.476-.343,2.14.828l1.4,2.458C227.78,206.86,227.547,207.487,226.728,207.952Z"/>
          <path id="Path_35" data-name="Path 35" class="cls-2" d="M243.393,209.73l-1.328-2.341-4.237,2.4-6.2-10.935c-.09.078-.181.153-.271.223a1.5,1.5,0,0,1-.646.349.514.514,0,0,1-.592-.323,1.108,1.108,0,0,1,.056-.467,4.4,4.4,0,0,0-.842-2.592l-2.045,1.16,9.295,16.386Z"/>
          <path id="Path_36" data-name="Path 36" class="cls-2" d="M242.23,204.044c.28-.736,1.145-1.054,1.637-1.669a1.977,1.977,0,0,0,.127-.2l-.952-1.679,2.528-1.434a1.032,1.032,0,0,0-.244-.425,3.887,3.887,0,0,0-1.149-.362.873.873,0,0,1,.674-1.248c.171-.008.365.029.495-.082a.538.538,0,0,0,.133-.389l-.23-.406-3.535,2.005-2.589-4.564,4.448-2.523-1.328-2.341-7.023,3.983,6.88,12.129A2.689,2.689,0,0,1,242.23,204.044Z"/>
          <path id="Path_37" data-name="Path 37" class="cls-2" d="M251.54,205.109l-1.328-2.341-4.448,2.523-1.33-2.345-1.639,1.542c-.194.181-.386.367-.574.557l2.3,4.048Z"/>
          <path id="Path_38" data-name="Path 38" class="cls-2" d="M248.23,186.083c-.044.347-.246.732-.594.769a1.863,1.863,0,0,1-.5-.083,4.459,4.459,0,0,1-.923-.087.716.716,0,0,1-.178-.108l-2.945,1.67,1.328,2.342,2.692-1.527,7.967,14.045,2.575-1.461L249.683,187.6l2.692-1.527-1.328-2.341-2.755,1.563C248.245,185.549,248.263,185.821,248.23,186.083Z"/>
          <path id="Path_39" data-name="Path 39" class="cls-2" d="M259.461,195.945l2.005,3.534,2.7-1.532a4.118,4.118,0,0,1,.238-.508,6.378,6.378,0,0,1,2.337-2.058l1.242-.774-.823-1.452-4.448,2.523-2.722-4.8,3.534-2.006-1.327-2.34-3.535,2-2.589-4.565,4.447-2.523-1.328-2.341-7.022,3.983L257.224,192C258.457,191.4,259.072,193.742,259.461,195.945Z"/>
          <path id="Path_40" data-name="Path 40" class="cls-2" d="M207.674,228.356c.417.079.668.49.985.773a1.7,1.7,0,0,0,.407.265c.186-.083.37-.155.559-.262,2.529-1.434,3.06-3.716,1.572-6.338l-.147-.26-3.46-.1,1.125,1.983c.664,1.171.4,1.908-.418,2.373s-1.586.312-2.25-.859l-5.019-8.848c-.664-1.171-.4-1.908.418-2.372s1.586-.312,2.25.858l3.4,5.989a13.378,13.378,0,0,1,3.18-.394l-3.909-6.892c-1.487-2.622-3.718-3.336-6.246-1.9s-3.06,3.715-1.572,6.337l4.833,8.521a4.609,4.609,0,0,0,3.282,2.573c-.01-.059-.03-.117-.035-.177C206.572,228.991,207.05,228.238,207.674,228.356Z"/>
          <path id="Path_41" data-name="Path 41" class="cls-2" d="M242.205,181.333l7.846-4.45c-2.253.621-4.231,2.5-6.553,2.241a2.377,2.377,0,0,0-1.276.018,1.239,1.239,0,0,0-.423,1.629A2.145,2.145,0,0,0,242.205,181.333Z"/>
          <path id="Path_42" data-name="Path 42" class="cls-2" d="M222.51,192.5a.843.843,0,0,1,.1-.507,1.737,1.737,0,0,0,.6.108l2.708-1.536a7.392,7.392,0,0,1,1.441-1.254,7.14,7.14,0,0,1,1.618-.64l.6-.183,4.976-2.823a.919.919,0,0,1,.214-.274.908.908,0,0,1,.25-.117l-5.166-1.563-1.387.787q-.075.551-.149,1.1l-5.957,3.181a5.335,5.335,0,0,1-1.924.726,3.986,3.986,0,0,1-.772-.016l-8.475,4.808a5.328,5.328,0,0,0,.336,1.17,3.769,3.769,0,0,1-1.39-.572l-1.74.986q1.859,1.23,3.654,2.549Z"/>
          <path id="Path_43" data-name="Path 43" class="cls-2" d="M258.807,171.916l-4.094-2.3-1.943,1.1a7.976,7.976,0,0,0,4.187,2.246Z"/>
          <path id="Path_44" data-name="Path 44" class="cls-2" d="M280.861,196.133l-15.48-27.292a4.593,4.593,0,0,0-6.255-1.727l-1.861,1.055.71.695c.748.732,1.5,1.483,2.2,2.276l.935-.53a.57.57,0,0,1,.776.214l15.48,27.292a.569.569,0,0,1-.214.775l-21.072,11.952c1.818.106,3.664-.149,5.48.057.652.074,1.3.208,1.954.348l15.621-8.861A4.592,4.592,0,0,0,280.861,196.133Z"/>
          <path id="Path_45" data-name="Path 45" class="cls-2" d="M186.012,230.859,178.717,218a.57.57,0,0,1,.214-.776L199.954,205.3c-.074-.161-.159-.315-.226-.479a2.82,2.82,0,0,1,.886.1l8.482-4.811c-.276-.1-.55-.2-.82-.305l-3.995-1.585-3.2,1.813,3.473,2.131c-1.2-.739-3.679-.835-5.8-.809l-21.806,12.369a4.593,4.593,0,0,0-1.726,6.255l6.316,11.135c.295-.074.59-.145.883-.2a13.5,13.5,0,0,1,2.421-.122A10.9,10.9,0,0,1,186.012,230.859Z"/>
          <path id="Path_46" data-name="Path 46" class="cls-2" d="M211.938,235.881a4.6,4.6,0,0,0,1.2.773c.455.193,1.048.678.7,1.026-1.619.735-3.613.19-5.208.976-.868.429-1.705,1.254-2.638,1a12.374,12.374,0,0,1,2.986,2.529l39.709-22.524.084-.484a2.061,2.061,0,0,1,2.576-2.052,5.308,5.308,0,0,1,1.539.155l4.942-2.8a17.921,17.921,0,0,0-2.4-3.259Z"/>
          <path id="Path_47" data-name="Path 47" class="cls-2" d="M205.514,242.495a7.256,7.256,0,0,1-2.6-1.5l-7.947,4.507a.569.569,0,0,1-.775-.214l-6.962-12.274a4.982,4.982,0,0,0-2.1-.236c-.8.161-1.515,1.1-1.072,1.792a2.322,2.322,0,0,1,2.023,1.242,6.863,6.863,0,0,1-1.4.849l6.019,10.611A4.593,4.593,0,0,0,196.955,249l10.387-5.892c-.042-.021-.083-.047-.126-.067A16.226,16.226,0,0,0,205.514,242.495Z"/>
        </g>
        <g id="Group_21" data-name="Group 21" class="cls-11">
          <g id="Group_20" data-name="Group 20">
            <path id="Path_48" data-name="Path 48" d="M202.811,231.268a5.227,5.227,0,0,0-.79-3.269l-1.235-2.177-2.434,1.381,1.327,2.341c.665,1.171.389,1.884-.431,2.349s-1.573.335-2.237-.835L194.143,226l-3.064.6,3.264,5.753c1.487,2.623,3.648,3.377,6.176,1.943a5.739,5.739,0,0,0,1.11-.828,1.577,1.577,0,0,1,.528-1.9A2.175,2.175,0,0,1,202.811,231.268Z"/>
            <path id="Path_49" data-name="Path 49" d="M189.51,223.834l.578,1.019,3.376-.048-1.472-2.6c-.664-1.17-.4-1.907.418-2.372s1.586-.312,2.25.858l1,1.756,2.435-1.381-.9-1.592c-1.487-2.622-3.648-3.376-6.176-1.942a5.331,5.331,0,0,0-1.525,1.243,5.1,5.1,0,0,0,1.779.25l-2.4.9A4.774,4.774,0,0,0,189.51,223.834Z"/>
            <path id="Path_50" data-name="Path 50" d="M208.2,213.173a6.38,6.38,0,0,1,1.011-.4c1.29-.575,1.583-2.433,1.474-3.741l-1.327-1.655-3.581,2.032,2.237,3.943A.779.779,0,0,1,208.2,213.173Z"/>
            <path id="Path_51" data-name="Path 51" d="M223.448,221.044l2.435-1.381-9.295-16.387-2.3,1.307c.74.175,1.27.524,1.288,1.068-.717.1-1.6,0-2.378.14l4.68,12.134-.047.026-5.913-7.378a1,1,0,0,1-.361.87c-.271.187-.66.185-.876.433-.187.216-.176.55-.351.775s-.465.281-.69.438a5.039,5.039,0,0,0-.7.841.981.981,0,0,1-.442.269l6.579,11.6,2.247-1.275-6.573-11.587.047-.027,8.445,10.526,2.435-1.381-4.933-12.734.046-.027Z"/>
            <path id="Path_52" data-name="Path 52" d="M229.6,206.745a1.473,1.473,0,0,1,.743.878,4.912,4.912,0,0,0-.749-3.558l-1.209-2.13c-1.487-2.622-3.561-3.333-6.136-1.873l-3.792,2.151,9.295,16.387,2.417-1.371c-.782-.492-1.651-.9-2.4-1.443a2.4,2.4,0,0,1-.821-.886,1.055,1.055,0,0,1,.117-1.146,1.165,1.165,0,0,1,1.241-.173l-1.474-2.6,1.218-.691a5.271,5.271,0,0,0,1.711-1.477C229.261,208,228.369,206.279,229.6,206.745Zm-2.876,1.207-1.218.69-3.146-5.548,1.217-.69c.819-.465,1.476-.343,2.14.828l1.4,2.458C227.78,206.86,227.547,207.487,226.728,207.952Z"/>
            <path id="Path_53" data-name="Path 53" d="M243.393,209.73l-1.328-2.341-4.237,2.4-6.2-10.935c-.09.078-.181.153-.271.223a1.5,1.5,0,0,1-.646.349.514.514,0,0,1-.592-.323,1.108,1.108,0,0,1,.056-.467,4.4,4.4,0,0,0-.842-2.592l-2.045,1.16,9.295,16.386Z"/>
            <path id="Path_54" data-name="Path 54" d="M242.23,204.044c.28-.736,1.145-1.054,1.637-1.669a1.977,1.977,0,0,0,.127-.2l-.952-1.679,2.528-1.434a1.032,1.032,0,0,0-.244-.425,3.887,3.887,0,0,0-1.149-.362.873.873,0,0,1,.674-1.248c.171-.008.365.029.495-.082a.538.538,0,0,0,.133-.389l-.23-.406-3.535,2.005-2.589-4.564,4.448-2.523-1.328-2.341-7.023,3.983,6.88,12.129A2.689,2.689,0,0,1,242.23,204.044Z"/>
            <path id="Path_55" data-name="Path 55" d="M251.54,205.109l-1.328-2.341-4.448,2.523-1.33-2.345-1.639,1.542c-.194.181-.386.367-.574.557l2.3,4.048Z"/>
            <path id="Path_56" data-name="Path 56" d="M248.23,186.083c-.044.347-.246.732-.594.769a1.863,1.863,0,0,1-.5-.083,4.459,4.459,0,0,1-.923-.087.716.716,0,0,1-.178-.108l-2.945,1.67,1.328,2.342,2.692-1.527,7.967,14.045,2.575-1.461L249.683,187.6l2.692-1.527-1.328-2.341-2.755,1.563C248.245,185.549,248.263,185.821,248.23,186.083Z"/>
            <path id="Path_57" data-name="Path 57" d="M259.461,195.945l2.005,3.534,2.7-1.532a4.118,4.118,0,0,1,.238-.508,6.378,6.378,0,0,1,2.337-2.058l1.242-.774-.823-1.452-4.448,2.523-2.722-4.8,3.534-2.006-1.327-2.34-3.535,2-2.589-4.565,4.447-2.523-1.328-2.341-7.022,3.983L257.224,192C258.457,191.4,259.072,193.742,259.461,195.945Z"/>
            <path id="Path_58" data-name="Path 58" d="M207.674,228.356c.417.079.668.49.985.773a1.7,1.7,0,0,0,.407.265c.186-.083.37-.155.559-.262,2.529-1.434,3.06-3.716,1.572-6.338l-.147-.26-3.46-.1,1.125,1.983c.664,1.171.4,1.908-.418,2.373s-1.586.312-2.25-.859l-5.019-8.848c-.664-1.171-.4-1.908.418-2.372s1.586-.312,2.25.858l3.4,5.989a13.378,13.378,0,0,1,3.18-.394l-3.909-6.892c-1.487-2.622-3.718-3.336-6.246-1.9s-3.06,3.715-1.572,6.337l4.833,8.521a4.609,4.609,0,0,0,3.282,2.573c-.01-.059-.03-.117-.035-.177C206.572,228.991,207.05,228.238,207.674,228.356Z"/>
            <path id="Path_59" data-name="Path 59" d="M242.205,181.333l7.846-4.45c-2.253.621-4.231,2.5-6.553,2.241a2.377,2.377,0,0,0-1.276.018,1.239,1.239,0,0,0-.423,1.629A2.145,2.145,0,0,0,242.205,181.333Z"/>
            <path id="Path_60" data-name="Path 60" d="M222.51,192.5a.843.843,0,0,1,.1-.507,1.737,1.737,0,0,0,.6.108l2.708-1.536a7.392,7.392,0,0,1,1.441-1.254,7.14,7.14,0,0,1,1.618-.64l.6-.183,4.976-2.823a.919.919,0,0,1,.214-.274.908.908,0,0,1,.25-.117l-5.166-1.563-1.387.787q-.075.551-.149,1.1l-5.957,3.181a5.335,5.335,0,0,1-1.924.726,3.986,3.986,0,0,1-.772-.016l-8.475,4.808a5.328,5.328,0,0,0,.336,1.17,3.769,3.769,0,0,1-1.39-.572l-1.74.986q1.859,1.23,3.654,2.549Z"/>
            <path id="Path_61" data-name="Path 61" d="M258.807,171.916l-4.094-2.3-1.943,1.1a7.976,7.976,0,0,0,4.187,2.246Z"/>
            <path id="Path_62" data-name="Path 62" d="M280.861,196.133l-15.48-27.292a4.593,4.593,0,0,0-6.255-1.727l-1.861,1.055.71.695c.748.732,1.5,1.483,2.2,2.276l.935-.53a.57.57,0,0,1,.776.214l15.48,27.292a.569.569,0,0,1-.214.775l-21.072,11.952c1.818.106,3.664-.149,5.48.057.652.074,1.3.208,1.954.348l15.621-8.861A4.592,4.592,0,0,0,280.861,196.133Z"/>
            <path id="Path_63" data-name="Path 63" d="M186.012,230.859,178.717,218a.57.57,0,0,1,.214-.776L199.954,205.3c-.074-.161-.159-.315-.226-.479a2.82,2.82,0,0,1,.886.1l8.482-4.811c-.276-.1-.55-.2-.82-.305l-3.995-1.585-3.2,1.813,3.473,2.131c-1.2-.739-3.679-.835-5.8-.809l-21.806,12.369a4.593,4.593,0,0,0-1.726,6.255l6.316,11.135c.295-.074.59-.145.883-.2a13.5,13.5,0,0,1,2.421-.122A10.9,10.9,0,0,1,186.012,230.859Z"/>
            <path id="Path_64" data-name="Path 64" d="M211.938,235.881a4.6,4.6,0,0,0,1.2.773c.455.193,1.048.678.7,1.026-1.619.735-3.613.19-5.208.976-.868.429-1.705,1.254-2.638,1a12.374,12.374,0,0,1,2.986,2.529l39.709-22.524.084-.484a2.061,2.061,0,0,1,2.576-2.052,5.308,5.308,0,0,1,1.539.155l4.942-2.8a17.921,17.921,0,0,0-2.4-3.259Z"/>
            <path id="Path_65" data-name="Path 65" d="M205.514,242.495a7.256,7.256,0,0,1-2.6-1.5l-7.947,4.507a.569.569,0,0,1-.775-.214l-6.962-12.274a4.982,4.982,0,0,0-2.1-.236c-.8.161-1.515,1.1-1.072,1.792a2.322,2.322,0,0,1,2.023,1.242,6.863,6.863,0,0,1-1.4.849l6.019,10.611A4.593,4.593,0,0,0,196.955,249l10.387-5.892c-.042-.021-.083-.047-.126-.067A16.226,16.226,0,0,0,205.514,242.495Z"/>
          </g>
        </g>
      </g>
    </g>
    <g id="Left_hand" data-name="Left hand">
      <path id="Path_66" data-name="Path 66" class="cls-12" d="M160.479,206.778c6.1,4.486,11.2,26.028,11.663,45.732s9.948,52.989,11.137,58.446.722,13.314,7.8,2.374S218.873,283.4,227.5,289.7s-5.906,27.528-13.777,38.946-8.666,31.528-18.09,44.119-17.959,31.6-27.2,31.31-70.412,45.112-70.412,45.112l1.2-62.146,54.962-89.995Z"/>
      <g id="Group_25" data-name="Group 25">
        <path id="Path_67" data-name="Path 67" class="cls-6" d="M232.52,292.76c-.31,1.95-11.08,16.22-17.41,26.9s-12.26,29.27-13.85,32.04-20.96,19.78-26.32,26.91-14.82,10.28-24.31,17.01c-6.1,4.32-25.11,26.61-37.92,41.99-7.12,8.55-12.33,14.97-12.33,14.97L18.49,431.22s6.78-5.59,15.7-13.13c.01,0,.03-.01.06-.04a.971.971,0,0,1,.09-.07C49.02,405.57,69.43,388,75.07,381.37c9.09-10.68,21.75-23.34,21.75-23.34-.77-14.83.8-28.88-.59-34.22-.72-2.79-2.01-18.66-2.97-23.54-2.43-12.47-13-25.39-14.19-30.48s-15.17-26.82-8.36-30.83a6.269,6.269,0,0,1,4.16-.91c9.2,1.27,16.78,23.49,21.98,29.15a67.662,67.662,0,0,1,6.06,8.52c4.12,6.53,8.16,13.87,8.16,13.87,1.58-6.33-9.89-28.88-13.06-50.24s-12.26-32.83,0-34.15a7.648,7.648,0,0,1,3.04.26c8.63,2.52,12.37,20.45,17.53,37.85.48,1.6,4.41,13.09,7.47,21.95,0,.01,0,.01.01.02,1.99,5.8,3.6,10.47,3.6,10.47.39-10.88-2.97-20.97-3.56-30.86-.24-3.95,1.02-19.78-.56-35.6-1.34-13.35-.73-18.76,4.49-19.81a12.971,12.971,0,0,1,3.39-.16c9.05.57,12.26,24.62,12.26,34.01,0,5.45.93,16.09,1.71,24.07.57,5.77,1.06,10.15,1.06,10.15s1.58-13.25.4-41.83c-.27-6.26.14-10.74,2.6-12.55,1.35-.98,3.3-1.17,6.1-.41,7.91,2.14,10.48,31.45,10.48,42.53s6.33,30.06,7.52,45.02,6.37,33.3,6.37,33.3,2.93,1.19,4.9.8,15.63-20.57,15.63-20.57c6.36-13.81,18.74-17.98,25.48-16.45C231.04,288.09,232.96,290.01,232.52,292.76Z"/>
        <g id="Group_23" data-name="Group 23">
          <path id="Path_68" data-name="Path 68" class="cls-13" d="M232.52,292.76c-.31,1.95-11.08,16.22-17.41,26.9s-12.26,29.27-13.85,32.04-20.96,19.78-26.32,26.91-14.82,10.28-24.31,17.01c-6.1,4.32-25.11,26.61-37.92,41.99,1.41-5.58,4.57-12.71,12.83-19.56,14.34-11.91,15.2-21.25,22.91-29.16s21.29-5.54,26.17-15.03,21.9-18.2,25.46-26.51-3.56-10.07,2.77-20.07,12.47-12.43,11.57-16.35-3.56-9.86,1.93-14.81c3.43-3.08,7.46-6.95,11.58-8.73C231.04,288.09,232.96,290.01,232.52,292.76Z"/>
          <path id="Path_69" data-name="Path 69" class="cls-13" d="M129.92,339.7c-2.63-1.32-.52-3.95-2.37-6.14s-6.07,11.95-7.05,12.01-3.76-7.19-4.88-7.91-1.78,2.31-3.37,7.91-7.38,8.38-10.77,12.46S77.7,383.75,72.69,391.92c-4.93,8.05-35.95,24.34-38.35,26.06C49.02,405.57,69.43,388,75.07,381.37c9.09-10.68,21.75-23.34,21.75-23.34-.77-14.83.8-28.88-.59-34.22-.72-2.79-2.01-18.66-2.97-23.54-2.43-12.47-13-25.39-14.19-30.48s-15.17-26.82-8.36-30.83a6.269,6.269,0,0,1,4.16-.91c-1.55,1.1-3.06,2.68-1.65,4.97,2.51,4.06,5.27,8.33,5.27,12.82s7.65,10.81,10.62,14.96.2,2.71,2.18,8.45,4.35,4.54,5.53,10.34,7.78,9.5,6.73,16.73,3.16,17.29,3.16,17.29,3.43-9.75,2.18-15.03.2-11.87-.96-13.65c-1.04-1.6-3.74-12.46-5.02-19.21,4.12,6.53,8.16,13.87,8.16,13.87,1.58-6.33-9.89-28.88-13.06-50.24s-12.26-32.83,0-34.15a7.648,7.648,0,0,1,3.04.26c5.23,9.77,1.59,17.04.43,21.24-1.27,4.62,6.29,16.48,7.41,24.65,1.04,7.63,3.06,6.84,3.33,6.7-.23.21-2.18,2.2-1.02,7.86,1.23,6.02,10.02,20.25,10.02,24.23s-.72,10.53-.72,12.47c0,1.96,7.05,14.92,7.84,18.32s-.33-6.55,1.58-9.97,2.92-15.49,3.17-14.84C136.32,304.59,132.56,341.02,129.92,339.7Z"/>
          <path id="Path_70" data-name="Path 70" class="cls-13" d="M135.59,250.34c-2.24,3.39-2.18,29.85-6.03,29.94-1.85.04-2.75-6.65-3.5-15,1.99,5.8,3.6,10.47,3.6,10.47.39-10.88-2.97-20.97-3.56-30.86-.24-3.95,1.02-19.78-.56-35.6-1.34-13.35-.73-18.76,4.49-19.81,1.1,3.56,3.8,7.76,4.49,11.66.94,5.38-.9,9.83-2.48,10.5s-1.85,4.14.13,4.65-.05,25.76.92,29.04S137.84,246.95,135.59,250.34Z"/>
          <path id="Path_71" data-name="Path 71" class="cls-13" d="M156.14,220.72c-4.11,1.81-4.33,5.05-5.56,9.7s1.76,11.44,0,22.11,4.66,17.55,0,29.49-2.47-9.96-3.25-20a123.486,123.486,0,0,1,.06-14.62c.57,5.77,1.06,10.15,1.06,10.15s1.58-13.25.4-41.83c-.27-6.26.14-10.74,2.6-12.55C155.67,206.96,159.64,219.18,156.14,220.72Z"/>
        </g>
        <g id="Group_24" data-name="Group 24">
          <path id="Path_72" data-name="Path 72" class="cls-14" d="M100.385,452.582s40.747-50.241,50.241-56.967,18.953-9.885,24.312-17.008,24.743-24.135,26.326-26.9,7.516-21.362,13.846-32.044,17.1-24.947,17.406-26.9c1.385-8.7-20.769-9.1-30.066,11.077,0,0-13.648,20.176-15.626,20.572s-4.9-.794-4.9-.794-5.188-18.348-6.375-33.3-7.516-33.945-7.516-45.022-2.572-40.384-10.484-42.528-9.1,3.279-8.7,12.958c1.187,28.581-.4,41.833-.4,41.833s-2.769-24.829-2.769-34.219-3.211-33.436-12.263-34.013c-8.308-.529-9.464,4.145-7.882,19.969s.326,31.655.563,35.6c.593,9.89,3.956,19.978,3.56,30.857,0,0-10.289-29.784-11.077-32.439-5.727-19.31-9.706-39.275-20.571-38.108-12.264,1.316-3.165,12.789,0,34.152s14.637,43.912,13.055,50.241c0,0-9.49-17.234-14.22-22.389-5.956-6.49-15.055-34.775-26.132-28.248-6.816,4.017,7.173,25.741,8.36,30.831s11.755,18.016,14.19,30.488c.952,4.879,2.243,20.745,2.967,23.538,1.384,5.341-.182,19.385.593,34.22,0,0-12.659,12.659-21.758,23.341S18.494,431.22,18.494,431.22"/>
          <path id="Path_73" data-name="Path 73" class="cls-14" d="M181.924,323.613a18.744,18.744,0,0,1,0,14.046"/>
          <path id="Path_74" data-name="Path 74" class="cls-14" d="M185.253,324.452a6.642,6.642,0,0,1,2.362,7.471"/>
          <path id="Path_75" data-name="Path 75" class="cls-14" d="M148.45,257.549s3.165,22.352,1.781,26.506"/>
          <path id="Path_76" data-name="Path 76" class="cls-14" d="M129.659,275.747a20.9,20.9,0,0,1,0,6.528"/>
          <path id="Path_77" data-name="Path 77" class="cls-14" d="M111.066,289.593s.593,3.363,0,4.154"/>
          <path id="Path_78" data-name="Path 78" class="cls-14" d="M211.352,308.582s3.577,1.937,4.747,4.748"/>
          <path id="Path_79" data-name="Path 79" class="cls-14" d="M129.791,215.716a7.1,7.1,0,0,0,6.594-1.787"/>
          <path id="Path_80" data-name="Path 80" class="cls-14" d="M131.044,247.857s7.121,2.374,9.692,0"/>
          <path id="Path_81" data-name="Path 81" class="cls-14" d="M154.187,254.78s4.747-1.78,7.912-.791"/>
          <path id="Path_82" data-name="Path 82" class="cls-14" d="M108.89,261.11s3.758-4.945,6.725-3.561"/>
          <path id="Path_83" data-name="Path 83" class="cls-14" d="M93.462,275.747s-3.363,1.583-4.352,3.264"/>
          <path id="Path_84" data-name="Path 84" class="cls-14" d="M96.824,358.033A18.779,18.779,0,0,0,99,355.066c.593-1.187-.2-13.846,0-21.956"/>
          <path id="Path_85" data-name="Path 85" class="cls-14" d="M138.325,407.845c-4.666,5.215-18.951,14.671-24.688,20.408"/>
          <path id="Path_86" data-name="Path 86" class="cls-14" d="M157.154,289.593c-2.374,6.726.2,15.231,0,18.989s-1.013,20.967-1.013,20.967"/>
          <path id="Path_87" data-name="Path 87" class="cls-14" d="M135.593,289.593c-3.164,5.341-2.175,12.462-1.186,16.022s.11,18,.11,18"/>
          <path id="Path_88" data-name="Path 88" class="cls-14" d="M101.571,306.6a19.223,19.223,0,0,0,1.978,10.089"/>
          <path id="Path_89" data-name="Path 89" class="cls-14" d="M121.154,296.121c-1.78,6.527.593,9.492.791,10.482"/>
        </g>
      </g>
    </g>
    <g id="Right_hand" data-name="Right hand">
      <path id="Path_90" data-name="Path 90" class="cls-12" d="M281.818,252.983l-3.367-19.559a6.54,6.54,0,0,1,5.61-7.6l7.548-.973s-2.517-5.114,5.591-20.033,47.1-54.445,76.657,12S430.429,418.65,430.429,418.65,350.64,325.764,348.1,321s-26.833-1.917-32.44-14.685-17.388-49.2-17.388-49.2l-9.127,1.242A6.541,6.541,0,0,1,281.818,252.983Z"/>
      <g id="Group_31" data-name="Group 31">
        <g id="Group_28" data-name="Group 28">
          <g id="Group_27" data-name="Group 27">
            <path id="Path_91" data-name="Path 91" class="cls-2" d="M352.14,208.12l-15.31,2.78-21.28,3.87-27.87,5.07a4.134,4.134,0,0,1-4.81-3.33l-6.12-33.65a4.149,4.149,0,0,1,3.33-4.81l16.21-2.95,23.58-4.28,24.67-4.49a4.134,4.134,0,0,1,4.81,3.33l6.12,33.65A4.134,4.134,0,0,1,352.14,208.12Z"/>
            <g id="Group_26" data-name="Group 26" class="cls-15">
              <path id="Path_92" data-name="Path 92" class="cls-12" d="M341.31,185.78l-4.48,25.12-21.28,3.87c-6.16-2.71-16.32-7.43-18.35-9.95-2.42-2.99-2.08-20.68-.91-29.72l23.58-4.28C328.18,176.5,341.31,185.78,341.31,185.78Z"/>
              <path id="Path_93" data-name="Path 93" class="cls-12" d="M291.91,219.07l-4.23.77a4.134,4.134,0,0,1-4.81-3.33l-6.12-33.65a4.149,4.149,0,0,1,3.33-4.81l4.22-.77a4.139,4.139,0,0,0-3.32,4.81l6.12,33.65A4.134,4.134,0,0,0,291.91,219.07Z"/>
            </g>
            <path id="Path_95" data-name="Path 95" class="cls-14" d="M352.14,208.12l-15.31,2.78-21.28,3.87-27.87,5.07a4.134,4.134,0,0,1-4.81-3.33l-6.12-33.65a4.149,4.149,0,0,1,3.33-4.81l16.21-2.95,23.58-4.28,24.67-4.49a4.134,4.134,0,0,1,4.81,3.33l6.12,33.65A4.134,4.134,0,0,1,352.14,208.12Z"/>
          </g>
          <path id="Rectangle_23" data-name="Rectangle 23" class="cls-14" d="M4.136,0H69.653a4.135,4.135,0,0,1,4.135,4.135v34.2a4.136,4.136,0,0,1-4.136,4.136H4.136A4.136,4.136,0,0,1,0,38.338V4.136A4.136,4.136,0,0,1,4.136,0Z" transform="translate(280.241 178.022) rotate(-10.304)"/>
          <rect id="Rectangle_24" data-name="Rectangle 24" class="cls-14" width="65.493" height="37.698" rx="2.004" transform="translate(283.337 179.886) rotate(-10.304)"/>
          <path id="Path_96" data-name="Path 96" class="cls-14" d="M356.37,207.35l-4.2.76a4.128,4.128,0,0,0,3.3-4.8l-6.12-33.65a4.134,4.134,0,0,0-4.81-3.33l4.23-.77a4.149,4.149,0,0,1,4.81,3.33l6.12,33.65A4.149,4.149,0,0,1,356.37,207.35Z"/>
        </g>
        <g id="Group_30" data-name="Group 30">
          <path id="Path_97" data-name="Path 97" class="cls-6" d="M478.03,315.14,436.59,426.22s-17.32-32.96-33.32-63.54c-12.78-24.42-24.72-47.32-26.33-50.69-3.61-7.59-15.9-23.49-15.9-23.49s-12.65-7.24-18.44-19.85-12.16-57.72-12.16-57.72-16.63-6.26-20.6-9.02-7.59-28.06-7.59-30.95,3.97-8.68,3.97-8.68-.89-4.24,4.19-8.52a23.338,23.338,0,0,1,5.47-3.35c.03-.02.07-.03.1-.05,0,0-.66-9.57,4.32-12.36a5.6,5.6,0,0,1,.74-.35c4.44-1.71,18.98-3.92,18.98-3.92a20.761,20.761,0,0,1,7.05-4.07c2.58-.71,16.74,2.58,24.65,4.53,3.18.78,5.35,1.34,5.35,1.34s13.38.61,15.91,2.12a25.215,25.215,0,0,1,4.8,4.09.01.01,0,0,0,.01.01c.15.18.25.29.25.29s11.93,2.48,14.46,6.85,3.61,26.05,1.81,40.14,1.43,38,1.43,38,3.73,18.47,6.62,25.48S478.03,315.14,478.03,315.14Z"/>
          <path id="Path_98" data-name="Path 98" class="cls-13" d="M403.27,362.68c-12.78-24.42-24.72-47.32-26.33-50.69-3.61-7.59-15.9-23.49-15.9-23.49s-12.65-7.24-18.44-19.85-12.16-57.72-12.16-57.72-16.63-6.26-20.6-9.02-7.59-28.06-7.59-30.95,3.97-8.68,3.97-8.68-.89-4.24,4.19-8.52c.01,1.14.02,3.06-.04,6.08-.12,5.73,6.63,40.28,8.3,39.23s4.25-3.58,3.57-5.81c0,0-3.27-13.41-6.36-42.85.03-.02.07-.03.1-.05,0,0-.66-9.57,4.32-12.36a23.046,23.046,0,0,0-1.63,6.49c-.11,4.66,5.43,44.59,7.6,45.6s7.67-4.31,7.67-4.31-1.88-11.33-1.21-16.16c0,0,16.73,10.2,17.23,21.78.05,1.27,3.26,19.42,3.26,19.42s-14.39,27.4.3,52.4c0,0-7.47-4.48-9.25-11.6,0,0-2.17,20.94,13.26,32.03,0,0,11.07-10.87,21.95-12.25,0,0,.2.72-7.12,6.49s-8.31,8.34-8.31,8.34,7.92-7.98,14.25-8.34c0,0-6.53,7.55-6.33,9.13s18.67,33.16,25.39,55.19C400.18,351.45,402.05,358.09,403.27,362.68Z"/>
          <path id="Path_99" data-name="Path 99" class="cls-13" d="M351.408,153.1s5.328,3.95,6.911,0a22.978,22.978,0,0,0,1.715-6.718s2.044-.946,4.021,3.977,21.5,6.194,26.082,8.724,6.4,0,6.4,0a5.987,5.987,0,0,1,1.5,7.431c-2.216,4.593,4.075,4.989,6.507,1.626s.553,9.666-5.48,10.965c0,0,.178,5.7-3.7,9.615h3.286s-8.757,6.944-11.094,7.325,8.677,4.273,6.632,5.1-7.822.747-7.822.747,3.743,2.587,3.771,4.3-1.768,3-2.581,1.575-7.267-21.914-10.483-29.482S360.519,164.767,351.408,153.1Z"/>
          <path id="Path_100" data-name="Path 100" class="cls-13" d="M397.78,141.74c-11.22-3.07-26.27-7.44-26.27-7.44s.07-.04.21-.11c3.18.78,5.35,1.34,5.35,1.34s13.38.61,15.91,2.12A25.215,25.215,0,0,1,397.78,141.74Z"/>
          <path id="Path_101" data-name="Path 101" class="cls-2" d="M381.953,159.393c-9.76-1.989-16.738,6.336-16.738,6.336s9.709,8.778,11.858,12.554,5.716,16.473,5.716,16.473c4.089.661,11.635-3.553,13.443-14.759S391.713,161.381,381.953,159.393Z"/>
          <g id="Group_29" data-name="Group 29">
            <path id="Path_102" data-name="Path 102" class="cls-14" d="M436.588,426.218S380.557,319.58,376.943,311.989,361.037,288.5,361.037,288.5s-12.652-7.233-18.435-19.848-12.16-57.722-12.16-57.722-16.629-6.255-20.6-9.013-7.591-28.061-7.591-30.953,3.976-8.675,3.976-8.675-1.446-6.856,9.76-11.923c0,0-.723-10.489,5.061-12.716,4.441-1.709,18.978-3.919,18.978-3.919a20.841,20.841,0,0,1,7.049-4.072c3.615-.988,30,5.88,30,5.88s13.375.608,15.9,2.111a25.691,25.691,0,0,1,5.061,4.4s11.929,2.482,14.46,6.844,3.614,26.05,1.807,40.148,1.433,38,1.433,38,3.728,18.462,6.62,25.477,55.669,62.628,55.669,62.628"/>
            <path id="Path_103" data-name="Path 103" class="cls-14" d="M389.183,209.458s-2.53-.542-5.784-12.471-4.112-17.505-10.844-24.581c-4.783-5.026-15.725-13.164-21.147-19.3s-11.387-11.061-16.086-7.307c-3.747,2.993-6.182,10.8-2.892,22.815,4.227,15.439,17.527,22.787,17.527,22.787l3.258,19.426s-14.148,28.336,1.808,55.086"/>
            <path id="Path_104" data-name="Path 104" class="cls-14" d="M365.215,165.729s6.978-8.325,16.738-6.336,16.086,9.4,14.279,20.6-9.354,15.42-13.443,14.759"/>
            <path id="Path_105" data-name="Path 105" class="cls-14" d="M340.021,133.727a66,66,0,0,0-3.364,11.356"/>
            <path id="Path_106" data-name="Path 106" class="cls-14" d="M334.083,172.891s.837,12.348,2.574,16.143,4.629,6.869,5.894,11.749,1.446,12.471,1.808,13.555,2.456,1.375,2.456,1.375c2.966.071,4.2-1.49,5.933-3.872"/>
            <path id="Path_107" data-name="Path 107" class="cls-14" d="M315.982,150.362s2.712,26.382,4.88,37.588,5.965,12.833,12.291,16.448,9.76,11.025,10.3,12.109,2.611,1.23,2.611,1.23a7.3,7.3,0,0,0,5.827-3.808"/>
            <path id="Path_108" data-name="Path 108" class="cls-14" d="M306.222,162.285c-.681,1.043,5.113,27.834,8.134,35.606s3.368,9.032,11.354,11.2,14.055,5.857,16.22,4.569"/>
            <path id="Path_109" data-name="Path 109" class="cls-14" d="M361.71,147.464s4.152,9.94,1.408,16.473"/>
            <path id="Path_110" data-name="Path 110" class="cls-14" d="M377.073,135.535a142.827,142.827,0,0,0,20.966,6.507"/>
            <path id="Path_111" data-name="Path 111" class="cls-14" d="M404.546,169.876s-3.18,5.818-8.006,7.066"/>
            <path id="Path_112" data-name="Path 112" class="cls-14" d="M396.54,163.547s-1.143,2.964-2.352,3.833"/>
            <path id="Path_113" data-name="Path 113" class="cls-14" d="M400.543,187.408s-7.233,5.474-14.177,6.894"/>
            <path id="Path_114" data-name="Path 114" class="cls-14" d="M383.4,196.987s2.961,3.8,10.789,4.157"/>
            <path id="Path_115" data-name="Path 115" class="cls-14" d="M360.034,180.407s7.078-6.792,11.119-5.856"/>
            <path id="Path_116" data-name="Path 116" class="cls-14" d="M373.857,181.791s-5.355,4.031-6.337,3.993"/>
            <path id="Path_117" data-name="Path 117" class="cls-14" d="M318.67,202.956s1.78.332,3.165-1.812"/>
            <path id="Path_118" data-name="Path 118" class="cls-14" d="M325,193.264s4.3-2.667,7.112-3.178"/>
            <path id="Path_119" data-name="Path 119" class="cls-14" d="M362.883,283.461c.886-.791,9.194-7.516,14.337-9.89"/>
            <path id="Path_120" data-name="Path 120" class="cls-14" d="M373.659,280.283c-.593-.184-5.309,4.761-7.8,6.739"/>
            <path id="Path_121" data-name="Path 121" class="cls-14" d="M376.033,294.934s15.824,29.975,19.385,41.988"/>
            <path id="Path_122" data-name="Path 122" class="cls-14" d="M422.359,252.51c1.346,7.373,5.7,12.8,8.07,15.744"/>
          </g>
          <path id="Path_123" data-name="Path 123" class="cls-16" d="M372.461,162.285c-2.3,1.413.121,6.056,1.4,8.429s7.011,6.132,8.2,9.693,8.7,3.461,10.978,0,2-10.372-4.239-15.627S375.725,160.283,372.461,162.285Z"/>
        </g>
      </g>
    </g>
    <g id="Speech_bubble" data-name="Speech bubble">
      <g id="Group_33" data-name="Group 33">
        <path id="Path_124" data-name="Path 124" class="cls-14" d="M328.548,361.571a45.7,45.7,0,0,0-34.318,82.172"/>
        <path id="Path_125" data-name="Path 125" class="cls-14" d="M347.6,369.539a45.374,45.374,0,0,0-14.021-6.82"/>
        <path id="Path_126" data-name="Path 126" class="cls-14" d="M343.014,446.578a45.684,45.684,0,0,0,10.418-72.033"/>
        <path id="Path_127" data-name="Path 127" class="cls-14" d="M345.207,461l2.726,2.407-4.247-14.531"/>
        <path id="Path_128" data-name="Path 128" class="cls-14" d="M313.213,451.659a45.509,45.509,0,0,0,20.181-1.09l8.607,7.6"/>
        <path id="Path_129" data-name="Path 129" class="cls-14" d="M302.733,448.56a45.582,45.582,0,0,0,5.235,1.89"/>
        <g id="Group_32" data-name="Group 32">
          <path id="Path_130" data-name="Path 130" class="cls-14" d="M324.488,384.393a22.973,22.973,0,1,1-8.14.069"/>
          <path id="Path_131" data-name="Path 131" class="cls-14" d="M316.354,432.178a25.475,25.475,0,0,1-20.839-29.389"/>
          <path id="Path_132" data-name="Path 132" class="cls-14" d="M344.6,415.715A25.512,25.512,0,0,1,324.3,432.28"/>
          <path id="Path_133" data-name="Path 133" class="cls-14" d="M297.472,396.431a25.479,25.479,0,0,1,48.271,14.908"/>
          <line id="Line_2" data-name="Line 2" class="cls-17" y1="0.315" x2="0.292" transform="translate(335.917 397.569)"/>
          <line id="Line_3" data-name="Line 3" class="cls-17" y1="2.19" x2="2.032" transform="translate(331.837 400.09)"/>
          <path id="Path_134" data-name="Path 134" class="cls-17" d="M306.931,405.506l9.812,13.043L330.056,404.2"/>
        </g>
      </g>
    </g>
  </g>
</svg>
