<svg xmlns="http://www.w3.org/2000/svg" xmlns:xlink="http://www.w3.org/1999/xlink" width="408.486" height="424.375" viewBox="0 0 408.486 424.375">
  <defs>
    <style>
      .cls-1 {
        fill: #c6ff00;
      }

      .cls-1, .cls-12, .cls-15, .cls-2, .cls-20, .cls-21, .cls-3, .cls-7, .cls-8 {
        stroke: #263238;
      }

      .cls-1, .cls-11, .cls-12, .cls-15, .cls-18, .cls-19, .cls-2, .cls-20, .cls-21, .cls-3, .cls-7, .cls-8 {
        stroke-linecap: round;
      }

      .cls-1, .cls-15, .cls-18, .cls-19, .cls-2, .cls-20, .cls-21 {
        stroke-linejoin: round;
      }

      .cls-16, .cls-2, .cls-7 {
        fill: #263238;
      }

      .cls-20, .cls-22, .cls-25, .cls-3, .cls-5 {
        fill: #fff;
      }

      .cls-11, .cls-12, .cls-3, .cls-7, .cls-8 {
        stroke-miterlimit: 10;
      }

      .cls-24, .cls-4, .cls-8, .cls-9 {
        fill: #3343e0;
      }

      .cls-24, .cls-27, .cls-5 {
        opacity: 0.7;
      }

      .cls-10, .cls-6 {
        opacity: 0.3;
      }

      .cls-14, .cls-25, .cls-9 {
        opacity: 0.5;
      }

      .cls-11, .cls-12, .cls-15, .cls-18, .cls-19, .cls-21 {
        fill: none;
      }

      .cls-11 {
        stroke: #000;
      }

      .cls-13 {
        clip-path: url(#clip-path);
      }

      .cls-17 {
        clip-path: url(#clip-path-2);
      }

      .cls-18, .cls-19 {
        stroke: #fff;
      }

      .cls-18 {
        opacity: 0.26;
      }

      .cls-21 {
        stroke-width: 0.5px;
      }

      .cls-23 {
        clip-path: url(#clip-path-3);
      }

      .cls-26 {
        clip-path: url(#clip-path-4);
      }

      .cls-27 {
        clip-path: url(#clip-path-5);
      }
    </style>
    <clipPath id="clip-path">
      <path id="Path_417" data-name="Path 417" class="cls-1" d="M79.743,296.786s-1.354,28.3-1.2,36.142.34,10.77,4.232,11.462,18.891,2.21,23.1.686,5.492-2.856,6.891-5.182,8.017-33.566,9.517-42.343S129.8,195.272,129.8,195.272s.233-1.988-3.77-3.761c-3.341-1.479-19.463-2.181-24.693-2.372a5.5,5.5,0,0,0-5.544,4.047c-.011.04-.021.08-.031.121C94.754,197.34,79.743,296.786,79.743,296.786Z" transform="translate(-78.527 -189.136)"/>
    </clipPath>
    <clipPath id="clip-path-2">
      <path id="Path_423" data-name="Path 423" class="cls-2" d="M110.424,290.458c-4.689.044-24.887-2.141-28.011-2.8a26.249,26.249,0,0,1-2.638-.7l-.032.211s-1.354,28.3-1.2,36.142.34,10.77,4.232,11.462,18.891,2.21,23.1.686,5.492-2.856,6.891-5.182c1.361-2.264,7.662-31.9,9.384-41.581C118.186,290.744,114.286,290.421,110.424,290.458Z" transform="translate(-78.527 -286.955)"/>
    </clipPath>
    <clipPath id="clip-path-3">
      <path id="Path_456" data-name="Path 456" class="cls-3" d="M369.862,469.335l-54.389-94.017s-6.087-42.715-19.055-59.9-31.156-29.734-20.6-38.518,37.349-25.585,42.855-24.513,42.467,19.721,52.909,22.787,14.1,7.463,12.545,16.5-2.219,72.253.882,80.985,37.41,70.939,37.41,70.939" transform="translate(-272.653 -252.336)"/>
    </clipPath>
    <clipPath id="clip-path-4">
      <path id="Path_470" data-name="Path 470" class="cls-3" d="M340.733,309.031s-12.452,2.924-18.017,1.6-16.939-17.307-24.742-22.569-12.565-6.51-20.737-7.744-13.814,2.717-12.06,10.188,11.24,16.543,18.165,22.537,13.541,16.265,17.651,28.176,6.682,22.867,15.816,34.912,20.541,16.986,24.379,17.661" transform="translate(-264.856 -280.097)"/>
    </clipPath>
    <clipPath id="clip-path-5">
      <path id="Path_480" data-name="Path 480" class="cls-3" d="M385.264,290.99l1.5-4.817c1.5-4.818.357-11.908-3.742-15.938s-18.64-11.127-22.93-14.85-36.165-26.456-41.893-25.111-12.485,9.5-18.258,14.008-26.493,21.461-26.493,21.461-14.548,6.306-13.846,9.294,3.687,6.754,12.813,6.451,24.334-9.391,26.648-10.723,16.66-10.743,16.66-10.743a50.373,50.373,0,0,0,12.651,9.117c6.78,3.138,7.645,3.46,7.645,3.46s1.768,6.417,6.747,9.715" transform="translate(-259.574 -230.217)"/>
    </clipPath>
  </defs>
  <g id="ser-1" transform="translate(-69.052 -64.15)">
    <g id="Background_Simple" data-name="Background Simple" transform="translate(69.052 87.448)">
      <g id="Group_71" data-name="Group 71">
        <path id="Path_344" data-name="Path 344" class="cls-4" d="M408.051,242.754s3.812-12.9,16.743-40.213c17.693-37.366-7.741-79.369-58.154-101.274-59.09-25.675-135.108-16.11-189.9-.418-45.324,12.98-64.044,46.875-72.2,80.664-4.133,17.113-4.918,34.629-7.525,51.979-3.475,23.132-11.05,46.628-17.684,69.286-8.015,27.372-15.959,58.276-4.646,87.822,34.846,91.011,226.349,94.936,301.715,52.82,42.6-23.805,58.3-58.8,43.913-99.65C409.66,313.55,399.309,272.258,408.051,242.754Z" transform="translate(-69.052 -85.362)"/>
        <path id="Path_345" data-name="Path 345" class="cls-5" d="M408.051,242.754s3.812-12.9,16.743-40.213c17.693-37.366-7.741-79.369-58.154-101.274-59.09-25.675-135.108-16.11-189.9-.418-45.324,12.98-64.044,46.875-72.2,80.664-4.133,17.113-4.918,34.629-7.525,51.979-3.475,23.132-11.05,46.628-17.684,69.286-8.015,27.372-15.959,58.276-4.646,87.822,34.846,91.011,226.349,94.936,301.715,52.82,42.6-23.805,58.3-58.8,43.913-99.65C409.66,313.55,399.309,272.258,408.051,242.754Z" transform="translate(-69.052 -85.362)"/>
      </g>
    </g>
    <g id="Notebook" transform="translate(135.664 143.917)">
      <g id="Group_106" data-name="Group 106" transform="translate(0 0)">
        <path id="Path_346" data-name="Path 346" class="cls-6" d="M351.225,158.095a1.047,1.047,0,1,0-.322-2.069l-4.166.649-.124-.8,4.167-.648a1.047,1.047,0,0,0-.322-2.068l-4.167.648-.892-5.734-12.5-11.3L169.168,437.7l12.544,8.472,205.109-31.92-2.291-14.721,4.167-.648a1.047,1.047,0,1,0-.322-2.068l-4.167.648-.123-.8,4.166-.649a1.047,1.047,0,0,0-.322-2.068l-4.166.649-1.2-7.741,4.166-.648a1.047,1.047,0,1,0-.322-2.068l-4.166.648-.124-.8,4.166-.649a1.047,1.047,0,1,0-.322-2.068l-4.166.648-1.2-7.74,4.167-.648a1.047,1.047,0,0,0-.322-2.069l-4.167.649-.124-.8,4.167-.648a1.047,1.047,0,0,0-.322-2.068l-4.167.648-1.2-7.74,4.166-.648a1.047,1.047,0,0,0-.322-2.069l-4.166.649-.124-.8,4.166-.648a1.047,1.047,0,1,0-.322-2.068l-4.166.648-1.2-7.74,4.166-.649a1.047,1.047,0,1,0-.322-2.068l-4.166.648-.124-.8,4.167-.648a1.047,1.047,0,0,0-.322-2.069l-4.167.649-1.2-7.741,4.167-.648a1.047,1.047,0,0,0-.322-2.068l-4.167.648-.123-.8,4.166-.649a1.047,1.047,0,0,0-.322-2.068l-4.166.649-1.2-7.741,4.166-.648a1.047,1.047,0,1,0-.322-2.068l-4.166.648-.124-.8,4.166-.649a1.047,1.047,0,1,0-.322-2.068l-4.166.648-1.2-7.74,4.167-.648a1.047,1.047,0,1,0-.322-2.068l-4.167.648-.124-.8,4.167-.649a1.047,1.047,0,0,0-.322-2.068l-4.167.648-1.2-7.74,4.166-.648a1.047,1.047,0,0,0-.322-2.069l-4.166.649-.124-.8,4.166-.648a1.047,1.047,0,1,0-.322-2.068l-4.166.648-1.2-7.74,4.166-.649a1.047,1.047,0,1,0-.322-2.068l-4.166.648-.124-.8,4.167-.648a1.047,1.047,0,0,0-.322-2.068l-4.167.648-1.2-7.74,4.167-.649a1.047,1.047,0,1,0-.322-2.068l-4.167.648-.123-.8,4.166-.648a1.047,1.047,0,0,0-.322-2.069l-4.166.649-1.2-7.74,4.166-.649a1.047,1.047,0,1,0-.322-2.068l-4.166.648-.124-.8,4.166-.649a1.047,1.047,0,1,0-.322-2.068l-4.166.649-1.2-7.741,4.167-.648a1.047,1.047,0,1,0-.322-2.068l-4.167.648-.124-.8,4.167-.649a1.047,1.047,0,0,0-.322-2.068l-4.167.648-1.2-7.74,4.166-.648a1.047,1.047,0,1,0-.322-2.068l-4.166.648-.124-.8,4.166-.648a1.047,1.047,0,1,0-.322-2.068l-4.166.648-1.2-7.74,4.166-.648a1.047,1.047,0,1,0-.322-2.069l-4.166.649-.124-.8,4.167-.648a1.047,1.047,0,0,0-.322-2.068l-4.167.648-1.2-7.74,4.167-.649a1.047,1.047,0,1,0-.322-2.068l-4.167.648-.123-.8,4.166-.648a1.047,1.047,0,0,0-.322-2.069l-4.166.649-1.2-7.74,4.166-.649a1.047,1.047,0,0,0-.322-2.068l-4.166.648-.124-.8,4.166-.648a1.047,1.047,0,1,0-.322-2.069l-4.166.649-1.2-7.741,4.167-.648a1.047,1.047,0,1,0-.322-2.068l-4.167.648-.124-.8,4.167-.649a1.047,1.047,0,0,0-.322-2.068l-4.167.648-1.2-7.74,4.166-.648a1.047,1.047,0,1,0-.322-2.068l-4.166.648-.124-.8,4.166-.649a1.047,1.047,0,1,0-.322-2.068l-4.166.648-1.2-7.74Z" transform="translate(-125.818 -136.775)"/>
        <g id="Group_104" data-name="Group 104">
          <path id="Path_347" data-name="Path 347" class="cls-7" d="M179.675,440.467l190.181-29.6L327.407,138.1,137.226,167.7a8.894,8.894,0,0,0-7.419,10.154L169.52,433.047A8.894,8.894,0,0,0,179.675,440.467Z" transform="translate(-129.7 -136.644)"/>
          <g id="Group_72" data-name="Group 72" transform="translate(20.246 168.481)">
            <path id="Rectangle_52" data-name="Rectangle 52" class="cls-3" d="M0,0H11.226a2.65,2.65,0,0,1,2.65,2.65V28a2.65,2.65,0,0,1-2.65,2.65H0a0,0,0,0,1,0,0V0A0,0,0,0,1,0,0Z" transform="translate(33.286 125.788) rotate(171.155)"/>
            <path id="Rectangle_53" data-name="Rectangle 53" class="cls-8" d="M0,0H11.226a2.65,2.65,0,0,1,2.65,2.65V28a2.65,2.65,0,0,1-2.65,2.65H0a0,0,0,0,1,0,0V0A0,0,0,0,1,0,0Z" transform="matrix(-0.988, 0.154, -0.154, -0.988, 28.332, 93.953)"/>
            <path id="Rectangle_54" data-name="Rectangle 54" class="cls-3" d="M0,0H11.226a2.65,2.65,0,0,1,2.65,2.65V28a2.65,2.65,0,0,1-2.65,2.65H0a0,0,0,0,1,0,0V0A0,0,0,0,1,0,0Z" transform="translate(23.378 62.118) rotate(171.155)"/>
            <path id="Rectangle_55" data-name="Rectangle 55" class="cls-8" d="M0,0H11.226a2.65,2.65,0,0,1,2.65,2.65V28a2.65,2.65,0,0,1-2.65,2.65H0a0,0,0,0,1,0,0V0A0,0,0,0,1,0,0Z" transform="translate(18.424 30.284) rotate(171.154)"/>
          </g>
          <path id="Path_348" data-name="Path 348" class="cls-3" d="M147.142,275.107l6.493-1.01L137.083,167.739l198.968-30.964L378.5,409.542,179.532,440.506,158.348,304.38l-6.494,1.01a2.911,2.911,0,0,1-3.324-2.428l-3.817-24.531A2.909,2.909,0,0,1,147.142,275.107Z" transform="translate(-128.974 -136.775)"/>
          <path id="Path_349" data-name="Path 349" class="cls-9" d="M165.612,218.743l.652,14.9,74.257-12.112-1.942-12.481Z" transform="translate(-126.168 -129.667)"/>
          <g id="Group_93" data-name="Group 93" transform="translate(195.97 11.62)">
            <g id="Group_73" data-name="Group 73">
              <path id="Path_350" data-name="Path 350" class="cls-7" d="M308.17,152.4a3.888,3.888,0,1,0,3.243-4.438A3.889,3.889,0,0,0,308.17,152.4Z" transform="translate(-308.124 -147.3)"/>
              <path id="Path_351" data-name="Path 351" class="cls-3" d="M312.139,151.243l11.615-1.807a1.048,1.048,0,0,0,.873-1.2h0a1.046,1.046,0,0,0-1.2-.873l-11.615,1.808a1.046,1.046,0,0,0-.873,1.2h0A1.046,1.046,0,0,0,312.139,151.243Z" transform="translate(-307.847 -147.355)"/>
              <path id="Path_352" data-name="Path 352" class="cls-3" d="M312.545,153.851l11.615-1.808a1.046,1.046,0,0,0,.873-1.195h0a1.046,1.046,0,0,0-1.2-.873l-11.615,1.808a1.046,1.046,0,0,0-.873,1.195h0A1.046,1.046,0,0,0,312.545,153.851Z" transform="translate(-307.807 -147.098)"/>
            </g>
            <g id="Group_74" data-name="Group 74" transform="translate(1.972 12.673)">
              <path id="Path_353" data-name="Path 353" class="cls-7" d="M309.966,163.935a3.888,3.888,0,1,0,3.243-4.44A3.887,3.887,0,0,0,309.966,163.935Z" transform="translate(-309.919 -158.838)"/>
              <path id="Path_354" data-name="Path 354" class="cls-3" d="M313.935,162.782l11.615-1.808a1.046,1.046,0,0,0,.873-1.195h0a1.048,1.048,0,0,0-1.195-.874l-11.615,1.808a1.046,1.046,0,0,0-.873,1.195h0A1.047,1.047,0,0,0,313.935,162.782Z" transform="translate(-309.643 -158.893)"/>
              <path id="Path_355" data-name="Path 355" class="cls-3" d="M314.341,165.389l11.615-1.808a1.046,1.046,0,0,0,.873-1.195h0a1.046,1.046,0,0,0-1.195-.873l-11.616,1.808a1.046,1.046,0,0,0-.873,1.195h0A1.047,1.047,0,0,0,314.341,165.389Z" transform="translate(-309.603 -158.636)"/>
            </g>
            <g id="Group_75" data-name="Group 75" transform="translate(3.944 25.346)">
              <path id="Path_356" data-name="Path 356" class="cls-7" d="M311.761,175.473a3.888,3.888,0,1,0,3.245-4.439A3.889,3.889,0,0,0,311.761,175.473Z" transform="translate(-311.715 -170.377)"/>
              <path id="Path_357" data-name="Path 357" class="cls-3" d="M315.73,174.32l11.616-1.808a1.047,1.047,0,0,0,.873-1.195h0a1.047,1.047,0,0,0-1.2-.873l-11.616,1.807a1.048,1.048,0,0,0-.873,1.2h0A1.046,1.046,0,0,0,315.73,174.32Z" transform="translate(-311.438 -170.431)"/>
              <path id="Path_358" data-name="Path 358" class="cls-3" d="M316.136,176.927l11.615-1.807a1.048,1.048,0,0,0,.873-1.2h0a1.046,1.046,0,0,0-1.2-.873l-11.615,1.808a1.046,1.046,0,0,0-.873,1.195h0A1.046,1.046,0,0,0,316.136,176.927Z" transform="translate(-311.398 -170.175)"/>
            </g>
            <g id="Group_76" data-name="Group 76" transform="translate(5.917 38.019)">
              <path id="Path_359" data-name="Path 359" class="cls-7" d="M313.557,187.011a3.888,3.888,0,1,0,3.243-4.439A3.887,3.887,0,0,0,313.557,187.011Z" transform="translate(-313.51 -181.915)"/>
              <path id="Path_360" data-name="Path 360" class="cls-3" d="M317.526,185.858l11.615-1.808a1.047,1.047,0,0,0,.873-1.195h0a1.047,1.047,0,0,0-1.2-.873L317.2,183.79a1.046,1.046,0,0,0-.873,1.195h0A1.046,1.046,0,0,0,317.526,185.858Z" transform="translate(-313.234 -181.969)"/>
              <path id="Path_361" data-name="Path 361" class="cls-3" d="M317.932,188.466l11.615-1.808a1.047,1.047,0,0,0,.873-1.2h0a1.047,1.047,0,0,0-1.2-.873L317.61,186.4a1.046,1.046,0,0,0-.873,1.2h0A1.048,1.048,0,0,0,317.932,188.466Z" transform="translate(-313.194 -181.713)"/>
            </g>
            <g id="Group_77" data-name="Group 77" transform="translate(7.889 50.692)">
              <path id="Path_362" data-name="Path 362" class="cls-7" d="M315.353,198.549a3.888,3.888,0,1,0,3.243-4.439A3.886,3.886,0,0,0,315.353,198.549Z" transform="translate(-315.306 -193.453)"/>
              <path id="Path_363" data-name="Path 363" class="cls-3" d="M319.322,197.4l11.615-1.808a1.046,1.046,0,0,0,.873-1.195h0a1.047,1.047,0,0,0-1.2-.873L319,195.328a1.047,1.047,0,0,0-.873,1.2h0A1.047,1.047,0,0,0,319.322,197.4Z" transform="translate(-315.03 -193.507)"/>
              <path id="Path_364" data-name="Path 364" class="cls-3" d="M319.727,200l11.616-1.808a1.046,1.046,0,0,0,.873-1.195h0a1.046,1.046,0,0,0-1.195-.873l-11.616,1.807a1.047,1.047,0,0,0-.873,1.195h0A1.046,1.046,0,0,0,319.727,200Z" transform="translate(-314.99 -193.251)"/>
            </g>
            <g id="Group_78" data-name="Group 78" transform="translate(9.861 63.364)">
              <path id="Path_365" data-name="Path 365" class="cls-7" d="M317.148,210.087a3.888,3.888,0,1,0,3.243-4.439A3.889,3.889,0,0,0,317.148,210.087Z" transform="translate(-317.102 -204.991)"/>
              <path id="Path_366" data-name="Path 366" class="cls-3" d="M321.117,208.934l11.615-1.808a1.047,1.047,0,0,0,.873-1.195h0a1.046,1.046,0,0,0-1.2-.873L320.8,206.866a1.046,1.046,0,0,0-.873,1.195h0A1.046,1.046,0,0,0,321.117,208.934Z" transform="translate(-316.825 -205.046)"/>
              <path id="Path_367" data-name="Path 367" class="cls-3" d="M321.523,211.542l11.615-1.808a1.046,1.046,0,0,0,.873-1.195h0a1.046,1.046,0,0,0-1.2-.873L321.2,209.473a1.048,1.048,0,0,0-.873,1.2h0A1.046,1.046,0,0,0,321.523,211.542Z" transform="translate(-316.785 -204.789)"/>
            </g>
            <g id="Group_79" data-name="Group 79" transform="translate(11.833 76.037)">
              <path id="Path_368" data-name="Path 368" class="cls-7" d="M318.944,221.626a3.888,3.888,0,1,0,3.243-4.439A3.888,3.888,0,0,0,318.944,221.626Z" transform="translate(-318.897 -216.529)"/>
              <path id="Path_369" data-name="Path 369" class="cls-3" d="M322.913,220.472l11.615-1.807a1.047,1.047,0,0,0,.873-1.195h0a1.046,1.046,0,0,0-1.195-.874L322.591,218.4a1.046,1.046,0,0,0-.873,1.195h0A1.046,1.046,0,0,0,322.913,220.472Z" transform="translate(-318.621 -216.584)"/>
              <path id="Path_370" data-name="Path 370" class="cls-3" d="M323.319,223.08l11.615-1.808a1.046,1.046,0,0,0,.873-1.195h0a1.046,1.046,0,0,0-1.195-.873L323,221.012a1.046,1.046,0,0,0-.873,1.2h0A1.047,1.047,0,0,0,323.319,223.08Z" transform="translate(-318.581 -216.327)"/>
            </g>
            <g id="Group_80" data-name="Group 80" transform="translate(13.805 88.711)">
              <path id="Path_371" data-name="Path 371" class="cls-7" d="M320.739,233.164a3.888,3.888,0,1,0,3.245-4.439A3.889,3.889,0,0,0,320.739,233.164Z" transform="translate(-320.693 -228.068)"/>
              <path id="Path_372" data-name="Path 372" class="cls-3" d="M324.708,232.011l11.616-1.808a1.046,1.046,0,0,0,.873-1.195h0a1.046,1.046,0,0,0-1.2-.873l-11.616,1.807a1.047,1.047,0,0,0-.873,1.2h0A1.048,1.048,0,0,0,324.708,232.011Z" transform="translate(-320.416 -228.122)"/>
              <path id="Path_373" data-name="Path 373" class="cls-3" d="M325.114,234.618l11.615-1.808a1.046,1.046,0,0,0,.873-1.195h0a1.046,1.046,0,0,0-1.2-.873l-11.615,1.808a1.046,1.046,0,0,0-.873,1.2h0A1.047,1.047,0,0,0,325.114,234.618Z" transform="translate(-320.376 -227.866)"/>
            </g>
            <g id="Group_81" data-name="Group 81" transform="translate(15.777 101.384)">
              <path id="Path_374" data-name="Path 374" class="cls-7" d="M322.535,244.7a3.888,3.888,0,1,0,3.243-4.44A3.888,3.888,0,0,0,322.535,244.7Z" transform="translate(-322.488 -239.606)"/>
              <path id="Path_375" data-name="Path 375" class="cls-3" d="M326.5,243.549l11.615-1.808a1.046,1.046,0,0,0,.873-1.195h0a1.046,1.046,0,0,0-1.195-.873l-11.615,1.808a1.046,1.046,0,0,0-.873,1.2h0A1.046,1.046,0,0,0,326.5,243.549Z" transform="translate(-322.212 -239.66)"/>
              <path id="Path_376" data-name="Path 376" class="cls-3" d="M326.91,246.156l11.615-1.807a1.047,1.047,0,0,0,.873-1.2h0a1.046,1.046,0,0,0-1.195-.873l-11.615,1.808a1.046,1.046,0,0,0-.873,1.2h0A1.046,1.046,0,0,0,326.91,246.156Z" transform="translate(-322.172 -239.404)"/>
            </g>
            <g id="Group_82" data-name="Group 82" transform="translate(17.75 114.056)">
              <path id="Path_377" data-name="Path 377" class="cls-7" d="M324.331,256.24a3.888,3.888,0,1,0,3.243-4.439A3.886,3.886,0,0,0,324.331,256.24Z" transform="translate(-324.284 -251.144)"/>
              <path id="Path_378" data-name="Path 378" class="cls-3" d="M328.3,255.087l11.615-1.808a1.047,1.047,0,0,0,.873-1.2h0a1.046,1.046,0,0,0-1.2-.873l-11.616,1.808a1.046,1.046,0,0,0-.873,1.2h0A1.047,1.047,0,0,0,328.3,255.087Z" transform="translate(-324.008 -251.199)"/>
              <path id="Path_379" data-name="Path 379" class="cls-3" d="M328.705,257.694l11.616-1.807a1.046,1.046,0,0,0,.873-1.2h0a1.048,1.048,0,0,0-1.195-.874l-11.616,1.808a1.046,1.046,0,0,0-.873,1.195h0A1.046,1.046,0,0,0,328.705,257.694Z" transform="translate(-323.968 -250.942)"/>
            </g>
            <g id="Group_83" data-name="Group 83" transform="translate(19.722 126.729)">
              <path id="Path_380" data-name="Path 380" class="cls-7" d="M326.126,267.778a3.888,3.888,0,1,0,3.243-4.439A3.887,3.887,0,0,0,326.126,267.778Z" transform="translate(-326.079 -262.682)"/>
              <path id="Path_381" data-name="Path 381" class="cls-3" d="M330.1,266.625l11.615-1.808a1.047,1.047,0,0,0,.873-1.2h0a1.046,1.046,0,0,0-1.195-.873l-11.615,1.808a1.046,1.046,0,0,0-.873,1.195h0A1.047,1.047,0,0,0,330.1,266.625Z" transform="translate(-325.803 -262.736)"/>
              <path id="Path_382" data-name="Path 382" class="cls-3" d="M330.5,269.233l11.615-1.808a1.047,1.047,0,0,0,.873-1.2h0a1.047,1.047,0,0,0-1.2-.873l-11.615,1.808a1.046,1.046,0,0,0-.873,1.195h0A1.047,1.047,0,0,0,330.5,269.233Z" transform="translate(-325.763 -262.48)"/>
            </g>
            <g id="Group_84" data-name="Group 84" transform="translate(21.694 139.402)">
              <path id="Path_383" data-name="Path 383" class="cls-7" d="M327.922,279.316a3.888,3.888,0,1,0,3.243-4.439A3.888,3.888,0,0,0,327.922,279.316Z" transform="translate(-327.875 -274.22)"/>
              <path id="Path_384" data-name="Path 384" class="cls-3" d="M331.891,278.163l11.615-1.807a1.048,1.048,0,0,0,.873-1.2h0a1.046,1.046,0,0,0-1.2-.873l-11.615,1.808a1.047,1.047,0,0,0-.873,1.195h0A1.046,1.046,0,0,0,331.891,278.163Z" transform="translate(-327.599 -274.274)"/>
              <path id="Path_385" data-name="Path 385" class="cls-3" d="M332.3,280.771l11.615-1.808a1.046,1.046,0,0,0,.873-1.2h0a1.046,1.046,0,0,0-1.195-.873L331.974,278.7a1.046,1.046,0,0,0-.873,1.195h0A1.047,1.047,0,0,0,332.3,280.771Z" transform="translate(-327.559 -274.018)"/>
            </g>
            <g id="Group_85" data-name="Group 85" transform="translate(23.666 152.075)">
              <path id="Path_386" data-name="Path 386" class="cls-7" d="M329.717,290.855a3.888,3.888,0,1,0,3.245-4.439A3.889,3.889,0,0,0,329.717,290.855Z" transform="translate(-329.671 -285.759)"/>
              <path id="Path_387" data-name="Path 387" class="cls-3" d="M333.686,289.7l11.616-1.807a1.046,1.046,0,0,0,.873-1.2h0a1.046,1.046,0,0,0-1.2-.873l-11.616,1.807a1.047,1.047,0,0,0-.873,1.2h0A1.047,1.047,0,0,0,333.686,289.7Z" transform="translate(-329.394 -285.813)"/>
              <path id="Path_388" data-name="Path 388" class="cls-3" d="M334.092,292.309l11.615-1.808a1.046,1.046,0,0,0,.873-1.2h0a1.046,1.046,0,0,0-1.2-.873l-11.615,1.808a1.046,1.046,0,0,0-.873,1.195h0A1.046,1.046,0,0,0,334.092,292.309Z" transform="translate(-329.354 -285.557)"/>
            </g>
            <g id="Group_86" data-name="Group 86" transform="translate(25.638 164.748)">
              <path id="Path_389" data-name="Path 389" class="cls-7" d="M331.513,302.393a3.888,3.888,0,1,0,3.243-4.44A3.888,3.888,0,0,0,331.513,302.393Z" transform="translate(-331.466 -297.297)"/>
              <path id="Path_390" data-name="Path 390" class="cls-3" d="M335.482,301.24l11.615-1.808a1.046,1.046,0,0,0,.873-1.2h0a1.046,1.046,0,0,0-1.195-.873l-11.615,1.807a1.047,1.047,0,0,0-.873,1.2h0A1.046,1.046,0,0,0,335.482,301.24Z" transform="translate(-331.19 -297.352)"/>
              <path id="Path_391" data-name="Path 391" class="cls-3" d="M335.888,303.847l11.615-1.808a1.046,1.046,0,0,0,.873-1.195h0a1.046,1.046,0,0,0-1.195-.873l-11.615,1.808a1.047,1.047,0,0,0-.873,1.2h0A1.046,1.046,0,0,0,335.888,303.847Z" transform="translate(-331.15 -297.095)"/>
            </g>
            <g id="Group_87" data-name="Group 87" transform="translate(27.611 177.421)">
              <path id="Path_392" data-name="Path 392" class="cls-7" d="M333.309,313.931a3.888,3.888,0,1,0,3.243-4.439A3.886,3.886,0,0,0,333.309,313.931Z" transform="translate(-333.262 -308.835)"/>
              <path id="Path_393" data-name="Path 393" class="cls-3" d="M337.278,312.778l11.615-1.808a1.046,1.046,0,0,0,.873-1.195h0a1.046,1.046,0,0,0-1.2-.873l-11.616,1.808a1.046,1.046,0,0,0-.873,1.2h0A1.047,1.047,0,0,0,337.278,312.778Z" transform="translate(-332.986 -308.889)"/>
              <path id="Path_394" data-name="Path 394" class="cls-3" d="M337.683,315.385l11.616-1.807a1.046,1.046,0,0,0,.873-1.2h0a1.046,1.046,0,0,0-1.2-.874l-11.616,1.808a1.047,1.047,0,0,0-.873,1.2h0A1.046,1.046,0,0,0,337.683,315.385Z" transform="translate(-332.946 -308.633)"/>
            </g>
            <g id="Group_88" data-name="Group 88" transform="translate(29.583 190.093)">
              <path id="Path_395" data-name="Path 395" class="cls-7" d="M335.1,325.469a3.888,3.888,0,1,0,3.243-4.439A3.887,3.887,0,0,0,335.1,325.469Z" transform="translate(-335.057 -320.373)"/>
              <path id="Path_396" data-name="Path 396" class="cls-3" d="M339.073,324.316l11.615-1.808a1.046,1.046,0,0,0,.873-1.195h0a1.046,1.046,0,0,0-1.195-.873l-11.615,1.808a1.046,1.046,0,0,0-.873,1.2h0A1.046,1.046,0,0,0,339.073,324.316Z" transform="translate(-334.781 -320.427)"/>
              <path id="Path_397" data-name="Path 397" class="cls-3" d="M339.479,326.924l11.615-1.808a1.046,1.046,0,0,0,.873-1.195h0a1.046,1.046,0,0,0-1.195-.873l-11.615,1.807a1.048,1.048,0,0,0-.873,1.2h0A1.046,1.046,0,0,0,339.479,326.924Z" transform="translate(-334.741 -320.171)"/>
            </g>
            <g id="Group_89" data-name="Group 89" transform="translate(31.555 202.766)">
              <path id="Path_398" data-name="Path 398" class="cls-7" d="M336.9,337.007a3.888,3.888,0,1,0,3.243-4.44A3.888,3.888,0,0,0,336.9,337.007Z" transform="translate(-336.853 -331.911)"/>
              <path id="Path_399" data-name="Path 399" class="cls-3" d="M340.869,335.854l11.615-1.807a1.048,1.048,0,0,0,.873-1.2h0a1.047,1.047,0,0,0-1.2-.873l-11.615,1.808a1.047,1.047,0,0,0-.873,1.2h0A1.046,1.046,0,0,0,340.869,335.854Z" transform="translate(-336.577 -331.965)"/>
              <path id="Path_400" data-name="Path 400" class="cls-3" d="M341.275,338.462l11.615-1.808a1.046,1.046,0,0,0,.873-1.195h0a1.046,1.046,0,0,0-1.195-.873l-11.616,1.807a1.048,1.048,0,0,0-.873,1.2h0A1.047,1.047,0,0,0,341.275,338.462Z" transform="translate(-336.537 -331.709)"/>
            </g>
            <g id="Group_90" data-name="Group 90" transform="translate(33.527 215.439)">
              <path id="Path_401" data-name="Path 401" class="cls-7" d="M338.7,348.546a3.888,3.888,0,1,0,3.244-4.44A3.889,3.889,0,0,0,338.7,348.546Z" transform="translate(-338.649 -343.449)"/>
              <path id="Path_402" data-name="Path 402" class="cls-3" d="M342.664,347.392l11.616-1.807a1.047,1.047,0,0,0,.873-1.2h0a1.047,1.047,0,0,0-1.2-.873l-11.615,1.808a1.046,1.046,0,0,0-.873,1.195h0A1.047,1.047,0,0,0,342.664,347.392Z" transform="translate(-338.372 -343.503)"/>
              <path id="Path_403" data-name="Path 403" class="cls-3" d="M343.07,350l11.615-1.808a1.047,1.047,0,0,0,.873-1.2h0a1.046,1.046,0,0,0-1.2-.873l-11.615,1.808a1.046,1.046,0,0,0-.873,1.195h0A1.046,1.046,0,0,0,343.07,350Z" transform="translate(-338.332 -343.247)"/>
            </g>
            <g id="Group_91" data-name="Group 91" transform="translate(35.499 228.113)">
              <path id="Path_404" data-name="Path 404" class="cls-7" d="M340.491,360.084a3.888,3.888,0,1,0,3.243-4.439A3.888,3.888,0,0,0,340.491,360.084Z" transform="translate(-340.444 -354.988)"/>
              <path id="Path_405" data-name="Path 405" class="cls-3" d="M344.46,358.931l11.615-1.808a1.046,1.046,0,0,0,.873-1.2h0a1.046,1.046,0,0,0-1.195-.873l-11.615,1.807a1.047,1.047,0,0,0-.873,1.2h0A1.046,1.046,0,0,0,344.46,358.931Z" transform="translate(-340.168 -355.042)"/>
              <path id="Path_406" data-name="Path 406" class="cls-3" d="M344.866,361.538l11.615-1.808a1.046,1.046,0,0,0,.873-1.2h0a1.046,1.046,0,0,0-1.195-.873l-11.615,1.808a1.046,1.046,0,0,0-.873,1.195h0A1.046,1.046,0,0,0,344.866,361.538Z" transform="translate(-340.128 -354.786)"/>
            </g>
            <g id="Group_92" data-name="Group 92" transform="translate(37.471 240.785)">
              <path id="Path_407" data-name="Path 407" class="cls-7" d="M342.286,371.622a3.888,3.888,0,1,0,3.244-4.44A3.889,3.889,0,0,0,342.286,371.622Z" transform="translate(-342.24 -366.526)"/>
              <path id="Path_408" data-name="Path 408" class="cls-3" d="M346.256,370.469l11.615-1.808a1.046,1.046,0,0,0,.873-1.2h0a1.046,1.046,0,0,0-1.2-.873L345.933,368.4a1.048,1.048,0,0,0-.873,1.2h0A1.047,1.047,0,0,0,346.256,370.469Z" transform="translate(-341.963 -366.58)"/>
              <path id="Path_409" data-name="Path 409" class="cls-3" d="M346.661,373.076l11.616-1.807a1.048,1.048,0,0,0,.873-1.2h0a1.047,1.047,0,0,0-1.2-.873l-11.615,1.808a1.046,1.046,0,0,0-.873,1.2h0A1.046,1.046,0,0,0,346.661,373.076Z" transform="translate(-341.923 -366.324)"/>
            </g>
          </g>
          <g id="Group_103" data-name="Group 103" class="cls-10" transform="translate(30.194 32.795)">
            <g id="Group_102" data-name="Group 102" transform="translate(7.562)">
              <g id="Group_99" data-name="Group 99" transform="translate(1.43 8.407)">
                <g id="Group_94" data-name="Group 94" transform="translate(28.235)">
                  <line id="Line_4" data-name="Line 4" class="cls-11" y1="0.449" x2="2.885" transform="translate(0 0.898)"/>
                  <line id="Line_5" data-name="Line 5" class="cls-11" y1="0.449" x2="2.885" transform="translate(5.771)"/>
                </g>
                <g id="Group_95" data-name="Group 95" transform="translate(0 3.975)">
                  <line id="Line_6" data-name="Line 6" class="cls-11" y1="0.449" x2="2.885" transform="translate(0 5.388)"/>
                  <line id="Line_7" data-name="Line 7" class="cls-11" y1="0.449" x2="2.885" transform="translate(5.771 4.49)"/>
                  <line id="Line_8" data-name="Line 8" class="cls-11" y1="0.449" x2="2.885" transform="translate(11.541 3.592)"/>
                  <line id="Line_9" data-name="Line 9" class="cls-11" y1="0.449" x2="2.885" transform="translate(17.312 2.694)"/>
                  <line id="Line_10" data-name="Line 10" class="cls-11" y1="0.449" x2="2.885" transform="translate(23.083 1.796)"/>
                  <line id="Line_11" data-name="Line 11" class="cls-11" y1="0.449" x2="2.885" transform="translate(28.854 0.898)"/>
                  <line id="Line_12" data-name="Line 12" class="cls-11" y1="0.449" x2="2.885" transform="translate(34.625)"/>
                </g>
                <g id="Group_96" data-name="Group 96" transform="translate(0.618 7.949)">
                  <line id="Line_13" data-name="Line 13" class="cls-11" y1="0.449" x2="2.885" transform="translate(0 5.388)"/>
                  <line id="Line_14" data-name="Line 14" class="cls-11" y1="0.449" x2="2.885" transform="translate(5.771 4.49)"/>
                  <line id="Line_15" data-name="Line 15" class="cls-11" y1="0.449" x2="2.885" transform="translate(11.542 3.592)"/>
                  <line id="Line_16" data-name="Line 16" class="cls-11" y1="0.449" x2="2.885" transform="translate(17.312 2.694)"/>
                  <line id="Line_17" data-name="Line 17" class="cls-11" y1="0.449" x2="2.885" transform="translate(23.083 1.796)"/>
                  <line id="Line_18" data-name="Line 18" class="cls-11" y1="0.449" x2="2.885" transform="translate(28.854 0.898)"/>
                  <line id="Line_19" data-name="Line 19" class="cls-11" y1="0.449" x2="2.885" transform="translate(34.625)"/>
                </g>
                <g id="Group_97" data-name="Group 97" transform="translate(1.237 11.924)">
                  <line id="Line_20" data-name="Line 20" class="cls-11" y1="0.449" x2="2.885" transform="translate(0 5.388)"/>
                  <line id="Line_21" data-name="Line 21" class="cls-11" y1="0.449" x2="2.885" transform="translate(5.771 4.49)"/>
                  <line id="Line_22" data-name="Line 22" class="cls-11" y1="0.449" x2="2.885" transform="translate(11.541 3.592)"/>
                  <line id="Line_23" data-name="Line 23" class="cls-11" y1="0.449" x2="2.885" transform="translate(17.312 2.694)"/>
                  <line id="Line_24" data-name="Line 24" class="cls-11" y1="0.449" x2="2.885" transform="translate(23.083 1.796)"/>
                  <line id="Line_25" data-name="Line 25" class="cls-11" y1="0.449" x2="2.885" transform="translate(28.854 0.898)"/>
                  <line id="Line_26" data-name="Line 26" class="cls-11" y1="0.449" x2="2.885" transform="translate(34.625)"/>
                </g>
                <g id="Group_98" data-name="Group 98" transform="translate(1.856 15.898)">
                  <line id="Line_27" data-name="Line 27" class="cls-11" y1="0.449" x2="2.885" transform="translate(0 5.388)"/>
                  <line id="Line_28" data-name="Line 28" class="cls-11" y1="0.449" x2="2.885" transform="translate(5.771 4.49)"/>
                  <line id="Line_29" data-name="Line 29" class="cls-11" y1="0.449" x2="2.885" transform="translate(11.542 3.592)"/>
                  <line id="Line_30" data-name="Line 30" class="cls-11" y1="0.449" x2="2.885" transform="translate(17.312 2.694)"/>
                  <line id="Line_31" data-name="Line 31" class="cls-11" y1="0.449" x2="2.885" transform="translate(23.083 1.796)"/>
                  <line id="Line_32" data-name="Line 32" class="cls-11" y1="0.449" x2="2.885" transform="translate(28.854 0.898)"/>
                  <line id="Line_33" data-name="Line 33" class="cls-11" y1="0.449" x2="2.885" transform="translate(34.625)"/>
                </g>
              </g>
              <g id="Group_101" data-name="Group 101" transform="translate(0 3.19)">
                <g id="Group_100" data-name="Group 100">
                  <line id="Line_34" data-name="Line 34" class="cls-11" y1="0.449" x2="2.885" transform="translate(0 5.388)"/>
                  <line id="Line_35" data-name="Line 35" class="cls-11" y1="0.449" x2="2.885" transform="translate(5.771 4.49)"/>
                  <line id="Line_36" data-name="Line 36" class="cls-11" y1="0.449" x2="2.885" transform="translate(11.541 3.592)"/>
                  <line id="Line_37" data-name="Line 37" class="cls-11" y1="0.449" x2="2.885" transform="translate(17.312 2.694)"/>
                  <line id="Line_38" data-name="Line 38" class="cls-11" y1="0.449" x2="2.885" transform="translate(23.083 1.796)"/>
                  <line id="Line_39" data-name="Line 39" class="cls-11" y1="0.449" x2="2.885" transform="translate(28.854 0.898)"/>
                  <line id="Line_40" data-name="Line 40" class="cls-11" y1="0.449" x2="2.885" transform="translate(34.625)"/>
                </g>
              </g>
              <line id="Line_41" data-name="Line 41" class="cls-11" x1="38.007" y2="5.915" transform="translate(0.1 5.387)"/>
              <line id="Line_42" data-name="Line 42" class="cls-11" y1="2.281" x2="14.656" transform="translate(10.654)"/>
            </g>
            <line id="Line_43" data-name="Line 43" class="cls-11" y1="25.165" x2="161.707" transform="translate(0 18.106)"/>
            <line id="Line_44" data-name="Line 44" class="cls-11" y1="25.165" x2="161.707" transform="translate(2.027 31.129)"/>
            <line id="Line_45" data-name="Line 45" class="cls-11" y1="25.165" x2="161.707" transform="translate(4.054 44.152)"/>
            <line id="Line_46" data-name="Line 46" class="cls-11" y1="25.165" x2="161.707" transform="translate(6.08 57.176)"/>
            <line id="Line_47" data-name="Line 47" class="cls-11" y1="25.165" x2="161.707" transform="translate(8.107 70.199)"/>
            <line id="Line_48" data-name="Line 48" class="cls-11" y1="25.165" x2="161.707" transform="translate(10.134 83.222)"/>
            <line id="Line_49" data-name="Line 49" class="cls-11" y1="25.165" x2="161.707" transform="translate(12.16 96.246)"/>
            <line id="Line_50" data-name="Line 50" class="cls-11" y1="25.165" x2="161.707" transform="translate(14.187 109.269)"/>
            <line id="Line_51" data-name="Line 51" class="cls-11" y1="25.165" x2="161.707" transform="translate(16.214 122.292)"/>
            <line id="Line_52" data-name="Line 52" class="cls-11" y1="25.165" x2="161.707" transform="translate(18.241 135.316)"/>
            <line id="Line_53" data-name="Line 53" class="cls-11" y1="25.165" x2="161.707" transform="translate(20.267 148.339)"/>
            <line id="Line_54" data-name="Line 54" class="cls-11" y1="25.165" x2="161.707" transform="translate(22.294 161.362)"/>
            <line id="Line_55" data-name="Line 55" class="cls-11" y1="25.165" x2="161.707" transform="translate(24.321 174.386)"/>
            <line id="Line_56" data-name="Line 56" class="cls-11" y1="25.165" x2="161.707" transform="translate(29.134 205.316)"/>
            <line id="Line_57" data-name="Line 57" class="cls-11" y1="25.165" x2="161.707" transform="translate(30.739 215.626)"/>
            <line id="Line_58" data-name="Line 58" class="cls-11" y1="25.165" x2="161.707" transform="translate(32.343 225.936)"/>
          </g>
        </g>
        <g id="Group_105" data-name="Group 105" transform="translate(44.959 76.382)">
          <path id="Path_410" data-name="Path 410" class="cls-12" d="M178.938,217.477s-13.8,14.93-5.825,12.577S192,212.109,189.669,218.585s-2.194,10.9,1.556,6.427,5.835-5.354,5.089-3.015,2.339.748,2.339.748,7.632-4.523,6.886-2.184-1.291,2.424.88,2.086l7.055-1.1s-.458.627,6.053-.387,9.056-2.521,12.312-3.027" transform="translate(-170.633 -205.265)"/>
          <path id="Path_411" data-name="Path 411" class="cls-12" d="M172.486,238.957s10.635-6.657,11.974-5.2-.494,3.967,4.3,2.665,9.177-5.318,9.514-3.148,3.426.579,3.426.579l2.713-.422s4.968-.217,6.511-1.014,3.16-8.273,1.966,1.917-5.341,1.387,4.546-2.93,11.734.4,11.734.4a15.365,15.365,0,0,0,3.171-1.05c2.087-.88,3.919-3.388,5.885-1.471s5.462-4.185,5.462-4.185a32.557,32.557,0,0,1,4.052,1.037,9.5,9.5,0,0,0,3.967.494,30.441,30.441,0,0,0,4.969-.217c2.17-.338,4-2.847,5.8-2.014s4.5-6.814,3.135,2.291-10.164,13.253-6.583,7.694a45.514,45.514,0,0,1,11.962-12.421c4-2.847,5.173-2.473,6.053-.387s1.966,1.917,4.052,1.037.29-1.712,2.086-.881a5.226,5.226,0,0,0,3.968.494c1.628-.254-6.006,4.269,1.628-.254s10.356-22.731,6.366-12.662-2.483,12.613,2.859,11.226" transform="translate(-170.451 -206.318)"/>
          <path id="Path_412" data-name="Path 412" class="cls-12" d="M173.541,254.526s13.046-12.59,12.251-14.133-4.969.217-8.007,5.693-.9,8.477,7.271,3.871-3.713,1.134,4.679,1.495,10.889-5.029,11.143-3.4-2.545,1.507,4.052,1.037,3.376-3.3,10.141-2.69,9.768-1.52,9.768-1.52l4.341-.676s-8.766.808,2.629-.965,16.422-15.894,10.924-8.369-2.905,9.9,2.726,6.8l5.631-3.1s7.126-7.778,3.763,2.749-7.344,2.811,5.173-2.472,12.191-.23,16.363-1.99,3.5-6.1,6.258-2.642,2.593,2.376,6.934,1.7,3.172-1.05,6.97-1.641l8.14-1.266" transform="translate(-170.347 -203.726)"/>
          <path id="Path_413" data-name="Path 413" class="cls-12" d="M175.541,289.814s9.092-5.861,10.539-14.422-5.716,2.556-4.944,14.664-3.473-4.463,9.213-8.659-1.121,3.509.3,5.51,11.8-6.283,11.684-3.485,2.22,3.544,8.6-1.895-4.016-4.377-4.51-.41,2.593,2.376,10.479-.518.169,1.085,5.052.325,15.639-10.215,13.517-5.995-.071,6.681,2.3,4.088,7.415-9.491,7.838-6.778a6.541,6.541,0,0,1-.974,4.6" transform="translate(-170.151 -199.896)"/>
        </g>
      </g>
    </g>
    <g id="Highlighter_Pen" data-name="Highlighter Pen" transform="translate(79.459 201.427)">
      <g id="Group_111" data-name="Group 111">
        <path id="Path_414" data-name="Path 414" class="cls-6" d="M133.644,194.484a5.725,5.725,0,0,0-.674-.634,10.2,10.2,0,0,0-2.277-1.336c-.137-.06-.3-.12-.483-.178l-.115-.036c-4.329-1.333-19.124-1.977-24.1-2.158a5.5,5.5,0,0,0-5.543,4.048c-.011.04-.021.079-.031.12-1,4.032-16.016,103.478-16.016,103.478s-.108,2.238-.258,5.63c-.067,1.508-.143,3.243-.221,5.112q-.03.7-.059,1.426c-.04.963-.08,1.955-.121,2.962-.139,3.525-.276,7.236-.379,10.625-.072,2.421-.13,4.677-.157,6.582-.023,1.525-.029,2.824-.009,3.8a57.121,57.121,0,0,0,.379,6.891c.434,2.834,1.42,4.14,3.853,4.572.607.108,1.487.236,2.554.37.214.026.435.054.662.08.911.109,1.931.219,3.018.322q.407.039.827.077c.838.076,1.708.146,2.591.21.589.042,1.183.08,1.778.114s1.192.065,1.783.09c1.183.049,2.346.078,3.448.078a33.739,33.739,0,0,0,4.839-.282h.007c.047-.007.1-.013.143-.021.143-.023.277-.049.409-.076l.055-.01c.158-.033.306-.067.448-.1l.086-.02c.161-.044.314-.091.454-.142q.4-.142.756-.283t.692-.281a13.957,13.957,0,0,0,2.651-1.423,8.736,8.736,0,0,0,.768-.612,8.359,8.359,0,0,0,.654-.656c.1-.114.2-.231.3-.349a13.922,13.922,0,0,0,1.074-1.577l.01-.019a2.467,2.467,0,0,0,.135-.278c.019-.046.042-.112.063-.165.035-.091.07-.177.109-.288.026-.075.056-.168.083-.252.038-.113.075-.22.115-.349.03-.094.063-.208.094-.311.042-.139.083-.275.129-.428.033-.113.069-.243.1-.364.047-.165.093-.326.142-.5.038-.14.08-.293.12-.44.047-.177.094-.35.145-.539.042-.159.086-.331.13-.5.052-.2.1-.4.158-.613.043-.169.088-.349.133-.525.055-.217.109-.433.166-.66.048-.2.1-.4.147-.6.057-.23.113-.459.171-.7.049-.2.1-.416.15-.626.059-.247.119-.493.179-.747.053-.221.107-.447.159-.673.06-.255.121-.509.181-.77.056-.238.112-.481.169-.725.062-.265.122-.528.185-.8l.055-.235c.034-.152.07-.31.105-.462.068-.3.135-.593.2-.9.053-.231.105-.465.158-.7.069-.3.137-.606.206-.914q.081-.364.164-.732l.2-.908c.059-.266.119-.534.178-.8l.191-.868c.062-.278.122-.557.183-.836s.125-.578.189-.867l.086-.4c.034-.154.067-.309.1-.464.062-.283.122-.567.183-.851s.122-.565.182-.847.126-.588.189-.882l.181-.849c.059-.278.118-.556.177-.833q.1-.453.19-.9c.057-.267.112-.532.168-.8l.175-.835c.06-.29.121-.578.18-.865s.115-.552.171-.826c.053-.252.1-.5.155-.75.038-.187.078-.378.116-.562.022-.108.043-.211.065-.317.051-.245.1-.485.148-.727l.167-.82c.049-.241.1-.477.144-.713.057-.281.114-.561.169-.837.038-.193.076-.382.114-.573.043-.212.087-.431.127-.637.016-.082.031-.158.047-.239.037-.189.074-.371.11-.556.053-.269.105-.538.157-.8.036-.189.071-.369.107-.551.048-.249.1-.5.143-.74.032-.164.062-.319.091-.478.048-.248.1-.5.139-.733.025-.131.047-.252.071-.379.045-.241.09-.481.132-.706.023-.125.043-.239.065-.359.038-.213.078-.427.113-.624l.008-.043h0c.047-.267.092-.526.133-.762.188-1.1.446-3.518.753-6.914.116-1.274.238-2.685.367-4.214.471-5.609,1.023-12.817,1.6-20.717q.079-1.077.158-2.171c2.169-29.888,4.638-68.262,4.638-68.262A2.535,2.535,0,0,0,133.644,194.484Z" transform="translate(-78.069 -189.037)"/>
        <g id="Group_108" data-name="Group 108">
          <path id="Path_415" data-name="Path 415" class="cls-4" d="M79.743,296.786s-1.354,28.3-1.2,36.142.34,10.77,4.232,11.462,18.891,2.21,23.1.686,5.492-2.856,6.891-5.182,8.017-33.566,9.517-42.343S129.8,195.272,129.8,195.272s.233-1.988-3.77-3.761c-3.341-1.479-19.463-2.181-24.693-2.372a5.5,5.5,0,0,0-5.544,4.047c-.011.04-.021.08-.031.121C94.754,197.34,79.743,296.786,79.743,296.786Z" transform="translate(-78.527 -189.136)"/>
          <g id="Group_107" data-name="Group 107" class="cls-13">
            <path id="Path_416" data-name="Path 416" class="cls-14" d="M101.374,345.357a10.381,10.381,0,0,0,2.251-.459c4.21-1.523,5.492-2.856,6.891-5.182s8.017-33.566,9.517-42.343,7.517-102.279,7.517-102.279.233-1.988-3.77-3.761a7.479,7.479,0,0,0-1.2-.381c-.864,21.69-3.8,47.451-8.95,78.044C108.758,297.955,103.3,332.941,101.374,345.357Z" transform="translate(-76.281 -188.957)"/>
          </g>
          <path id="Path_418" data-name="Path 418" class="cls-15" d="M79.743,296.786s-1.354,28.3-1.2,36.142.34,10.77,4.232,11.462,18.891,2.21,23.1.686,5.492-2.856,6.891-5.182,8.017-33.566,9.517-42.343S129.8,195.272,129.8,195.272s.233-1.988-3.77-3.761c-3.341-1.479-19.463-2.181-24.693-2.372a5.5,5.5,0,0,0-5.544,4.047c-.011.04-.021.08-.031.121C94.754,197.34,79.743,296.786,79.743,296.786Z" transform="translate(-78.527 -189.136)"/>
        </g>
        <g id="Group_110" data-name="Group 110" transform="translate(0 107.439)">
          <path id="Path_419" data-name="Path 419" class="cls-16" d="M110.424,290.458c-4.689.044-24.887-2.141-28.011-2.8a26.249,26.249,0,0,1-2.638-.7l-.032.211s-1.354,28.3-1.2,36.142.34,10.77,4.232,11.462,18.891,2.21,23.1.686,5.492-2.856,6.891-5.182c1.361-2.264,7.662-31.9,9.384-41.581C118.186,290.744,114.286,290.421,110.424,290.458Z" transform="translate(-78.527 -286.955)"/>
          <g id="Group_109" data-name="Group 109" class="cls-17">
            <path id="Path_420" data-name="Path 420" class="cls-14" d="M101.374,345.357a10.381,10.381,0,0,0,2.251-.459c4.21-1.523,5.492-2.856,6.891-5.182s8.017-33.566,9.517-42.343,7.517-102.279,7.517-102.279.233-1.988-3.77-3.761a7.479,7.479,0,0,0-1.2-.381c-.864,21.69-3.8,47.451-8.95,78.044C108.758,297.955,103.3,332.941,101.374,345.357Z" transform="translate(-76.281 -296.396)"/>
            <path id="Path_421" data-name="Path 421" class="cls-18" d="M107.613,292.65a42.136,42.136,0,0,0,9.122-1.407" transform="translate(-75.667 -286.533)"/>
            <path id="Path_422" data-name="Path 422" class="cls-19" d="M81.086,289.573s24.8,3.394,29.136,3.241" transform="translate(-78.276 -286.698)"/>
          </g>
          <path id="Path_424" data-name="Path 424" class="cls-15" d="M110.424,290.458c-4.689.044-24.887-2.141-28.011-2.8a26.249,26.249,0,0,1-2.638-.7l-.032.211s-1.354,28.3-1.2,36.142.34,10.77,4.232,11.462,18.891,2.21,23.1.686,5.492-2.856,6.891-5.182c1.361-2.264,7.662-31.9,9.384-41.581C118.186,290.744,114.286,290.421,110.424,290.458Z" transform="translate(-78.527 -286.955)"/>
        </g>
      </g>
    </g>
    <g id="Plant" transform="translate(332.536 64.15)">
      <g id="Group_114" data-name="Group 114">
        <circle id="Ellipse_2" data-name="Ellipse 2" class="cls-2" cx="47.132" cy="47.132" r="47.132" transform="translate(16.516 70.381) rotate(-27.509)"/>
        <circle id="Ellipse_3" data-name="Ellipse 3" class="cls-20" cx="47.132" cy="47.132" r="47.132" transform="matrix(0.123, -0.992, 0.992, 0.123, 23.986, 126.683)"/>
        <circle id="Ellipse_4" data-name="Ellipse 4" class="cls-2" cx="42.448" cy="42.448" r="42.448" transform="translate(27.807 120.734) rotate(-80.669)"/>
        <g id="Group_112" data-name="Group 112" transform="translate(0 16.935)">
          <path id="Path_425" data-name="Path 425" class="cls-4" d="M380.543,116.456s-4.683-11.711-12.88-19.907-41.57-13.466-41.57-13.466a122.208,122.208,0,0,1,14.638,16.979c7.612,10.539,32.787,34.543,32.787,34.543S361.222,124.066,350.1,122.9s-39.227,4.684-40.985,4.684,10.54,4.683,19.322,8.782,42.74,7.61,42.74,7.61-14.637,4.1-24.591,7.612-19.321,29.274-19.321,29.274,12.881-11.709,24.005-14.637,26.932-8.2,26.932-8.2-9.953,11.124-12.295,18.736-.585,25.176-.585,25.176,5.269-16.394,11.709-22.835S390.5,161.537,390.5,161.537a162.23,162.23,0,0,1,8.782,16.394c4.684,9.953,7.611,24.591,7.611,24.591s7.612-16.394,7.026-24.591-9.368-22.833-9.368-22.833,5.854-4.1,14.637-.585,24.005,18.15,24.005,18.15-3.513-19.322-9.368-26.932-31.03-9.953-31.03-9.953,14.051-8.2,22.833-9.954,20.492,2.343,20.492,2.343-13.466-18.736-24-19.906-26.347,15.222-26.347,15.222l4.683-23.419c1.171-5.855-1.171-20.493-1.171-20.493s-6.441,3.514-14.051,14.638A29.124,29.124,0,0,0,380.543,116.456Z" transform="translate(-308.944 -79.569)"/>
          <path id="Path_426" data-name="Path 426" class="cls-6" d="M380.543,116.456s-4.683-11.711-12.88-19.907-41.57-13.466-41.57-13.466a122.208,122.208,0,0,1,14.638,16.979c7.612,10.539,32.787,34.543,32.787,34.543S361.222,124.066,350.1,122.9s-39.227,4.684-40.985,4.684,10.54,4.683,19.322,8.782,42.74,7.61,42.74,7.61-14.637,4.1-24.591,7.612-19.321,29.274-19.321,29.274,12.881-11.709,24.005-14.637,26.932-8.2,26.932-8.2-9.953,11.124-12.295,18.736-.585,25.176-.585,25.176,5.269-16.394,11.709-22.835S390.5,161.537,390.5,161.537a162.23,162.23,0,0,1,8.782,16.394c4.684,9.953,7.611,24.591,7.611,24.591s7.612-16.394,7.026-24.591-9.368-22.833-9.368-22.833,5.854-4.1,14.637-.585,24.005,18.15,24.005,18.15-3.513-19.322-9.368-26.932-31.03-9.953-31.03-9.953,14.051-8.2,22.833-9.954,20.492,2.343,20.492,2.343-13.466-18.736-24-19.906-26.347,15.222-26.347,15.222l4.683-23.419c1.171-5.855-1.171-20.493-1.171-20.493s-6.441,3.514-14.051,14.638A29.124,29.124,0,0,0,380.543,116.456Z" transform="translate(-308.944 -79.569)"/>
          <path id="Path_427" data-name="Path 427" class="cls-21" d="M384.634,97.376c.406-1.683.854-3.359,1.347-5.013" transform="translate(-301.5 -78.311)"/>
          <path id="Path_428" data-name="Path 428" class="cls-21" d="M349.029,96.923c5.485,4,12.339,9.507,15.862,14.313,6.441,8.782,19.321,27.518,19.321,27.518a173.958,173.958,0,0,1,2.972-37.533" transform="translate(-305.002 -77.862)"/>
          <path id="Path_429" data-name="Path 429" class="cls-21" d="M341.615,91.83s1.712,1.085,4.265,2.844" transform="translate(-305.731 -78.363)"/>
          <path id="Path_430" data-name="Path 430" class="cls-21" d="M381.062,137.183s22.248-22.248,31.616-24,17.565,5.269,17.565,5.269" transform="translate(-301.852 -76.292)"/>
          <path id="Path_431" data-name="Path 431" class="cls-21" d="M345.383,151.948c-5.414,3.452-5.9,5.4-5.9,5.4" transform="translate(-305.941 -72.451)"/>
          <path id="Path_432" data-name="Path 432" class="cls-21" d="M432.865,155.238s-3.513-8.782-15.808-12.88-31.616-4.684-31.616-4.684-27.093,8.867-37,13.5" transform="translate(-305.06 -73.855)"/>
          <path id="Path_433" data-name="Path 433" class="cls-21" d="M371.363,134.63c6.542,1.9,11.824,3.342,11.824,3.342" transform="translate(-302.806 -74.154)"/>
          <path id="Path_434" data-name="Path 434" class="cls-21" d="M333.81,125.159c6.365.384,14.551,1.252,19.111,3.206,3.716,1.593,11.038,3.906,17.935,5.961" transform="translate(-306.499 -75.086)"/>
          <path id="Path_435" data-name="Path 435" class="cls-21" d="M325.623,124.88s2.139,0,5.3.124" transform="translate(-307.304 -75.113)"/>
          <path id="Path_436" data-name="Path 436" class="cls-21" d="M382.74,140.872s-16.394,24.59-17.565,30.445A59.778,59.778,0,0,0,364,181.856" transform="translate(-303.529 -73.54)"/>
          <path id="Path_437" data-name="Path 437" class="cls-21" d="M387.7,147.915c3.157,4.076,6.944,9.511,8.521,13.927a95.432,95.432,0,0,1,4.1,16.394" transform="translate(-301.199 -72.848)"/>
          <path id="Path_438" data-name="Path 438" class="cls-21" d="M383.194,142.471s1.3,1.444,3.114,3.674" transform="translate(-301.642 -73.383)"/>
        </g>
        <g id="Group_113" data-name="Group 113" transform="translate(17.725)">
          <path id="Path_439" data-name="Path 439" class="cls-4" d="M371.517,123.017s-3.025-12.243-1.148-23.682S396.28,64.15,396.28,64.15a122.276,122.276,0,0,0-1.986,22.328c-.035,13-6.483,47.184-6.483,47.184S391.65,117.929,400,110.49s34.6-19.076,36.022-20.1-5.828,9.951-10.572,18.4S395.177,139.9,395.177,139.9s14.28-5.208,24.413-8.161,32.769,12.51,32.769,12.51-17.292-2-28.036,2.111-26.657,9.051-26.657,9.051,14.573,3.23,20.915,8.046,15.16,20.108,15.16,20.108-13.842-10.242-22.83-11.717-21.184-6.413-21.184-6.413a162.3,162.3,0,0,0,2.428,18.439c2,10.816,8.161,24.413,8.161,24.413s-15.745-8.876-20.05-15.875-5.709-24.012-5.709-24.012-7.146.086-12.231,8.062-8.912,28.745-8.912,28.745-8.416-17.744-8.1-27.341,19.4-26.183,19.4-26.183-16.2,1.538-24.354,5.234-15.279,13.854-15.279,13.854.011-23.073,7.888-30.171,30.279-3,30.279-3l-17.464-16.292c-4.366-4.073-11-17.327-11-17.327s7.28-.9,19.95,3.693A29.119,29.119,0,0,1,371.517,123.017Z" transform="translate(-325.082 -64.15)"/>
          <path id="Path_440" data-name="Path 440" class="cls-21" d="M349.725,110.985q-1.969-1.694-4.017-3.286" transform="translate(-323.054 -59.867)"/>
          <path id="Path_441" data-name="Path 441" class="cls-21" d="M380.834,89.921c-2.121,6.449-4.477,14.92-4.536,20.877-.109,10.891.356,33.622.356,33.622a173.978,173.978,0,0,0-24.305-28.755" transform="translate(-322.4 -61.616)"/>
          <path id="Path_442" data-name="Path 442" class="cls-21" d="M381.5,81.46s-.758,1.879-1.8,4.8" transform="translate(-319.712 -62.448)"/>
          <path id="Path_443" data-name="Path 443" class="cls-21" d="M379.033,139.775s-31.049-5.1-39.682-1.059-11.194,14.526-11.194,14.526" transform="translate(-324.78 -56.97)"/>
          <path id="Path_444" data-name="Path 444" class="cls-21" d="M413.769,132.188c6.41-.355,7.942.943,7.942.943" transform="translate(-316.36 -57.465)"/>
          <path id="Path_445" data-name="Path 445" class="cls-21" d="M349.45,185.207s-2.269-9.183,5.327-19.683,22.95-22.246,22.95-22.246,27.177-8.6,37.925-10.617" transform="translate(-322.717 -57.412)"/>
          <path id="Path_446" data-name="Path 446" class="cls-21" d="M382.82,133.576c-4.2,5.361-7.653,9.612-7.653,9.612" transform="translate(-320.157 -57.322)"/>
          <path id="Path_447" data-name="Path 447" class="cls-21" d="M409.331,103.98c-4.946,4.024-11.089,9.5-13.654,13.751-2.089,3.46-6.688,9.61-11.092,15.3" transform="translate(-319.23 -60.233)"/>
          <path id="Path_448" data-name="Path 448" class="cls-21" d="M413.981,98.978s-1.736,1.248-4.234,3.193" transform="translate(-316.756 -60.725)"/>
          <path id="Path_449" data-name="Path 449" class="cls-21" d="M377.9,144.3s27.66,10.412,32.025,14.485a59.745,59.745,0,0,1,7.1,7.877" transform="translate(-319.888 -56.267)"/>
          <path id="Path_450" data-name="Path 450" class="cls-21" d="M376.624,153.895c-.188,5.151-.092,11.775,1.2,16.282a95.422,95.422,0,0,0,6.233,15.707" transform="translate(-320.021 -55.324)"/>
          <path id="Path_451" data-name="Path 451" class="cls-21" d="M377.134,146.846s-.213,1.932-.387,4.8" transform="translate(-320.001 -56.017)"/>
        </g>
      </g>
    </g>
    <g id="Hand" transform="translate(256.17 246.548)">
      <g id="Group_127" data-name="Group 127" transform="translate(0 0)">
        <path id="Path_452" data-name="Path 452" class="cls-6" d="M400.536,376.274c-2.11-5.941-2.478-37.113-2.007-59.274l12.331,2.667a8.95,8.95,0,0,0,7.614-1.827,9.189,9.189,0,0,0,1.1-1.065,9,9,0,0,0,2.149-4.626q.068-.465.089-.923a9.053,9.053,0,0,0-7.713-9.36l-14.9-2.213c.137-1.941.288-3.439.447-4.363a20.405,20.405,0,0,0,.319-4.352c.222-.713.548-1.763,1.032-3.324,1.5-4.817.357-11.907-3.742-15.938s-18.64-11.126-22.93-14.849-36.166-26.456-41.894-25.111-12.484,9.5-18.257,14.008-26.493,21.459-26.493,21.459c.066-.721-10.674,3.623-13.287,7.83a1.812,1.812,0,0,0-.559,1.464,7.619,7.619,0,0,0,4.768,5.256l-9.311-1.384a2.81,2.81,0,0,0-2.754,1.235c-3.3-.5-10.016-1.232-14.868.1,0,0,7.923,3.872,13.846,5.164a2.8,2.8,0,0,0,2.061,1.843l12.354,2.671a14.352,14.352,0,0,0-.51,2.2,3.942,3.942,0,0,0,.279,2,12.508,12.508,0,0,0,.232,1.3c1.754,7.471,11.242,16.542,18.167,22.537s13.54,16.265,17.65,28.175,6.683,22.869,15.817,34.913a55.343,55.343,0,0,0,5.063,5.787l85.2,53.786S403.638,385.006,400.536,376.274ZM289.421,282.616a7.613,7.613,0,0,0-.409.663l-2.353-.349A19.287,19.287,0,0,0,289.421,282.616Z" transform="translate(-238.21 -230.075)"/>
        <g id="Group_126" data-name="Group 126">
          <g id="Group_117" data-name="Group 117" transform="translate(25.307 24.295)">
            <g id="Group_116" data-name="Group 116" transform="translate(11.199)">
              <path id="Path_453" data-name="Path 453" class="cls-22" d="M369.862,469.335l-54.389-94.017s-6.087-42.715-19.055-59.9-31.156-29.734-20.6-38.518,37.349-25.585,42.855-24.513,42.467,19.721,52.909,22.787,14.1,7.463,12.545,16.5-2.219,72.253.882,80.985,37.41,70.939,37.41,70.939" transform="translate(-272.653 -252.336)"/>
              <g id="Group_115" data-name="Group 115" class="cls-23">
                <path id="Path_454" data-name="Path 454" class="cls-24" d="M375.941,370.222c-3.1-8.732-2.439-71.949-.882-80.985.953-5.538-.063-9.328-3.386-12.142a40.25,40.25,0,0,1-2.406,14.709c-2.934,8.312-4.4,14.18-4.4,14.18s-.489,29.824,1.466,44.982,11.735,42.049,21.024,56.717c6.875,10.854,16.687,20.63,21.329,24.984C399.2,415.333,378.328,376.942,375.941,370.222Z" transform="translate(-263.59 -249.902)"/>
                <path id="Path_455" data-name="Path 455" class="cls-25" d="M375.941,370.222c-3.1-8.732-2.439-71.949-.882-80.985.953-5.538-.063-9.328-3.386-12.142a40.25,40.25,0,0,1-2.406,14.709c-2.934,8.312-4.4,14.18-4.4,14.18s-.489,29.824,1.466,44.982,11.735,42.049,21.024,56.717c6.875,10.854,16.687,20.63,21.329,24.984C399.2,415.333,378.328,376.942,375.941,370.222Z" transform="translate(-263.59 -249.902)"/>
              </g>
              <path id="Path_457" data-name="Path 457" class="cls-12" d="M369.862,469.335l-54.389-94.017s-6.087-42.715-19.055-59.9-31.156-29.734-20.6-38.518,37.349-25.585,42.855-24.513,42.467,19.721,52.909,22.787,14.1,7.463,12.545,16.5-2.219,72.253.882,80.985,37.41,70.939,37.41,70.939" transform="translate(-272.653 -252.336)"/>
            </g>
            <path id="Path_458" data-name="Path 458" class="cls-24" d="M262.478,278.562a48.938,48.938,0,0,0,23.957-7.822c12.223-7.823,8.312-9.29,8.312-9.29s6.356-1.956,10.267-3.422,9.29-5.379,9.29-5.379,15.646,10.267,22.981,13.2a79.17,79.17,0,0,0,10.8,3.695l10.223,13.418a35.08,35.08,0,0,0-14.179,12.223c-5.867,8.8-13.2,20.535-16.623,22s-1.956,2.934-17.113-2.934S261.5,287.363,262.478,278.562Z" transform="translate(-262.457 -252.306)"/>
            <path id="Path_459" data-name="Path 459" class="cls-25" d="M262.478,278.562a48.938,48.938,0,0,0,23.957-7.822c12.223-7.823,8.312-9.29,8.312-9.29s6.356-1.956,10.267-3.422,9.29-5.379,9.29-5.379,15.646,10.267,22.981,13.2a79.17,79.17,0,0,0,10.8,3.695l10.223,13.418a35.08,35.08,0,0,0-14.179,12.223c-5.867,8.8-13.2,20.535-16.623,22s-1.956,2.934-17.113-2.934S261.5,287.363,262.478,278.562Z" transform="translate(-262.457 -252.306)"/>
            <path id="Path_460" data-name="Path 460" class="cls-12" d="M287.143,281.826s11.748-1.444,20.03-16.527c0,0,9.751,4.13,19.9,1.483" transform="translate(-260.029 -251.062)"/>
            <path id="Path_461" data-name="Path 461" class="cls-12" d="M316.274,270.425s-5.676,15,6.279,34.846" transform="translate(-257.297 -250.558)"/>
            <path id="Path_462" data-name="Path 462" class="cls-12" d="M304.724,271.673s5.913,7.282,6.877,13.625" transform="translate(-258.3 -250.435)"/>
            <path id="Path_463" data-name="Path 463" class="cls-12" d="M314.814,311.12s9.831-6.25,15.137-12.751,7.638-13.355,15.929-16.09" transform="translate(-257.308 -249.392)"/>
            <line id="Line_59" data-name="Line 59" class="cls-12" x1="2.409" y1="2.845" transform="translate(44.736 11.391)"/>
          </g>
          <g id="Group_118" data-name="Group 118" transform="translate(0 48.661)">
            <path id="Path_464" data-name="Path 464" class="cls-7" d="M256.29,276.071s-10.208-2.07-16.874-.243c0,0,9.8,4.8,15.744,5.5Z" transform="translate(-239.416 -274.466)"/>
            <path id="Path_465" data-name="Path 465" class="cls-8" d="M400.616,296.066l-144.8-21.514a2.812,2.812,0,0,0-3.141,2.095l-.707,2.808a2.812,2.812,0,0,0,2.133,3.436l143.275,30.977a9.052,9.052,0,0,0,10.867-7.518h0A9.052,9.052,0,0,0,400.616,296.066Z" transform="translate(-238.19 -274.521)"/>
            <path id="Path_466" data-name="Path 466" class="cls-7" d="M389.731,294.428l-21.886-3.251a10.968,10.968,0,0,0-4.981,12.011,11.281,11.281,0,0,0,2.107,4.389l21.517,4.651a9.052,9.052,0,0,0,10.867-7.518h0A9.052,9.052,0,0,0,389.731,294.428Z" transform="translate(-227.306 -272.883)"/>
          </g>
          <g id="Group_121" data-name="Group 121" transform="translate(27.714 54.785)">
            <g id="Group_120" data-name="Group 120" transform="translate(0.228)">
              <path id="Path_467" data-name="Path 467" class="cls-22" d="M340.733,309.031s-12.452,2.924-18.017,1.6-16.939-17.307-24.742-22.569-12.565-6.51-20.737-7.744-13.814,2.717-12.06,10.188,11.24,16.543,18.165,22.537,13.541,16.265,17.651,28.176,6.682,22.867,15.816,34.912,20.541,16.986,24.379,17.661" transform="translate(-264.856 -280.097)"/>
              <g id="Group_119" data-name="Group 119" class="cls-26">
                <path id="Path_468" data-name="Path 468" class="cls-24" d="M333.8,310.8s-.316-.159-.879-.45c-3.781.556-8.21.939-10.96.287-5.565-1.321-16.939-17.307-24.742-22.569s-12.565-6.51-20.737-7.744a18.083,18.083,0,0,0-3.942-.175,53.163,53.163,0,0,1,17.556,8.027c8.693,6.279,14.973,22.218,24.633,25.117S333.8,310.8,333.8,310.8Z" transform="translate(-264.1 -280.096)"/>
                <path id="Path_469" data-name="Path 469" class="cls-25" d="M333.8,310.8s-.316-.159-.879-.45c-3.781.556-8.21.939-10.96.287-5.565-1.321-16.939-17.307-24.742-22.569s-12.565-6.51-20.737-7.744a18.083,18.083,0,0,0-3.942-.175,53.163,53.163,0,0,1,17.556,8.027c8.693,6.279,14.973,22.218,24.633,25.117S333.8,310.8,333.8,310.8Z" transform="translate(-264.1 -280.096)"/>
              </g>
              <path id="Path_471" data-name="Path 471" class="cls-12" d="M340.733,309.031s-12.452,2.924-18.017,1.6-16.939-17.307-24.742-22.569-12.565-6.51-20.737-7.744-13.814,2.717-12.06,10.188,11.24,16.543,18.165,22.537,13.541,16.265,17.651,28.176,6.682,22.867,15.816,34.912,20.541,16.986,24.379,17.661" transform="translate(-264.856 -280.097)"/>
            </g>
            <path id="Path_472" data-name="Path 472" class="cls-3" d="M271.449,295.868s.589-6.444,9.424-12.46c0,0-5.9-3.871-9.943-3.184s-5.627,2.9-6.244,6.984S271.449,295.868,271.449,295.868Z" transform="translate(-264.649 -280.092)"/>
            <path id="Path_473" data-name="Path 473" class="cls-12" d="M276.119,300.693a11.829,11.829,0,0,0,2.268,1.771" transform="translate(-263.521 -278.071)"/>
            <path id="Path_474" data-name="Path 474" class="cls-12" d="M282.684,286.824s-9.377,4.829-7.871,12.359" transform="translate(-263.665 -279.435)"/>
          </g>
          <g id="Group_125" data-name="Group 125" transform="translate(22.14)">
            <g id="Group_123" data-name="Group 123">
              <path id="Path_475" data-name="Path 475" class="cls-22" d="M385.264,290.99l1.5-4.817c1.5-4.818.357-11.908-3.742-15.938s-18.64-11.127-22.93-14.85-36.165-26.456-41.893-25.111-12.485,9.5-18.258,14.008-26.493,21.461-26.493,21.461-14.548,6.306-13.846,9.294,3.687,6.754,12.813,6.451,24.334-9.391,26.648-10.723,16.66-10.743,16.66-10.743a50.373,50.373,0,0,0,12.651,9.117c6.78,3.138,7.645,3.46,7.645,3.46s1.768,6.417,6.747,9.715" transform="translate(-259.574 -230.217)"/>
              <g id="Group_122" data-name="Group 122" class="cls-27">
                <path id="Path_476" data-name="Path 476" class="cls-4" d="M368.962,268.788c5.271,4.142,5.606,12.337,4.145,19.684l3.947.805,1.5-4.817c1.5-4.818.357-11.908-3.742-15.938s-18.64-11.127-22.93-14.85c-1.119-.971-4.126-3.242-8.048-6.036l-.782.127S362.117,263.409,368.962,268.788Z" transform="translate(-251.364 -228.504)"/>
                <path id="Path_477" data-name="Path 477" class="cls-25" d="M368.962,268.788c5.271,4.142,5.606,12.337,4.145,19.684l3.947.805,1.5-4.817c1.5-4.818.357-11.908-3.742-15.938s-18.64-11.127-22.93-14.85c-1.119-.971-4.126-3.242-8.048-6.036l-.782.127S362.117,263.409,368.962,268.788Z" transform="translate(-251.364 -228.504)"/>
                <path id="Path_478" data-name="Path 478" class="cls-4" d="M262.478,278.562a48.938,48.938,0,0,0,23.957-7.822c12.223-7.823,8.312-9.29,8.312-9.29s6.356-1.956,10.267-3.422,9.29-5.379,9.29-5.379,15.646,10.267,22.981,13.2a79.17,79.17,0,0,0,10.8,3.695l10.223,13.418a35.08,35.08,0,0,0-14.179,12.223c-5.867,8.8-13.2,20.535-16.623,22s-1.956,2.934-17.113-2.934S261.5,287.363,262.478,278.562Z" transform="translate(-259.29 -228.011)"/>
                <path id="Path_479" data-name="Path 479" class="cls-25" d="M262.478,278.562a48.938,48.938,0,0,0,23.957-7.822c12.223-7.823,8.312-9.29,8.312-9.29s6.356-1.956,10.267-3.422,9.29-5.379,9.29-5.379,15.646,10.267,22.981,13.2a79.17,79.17,0,0,0,10.8,3.695l10.223,13.418a35.08,35.08,0,0,0-14.179,12.223c-5.867,8.8-13.2,20.535-16.623,22s-1.956,2.934-17.113-2.934S261.5,287.363,262.478,278.562Z" transform="translate(-259.29 -228.011)"/>
              </g>
              <path id="Path_481" data-name="Path 481" class="cls-12" d="M385.264,290.99l1.5-4.817c1.5-4.818.357-11.908-3.742-15.938s-18.64-11.127-22.93-14.85-36.165-26.456-41.893-25.111-12.485,9.5-18.258,14.008-26.493,21.461-26.493,21.461-14.548,6.306-13.846,9.294,3.687,6.754,12.813,6.451,24.334-9.391,26.648-10.723,16.66-10.743,16.66-10.743a50.373,50.373,0,0,0,12.651,9.117c6.78,3.138,7.645,3.46,7.645,3.46s1.768,6.417,6.747,9.715" transform="translate(-259.574 -230.217)"/>
            </g>
            <path id="Path_482" data-name="Path 482" class="cls-3" d="M259.6,271.863s1.478.7,4.6-.555,9.173-7.934,9.247-8.74S260.1,267.279,259.6,271.863Z" transform="translate(-259.571 -227.043)"/>
            <g id="Group_124" data-name="Group 124" transform="translate(55.143 17.208)">
              <path id="Path_483" data-name="Path 483" class="cls-12" d="M310.159,247.825a18.386,18.386,0,0,1,.518-1.941" transform="translate(-309.742 -245.884)"/>
              <path id="Path_484" data-name="Path 484" class="cls-12" d="M310.782,258.085a21.363,21.363,0,0,1-.939-8.172" transform="translate(-309.78 -245.488)"/>
            </g>
          </g>
        </g>
      </g>
    </g>
  </g>
</svg>
