<svg xmlns="http://www.w3.org/2000/svg" width="37.251" height="37.25" viewBox="0 0 37.251 37.25">
  <path id="settings" d="M36.145,23.863A11.647,11.647,0,0,0,36.24,22c0-.652-.095-1.21-.095-1.863l4-3.073a.855.855,0,0,0,.191-1.21l-3.81-6.426a.928.928,0,0,0-1.143-.373L30.62,10.918a13.863,13.863,0,0,0-3.238-1.863L26.715,4.12a1.021,1.021,0,0,0-.953-.745h-7.62a1.021,1.021,0,0,0-.952.745l-.762,4.935a16.13,16.13,0,0,0-3.239,1.863L8.427,9.055a.892.892,0,0,0-1.143.373l-3.81,6.426a1.125,1.125,0,0,0,.191,1.21l4.1,3.073c0,.652-.095,1.21-.095,1.863s.095,1.21.095,1.863l-4,3.073a.855.855,0,0,0-.191,1.21l3.81,6.426a.928.928,0,0,0,1.143.373l4.763-1.863a13.861,13.861,0,0,0,3.238,1.863l.762,4.935a.923.923,0,0,0,.952.745h7.62a1.021,1.021,0,0,0,.953-.745l.763-4.935a16.12,16.12,0,0,0,3.238-1.863l4.763,1.863a.892.892,0,0,0,1.143-.373l3.81-6.426a1.123,1.123,0,0,0-.191-1.21ZM21.952,28.519a6.52,6.52,0,1,1,0-13.038,6.52,6.52,0,1,1,0,13.038Z" transform="translate(-3.375 -3.375)" fill="#fff"/>
</svg>
