<svg id="sIllus" xmlns="http://www.w3.org/2000/svg" xmlns:xlink="http://www.w3.org/1999/xlink" width="685.572" height="681.722" viewBox="0 0 685.572 681.722">
  <defs>
    <linearGradient id="linear-gradient" x1="0.576" y1="0.208" x2="0.412" y2="0.792" gradientUnits="objectBoundingBox">
      <stop offset="0" stop-color="#7783f0"/>
      <stop offset="0.996" stop-color="#202982"/>
      <stop offset="1" stop-color="#6165d7"/>
    </linearGradient>
    <linearGradient id="linear-gradient-2" x1="0.455" y1="-0.054" x2="0.656" y2="2.026" gradientUnits="objectBoundingBox">
      <stop offset="0" stop-color="#e38ddd"/>
      <stop offset="0.004" stop-color="#7783f0"/>
      <stop offset="1" stop-color="#202982"/>
    </linearGradient>
    <clipPath id="clip-path">
      <path id="Path_508" data-name="Path 508" d="M753.579,2145.224q20.765-23.242,40.6-47.56c.439.027-21.711-39.815-52.224-44.944-59.762-9.394-63.072-59.812-71.663-84.155-11.027-35.2-38.656-60.231-65.414-38.619-30.137,23.373-74.274-22.765-104.278-73.2-13.116-25.861-54.32-36.142-79.36-25.458-25.978,10.366-35.791,41.7-7.787,91.693,30.172,59.768,90.392,60.751,123.743,75.513,32.771,14.465,17.876,60.715,59.94,62.664,36.2,2.71,73.491-4.738,83.248,28.464C689.663,2122.76,707.661,2141.163,753.579,2145.224Z" transform="translate(-396.58 -1827.112)" fill="url(#linear-gradient)"/>
    </clipPath>
    <linearGradient id="linear-gradient-4" x1="1.962" y1="0.884" x2="-0.396" y2="0.254" gradientUnits="objectBoundingBox">
      <stop offset="0" stop-color="#303778"/>
      <stop offset="1" stop-color="#3343e0"/>
    </linearGradient>
    <linearGradient id="linear-gradient-5" x1="0.707" y1="0.204" x2="-0.293" y2="1.635" gradientUnits="objectBoundingBox">
      <stop offset="0" stop-color="#9bc2f6"/>
      <stop offset="0.996" stop-color="#7783f0"/>
      <stop offset="1" stop-color="#f36f56"/>
    </linearGradient>
    <linearGradient id="linear-gradient-6" x1="0.761" y1="0.152" x2="0.453" y2="0.563" gradientUnits="objectBoundingBox">
      <stop offset="0" stop-color="#7783f0"/>
      <stop offset="0.996" stop-color="#9bc2f6"/>
      <stop offset="1" stop-color="#f36f56"/>
    </linearGradient>
    <linearGradient id="linear-gradient-7" x1="0.169" y1="-0.343" x2="0.648" y2="0.878" xlink:href="#linear-gradient-5"/>
    <linearGradient id="linear-gradient-8" x1="-0.122" y1="2.096" x2="0.853" y2="-0.405" gradientUnits="objectBoundingBox">
      <stop offset="0.004" stop-color="#ebeff2"/>
      <stop offset="1" stop-color="#fff"/>
    </linearGradient>
    <linearGradient id="linear-gradient-9" x1="0.77" y1="0.088" x2="-0.679" y2="2.118" xlink:href="#linear-gradient-5"/>
    <linearGradient id="linear-gradient-10" x1="-3.822" y1="-7.172" x2="5.971" y2="10.213" gradientUnits="objectBoundingBox">
      <stop offset="0" stop-color="#8d8e8f"/>
      <stop offset="1" stop-color="#3343e0"/>
    </linearGradient>
    <linearGradient id="linear-gradient-11" x1="-4.966" y1="-1.032" x2="10.53" y2="3.312" gradientUnits="objectBoundingBox">
      <stop offset="0" stop-color="#3343e0"/>
      <stop offset="1" stop-color="#8d8e8f"/>
    </linearGradient>
    <linearGradient id="linear-gradient-12" x1="-1.293" y1="-9.414" x2="2.407" y2="11.042" xlink:href="#linear-gradient-10"/>
    <clipPath id="clip-path-2">
      <rect id="Rectangle_60" data-name="Rectangle 60" width="383.712" height="247.924" fill="none"/>
    </clipPath>
    <clipPath id="clip-path-3">
      <path id="Path_524" data-name="Path 524" d="M741.882,2590.113c2.7-3.072,5.855-12.132,5.7-14.833-1-17.976-.689-51.755-14.083-65.277-2.288-2.31-15.163,5.011-18.657,4.118-9.342,2.675-12.417,4.183-22.548,2.363-29.908-5.373-27.077-67.389-75.1-46.041-35.174,15.637-50.1,45.636-84.815.221s-137.319-93.537-156.234-23.891c-10.855,39.97,47.52,53.19,57.807,91.789,9.776,36.678,39.081,48.162,79.663,39.614s36.465,15.969,49.931,47.149c16.175,37.454,65.52,3.176,86.952-14.592C667.765,2596.424,721.363,2571.633,741.882,2590.113Z" transform="translate(-374.814 -2411.72)" fill="url(#linear-gradient-2)"/>
    </clipPath>
    <linearGradient id="linear-gradient-14" x1="1.162" y1="1.099" x2="0.29" y2="0.279" xlink:href="#linear-gradient-4"/>
    <linearGradient id="linear-gradient-15" x1="0.533" y1="0.828" x2="0.308" y2="0.458" xlink:href="#linear-gradient-4"/>
    <linearGradient id="linear-gradient-16" x1="0.484" y1="0.421" x2="0.143" y2="2.077" gradientUnits="objectBoundingBox">
      <stop offset="0" stop-color="#5663db"/>
      <stop offset="1" stop-color="#3343e0"/>
    </linearGradient>
    <linearGradient id="linear-gradient-17" x1="0.972" y1="1.274" x2="0.155" y2="-0.11" xlink:href="#linear-gradient-4"/>
    <linearGradient id="linear-gradient-18" x1="0.581" y1="-0.066" x2="0.167" y2="2.753" xlink:href="#linear-gradient-16"/>
    <linearGradient id="linear-gradient-19" x1="0.921" y1="1.524" x2="0.175" y2="-0.338" xlink:href="#linear-gradient-4"/>
    <linearGradient id="linear-gradient-20" x1="0.603" y1="-0.56" x2="0.227" y2="3.243" xlink:href="#linear-gradient-16"/>
    <linearGradient id="linear-gradient-21" x1="0.897" y1="2.13" x2="0.187" y2="-0.866" xlink:href="#linear-gradient-4"/>
    <linearGradient id="linear-gradient-22" x1="0.623" y1="-1.749" x2="0.283" y2="4.423" xlink:href="#linear-gradient-16"/>
    <linearGradient id="linear-gradient-23" x1="1.003" y1="3.565" x2="0.209" y2="-1.399" xlink:href="#linear-gradient-4"/>
    <linearGradient id="linear-gradient-24" x1="0.63" y1="-3.092" x2="0.324" y2="5.353" xlink:href="#linear-gradient-16"/>
  </defs>
  <path id="Path_499" data-name="Path 499" d="M725.851,455.057c-90.186,1.51-229.721,34.01-269.884,117.531-14.028,29.171-13.078,72.055-11.179,157.823.558,25.209,1.484,61.953,7.985,107.543,13.5,94.705,22.7,159.177,57.49,196.718,87.18,94.066,402.1,91.348,536.575-78,73.359-92.381,84.644-223.8,17.566-332.405C990.553,504.688,846.589,453.035,725.851,455.057Z" transform="translate(-423.266 -455)" fill="#f4f7fa"/>
  <g id="Group_152" data-name="Group 152" transform="translate(9.358 322.825)">
    <g id="Group_151" data-name="Group 151">
      <g id="Group_150" data-name="Group 150">
        <path id="Path_500" data-name="Path 500" d="M753.579,2145.224q20.765-23.242,40.6-47.56c.439.027-21.711-39.815-52.224-44.944-59.762-9.394-63.072-59.812-71.663-84.155-11.027-35.2-38.656-60.231-65.414-38.619-30.137,23.373-74.274-22.765-104.278-73.2-13.116-25.861-54.32-36.142-79.36-25.458-25.978,10.366-35.791,41.7-7.787,91.693,30.172,59.768,90.392,60.751,123.743,75.513,32.771,14.465,17.876,60.715,59.94,62.664,36.2,2.71,73.491-4.738,83.248,28.464C689.663,2122.76,707.661,2141.163,753.579,2145.224Z" transform="translate(-396.58 -1827.112)" fill="url(#linear-gradient)"/>
        <g id="Group_149" data-name="Group 149" clip-path="url(#clip-path)">
          <g id="Group_148" data-name="Group 148" transform="translate(4.691 -13.257)">
            <path id="Path_501" data-name="Path 501" d="M842.135,2086.073c-.238-.32-72.66-62.627-154.44-113.879-12.612-8.8-25.619-17.456-38.2-25.824-70.046-46.6-136.207-90.612-166.566-175.605l-1.134.44c30.5,85.389,96.828,129.514,167.049,176.229,12.572,8.364,25.573,17.012,38.2,25.826,82.222,51.53,153.763,113.2,154.163,113.626Z" transform="translate(-466.44 -1770.764)" fill="#7783f0"/>
            <path id="Path_502" data-name="Path 502" d="M535.006,2239.271l.2-1.245c-33.035-5.665-76.236-16.848-99.445-22.855-18.784-4.862-18.821-4.824-19.241-4.342l.446.426.107.609c.8-.023,8.566,1.986,18.4,4.531C458.692,2222.406,501.923,2233.6,535.006,2239.271Z" transform="translate(-416.517 -2107.132)" fill="#7783f0"/>
            <path id="Path_503" data-name="Path 503" d="M750.488,1933.78c-14.135-26.106-16.709-48.92-16.379-63.46.359-15.839,4.209-26.2,4.968-27.1l-.354-.322-.064-.791c-.362.032-.576.327-.847.86-3.869,7.635-13.234,45.529,11.621,91.435Z" transform="translate(-658.413 -1825.321)" fill="#7783f0"/>
            <path id="Path_504" data-name="Path 504" d="M1432.323,2321.652l.849-.9c-40.757-41.812-43.751-110.05-43.146-137.448.032-1.471.041-1.948.01-2.167l-1.2.188.6-.094-.6.09c.018.157,0,.99-.022,1.954a269.172,269.172,0,0,0,4.557,56.795C1400.021,2274.509,1413.125,2301.957,1432.323,2321.652Z" transform="translate(-1160.002 -2084.587)" fill="#7783f0"/>
            <path id="Path_505" data-name="Path 505" d="M1111.5,2703.185l-.4-.457.205.587-.694-.214,0-.754.005-.006c.586-.611,41.893-31.32,84.961-15.356l-.405,1.188C1152.527,2672.368,1111.868,2702.861,1111.5,2703.185Zm-.407-.464-.207-.591Z" transform="translate(-947.303 -2467.906)" fill="#7783f0"/>
            <path id="Path_506" data-name="Path 506" d="M1903.12,2849.15c-7.53-9.1-16.586-27.779-16.97-65.072-.022-2.116-.022-2.116-.252-2.341l-.827.921.413-.46-.582.152c.021.146.029.886.038,1.741.388,37.674,9.6,56.621,17.262,65.882Z" transform="translate(-1539.427 -2543.879)" fill="#7783f0"/>
            <path id="Path_507" data-name="Path 507" d="M1666.028,2982.932l.7-1.031c-17.495-12.849-49.282-6.4-66.673-1.417-.552.158-.906.261-1.039.289l.241,1.236c.143-.03.525-.139,1.119-.309C1617.558,2976.773,1648.94,2970.381,1666.028,2982.932Z" transform="translate(-1320.8 -2691.197)" fill="#7783f0"/>
          </g>
        </g>
      </g>
    </g>
  </g>
  <g id="Group_153" data-name="Group 153" transform="translate(447.382 181.588)">
    <path id="Path_509" data-name="Path 509" d="M2398.173,1354.763l2.943-6.483c1.1-2.43.448-5.348-1.465-6.524l-7.621-4.682a83.97,83.97,0,0,0,4.237-18.433l8.506-.6c2.193-.154,3.964-2.446,3.964-5.12v-7.111c0-2.674-1.772-4.741-3.964-4.615l-8.283.474a78.091,78.091,0,0,0-3.844-18.337l7-5.2a4.377,4.377,0,0,0,.616-.564l.9,2.33,11.506-14.148-15.021-1.282a3.711,3.711,0,0,0-2.484-1.478,3.517,3.517,0,0,0-2.5.691l-6.919,5.028a63.413,63.413,0,0,0-11.419-13.686l.521-1.088,10.576,2.16,1.343-17.508-16.061-2.651a3.956,3.956,0,0,0-4.951,2.286l-3.991,8.232c-5.13-2.55-.879-5.235-6.709-6.012l6.1-8.979c0-2.8-17.86-4.662-20.273-4.662h-6.458c-2.445,0-4.432,2.3-4.432,5.136v9.615a57.278,57.278,0,0,0-17.317,5.621l11.031-8.105s-19.43-3.681-21.641-2.22l-5.913,3.907a5.679,5.679,0,0,0-1.711,7.214l4.472,8.654a50.718,50.718,0,0,0-10.683,12.629l-10.389-2.346a4.646,4.646,0,0,0-6.573,2.145l-3.559,6.933a5.559,5.559,0,0,0,1.776,7.264l8.376,5.021a84.03,84.03,0,0,0-4.573,20.441l-10.049.575a5.547,5.547,0,0,0-4.905,5.684v7.936a4.833,4.833,0,0,0,4.165,5.043l11.419,1.83a76.055,76.055,0,0,0,4.671,16.811l-9.1,6.616a5.981,5.981,0,0,0-1.776,7.49l3.559,6.48c1.333,2.428,22.5,3.905,22.5,3.905l-6.72-9.425a60.958,60.958,0,0,0,12.7,12.712l-5.305,10.941c-1.293,2.667-.525,5.8,1.711,7l5.913,3.154a3.83,3.83,0,0,0,1.163.393l-.024.111,18.446,2.273,1.8-13.922a52.437,52.437,0,0,0,6.537.591v11.91a4.482,4.482,0,0,0,2.687,4.378l-.081.348,18.275,2.281.365-22.581a60.44,60.44,0,0,0,9.647-4.694l4.872,9.427a3.676,3.676,0,0,0,2.68,2.04l17.661,2.394-6.049-16.647-2.441.749-4.025-7.893a75.482,75.482,0,0,0,11.2-14.253l7.882,4.725C2394.6,1358.256,2397.062,1357.208,2398.173,1354.763Zm-60.519-6.1c-17.291,1.54-31.633-13.632-31.633-33.923s14.342-37.265,31.633-37.9c16.865-.617,30.235,14.616,30.235,34.011S2354.519,1347.16,2337.654,1348.663Zm73.85-38.962,11.965-5.663-11.965-1.452Zm-14.687,48.338,13.688,1.846,2-4.667-11.339-6.892Z" transform="translate(-2258.327 -1226.808)" fill="#bfc8d6"/>
    <path id="Path_510" data-name="Path 510" d="M2482.467,1313.158l-8.237.476a78.014,78.014,0,0,0-3.823-18.283l6.965-5.184a5.6,5.6,0,0,0,1.457-6.692l-2.927-6.09c-1.1-2.3-3.555-3.028-5.479-1.625l-6.879,5.017a63.153,63.153,0,0,0-11.355-13.642l3.958-8.292a5.479,5.479,0,0,0-1.508-6.734l-5.269-3.593c-1.992-1.358-4.548-.525-5.705,1.869l-3.969,8.211a52.169,52.169,0,0,0-16.427-5.045v-9.481c0-2.8-1.938-5.064-4.338-5.062l-6.421,0c-2.43,0-4.407,2.295-4.407,5.123v9.587a56.862,56.862,0,0,0-17.218,5.613l-4.29-8.435a4.272,4.272,0,0,0-6.259-1.856l-5.878,3.9a5.673,5.673,0,0,0-1.7,7.194l4.447,8.627a73.948,73.948,0,0,0-12.9,15.218l-8.046-4.954a4.614,4.614,0,0,0-6.535,2.141l-3.539,6.915a5.551,5.551,0,0,0,1.766,7.242l8.328,5a83.994,83.994,0,0,0-4.547,20.384l-9.991.577a5.529,5.529,0,0,0-4.877,5.669v7.913c0,2.975,2.187,5.233,4.877,5.043l10.256-.726a76.5,76.5,0,0,0,5.005,19.291l-9.051,6.6a5.976,5.976,0,0,0-1.766,7.469l3.539,6.46a4.294,4.294,0,0,0,6.535,1.3l9.153-6.812a60.657,60.657,0,0,0,12.625,12.67l-5.274,10.911c-1.286,2.66-.522,5.787,1.7,6.975l5.878,3.143c2.2,1.175,5-.02,6.259-2.661l5.229-10.953a51.829,51.829,0,0,0,16.278,3.079v11.876c0,2.828,1.977,4.868,4.407,4.557l6.421-.822c2.4-.307,4.338-2.823,4.338-5.62v-11.744a58.766,58.766,0,0,0,15.552-6.591l4.844,9.4a3.6,3.6,0,0,0,5.705,1.136l5.269-4.27a5.88,5.88,0,0,0,1.508-6.928l-4.7-9.243a75.271,75.271,0,0,0,11.139-14.216l7.837,4.708c1.924,1.156,4.375.11,5.479-2.329l2.927-6.466c1.1-2.424.446-5.333-1.457-6.5l-7.577-4.665a83.945,83.945,0,0,0,4.213-18.382l8.458-.6c2.18-.154,3.942-2.44,3.942-5.107v-7.092C2486.409,1315.092,2484.647,1313.032,2482.467,1313.158Zm-66.737,47.357c-17.192,1.542-31.451-13.58-31.451-33.812s14.259-37.163,31.451-37.8c16.769-.622,30.062,14.562,30.062,33.9S2432.5,1359.01,2415.73,1360.514Z" transform="translate(-2318.383 -1236.138)" fill="#d8dee8"/>
  </g>
  <g id="Group_154" data-name="Group 154" transform="translate(247.943 50.854)">
    <path id="Path_511" data-name="Path 511" d="M1597.747,842.338l3.938-8.673c1.476-3.251.6-7.155-1.96-8.729l-10.2-6.264a112.373,112.373,0,0,0,5.669-24.661l11.381-.8c2.933-.206,5.3-3.272,5.3-6.85v-9.514c0-3.578-2.371-6.342-5.3-6.175l-11.083.634a104.491,104.491,0,0,0-5.143-24.534l9.371-6.951a5.878,5.878,0,0,0,.825-.755l1.2,3.117,15.393-18.929-20.1-1.715a4.964,4.964,0,0,0-3.323-1.977,4.707,4.707,0,0,0-3.348.925l-9.257,6.727a84.822,84.822,0,0,0-15.279-18.31l.7-1.456,14.149,2.89,1.8-23.424L1561,683.371c-2.471-.952-5.265.254-6.625,3.058l-5.341,11.014c-6.863-3.411-1.176-7-8.976-8.044l8.158-12.014c0-3.743-23.9-6.238-27.123-6.238h-8.641c-3.271,0-5.93,3.077-5.93,6.871v12.864a76.634,76.634,0,0,0-23.168,7.521l14.759-10.844s-26-4.925-28.953-2.971l-7.911,5.227a7.6,7.6,0,0,0-2.289,9.651l5.984,11.579c-6.549,5.832-9.336,9.2-14.293,16.9l-13.9-3.138c-3.07-1.886-7.01-.607-8.795,2.869l-4.762,9.276c-1.8,3.5-.73,7.856,2.376,9.718l11.207,6.718a112.389,112.389,0,0,0-6.119,27.348l-13.445.769c-3.619.207-6.563,3.612-6.563,7.6v10.618c0,3.62,2.423,6.44,5.573,6.747l15.277,2.449a101.755,101.755,0,0,0,6.25,22.491l-12.18,8.852a8,8,0,0,0-2.376,10.02l4.762,8.67c1.784,3.249,30.1,5.225,30.1,5.225l-8.991-12.61a81.558,81.558,0,0,0,16.99,17.007l-7.1,14.638c-1.73,3.569-.7,7.764,2.289,9.36l7.911,4.22a5.122,5.122,0,0,0,1.555.526l-.031.148,24.679,3.041,2.414-18.627a70.149,70.149,0,0,0,8.746.791v15.934a6,6,0,0,0,3.595,5.857l-.108.465,24.45,3.052.489-30.211a80.891,80.891,0,0,0,12.907-6.28l6.519,12.613a4.919,4.919,0,0,0,3.585,2.729l23.629,3.2-8.093-22.272-3.266,1-5.385-10.56a100.956,100.956,0,0,0,14.989-19.069l10.546,6.321C1592.963,847.011,1596.262,845.61,1597.747,842.338Zm-80.968-8.161c-23.134,2.061-42.322-18.238-42.322-45.386s19.188-49.857,42.322-50.7c22.564-.825,40.451,19.555,40.451,45.5S1539.343,832.167,1516.779,834.177Zm98.8-52.128,16.008-7.577-16.008-1.942Zm-19.65,64.671,18.313,2.47,2.673-6.244-15.171-9.222Z" transform="translate(-1410.647 -671.147)" fill="#bfc8d6"/>
    <path id="Path_512" data-name="Path 512" d="M1710.525,786.674l-11.02.636a104.386,104.386,0,0,0-5.114-24.461l9.318-6.935a7.492,7.492,0,0,0,1.949-8.953l-3.915-8.147c-1.477-3.073-4.757-4.05-7.33-2.174l-9.2,6.712a84.477,84.477,0,0,0-15.192-18.251l5.3-11.094c1.519-3.183.618-7.212-2.018-9.01l-7.049-4.807c-2.665-1.817-6.085-.7-7.633,2.5l-5.31,10.985a69.792,69.792,0,0,0-21.978-6.75V694.242c0-3.742-2.594-6.774-5.8-6.773l-8.591,0c-3.252,0-5.9,3.07-5.9,6.854v12.827a76.07,76.07,0,0,0-23.035,7.51l-5.739-11.285c-1.687-3.316-5.433-4.433-8.373-2.483l-7.865,5.215a7.591,7.591,0,0,0-2.276,9.625l5.949,11.543a98.925,98.925,0,0,0-17.264,20.36l-10.765-6.628c-3.053-1.88-6.97-.6-8.744,2.865l-4.734,9.251c-1.786,3.491-.726,7.834,2.362,9.689l11.142,6.693a112.376,112.376,0,0,0-6.084,27.271l-13.367.772c-3.6.208-6.525,3.6-6.525,7.585v10.587c0,3.981,2.927,7,6.525,6.747l13.721-.971a102.371,102.371,0,0,0,6.7,25.809l-12.109,8.831a8,8,0,0,0-2.362,9.992l4.734,8.643a5.746,5.746,0,0,0,8.744,1.741l12.245-9.113a81.154,81.154,0,0,0,16.892,16.951l-7.057,14.6c-1.721,3.559-.7,7.742,2.276,9.332l7.865,4.2c2.94,1.572,6.687-.026,8.374-3.56l7-14.654a69.334,69.334,0,0,0,21.779,4.12v15.889c0,3.784,2.644,6.513,5.9,6.1l8.591-1.1c3.21-.411,5.8-3.777,5.8-7.519V896.047a78.631,78.631,0,0,0,20.807-8.819l6.481,12.575a4.813,4.813,0,0,0,7.633,1.52l7.049-5.713a7.867,7.867,0,0,0,2.018-9.269l-6.289-12.366a100.705,100.705,0,0,0,14.9-19.02l10.486,6.3c2.574,1.546,5.853.147,7.33-3.116l3.915-8.65c1.468-3.243.6-7.135-1.949-8.7l-10.138-6.242a112.32,112.32,0,0,0,5.637-24.593l11.316-.8c2.917-.206,5.274-3.265,5.274-6.833v-9.487C1715.8,789.262,1713.442,786.506,1710.525,786.674Zm-89.288,63.359c-23,2.064-42.079-18.169-42.079-45.238s19.077-49.721,42.079-50.575c22.435-.833,40.22,19.482,40.22,45.356S1643.672,848.02,1621.237,850.033Z" transform="translate(-1490.997 -683.629)" fill="#d8dee8"/>
  </g>
  <g id="Group_157" data-name="Group 157" transform="translate(81.833 159.391)">
    <path id="Path_513" data-name="Path 513" d="M1088.712,1333.66c.242,109.681-58.057,199.188-161.883,202.132-1.6.046-28.1,0-29.716,0-106.063.258-192.244-89.82-192.49-201.2s85.536-201.873,191.6-202.131c2.48-.006,25.762.224,28.219.316C1027.081,1136.616,1088.471,1224.888,1088.712,1333.66Z" transform="translate(-704.622 -1132.464)" fill="url(#linear-gradient-4)"/>
    <ellipse id="Ellipse_5" data-name="Ellipse 5" cx="192.045" cy="201.664" rx="192.045" ry="201.664" transform="translate(35.904 1.803)" fill="url(#linear-gradient-5)"/>
    <ellipse id="Ellipse_6" data-name="Ellipse 6" cx="187.207" cy="196.584" rx="187.207" ry="196.584" transform="translate(40.742 6.883)" opacity="0.3" fill="url(#linear-gradient-6)" style="mix-blend-mode: multiply;isolation: isolate"/>
    <ellipse id="Ellipse_7" data-name="Ellipse 7" cx="181.555" cy="190.649" rx="181.555" ry="190.649" transform="translate(46.394 6.818)" fill="url(#linear-gradient-7)"/>
    <ellipse id="Ellipse_8" data-name="Ellipse 8" cx="177.674" cy="186.573" rx="177.674" ry="186.573" transform="translate(46.394 16.894)" fill="url(#linear-gradient-8)"/>
    <g id="Group_155" data-name="Group 155" transform="translate(242.827 46.467)">
      <path id="Path_514" data-name="Path 514" d="M1736.715,1481.62l135.342,52.483a164.62,164.62,0,0,0,6.782-46.947c0-84.194-62.951-152.948-142.124-157.193Z" transform="translate(-1736.715 -1329.963)" fill="url(#linear-gradient-9)"/>
    </g>
    <g id="Group_156" data-name="Group 156" transform="translate(35.904 9.881)" opacity="0.54" style="mix-blend-mode: multiply;isolation: isolate">
      <path id="Path_515" data-name="Path 515" d="M1000.778,1363.814c-14.051-45.506,36.75-78.346,28.74-131.387-3.535-23.4-17.288-42.582-34.2-57.966-79.962,24.532-138.294,102.186-138.091,194.054.246,111.376,86.427,201.454,192.49,201.2a183.581,183.581,0,0,0,73.385-15.454c-3.274-64.366-23.019-100.725-44.015-122.63C1046.725,1397.866,1011.492,1398.513,1000.778,1363.814Z" transform="translate(-857.225 -1174.461)" fill="#d8dee8"/>
    </g>
    <ellipse id="Ellipse_9" data-name="Ellipse 9" cx="11.297" cy="11.863" rx="11.297" ry="11.863" transform="translate(212.272 194.525)" fill="url(#linear-gradient-10)"/>
    <path id="Path_516" data-name="Path 516" d="M1631.657,1607.879a7.324,7.324,0,0,0-7.139,7.5v79.964a7.148,7.148,0,1,0,14.278,0v-79.964A7.324,7.324,0,0,0,1631.657,1607.879Z" transform="translate(-1408.089 -1496.025)" fill="url(#linear-gradient-11)"/>
    <path id="Path_517" data-name="Path 517" d="M1228.164,1882.08l-127.906-37.6a4.538,4.538,0,0,0-5.533,2.792,4.036,4.036,0,0,0,2.632,5.284l127.906,37.6a4.538,4.538,0,0,0,5.533-2.792A4.036,4.036,0,0,0,1228.164,1882.08Z" transform="translate(-1002.75 -1676.812)" fill="url(#linear-gradient-12)"/>
  </g>
  <g id="Group_165" data-name="Group 165" transform="translate(0 391.057)">
    <g id="Group_164" data-name="Group 164" clip-path="url(#clip-path-2)">
      <g id="Group_163" data-name="Group 163" transform="translate(4.237 69.312)">
        <g id="Group_162" data-name="Group 162">
          <g id="Group_161" data-name="Group 161">
            <path id="Path_518" data-name="Path 518" d="M741.882,2590.113c2.7-3.072,5.855-12.132,5.7-14.833-1-17.976-.689-51.755-14.083-65.277-2.288-2.31-15.163,5.011-18.657,4.118-9.342,2.675-12.417,4.183-22.548,2.363-29.908-5.373-27.077-67.389-75.1-46.041-35.174,15.637-50.1,45.636-84.815.221s-137.319-93.537-156.234-23.891c-10.855,39.97,47.52,53.19,57.807,91.789,9.776,36.678,39.081,48.162,79.663,39.614s36.465,15.969,49.931,47.149c16.175,37.454,65.52,3.176,86.952-14.592C667.765,2596.424,721.363,2571.633,741.882,2590.113Z" transform="translate(-374.814 -2411.72)" fill="url(#linear-gradient-2)"/>
            <g id="Group_160" data-name="Group 160" clip-path="url(#clip-path-3)">
              <g id="Group_159" data-name="Group 159" transform="translate(1.313 -15.354)">
                <g id="Group_158" data-name="Group 158">
                  <path id="Path_519" data-name="Path 519" d="M745.515,2581.367l-.231-.838c-129.093,35.5-265.257-9.442-364.24-120.214l-.649.579c46.911,52.5,104.41,91.636,166.281,113.182C611.722,2596.73,680.479,2599.251,745.515,2581.367Z" transform="translate(-380.396 -2433.529)" fill="#fcfdfe"/>
                  <path id="Path_520" data-name="Path 520" d="M1195.576,3106.179c18.574-31.559,62.052-70.247,96.92-86.24l-.363-.79c-35,16.057-78.656,54.9-97.307,86.589Z" transform="translate(-1003.211 -2860.882)" fill="#fcfdfe"/>
                  <path id="Path_521" data-name="Path 521" d="M1522.962,2711.739l.01-.869c-19.938-.249-38.985-10.568-56.61-30.67-12.924-14.74-24.8-34.3-35.291-58.135l-.8.351c10.529,23.917,22.45,43.552,35.432,58.357C1483.5,2701.069,1502.766,2711.487,1522.962,2711.739Z" transform="translate(-1183.265 -2557.222)" fill="#fcfdfe"/>
                  <path id="Path_522" data-name="Path 522" d="M747.142,2925.942l.056-.868c-37.558-2.4-71.485,17.977-93.333,35.495l.544.679C676.137,2943.825,709.862,2923.558,747.142,2925.942Z" transform="translate(-589.524 -2788.792)" fill="#fcfdfe"/>
                  <path id="Path_523" data-name="Path 523" d="M600.775,2444.456l.609-.62c-30.242-29.716-36.6-73.763-37.7-97.375l-.868.04C563.922,2370.24,570.321,2414.532,600.775,2444.456Z" transform="translate(-519.898 -2346.461)" fill="#fcfdfe"/>
                </g>
              </g>
            </g>
          </g>
        </g>
      </g>
    </g>
  </g>
  <g id="Group_170" data-name="Group 170" transform="translate(70.904 225.968)">
    <g id="Group_166" data-name="Group 166" transform="translate(467.779)">
      <path id="Path_525" data-name="Path 525" d="M2755.161,1524.075l-15.924-107.5-35.6,3.58c-3-.558-8.713,2.566-10.063,5.718l-46.743,108.92c-1.448,3.379.774,7.256,4.137,7.234l13.347-.561v253.886c0,4.523,3.286,7.771,7.326,7.255l32,7.112c3.827-.495,39.657-19.8,39.657-24.16v-254.5l8.091-.042C2754.458,1531,2756.474,1527.283,2755.161,1524.075Z" transform="translate(-2646.385 -1416.306)" fill="url(#linear-gradient-14)"/>
      <path id="Path_526" data-name="Path 526" d="M2757.917,1942.542l-35.305,1.143v253.886c0,4.523,3.286,7.771,7.326,7.255l32,7.112c1.575-.2,8.594-3.605,16.3-7.835Z" transform="translate(-2704.678 -1818.527)" opacity="0.3" fill="url(#linear-gradient-15)" style="mix-blend-mode: multiply;isolation: isolate"/>
      <path id="Path_527" data-name="Path 527" d="M2919.684,1531.983l-46.259-113.532c-1.56-3.829-6.247-4.068-7.816-.386l-48.683,114.248c-1.432,3.36.766,7.217,4.093,7.2l8.682-.056v262.624c0,4.5,3.255,7.73,7.256,7.213l64.182-8.3c3.758-.486,6.794-4.4,6.794-8.74v-253.3l8.015-.052C2918.987,1538.875,2920.984,1535.175,2919.684,1531.983Z" transform="translate(-2776.461 -1415.436)" fill="url(#linear-gradient-16)"/>
    </g>
    <g id="Group_167" data-name="Group 167" transform="translate(381.389 174.537)">
      <path id="Path_528" data-name="Path 528" d="M2320.254,2390.087l-33.429-7.766c-4.207.537-7.628-2.673-7.628-7.172V2167.761a8.191,8.191,0,0,1,7.628-8.371l71.679-2.108c3.937-.116,37.275,1.771,37.275,1.771l-30.156,205.363C2365.623,2368.749,2320.254,2390.087,2320.254,2390.087Z" transform="translate(-2279.197 -2157.277)" fill="url(#linear-gradient-17)"/>
      <path id="Path_529" data-name="Path 529" d="M2512.047,2385.9l-70.992,9.18c-4.166.539-7.555-2.653-7.555-7.13V2174.478c0-4.478,3.389-8.208,7.555-8.332l70.992-2.114c3.9-.116,7.05,3.285,7.05,7.6V2377.18C2519.1,2381.491,2515.947,2385.394,2512.047,2385.9Z" transform="translate(-2397.196 -2162.441)" fill="url(#linear-gradient-18)"/>
    </g>
    <g id="Group_168" data-name="Group 168" transform="translate(266.785 247.567)">
      <path id="Path_530" data-name="Path 530" d="M1835.743,2642l-35.253-7.775a7.3,7.3,0,0,1-8.4-7.475l1.065-145.318a9.117,9.117,0,0,1,8.4-9.047l78.748-4.7c4.318-.257,40.546,4.732,40.546,4.732l-33.777,142.537C1887.07,2619.494,1840.113,2641.437,1835.743,2642Z" transform="translate(-1792.093 -2467.678)" fill="url(#linear-gradient-19)"/>
      <path id="Path_531" data-name="Path 531" d="M2037.446,2641.777l-78,10.087a7.234,7.234,0,0,1-8.315-7.43v-149.95a9.06,9.06,0,0,1,8.315-9.008l78-4.707a7.407,7.407,0,0,1,7.734,7.708V2632.6A9.331,9.331,0,0,1,2037.446,2641.777Z" transform="translate(-1913.709 -2477.678)" fill="url(#linear-gradient-20)"/>
    </g>
    <g id="Group_169" data-name="Group 169" transform="translate(140.304 329.146)">
      <path id="Path_532" data-name="Path 532" d="M1296.792,2921.985l-32.994-6.566c-5.122.654-9.289-2.84-9.289-7.8V2832.1a10.218,10.218,0,0,1,9.289-9.826l86.969-7.83c4.76-.428,37.713,3.429,37.713,3.429l-29.107,76.716C1359.373,2899.355,1301.62,2921.362,1296.792,2921.985Z" transform="translate(-1254.509 -2814.414)" fill="url(#linear-gradient-21)"/>
      <path id="Path_533" data-name="Path 533" d="M1514.152,2923.1l-86.109,11.135c-5.071.656-9.2-2.816-9.2-7.757v-79.857a10.153,10.153,0,0,1,9.2-9.782l86.109-7.829a7.676,7.676,0,0,1,8.522,7.806v76.6A10.025,10.025,0,0,1,1514.152,2923.1Z" transform="translate(-1380.181 -2825.552)" fill="url(#linear-gradient-22)"/>
    </g>
    <path id="Path_534" data-name="Path 534" d="M765.016,3006.234,668.5,3016.2a11.851,11.851,0,0,0-9.332,6.4,9.418,9.418,0,0,0-1,4.144v41.494c0,5.236,4.432,9.526,10.329,11.616l34.105,6.778c5.358-.692,71.943-24.381,71.943-29.393L790.543,3038l16.19-27.414S770.289,3005.69,765.016,3006.234Z" transform="translate(-658.17 -2631.925)" fill="url(#linear-gradient-23)"/>
    <path id="Path_535" data-name="Path 535" d="M934.262,3090.268l-95.547,12.355c-5.637.729-10.225-2.9-10.225-8.111v-48.13c0-5.21,4.587-9.912,10.225-10.5l95.547-9.972c5.22-.545,9.437,3.058,9.437,8.044v46.065C943.7,3085.005,939.482,3089.593,934.262,3090.268Z" transform="translate(-788.418 -2646.962)" fill="url(#linear-gradient-24)"/>
  </g>
</svg>
