<svg xmlns="http://www.w3.org/2000/svg" width="102.556" height="102.554" viewBox="0 0 102.556 102.554"><g transform="translate(-6318.877 -2773.624)"><g transform="translate(6291 2741)"><path d="M130.433,135.178H36.217V40.963h94.216ZM38.6,132.794h89.446V43.347H38.6Z" fill="#feb848"/></g><g transform="translate(6291 2741)"><path d="M120.9,126.84H108.978a1.192,1.192,0,1,1,0-2.384H119.71V113.723a1.193,1.193,0,0,1,2.385,0v11.925A1.192,1.192,0,0,1,120.9,126.84Z" fill="#feb848"/><path d="M108.978,126.836H81.787a1.191,1.191,0,1,1,0-2.381h27.191a1.19,1.19,0,0,1,0,2.381Zm-40.79,0a1.19,1.19,0,1,1,1.189-1.191A1.188,1.188,0,0,1,68.188,126.836Z" fill="#feb848"/><path d="M41,126.84H29.072a1.192,1.192,0,0,1-1.193-1.192V113.723a1.193,1.193,0,0,1,2.385,0v10.733H41a1.192,1.192,0,1,1,0,2.384Z" fill="#feb848"/><path d="M29.068,114.915a1.2,1.2,0,0,1-1.191-1.19V86.535a1.2,1.2,0,1,1,2.391,0v27.19A1.2,1.2,0,0,1,29.068,114.915Zm0-40.79a1.19,1.19,0,1,1,1.2-1.19A1.193,1.193,0,0,1,29.068,74.125Z" fill="#feb848"/><path d="M29.072,46.934a1.192,1.192,0,0,1-1.193-1.192V33.817a1.193,1.193,0,0,1,1.193-1.193H41a1.192,1.192,0,1,1,0,2.385H30.264V45.742A1.192,1.192,0,0,1,29.072,46.934Z" fill="#feb848"/><path d="M81.787,35.006a1.191,1.191,0,1,1,1.191-1.19A1.2,1.2,0,0,1,81.787,35.006Zm-13.6,0H41a1.191,1.191,0,0,1,0-2.381H68.188a1.191,1.191,0,0,1,0,2.381Z" fill="#feb848"/><path d="M120.9,46.934a1.193,1.193,0,0,1-1.193-1.192V35.009H108.978a1.192,1.192,0,1,1,0-2.385H120.9a1.193,1.193,0,0,1,1.192,1.193V45.742A1.192,1.192,0,0,1,120.9,46.934Z" fill="#feb848"/><path d="M120.908,87.725a1.195,1.195,0,1,1,1.19-1.2A1.2,1.2,0,0,1,120.908,87.725Zm0-13.6a1.2,1.2,0,0,1-1.2-1.19V45.745a1.2,1.2,0,1,1,2.391,0v27.19A1.193,1.193,0,0,1,120.908,74.125Z" fill="#feb848"/></g></g></svg>