<svg id="whatsapp" xmlns="http://www.w3.org/2000/svg" width="512" height="512" viewBox="0 0 512 512">
  <path id="Path_545" data-name="Path 545" d="M0,512,35.31,384C12.359,344.276,0,300.138,0,254.234,0,114.759,114.759,0,255.117,0S512,114.759,512,254.234,395.476,512,255.117,512c-44.138,0-86.51-14.124-124.469-35.31Z" fill="#ededed"/>
  <path id="Path_546" data-name="Path 546" d="M137.71,430.786l7.945,4.414c32.662,20.3,70.621,32.662,110.345,32.662,115.641,0,211.862-96.221,211.862-213.628s-96.221-210.1-212.745-210.1S44.138,137.71,44.138,254.234A213.848,213.848,0,0,0,76.8,368.11l5.3,7.945-20.3,74.152Z" fill="#55cd6c"/>
  <path id="Path_547" data-name="Path 547" d="M187.145,135.945l-16.772-.883c-5.3,0-10.593,1.766-14.124,5.3-7.945,7.062-21.186,20.3-24.717,37.959-6.179,26.483,3.531,58.262,26.483,90.041s67.09,82.979,144.772,105.048c24.717,7.062,44.138,2.648,60.028-7.062A52.084,52.084,0,0,0,385.767,332.8l2.648-12.359a8.874,8.874,0,0,0-4.414-9.71l-55.614-25.6a8.423,8.423,0,0,0-10.593,2.648l-22.069,28.248a6.866,6.866,0,0,1-7.062,1.766c-15.007-5.3-65.324-26.483-92.69-79.448-.883-2.648-.883-5.3.883-7.062l21.186-23.834c1.766-2.648,2.648-6.179,1.766-8.828l-25.6-57.379a7.692,7.692,0,0,0-7.063-5.3" fill="#fefefe"/>
</svg>
