<svg xmlns="http://www.w3.org/2000/svg" width="29.244" height="24.75" viewBox="0 0 29.244 24.75">
  <g id="Icon_ionic-ios-log-out" data-name="Icon ionic-ios-log-out" transform="translate(-3.375 -5.625)">
    <path id="Exclusion_1" data-name="Exclusion 1" d="M444.542,4556.375H431.464a3.238,3.238,0,0,1-3.235-3.234v-18.282a3.238,3.238,0,0,1,3.235-3.234h13.078a3.237,3.237,0,0,1,3.234,3.234.985.985,0,0,1-1.969,0,1.266,1.266,0,0,0-1.265-1.265H431.464a1.267,1.267,0,0,0-1.266,1.265v18.282a1.267,1.267,0,0,0,1.266,1.265h13.078a1.266,1.266,0,0,0,1.265-1.265.985.985,0,0,1,1.969,0A3.237,3.237,0,0,1,444.542,4556.375Zm5.969-5.2a1.015,1.015,0,0,1-.69-.274l-.007-.007a.99.99,0,0,1,0-1.392l4.472-4.508H436.245a.984.984,0,1,1,0-1.969h18.022l-4.584-4.514a.979.979,0,0,1,0-1.393.963.963,0,0,1,.7-.288.976.976,0,0,1,.7.288l5.942,5.921a1.38,1.38,0,0,1,0,2.053l-5.808,5.794A.954.954,0,0,1,450.511,4551.172Z" transform="translate(-424.854 -4526)"/>
  </g>
</svg>
