<svg xmlns="http://www.w3.org/2000/svg" width="500" height="372.608" viewBox="0 0 500 372.608"><g transform="translate(0 -54.953)"><rect width="500" height="0.25" transform="translate(0 382.398)" fill="#ebebeb"/><rect width="50.901" height="0.25" transform="translate(394.358 393.852)" fill="#ebebeb"/><rect width="47.208" height="0.25" transform="translate(52.459 390.888)" fill="#ebebeb"/><rect width="19.192" height="0.25" transform="translate(378.807 389.208)" fill="#ebebeb"/><rect width="14.082" height="0.25" transform="translate(317.138 395.838)" fill="#ebebeb"/><rect width="35.444" height="0.25" transform="translate(272.79 395.838)" fill="#ebebeb"/><rect width="56.986" height="0.25" transform="translate(195.222 391.616)" fill="#ebebeb"/><path d="M237.014,337.8H43.915a5.715,5.715,0,0,1-5.708-5.708V60.66a5.714,5.714,0,0,1,5.708-5.707h193.1a5.714,5.714,0,0,1,5.707,5.707V332.092A5.715,5.715,0,0,1,237.014,337.8ZM43.915,55.2a5.463,5.463,0,0,0-5.458,5.457V332.092a5.464,5.464,0,0,0,5.458,5.458h193.1a5.463,5.463,0,0,0,5.457-5.458V60.66a5.463,5.463,0,0,0-5.457-5.457Z" fill="#ebebeb"/><path d="M453.31,337.8h-193.1a5.714,5.714,0,0,1-5.707-5.708V60.66a5.713,5.713,0,0,1,5.707-5.707h193.1a5.714,5.714,0,0,1,5.709,5.707V332.092A5.715,5.715,0,0,1,453.31,337.8ZM260.212,55.2a5.463,5.463,0,0,0-5.457,5.457V332.092a5.463,5.463,0,0,0,5.457,5.458h193.1a5.464,5.464,0,0,0,5.459-5.458V60.66A5.464,5.464,0,0,0,453.31,55.2Z" fill="#ebebeb"/><ellipse cx="193.889" cy="11.323" rx="193.889" ry="11.323" transform="translate(56.111 404.915)" fill="#f5f5f5"/><rect width="91.19" height="9.217" rx="2.926" transform="translate(226.313 298.362)" fill="#263238"/><path d="M313.762,410.241H317.5L313.2,307.578h-5.176Z" fill="#3343E0"/><path d="M313.762,410.241H317.5L313.2,307.578h-5.176Z" fill="#fff" opacity="0.6"/><path d="M279.327,410.241h-3.741l4.306-102.663h5.176Z" fill="#3343E0"/><path d="M279.327,410.241h-3.741l4.306-102.663h5.176Z" fill="#fff" opacity="0.6"/><path d="M264.488,410.241h3.741l-4.306-102.663h-5.176Z" fill="#3343E0"/><path d="M264.488,410.241h3.741l-4.306-102.663h-5.176Z" fill="#fff" opacity="0.6"/><path d="M230.053,410.241h-3.74l4.306-102.663h5.176Z" fill="#3343E0"/><path d="M230.053,410.241h-3.74l4.306-102.663h5.176Z" fill="#fff" opacity="0.6"/><g opacity="0.3"><path d="M313.2,307.575h-5.182l.242,4.364h5.124Z" fill="#3343E0"/><path d="M279.71,311.939h5.114l.242-4.364h-5.173Z" fill="#3343E0"/><path d="M258.749,307.575l.242,4.364h5.115l-.184-4.364Z" fill="#3343E0"/><path d="M230.431,311.939h5.124l.242-4.364h-5.182Z" fill="#3343E0"/></g><path d="M262.085,395.154l-8.469,4.5-13.333-18.012,8.469-4.5Z" fill="#ffb573"/><path d="M250.565,396.872l8.835-6.144a.687.687,0,0,1,.957.132l5.289,6.693a1.7,1.7,0,0,1-.4,2.355c-3.113,2.087-4.516,2.814-8.586,5.23a138.272,138.272,0,0,1-12.194,6.615c-3.607,1.567-5.169-2.091-3.748-3.1,3.363-2.386,7.824-7.068,8.832-10.356A2.7,2.7,0,0,1,250.565,396.872Z" fill="#263238"/><path d="M248.758,377.147l-8.473,4.5,6.424,8.671,8.28-4.759Z" opacity="0.2"/><path d="M269.189,270.469s-65.742-2.046-65.967,25.422c-.323,39.482,37.146,91.324,37.146,91.324l14.588-9.748s-25.677-37.692-25.9-68.511c19.375-5.47,64.984-2.04,70.907-18.1,4.845-13.137,2.314-20.39,2.314-20.39Z" fill="#3343E0"/><path d="M269.189,270.469s-65.742-2.046-65.967,25.422c-.323,39.482,37.146,91.324,37.146,91.324l14.588-9.748s-25.677-37.692-25.9-68.511c19.375-5.47,64.984-2.04,70.907-18.1,4.845-13.137,2.314-20.39,2.314-20.39Z" opacity="0.2"/><path d="M258.981,379.976l-17.438,10.68-5.469-5.55,19.16-12.062Z" fill="#263238"/><path d="M248.73,400.181a12.009,12.009,0,0,0,1.9-1.738.224.224,0,0,0-.165-.373c-.373,0-3.658.027-4.356,1.071a.839.839,0,0,0-.066.816,1.227,1.227,0,0,0,.922.835A2.582,2.582,0,0,0,248.73,400.181Zm1.211-1.654c-1.212,1.259-2.278,1.936-2.9,1.826a.8.8,0,0,1-.586-.564.4.4,0,0,1,.024-.4C246.856,398.828,248.625,398.581,249.941,398.527Z" fill="#3343E0"/><path d="M250.592,398.476a.244.244,0,0,0,.07-.079.224.224,0,0,0-.005-.216c-.059-.1-1.455-2.486-2.78-2.7a1.115,1.115,0,0,0-.955.284.855.855,0,0,0-.279,1.017c.415.984,2.729,1.81,3.837,1.732A.223.223,0,0,0,250.592,398.476Zm-3.292-2.44a.665.665,0,0,1,.506-.113c.791.126,1.756,1.377,2.253,2.139-1.085-.1-2.733-.806-3.005-1.452-.052-.123-.08-.292.164-.51A.907.907,0,0,1,247.3,396.036Z" fill="#3343E0"/><path d="M246.429,406.194l-9.5-.45-1.556-22.435,9.5.45Z" fill="#ffb573"/><path d="M236.708,404.119l10.757-.341a.686.686,0,0,1,.73.632l.791,8.494a1.7,1.7,0,0,1-1.622,1.755c-3.747.054-5.543-.109-10.273.04-2.91.092-8.635.525-12.624.023-3.9-.492-3.379-4.435-1.643-4.577,4.11-.337,9.618-3.177,12.254-5.386A2.7,2.7,0,0,1,236.708,404.119Z" fill="#263238"/><path d="M233.368,405.894a11.957,11.957,0,0,0,2.54-.423.222.222,0,0,0,.064-.4c-.312-.2-3.081-1.97-4.236-1.474a.835.835,0,0,0-.5.648,1.225,1.225,0,0,0,.317,1.2A2.591,2.591,0,0,0,233.368,405.894Zm1.916-.727c-1.7.4-2.965.382-3.426-.048a.8.8,0,0,1-.183-.793.393.393,0,0,1,.237-.321C232.533,403.739,234.151,404.495,235.284,405.167Z" fill="#3343E0"/><path d="M235.858,405.478a.223.223,0,0,0,.215-.211c.006-.117.134-2.878-.862-3.778a1.114,1.114,0,0,0-.955-.282.857.857,0,0,0-.788.7c-.188,1.052,1.3,3.005,2.275,3.543A.232.232,0,0,0,235.858,405.478Zm-1.431-3.839a.659.659,0,0,1,.485.181c.6.536.723,2.111.725,3.021-.855-.677-1.853-2.165-1.73-2.854.023-.132.092-.289.416-.339A.954.954,0,0,1,234.427,401.639Z" fill="#3343E0"/><path d="M244.876,383.765l-9.507-.45.895,12.829,9.474-.016Z" opacity="0.2"/><path d="M292.575,270.469s-68.787,6.5-66.282,27.209c3.613,29.863,5.4,94.224,5.4,94.224l17.531.689s7.429-58.051,3.586-88.631c17.8,0,61.378,1.282,65.353-9.445,3.51-9.475,2.258-24.046,2.258-24.046Z" fill="#3343E0"/><path d="M251.16,393.671l-21.04-1.043-.756-9.158,23.074,1.593Z" fill="#263238"/><path d="M277.307,209.81c-.127,1.683-.261,3.138-.452,4.684q-.27,2.286-.629,4.554c-.469,3.03-1.061,6.047-1.764,9.072a72.044,72.044,0,0,1-6.6,18.22,32.9,32.9,0,0,1-3.084,4.587,21.175,21.175,0,0,1-4.541,4.228,22.737,22.737,0,0,1-11.075,3.735,31.9,31.9,0,0,1-10.285-.974,38.7,38.7,0,0,1-4.663-1.494c-.755-.29-1.495-.617-2.23-.956-.758-.344-1.41-.7-2.25-1.153l2.631-6.694,1.911.242,2,.2c1.335.106,2.658.171,3.953.175a27.886,27.886,0,0,0,7.214-.827,11.918,11.918,0,0,0,5.09-2.648,11.522,11.522,0,0,0,1.657-1.945,22.534,22.534,0,0,0,1.579-2.838,45.818,45.818,0,0,0,2.6-7.109c.755-2.535,1.371-5.188,1.919-7.881.565-2.69,1.019-5.434,1.453-8.186l.591-4.14c.173-1.357.371-2.811.5-4.043Z" fill="#ffb573"/><path d="M277.369,201.663c-7.032-6.795-15.7-2.784-19.159,9.942a118.088,118.088,0,0,0-4,20.873l22.27,4.607C280.531,224.938,284.571,208.622,277.369,201.663Z" fill="#263238"/><path d="M270.2,215.563c1.591-1.437,6.115,4.984,8.872,12.926-.778,2.969-1.673,5.891-2.581,8.6l-13.4-2.769C264.164,226.4,266.627,218.78,270.2,215.563Z" opacity="0.3"/><path d="M230.855,244.537l-4.956-1.909-.218,10.611s8.4,3.634,10.113-.54l-.6-2.647A8.6,8.6,0,0,0,230.855,244.537Z" fill="#ffb573"/><path d="M219.959,242.907l-2.951,8.9,8.672,1.427.218-10.611Z" fill="#ffb573"/><path d="M227.522,249.975a.578.578,0,0,1-.512-.311l-8.934-17.194a.577.577,0,1,1,1.024-.531l8.933,17.194a.577.577,0,0,1-.511.842Z" fill="#263238"/><path d="M276.543,194.848l10.674-3.045,13.728-.648a9.519,9.519,0,0,1,9.49,6.561c2.618,7.975,5.025,19.528,6.779,29.5,1.966,11.18,2.991,27.982,3.207,43.254H269.189c-1.169-31.848-5.223-50.679-7.02-61.1a9.494,9.494,0,0,1,5.279-10.189Z" fill="#263238"/><path d="M317.208,227.216c-1.378-7.847-3.158-16.684-5.136-23.977-9.131-1.543-13.556,18.483-10.845,28.413s17.168,3.913,17.168,3.913C318.046,232.551,317.65,229.741,317.208,227.216Z" opacity="0.3"/><path d="M285.4,171.012c2.2,5.4.874,15.3-3.463,12.5S284.061,167.715,285.4,171.012Z" fill="#263238"/><path d="M282.962,174.464l-4.149,6.332-5.646,8.63a8.706,8.706,0,0,1,1.745,2.555c1.031,2.079,1.883,3.634-2.48,6.609a2.9,2.9,0,0,0-1.31,2.862c.257,1.348,1.6,2.658,6.312,1.827a21.68,21.68,0,0,0,11.821-6.562c1.569-1.569,1.208-2.751-.3-4.375C284.671,187.738,283.39,180.39,282.962,174.464Z" fill="#ffb573"/><path d="M274.556,187.3l3.464-6.151c.071.153.153.33.236.507a15.49,15.49,0,0,1,.742,2.356c.637,2.734-1.484,6.634-3.817,8.495-.1-.176-.177-.353-.271-.53a10.343,10.343,0,0,0-1.6-2.451.565.565,0,0,0-.141-.106Z" opacity="0.2"/><path d="M253.787,167c-1.286,2.908,3.287,11.151,8.517,7.818S256.067,161.845,253.787,167Z" fill="#263238"/><path d="M279.007,205.052a.289.289,0,0,1-.285-.243c-.387-2.473-1.984-4.04-3.834-5.856-2.318-2.276-4.947-4.856-5.813-9.9a.289.289,0,0,1,.236-.333.281.281,0,0,1,.333.235c.834,4.863,3.391,7.374,5.648,9.589,1.843,1.81,3.583,3.518,4,6.178a.29.29,0,0,1-.24.33A.352.352,0,0,1,279.007,205.052Z" fill="#fff"/><path d="M281.13,164.073c1.956,9.059,3.563,14.269.325,20.033-4.871,8.67-17.076,7.491-21.715-.846-4.175-7.5-6.672-21.058,1.1-26.908A12.871,12.871,0,0,1,281.13,164.073Z" fill="#ffb573"/><path d="M283.821,170.293c-3.118,4.429-11.3-3.706-10.631-9.166-8.121,4.623-16.94,10.8-22.294,5.594-6.176-6-4.483-14.6,2.754-15.368-1.281,2.5,5.969,3.607,9.873-.256,6.549-6.481,16.9-5.123,16.7.128C285.222,149.24,290.674,160.559,283.821,170.293Z" fill="#263238"/><path d="M279.272,152.689c1.933-1.437.644-6.565-3.832-8.073C279.7,145.166,284.107,148.341,279.272,152.689Z" fill="#263238"/><path d="M286.707,169.89a8.487,8.487,0,0,1-1.892,5.712c-1.723,2.045-4.38.414-4.995-2.137-.554-2.3.164-5.843,2.419-6.941C284.462,165.442,286.591,167.314,286.707,169.89Z" fill="#ffb573"/><path d="M268.133,171.416c.241.735.052,1.471-.422,1.645s-1.054-.28-1.3-1.015-.052-1.471.422-1.645S267.892,170.682,268.133,171.416Z" fill="#263238"/><path d="M259.935,174.425c.241.734.052,1.471-.422,1.645s-1.054-.28-1.3-1.015-.052-1.471.422-1.645S259.694,173.69,259.935,174.425Z" fill="#263238"/><path d="M262.738,174.036a24.635,24.635,0,0,1-.761,6.5c1.47.535,3.092-.731,3.092-.731Z" fill="#ed893e"/><path d="M267.131,183.834a6.654,6.654,0,0,0,3.909-3.454.227.227,0,0,0-.42-.171,6.365,6.365,0,0,1-4.452,3.425.227.227,0,1,0,.1.443A7.613,7.613,0,0,0,267.131,183.834Z" fill="#263238"/><path d="M268.883,168.241a.446.446,0,0,0,.167-.154.455.455,0,0,0-.136-.627,4.36,4.36,0,0,0-4.077-.418.447.447,0,0,0-.215.6.454.454,0,0,0,.6.215,3.452,3.452,0,0,1,3.2.362A.452.452,0,0,0,268.883,168.241Z" fill="#263238"/><path d="M258.309,169.68a.452.452,0,0,0-.624-.47,4.354,4.354,0,0,0-2.667,3.112.448.448,0,0,0,.374.521.454.454,0,0,0,.521-.374,3.455,3.455,0,0,1,2.119-2.421A.452.452,0,0,0,258.309,169.68Z" fill="#263238"/><path d="M308.669,198.025c.963,1.618,1.8,3.072,2.629,4.633q1.236,2.309,2.412,4.644c1.584,3.111,3.016,6.308,4.385,9.566,1.329,3.276,2.583,6.618,3.625,10.125a56.908,56.908,0,0,1,2.268,11.254,27.206,27.206,0,0,1-.226,6.7,15.025,15.025,0,0,1-1.327,4.212,12.565,12.565,0,0,1-3.051,3.941,13.7,13.7,0,0,1-3.862,2.34,17.547,17.547,0,0,1-3.677,1.026,25.184,25.184,0,0,1-6.409.175,39.1,39.1,0,0,1-5.659-.915,54.384,54.384,0,0,1-5.26-1.484,65.46,65.46,0,0,1-9.859-4.171l2.536-6.73c6.217,1.175,12.9,2.268,18.5,1.925a15.774,15.774,0,0,0,3.622-.622c.972-.3,1.514-.749,1.472-.887-.008-.08-.06-.048-.085-.1s-.031-.11.024-.627a15,15,0,0,0-.2-3.355,46.82,46.82,0,0,0-2.233-8.375c-1.023-2.894-2.208-5.825-3.526-8.73-1.28-2.922-2.714-5.812-4.144-8.711q-1.086-2.169-2.228-4.311l-2.261-4.187Z" fill="#ffb573"/><path d="M303.984,191.313c-9.669-1.47-14.415,6.819-9.867,19.2a118.058,118.058,0,0,0,8.824,19.333l20.826-9.136C320.035,208.46,313.884,192.818,303.984,191.313Z" fill="#263238"/><path d="M281.843,242.386l-4.466,1.345,6.329,8.989s9.386-3.361,7.464-7.441l-2.359-1.344C286.789,242.783,284.233,241.567,281.843,242.386Z" fill="#ffb573"/><path d="M273.432,249.927l4.467,4.467,5.807-1.673-6.329-8.989Z" fill="#ffb573"/><ellipse cx="1.436" cy="1.74" rx="1.436" ry="1.74" transform="translate(281.743 169.272)" fill="#fff"/><path d="M284.373,175.612l-.834-.028-.511-4.011,1.586-.356Z" fill="#fff"/><path d="M290.114,251.2c-3.034,0-5.66-.442-7.278-1.9a5.784,5.784,0,0,1-1.741-4.508,46.693,46.693,0,0,1,1.882-12.168c1.4-5.449,2.5-9.753-.846-15.055-5.316-8.434-3.734-20.225-.014-27.611,2.851-5.655,1.882-11.914,1.518-14.27-.048-.308-.084-.545-.1-.7a.29.29,0,0,1,.258-.316.3.3,0,0,1,.317.258c.014.15.049.378.1.672.372,2.406,1.362,8.8-1.571,14.618-3.65,7.245-5.212,18.8-.014,27.044,3.475,5.512,2.289,10.142.916,15.5a46.192,46.192,0,0,0-1.864,12.025,5.166,5.166,0,0,0,1.551,4.08c2.693,2.43,8.655,1.813,14.422,1.218,2.577-.267,5.242-.542,7.594-.542a.288.288,0,0,1,0,.576c-2.323,0-4.972.275-7.535.539C295.116,250.926,292.49,251.2,290.114,251.2Z" fill="#fff"/><rect width="12.584" height="2.001" rx="0.6" transform="translate(305.238 249.062)" fill="#fff"/><path d="M388.639,257.724H111.361a3.34,3.34,0,0,1-3.33-3.33h0a3.339,3.339,0,0,1,3.33-3.33H388.639a3.339,3.339,0,0,1,3.33,3.33h0A3.34,3.34,0,0,1,388.639,257.724Z" fill="#3343E0"/><path d="M388.639,257.724h-64.91a3.341,3.341,0,0,1-3.331-3.33h0a3.34,3.34,0,0,1,3.331-3.33h64.91a3.339,3.339,0,0,1,3.33,3.33h0A3.34,3.34,0,0,1,388.639,257.724Z" fill="#263238" opacity="0.3"/><path d="M385.582,414.622h6.387l-7.352-156.9H375.78Z" fill="#263238"/><path d="M385.582,414.622h6.387l-7.352-156.9H375.78Z" fill="#fff" opacity="0.1"/><path d="M326.785,414.622H320.4l7.352-156.9h8.838Z" fill="#263238"/><path d="M326.785,414.622H320.4l7.352-156.9h8.838Z" fill="#fff" opacity="0.2"/><path d="M173.215,414.622H179.6l-7.352-156.9h-8.838Z" fill="#263238"/><path d="M173.215,414.622H179.6l-7.352-156.9h-8.838Z" fill="#fff" opacity="0.1"/><path d="M114.418,414.622h-6.387l7.352-156.9h8.838Z" fill="#263238"/><path d="M114.418,414.622h-6.387l7.352-156.9h8.838Z" fill="#fff" opacity="0.2"/><rect width="213.253" height="13.149" transform="translate(117.245 266.07)" fill="#263238"/><rect width="213.253" height="13.149" transform="translate(117.245 266.07)" fill="#fff" opacity="0.2"/><path d="M152.329,242.216a1.4,1.4,0,0,0-1.4,1.4v6.051a1.4,1.4,0,0,0,1.4,1.4h45.353a.456.456,0,0,0,.456-.456v-7.937a.455.455,0,0,0-.456-.455Z" fill="#3343E0"/><path d="M.807,0H19.774a0,0,0,0,1,0,0V7.162a0,0,0,0,1,0,0H.807A.807.807,0,0,1,0,6.355V.807A.807.807,0,0,1,.807,0Z" transform="translate(178.363 243.058)" fill="#fff" opacity="0.9"/><rect width="48.606" height="8.848" rx="1.399" transform="translate(128.836 242.215)" fill="#3343E0"/><rect width="48.606" height="8.848" rx="1.399" transform="translate(128.836 242.215)" opacity="0.2"/><rect width="8.085" height="8.848" rx="0.571" transform="translate(145.999 242.215)" fill="#3343E0" opacity="0.5"/><path d="M.57,0H7.515a.571.571,0,0,1,.571.571V8.277a.571.571,0,0,1-.571.571H.57A.57.57,0,0,1,0,8.278V.57A.57.57,0,0,1,.57,0Z" transform="translate(156.037 242.215)" fill="#3343E0" opacity="0.5"/><path d="M144.128,231.324a1.4,1.4,0,0,0-1.4,1.4v8.1a1.4,1.4,0,0,0,1.4,1.4h49.129a.456.456,0,0,0,.455-.456v-9.98a.456.456,0,0,0-.455-.456Z" fill="#3343E0"/><path d="M.807,0H23.55a0,0,0,0,1,0,0V9.206a0,0,0,0,1,0,0H.807A.807.807,0,0,1,0,8.4V.807A.807.807,0,0,1,.807,0Z" transform="translate(170.162 232.167)" fill="#fff" opacity="0.9"/><rect width="41.322" height="10.892" rx="1.399" transform="translate(127.92 231.324)" fill="#3343E0"/><rect width="41.322" height="10.892" rx="1.399" transform="translate(127.92 231.324)" fill="#fff" opacity="0.2"/><rect width="29.91" height="6.57" rx="0.852" transform="translate(135.172 233.484)" fill="#3343E0" opacity="0.6"/><path d="M158.542,226.106c-.773,0-1.4.37-1.4.825V230.5c0,.456.626.825,1.4.825H203.9c.252,0,.456-.12.456-.269v-4.68c0-.148-.2-.269-.456-.269Z" fill="#3343E0"/><path d="M.62,0H19.774a0,0,0,0,1,0,0V4.223a0,0,0,0,1,0,0H.62A.62.62,0,0,1,0,3.6V.62A.62.62,0,0,1,.62,0Z" transform="translate(184.576 226.604)" fill="#fff" opacity="0.9"/><rect width="48.606" height="5.217" rx="1.074" transform="translate(135.049 226.106)" fill="#3343E0"/><rect width="48.606" height="5.217" rx="1.074" transform="translate(135.049 226.106)" opacity="0.2"/><rect width="1.872" height="5.217" rx="0.211" transform="translate(140.3 226.106)" fill="#3343E0" opacity="0.5"/><rect width="1.842" height="5.217" rx="0.209" transform="translate(178.051 226.106)" fill="#3343E0" opacity="0.5"/><path d="M150.341,218.567c-.773,0-1.4.369-1.4.825v5.89c0,.455.627.824,1.4.824H199.47c.251,0,.455-.12.455-.268v-7c0-.148-.2-.268-.455-.268Z" fill="#3343E0"/><path d="M.62,0H23.55a0,0,0,0,1,0,0V6.545a0,0,0,0,1,0,0H.62A.62.62,0,0,1,0,5.926V.62A.62.62,0,0,1,.62,0Z" transform="translate(176.375 219.064)" fill="#fff" opacity="0.9"/><rect width="41.322" height="7.54" rx="1.074" transform="translate(134.133 218.567)" fill="#3343E0"/><rect width="41.322" height="7.54" rx="1.074" transform="translate(134.133 218.567)" opacity="0.1"/><path d="M259.919,249.4H218.645a.835.835,0,0,0-.832.833h0a.835.835,0,0,0,.832.833h41.274a.836.836,0,0,0,.833-.833h0A.836.836,0,0,0,259.919,249.4Z" fill="#fff"/><path d="M340.66,247.419h27.119l2.451,3.547H338.21Z" fill="#263238"/><path d="M382.539,186.833a3.648,3.648,0,1,1-3.648-3.648A3.648,3.648,0,0,1,382.539,186.833Z"/><path d="M355.115,249.819a1.153,1.153,0,0,1-1.06-1.6l26.128-61.833a1.152,1.152,0,0,1,2.123.9l-26.128,61.833A1.151,1.151,0,0,1,355.115,249.819Z" fill="#263238"/><path d="M381.243,187.985a1.148,1.148,0,0,1-.69-.229L333.1,152.185a1.153,1.153,0,0,1,1.383-1.846l47.455,35.572a1.152,1.152,0,0,1-.693,2.074Z" fill="#263238"/><path d="M384.893,186.833a3.648,3.648,0,1,1-3.649-3.648A3.649,3.649,0,0,1,384.893,186.833Z" fill="#263238"/><circle cx="3.64" cy="3.64" r="3.64" transform="translate(330.149 147.621)" fill="#263238"/><path d="M328.688,167.9a8.155,8.155,0,1,1,0-11.533A8.155,8.155,0,0,1,328.688,167.9Z" fill="#3343E0"/><path d="M328.688,167.9a8.155,8.155,0,1,1,0-11.533A8.155,8.155,0,0,1,328.688,167.9Z" fill="#fff" opacity="0.7"/><path d="M333.79,151.261a17.483,17.483,0,0,0-24.725,0l24.725,24.724A17.484,17.484,0,0,0,333.79,151.261Z" fill="#263238"/><g opacity="0.2"><path d="M309.065,151.262l-103.829,99.8H311.748l22.041-75.078Z" fill="#3343E0"/><path d="M309.065,151.262l-103.829,99.8H311.748l22.041-75.078Z" fill="#fff" opacity="0.7"/></g></g></svg>