<svg xmlns="http://www.w3.org/2000/svg" width="486.237" height="477.781" viewBox="0 0 486.237 477.781"><g transform="translate(-6.873 -16.928)"><ellipse cx="243.119" cy="144.622" rx="243.119" ry="144.622" transform="translate(6.872 205.465)" fill="#fafafa"/><path d="M472.075,334.749a8.125,8.125,0,0,1-1.288,3,14.252,14.252,0,0,1-4.841,4.3c-8.375,4.835-21.958,4.835-30.332,0a14.243,14.243,0,0,1-4.841-4.3,8.193,8.193,0,0,1-1.282-3h-.006c-.747-3.634,1.3-7.423,6.129-10.211,8.374-4.84,21.957-4.84,30.332,0C470.774,327.326,472.821,331.115,472.075,334.749Z" fill="#e0e0e0"/><path d="M472.146,398.138a22.279,22.279,0,0,1-3.546,8.257c-2.861,4.317-7.315,8.36-13.328,11.838-23.059,13.311-60.457,13.311-83.515,0-6.013-3.478-10.467-7.521-13.329-11.838a22.533,22.533,0,0,1-3.528-8.257h-.018c-2.056-10.005,3.581-20.438,16.875-28.113,23.058-13.328,60.456-13.328,83.515,0C468.566,377.7,474.2,388.133,472.146,398.138Z" fill="#e0e0e0"/><path d="M112.014,484.891l41.829-24.067a1.319,1.319,0,0,0,0-2.5L85.055,418.611a4.781,4.781,0,0,0-4.33,0L38.9,442.678a1.319,1.319,0,0,0,0,2.5l68.787,39.713A4.781,4.781,0,0,0,112.014,484.891Z" fill="#e0e0e0"/><path d="M182.665,482.752,22.011,390.11c-4.743-2.739-4.743-7.179,0-9.917L256.343,244.884c4.743-2.738,12.433-2.738,17.176,0l160.649,92.639c4.743,2.739,4.743,7.179,0,9.917L199.84,482.752C195.1,485.489,187.407,485.489,182.665,482.752Z" fill="#e0e0e0"/><path d="M286.315,480.109l-2.372-1.37a.456.456,0,1,0-.456.79l2.372,1.369a.45.45,0,0,0,.228.062.456.456,0,0,0,.228-.851Zm6.323,3.65-2.371-1.369a.456.456,0,1,0-.456.79l2.371,1.369a.45.45,0,0,0,.228.062.457.457,0,0,0,.228-.852ZM291,443.636a.453.453,0,0,0-.623-.166l-2.371,1.369a.456.456,0,0,0,.228.851.45.45,0,0,0,.228-.062l2.371-1.369A.454.454,0,0,0,291,443.636Zm13.829,34.3-2.371,1.369a.457.457,0,0,0,.228.852.45.45,0,0,0,.228-.062l2.371-1.369a.456.456,0,0,0-.456-.79Zm-1.182-41.6a.455.455,0,0,0-.623-.167l-2.372,1.369a.456.456,0,0,0,.228.851.448.448,0,0,0,.228-.061l2.372-1.369A.455.455,0,0,0,303.647,436.334Zm-6.324,3.651a.454.454,0,0,0-.623-.167l-2.371,1.37a.456.456,0,0,0,.228.851.449.449,0,0,0,.228-.061l2.371-1.37A.454.454,0,0,0,297.323,439.985Zm1.183,41.6-2.372,1.369a.456.456,0,0,0,.228.851.449.449,0,0,0,.228-.061l2.372-1.369a.456.456,0,0,0-.456-.79Zm-13.829-34.3a.453.453,0,0,0-.623-.166l-2.372,1.369a.456.456,0,0,0,.228.851.45.45,0,0,0,.228-.062l2.372-1.369A.455.455,0,0,0,284.677,447.287Zm-18.97,10.954a.453.453,0,0,0-.623-.167l-2.372,1.369a.456.456,0,0,0,.228.851.449.449,0,0,0,.228-.061l2.372-1.369A.456.456,0,0,0,265.707,458.241Zm14.284,18.217-2.371-1.369a.456.456,0,1,0-.456.789l2.371,1.369a.45.45,0,0,0,.228.062.456.456,0,0,0,.228-.851Zm-18.97-10.953-2.372-1.369a.456.456,0,0,0-.456.79l2.372,1.369a.449.449,0,0,0,.228.061.456.456,0,0,0,.228-.851Zm-1.638-3.613a.453.453,0,0,0-.623-.167l-2.371,1.369a.456.456,0,0,0,.456.79l2.371-1.369A.456.456,0,0,0,259.383,461.892Zm7.961,7.264-2.371-1.369a.456.456,0,0,0-.456.79l2.371,1.369a.449.449,0,0,0,.228.061.456.456,0,0,0,.228-.851Zm11.009-18.218a.456.456,0,0,0-.623-.167l-2.371,1.37a.456.456,0,0,0,.228.851.45.45,0,0,0,.228-.062l2.371-1.369A.455.455,0,0,0,278.353,450.938Zm-4.685,21.869-2.372-1.369a.456.456,0,1,0-.456.789l2.372,1.369a.45.45,0,0,0,.228.062.456.456,0,0,0,.228-.851Zm-1.638-18.218a.456.456,0,0,0-.623-.167l-2.371,1.37a.457.457,0,0,0,.228.852.45.45,0,0,0,.228-.062l2.371-1.37A.455.455,0,0,0,272.03,454.589Zm50.192-25.544a.457.457,0,0,0,.228-.852l-.427-.246c.691-.589.588-1.4-.316-1.917a4.1,4.1,0,0,0-3.707,0,1.13,1.13,0,0,0,0,2.14,4.143,4.143,0,0,0,3.051.268l.944.545A.453.453,0,0,0,322.222,429.045Zm20.548,26.986L340.4,457.4a.456.456,0,0,0,.228.851.449.449,0,0,0,.228-.061l2.372-1.37a.456.456,0,1,0-.456-.79ZM341.192,440a.456.456,0,0,0,.229-.851l-2.371-1.369a.456.456,0,1,0-.457.789l2.371,1.37A.462.462,0,0,0,341.192,440Zm6.324,3.651a.456.456,0,0,0,.228-.851l-2.371-1.369a.456.456,0,0,0-.457.789l2.372,1.37A.462.462,0,0,0,347.516,443.648Zm-11.07,16.035-2.371,1.369a.456.456,0,0,0,.228.851.449.449,0,0,0,.228-.061l2.371-1.369a.456.456,0,1,0-.456-.79Zm-26.476-27a.456.456,0,0,0-.623-.167l-2.371,1.369a.457.457,0,0,0,.228.852.45.45,0,0,0,.228-.062l2.371-1.369A.454.454,0,0,0,309.97,432.683ZM353.839,447.3a.456.456,0,0,0,.229-.851l-2.371-1.369a.456.456,0,0,0-.457.789l2.371,1.369A.453.453,0,0,0,353.839,447.3Zm-4.746,5.081-2.371,1.369a.457.457,0,0,0,.228.852.45.45,0,0,0,.228-.062l2.371-1.369a.456.456,0,1,0-.456-.79Zm6.947-3.484a.455.455,0,0,0-.623-.167l-2.372,1.37a.456.456,0,1,0,.457.789l2.371-1.369A.454.454,0,0,0,356.04,448.9Zm-39.747-19.864a.455.455,0,0,0-.623-.167l-2.371,1.369a.457.457,0,0,0,.228.852.45.45,0,0,0,.228-.062l2.371-1.369A.454.454,0,0,0,316.293,429.032Zm1.183,41.6-2.371,1.369a.456.456,0,0,0,.228.851.45.45,0,0,0,.228-.062l2.371-1.369a.456.456,0,1,0-.456-.789Zm-6.323,3.651-2.372,1.368a.457.457,0,0,0,.228.852.45.45,0,0,0,.228-.062l2.372-1.369a.456.456,0,1,0-.456-.789ZM328.545,432.7a.456.456,0,0,0,.228-.851l-2.37-1.369a.456.456,0,0,0-.457.79l2.371,1.369A.451.451,0,0,0,328.545,432.7Zm1.578,30.639-2.372,1.369a.456.456,0,0,0,.228.851.465.465,0,0,0,.229-.061l2.371-1.37a.456.456,0,1,0-.456-.789Zm-6.324,3.651-2.371,1.369a.456.456,0,0,0,.456.79l2.371-1.37a.456.456,0,1,0-.456-.789Zm11.07-30.639a.456.456,0,0,0,.228-.851l-2.371-1.369a.456.456,0,0,0-.457.79l2.372,1.369A.451.451,0,0,0,334.869,436.346Z" opacity="0.2"/><path d="M315.649,465.5l-8.371,4.832a2.7,2.7,0,0,1-2.449,0l-5-2.887,6.115-3.531c.45-.26.5-.655.1-.883a1.7,1.7,0,0,0-1.53.06l-6.114,3.529L281.909,457.1a.746.746,0,0,1,0-1.414l7.655-4.419a.716.716,0,0,0-.716-1.239l-8.89,5.133a.954.954,0,0,0,0,1.652,2.861,2.861,0,0,0-2.861,0l-8.175,4.72a.715.715,0,0,0,.715,1.239l8.4-4.847a2.709,2.709,0,0,1,2.449,0l16.491,9.522-6.138,3.544c-.451.26-.5.656-.1.883a1.7,1.7,0,0,0,1.53-.059l6.139-3.544,5,2.887a.746.746,0,0,1,0,1.414L295.721,477a.715.715,0,1,0,.715,1.239l8.891-5.133a.95.95,0,0,0,.047-1.616,2.913,2.913,0,0,0,2.814-.036l8.176-4.72a.715.715,0,0,0-.715-1.239Z" opacity="0.2"/><path d="M386.084,440.414l-41.858,3.271a1.728,1.728,0,0,0-1.568,1.7v2.765a2.759,2.759,0,0,0,1.411,2.265L370.681,463.5a1.052,1.052,0,0,0,1.609-.865l.542-4.28a1.536,1.536,0,0,1,1.753-1.331l12.791,1.883a3.184,3.184,0,0,0,2.583-.96L391.9,455.7a4.89,4.89,0,0,0,1.029-2.761v-2.765a1.877,1.877,0,0,0-1.555-1.8l-6.015-.885,1.148-.645a2.748,2.748,0,0,0,1.147-2.217v-2.765A1.43,1.43,0,0,0,386.084,440.414Z" fill="#3343E0"/><path d="M386.084,440.414l-41.858,3.271a1.728,1.728,0,0,0-1.568,1.7v2.765a2.759,2.759,0,0,0,1.411,2.265L370.681,463.5a1.052,1.052,0,0,0,1.609-.865l.542-4.28a1.536,1.536,0,0,1,1.753-1.331l12.791,1.883a3.184,3.184,0,0,0,2.583-.96L391.9,455.7a4.89,4.89,0,0,0,1.029-2.761v-2.765a1.877,1.877,0,0,0-1.555-1.8l-6.015-.885,1.148-.645a2.748,2.748,0,0,0,1.147-2.217v-2.765A1.43,1.43,0,0,0,386.084,440.414Z" fill="#fff" opacity="0.25"/><path d="M388.629,452.857v5.9a2.876,2.876,0,0,1-1.255.149l-12.786-1.882a1.511,1.511,0,0,0-.913.174v-5.94a1.53,1.53,0,0,1,.913-.143l12.786,1.883A2.862,2.862,0,0,0,388.629,452.857Z" fill="#fff" opacity="0.2"/><path d="M371.477,457.712v5.908a1.234,1.234,0,0,1-.795-.124l-26.615-13.083a2.771,2.771,0,0,1-1.41-2.268V445.38a1.747,1.747,0,0,1,.951-1.528c-.193.162-.038.4.459.652l26.615,13.084A1.235,1.235,0,0,0,371.477,457.712Z" fill="#fff" opacity="0.2"/><path d="M386.084,440.414l-41.858,3.271c-.866.068-.936.433-.157.816l26.612,13.086a1.052,1.052,0,0,0,1.609-.865l.542-4.28a1.534,1.534,0,0,1,1.753-1.33l12.791,1.882a3.184,3.184,0,0,0,2.583-.96l1.938-2.241c.568-.656.332-1.291-.526-1.418l-12.791-1.883c-.859-.126-.941-.573-.185-1l7.886-4.432C387.037,440.636,386.949,440.346,386.084,440.414Z" fill="#fff" opacity="0.45"/><path d="M470.068,315.523l-38.582-.008,3.989,16.619h.005c.3,2,1.779,3.96,4.436,5.494,6,3.464,15.729,3.464,21.729,0,2.859-1.651,4.339-3.791,4.473-5.953Z" fill="#3343E0"/><path d="M470.068,315.523l-38.582-.008,3.989,16.619h.005c.3,2,1.779,3.96,4.436,5.494,6,3.464,15.729,3.464,21.729,0,2.859-1.651,4.339-3.791,4.473-5.953Z" fill="#fff" opacity="0.6"/><path d="M470.068,315.523l-38.582-.008,3.989,16.619h.005c.3,2,1.779,3.96,4.436,5.494,6,3.464,15.729,3.464,21.729,0,2.859-1.651,4.339-3.791,4.473-5.953Z" fill="#fff" opacity="0.6"/><path d="M465.363,326.913a16.231,16.231,0,0,0,2.315-1.617l2.171-8.878a15.645,15.645,0,0,1-3.9,3.1c-8.14,4.7-21.184,4.816-29.6.382l.981-3.959-.3-.418h-5.539l3.988,16.611h.005c.3,2,1.779,3.96,4.436,5.493,4.274,2.468,10.436,3.168,15.8,2.12-9.612.717-16.208-3.486-17.2-7.36-.395-1.546-1.083-4.967-1.083-4.967C445.462,331.5,457.692,331.337,465.363,326.913Z" fill="#3343E0" opacity="0.2"/><path d="M472.075,310.606a8.125,8.125,0,0,1-1.288,3,14.253,14.253,0,0,1-4.841,4.3c-8.375,4.835-21.958,4.835-30.332,0a14.243,14.243,0,0,1-4.841-4.3,8.194,8.194,0,0,1-1.282-3h-.006c-.747-3.634,1.3-7.423,6.129-10.21,8.374-4.841,21.957-4.841,30.332,0C470.774,303.183,472.821,306.972,472.075,310.606Z" fill="#3343E0"/><path d="M472.075,310.606a8.125,8.125,0,0,1-1.288,3,14.253,14.253,0,0,1-4.841,4.3c-8.375,4.835-21.958,4.835-30.332,0a14.243,14.243,0,0,1-4.841-4.3,8.194,8.194,0,0,1-1.282-3h-.006c-.747-3.634,1.3-7.423,6.129-10.21,8.374-4.841,21.957-4.841,30.332,0C470.774,303.183,472.821,306.972,472.075,310.606Z" fill="#fff" opacity="0.8"/><path d="M470.787,313.605a14.253,14.253,0,0,1-4.841,4.3c-8.375,4.835-21.958,4.835-30.332,0a14.243,14.243,0,0,1-4.841-4.3,8.194,8.194,0,0,1-1.282-3h-.006l.952,6.539c.435,2.632,2.4,5.2,5.892,7.211,7.983,4.605,20.918,4.605,28.9,0,3.447-1.991,5.407-4.523,5.874-7.117l.05-.336.921-6.3A8.125,8.125,0,0,1,470.787,313.605Z" fill="#3343E0"/><path d="M470.787,313.605a14.253,14.253,0,0,1-4.841,4.3c-8.375,4.835-21.958,4.835-30.332,0a14.243,14.243,0,0,1-4.841-4.3,8.194,8.194,0,0,1-1.282-3h-.006l.952,6.539c.435,2.632,2.4,5.2,5.892,7.211,7.983,4.605,20.918,4.605,28.9,0,3.447-1.991,5.407-4.523,5.874-7.117l.05-.336.921-6.3A8.125,8.125,0,0,1,470.787,313.605Z" fill="#fff" opacity="0.6"/><path d="M463.42,301.852c-6.981-4.032-18.3-4.032-25.274,0-3.951,2.283-5.662,5.363-5.145,8.337.4,2.284,2.115,4.505,5.145,6.253,6.975,4.032,18.293,4.032,25.274,0,3.024-1.748,4.741-3.969,5.139-6.247C469.082,307.215,467.371,304.135,463.42,301.852Z" fill="#3343E0"/><path d="M463.42,301.852c-6.981-4.032-18.3-4.032-25.274,0-3.951,2.283-5.662,5.363-5.145,8.337.4,2.284,2.115,4.505,5.145,6.253,6.975,4.032,18.293,4.032,25.274,0,3.024-1.748,4.741-3.969,5.139-6.247C469.082,307.215,467.371,304.135,463.42,301.852Z" fill="#fff" opacity="0.6"/><path d="M434.18,312.953a11.984,11.984,0,0,0,3.966,3.489c6.975,4.032,18.293,4.032,25.274,0a11.988,11.988,0,0,0,3.962-3.49c-.052-2.414-1.668-4.816-4.858-6.659-6.486-3.746-17-3.746-23.483,0C435.85,308.137,434.233,310.541,434.18,312.953Z" fill="#fafafa"/><path d="M445.383,286.95c-.336-9.858-4.046-25.183-7.613-31.366A50.394,50.394,0,0,1,449,284.744Z" fill="#263238"/><path d="M456.091,308.223c.328-6.855,5.369-9.086,11.046-6.855,4.034,1.586,9.863,7.583,11.7,17.137C477.035,313.573,463.947,296.963,456.091,308.223Z" fill="#455a64"/><path d="M456.39,311.522c.323-2.552,2.621-5.9,6.63-5.08s13.444,8.2,17.454,20.284c-.731-8.115-3.361-15.11-8.784-19.642-5.384-4.5-9.364-5.237-13.326-2.885C454.956,306.221,456.39,311.522,456.39,311.522Z" fill="#37474f"/><path d="M449.2,314.833c-3.26-10.9-3.745-31.163-.606-42.116,4.438-15.484,13.644-22.266,20.517-23.913-6.507,2.717-13.376,12.637-15.309,22.35s-.822,43.679-.822,43.679Z" fill="#455a64"/><path d="M451.877,304.2c.418-6.094,3.974-19.615,11.022-25.065s14.9-1.8,17.281,1.065c-4.273-2.99-9.395-2.856-13.1.206s-7.477,12.242-9.364,20.963Z" fill="#263238"/><path d="M461.461,280.4c4.433-4.346,7.9-7.281,13.4-7s12.838,7.966,17.1,24.248c-4.4-10.342-10.1-19.436-19.217-20.4A14.682,14.682,0,0,0,461.461,280.4Z" fill="#37474f"/><path d="M411.927,270.736a35.424,35.424,0,0,1,36.436,29.926l-4.885-.793s-4.055-12.815-11.088-19.464C426.134,274.489,421.5,272.134,411.927,270.736Z" fill="#455a64"/><path d="M449.565,297.6c.379-5.5-2.212-17.063-10.617-24.9s-11.439-9.543-20.1-11.755a54.678,54.678,0,0,1,18.012,14.978c5.561,7.268,5.814,15.881,5.814,19.126C443.625,297.6,447.037,302.9,449.565,297.6Z" fill="#37474f"/><path d="M449.2,300.3c-1.1-7.005,2.67-19.549,7.076-25.686,5.329-7.423,13.186-12.98,21.908-14.491-9.34,3.571-18.735,13.995-21.489,23.821a53.208,53.208,0,0,0-1.15,20Z" fill="#37474f"/><path d="M452.173,314.833c-1.186-6.55.9-20.187,11.683-27.7s18.226-5.534,21.059-4.677c-8.347-.568-16.725,4.08-21.843,9.825-3.559,3.993-6.9,10.534-7.106,21.364Z" fill="#455a64"/><path d="M452.323,315.378s2.822-.071,3.954-1.4c0-4.232,1.139-12.7,7.081-17.706s10.565-4.044,11.5-2.081c0-2.883-3.618-5.441-7.634-4.589C460.509,291.031,451.056,299.708,452.323,315.378Z" fill="#263238"/><path d="M463.721,290.9c3.657-1.991,6.792-3.7,10.868-1.806.183-.105,2.5-.69,3.383.349,3.407,4.025,2.3,14.025-3.933,23.615,2.872-7.191,3.008-20.463-2.3-22.532A10.6,10.6,0,0,0,463.721,290.9Z" fill="#37474f"/><path d="M474.59,289.091c1.643.759,5.012,6.517,2.837,14.541,2.021-6.064,1.3-11.9-2.107-14.722A3.839,3.839,0,0,0,474.59,289.091Z" fill="#263238"/><path d="M445.14,313.421c-.323-2.552-2.621-5.9-6.631-5.08s-13.443,8.2-17.453,20.284c.731-8.115,3.686-14.921,8.55-20.048,4.363-4.6,10.083-6.811,14.623-4.378S445.14,313.421,445.14,313.421Z" fill="#263238"/><path d="M443.478,298.142c-3.518-3.52-5.98-6.9-12.454-5.56s-10.906,8.373-12.665,17.872c1.1-3.669,4.433-12.066,11.047-13.491S439.256,296.032,443.478,298.142Z" fill="#455a64"/><path d="M445.14,313.421c-.92-6.211-3.28-15.07-9.894-15.421s-13.862,3.8-16.887,12.454c1.548-7.881,8.26-15.391,15.269-15.409s13.9,1.511,15.568,19.788Z" fill="#37474f"/><path d="M439.569,287.063a17.954,17.954,0,0,0-9.117-4.517c-2.251-.375-6.629-2.112-11.32,2.259s-9.631,14.565-7.88,21.7C412,298.932,422.168,277.7,439.569,287.063Z" fill="#37474f"/><path d="M450.134,315.45c0-5.762-4.206-24.024-10.852-28.674-8.315-5.818-13.876-.864-13.876-.864a11.122,11.122,0,0,1,9.908,1.573c4.292,3.14,8.3,12.324,9.826,25.936A6.011,6.011,0,0,0,450.134,315.45Z" fill="#263238"/><path d="M446.361,298.3c-.4,1.687,1.345,14.247,2.7,17.081a11.851,11.851,0,0,0,4.014-.064c1.268-2.2.041-16.41,2.471-16.68C453.651,297.757,447.239,295.394,446.361,298.3Z" fill="#37474f"/><path d="M446.361,298.3c1.958-2.021,9.922,1.957,11.416,13.824,1.987-5.631,1.1-12.59-.883-14.355a3.578,3.578,0,0,0-4.086-.55S446.631,294.5,446.361,298.3Z" fill="#455a64"/><path d="M452.808,297.216c2.438,1.023,5.228,4.411,5.2,10.182.187-2.955-.382-8.141-4.568-10.435A3.888,3.888,0,0,0,452.808,297.216Z" fill="#37474f"/><path d="M32.587,380.626,188.54,469.193,426.725,332.475,270.782,243.9Z" fill="#3343E0"/><path d="M32.587,380.626,188.54,469.193,426.725,332.475,270.782,243.9Z" opacity="0.4"/><path d="M189.767,464.528,37.62,377.738c2.712-7.7,2.508-10.032-.561-20.277l151.483,86.161S190.514,443.477,189.767,464.528Z" fill="#f5f5f5"/><path d="M183.246,435.212c5.507,3.162,9.972,10.849,9.973,17.172V465.8c0,6.324-4.465,8.886-9.974,5.726L32.6,385.6l-.012-4.969L181.868,465.4c3.305,1.9,5.98.359,5.978-3.435l-.094-11.947a13.151,13.151,0,0,0-5.992-10.3L32.6,354.914v-5.632Z" fill="#3343E0"/><path d="M183.246,435.212c5.507,3.162,9.972,10.849,9.973,17.172V465.8c0,6.324-4.465,8.886-9.974,5.726L32.6,385.6l-.012-4.969L181.868,465.4c3.305,1.9,5.98.359,5.978-3.435l-.094-11.947a13.151,13.151,0,0,0-5.992-10.3L32.6,354.914v-5.632Z" opacity="0.3"/><path d="M32.6,349.293l238.186-136.72L421.422,298.5c5.505,3.16,9.973,10.854,9.974,17.173l0,13.42c-.006,3.149-1.111,5.369-2.925,6.411L190.288,472.221c1.815-1.042,2.919-3.262,2.926-6.411l.014-13.432c0-6.319-4.467-14.013-9.972-17.172Z" fill="#3343E0"/><path d="M32.6,349.293l238.186-136.72L421.422,298.5c5.505,3.16,9.973,10.854,9.974,17.173l0,13.42c-.006,3.149-1.111,5.369-2.925,6.411L190.288,472.221c1.815-1.042,2.919-3.262,2.926-6.411l.014-13.432c0-6.319-4.467-14.013-9.972-17.172Z" opacity="0.2"/><path d="M190.308,442.608a20.2,20.2,0,0,1,2.92,9.77l-.014,13.432c-.007,3.149-1.111,5.369-2.926,6.411L428.474,335.5c1.814-1.042,2.919-3.262,2.925-6.411l0-13.42a20.2,20.2,0,0,0-2.923-9.771Z" fill="#3343E0"/><path d="M405.04,319.2c3.232,14.042,3.186,19.527,0,29.825l-8.259,4.769c3.186-10.3,3.231-15.784,0-29.826Z" fill="#fff"/><path d="M226.554,421.756c3.232,14.041,3.186,19.349,0,29.647l-8.259,4.768c3.185-10.3,3.231-15.606,0-29.647Z" fill="#fff"/><path d="M45.912,337.686c0,3.545,2.653,5.817,5.925,7.7l134.107,77.428a13.1,13.1,0,0,0,11.849,0L414.139,297.912c3.272-1.889,5.925-4.321,5.925-7.865s-2.652-5.738-5.924-7.627L280.032,204.993a13.1,13.1,0,0,0-11.849,0L51.836,329.9C48.564,331.79,45.912,334.142,45.912,337.686Z" fill="#37474f"/><path d="M51.836,336.742l134.108,77.427a13.1,13.1,0,0,0,11.849,0L414.14,289.261c3.272-1.889,3.272-4.952,0-6.841L280.032,204.993a13.1,13.1,0,0,0-11.849,0L51.836,329.9C48.564,331.79,48.564,334.853,51.836,336.742Z" fill="#455a64"/><path d="M191.873,415.6v8.635a12.079,12.079,0,0,1-5.924-1.409L51.836,345.392c-3.27-1.888-5.924-4.161-5.924-7.7,0-3.325,2.386-5.641,5.462-7.522-2.541,1.795-2.589,4.813.462,6.578l134.113,77.431A12.085,12.085,0,0,0,191.873,415.6Z" fill="#263238"/><path d="M43.338,330.816c-2.6-1.2-3.3-3.26-3.55-6.9L28.162,153.836a11.774,11.774,0,0,1,5.475-10L249.984,18.925c3.272-1.889,5.669-2.914,8.691-.85,3.162,2.161,3.087,3.209,3.335,6.844L273.635,195a11.779,11.779,0,0,1-5.476,10L51.811,329.914C48.539,331.8,46.686,332.359,43.338,330.816Z" fill="#37474f"/><path d="M145.609,89.318a4.44,4.44,0,0,0-2.38,3.942c.1,1.493,1.333,2.143,2.749,1.453a4.453,4.453,0,0,0,2.38-3.943C148.256,89.283,147.026,88.633,145.609,89.318Z" fill="#263238"/><path d="M146.635,90.086a1.434,1.434,0,0,0-.768,1.274.562.562,0,0,0,.887.469,1.437,1.437,0,0,0,.769-1.274A.564.564,0,0,0,146.635,90.086Z" fill="#455a64"/><path d="M262.011,24.914c-.247-3.628-3.1-5.041-6.375-3.161L39.285,146.667a11.213,11.213,0,0,0-4.053,4.353l-5.645-2.839h-.011a11.313,11.313,0,0,1,4.064-4.353l216.34-124.9c3.271-1.89,5.683-2.934,8.691-.85C261.847,20.275,261.764,21.286,262.011,24.914Z" fill="#455a64"/><path d="M51.372,330.165c-2.979,1.759-4.865,1.976-8.033.646-2.423-1.017-3.3-3.255-3.548-6.889L28.165,153.83a10.529,10.529,0,0,1,1.421-5.645L35.231,151v.013a10.679,10.679,0,0,0-1.421,5.646L45.436,326.754C45.666,330.124,48.577,331.815,51.372,330.165Z" fill="#263238"/><path d="M43.393,158.1l208.2-120.172c1.963-1.133,3.676-.284,3.824,1.9l10.5,153.741a7.065,7.065,0,0,1-3.286,6L54.43,319.739c-1.964,1.133-3.676.284-3.825-1.9L40.107,164.1A7.065,7.065,0,0,1,43.393,158.1Z"/><path d="M43.393,158.1a7.065,7.065,0,0,0-3.286,6L50.425,315.2,256.248,196.4a7.063,7.063,0,0,0,3.285-6L249.215,39.3Z" fill="#3343E0"/><path d="M43.393,158.1a7.065,7.065,0,0,0-3.286,6L50.425,315.2,256.248,196.4a7.063,7.063,0,0,0,3.285-6L249.215,39.3Z" fill="#fff" opacity="0.45"/><path d="M70.134,330.906,268.949,216.122a6.176,6.176,0,0,1,5.587,0l7.241,4.062c1.543.89,1.543,2.334,0,3.225L82.933,338.176a6.179,6.179,0,0,1-5.587,0l-7.211-4.044C68.592,333.241,68.592,331.8,70.134,330.906Z" fill="#263238"/><path d="M89.659,342.423,288.471,227.637a5.7,5.7,0,0,1,5.1-.278l51.748,29.878c1.276.737,1.06,2.056-.482,2.947L146.261,374.813a5.728,5.728,0,0,1-5.111.287L89.183,345.361C87.9,344.629,88.116,343.313,89.659,342.423Z" fill="#263238"/><path d="M261.933,275.849l6.224-3.594c.265-.153.289-.387.054-.522l-5.955-3.439a1.009,1.009,0,0,0-.9.031l-6.225,3.6c-.264.152-.288.386-.053.521l5.955,3.439A1.009,1.009,0,0,0,261.933,275.849Zm-9.089-12.435-6.225,3.593c-.264.153-.288.387-.053.523l5.955,3.438a1,1,0,0,0,.9-.031l6.225-3.594c.264-.153.289-.387.054-.522l-5.956-3.438A1,1,0,0,0,252.844,263.414Zm-20.111,11.611L222.2,281.107c-.264.152-.288.386-.053.521l5.956,3.439a1,1,0,0,0,.9-.031l10.534-6.082c.265-.152.288-.386.053-.522l-5.955-3.439A1,1,0,0,0,232.733,275.025Zm11.013-6.359-6.225,3.594c-.264.153-.289.387-.053.522l5.955,3.438a1,1,0,0,0,.9-.03l6.225-3.594c.264-.153.289-.387.054-.522l-5.956-3.438A1,1,0,0,0,243.746,268.666Zm-24.42,14.1-6.225,3.594c-.265.153-.289.387-.054.522L219,290.32a1.007,1.007,0,0,0,.9-.031l6.225-3.6c.264-.152.288-.385.053-.521l-5.955-3.438A1,1,0,0,0,219.326,282.765Zm-9.1,5.253L204,291.612c-.265.153-.288.386-.054.522l5.956,3.438a1,1,0,0,0,.9-.031l6.225-3.594c.264-.153.288-.386.053-.522l-5.955-3.437A1,1,0,0,0,210.228,288.018Zm23.342,14.03,6.225-3.6c.264-.152.288-.386.053-.521l-5.955-3.438a1,1,0,0,0-.9.03l-6.225,3.594c-.264.153-.289.386-.054.522l5.956,3.439A1.007,1.007,0,0,0,233.57,302.048Zm-9.1,5.252,6.225-3.593c.265-.154.288-.387.053-.523l-5.955-3.438a1,1,0,0,0-.9.031l-6.225,3.594c-.264.152-.288.386-.053.522l5.955,3.438A1,1,0,0,0,224.472,307.3Zm-9.1,5.253,6.225-3.594c.265-.153.288-.386.054-.522L215.7,305a1,1,0,0,0-.9.032l-6.225,3.593c-.264.153-.288.387-.053.523l5.955,3.438A1,1,0,0,0,215.374,312.553Zm-9.1,5.252,6.225-3.593c.265-.153.289-.387.054-.522l-5.956-3.439a1,1,0,0,0-.9.031l-6.224,3.594c-.265.153-.289.386-.054.522l5.955,3.438A1,1,0,0,0,206.276,317.8Zm46.559-36.7,6.225-3.594c.264-.152.288-.386.053-.521l-5.955-3.439a1,1,0,0,0-.9.031l-6.225,3.594c-.264.153-.289.386-.054.522l5.955,3.438A1,1,0,0,0,252.835,281.1ZM242.668,296.8l13.886-8.017c.265-.153.288-.387.053-.522l-14.462-8.35a1,1,0,0,0-.9.031l-7.183,4.146c-.265.153-.288.387-.054.523l7.658,4.42c.234.135.21.37-.054.522l-5.746,3.318c-.265.152-.289.386-.054.521l5.956,3.439A1,1,0,0,0,242.668,296.8ZM201.13,293.27l-6.225,3.6c-.265.152-.288.386-.053.521l5.955,3.439a1,1,0,0,0,.9-.031l6.225-3.594c.264-.153.288-.386.053-.522l-5.955-3.438A1,1,0,0,0,201.13,293.27Zm-9.1,5.254-6.225,3.593c-.265.153-.288.387-.053.522l5.955,3.439a1.007,1.007,0,0,0,.9-.031l6.225-3.594c.265-.153.288-.387.054-.522l-5.956-3.438A1,1,0,0,0,192.032,298.524Zm-50.345,56.081a1,1,0,0,0,.9-.031l6.225-3.594c.264-.152.289-.387.054-.522l-5.955-3.438a1,1,0,0,0-.9.031l-6.224,3.594c-.265.152-.288.386-.054.522Zm-22.438-14.061-6.225,3.594c-.264.153-.288.387-.053.523l5.955,3.437a1,1,0,0,0,.9-.03l6.225-3.594c.265-.153.289-.387.054-.522l-5.956-3.438A1,1,0,0,0,119.249,340.544Zm11.536,10.532a1.007,1.007,0,0,0,.9-.031l6.226-3.6c.264-.152.288-.386.053-.521l-5.955-3.439a1.007,1.007,0,0,0-.9.031l-6.225,3.594c-.265.153-.289.387-.054.522Zm25.1,5.645,6.225-3.593c.265-.153.288-.387.054-.523l-5.956-3.438a1,1,0,0,0-.9.031l-6.225,3.594c-.264.152-.288.387-.053.522l5.955,3.438A1,1,0,0,0,155.887,356.721Zm-10,5.284a1,1,0,0,0,.9-.031l6.225-3.594c.265-.153.288-.386.054-.522l-5.956-3.438a1,1,0,0,0-.9.031l-6.225,3.594c-.264.152-.288.386-.053.521Zm-17.539-26.713-6.225,3.594c-.264.153-.288.386-.053.522l5.955,3.438a1,1,0,0,0,.9-.031l6.225-3.594c.264-.152.288-.386.053-.522l-5.954-3.438A1,1,0,0,0,128.347,335.292Zm45.489-26.263-6.225,3.593c-.264.153-.288.387-.053.523l5.955,3.438a1,1,0,0,0,.9-.031l6.225-3.594c.265-.152.288-.386.054-.522L174.74,309A1,1,0,0,0,173.836,309.029Zm-36.391,21.01-6.225,3.594c-.264.152-.288.387-.053.522l5.955,3.438a1,1,0,0,0,.9-.03l6.225-3.594c.264-.153.288-.387.053-.522l-5.955-3.439A1,1,0,0,0,137.445,330.039Zm45.489-26.263-6.225,3.594c-.265.152-.288.386-.053.522l5.955,3.438a1,1,0,0,0,.9-.031l6.225-3.593c.265-.154.288-.387.054-.523l-5.956-3.438A1,1,0,0,0,182.934,303.776Zm-18.2,10.506-6.225,3.593c-.265.153-.289.387-.054.522l5.956,3.438a1,1,0,0,0,.9-.031l6.224-3.593c.265-.153.289-.387.054-.523l-5.956-3.437A1,1,0,0,0,164.739,314.282Zm-9.1,5.252-6.225,3.594c-.265.152-.289.386-.054.521l5.956,3.439a1,1,0,0,0,.9-.031l6.225-3.593c.264-.153.288-.387.053-.523l-5.955-3.438A1,1,0,0,0,155.641,319.534Zm-9.1,5.253-6.225,3.593c-.264.153-.288.387-.054.523l5.956,3.438a1,1,0,0,0,.9-.031l6.225-3.594c.264-.152.288-.387.053-.522l-5.955-3.438A1,1,0,0,0,146.543,324.787Zm41.537,3.524,6.225-3.594c.265-.152.289-.387.054-.522l-5.955-3.438a1,1,0,0,0-.9.031l-6.226,3.593c-.264.153-.288.387-.053.523l5.955,3.438A1,1,0,0,0,188.08,328.311ZM272.955,251.8,266.73,255.4c-.264.153-.288.387-.054.522l5.956,3.439a1.007,1.007,0,0,0,.9-.031l6.225-3.594c.265-.153.288-.386.054-.522l-5.956-3.439A1.007,1.007,0,0,0,272.955,251.8Zm-11.013,6.359-6.225,3.594c-.265.152-.288.386-.053.522l5.955,3.438a1,1,0,0,0,.9-.031l6.225-3.593c.264-.153.288-.387.053-.523l-5.955-3.438A1,1,0,0,0,261.942,258.161Zm20.11-11.611-6.224,3.594c-.264.152-.288.386-.054.522l5.956,3.438a1,1,0,0,0,.9-.031l6.225-3.594c.264-.152.288-.386.054-.522l-5.956-3.438A1.006,1.006,0,0,0,282.052,246.55Zm-50.286,46.715,6.225-3.593c.265-.153.288-.387.053-.523l-5.954-3.438a1,1,0,0,0-.9.031l-6.225,3.594c-.264.153-.288.386-.054.522l5.956,3.438A1,1,0,0,0,231.766,293.265Zm60.289-52a1.009,1.009,0,0,0-.9.031l-6.224,3.594c-.264.153-.289.386-.054.522l5.956,3.438a1,1,0,0,0,.9-.03l6.225-3.6c.264-.152.288-.386.053-.521Zm-94.876,81.792,6.224-3.593c.265-.154.289-.387.054-.523L197.5,315.5a1,1,0,0,0-.9.03l-6.225,3.6c-.264.153-.288.386-.053.521l5.955,3.439A1,1,0,0,0,197.179,323.058Zm111.568-64.414,6.225-3.594c.264-.152.288-.386.053-.522l-5.955-3.438a1,1,0,0,0-.9.031l-6.224,3.594c-.264.152-.289.386-.054.522l5.956,3.438A1,1,0,0,0,308.747,258.644Zm-17.605.341,6.225-3.594c.264-.153.288-.386.053-.522l-5.956-3.438a1,1,0,0,0-.9.031l-6.225,3.593c-.265.153-.289.387-.054.523l5.955,3.438A1,1,0,0,0,291.142,258.985Zm9.42-12.807a1,1,0,0,0-.9.031l-6.225,3.594c-.264.153-.288.387-.053.522l5.956,3.438a1,1,0,0,0,.9-.03l6.225-3.594c.265-.153.289-.387.054-.522Zm1.916-1.1,14.462,8.349a1,1,0,0,0,.9-.03l6.225-3.594c.265-.153.289-.387.054-.522l-14.463-8.351a1,1,0,0,0-.9.032l-6.225,3.593C302.267,244.7,302.243,244.937,302.478,245.073Zm-21.016,11.642-6.224,3.593c-.265.153-.289.387-.054.523l5.956,3.437a1,1,0,0,0,.9-.031l6.225-3.593c.264-.153.288-.387.053-.522l-5.955-3.439A1.006,1.006,0,0,0,281.462,256.715Zm-68.473,39.532-6.224,3.594c-.265.153-.289.387-.054.522l5.955,3.438a1,1,0,0,0,.9-.03l6.226-3.594c.264-.153.287-.387.052-.522l-5.954-3.439A1.009,1.009,0,0,0,212.989,296.247Zm85.756-32.319a1.007,1.007,0,0,0,.9-.031l6.225-3.594c.264-.153.289-.386.054-.522l-5.956-3.439a1.007,1.007,0,0,0-.9.031l-6.225,3.6c-.264.152-.289.386-.053.521Zm-76.658,27.067-6.225,3.593c-.264.154-.288.387-.053.523l5.955,3.438a1,1,0,0,0,.9-.031l6.225-3.594c.265-.152.289-.387.053-.522l-5.955-3.438A1,1,0,0,0,222.087,290.995Zm-71.3,58.357a1,1,0,0,0,.9-.031l6.225-3.594c.264-.152.289-.386.054-.521l-5.956-3.439a1,1,0,0,0-.9.031l-6.226,3.594c-.264.153-.288.387-.053.522Zm-10.579-11.084-6.225,3.6c-.264.152-.288.386-.053.521l5.955,3.439a1.009,1.009,0,0,0,.9-.031l6.224-3.594c.265-.153.289-.386.054-.522l-5.955-3.439A1.009,1.009,0,0,0,140.206,338.268Zm20.581,5.8,6.225-3.594c.264-.153.289-.387.054-.522l-5.956-3.438a1,1,0,0,0-.9.031l-6.225,3.594c-.264.152-.288.386-.053.521l5.955,3.438A1,1,0,0,0,160.787,344.069Zm9.1-5.253,6.225-3.594c.264-.153.288-.386.053-.522l-5.955-3.438a1,1,0,0,0-.9.031l-6.225,3.594c-.264.152-.289.386-.054.522l5.956,3.438A1,1,0,0,0,169.885,338.816Zm9.1-5.253,6.225-3.593c.264-.153.288-.387.053-.523l-5.955-3.438a1,1,0,0,0-.9.032l-6.224,3.593c-.265.152-.289.387-.054.522l5.955,3.438A1,1,0,0,0,178.983,333.563Zm-29.679-.547-6.225,3.594c-.264.152-.288.386-.053.522l5.955,3.438a1,1,0,0,0,.9-.031l6.224-3.594c.265-.152.289-.386.054-.522l-5.956-3.438A1,1,0,0,0,149.3,333.016Zm9.1-5.253-6.224,3.594c-.265.153-.289.386-.054.522l5.955,3.439a1.007,1.007,0,0,0,.9-.031l6.225-3.6c.264-.152.289-.386.053-.521l-5.955-3.439A1.007,1.007,0,0,0,158.4,327.763Zm36.391-21.01-6.224,3.593c-.265.153-.289.387-.054.523l5.955,3.438a1,1,0,0,0,.9-.031l6.224-3.594c.265-.152.289-.386.054-.522l-5.955-3.438A1,1,0,0,0,194.793,306.753Zm-9.1,5.252-6.224,3.594c-.264.153-.289.387-.054.522l5.955,3.439a1.009,1.009,0,0,0,.9-.031l6.225-3.594c.264-.153.288-.387.053-.522l-5.955-3.439A1.006,1.006,0,0,0,185.7,312.005Zm18.2-10.505-6.224,3.593c-.265.154-.289.387-.054.523l5.955,3.438a1,1,0,0,0,.9-.031l6.225-3.594c.265-.152.288-.386.053-.521l-5.955-3.439A1,1,0,0,0,203.891,301.5ZM167.5,322.51l-6.225,3.6c-.264.152-.289.386-.053.521l5.955,3.439a1,1,0,0,0,.9-.031l6.225-3.594c.264-.153.289-.386.054-.522L168.4,322.48A1.007,1.007,0,0,0,167.5,322.51Zm9.1-5.252-6.224,3.594c-.264.153-.289.386-.053.522l5.955,3.438a1,1,0,0,0,.9-.03l6.225-3.6c.264-.152.288-.386.053-.521l-5.955-3.439A1,1,0,0,0,176.6,317.258Zm-11.612,34.211,6.225-3.594c.265-.153.288-.386.054-.522l-5.956-3.439a1,1,0,0,0-.9.031l-6.225,3.594c-.265.153-.288.387-.053.522l5.955,3.439A1.007,1.007,0,0,0,164.985,351.469ZM117.011,349.2l-5.956-3.439a1.007,1.007,0,0,0-.9.031l-6.225,3.594c-.264.153-.288.386-.053.522l5.955,3.438a1,1,0,0,0,.9-.031l6.224-3.593C117.222,349.574,117.246,349.34,117.011,349.2Zm11.859,2.976-5.956-3.438a1,1,0,0,0-.9.031l-9.577,5.529c-.265.153-.288.386-.053.522l5.955,3.438a1,1,0,0,0,.9-.031l9.577-5.529C129.081,352.55,129.1,352.317,128.87,352.181Zm-20.748-9.767-5.955-3.438a1,1,0,0,0-.9.03L93.6,343.43c-.264.152-.288.387-.053.522L99.5,347.39a1,1,0,0,0,.9-.031l7.662-4.423C108.333,342.784,108.357,342.549,108.122,342.414ZM114,339.023a1,1,0,0,0,.9-.031l6.224-3.594c.265-.153.289-.386.054-.522l-5.955-3.438a1.006,1.006,0,0,0-.9.03l-6.224,3.594c-.265.153-.289.387-.054.522Zm25.776,16.688-5.955-3.439a1,1,0,0,0-.9.032l-11.972,6.911c-.264.153-.288.386-.053.522l5.955,3.438a1,1,0,0,0,.9-.03l11.971-6.912C139.983,356.08,140.007,355.846,139.772,355.711Zm4.2,7.4-5.956-3.437a1,1,0,0,0-.9.03l-7.662,4.424c-.264.152-.288.386-.053.522l5.955,3.438a1,1,0,0,0,.9-.031l7.662-4.423C144.181,363.48,144.2,363.246,143.97,363.11Zm37.669-63.141a1,1,0,0,0,.9-.031l6.225-3.594c.264-.152.289-.386.053-.522l-5.954-3.438a1,1,0,0,0-.9.031l-6.225,3.593c-.264.154-.288.387-.053.523Zm-18.2,10.505a1,1,0,0,0,.905-.031l6.225-3.594c.264-.152.288-.386.052-.522l-5.954-3.438a1,1,0,0,0-.9.031l-6.224,3.594c-.265.153-.289.386-.054.522Zm-40.35,23.3a1.006,1.006,0,0,0,.9-.031l6.224-3.594c.265-.152.289-.386.054-.522l-5.955-3.438a1.006,1.006,0,0,0-.9.031l-6.225,3.594c-.264.152-.288.386-.053.522Zm49.448-28.549a1,1,0,0,0,.9-.03l6.225-3.594c.265-.153.289-.387.054-.523l-5.956-3.438a1,1,0,0,0-.9.031l-6.224,3.594c-.265.153-.289.387-.054.522Zm-18.2,10.506a1,1,0,0,0,.9-.032l6.224-3.593c.265-.153.289-.387.054-.522l-5.955-3.438a1,1,0,0,0-.9.031l-6.224,3.593c-.265.153-.289.387-.054.523Zm-5.907,47.752a1,1,0,0,0-.9.03l-9.576,5.529c-.265.153-.289.387-.054.523L143.859,373a1,1,0,0,0,.9-.03l9.576-5.529c.265-.153.289-.387.053-.522Zm-7.149-40.214a1.007,1.007,0,0,0,.9-.031l6.225-3.594c.265-.153.288-.386.053-.522l-5.954-3.439a1.006,1.006,0,0,0-.9.032l-6.225,3.594c-.264.152-.288.386-.053.521Zm-9.1,5.252a1,1,0,0,0,.9-.03l6.225-3.594c.265-.153.289-.387.054-.522l-5.956-3.439a1.007,1.007,0,0,0-.9.031l-6.225,3.594c-.264.153-.288.387-.053.522Zm184.8-62.351a1.007,1.007,0,0,0-.9.031l-15.322,8.846c-.265.153-.289.387-.054.523L306.663,279a1,1,0,0,0,.9-.031l15.322-8.847c.264-.152.289-.386.054-.521Zm-20.111,11.612a1,1,0,0,0-.9.03l-6.225,3.594c-.264.153-.288.386-.053.522l5.955,3.439a1,1,0,0,0,.9-.032l6.225-3.593c.265-.153.288-.387.053-.523ZM174.083,346.216l6.225-3.594c.264-.153.288-.386.053-.522l-5.955-3.438a1,1,0,0,0-.9.031l-6.225,3.594c-.265.152-.288.386-.053.522l5.955,3.438A1,1,0,0,0,174.083,346.216Zm104.6-57.933a1.006,1.006,0,0,0-.9.03l-6.225,3.594c-.264.153-.288.387-.053.522l5.955,3.439a1,1,0,0,0,.9-.031l6.225-3.594c.265-.153.289-.387.054-.522Zm47.4-27.369a1,1,0,0,0-.9.03l-6.225,3.594c-.264.153-.288.387-.053.522l5.955,3.438a1,1,0,0,0,.9-.03l6.225-3.594c.264-.153.288-.386.054-.522Zm15.053-1.814-14.463-8.351a1,1,0,0,0-.9.031l-6.225,3.594c-.264.152-.288.387-.053.522l14.463,8.35a1,1,0,0,0,.9-.03l6.225-3.6C341.349,259.469,341.373,259.235,341.138,259.1Zm-96.455,48.811a1,1,0,0,0-.9.031l-7.661,4.423c-.265.153-.289.387-.054.522l5.955,3.438a1,1,0,0,0,.9-.031l7.661-4.423c.264-.152.289-.387.053-.522Zm22.985-13.27a1.006,1.006,0,0,0-.9.031l-9.577,5.529c-.264.153-.288.386-.053.522l5.955,3.439a1.009,1.009,0,0,0,.9-.031l9.576-5.53c.265-.152.289-.386.053-.522Zm-44.053,25.434a1,1,0,0,0-.9.031l-51.234,29.581c-.265.152-.29.386-.054.521l5.955,3.439a1,1,0,0,0,.9-.031l51.235-29.58c.265-.153.289-.387.054-.523Zm-54.109,31.239a1.007,1.007,0,0,0-.9.031l-7.661,4.423c-.265.153-.289.387-.054.523l5.955,3.438a1.006,1.006,0,0,0,.9-.031l7.661-4.424c.264-.152.288-.385.053-.521Zm64.643-37.321a1,1,0,0,0-.9.031l-7.662,4.423c-.264.153-.289.387-.053.522l5.955,3.438a1.006,1.006,0,0,0,.9-.03l7.661-4.424c.264-.152.288-.386.053-.522Zm-75.177,43.4a1.007,1.007,0,0,0-.9.031l-7.662,4.423c-.264.153-.288.387-.053.523l5.955,3.438a1,1,0,0,0,.9-.031l7.661-4.423c.265-.153.289-.386.054-.523Zm96.246-55.567a1,1,0,0,0-.9.031l-7.662,4.423c-.264.153-.288.387-.053.522l5.955,3.438a1,1,0,0,0,.9-.03l7.662-4.424c.264-.152.288-.386.053-.522Zm32.561-18.8a1,1,0,0,0-.9.031l-6.225,3.594c-.264.152-.288.386-.053.522l5.955,3.438a1,1,0,0,0,.9-.031l6.225-3.593c.265-.153.288-.387.054-.523Zm20.377-14.221,6.225-3.594c.265-.153.289-.387.054-.523l-5.955-3.437a1.006,1.006,0,0,0-.9.03l-6.225,3.594c-.264.153-.288.387-.053.522l5.956,3.438A1,1,0,0,0,308.156,268.809ZM271.03,270.6,277.255,267c.265-.152.288-.386.054-.522l-5.956-3.438a1,1,0,0,0-.9.031l-6.224,3.594c-.265.153-.289.386-.054.522l5.955,3.438A1,1,0,0,0,271.03,270.6Zm-24.164,33.6,18.2-10.505c.264-.153.288-.387.053-.523l-5.955-3.438a1,1,0,0,0-.9.031l-18.2,10.506c-.265.152-.289.386-.054.522l5.956,3.438A1,1,0,0,0,246.866,304.2Zm51.289-30.1a1,1,0,0,0,.9-.031l6.225-3.594c.265-.152.289-.386.054-.522l-5.955-3.438a1,1,0,0,0-.9.031l-6.226,3.594c-.264.152-.287.387-.053.522Zm-7.6-4.942,6.225-3.6c.264-.152.289-.386.053-.521l-5.955-3.438a1,1,0,0,0-.9.03l-6.224,3.594c-.265.153-.289.386-.054.522l5.955,3.438A1,1,0,0,0,290.551,269.15Zm-52.783,40.3,6.225-3.6c.264-.152.288-.385.053-.521l-5.955-3.439a1,1,0,0,0-.9.031l-6.225,3.6c-.265.152-.289.385-.053.521l5.955,3.438A1,1,0,0,0,237.768,309.448ZM278.043,285.7a1.006,1.006,0,0,0,.9-.03l6.225-3.6c.264-.152.288-.386.053-.521l-5.955-3.439a1,1,0,0,0-.9.031l-6.225,3.594c-.265.153-.289.386-.054.522Zm-85.764,50.008,6.225-3.594c.264-.153.288-.386.053-.522l-5.955-3.438a1,1,0,0,0-.9.03l-6.225,3.6c-.265.152-.288.386-.054.521l5.956,3.439A1,1,0,0,0,192.279,335.711Zm9.1-5.253,6.225-3.594c.264-.153.288-.386.053-.522L201.7,322.9a1,1,0,0,0-.9.031l-6.225,3.594c-.264.152-.289.386-.054.522l5.955,3.438A1,1,0,0,0,201.377,330.458Zm-18.2,10.505,6.225-3.594c.264-.152.288-.386.053-.522l-5.955-3.438a1,1,0,0,0-.9.031l-6.225,3.594c-.265.152-.288.386-.054.522l5.956,3.439A1,1,0,0,0,183.181,340.963Zm36.391-21.01,6.225-3.594c.265-.153.289-.387.053-.522L219.9,312.4a1,1,0,0,0-.9.03l-6.225,3.6c-.264.152-.288.386-.053.521l5.955,3.439A1,1,0,0,0,219.572,319.953Zm-9.1,5.252,6.225-3.593c.265-.153.289-.387.054-.522l-5.956-3.439a1,1,0,0,0-.9.031l-6.225,3.594c-.264.153-.288.387-.053.522l5.955,3.439A1,1,0,0,0,210.474,325.2Zm18.2-10.5,6.225-3.594c.264-.152.288-.386.054-.522l-5.956-3.438a1,1,0,0,0-.9.031l-6.225,3.594c-.264.152-.288.386-.053.522l5.955,3.439A1,1,0,0,0,228.67,314.7Zm49.647-73.071a1.007,1.007,0,0,0,.9-.031L285.447,238c.264-.153.288-.386.053-.522l-1.585-.916a1.009,1.009,0,0,0-.9.031l-6.225,3.594c-.263.153-.288.387-.053.522ZM233.1,270.259a1,1,0,0,0,.9-.031l6.225-3.594c.264-.152.288-.386.053-.522l-5.955-3.438a1,1,0,0,0-.9.03l-6.225,3.6c-.264.152-.289.386-.054.522Zm18.2-10.505a1,1,0,0,0,.9-.031l6.225-3.594c.265-.153.289-.386.054-.522l-5.955-3.439a1.009,1.009,0,0,0-.9.031l-6.225,3.594c-.263.153-.288.387-.053.522Zm-29.305,16.919a1,1,0,0,0,.9-.031l6.225-3.594c.264-.152.288-.386.053-.522l-5.955-3.439a1.007,1.007,0,0,0-.9.032l-6.225,3.593c-.264.153-.288.387-.053.523ZM242.2,265.007a1.007,1.007,0,0,0,.9-.031l6.225-3.594c.264-.153.288-.387.053-.522l-5.955-3.438a1,1,0,0,0-.9.03l-6.225,3.594c-.265.153-.289.386-.054.522Zm-38.4,22.172a1,1,0,0,0,.9-.032l6.225-3.593c.265-.153.288-.387.054-.523l-5.956-3.438a1,1,0,0,0-.9.031l-6.225,3.594c-.265.153-.288.386-.053.522Zm9.1-5.253a1.007,1.007,0,0,0,.9-.031l6.225-3.594c.264-.153.288-.386.053-.522l-5.955-3.439a1.007,1.007,0,0,0-.9.031l-6.225,3.594c-.265.153-.288.386-.054.522Zm47.23-29.792a1.006,1.006,0,0,0,.9-.031l6.225-3.594c.264-.153.288-.386.053-.522l-1.585-.915a1,1,0,0,0-.9.03l-6.225,3.6c-.265.152-.289.386-.054.521Zm27.294-15.758a1,1,0,0,0,.9-.031l6.226-3.594c.264-.153.288-.386.053-.522l-1.585-.916a1.009,1.009,0,0,0-.9.032l-6.225,3.593c-.264.153-.288.387-.053.523Zm12.51,7.223a1.006,1.006,0,0,0,.9-.031l6.225-3.594c.264-.153.288-.386.053-.522l-5.955-3.438a1,1,0,0,0-.905.03l-6.225,3.6c-.264.152-.288.386-.053.521Zm17.329,19.957,6.225-3.594c.265-.152.289-.386.054-.522L317.577,256a1,1,0,0,0-.9.031l-6.225,3.593c-.264.153-.288.387-.053.522l5.955,3.439A1,1,0,0,0,317.254,263.556Zm-48.035-16.675a1,1,0,0,0,.9-.031l6.225-3.593c.264-.153.288-.387.053-.523l-1.586-.915a1,1,0,0,0-.9.031l-6.225,3.594c-.264.153-.288.386-.053.522ZM194.7,292.431a1,1,0,0,0,.9-.031l6.225-3.594c.264-.153.289-.386.054-.522l-5.956-3.438a1,1,0,0,0-.9.03l-6.225,3.6c-.264.152-.288.386-.053.521Z" fill="#455a64"/><path d="M220.753,344.2l1.354.78,35.951,20.753,63.934-36.913,1.331-.758-37.3-21.533Z" fill="#263238"/><path d="M321.17,329.3l-35.152-20.28-63.091,36.44,35.13,20.279Z" fill="#37474f"/><path d="M98.223,409.718h3V395.956a11.079,11.079,0,0,0-5.08-8.8l-16.1-9.292a4.04,4.04,0,0,0-6.479,3.828l.283,13.983,3-.06-.283-13.984c-.016-.737.161-1.3.46-1.481s.88-.056,1.519.312l16.1,9.292a8.049,8.049,0,0,1,3.58,6.2Z" fill="#37474f"/><path d="M47.793,443.519l3.219-59.287a5.228,5.228,0,0,1,2.338-3.8L55.2,379.36a1.579,1.579,0,0,1,1.633-.123v-.007l61.954,35.777-8.527,65.684L48.343,444.942h0A1.471,1.471,0,0,1,47.793,443.519Z" fill="#37474f"/><path d="M121.087,475.115l-9.351,5.4c-1.213.7-2.135.134-2.058-1.266l3.219-59.286a5.229,5.229,0,0,1,2.338-3.8l1.851-1.068a1.423,1.423,0,0,1,2.323,1.265l3.751,54.956A4.556,4.556,0,0,1,121.087,475.115Z" fill="#263238"/><path d="M88.48,462.668a.847.847,0,0,0,.845-.8l1.641-27.778a.846.846,0,0,0-1.689-.1l-1.641,27.778a.846.846,0,0,0,.795.894A.4.4,0,0,0,88.48,462.668Z" fill="#3343E0"/><path d="M64.753,449.035a.847.847,0,0,0,.844-.8l1.639-27.778a.846.846,0,0,0-1.689-.1l-1.639,27.778a.846.846,0,0,0,.8.894A.415.415,0,0,0,64.753,449.035Z" fill="#3343E0"/><path d="M104.89,447.325a4.49,4.49,0,0,0,6.726-3.638l1.274-23.734a5.243,5.243,0,0,1,2.352-3.79l1.844-1.066a1.624,1.624,0,0,1,1.506-.2L56.829,379.228v.017a1.512,1.512,0,0,0-1.624.118l-1.861,1.066a5.269,5.269,0,0,0-2.335,3.808l-1.257,23.425a12.384,12.384,0,0,0,6.176,11.42Z" fill="#455a64"/><path d="M83.209,432.113l-8.978-5.18-.381,4.97,9,5.194Z" fill="#3343E0"/><path d="M63.133,184.368a4.949,4.949,0,0,1-2.164-3.915l0-12.656a5.1,5.1,0,0,1,2.311-4L268.145,45.472a4.332,4.332,0,0,1,6.634,3.831V61.961a5.08,5.08,0,0,1-2.3,4L67.606,184.284A4.95,4.95,0,0,1,63.133,184.368Z" fill="#3343E0"/><path d="M274.757,48.928c-.16-1.194-1.13-1.631-2.281-.959L67.605,166.3a4.9,4.9,0,0,0-1.631,1.727l-4.329-2.5a4.794,4.794,0,0,1,1.631-1.719L268.147,45.474a4.311,4.311,0,0,1,6.61,3.454Z" fill="#fff" opacity="0.2"/><path d="M65.974,168.023a4.69,4.69,0,0,0-.672,2.271v6.971l-4.339-2.505,0-6.963c0-.1,0-.182.012-.278a4.069,4.069,0,0,1,.089-.573,5.26,5.26,0,0,1,.579-1.428Z" opacity="0.15"/><path d="M274.779,49.3v6.972L136.89,135.934c-1.269.735-63.965,36.929-65.234,37.664L65.3,177.266v-6.972a5.114,5.114,0,0,1,2.3-4L272.476,47.969C273.744,47.233,274.779,47.83,274.779,49.3Z" fill="#3343E0"/><path d="M268.462,53.68c.823-.476,1.491-.09,1.491.861a3.3,3.3,0,0,1-1.491,2.583c-.824.476-1.492.09-1.492-.861A3.3,3.3,0,0,1,268.462,53.68Z" fill="#fff"/><path d="M263.092,56.776c.824-.476,1.491-.09,1.491.861a3.294,3.294,0,0,1-1.491,2.583c-.824.476-1.492.09-1.492-.861A3.3,3.3,0,0,1,263.092,56.776Z" fill="#fff"/><path d="M257.722,59.872c.824-.476,1.492-.09,1.492.861a3.3,3.3,0,0,1-1.492,2.583c-.823.476-1.491.09-1.491-.861A3.3,3.3,0,0,1,257.722,59.872Z" fill="#fff"/><path d="M67.606,332.33a3.965,3.965,0,0,1-1.814.55,4.551,4.551,0,0,1-2.654-.466,4.925,4.925,0,0,1-2.164-3.913L60.963,174.76l4.339,2.505V331c0,1.045.525,1.649,1.282,1.649A2.271,2.271,0,0,0,67.606,332.33Z" fill="#e0e0e0"/><path d="M274.78,210a5.089,5.089,0,0,1-2.3,4L67.606,332.33c-1.269.735-2.3.137-2.3-1.334V177.266l6.354-3.668c1.269-.735,65.234-37.664,65.234-37.664L274.78,56.273V210Z" fill="#fafafa"/><path d="M273.864,57.86V210a4.215,4.215,0,0,1-1.846,3.207L67.146,331.538a1.171,1.171,0,0,1-.566.191c-.315,0-.362-.459-.362-.733v-153.2l5.9-3.4c1.254-.727,64.593-37.3,65.233-37.664L273.864,57.86m.916-1.587L136.89,135.934S72.925,172.863,71.656,173.6L65.3,177.266V331c0,1.044.521,1.649,1.277,1.649a2.085,2.085,0,0,0,1.027-.315L272.476,214a5.089,5.089,0,0,0,2.3-4V56.273Z" fill="#ebebeb"/><path d="M279.249,67.763,79.636,182.852a4.738,4.738,0,0,0-2.145,3.714V338.2a4.715,4.715,0,0,0,2.149,3.706l1.339.766a4.763,4.763,0,0,0,4.293-.009L284.887,227.492a4.741,4.741,0,0,0,2.144-3.715V72.228a4.715,4.715,0,0,0-2.149-3.706l-1.338-.766A4.77,4.77,0,0,0,279.249,67.763Z" fill="#e0e0e0"/><path d="M287.031,223.93c0,1.886-1.323,3.087-2.964,4.03L86.092,342.181c-1.632.943-2.964.182-2.964-1.713V190.722h0a5.9,5.9,0,0,1,2.95-5.111L284.065,71.362a1.977,1.977,0,0,1,2.966,1.712h0Z" fill="#fafafa"/><path d="M285.051,72.094a.983.983,0,0,1,.98.98V223.93c0,1.226-.736,2.171-2.463,3.164L85.591,341.316a1.68,1.68,0,0,1-.821.27c-.559,0-.642-.7-.642-1.118V190.722a4.916,4.916,0,0,1,2.45-4.245L284.565,72.228a.96.96,0,0,1,.486-.134m0-1a1.958,1.958,0,0,0-.986.268L86.078,185.611a5.9,5.9,0,0,0-2.95,5.111V340.468c0,1.344.67,2.118,1.642,2.118a2.675,2.675,0,0,0,1.322-.4L284.067,227.96c1.641-.943,2.964-2.144,2.964-4.03V73.074a1.979,1.979,0,0,0-1.98-1.98Z" fill="#ebebeb"/><path d="M287.032,72.23v.841a1.98,1.98,0,0,0-2.971-1.708L86.077,185.613a5.742,5.742,0,0,0-2.154,2.155.215.215,0,0,0-.033.066L78.1,184.491a4.417,4.417,0,0,1,1.544-1.635L279.249,67.764a4.764,4.764,0,0,1,4.292-.008l1.337.767A4.709,4.709,0,0,1,287.032,72.23Z" fill="#f0f0f0"/><path d="M160.716,166.234l1.221-.983.228-.132,1.231-.432v.87l-2.68,1.548Zm3.5-13.5.988-.57,2.738,10.767-1.6.922-2.234-9.222.365-.687L162.1,166.3l-.641.37Zm-1.35,8.368,3.251-1.877.231.834-3.679,2.125Zm2.2,2.643,1.437-1.108.528-.3,1.52-.6v.85l-3.485,2.011Z" fill="#455a64"/><path d="M169.08,150.856v-.87l1.812-1.046v1.148l-.155.09Zm1.968,9.134,1.658-.678v.87l-3.626,2.093v-.87l1.657-1.235Zm-.936-4.857c0-1.908,0-3.835-.035-5.722l1.615-.933c-.037,1.927-.037,3.784-.037,5.881v.563c0,2.031,0,3.958.037,5.845l-1.615.933c.035-1.892.035-3.819.035-5.763Zm.79-.513,1.46-.844a3.785,3.785,0,0,0,1.741-3.422c0-1.523-.533-2-1.648-1.355l-1.563.9v-.96l1.818-1.05c1.868-1.078,2.934-.517,2.934,1.471a5.694,5.694,0,0,1-2.6,4.627l.023-.181c1.393-.7,1.9-.2,2.163,1.479l.453,2.7-.686-.261,1.527-.619v.87a4.826,4.826,0,0,1-1.1.859c-.889.513-1.355.4-1.486-.671l-.356-2.372c-.18-1.268-.549-1.47-1.408-.975l-1.271.734Z" fill="#455a64"/><path d="M176.907,146.455l.709-1.4-.35,3.574-.842.486.07-3.412,6.825-3.941.065,3.335-.837.483-.35-3.17.7.58Zm3.184,8.315,1.751-.733v.87l-3.872,2.235v-.87l1.734-1.279Zm-.967-4.84c0-1.908,0-3.835-.037-5.722l1.633-.943c-.036,1.892-.036,3.819-.036,5.764v.8c0,1.914,0,3.841.036,5.728l-1.633.943c.037-1.892.037-3.819.037-5.763Z" fill="#455a64"/><path d="M184.088,142.191v-.87l3.632-2.1v.87l-1.675,1.246-.3.172Zm1.957,9.141,1.675-.689v.87l-3.632,2.1v-.87l1.658-1.236Zm-.924-4.864c0-1.908,0-3.835-.035-5.723l1.631-.942c-.035,1.891-.035,3.818-.035,5.763v.8c0,1.914,0,3.841.035,5.729l-1.631.942c.035-1.891.035-3.818.035-5.763Z" fill="#455a64"/><path d="M194.7,145.687v.984l-.777.715.354-3.028.827-.477-.049,2.795a7.968,7.968,0,0,1-2.48,2.348c-2.374,1.372-4.126-.016-4.126-4.073s1.859-7.53,4.163-8.86a3.006,3.006,0,0,1,2.341-.449L195,138.4l-.827.477-.359-2.63.778-.176v1.076a1.412,1.412,0,0,0-1.766-.189c-1.452.839-2.672,3.319-2.672,7.019s1.131,4.8,2.6,3.953A5.739,5.739,0,0,0,194.7,145.687Z" fill="#455a64"/><path d="M195.967,135.333v-.871l3.676-2.122v.871l-1.676,1.245-.341.2Zm1.814,9.223v1.149l-1.814,1.047v-.871l1.659-1.235Zm-.816-10.669,1.632-.943c-.036,1.915-.036,3.842-.036,5.764v1.133c0,1.6,0,3.528.036,5.392l-1.632.943c.036-1.915.036-3.842.036-5.566v-1C197,137.678,197,135.751,196.965,133.887ZM202.2,139.6l-.12,3.627-4.3,2.482v-.994l3.886-2.244-.79,1.45.476-3.833Z" fill="#455a64"/><path d="M202.9,131.33v-.87l1.813-1.047v1.149l-.155.089Zm1.813,9.224V141.7l-1.813,1.047v-.87l1.658-1.235Zm-.78-4.947c0-1.908,0-3.835-.036-5.723l1.633-.942c-.036,1.891-.036,3.818-.036,5.764v.656c0,2.055,0,3.981.036,5.869l-1.633.942c.036-1.891.036-3.818.036-5.762Zm3.912-8,.709.578-3.841,2.217v-.987l4.253-2.455.085,3.194-.842.486Zm-.446,6.726-2.686,1.55v-.974l2.686-1.55Zm1.894,1.484-.085,3.292-4.495,2.6v-.98l4.082-2.357-.709,1.39.364-3.453Zm-2.271-1.988.181-1.972.621-.359v4.186l-.621.358-.181-1.856Z" fill="#455a64"/><path d="M214.523,128.525c4.3-2.719,8.65-5.343,13.01-7.953s8.764-5.146,13.143-7.723c4.421-2.507,8.819-5.051,13.259-7.523l6.671-3.69c2.242-1.2,4.466-2.426,6.723-3.6-2.143,1.368-4.319,2.68-6.478,4.023l-6.531,3.932c-4.361,2.609-8.763,5.146-13.144,7.721-4.421,2.5-8.818,5.052-13.26,7.521S219.027,126.163,214.523,128.525Z" fill="#455a64"/><path d="M102.83,193.019c4.3-2.719,8.649-5.344,13.01-7.954s8.763-5.146,13.143-7.723c4.42-2.506,8.819-5.05,13.259-7.522l6.671-3.69c2.241-1.2,4.466-2.427,6.723-3.6-2.144,1.369-4.32,2.681-6.478,4.023l-6.531,3.932c-4.361,2.61-8.764,5.147-13.144,7.722-4.422,2.5-8.819,5.051-13.26,7.521S107.333,190.657,102.83,193.019Z" fill="#455a64"/><path d="M99.695,214.207V267.72c0,.769.54,1.081,1.206.7l50.394-29.094a2.667,2.667,0,0,0,1.206-2.09V183.719c0-.769-.54-1.081-1.206-.7l-50.394,29.1A2.665,2.665,0,0,0,99.695,214.207Z" fill="#3343E0"/><path d="M99.695,214.207V267.72c0,.769.54,1.081,1.206.7l50.394-29.094a2.667,2.667,0,0,0,1.206-2.09V183.719c0-.769-.54-1.081-1.206-.7l-50.394,29.1A2.665,2.665,0,0,0,99.695,214.207Z" fill="#fff" opacity="0.5"/><path d="M102.48,214.422l47.235-27.27v49.865L102.48,264.288Z" fill="#fff" opacity="0.5"/><path d="M102.48,264.288V248.31l12.756-28.963,20.8,14.446-6.892-7,8.769-11,11.8,5.353v15.865Z" fill="#fff"/><ellipse cx="5.334" cy="3.08" rx="5.334" ry="3.08" transform="matrix(0.5, -0.866, 0.866, 0.5, 128.308, 209.36)" fill="#fff"/><path d="M217.475,197.784V251.3c0,.769.54,1.081,1.206.7L269.075,222.9a2.669,2.669,0,0,0,1.206-2.09V167.3c0-.769-.54-1.081-1.206-.7l-50.394,29.1A2.665,2.665,0,0,0,217.475,197.784Z" fill="#3343E0"/><path d="M217.475,197.784V251.3c0,.769.54,1.081,1.206.7L269.075,222.9a2.669,2.669,0,0,0,1.206-2.09V167.3c0-.769-.54-1.081-1.206-.7l-50.394,29.1A2.665,2.665,0,0,0,217.475,197.784Z" fill="#fff" opacity="0.5"/><path d="M220.26,198l47.235-27.27v49.865L220.26,247.865Z" fill="#fff" opacity="0.5"/><path d="M220.26,247.865V231.887l12.756-28.963,20.8,14.446-6.892-7,8.77-11,11.8,5.353v15.866Z" fill="#fff"/><path d="M251.422,185.5c2.083-1.2,3.772-.227,3.772,2.178a8.337,8.337,0,0,1-3.772,6.533c-2.083,1.2-3.771.228-3.772-2.178A8.339,8.339,0,0,1,251.422,185.5Z" fill="#fff"/><path d="M99.695,279.36a.75.75,0,0,1-.376-1.4l52.807-30.489a.75.75,0,0,1,.75,1.3l-52.807,30.488A.738.738,0,0,1,99.695,279.36Z" fill="#e0e0e0"/><path d="M99.695,286.374a.75.75,0,0,1-.376-1.4l52.807-30.488a.75.75,0,0,1,.75,1.3l-52.807,30.488A.748.748,0,0,1,99.695,286.374Z" fill="#e0e0e0"/><path d="M99.695,293.387a.75.75,0,0,1-.376-1.4L152.126,261.5a.75.75,0,0,1,.75,1.3l-52.807,30.49A.747.747,0,0,1,99.695,293.387Z" fill="#e0e0e0"/><path d="M99.695,300.4a.75.75,0,0,1-.376-1.4l52.807-30.49a.75.75,0,0,1,.75,1.3L100.069,300.3A.738.738,0,0,1,99.695,300.4Z" fill="#e0e0e0"/><path d="M99.695,307.414a.75.75,0,0,1-.376-1.4l52.807-30.488a.75.75,0,0,1,.75,1.3l-52.807,30.488A.748.748,0,0,1,99.695,307.414Z" fill="#e0e0e0"/><path d="M99.695,314.427a.75.75,0,0,1-.376-1.4l52.807-30.488a.75.75,0,0,1,.75,1.3l-52.807,30.489A.747.747,0,0,1,99.695,314.427Z" fill="#e0e0e0"/><path d="M99.695,321.441a.75.75,0,0,1-.376-1.4l52.807-30.489a.75.75,0,0,1,.75,1.3L100.069,321.34A.738.738,0,0,1,99.695,321.441Z" fill="#e0e0e0"/><path d="M217.475,147.958a.75.75,0,0,1-.376-1.4l52.807-30.488a.75.75,0,0,1,.75,1.3l-52.807,30.488A.748.748,0,0,1,217.475,147.958Z" fill="#e0e0e0"/><path d="M217.475,154.971a.75.75,0,0,1-.376-1.4l52.807-30.489a.75.75,0,0,1,.75,1.3l-52.807,30.489A.747.747,0,0,1,217.475,154.971Z" fill="#e0e0e0"/><path d="M217.475,161.984a.75.75,0,0,1-.376-1.4L269.906,130.1a.75.75,0,0,1,.75,1.3l-52.807,30.488A.747.747,0,0,1,217.475,161.984Z" fill="#e0e0e0"/><path d="M217.475,169a.75.75,0,0,1-.376-1.4l52.807-30.489a.75.75,0,0,1,.75,1.3L217.849,168.9A.747.747,0,0,1,217.475,169Z" fill="#e0e0e0"/><path d="M217.475,176.012a.75.75,0,0,1-.376-1.4l52.807-30.488a.75.75,0,0,1,.75,1.3l-52.807,30.488A.738.738,0,0,1,217.475,176.012Z" fill="#e0e0e0"/><path d="M217.475,183.025a.75.75,0,0,1-.376-1.4l52.807-30.489a.75.75,0,0,1,.75,1.3l-52.807,30.489A.747.747,0,0,1,217.475,183.025Z" fill="#e0e0e0"/><path d="M217.475,190.039a.75.75,0,0,1-.376-1.4l52.807-30.488a.75.75,0,0,1,.75,1.3l-52.807,30.488A.748.748,0,0,1,217.475,190.039Z" fill="#e0e0e0"/><path d="M158.677,245.309a.75.75,0,0,1-.376-1.4l52.807-30.489a.75.75,0,0,1,.75,1.3l-52.807,30.488A.738.738,0,0,1,158.677,245.309Z" fill="#e0e0e0"/><path d="M158.677,252.323a.75.75,0,0,1-.376-1.4l52.807-30.488a.75.75,0,0,1,.75,1.3l-52.807,30.489A.738.738,0,0,1,158.677,252.323Z" fill="#e0e0e0"/><path d="M158.677,259.337a.75.75,0,0,1-.376-1.4l52.807-30.489a.75.75,0,0,1,.75,1.3l-52.807,30.489A.748.748,0,0,1,158.677,259.337Z" fill="#e0e0e0"/><path d="M158.677,266.35a.75.75,0,0,1-.376-1.4l52.807-30.489a.75.75,0,0,1,.75,1.3l-52.807,30.488A.738.738,0,0,1,158.677,266.35Z" fill="#e0e0e0"/><path d="M158.677,273.363a.75.75,0,0,1-.376-1.4l52.807-30.488a.75.75,0,0,1,.75,1.3l-52.807,30.488A.738.738,0,0,1,158.677,273.363Z" fill="#e0e0e0"/><path d="M158.677,280.377a.75.75,0,0,1-.376-1.4l52.807-30.488a.75.75,0,0,1,.75,1.3l-52.807,30.488A.748.748,0,0,1,158.677,280.377Z" fill="#e0e0e0"/><path d="M158.677,287.39a.75.75,0,0,1-.376-1.4L211.108,255.5a.75.75,0,1,1,.75,1.3L159.051,287.29A.747.747,0,0,1,158.677,287.39Z" fill="#e0e0e0"/><path d="M158.677,196.039a.75.75,0,0,1-.376-1.4l52.807-30.489a.75.75,0,0,1,.75,1.3l-52.807,30.489A.748.748,0,0,1,158.677,196.039Z" fill="#e0e0e0"/><path d="M158.677,203.052a.75.75,0,0,1-.376-1.4l52.807-30.488a.75.75,0,0,1,.75,1.3l-52.807,30.488A.738.738,0,0,1,158.677,203.052Z" fill="#e0e0e0"/><path d="M158.677,181.878a.75.75,0,0,1-.376-1.4l52.807-30.489a.75.75,0,0,1,.75,1.3l-52.807,30.488A.738.738,0,0,1,158.677,181.878Z" fill="#e0e0e0"/><path d="M158.677,188.892a.75.75,0,0,1-.376-1.4L211.108,157a.75.75,0,0,1,.75,1.3l-52.807,30.489A.748.748,0,0,1,158.677,188.892Z" fill="#e0e0e0"/><path d="M158.677,210.065a.75.75,0,0,1-.376-1.4l52.807-30.488a.75.75,0,0,1,.75,1.3l-52.807,30.488A.747.747,0,0,1,158.677,210.065Z" fill="#e0e0e0"/><path d="M158.677,217.079a.75.75,0,0,1-.376-1.4l52.807-30.489a.75.75,0,0,1,.75,1.3l-52.807,30.489A.747.747,0,0,1,158.677,217.079Z" fill="#e0e0e0"/><path d="M158.677,224.093a.75.75,0,0,1-.376-1.4l52.807-30.488a.75.75,0,1,1,.75,1.3l-52.807,30.489A.738.738,0,0,1,158.677,224.093Z" fill="#e0e0e0"/><path d="M158.677,231.106a.75.75,0,0,1-.376-1.4l52.807-30.489a.75.75,0,0,1,.75,1.3l-52.807,30.488A.738.738,0,0,1,158.677,231.106Z" fill="#e0e0e0"/><path d="M158.677,238.12a.75.75,0,0,1-.376-1.4l52.807-30.488a.75.75,0,0,1,.75,1.3l-52.807,30.488A.748.748,0,0,1,158.677,238.12Z" fill="#e0e0e0"/><path d="M415.953,314s-9.871,33.454-11.242,40.188c-1.019,5-1.872,8.74-1.626,12.5s2.192,9.321,3.408,12.056c0,0,3.67,7.278,2.306,7.517s-12.911-1.878-17.481-4.866-3.85-7.4-3.272-15.667,2.448-20.047,2.448-20.047a5.281,5.281,0,0,0,.9-1.163c1.324-2.043,2.407-27.327,2.565-33.081Z" fill="#874c4c"/><path d="M392.917,332.383l13.376,15.466c1.158-4.325,2.745-9.961,4.3-15.394-1.788-5.351-4.081-12.068-5.9-16.9-.415-1.1-.814-2.094-1.2-3.006l-9.531-1.109C393.872,314.72,393.481,324.336,392.917,332.383Z" fill="#9e6767"/><path d="M383.78,354.424c-.338,1.89.434,4.463.083,7.475a52.4,52.4,0,0,1-2.156,10.118l-1.438,4.605,1.25.39,2.619-8.385c.8-2.557,1.95-4.308,3.258-4.2C387.4,364.426,389.828,356.313,383.78,354.424Z" fill="#263238"/><path d="M391,344.7c-1.444,1.9-4.146,3.424-6.124,6.377a7.182,7.182,0,0,0-1.152,4.22c.67,1.339,1.209,1.9,1.733,2.841a10.89,10.89,0,0,1,1.821,4.918,79.511,79.511,0,0,1,.018,11.01c-.2,3.623-.494,5.764,1.923,8.3,1.883,1.98,8.435,5.519,13.062,7.206,6.314,2.3,9.983-.209,8.3-3.39s-3.515-6.689-4.1-7.437a12.226,12.226,0,0,0-6.23-.924c-4.057.49-5.823,2.246-9.052-.755-2.924-2.719-3.136-9.891-.163-18.923C394.423,347.895,391,344.7,391,344.7Z" fill="#263238"/><path d="M414.228,340.679c5.742,21.365,8.527,32.685,10.465,37.643s3.624,9.61,5.8,12.882a35.507,35.507,0,0,0,8.162,8.154s7.1,4.665,5.994,5.591-12.641,5.019-18.323,4.7S419,404.966,415.223,397.2s-8.216-19.383-8.216-19.383a5.522,5.522,0,0,0,.211-1.521c.133-2.535-5.1-10.661-8.946-16.769Z" fill="#9e6767"/><path d="M405.487,389.2c.678,1.884,2.714,3.8,3.964,6.709a54.668,54.668,0,0,1,3.315,10.263c.96,4.3,1.1,4.908,1.1,4.908l1.333-.3-2-8.937c-.609-2.726-.479-4.907.758-5.491C413.957,396.352,411.934,387.758,405.487,389.2Z" fill="#37474f"/><path d="M406.956,376.657c-.316,2.468-1.965,5.249-2.215,8.946a7.479,7.479,0,0,0,1.154,4.411c1.3.862,2.081,1.087,3.043,1.665a11.367,11.367,0,0,1,4.2,3.5,82.841,82.841,0,0,1,5.743,9.937c1.7,3.377,2.552,5.464,6.056,6.5,2.732.809,10.491.6,15.549-.285,6.9-1.2,8.91-5.382,5.739-7.382s-6.655-4.214-7.57-4.588a12.733,12.733,0,0,0-6.108,2.406c-3.411,2.554-4.093,5.059-8.571,4.026-4.056-.934-7.978-7.3-9.99-17.009C411.7,377.763,406.956,376.657,406.956,376.657Z" fill="#37474f"/><path d="M377.092,250.028c7.537,4.828,28.579,21.224,39.361,30.016,3.115,2.54,5.807,4.189,5.1,13.5-.809,10.645-11.674,45.767-11.674,45.767l-63.1-69.409Z" fill="#3343E0"/><path d="M377.092,250.028c7.537,4.828,28.579,21.224,39.361,30.016,3.115,2.54,5.807,4.189,5.1,13.5-.809,10.645-11.674,45.767-11.674,45.767l-63.1-69.409Z" fill="#fff" opacity="0.6"/><path d="M411.712,330.175c-9.683-7.11-45.839-54.11-45.839-54.11s1.219-.34,1.226-.347A30.855,30.855,0,0,0,377.323,261.6c1.146,7.771-2.091,11.524-4.879,13.924,2.468,1.879,18.026,12.844,27.669,19.538,2.418,1.678,4.915,3.783,5.965,7.883C408.6,312.768,411.8,328.149,411.712,330.175Z" fill="#3343E0" opacity="0.5"/><path d="M375.917,254.05h0l-55.878,11.662c-.15,10.73,4.164,18.848,6.542,21.767,3.552,4.359,11,9.874,24.592,15.914,13.814,6.141,26.091,11.952,29.306,13.273,2.422,1,4.073,5.918,5.471,11.983,1.465,6.362,1.18,11.162,8.26,24.3,6.931,12.862,9.185,15.814,9.185,15.814s10.977-.469,17.062-6.433c0,0-11.813-44.527-14.11-52.573-1.283-4.494-1.433-6.891-7.351-11.586-5.074-4.025-31.9-22.451-31.9-22.451S382.131,266.211,375.917,254.05Z" fill="#3343E0"/><path d="M375.917,254.05h0l-55.878,11.662c-.15,10.73,4.164,18.848,6.542,21.767,3.552,4.359,11,9.874,24.592,15.914,13.814,6.141,26.091,11.952,29.306,13.273,2.422,1,4.073,5.918,5.471,11.983,1.465,6.362,1.18,11.162,8.26,24.3,6.931,12.862,9.185,15.814,9.185,15.814s10.977-.469,17.062-6.433c0,0-11.813-44.527-14.11-52.573-1.283-4.494-1.433-6.891-7.351-11.586-5.074-4.025-31.9-22.451-31.9-22.451S382.131,266.211,375.917,254.05Z" fill="#fff" opacity="0.6"/><path d="M396.285,343.6a137.56,137.56,0,0,1-4.874-18.233c-1.239-5.678-2.217-10.165-3.507-12.039-1.655-2.407-10.156-6.39-20.92-11.433-6.034-2.828-12.875-6.033-19.251-9.326a56.7,56.7,0,0,1-10.339-6.648l-.96-.826c-7.8-6.973-8.217-13.658-8.614-20.178l-1.079.065c.555,9.117,1.128,18.544,20.5,28.547,6.395,3.3,13.245,6.513,19.289,9.344,10.2,4.778,19,8.9,20.488,11.068,1.169,1.7,2.175,6.313,3.341,11.657a140.415,140.415,0,0,0,4.917,18.378c3.124,8.426,8.818,19.245,11.623,24.376.36-.062.741-.132,1.131-.208C405.31,363.192,399.468,352.18,396.285,343.6Z" fill="#3343E0" opacity="0.5"/><path d="M371.363,185.933a2.729,2.729,0,0,1-.168-1.039,10.656,10.656,0,0,0-.385-4.316c-.821-2.243-3.193-3.4-5.429-3.772a6.459,6.459,0,0,1-2.443-.447,3.529,3.529,0,0,1-1.493-3.275,7.915,7.915,0,0,1,1.856-4.564c1.129-1.638,2.878-2.76,3.491-4.752.32-1.039.343-3.831-.776-4.471a4.292,4.292,0,0,0,4.925.793,3.346,3.346,0,0,0,1.664-3.189c-1.124,1.583-3.041.44-3.617-.263-1.315-1.6-.328-3.931-.789-5.794a6.813,6.813,0,0,0-3.062-3.6c-.739-.487-1.5-.976-2.262-1.425a3.614,3.614,0,0,1-1.453-1.57c-.514-.872-1.037-1.721-1.6-2.564a9.38,9.38,0,0,0-3.675-3.658,9.737,9.737,0,0,0-6.573-.422,8.8,8.8,0,0,0-2.914,1.385,4.4,4.4,0,0,1-2.192,1.1,8.343,8.343,0,0,1-2.839-.525,11.7,11.7,0,0,0-2.325-.491,11.569,11.569,0,0,0-6.451,1.209,9.331,9.331,0,0,0-4.246,4.18,15.711,15.711,0,0,0-.889,3.695c.013-.073-3.689.9-3.968,1.025a11.462,11.462,0,0,0-3.411,2.384,8.934,8.934,0,0,0-2.644,7.292c.043,1.279.348,2.9-.2,4.1a9.079,9.079,0,0,1-2.751,2.836c-2.1,1.8-3.976,4.363-4.246,7.174a13.166,13.166,0,0,0,.67,4.415c.248.966.783,2.155.216,3.09a9.1,9.1,0,0,1-2.215,2.219c-2.655,1.912-4.989,4.08-5.037,7.652a9.5,9.5,0,0,0,1.3,5.048c.858,1.554,1.84,3.232,1.263,5.036-.548,1.714-1.427,2.855-1.137,4.777.322,2.125,2.271,3.93,4.036,5.025,4.7,2.916,9.295,1.637,14.129.118a39.314,39.314,0,0,1,9.079-2.193,23.819,23.819,0,0,1,7.535,1.033c5.564,1.369,14.624,1.771,18.338-3.58.8-1.159,1.268-2.666,2.6-3.386a8.764,8.764,0,0,1,4.048-.77c2.372-.052,4.82.569,7.158-.036a6.914,6.914,0,0,0,4.718-4.45c1.268-3.485-.885-6.349-3.519-8.354A6.593,6.593,0,0,1,371.363,185.933Z" fill="#263238"/><path d="M416.642,179.033c-4.369,7.078-13.573,20.853-13.573,20.853s-9.449-2.54-15.7-4.231c-20.513-5.544-21.852-5.68-30.012-4.683l11.47,22.7c4.887-.552,24.457,1.935,30.51,2.768,10.487,1.444,12.543,1.535,15.651-4.42,3.918-7.51,4.664-9.393,6.5-13.2s4.865-10.518,6.178-13.457Z" fill="#9e6767"/><path d="M413.98,183.865c3.24-5.56,4.471-7.484,2.694-11.383s-2.257-4.882-2.346-5.9,1.2-6.123,1.2-8.329.593-2.841,2.2-3.81,5.118-3.008,6.017-3.771a2.648,2.648,0,0,1-.014,3.764c-.794.938-1.909,2.309-1.909,2.309s2.047.989,2.992,1.371,1.076.987,1.18,3.6a2.338,2.338,0,0,1,1.749.71,5.207,5.207,0,0,1,.674,2.544,2.386,2.386,0,0,1,1.42.561c.623.553.864,2.677.823,4.583.221,2.178,1.232,4.76,1.275,6.629s-1.3,3.378-2.943,6.193c-2.075,3.551-5.807,11.55-5.807,11.55S410.842,189.251,413.98,183.865Z" fill="#9e6767"/><path d="M416.865,166.337a7.964,7.964,0,0,0,1.055-5.058c-.271-1.724-.689-3.614-.19-3.862.838-.416,3.2.491,3.892,3.257.661,2.637.8,6.011,1.038,6.757a12.47,12.47,0,0,0,2.693,3.183A7.382,7.382,0,0,1,426.467,179a6.829,6.829,0,0,0,1.566-4.833c-.053-3.232-2.916-5.217-3.837-6.368s-1.106-1.384-1.318-3.977-.427-5.392-3.147-6.784-3.034.015-3.006.879S418.345,163.66,416.865,166.337Z" fill="#874c4c"/><path d="M421.82,156.742l-1.222,1.5.692.179a2.257,2.257,0,0,1,2.261-.863Z" fill="#874c4c"/><path d="M425.992,161.713c.063.858.092,3.529.106,4.07s-.919.79-1.817.158a3.546,3.546,0,0,1-1.567-2.1,3.85,3.85,0,0,0,1.277,2.441c1.123.852,2,.628,2.431.252S426.112,163.547,425.992,161.713Z" fill="#874c4c"/><path d="M428.415,164.967c.056.643-.017,1.536.1,3.317.068,1.03.149,1.686-.429,1.865a2.556,2.556,0,0,1-2.4-1.674,8.757,8.757,0,0,1-.4-2.015l-.516.008a6.826,6.826,0,0,0,.87,3.1c.814,1.184,2.514,1.627,2.924,1.038s.352-1.168.2-2.639S428.415,164.967,428.415,164.967Z" fill="#874c4c"/><path d="M428.558,170.086c.08.414.66,1.167,1.292.91a1.465,1.465,0,0,0,.808-.885,1.243,1.243,0,0,1-.732,1.252c-.762.3-1.467-.3-1.882-.9Z" fill="#874c4c"/><path d="M338.986,193.337c9.3-1.628,18.369-2.365,18.369-2.365s9.9,7.707,12.528,10.871c3.075,3.7,9.388,11.559,2.177,23.09l.361,18.212,6.937,8.4s-2.925,10.78-17.206,13.715-27.519-1.693-27.519-1.693a76.744,76.744,0,0,1-15.224,4.023,97.486,97.486,0,0,1,.814-12.839c1.419-8.521,1.378-5.928,1.3-10.4s-.355-14.093-.355-14.093,5.395-2.294,6.307-11.8a45.413,45.413,0,0,0-3.379-21.829S327.7,195.311,338.986,193.337Z" fill="#f0f0f0"/><path d="M331.23,177.562a6.031,6.031,0,0,1-5.447-2.07c-2.874-3.153-3.145-6.366-1.811-8.508,1.1-1.76,3.805-2.888,5.705-1.7,2.033,1.27,2.1,2.309,2.867,3.745.79,1.474,3.737,1.306,4.436-4.495.653-5.411,1.469-10.371,4.112-12.817,3.947-3.654,8.536-2.055,10.117.1a5.26,5.26,0,0,1,7.155-2.059c2.652,1.416,4.193,4.414,5.139,14.676.965,10.461-1.2,17.88-3.6,19.643-1.817,1.338-4.128,1.627-8.053,1.81l-.175,8.274s7.579,11.8,7.58,20.767c0,0-4.43-1.569-14.519-9.69-6.721-5.411-11.834-10.3-11.834-10.3l.57-19.022S333.254,177.18,331.23,177.562Z" fill="#9e6767"/><path d="M334.867,177.988a4.8,4.8,0,0,1-2.639,4.6,4.41,4.41,0,0,1-1.8.5,4.8,4.8,0,0,1-4.383-7.341,3.955,3.955,0,0,0,.418.393,4.5,4.5,0,0,0,.849.573,3.149,3.149,0,0,0-.446,1.83,3.235,3.235,0,0,0,3.456,2.984,3.218,3.218,0,0,0-.451-6.421.783.783,0,0,1-.127-1.561A4.805,4.805,0,0,1,334.867,177.988Z" fill="#fafafa"/><path d="M347.494,165.372a1.728,1.728,0,1,1-1.125-2.224A1.755,1.755,0,0,1,347.494,165.372Z" fill="#263238"/><path d="M345.747,163.079c-1.083.031-1.722,1.491-2.764.913a1.558,1.558,0,0,0,2.107.854C345.579,164.594,345.747,163.079,345.747,163.079Z" fill="#263238"/><path d="M361.022,158.025l-4.044-.833a1.981,1.981,0,0,1,2.365-1.637A2.169,2.169,0,0,1,361.022,158.025Z" fill="#263238"/><path d="M356.863,165.289a1.727,1.727,0,1,0,1-2.282A1.753,1.753,0,0,0,356.863,165.289Z" fill="#263238"/><path d="M358.481,162.9c1.084-.028,1.8,1.395,2.81.761a1.558,1.558,0,0,1-2.057.968C358.732,164.407,358.481,162.9,358.481,162.9Z" fill="#263238"/><path d="M346.064,157.724l-4.219,1.314a2.12,2.12,0,0,1,1.368-2.758A2.322,2.322,0,0,1,346.064,157.724Z" fill="#263238"/><path d="M346.21,174.033l5.762,1.61a3,3,0,0,1-3.963,1.985A2.811,2.811,0,0,1,346.21,174.033Z" fill="#874c4c"/><path d="M349.656,177.734a3.139,3.139,0,0,0-3.261-2.668c-.1.005-.192.03-.288.044a2.642,2.642,0,0,0,1.9,2.518A3.407,3.407,0,0,0,349.656,177.734Z" fill="#f28f8f"/><path d="M351.849,185.882c-3.643-.23-7.568-.408-11.176-2.05-2.105-.958-3.613-3.006-5.179-6.489,0,0,.158,5.361,4.561,7.921,4.344,2.526,11.743,3,11.743,3Z" fill="#874c4c"/><path d="M365.443,159q-.377-.036-.78-.063c-2.513-.172-5.771-.118-7.684.568-2.406.866-3.215,1.76-4.582,1.824-1.464.053-2.444-.77-5.122-1.429a25.54,25.54,0,0,0-8.27.085c-.286.042-.563.085-.827.13a1.349,1.349,0,0,0-.87,1.441,3.212,3.212,0,0,0,.857,1.611,2.047,2.047,0,0,1,.3.653,29.85,29.85,0,0,0,1.2,4.57,5.95,5.95,0,0,0,1.147,1.634,4.66,4.66,0,0,0,.573.475c.108.073.215.142.329.21a4.91,4.91,0,0,0,.97.432c.054.018.109.035.163.049.082.022.169.047.256.067s.176.038.267.057a6.3,6.3,0,0,0,.846.1c.117.01.237.013.361.016.144,0,.295,0,.45-.006,3.477-.129,4.822-1.915,5.569-3.718.744-1.786.364-4.234,1.939-4.293a1.248,1.248,0,0,1,.151,0,1.047,1.047,0,0,1,.141.017c1.183.233,1.2,2.49,2.056,4.1a7.157,7.157,0,0,0,1.262,1.753c.093.094.188.183.29.268.051.046.1.086.154.126s.106.082.161.121.1.069.146.1c.084.055.121.079.157.1s.082.05.124.072.057.034.087.051a5.148,5.148,0,0,0,1.426.521l.13.026a7.177,7.177,0,0,0,1.7.107,4.573,4.573,0,0,0,4.589-3.445,29.3,29.3,0,0,0,.537-4.633,1.331,1.331,0,0,1,.232-.608,2.948,2.948,0,0,0,.553-1.7A1.474,1.474,0,0,0,365.443,159ZM349.6,166.1a5.189,5.189,0,0,1-1.048,2.5h0a4.67,4.67,0,0,1-3.695,1.566,4.2,4.2,0,0,1-3.712-1.651c-.044-.057-.085-.115-.122-.171s-.078-.114-.113-.17-.066-.107-.1-.161-.055-.1-.08-.145-.042-.076-.06-.115a1.127,1.127,0,0,1-.052-.1c-.028-.057-.055-.116-.081-.173v0c-.078-.174-.145-.342-.2-.506l-.006-.012c-.036-.1-.07-.206-.1-.3-.055-.177-.1-.343-.138-.489-.008-.032-.017-.064-.025-.094s-.016-.06-.023-.09c-.315-1.206-.722-3.567-.158-4.123.544-.534,2.085-1.167,4.627-1.017.086,0,.177.007.271.015a10.7,10.7,0,0,1,1.166.156c.153.028.305.061.455.1a10.124,10.124,0,0,1,1.147.329c.123.043.242.087.354.133.134.052.263.109.384.167.026.012.052.024.077.038a1.577,1.577,0,0,1,.142.072,2.439,2.439,0,0,1,.8.6C349.861,163.157,349.806,164.733,349.6,166.1Zm14.855-1.13c-.109.958-.342,3.042-2.061,4.026a4.184,4.184,0,0,1-1.876.516,4.327,4.327,0,0,1-3.992-1.692l-.012-.017c-.029-.038-.055-.075-.079-.11s-.061-.087-.088-.128c-.014-.021-.029-.044-.043-.067-.039-.063-.078-.128-.113-.19s-.082-.147-.12-.223c-.02-.036-.037-.072-.055-.108s-.019-.041-.028-.062-.028-.061-.041-.091-.023-.049-.031-.07a6.739,6.739,0,0,1-.315-.9c-.362-1.342-.616-2.9-.192-3.661s2.224-1.636,4-1.937a10.738,10.738,0,0,1,1.153-.136l.137-.007.148-.006c.138-.005.273-.005.4-.005.049,0,.1,0,.146,0,.066,0,.13,0,.192.009.109,0,.215.013.318.024a5.808,5.808,0,0,1,.591.083c.048.009.1.018.141.029a.155.155,0,0,1,.037.008c.03.006.062.012.1.022s.1.024.143.036.118.033.173.049c.1.032.2.065.285.1l.05.02a2.422,2.422,0,0,1,.661.378C364.673,161.366,364.59,163.746,364.455,164.969Z" fill="#37474f"/><path d="M338.478,160.357l-9.87,4.505a6.169,6.169,0,0,1,2.3,1.366l7.542-3.531Z" fill="#37474f"/><path d="M351.577,164.007l1.007,8.688,5.576-2.155-5.9-7.08A1.022,1.022,0,0,0,351.577,164.007Z" fill="#874c4c"/><path d="M418.54,283.383c-.7-.737-1.478-1.381-2.291-2.086-6.1-5.281-15.558-13.216-23.877-19.939L342.4,293.388a.406.406,0,0,0,.033.7l32.873,17Z" opacity="0.2"/><path d="M430.32,270.121l.034.744a3.065,3.065,0,0,1-1.4,2.72l-52.063,33.363a3.031,3.031,0,0,1-1.5.475,3.089,3.089,0,0,1-1.558-.336l-29.936-15.429a3.073,3.073,0,0,1-1.648-2.579l-.048-1.029h.007v.01a.385.385,0,0,0,.209.328l32.879,17.007Z" fill="#263238"/><path d="M375.284,305.39l.094,2.035a3.068,3.068,0,0,0,1.508-.477l52.063-33.364a3.064,3.064,0,0,0,1.409-2.721l-.035-.744Z" fill="#263238"/><path d="M430.323,270.119l-32.567-16.841a1.826,1.826,0,0,0-1.823.084l-53.554,34.325a.4.4,0,0,0,.032.7l32.873,17Z" fill="#37474f"/><path d="M374.867,302.712,357.3,293.638l48.686-31.2,17.652,9.019Z" fill="#455a64"/><path d="M423.639,271.456l-.636.406-16.982-8.673-48.045,30.8-.67-.346,48.681-31.2Z" fill="#263238"/><path d="M365.187,275.654l.324.167,8.609,4.452,14.513-9.3.3-.191L380,266.162Z" fill="#263238"/><path d="M365.511,275.821l8.609,4.452,14.513-9.3-8.615-4.452Z" fill="#455a64"/><path d="M380.106,281.909c-2.135-2.624-5.247-6.279-8.055-7.555a16.239,16.239,0,0,0-1.978-.855,23.385,23.385,0,0,0,3.056-.277,5.318,5.318,0,0,0,2.706-1.4c.288-.3.522-.8.231-1.1a.7.7,0,0,0-.4-.2c-2.3-.317-4.053-.885-6.172-1.239a26.122,26.122,0,0,0-5.675-.939,59.927,59.927,0,0,0-6.666.422,9.413,9.413,0,0,1-6.862-1.817c-2.4-1.628-8.014-5.049-8.014-5.049s-.38.969-3.809,5.573-2.63,6.563-2.63,6.563l10.578,5.605h0l.143.074a34.463,34.463,0,0,0,4.656,2.675c3.12,1.335,7.373.606,10.192.757s7.431,1.956,9.919,3.289,6.037-2.336,7.29-1.715S382.24,284.532,380.106,281.909Z" fill="#9e6767"/><path d="M369.03,271.827a9.852,9.852,0,0,0-4.037.216,21.766,21.766,0,0,1,5.08,1.456,23.385,23.385,0,0,0,3.056-.277,5.547,5.547,0,0,0,2.444-1.157C373.89,272.962,370.9,272.22,369.03,271.827Z" fill="#874c4c"/><path d="M324.1,196.632c-8.783,2.156-12.665,6.026-14.117,12.948-1.382,6.59-2.937,25.967-3.677,34.411-1.155,13.175-1.008,15.691,6.63,19.986,11.027,6.2,30.092,13.869,30.092,13.869l7.268-10.894-25.428-16.52,2.9-24.4S332.668,204.83,324.1,196.632Z" fill="#9e6767"/><path d="M376.167,305.8a3.624,3.624,0,0,0,3.111-.386L431.112,272.2a3.624,3.624,0,0,0,1.644-2.614l4.22-35.041a3.735,3.735,0,0,0,.02-.6,3.629,3.629,0,0,0-1.19-2.526L381.94,265.945a2.692,2.692,0,0,0-1.215,1.934Z" fill="#37474f"/><path d="M375.284,305.392l.374.192a4.24,4.24,0,0,0,.509.218l4.558-37.923a2.692,2.692,0,0,1,1.215-1.934l53.866-34.525a3.685,3.685,0,0,0-.765-.528l-53.976,34.589a2.7,2.7,0,0,0-1.215,1.935Z" fill="#455a64"/><path d="M381.185,266.691l-.881-.456a2.683,2.683,0,0,0-.454,1.181l-4.566,37.976.374.192a4.409,4.409,0,0,0,.509.218l4.558-37.923A2.69,2.69,0,0,1,381.185,266.691Z" fill="#263238"/><path d="M404.676,272.313c.283-2.346,2.543-5.549,5.048-7.155s4.308-1,4.025,1.341-2.543,5.55-5.048,7.155S404.393,274.659,404.676,272.313Z" fill="#e0e0e0"/><path d="M385.663,152.351V127.71a2.019,2.019,0,0,1,.914-1.583l58.886-33.982c.5-.291.914-.055.914.528v24.641a2.022,2.022,0,0,1-.914,1.584l-58.886,33.981C386.072,153.171,385.663,152.934,385.663,152.351Z" opacity="0.15"/><path d="M448.648,94l-58.885,33.981a2.023,2.023,0,0,0-.915,1.584V154.2a1.993,1.993,0,0,0,.92,1.574l3.274,1.836a2.048,2.048,0,0,0,1.834-.009l58.886-33.982a2.019,2.019,0,0,0,.914-1.583V97.4a2,2,0,0,0-.919-1.575l-3.275-1.836A2.048,2.048,0,0,0,448.648,94Z" fill="#3343E0"/><path d="M393.962,157.074V132.433a2.019,2.019,0,0,1,.914-1.583l58.886-33.982c.505-.291.914-.055.914.528v24.641a2.019,2.019,0,0,1-.914,1.583L394.876,157.6C394.371,157.894,393.962,157.657,393.962,157.074Z" fill="#3343E0"/><path d="M394.876,157.6a2.1,2.1,0,0,1-1.835.011l-3.273-1.84a1.987,1.987,0,0,1-.921-1.57V129.559a1.879,1.879,0,0,1,.292-.933l5.093,2.908a1.817,1.817,0,0,0-.271.9v24.639C393.962,157.606,394.338,157.914,394.876,157.6Z" opacity="0.2"/><path d="M454.664,97.23c-.072-.46-.448-.625-.9-.363L394.878,130.85a1.862,1.862,0,0,0-.646.684l-5.1-2.908a1.82,1.82,0,0,1,.629-.65L448.65,93.993a2.046,2.046,0,0,1,1.833-.008l3.273,1.835A2.019,2.019,0,0,1,454.664,97.23Z" fill="#fff" opacity="0.4"/><path d="M403.657,133.281q1.4-.807,2.174-.24t.775,2.526a7.3,7.3,0,0,1-.775,3.439,5.556,5.556,0,0,1-2.174,2.288l-1.851,1.068v3.972a.926.926,0,0,1-.091.391.589.589,0,0,1-.221.27l-.937.541a.168.168,0,0,1-.22-.016.383.383,0,0,1-.092-.285v-11.5a.923.923,0,0,1,.092-.391.589.589,0,0,1,.22-.269Zm-1.851,6.856L403.6,139.1a2.983,2.983,0,0,0,1.052-1.008,3.017,3.017,0,0,0,.394-1.626q0-1-.394-1.153a1.265,1.265,0,0,0-1.052.225l-1.793,1.035Z" fill="#fafafa"/><path d="M414.124,127.238a.168.168,0,0,1,.219.016.38.38,0,0,1,.092.285v7.3a10.452,10.452,0,0,1-.208,2.116,8.408,8.408,0,0,1-.624,1.891,6.749,6.749,0,0,1-1.041,1.59,5.76,5.76,0,0,1-1.445,1.181,3.107,3.107,0,0,1-1.452.491,1.407,1.407,0,0,1-1.036-.39,2.459,2.459,0,0,1-.618-1.175,7.549,7.549,0,0,1-.2-1.877v-7.3a.912.912,0,0,1,.094-.392.578.578,0,0,1,.22-.269l.935-.541a.17.17,0,0,1,.221.016.378.378,0,0,1,.093.284v7.212a4.387,4.387,0,0,0,.127,1.174,1.262,1.262,0,0,0,.358.638.7.7,0,0,0,.555.161,1.849,1.849,0,0,0,.706-.257,3.235,3.235,0,0,0,1.272-1.366,4.657,4.657,0,0,0,.365-1.056,6.177,6.177,0,0,0,.132-1.324v-7.212a.916.916,0,0,1,.092-.391.591.591,0,0,1,.22-.269Z" fill="#fafafa"/><path d="M416.495,138.334a.167.167,0,0,1-.22-.016.376.376,0,0,1-.092-.284v-11.5a.9.9,0,0,1,.092-.391.588.588,0,0,1,.22-.27l3.412-1.97a2.105,2.105,0,0,1,1.238-.367,1.2,1.2,0,0,1,.8.412,2.136,2.136,0,0,1,.435.889,4.474,4.474,0,0,1,.131,1.072,5.286,5.286,0,0,1-.091,1.006,5.824,5.824,0,0,1-.226.842,6.644,6.644,0,0,1-.266.644,3.547,3.547,0,0,1-.214.39,1.609,1.609,0,0,1,.659.679,3.167,3.167,0,0,1,.3,1.563,6.85,6.85,0,0,1-.164,1.437,7.576,7.576,0,0,1-.472,1.476,6.086,6.086,0,0,1-.782,1.315,3.746,3.746,0,0,1-1.08.954Zm4.453-11.439c0-.451-.093-.739-.277-.863s-.479-.071-.88.16l-2.047,1.182v2.742l2.047-1.182a2.25,2.25,0,0,0,.88-.854A2.446,2.446,0,0,0,420.948,126.895Zm-3.2,8.492,2.139-1.235a2.285,2.285,0,0,0,.932-.957,2.789,2.789,0,0,0,.295-1.265A1.151,1.151,0,0,0,420.8,131c-.205-.166-.51-.132-.92.1l-2.139,1.235Z" fill="#fafafa"/><path d="M429.495,128.6a.167.167,0,0,1,.22.016.381.381,0,0,1,.091.284v1.265a.911.911,0,0,1-.091.391.593.593,0,0,1-.22.27l-5.067,2.924a.166.166,0,0,1-.219-.015.379.379,0,0,1-.092-.285v-11.5a.9.9,0,0,1,.092-.391.583.583,0,0,1,.219-.269l.938-.541a.17.17,0,0,1,.22.015.39.39,0,0,1,.091.285v9.759Z" fill="#fafafa"/><path d="M431.229,129.827a.167.167,0,0,1-.22-.015.382.382,0,0,1-.091-.285v-11.5a.915.915,0,0,1,.091-.391.593.593,0,0,1,.22-.27l.938-.541a.168.168,0,0,1,.219.016.384.384,0,0,1,.092.285v11.5a.916.916,0,0,1-.092.391.584.584,0,0,1-.219.269Z" fill="#fafafa"/><path d="M437.059,113.819a3.034,3.034,0,0,1,1.365-.468,1.683,1.683,0,0,1,.983.233,1.582,1.582,0,0,1,.6.716,2.712,2.712,0,0,1,.226.966.753.753,0,0,1-.088.4.6.6,0,0,1-.224.263l-.811.468c-.131.076-.228.094-.294.055a.522.522,0,0,1-.18-.209.914.914,0,0,0-.526-.47,1.376,1.376,0,0,0-1.046.274,3.184,3.184,0,0,0-.573.429,3.234,3.234,0,0,0-.475.559,2.869,2.869,0,0,0-.317.637,2.049,2.049,0,0,0-.116.673,1.277,1.277,0,0,0,.11.6.473.473,0,0,0,.37.232,2.115,2.115,0,0,0,.689-.051c.285-.057.639-.138,1.063-.24a4.386,4.386,0,0,1,1.2-.148,1.376,1.376,0,0,1,.822.274,1.491,1.491,0,0,1,.474.732,3.974,3.974,0,0,1,.156,1.21,5.986,5.986,0,0,1-.231,1.62,6.71,6.71,0,0,1-.66,1.556,7.153,7.153,0,0,1-1.052,1.383,6.384,6.384,0,0,1-1.4,1.092,3.759,3.759,0,0,1-1.237.474,1.865,1.865,0,0,1-1.047-.09,1.52,1.52,0,0,1-.734-.671,2.707,2.707,0,0,1-.312-1.244.754.754,0,0,1,.086-.4.614.614,0,0,1,.226-.263l.809-.467c.132-.076.232-.1.3-.068a.377.377,0,0,1,.172.221,2.1,2.1,0,0,0,.2.349.6.6,0,0,0,.313.23,1.007,1.007,0,0,0,.491.01,2.44,2.44,0,0,0,.734-.309,4.841,4.841,0,0,0,.671-.467,3.353,3.353,0,0,0,.567-.6,3.162,3.162,0,0,0,.393-.69,2,2,0,0,0,.15-.772.748.748,0,0,0-.161-.547.65.65,0,0,0-.491-.144,4.1,4.1,0,0,0-.817.133c-.323.079-.7.16-1.121.237a3.389,3.389,0,0,1-1.012.078,1.2,1.2,0,0,1-.717-.308,1.6,1.6,0,0,1-.422-.762,4.956,4.956,0,0,1-.14-1.3,5.792,5.792,0,0,1,.233-1.612,6.972,6.972,0,0,1,.635-1.525,6.9,6.9,0,0,1,.966-1.314A5.266,5.266,0,0,1,437.059,113.819Z" fill="#fafafa"/><path d="M448.082,107.633a.166.166,0,0,1,.219.016.377.377,0,0,1,.092.284v11.5a.9.9,0,0,1-.092.391.592.592,0,0,1-.219.27l-.938.541a.167.167,0,0,1-.22-.016.383.383,0,0,1-.092-.285v-4.7l-3.492,2.017v4.7a.914.914,0,0,1-.093.391.589.589,0,0,1-.22.27l-.936.541a.179.179,0,0,1-.221-.007.375.375,0,0,1-.092-.294v-11.5a.91.91,0,0,1,.092-.392.585.585,0,0,1,.221-.269l.936-.541a.17.17,0,0,1,.22.015.386.386,0,0,1,.093.285v4.577l3.492-2.016v-4.578a.923.923,0,0,1,.092-.391.589.589,0,0,1,.22-.269Z" fill="#fafafa"/></g></svg>