<svg xmlns="http://www.w3.org/2000/svg" width="630.036" height="516.27" viewBox="0 0 630.036 516.27">
  <g id="blogs" transform="translate(-89.212 43.752)">
    <g id="Floor">
      <g id="Group_1477" data-name="Group 1477">
        <g id="Group_1476" data-name="Group 1476" transform="translate(58.46)">
          <path id="Path_1427" data-name="Path 1427" d="M660.788,442.054c0,.144-141.049.26-315,.26-174.014,0-315.033-.116-315.033-.26s141.019-.261,315.033-.261C519.739,441.793,660.788,441.91,660.788,442.054Z" transform="translate(0)" fill="#263238"/>
        </g>
      </g>
    </g>
    <g id="Device">
      <g id="Rectangle_207" data-name="Rectangle 207" transform="translate(201.373 -43.752)" fill="#fff" stroke="#707070" stroke-width="1" opacity="0">
        <rect width="277" height="515" stroke="none"/>
        <rect x="0.5" y="0.5" width="276" height="514" fill="none"/>
      </g>
      <g id="Group_1496" data-name="Group 1496" transform="translate(0 -10)">
        <g id="Group_1478" data-name="Group 1478">
          <path id="Rectangle_129" data-name="Rectangle 129" d="M0,0H206.358a0,0,0,0,1,0,0V196.536a16.22,16.22,0,0,1-16.22,16.22H0a0,0,0,0,1,0,0V0A0,0,0,0,1,0,0Z" transform="translate(290.096 38.248)" fill="#ebebeb"/>
        </g>
        <g id="Group_1493" data-name="Group 1493">
          <g id="Group_1480" data-name="Group 1480">
            <g id="Group_1479" data-name="Group 1479">
              <path id="Path_1428" data-name="Path 1428" d="M479.413,101.569c0,.431-37.3.781-83.3.781-46.014,0-83.3-.35-83.3-.781s37.29-.781,83.3-.781C442.115,100.788,479.413,101.138,479.413,101.569Z" fill="#455a64"/>
            </g>
          </g>
          <g id="Group_1482" data-name="Group 1482">
            <g id="Group_1481" data-name="Group 1481">
              <path id="Path_1429" data-name="Path 1429" d="M397.1,115.981c0,.432-18.428.782-41.153.782s-41.157-.35-41.157-.782,18.423-.781,41.157-.781S397.1,115.55,397.1,115.981Z" fill="#455a64"/>
            </g>
          </g>
          <g id="Group_1484" data-name="Group 1484">
            <g id="Group_1483" data-name="Group 1483">
              <path id="Path_1430" data-name="Path 1430" d="M430.027,114.646c0,.432-4.881.782-10.9.782s-10.9-.35-10.9-.782,4.879-.781,10.9-.781S430.027,114.215,430.027,114.646Z" fill="#455a64"/>
            </g>
          </g>
          <g id="Group_1486" data-name="Group 1486">
            <g id="Group_1485" data-name="Group 1485">
              <path id="Path_1431" data-name="Path 1431" d="M483.862,113.757c0,.431-9.662.781-21.578.781s-21.579-.35-21.579-.781,9.659-.781,21.579-.781S483.862,113.325,483.862,113.757Z" fill="#455a64"/>
            </g>
          </g>
          <g id="Group_1488" data-name="Group 1488">
            <g id="Group_1487" data-name="Group 1487">
              <path id="Path_1432" data-name="Path 1432" d="M390.229,129.774c0,.431-17.332.781-38.706.781s-38.71-.35-38.71-.781,17.328-.781,38.71-.781S390.229,129.342,390.229,129.774Z" fill="#455a64"/>
            </g>
          </g>
          <g id="Group_1490" data-name="Group 1490">
            <g id="Group_1489" data-name="Group 1489">
              <path id="Path_1433" data-name="Path 1433" d="M483.862,129.376c0,.432-18.925.781-42.265.781s-42.27-.349-42.27-.781,18.921-.781,42.27-.781S483.862,128.945,483.862,129.376Z" fill="#455a64"/>
            </g>
          </g>
          <g id="Group_1492" data-name="Group 1492">
            <g id="Group_1491" data-name="Group 1491">
              <path id="Path_1434" data-name="Path 1434" d="M483.862,143.255c0,.432-8.427.782-18.818.782s-18.821-.35-18.821-.782,8.425-.781,18.821-.781S483.862,142.824,483.862,143.255Z" fill="#455a64"/>
            </g>
          </g>
        </g>
        <g id="Group_1495" data-name="Group 1495">
          <g id="Group_1494" data-name="Group 1494">
            <path id="Path_1435" data-name="Path 1435" d="M406,86.12c0,.432-20.419.781-45.6.781s-45.605-.349-45.605-.781,20.414-.781,45.605-.781S406,85.689,406,86.12Z" fill="#3343E0"/>
          </g>
        </g>
      </g>
      <g id="Group_1517" data-name="Group 1517">
        <g id="Group_1512" data-name="Group 1512">
          <g id="Group_1511" data-name="Group 1511">
            <g id="Group_1510" data-name="Group 1510">
              <g id="Group_1499" data-name="Group 1499">
                <g id="Group_1498" data-name="Group 1498">
                  <g id="Group_1497" data-name="Group 1497">
                    <rect id="Rectangle_130" data-name="Rectangle 130" width="428.665" height="283.472" rx="14.567" transform="translate(118.766 157.417)" fill="#263238"/>
                  </g>
                </g>
              </g>
              <g id="Group_1502" data-name="Group 1502">
                <g id="Group_1501" data-name="Group 1501">
                  <g id="Group_1500" data-name="Group 1500">
                    <path id="Rectangle_131" data-name="Rectangle 131" d="M0,0H464.426a0,0,0,0,1,0,0V7.006a17.8,17.8,0,0,1-17.8,17.8H17.8A17.8,17.8,0,0,1,0,7.006V0A0,0,0,0,1,0,0Z" transform="translate(101.439 419.923)" fill="#263238"/>
                  </g>
                </g>
              </g>
              <g id="Group_1505" data-name="Group 1505">
                <g id="Group_1504" data-name="Group 1504">
                  <g id="Group_1503" data-name="Group 1503">
                    <rect id="Rectangle_132" data-name="Rectangle 132" width="404.454" height="239.388" transform="translate(130.872 168.679)" fill="#455a64"/>
                  </g>
                </g>
              </g>
              <g id="Group_1509" data-name="Group 1509">
                <g id="Group_1508" data-name="Group 1508">
                  <g id="Group_1507" data-name="Group 1507">
                    <g id="Group_1506" data-name="Group 1506">
                      <path id="Path_1436" data-name="Path 1436" d="M291.44,419.923c-.008,0,.143-.009.447-.013l1.359-.014,5.282-.03,19.6-.079,65.524-.141h.484l-.245.418c-.824,1.413-1.709,2.93-2.6,4.456l-2.751,4.711-.08.138H378.3l-81.1-.151h-.07l-.036-.058c-1.848-3.005-3.271-5.32-4.247-6.906-.461-.755-.815-1.336-1.067-1.75-.237-.389-.343-.578-.343-.578s.145.211.4.607c.268.414.644,1,1.134,1.753l4.332,6.74-.106-.058,81.1-.152-.24.137,2.75-4.711,2.6-4.456.239.417-65.256-.14-19.69-.08-5.363-.03-1.4-.013C291.615,419.932,291.44,419.923,291.44,419.923Z" fill="#455a64"/>
                    </g>
                  </g>
                </g>
              </g>
            </g>
          </g>
        </g>
        <g id="Group_1516" data-name="Group 1516">
          <g id="Group_1513" data-name="Group 1513">
            <line id="Line_99" data-name="Line 99" x2="428.665" transform="translate(118.766 419.923)" fill="#263238"/>
          </g>
          <g id="Group_1515" data-name="Group 1515">
            <g id="Group_1514" data-name="Group 1514">
              <path id="Path_1437" data-name="Path 1437" d="M547.431,419.923c0,.144-95.968.261-214.322.261-118.4,0-214.343-.117-214.343-.261s95.947-.26,214.343-.26C451.463,419.663,547.431,419.779,547.431,419.923Z" fill="#455a64"/>
            </g>
          </g>
        </g>
      </g>
      <g id="Group_1578" data-name="Group 1578">
        <g id="Group_1518" data-name="Group 1518">
          <path id="Path_1438" data-name="Path 1438" d="M438.031,120.871h0a11.974,11.974,0,0,1,11.974,11.974v24.572H414.2V134.749a13.877,13.877,0,0,1,13.878-13.878Z" fill="#263238"/>
        </g>
        <g id="Group_1520" data-name="Group 1520">
          <g id="Group_1519" data-name="Group 1519">
            <path id="Path_1439" data-name="Path 1439" d="M438.031,120.871c0,.144-33.784.231-75.449.194s-75.455-.182-75.455-.326,33.776-.231,75.456-.195C404.247,120.581,438.031,120.727,438.031,120.871Z" fill="#263238"/>
          </g>
        </g>
        <g id="Group_1521" data-name="Group 1521">
          <path id="Path_1440" data-name="Path 1440" d="M437.716,120.842l-14.932-.1-21.69.132H241.753a24.5,24.5,0,0,0-24.5,24.5V408.642H423.611V134.3C424.216,120.871,437.716,120.842,437.716,120.842Z" fill="#fafafa"/>
        </g>
        <g id="Group_1522" data-name="Group 1522">
          <path id="Path_1441" data-name="Path 1441" d="M437.716,120.842l-124.426.271-62.213.047-7.777,0c-1.3-.025-2.58.051-3.858.12a25.134,25.134,0,0,0-3.773.688,24.04,24.04,0,0,0-16.5,14.8c-.2.606-.479,1.189-.619,1.814l-.476,1.859a26.374,26.374,0,0,0-.446,3.807c-.11,5.152-.024,10.36-.046,15.537l.166,248.855-.5-.5,206.357.134-.363.364.1-148,.119-74,.072-37,.018-9.249.009-4.625a15.113,15.113,0,0,1,.1-2.31,12.4,12.4,0,0,1,.363-2.285,12.243,12.243,0,0,1,5-7.534,14.483,14.483,0,0,1,4.15-2A17.459,17.459,0,0,1,437.716,120.842Zm0,0a17.464,17.464,0,0,0-4.538.806,14.468,14.468,0,0,0-4.134,2.017,12.191,12.191,0,0,0-4.948,7.521,12.453,12.453,0,0,0-.352,2.275,15.146,15.146,0,0,0-.087,2.305l.009,4.625.018,9.251.072,37,.119,74,.1,148v.363h-.364l-206.357.134h-.5v-.5l.166-248.855c.03-5.19-.05-10.355.068-15.566a27.032,27.032,0,0,1,.464-3.907l.491-1.907a19.649,19.649,0,0,1,.637-1.862,24.665,24.665,0,0,1,16.936-15.152,25.868,25.868,0,0,1,3.867-.7c1.311-.07,2.623-.144,3.914-.117l7.776,0,62.214.047Z" fill="#263238"/>
        </g>
        <g id="Group_1523" data-name="Group 1523">
          <path id="Path_1442" data-name="Path 1442" d="M248.338,168.24h36.01l.058,12.061h-1.723q-.848-6.473-4.847-8.758a14.938,14.938,0,0,0-6.718-1.377v31.508q0,3.3,1.154,4.384t4.8,1.082v1.519h-21.32V207.14q3.5,0,4.659-1.1t1.153-4.37V170.166a15.32,15.32,0,0,0-6.717,1.377q-4.293,2.345-4.847,8.758H248.28Z" fill="#3343E0"/>
        </g>
        <g id="Group_1525" data-name="Group 1525">
          <g id="Group_1524" data-name="Group 1524">
            <path id="Path_1443" data-name="Path 1443" d="M395.3,170.959c0,.432-19.864.781-44.362.781s-44.366-.349-44.366-.781,19.859-.781,44.366-.781S395.3,170.528,395.3,170.959Z" fill="#3343E0"/>
          </g>
        </g>
        <g id="Group_1527" data-name="Group 1527">
          <g id="Group_1526" data-name="Group 1526">
            <path id="Path_1444" data-name="Path 1444" d="M342.653,185.135c0,.431-7.68.781-17.152.781s-17.154-.35-17.154-.781,7.678-.781,17.154-.781S342.653,184.7,342.653,185.135Z" fill="#455a64"/>
          </g>
        </g>
        <g id="Group_1529" data-name="Group 1529">
          <g id="Group_1528" data-name="Group 1528">
            <path id="Path_1445" data-name="Path 1445" d="M299.413,228.379c0,.431-14.586.781-32.575.781s-32.577-.35-32.577-.781,14.583-.782,32.577-.782S299.413,227.947,299.413,228.379Z" fill="#455a64"/>
          </g>
        </g>
        <g id="Group_1531" data-name="Group 1531">
          <g id="Group_1530" data-name="Group 1530">
            <path id="Path_1446" data-name="Path 1446" d="M373.19,228.379c0,.431-14.585.781-32.574.781s-32.578-.35-32.578-.781,14.583-.782,32.578-.782S373.19,227.947,373.19,228.379Z" fill="#3343E0"/>
          </g>
        </g>
        <g id="Group_1533" data-name="Group 1533">
          <g id="Group_1532" data-name="Group 1532">
            <path id="Path_1447" data-name="Path 1447" d="M299.413,239.927c0,.432-14.586.781-32.575.781s-32.577-.349-32.577-.781,14.583-.781,32.577-.781S299.413,239.5,299.413,239.927Z" fill="#455a64"/>
          </g>
        </g>
        <g id="Group_1535" data-name="Group 1535">
          <g id="Group_1534" data-name="Group 1534">
            <path id="Path_1448" data-name="Path 1448" d="M299.413,251.476c0,.431-14.586.781-32.575.781s-32.577-.35-32.577-.781,14.583-.781,32.577-.781S299.413,251.044,299.413,251.476Z" fill="#3343E0"/>
          </g>
        </g>
        <g id="Group_1537" data-name="Group 1537">
          <g id="Group_1536" data-name="Group 1536">
            <path id="Path_1449" data-name="Path 1449" d="M342.653,208.658c0,.432-7.68.782-17.152.782s-17.154-.35-17.154-.782,7.678-.781,17.154-.781S342.653,208.227,342.653,208.658Z" fill="#455a64"/>
          </g>
        </g>
        <g id="Group_1539" data-name="Group 1539">
          <g id="Group_1538" data-name="Group 1538">
            <path id="Path_1450" data-name="Path 1450" d="M402.151,228.379c0,.431-5.12.781-11.435.781s-11.436-.35-11.436-.781,5.119-.782,11.436-.782S402.151,227.947,402.151,228.379Z" fill="#455a64"/>
          </g>
        </g>
        <g id="Group_1541" data-name="Group 1541">
          <g id="Group_1540" data-name="Group 1540">
            <path id="Path_1451" data-name="Path 1451" d="M408.27,185.135c0,.431-13.179.781-29.431.781s-29.433-.35-29.433-.781,13.175-.781,29.433-.781S408.27,184.7,408.27,185.135Z" fill="#455a64"/>
          </g>
        </g>
        <g id="Group_1543" data-name="Group 1543">
          <g id="Group_1542" data-name="Group 1542">
            <path id="Path_1452" data-name="Path 1452" d="M405.613,196.4c0,.432-21.776.782-48.631.782s-48.635-.35-48.635-.782,21.77-.781,48.635-.781S405.613,195.965,405.613,196.4Z" fill="#455a64"/>
          </g>
        </g>
        <g id="Group_1545" data-name="Group 1545">
          <g id="Group_1544" data-name="Group 1544">
            <path id="Path_1453" data-name="Path 1453" d="M402.151,239.927c0,.432-21.07.781-47.054.781s-47.059-.349-47.059-.781,21.065-.781,47.059-.781S402.151,239.5,402.151,239.927Z" fill="#455a64"/>
          </g>
        </g>
        <g id="Group_1547" data-name="Group 1547">
          <g id="Group_1546" data-name="Group 1546">
            <path id="Path_1454" data-name="Path 1454" d="M402.151,273.361c0,.431-19.771.781-44.154.781s-44.157-.35-44.157-.781,19.766-.782,44.157-.782S402.151,272.929,402.151,273.361Z" fill="#3343E0"/>
          </g>
        </g>
        <g id="Group_1549" data-name="Group 1549">
          <g id="Group_1548" data-name="Group 1548">
            <path id="Path_1455" data-name="Path 1455" d="M402.151,284.6c0,.432-19.771.781-44.154.781s-44.157-.349-44.157-.781,19.766-.781,44.157-.781S402.151,284.169,402.151,284.6Z" fill="#455a64"/>
          </g>
        </g>
        <g id="Group_1551" data-name="Group 1551">
          <g id="Group_1550" data-name="Group 1550">
            <path id="Path_1456" data-name="Path 1456" d="M402.151,295.84c0,.431-19.771.781-44.154.781s-44.157-.35-44.157-.781,19.766-.781,44.157-.781S402.151,295.408,402.151,295.84Z" fill="#455a64"/>
          </g>
        </g>
        <g id="Group_1553" data-name="Group 1553">
          <g id="Group_1552" data-name="Group 1552">
            <path id="Path_1457" data-name="Path 1457" d="M402.151,307.079c0,.432-19.771.782-44.154.782s-44.157-.35-44.157-.782S333.606,306.3,358,306.3,402.151,306.648,402.151,307.079Z" fill="#455a64"/>
          </g>
        </g>
        <g id="Group_1555" data-name="Group 1555">
          <g id="Group_1554" data-name="Group 1554">
            <path id="Path_1458" data-name="Path 1458" d="M364.679,318.319c0,.216-2.845.411-7.445.553s-10.955.228-17.973.228-13.376-.087-17.976-.228-7.445-.337-7.445-.553,2.845-.411,7.445-.552,10.955-.229,17.976-.229,13.373.088,17.973.229S364.679,318.1,364.679,318.319Z" fill="#455a64"/>
          </g>
        </g>
        <g id="Group_1557" data-name="Group 1557">
          <g id="Group_1556" data-name="Group 1556">
            <path id="Path_1459" data-name="Path 1459" d="M386.15,252.08c0,.432-17.029.782-38.031.782s-38.034-.35-38.034-.782,17.025-.781,38.034-.781S386.15,251.649,386.15,252.08Z" fill="#455a64"/>
          </g>
        </g>
        <g id="Group_1569" data-name="Group 1569">
          <g id="Group_1560" data-name="Group 1560">
            <g id="Group_1559" data-name="Group 1559">
              <g id="Group_1558" data-name="Group 1558">
                <path id="Path_1460" data-name="Path 1460" d="M297.871,274.63l4.686,86.758-84.83,10.625-.066-98.119Z" fill="#e0e0e0"/>
              </g>
            </g>
          </g>
          <g id="Group_1563" data-name="Group 1563">
            <g id="Group_1562" data-name="Group 1562">
              <g id="Group_1561" data-name="Group 1561">
                <rect id="Rectangle_133" data-name="Rectangle 133" width="92.037" height="115.122" transform="translate(187.437 360.648) rotate(-89.632)" fill="#f5f5f5"/>
              </g>
            </g>
          </g>
          <g id="Group_1564" data-name="Group 1564">
            <rect id="Rectangle_134" data-name="Rectangle 134" width="80.449" height="107.034" transform="translate(191.443 354.88) rotate(-89.632)" fill="#3343E0"/>
          </g>
          <g id="Group_1565" data-name="Group 1565" opacity="0.2">
            <path id="Path_1461" data-name="Path 1461" d="M191.443,354.88l37.7-49.765L252.1,336.549l15.814-16.624,30.557,35.642Z"/>
          </g>
          <g id="Group_1568" data-name="Group 1568" opacity="0.2">
            <g id="Group_1567" data-name="Group 1567">
              <g id="Group_1566" data-name="Group 1566">
                <path id="Path_1462" data-name="Path 1462" d="M262.175,299.2a8.428,8.428,0,1,1-8.373-8.482A8.428,8.428,0,0,1,262.175,299.2Z"/>
              </g>
            </g>
          </g>
        </g>
        <g id="Group_1573" data-name="Group 1573">
          <g id="Group_1570" data-name="Group 1570">
            <path id="Path_1463" data-name="Path 1463" d="M313.644,383.1a1.78,1.78,0,1,1-1.779-1.78A1.778,1.778,0,0,1,313.644,383.1Z" fill="#263238"/>
          </g>
          <g id="Group_1571" data-name="Group 1571">
            <path id="Path_1464" data-name="Path 1464" d="M324.208,383.1a1.78,1.78,0,1,1-1.78-1.78A1.779,1.779,0,0,1,324.208,383.1Z" fill="#263238"/>
          </g>
          <g id="Group_1572" data-name="Group 1572">
            <path id="Path_1465" data-name="Path 1465" d="M334.771,383.1a1.779,1.779,0,1,1-1.779-1.78A1.779,1.779,0,0,1,334.771,383.1Z" fill="#263238"/>
          </g>
        </g>
        <g id="Group_1575" data-name="Group 1575">
          <g id="Group_1574" data-name="Group 1574">
            <path id="Path_1466" data-name="Path 1466" d="M373.686,341.74c0,.432-14.586.781-32.574.781s-32.578-.349-32.578-.781,14.583-.781,32.578-.781S373.686,341.309,373.686,341.74Z" fill="#3343E0"/>
          </g>
        </g>
        <g id="Group_1577" data-name="Group 1577">
          <g id="Group_1576" data-name="Group 1576">
            <path id="Path_1467" data-name="Path 1467" d="M402.646,353.289c0,.431-21.069.781-47.054.781s-47.058-.35-47.058-.781,21.065-.781,47.058-.781S402.646,352.857,402.646,353.289Z" fill="#455a64"/>
          </g>
        </g>
      </g>
    </g>
    <g id="Box">
      <g id="Group_1604" data-name="Group 1604">
        <g id="Group_1584" data-name="Group 1584">
          <g id="Group_1581" data-name="Group 1581">
            <g id="Group_1580" data-name="Group 1580">
              <g id="Group_1579" data-name="Group 1579">
                <rect id="Rectangle_135" data-name="Rectangle 135" width="55.439" height="69.345" transform="translate(609.34 427.968) rotate(-89.632)" fill="#f5f5f5"/>
              </g>
            </g>
          </g>
          <rect id="Rectangle_136" data-name="Rectangle 136" width="48.459" height="64.473" transform="translate(611.753 424.493) rotate(-89.632)" fill="#3343E0"/>
          <path id="Path_1468" data-name="Path 1468" d="M611.753,424.493l22.712-29.976,13.828,18.935,9.526-10.014,18.406,21.47Z" opacity="0.2"/>
          <g id="Group_1583" data-name="Group 1583" opacity="0.2">
            <g id="Group_1582" data-name="Group 1582">
              <path id="Path_1469" data-name="Path 1469" d="M654.358,390.954a5.076,5.076,0,1,1-5.043-5.109A5.076,5.076,0,0,1,654.358,390.954Z"/>
            </g>
          </g>
        </g>
        <g id="Group_1590" data-name="Group 1590">
          <g id="Group_1587" data-name="Group 1587">
            <g id="Group_1586" data-name="Group 1586">
              <g id="Group_1585" data-name="Group 1585">
                <rect id="Rectangle_137" data-name="Rectangle 137" width="55.439" height="69.345" transform="translate(599.171 422.178) rotate(-89.632)" fill="#f5f5f5"/>
              </g>
            </g>
          </g>
          <rect id="Rectangle_138" data-name="Rectangle 138" width="48.459" height="64.473" transform="translate(601.584 418.704) rotate(-89.632)" fill="#3343E0"/>
          <path id="Path_1470" data-name="Path 1470" d="M601.584,418.7,624.3,388.728l13.828,18.935,9.526-10.014,18.406,21.47Z" opacity="0.2"/>
          <g id="Group_1589" data-name="Group 1589" opacity="0.2">
            <g id="Group_1588" data-name="Group 1588">
              <path id="Path_1471" data-name="Path 1471" d="M644.189,385.165a5.076,5.076,0,1,1-5.043-5.109A5.076,5.076,0,0,1,644.189,385.165Z"/>
            </g>
          </g>
        </g>
        <g id="Group_1596" data-name="Group 1596">
          <g id="Group_1593" data-name="Group 1593">
            <g id="Group_1592" data-name="Group 1592">
              <g id="Group_1591" data-name="Group 1591">
                <rect id="Rectangle_139" data-name="Rectangle 139" width="55.439" height="69.345" transform="translate(590.115 417.395) rotate(-89.632)" fill="#f5f5f5"/>
              </g>
            </g>
          </g>
          <rect id="Rectangle_140" data-name="Rectangle 140" width="48.459" height="64.473" transform="translate(592.528 413.92) rotate(-89.632)" fill="#3343E0"/>
          <path id="Path_1472" data-name="Path 1472" d="M592.528,413.92l22.712-29.976,13.828,18.935,9.526-10.014L657,414.334Z" opacity="0.2"/>
          <g id="Group_1595" data-name="Group 1595" opacity="0.2">
            <g id="Group_1594" data-name="Group 1594">
              <path id="Path_1473" data-name="Path 1473" d="M635.133,380.381a5.077,5.077,0,1,1-5.044-5.109A5.076,5.076,0,0,1,635.133,380.381Z"/>
            </g>
          </g>
        </g>
        <g id="Group_1602" data-name="Group 1602">
          <g id="Group_1599" data-name="Group 1599">
            <g id="Group_1598" data-name="Group 1598">
              <g id="Group_1597" data-name="Group 1597">
                <rect id="Rectangle_141" data-name="Rectangle 141" width="55.439" height="69.345" transform="translate(579.945 423.349) rotate(-89.632)" fill="#f5f5f5"/>
              </g>
            </g>
          </g>
          <rect id="Rectangle_142" data-name="Rectangle 142" width="48.459" height="64.473" transform="translate(582.359 419.875) rotate(-89.632)" fill="#455a64"/>
          <path id="Path_1474" data-name="Path 1474" d="M582.358,419.875,605.07,389.9,618.9,408.833l9.526-10.014,18.406,21.469Z" opacity="0.2"/>
          <g id="Group_1601" data-name="Group 1601" opacity="0.2">
            <g id="Group_1600" data-name="Group 1600">
              <path id="Path_1475" data-name="Path 1475" d="M624.964,386.336a5.077,5.077,0,1,1-5.044-5.109A5.076,5.076,0,0,1,624.964,386.336Z"/>
            </g>
          </g>
        </g>
        <g id="Group_1603" data-name="Group 1603">
          <rect id="Rectangle_143" data-name="Rectangle 143" width="40.035" height="53.528" transform="translate(649.645 388.526)" fill="#263238"/>
          <path id="Path_1476" data-name="Path 1476" d="M572.971,388.526v53.528h80.07V388.526Zm48.547,12.668H604.494a3.684,3.684,0,0,1,0-7.369h17.024a3.684,3.684,0,0,1,0,7.369Z" fill="#3343E0"/>
        </g>
      </g>
    </g>
    <g id="Character">
      <g id="Group_1729" data-name="Group 1729">
        <g id="Group_1641" data-name="Group 1641">
          <g id="Group_1614" data-name="Group 1614">
            <g id="Group_1605" data-name="Group 1605">
              <path id="Path_1477" data-name="Path 1477" d="M521.054,436.459,446.6,431.9c-.469-1.065-.782-1.685-.782-1.685l-20.18.4-6.566-.4s-.1.2-.26.538L351.068,432.1c-13.505,0-27.7,8.24-27.7,18.769-.171,10.02,4.682,20.9,16.783,20.65l92.295-.31,92.3.31c12.1.247,15.3-7.051,15.319-15.707C541.47,439.69,531.371,436.593,521.054,436.459Z" fill="#455a64"/>
            </g>
            <g id="Group_1607" data-name="Group 1607">
              <g id="Group_1606" data-name="Group 1606">
                <path id="Path_1478" data-name="Path 1478" d="M348.618,471.526s.15-.017.444-.025l1.3-.025,5.028-.047,18.571-.081,61.972-.082-.259.276c-.126-2.023-.262-4.188-.4-6.37-.278-4.465-.551-8.857-.811-13.035l.229.24-57.09-6.353-16.917-1.935-4.558-.546-1.179-.153a2.567,2.567,0,0,1-.4-.068,2.457,2.457,0,0,1,.4.02l1.185.106,4.567.456,16.935,1.78,57.108,6.181.216.023.013.217c.262,4.177.537,8.569.817,13.034.136,2.182.271,4.347.4,6.371l.017.276h-.277l-61.972-.082-18.571-.08-5.028-.047-1.3-.025C348.768,471.543,348.618,471.526,348.618,471.526Z" fill="#263238"/>
              </g>
            </g>
            <g id="Group_1609" data-name="Group 1609">
              <g id="Group_1608" data-name="Group 1608">
                <path id="Path_1479" data-name="Path 1479" d="M367.648,445.049c-.057.07-.983-.676-2.61-1.668a27.7,27.7,0,0,0-14.1-4.056c-1.9-.024-3.085.116-3.1.027a2.618,2.618,0,0,1,.818-.19,17.294,17.294,0,0,1,2.275-.2,24.516,24.516,0,0,1,14.307,4.114,17.115,17.115,0,0,1,1.818,1.383C367.459,444.812,367.671,445.022,367.648,445.049Z" fill="#263238"/>
              </g>
            </g>
            <g id="Group_1611" data-name="Group 1611">
              <g id="Group_1610" data-name="Group 1610">
                <path id="Path_1480" data-name="Path 1480" d="M515.274,441.088c.033.14-14.653,3.691-32.8,7.931s-32.886,7.565-32.919,7.425,14.65-3.691,32.8-7.932S515.241,440.948,515.274,441.088Z" fill="#263238"/>
              </g>
            </g>
            <g id="Group_1613" data-name="Group 1613">
              <g id="Group_1612" data-name="Group 1612">
                <path id="Path_1481" data-name="Path 1481" d="M502.856,439.653a21.236,21.236,0,0,0-10.43,7.1,5.119,5.119,0,0,1,1-1.628,15.295,15.295,0,0,1,7.547-5.135A5.113,5.113,0,0,1,502.856,439.653Z" fill="#263238"/>
              </g>
            </g>
          </g>
          <g id="Group_1615" data-name="Group 1615">
            <path id="Path_1482" data-name="Path 1482" d="M475.141,355.121l23.585,41.054a17.443,17.443,0,0,1,.476,16.49h0a17.443,17.443,0,0,1-16.094,9.636l-36.214-1.022-.954-13.17L477.834,402l-21.5-37.218Z" fill="#ffbe9d"/>
          </g>
          <g id="Group_1616" data-name="Group 1616">
            <path id="Path_1483" data-name="Path 1483" d="M387.244,425.375l33.3,8.821.724-9.986L390.58,406.386l22.413-41.6-18.811-9.663L370.6,396.175h0a19.227,19.227,0,0,0,11.1,27.437Z" fill="#ffbe9d"/>
          </g>
          <g id="Group_1617" data-name="Group 1617">
            <path id="Path_1484" data-name="Path 1484" d="M465.127,381.48l22.761-11.986a115.252,115.252,0,0,0-9.751-16.261,49.94,49.94,0,0,0-30.395-19.16h0l-26.18.309a34.618,34.618,0,0,0-9.336,2.149l.018-.1c-14.207,3.134-29.974,34.122-29.974,34.122l20.712,10.9.458,3.258a22.126,22.126,0,0,0,5.4,11.609L402.8,435.991l67.221,1.39-8.559-28.409Z" fill="#3343E0"/>
          </g>
          <g id="Group_1619" data-name="Group 1619">
            <g id="Group_1618" data-name="Group 1618">
              <path id="Path_1485" data-name="Path 1485" d="M409.446,396.537a4.813,4.813,0,0,1-1-.758,14.5,14.5,0,0,1-2.286-2.555,16.632,16.632,0,0,1-2.8-10.815,35.228,35.228,0,0,1,1.537-6.031c.6-1.808,1.214-3.411,1.747-4.748s.993-2.406,1.326-3.139a5.5,5.5,0,0,1,.573-1.114,6.1,6.1,0,0,1-.385,1.191c-.313.854-.705,1.923-1.17,3.193-.487,1.35-1.06,2.96-1.635,4.765a37.837,37.837,0,0,0-1.476,5.946,17.126,17.126,0,0,0,.566,6.02,16,16,0,0,0,2.027,4.525A27.875,27.875,0,0,0,409.446,396.537Z" fill="#263238"/>
            </g>
          </g>
          <g id="Group_1622" data-name="Group 1622">
            <g id="Group_1620" data-name="Group 1620">
              <path id="Path_1486" data-name="Path 1486" d="M399.37,445.57l-3.8-44.247h81.882l-5.427,44.8Z" fill="#263238"/>
            </g>
            <g id="Group_1621" data-name="Group 1621">
              <path id="Path_1487" data-name="Path 1487" d="M441.73,424.92a5.214,5.214,0,1,1-5.214-5.214A5.214,5.214,0,0,1,441.73,424.92Z" fill="#fafafa"/>
            </g>
          </g>
          <g id="Group_1636" data-name="Group 1636">
            <g id="Group_1623" data-name="Group 1623">
              <path id="Path_1488" data-name="Path 1488" d="M435.083,454.214l13.9,1.941v15.111l-12.786-.33Z" fill="#ffbe9d"/>
            </g>
            <g id="Group_1633" data-name="Group 1633">
              <g id="Group_1624" data-name="Group 1624">
                <path id="Path_1489" data-name="Path 1489" d="M448.985,456.154h6.25a6.93,6.93,0,0,1,3.465.929l3.3,1.9a51.117,51.117,0,0,0,5.76,2.747c3.8,1.222,10.194,2.865,11.541,3.9,3.845,2.966,2.676,6.471.564,6.838-1.855.321-30.876-1.208-30.876-1.208Z" fill="#3343E0"/>
              </g>
              <g id="Group_1626" data-name="Group 1626">
                <g id="Group_1625" data-name="Group 1625">
                  <path id="Path_1490" data-name="Path 1490" d="M459.253,470.017a14.285,14.285,0,0,1-.237-7.888,225.66,225.66,0,0,0,.237,7.888Z" fill="#263238"/>
                </g>
              </g>
              <g id="Group_1628" data-name="Group 1628">
                <g id="Group_1627" data-name="Group 1627">
                  <path id="Path_1491" data-name="Path 1491" d="M462.218,469.934a25.09,25.09,0,0,1,.057-7.212,25.09,25.09,0,0,1-.057,7.212Z" fill="#263238"/>
                </g>
              </g>
              <g id="Group_1630" data-name="Group 1630">
                <g id="Group_1629" data-name="Group 1629">
                  <path id="Path_1492" data-name="Path 1492" d="M465.721,470.533a26.9,26.9,0,0,1-.58-7.437,26.8,26.8,0,0,1,.58,7.437Z" fill="#263238"/>
                </g>
              </g>
              <g id="Group_1632" data-name="Group 1632">
                <g id="Group_1631" data-name="Group 1631">
                  <path id="Path_1493" data-name="Path 1493" d="M456.547,465.994a4.316,4.316,0,0,1-1.281-.4,12.016,12.016,0,0,1-3.123-1.93c-.3-.253-.6-.531-.893-.838a3.567,3.567,0,0,1-.8-1.128,1.574,1.574,0,0,1,.174-1.551,1.176,1.176,0,0,1,.777-.427,1.982,1.982,0,0,1,.842.1,6.224,6.224,0,0,1,1.308,11.072,3.95,3.95,0,0,1-1.432.643,1.67,1.67,0,0,1-.816-.039,1.094,1.094,0,0,1-.63-.555,1.576,1.576,0,0,1,.183-1.44,4.43,4.43,0,0,1,.8-.965,9.592,9.592,0,0,1,3.073-2.013,3.966,3.966,0,0,1,1.294-.366c.013.041-.444.18-1.211.551a10.34,10.34,0,0,0-2.895,2.088,4.128,4.128,0,0,0-.713.9,1.193,1.193,0,0,0-.147,1.053.826.826,0,0,0,.976.335,3.531,3.531,0,0,0,1.247-.591,5.779,5.779,0,0,0-1.185-10.217.985.985,0,0,0-1.119.164,1.14,1.14,0,0,0-.126,1.108,6.123,6.123,0,0,0,1.529,1.844A16.845,16.845,0,0,0,456.547,465.994Z" fill="#263238"/>
                </g>
              </g>
            </g>
            <g id="Group_1635" data-name="Group 1635">
              <g id="Group_1634" data-name="Group 1634">
                <path id="Path_1494" data-name="Path 1494" d="M479.861,472.474a3.665,3.665,0,0,0,.761-.95,3.577,3.577,0,0,0-.409-3.152,7.023,7.023,0,0,0-3.862-2.911c-1.766-.636-3.875-.943-6-1.606a41.85,41.85,0,0,1-10.326-4.705c-1.228-.782-2.174-1.483-2.815-1.983a5.664,5.664,0,0,1-.947-.835,6.073,6.073,0,0,1,1.067.672c.674.447,1.646,1.1,2.887,1.832a46.677,46.677,0,0,0,10.283,4.52c2.094.655,4.182.969,6.02,1.655a7.267,7.267,0,0,1,4.018,3.184,3.709,3.709,0,0,1,.267,3.421,2.111,2.111,0,0,1-.644.711C479.974,472.444,479.869,472.488,479.861,472.474Z" fill="#263238"/>
              </g>
            </g>
          </g>
          <g id="Group_1638" data-name="Group 1638">
            <g id="Group_1637" data-name="Group 1637">
              <path id="Path_1495" data-name="Path 1495" d="M470.395,344.934a.8.8,0,0,1,0,.213l-.046.624q-.079.876-.22,2.417c-.216,2.147-.524,5.219-.912,9.078l-.023.233-.21-.11-12.071-6.355.286-.08-6.556,11.063-.141.237-.219-.168-11.042-8.467.317,0-4.809,3.77-6.557,5.134-.241.189-.145-.269c-2.176-4.027-4.27-7.9-6.246-11.555l.313.106-13.246,5.9-.243.108-.044-.261c-.771-4.54-1.441-8.49-2-11.78l.2.114-7.584,2.892-2.017.748-.523.182a.671.671,0,0,1-.182.049.635.635,0,0,1,.167-.088l.507-.22,1.989-.821,7.533-3.023.171-.069.033.183c.589,3.286,1.3,7.23,2.108,11.762l-.287-.152,13.215-5.969.2-.092.108.2c1.984,3.651,4.087,7.519,6.273,11.54l-.386-.08,6.553-5.138,4.812-3.767.158-.125.159.123,11.025,8.49-.359.069c2.37-3.959,4.6-7.685,6.607-11.033l.106-.177.18.1,12.019,6.455-.233.123c.45-3.853.808-6.919,1.058-9.062l.3-2.408c.036-.252.065-.455.089-.619A.8.8,0,0,1,470.395,344.934Z" fill="#f5f5f5"/>
            </g>
          </g>
          <g id="Group_1640" data-name="Group 1640">
            <g id="Group_1639" data-name="Group 1639">
              <path id="Path_1496" data-name="Path 1496" d="M480.112,356.067a1.372,1.372,0,0,1-.056.293l-.209.849c-.2.775-.49,1.869-.856,3.271-.775,2.877-1.887,7.01-3.276,12.168l-.053.2-.186-.089-14.106-6.771.277-.071-11.882,16.945-.174.248-.214-.216c-3.627-3.677-7.468-7.57-11.419-11.573l-2.4-2.432.324.038L420.5,378.573l-.22.138-.127-.225-8.3-14.652.261.1-15.824,5.447-.15.052-.051-.149c-1.5-4.347-2.687-7.792-3.511-10.183l-.91-2.708c-.093-.289-.167-.519-.224-.7a1.081,1.081,0,0,1-.062-.242,1.052,1.052,0,0,1,.1.227l.264.685q.353.955.988,2.68l3.65,10.134-.2-.1,15.785-5.558.17-.06.09.158,8.349,14.622-.346-.087,15.375-9.671.177-.111.147.149,2.4,2.431,11.409,11.583-.387.033,11.935-16.908.108-.154.169.082,14.062,6.861-.239.108c1.453-5.14,2.616-9.259,3.426-12.126l.943-3.247c.106-.349.19-.625.255-.837A1.424,1.424,0,0,1,480.112,356.067Z" fill="#f5f5f5"/>
            </g>
          </g>
        </g>
        <g id="Group_1728" data-name="Group 1728">
          <g id="Group_1642" data-name="Group 1642">
            <path id="Path_1497" data-name="Path 1497" d="M470.025,286.306a14.676,14.676,0,0,1-11.177-3.527c3.643,1.838,8.5-.685,9.778-4.56s.23-11.083-2.951-13.639a12.615,12.615,0,0,0-10.972-2.36c-3.751,1-7.725,6.7-8.951,10.389l.07.112c-.577-.229-1.158-.445-1.744-.641a30.035,30.035,0,0,0-12.943-1.566,20.983,20.983,0,0,0-11.83,5.208l25.428,40.871c4.618-.407,8.71-3.521,11.13-7.476s3.349-8.66,3.577-13.291c.057-1.161.054-2.336.006-3.51l8.178,1.315a18.231,18.231,0,0,0-5.437-4.86A6.827,6.827,0,0,0,470.025,286.306Z" fill="#263238"/>
          </g>
          <g id="Group_1716" data-name="Group 1716">
            <g id="Group_1715" data-name="Group 1715">
              <g id="Group_1714" data-name="Group 1714">
                <g id="Group_1708" data-name="Group 1708">
                  <g id="Group_1707" data-name="Group 1707">
                    <g id="Group_1696" data-name="Group 1696">
                      <g id="Group_1695" data-name="Group 1695">
                        <g id="Group_1694" data-name="Group 1694">
                          <g id="Group_1647" data-name="Group 1647">
                            <g id="Group_1646" data-name="Group 1646">
                              <g id="Group_1645" data-name="Group 1645">
                                <g id="Group_1644" data-name="Group 1644">
                                  <g id="Group_1643" data-name="Group 1643">
                                    <path id="Path_1498" data-name="Path 1498" d="M437.884,349.738A12.79,12.79,0,0,0,450.4,337.1l.59-50.848h0a4.047,4.047,0,0,0-3.621-4.105l-21.477-5.428c-6.878-.728-11.451,7.742-11.886,14.644-.484,7.669-.771,17.052.138,22.774,1.827,11.506,10.646,12.97,10.646,12.97,0-.03.006,4.453.032,9.906a12.793,12.793,0,0,0,13.065,12.725Z" fill="#ffbe9d"/>
                                  </g>
                                </g>
                              </g>
                            </g>
                          </g>
                          <g id="Group_1659" data-name="Group 1659">
                            <g id="Group_1652" data-name="Group 1652">
                              <g id="Group_1651" data-name="Group 1651">
                                <g id="Group_1650" data-name="Group 1650">
                                  <g id="Group_1649" data-name="Group 1649">
                                    <g id="Group_1648" data-name="Group 1648">
                                      <path id="Path_1499" data-name="Path 1499" d="M418.465,298.811a1.475,1.475,0,0,0,1.423,1.489,1.411,1.411,0,0,0,1.521-1.33,1.478,1.478,0,0,0-1.422-1.49A1.411,1.411,0,0,0,418.465,298.811Z" fill="#263238"/>
                                    </g>
                                  </g>
                                </g>
                              </g>
                            </g>
                            <g id="Group_1658" data-name="Group 1658">
                              <g id="Group_1657" data-name="Group 1657">
                                <g id="Group_1656" data-name="Group 1656">
                                  <g id="Group_1655" data-name="Group 1655">
                                    <g id="Group_1654" data-name="Group 1654">
                                      <g id="Group_1653" data-name="Group 1653">
                                        <path id="Path_1500" data-name="Path 1500" d="M416.038,296.244c.183.192,1.3-.635,2.889-.631,1.586-.018,2.751.8,2.924.6.084-.086-.1-.433-.61-.8a4.054,4.054,0,0,0-2.34-.721,3.894,3.894,0,0,0-2.3.742C416.113,295.81,415.948,296.158,416.038,296.244Z" fill="#263238"/>
                                      </g>
                                    </g>
                                  </g>
                                </g>
                              </g>
                            </g>
                          </g>
                          <g id="Group_1671" data-name="Group 1671">
                            <g id="Group_1664" data-name="Group 1664">
                              <g id="Group_1663" data-name="Group 1663">
                                <g id="Group_1662" data-name="Group 1662">
                                  <g id="Group_1661" data-name="Group 1661">
                                    <g id="Group_1660" data-name="Group 1660">
                                      <path id="Path_1501" data-name="Path 1501" d="M433.571,298.811a1.475,1.475,0,0,0,1.423,1.489,1.412,1.412,0,0,0,1.521-1.33,1.477,1.477,0,0,0-1.422-1.49A1.411,1.411,0,0,0,433.571,298.811Z" fill="#263238"/>
                                    </g>
                                  </g>
                                </g>
                              </g>
                            </g>
                            <g id="Group_1670" data-name="Group 1670">
                              <g id="Group_1669" data-name="Group 1669">
                                <g id="Group_1668" data-name="Group 1668">
                                  <g id="Group_1667" data-name="Group 1667">
                                    <g id="Group_1666" data-name="Group 1666">
                                      <g id="Group_1665" data-name="Group 1665">
                                        <path id="Path_1502" data-name="Path 1502" d="M431.646,296.54c.184.193,1.3-.634,2.89-.63,1.586-.019,2.752.8,2.924.6.084-.087-.1-.434-.61-.8a4.046,4.046,0,0,0-2.34-.722,3.9,3.9,0,0,0-2.3.742C431.723,296.106,431.557,296.454,431.646,296.54Z" fill="#263238"/>
                                      </g>
                                    </g>
                                  </g>
                                </g>
                              </g>
                            </g>
                          </g>
                          <g id="Group_1677" data-name="Group 1677">
                            <g id="Group_1676" data-name="Group 1676">
                              <g id="Group_1675" data-name="Group 1675">
                                <g id="Group_1674" data-name="Group 1674">
                                  <g id="Group_1673" data-name="Group 1673">
                                    <g id="Group_1672" data-name="Group 1672">
                                      <path id="Path_1503" data-name="Path 1503" d="M425.884,308.317a10.486,10.486,0,0,0-2.579-.466c-.406-.042-.79-.122-.858-.4a2.058,2.058,0,0,1,.271-1.2q.572-1.471,1.2-3.087c1.665-4.4,2.871-8.011,2.693-8.077s-1.672,3.445-3.337,7.841q-.6,1.626-1.149,3.106a2.348,2.348,0,0,0-.21,1.591,1.018,1.018,0,0,0,.667.593,2.72,2.72,0,0,0,.688.1A10.343,10.343,0,0,0,425.884,308.317Z" fill="#263238"/>
                                    </g>
                                  </g>
                                </g>
                              </g>
                            </g>
                          </g>
                          <g id="Group_1682" data-name="Group 1682">
                            <g id="Group_1681" data-name="Group 1681">
                              <g id="Group_1680" data-name="Group 1680">
                                <g id="Group_1679" data-name="Group 1679">
                                  <g id="Group_1678" data-name="Group 1678">
                                    <path id="Path_1504" data-name="Path 1504" d="M424.787,327.107A29.277,29.277,0,0,0,440.2,323s-3.739,7.9-15.255,6.827Z" fill="#eb996e"/>
                                  </g>
                                </g>
                              </g>
                            </g>
                          </g>
                          <g id="Group_1687" data-name="Group 1687">
                            <g id="Group_1686" data-name="Group 1686">
                              <g id="Group_1685" data-name="Group 1685">
                                <g id="Group_1684" data-name="Group 1684">
                                  <g id="Group_1683" data-name="Group 1683">
                                    <path id="Path_1505" data-name="Path 1505" d="M426.555,312.144a2.859,2.859,0,0,1,2.565-1.063,2.611,2.611,0,0,1,1.8.967,1.655,1.655,0,0,1,.126,1.893,1.92,1.92,0,0,1-2.082.527,6.016,6.016,0,0,1-2.029-1.212,1.759,1.759,0,0,1-.454-.469.529.529,0,0,1,0-.591" fill="#eb996e"/>
                                  </g>
                                </g>
                              </g>
                            </g>
                          </g>
                          <g id="Group_1693" data-name="Group 1693">
                            <g id="Group_1692" data-name="Group 1692">
                              <g id="Group_1691" data-name="Group 1691">
                                <g id="Group_1690" data-name="Group 1690">
                                  <g id="Group_1689" data-name="Group 1689">
                                    <g id="Group_1688" data-name="Group 1688">
                                      <path id="Path_1506" data-name="Path 1506" d="M430.557,309.415c-.258-.015-.262,1.709-1.737,2.932s-3.31,1.034-3.323,1.275c-.025.108.409.335,1.184.356a4.3,4.3,0,0,0,2.775-.967,3.732,3.732,0,0,0,1.345-2.459C430.867,309.832,430.675,309.4,430.557,309.415Z" fill="#263238"/>
                                    </g>
                                  </g>
                                </g>
                              </g>
                            </g>
                          </g>
                        </g>
                      </g>
                    </g>
                    <g id="Group_1701" data-name="Group 1701">
                      <g id="Group_1700" data-name="Group 1700">
                        <g id="Group_1699" data-name="Group 1699">
                          <g id="Group_1698" data-name="Group 1698">
                            <g id="Group_1697" data-name="Group 1697">
                              <path id="Path_1507" data-name="Path 1507" d="M430.932,293.76c.157.432,1.742.227,3.6.452,1.868.187,3.37.732,3.617.345.111-.185-.151-.591-.759-1.009a6.315,6.315,0,0,0-5.5-.608C431.209,293.216,430.865,293.555,430.932,293.76Z" fill="#263238"/>
                            </g>
                          </g>
                        </g>
                      </g>
                    </g>
                    <g id="Group_1706" data-name="Group 1706">
                      <g id="Group_1705" data-name="Group 1705">
                        <g id="Group_1704" data-name="Group 1704">
                          <g id="Group_1703" data-name="Group 1703">
                            <g id="Group_1702" data-name="Group 1702">
                              <path id="Path_1508" data-name="Path 1508" d="M416.259,293.314c.28.361,1.373-.014,2.689-.031,1.315-.064,2.429.242,2.686-.135.112-.183-.063-.544-.55-.886a3.894,3.894,0,0,0-4.331.134C416.289,292.767,416.136,293.138,416.259,293.314Z" fill="#263238"/>
                            </g>
                          </g>
                        </g>
                      </g>
                    </g>
                  </g>
                </g>
                <g id="Group_1710" data-name="Group 1710">
                  <g id="Group_1709" data-name="Group 1709">
                    <path id="Path_1509" data-name="Path 1509" d="M449.713,300.552a2.883,2.883,0,0,1,3.009.15,5.334,5.334,0,0,1-3.362,9.907" fill="#ffbe9d"/>
                  </g>
                </g>
                <g id="Group_1713" data-name="Group 1713">
                  <g id="Group_1712" data-name="Group 1712">
                    <g id="Group_1711" data-name="Group 1711">
                      <path id="Path_1510" data-name="Path 1510" d="M450.517,307.177c.033-.082.447.1,1-.157a2,2,0,0,0,.987-1.966,2.029,2.029,0,0,0-1.228-1.845c-.575-.236-1-.121-1.023-.21-.041-.057.391-.362,1.15-.192a2.112,2.112,0,0,1,1.125.7,2.563,2.563,0,0,1,.571,1.515,2.284,2.284,0,0,1-1.44,2.393C450.88,307.622,450.456,307.223,450.517,307.177Z" fill="#eb996e"/>
                    </g>
                  </g>
                </g>
              </g>
            </g>
          </g>
          <g id="Group_1718" data-name="Group 1718">
            <g id="Group_1717" data-name="Group 1717">
              <path id="Path_1511" data-name="Path 1511" d="M453.662,309.506a2.319,2.319,0,0,1,.527.372l1.41,1.151,4.965,4.218.167.142-.141.169c-1.849,2.22-3.909,5-6.224,7.9-.524.656-1.048,1.3-1.557,1.9l-.425.5-.03-.656c-.209-4.685-.37-8.832-.462-11.809-.034-1.417-.062-2.592-.084-3.509a6.513,6.513,0,0,1,.035-1.278,6.556,6.556,0,0,1,.152,1.27c.063.914.144,2.087.242,3.5.184,2.972.408,7.117.633,11.8l-.455-.155,1.544-1.887c2.308-2.894,4.393-5.661,6.294-7.864l.026.311-4.846-4.359-1.33-1.244A2.391,2.391,0,0,1,453.662,309.506Z" fill="#455a64"/>
            </g>
          </g>
          <g id="Group_1719" data-name="Group 1719">
            <path id="Path_1512" data-name="Path 1512" d="M430.394,271.689a41.877,41.877,0,0,0-8.39.917,14.046,14.046,0,0,0-7.254,4.084,8.527,8.527,0,0,0-2,7.847,6.177,6.177,0,0,0,6.37,4.442c2.121-.284,4.155-1.854,6.2-1.23,1.934.589,3,2.95,4.987,3.317,1.963.363,3.71-1.4,5.7-1.572,2.194-.19,4.1,1.611,5.074,3.584s1.347,4.2,2.328,6.176a5.007,5.007,0,0,0,2.964,2.821,4.076,4.076,0,0,0,3.587-1.009,8.337,8.337,0,0,0,2.1-3.216,17.87,17.87,0,0,0-14.519-24.5" fill="#263238"/>
          </g>
          <g id="Group_1721" data-name="Group 1721">
            <g id="Group_1720" data-name="Group 1720">
              <path id="Path_1513" data-name="Path 1513" d="M458.429,283.91c-.089.025-.357-.929-1.064-2.337a16.664,16.664,0,0,0-8.9-8.042c-1.472-.561-2.448-.73-2.431-.822.005-.036.253-.02.7.038a10.408,10.408,0,0,1,1.855.437,15.181,15.181,0,0,1,9.112,8.232,10.542,10.542,0,0,1,.622,1.8C458.424,283.656,458.464,283.9,458.429,283.91Z" fill="#3343E0"/>
            </g>
          </g>
          <g id="Group_1723" data-name="Group 1723">
            <g id="Group_1722" data-name="Group 1722">
              <path id="Path_1514" data-name="Path 1514" d="M467.231,267.055a19.077,19.077,0,0,0-2.771-.859,11.054,11.054,0,0,0-6.749,1.016,14.982,14.982,0,0,0-5.216,4.538c-1.067,1.448-1.565,2.462-1.644,2.422a2.221,2.221,0,0,1,.274-.749,14.266,14.266,0,0,1,1.069-1.885,14.019,14.019,0,0,1,5.285-4.793,10.718,10.718,0,0,1,7.054-.91,7.93,7.93,0,0,1,2.044.762C467.026,266.849,467.247,267.029,467.231,267.055Z" fill="#455a64"/>
            </g>
          </g>
          <g id="Group_1725" data-name="Group 1725">
            <g id="Group_1724" data-name="Group 1724">
              <path id="Path_1515" data-name="Path 1515" d="M456.168,280.574a7.2,7.2,0,0,1,.018,2.366,18.786,18.786,0,0,1-4.475,10.38,7.248,7.248,0,0,1-1.732,1.612,24.109,24.109,0,0,0,6.189-14.358Z" fill="#455a64"/>
            </g>
          </g>
          <g id="Group_1727" data-name="Group 1727">
            <g id="Group_1726" data-name="Group 1726">
              <path id="Path_1516" data-name="Path 1516" d="M456.5,280.818c.035-.01.133.224.282.659a11.283,11.283,0,0,1,.45,1.9,16.238,16.238,0,0,1-3.084,12.205,11.16,11.16,0,0,1-1.3,1.455c-.338.313-.535.472-.56.446-.066-.064.647-.784,1.559-2.116a17.937,17.937,0,0,0,3.017-11.942C456.7,281.817,456.411,280.844,456.5,280.818Z" fill="#455a64"/>
            </g>
          </g>
        </g>
      </g>
    </g>
    <g id="Speech_Bubble" data-name="Speech Bubble">
      <g id="Group_1744" data-name="Group 1744">
        <g id="Group_1730" data-name="Group 1730">
          <path id="Path_1517" data-name="Path 1517" d="M486.76,283.441a4.712,4.712,0,1,0,2.154-.161" fill="#ebebeb"/>
        </g>
        <g id="Group_1731" data-name="Group 1731">
          <path id="Path_1518" data-name="Path 1518" d="M500.279,263.8a5.406,5.406,0,1,0,2.47-.184" fill="#ebebeb"/>
        </g>
        <g id="Group_1735" data-name="Group 1735">
          <g id="Group_1732" data-name="Group 1732">
            <path id="Path_1519" data-name="Path 1519" d="M529.152,177.19c-9.047-.764-18.2,1.256-24.4,7.885a30.637,30.637,0,0,0-7.8,25.138c-9.622,4-14.868,16.234-11.13,25.96s15.828,15.3,25.651,11.824a34.79,34.79,0,0,0,59.16,9.418c9.437,2.133,20.029,1.994,27.957-3.551s11.516-17.746,5.475-25.3c10.871-2.647,16.395-16.223,13.171-26.937s-12.874-18.4-23.181-22.757c-6.812-2.877-15.3-4.379-21.117.193a26.907,26.907,0,0,0-43.788-1.87" fill="#f5f5f5"/>
          </g>
          <g id="Group_1734" data-name="Group 1734">
            <g id="Group_1733" data-name="Group 1733">
              <path id="Path_1520" data-name="Path 1520" d="M529.152,177.19s.178-.241.548-.7a22.668,22.668,0,0,1,1.755-1.937,27.183,27.183,0,0,1,8.355-5.606,27.667,27.667,0,0,1,7.06-2,25.862,25.862,0,0,1,8.75.267,27.643,27.643,0,0,1,9.361,3.787,27.366,27.366,0,0,1,8.106,7.958l-.256-.042a14.615,14.615,0,0,1,8.559-2.937,27.727,27.727,0,0,1,9.642,1.537,50.328,50.328,0,0,1,9.444,4.332,44.3,44.3,0,0,1,8.756,6.6,32.75,32.75,0,0,1,6.764,9.3,27.478,27.478,0,0,1,1.925,5.655,24.155,24.155,0,0,1-3.5,17.872,18.931,18.931,0,0,1-4.4,4.7,17.423,17.423,0,0,1-5.9,2.822l.136-.4a14.243,14.243,0,0,1,2.686,5.71,17.21,17.21,0,0,1,.157,6.417,21.121,21.121,0,0,1-5.976,11.528,24.306,24.306,0,0,1-11.9,6.081,40.206,40.206,0,0,1-13.705.4c-1.673-.2-3.322-.53-4.943-.876l.258-.088a34.81,34.81,0,0,1-49.646,4.225,35.187,35.187,0,0,1-9.937-13.721l.3.137a20.92,20.92,0,0,1-16.786-1.755,19.68,19.68,0,0,1-9.822-12.448,21.136,21.136,0,0,1,2.032-14.673,20.434,20.434,0,0,1,9.907-9.3l-.109.193a30.831,30.831,0,0,1,.623-11.876,31.361,31.361,0,0,1,4.314-9.673,30.442,30.442,0,0,1,2.987-3.75,24.009,24.009,0,0,1,3.347-2.912,24.839,24.839,0,0,1,6.9-3.465,33.468,33.468,0,0,1,10.511-1.572,32.672,32.672,0,0,1,3.7.2s-.319,0-.94-.035-1.545-.064-2.758-.061a34,34,0,0,0-10.449,1.657,24.715,24.715,0,0,0-6.816,3.474,23.878,23.878,0,0,0-3.3,2.9,30.27,30.27,0,0,0-2.943,3.729,31.12,31.12,0,0,0-4.236,9.593,30.516,30.516,0,0,0-.581,11.743l.021.138-.13.055a20.078,20.078,0,0,0-9.7,9.151,20.739,20.739,0,0,0-1.967,14.388,19.244,19.244,0,0,0,9.628,12.152,20.469,20.469,0,0,0,16.406,1.7l.217-.075.085.213a35.346,35.346,0,0,0,25.448,21.178,35.216,35.216,0,0,0,33.29-11.839l.1-.121.157.033c1.606.343,3.239.666,4.9.868a39.742,39.742,0,0,0,13.525-.395,23.813,23.813,0,0,0,11.654-5.942,20.62,20.62,0,0,0,5.834-11.24,14.984,14.984,0,0,0-2.731-11.734l-.24-.3.377-.1a16.933,16.933,0,0,0,5.719-2.732,18.456,18.456,0,0,0,4.285-4.57,23.688,23.688,0,0,0,3.45-17.506,26.981,26.981,0,0,0-1.883-5.552,32.282,32.282,0,0,0-6.657-9.183,43.913,43.913,0,0,0-8.66-6.557,50.06,50.06,0,0,0-9.355-4.315,27.387,27.387,0,0,0-9.5-1.542,14.26,14.26,0,0,0-8.356,2.837l-.152.117-.1-.159a27.068,27.068,0,0,0-7.982-7.884,27.407,27.407,0,0,0-9.246-3.782,25.707,25.707,0,0,0-8.662-.305,27.816,27.816,0,0,0-15.379,7.441,25.769,25.769,0,0,0-1.786,1.9C529.357,176.97,529.152,177.19,529.152,177.19Z" fill="#263238"/>
            </g>
          </g>
        </g>
        <g id="Group_1737" data-name="Group 1737">
          <g id="Group_1736" data-name="Group 1736">
            <path id="Path_1521" data-name="Path 1521" d="M590.987,208.362c0,.432-17.733.781-39.6.781s-39.607-.349-39.607-.781,17.729-.781,39.607-.781S590.987,207.931,590.987,208.362Z" fill="#455a64"/>
          </g>
        </g>
        <g id="Group_1739" data-name="Group 1739">
          <g id="Group_1738" data-name="Group 1738">
            <path id="Path_1522" data-name="Path 1522" d="M590.987,216.956c0,.431-17.733.781-39.6.781s-39.607-.35-39.607-.781,17.729-.781,39.607-.781S590.987,216.524,590.987,216.956Z" fill="#455a64"/>
          </g>
        </g>
        <g id="Group_1741" data-name="Group 1741">
          <g id="Group_1740" data-name="Group 1740">
            <path id="Path_1523" data-name="Path 1523" d="M590.987,225.549c0,.432-17.733.782-39.6.782s-39.607-.35-39.607-.782,17.729-.781,39.607-.781S590.987,225.118,590.987,225.549Z" fill="#455a64"/>
          </g>
        </g>
        <g id="Group_1743" data-name="Group 1743">
          <g id="Group_1742" data-name="Group 1742">
            <path id="Path_1524" data-name="Path 1524" d="M590.987,234.143c0,.432-17.733.781-39.6.781s-39.607-.349-39.607-.781,17.729-.781,39.607-.781S590.987,233.712,590.987,234.143Z" fill="#455a64"/>
          </g>
        </g>
      </g>
    </g>
  </g>
</svg>
