<svg xmlns="http://www.w3.org/2000/svg" width="471.217" height="456.945" viewBox="0 0 471.217 456.945"><g transform="translate(-14.561 -26.057)"><ellipse cx="235.608" cy="136.029" rx="235.608" ry="136.029" transform="translate(14.56 210.945)" fill="#f0f0f0"/><path d="M71.239,395.411,30.6,371.948c-2.292-1.323-2.292-3.468,0-4.791L266.988,230.678a9.171,9.171,0,0,1,8.3,0l40.642,23.464c2.292,1.322,2.292,3.467,0,4.79L79.537,395.411A9.17,9.17,0,0,1,71.239,395.411Z" fill="#e0e0e0"/><path d="M245.93,405.119l-97.6-56.352L270.3,278.477l97.488,56.286Z" fill="#e0e0e0"/><ellipse cx="46.143" cy="26.641" rx="46.143" ry="26.641" transform="translate(334.545 376.966)" fill="#e0e0e0"/><path d="M442.6,371.528c5,2.887,5,7.569,0,10.457s-13.112,2.888-18.114,0-5-7.569,0-10.457S437.6,368.64,442.6,371.528Z" fill="#e0e0e0"/><path d="M217.32,353.593l34.938-20.2c3.6-2.079,5.4-4.8,5.4-7.528s.015-4.86.015-4.86l-36.249-20.44a7.687,7.687,0,0,1-3.478-6.024V251.465l-61.022,35.262,0,43.075a7.687,7.687,0,0,0,3.478,6.024l30.836,17.768C198.44,357.752,210.118,357.752,217.32,353.593Z" fill="#3343E0"/><g opacity="0.6"><path d="M217.32,353.593l34.938-20.2c3.6-2.079,5.4-4.8,5.4-7.528s.015-4.86.015-4.86l-36.249-20.44a7.687,7.687,0,0,1-3.478-6.024V251.465l-61.022,35.262,0,43.075a7.687,7.687,0,0,0,3.478,6.024l30.836,17.768C198.44,357.752,210.118,357.752,217.32,353.593Z"/></g><path d="M171.575,337.429v4.839l-11.184-6.445a7.7,7.7,0,0,1-3.474-6.024v-43.07l11.626-6.707c.241,2.952.5,6,.743,8.976l-8.152,4.719v33.652a7.64,7.64,0,0,0,3.474,6.024Z" opacity="0.3"/><path d="M161.132,327.377a7.687,7.687,0,0,0,3.478,6.024l26.622,15.335c7.2,4.158,18.882,4.159,26.085,0l34.955-20.2c7.2-4.156,7.2-10.9,0-15.056l-26.639-15.346a7.684,7.684,0,0,1-3.478-6.023V258.457l-61.025,35.262Z" fill="#3343E0"/><path d="M161.132,327.377a7.687,7.687,0,0,0,3.478,6.024l26.622,15.335c7.2,4.158,18.882,4.159,26.085,0l34.955-20.2c7.2-4.156,7.2-10.9,0-15.056l-26.639-15.346a7.684,7.684,0,0,1-3.478-6.023V258.457l-61.025,35.262Z" opacity="0.3"/><path d="M232.719,302.232v-.005l-7.084-4.09a7.684,7.684,0,0,1-3.478-6.023V258.457l-61.025,35.262v33.658a7.687,7.687,0,0,0,3.478,6.024l6.962,4.019Z" opacity="0.5"/><path d="M257.668,321.007v4.859c0,2.731-1.807,5.442-5.4,7.53l-34.943,20.19a26.173,26.173,0,0,1-12.449,3.092v-4.839a26.161,26.161,0,0,0,12.449-3.093l34.943-20.209C255.861,326.469,257.668,323.738,257.668,321.007Z" fill="#3343E0"/><path d="M257.668,321.007v4.859c0,2.731-1.807,5.442-5.4,7.53l-34.943,20.19a26.173,26.173,0,0,1-12.449,3.092v-4.839a26.161,26.161,0,0,0,12.449-3.093l34.943-20.209C255.861,326.469,257.668,323.738,257.668,321.007Z" opacity="0.5"/><path d="M63.151,369.212a9.325,9.325,0,0,0,8.426-.156l236-136.25a9.607,9.607,0,0,0,4.346-7.528V34.364a9.324,9.324,0,0,0-4.078-7.375,9.325,9.325,0,0,0-8.426.156L63.423,163.4a9.612,9.612,0,0,0-4.347,7.53l0,190.913A9.322,9.322,0,0,0,63.151,369.212Z" fill="#3343E0"/><path d="M71.578,369.051l236-136.249a9.609,9.609,0,0,0,4.347-7.53V34.358c0-2.772-1.946-3.9-4.347-2.51L71.581,168.1a9.608,9.608,0,0,0-4.347,7.53l0,190.913C67.231,369.313,69.177,370.437,71.578,369.051Z" fill="#3343E0"/><path d="M71.578,369.051l236-136.249a9.609,9.609,0,0,0,4.347-7.53V34.358c0-2.772-1.946-3.9-4.347-2.51L71.581,168.1a9.608,9.608,0,0,0-4.347,7.53l0,190.913C67.231,369.313,69.177,370.437,71.578,369.051Z" opacity="0.5"/><path d="M70.938,374.014a9.386,9.386,0,0,1-7.79-.161,9.333,9.333,0,0,1-4.077-7.389V349.08l8.153,4.719v17.383C67.224,373.712,68.83,374.857,70.938,374.014Z" fill="#3343E0"/><path d="M70.938,374.014a9.386,9.386,0,0,1-7.79-.161,9.333,9.333,0,0,1-4.077-7.389V349.08l8.153,4.719v17.383C67.224,373.712,68.83,374.857,70.938,374.014Z" opacity="0.5"/><path d="M67.224,353.8l.007,17.377c0,2.772,1.946,3.9,4.347,2.509l236-136.249a9.608,9.608,0,0,0,4.347-7.529V212.492Z" fill="#3343E0"/><path d="M67.231,353.762v17.414c0,2.772,1.946,3.9,4.347,2.509l236-136.249a9.608,9.608,0,0,0,4.347-7.529V212.492Z" opacity="0.3"/><path d="M75.385,331.99l0-153.655A5.766,5.766,0,0,1,78,173.817L301.151,44.978c1.441-.832,2.609-.158,2.609,1.506l.007,153.658a5.766,5.766,0,0,1-2.608,4.518L77.993,333.5C76.553,334.328,75.385,333.654,75.385,331.99Z" fill="#3343E0"/><path d="M75.385,331.99l0-153.655A5.766,5.766,0,0,1,78,173.817L301.151,44.978c1.441-.832,2.609-.158,2.609,1.506l.007,153.658a5.766,5.766,0,0,1-2.608,4.518L77.993,333.5C76.553,334.328,75.385,333.654,75.385,331.99Z" fill="#263238"/><path d="M68.509,171.327a9.233,9.233,0,0,0-1.285,4.3V353.8l-8.153-4.719.005-178.155a8.994,8.994,0,0,1,1.28-4.3Z" opacity="0.7"/><path d="M311.876,33.644c-.308-2.242-2.117-3.054-4.307-1.8L71.58,168.1a8.96,8.96,0,0,0-3.074,3.228l-8.152-4.708a8.938,8.938,0,0,1,3.074-3.228L299.416,27.146a9.308,9.308,0,0,1,8.43-.154A9.348,9.348,0,0,1,311.876,33.644Z" opacity="0.3"/><path d="M93.607,207.749a4.644,4.644,0,0,1-2.03-3.673l0-16.9a4.786,4.786,0,0,1,2.167-3.75L315.87,55.165a4.063,4.063,0,0,1,6.222,3.594l0,16.9a4.77,4.77,0,0,1-2.162,3.749L97.8,207.67A4.643,4.643,0,0,1,93.607,207.749Z" fill="#3343E0"/><path d="M322.072,58.408c-.15-1.12-1.06-1.53-2.14-.9L97.8,185.766a4.623,4.623,0,0,0-1.531,1.621l-4.059-2.35a4.477,4.477,0,0,1,1.529-1.612L315.872,55.167a4.044,4.044,0,0,1,6.2,3.241Z" fill="#fff" opacity="0.4"/><path d="M97.8,345.244a3.712,3.712,0,0,1-1.7.516,4.271,4.271,0,0,1-2.489-.437,4.619,4.619,0,0,1-2.03-3.67l-.01-128.837,4.069,2.351V343.993c0,.98.493,1.546,1.2,1.546A2.128,2.128,0,0,0,97.8,345.244Z" fill="#f0f0f0"/><path d="M96.271,187.387a4.4,4.4,0,0,0-.63,2.129v25.651l-4.069-2.351,0-25.641c0-.09,0-.171.011-.262a3.583,3.583,0,0,1,.083-.536,4.9,4.9,0,0,1,.544-1.34Z" opacity="0.1"/><path d="M322.092,58.757l0,11.571-159.3,91.988c-1.19.691-2.161.131-2.161-1.25v-4.38c0-1.38-.969-1.939-2.169-1.25l-52.53,30.33a4.783,4.783,0,0,0-2.17,3.75v4.38a4.8,4.8,0,0,1-2.16,3.75l-5.961,3.441V189.516a4.8,4.8,0,0,1,2.161-3.75L319.932,57.507C321.122,56.818,322.092,57.378,322.092,58.757Z" fill="#3343E0"/><g fill="#fafafa" stroke-linecap="round" stroke-linejoin="round"><path d="M 96.83927917480469 345.0392150878906 C 96.20903015136719 345.0392150878906 96.1409912109375 344.3076171875 96.1409912109375 343.9930419921875 L 96.1409912109375 201.3757019042969 L 101.8519592285156 198.0790252685547 C 102.5493850708008 197.6752471923828 103.1148834228516 195.8743896484375 104.2391738891602 191.8613891601563 C 104.6139602661133 190.5236053466797 105.0015258789063 189.1402435302734 105.3593826293945 188.0686340332031 C 105.8783111572266 186.5148010253906 106.1354827880859 186.2385101318359 106.1880950927734 186.1954650878906 L 157.7610473632813 156.4185333251953 C 157.8511047363281 156.4730529785156 158.08349609375 156.6622772216797 158.5187835693359 157.3075256347656 C 158.9076995849609 157.8840026855469 159.3414154052734 158.6471405029297 159.7608489990234 159.3851470947266 C 161.0220642089844 161.6041717529297 161.7771759033203 162.8596343994141 162.6307067871094 162.8596343994141 C 162.7772064208984 162.8596343994141 162.9159240722656 162.8222045898438 163.0430603027344 162.7483825683594 L 321.593994140625 71.19409942626953 L 321.593994140625 84.40799713134766 L 321.593994140625 213.2339935302734 C 321.593994140625 214.4371337890625 320.7187805175781 215.9568481445313 319.6827697753906 216.5525360107422 L 97.55199432373047 344.8110046386719 C 97.29420471191406 344.96044921875 97.04802703857422 345.0392150878906 96.83927917480469 345.0392150878906 Z" stroke="none"/><path d="M 96.83927917480469 344.5392150878906 C 96.894775390625 344.5392150878906 97.05084991455078 344.5235900878906 97.30195617675781 344.3779907226563 L 319.4335327148438 216.1191101074219 C 320.3180847167969 215.6104583740234 321.093994140625 214.2622833251953 321.093994140625 213.2339935302734 L 321.093994140625 84.40799713134766 L 321.093994140625 72.06020355224609 L 163.2941284179688 163.1807861328125 C 163.0926055908203 163.2977752685547 162.8632049560547 163.3596343994141 162.6307067871094 163.3596343994141 C 161.4974212646484 163.3596343994141 160.7182464599609 162.0814971923828 159.3261413574219 159.6321716308594 C 158.9483489990234 158.9674682617188 158.5576782226563 158.2800750732422 158.2062835693359 157.7410278320313 C 157.9742584228516 157.3851470947266 157.8063812255859 157.1673583984375 157.6922302246094 157.0356140136719 L 106.5125427246094 186.5855255126953 C 106.431510925293 186.7010040283203 106.1992340087891 187.1072540283203 105.7767791748047 188.3992156982422 C 105.4391021728516 189.4317779541016 105.0738525390625 190.7355041503906 104.7206344604492 191.9962768554688 C 103.4821319580078 196.4169921875 102.9712753295898 198.0087127685547 102.101921081543 198.5120697021484 L 96.6409912109375 201.6643981933594 L 96.6409912109375 343.9930419921875 C 96.6409912109375 344.2679748535156 96.70017242431641 344.4400329589844 96.75556182861328 344.5094299316406 C 96.7703857421875 344.5279846191406 96.77935028076172 344.5392150878906 96.83927917480469 344.5392150878906 M 96.83927917480469 345.5392150878906 C 96.12992858886719 345.5392150878906 95.6409912109375 344.972412109375 95.6409912109375 343.9930419921875 L 95.6409912109375 201.0869903564453 L 101.6019897460938 197.64599609375 C 102.7919921875 196.9570007324219 104.7319946289063 186.4570007324219 105.9319915771484 185.7659912109375 L 157.5829925537109 155.9440002441406 C 157.6341857910156 155.9145660400391 157.6884155273438 155.9004821777344 157.7452545166016 155.9004821777344 C 158.9636535644531 155.9004821777344 161.4203643798828 162.3596343994141 162.6307220458984 162.3596343994141 C 162.6873474121094 162.3596343994141 162.7410736083984 162.3455657958984 162.7919921875 162.3159942626953 L 322.093994140625 70.32799530029297 L 322.093994140625 84.40799713134766 L 322.093994140625 213.2339935302734 C 322.093994140625 214.6139984130859 321.1319885253906 216.2959899902344 319.9320373535156 216.9859924316406 L 97.80199432373047 345.2439880371094 C 97.45655822753906 345.4443054199219 97.12941741943359 345.5392150878906 96.83927917480469 345.5392150878906 Z" stroke="none" fill="#e0e0e0"/></g><path d="M133.639,263.568l29.6-17.092c.8-.46,1.443-.087,1.443.833v49.847a3.189,3.189,0,0,1-1.443,2.5l-29.6,17.092c-.8.46-1.443.087-1.443-.833V266.068A3.19,3.19,0,0,1,133.639,263.568Z" fill="#f0f0f0"/><path d="M139.053,266.694l18.775-10.839c.8-.461,1.443-.134,1.443.73a3.1,3.1,0,0,1-1.443,2.4l-18.776,10.84c-.8.46-1.442.133-1.442-.731A3.094,3.094,0,0,1,139.053,266.694Z" fill="#e0e0e0"/><path d="M137.609,274.78v1.127c0,.552.388.776.866.5l.977-.564a1.913,1.913,0,0,0,.866-1.5v-1.127c0-.553-.387-.776-.866-.5l-.976.563A1.915,1.915,0,0,0,137.609,274.78Z" fill="#3343E0"/><path d="M143.025,272.217c0,.863.646,1.19,1.443.73l13.359-7.713a3.094,3.094,0,0,0,1.443-2.4c0-.863-.646-1.19-1.443-.73l-13.359,7.712A3.1,3.1,0,0,0,143.025,272.217Z" fill="#e0e0e0"/><path d="M137.609,281.039v1.127c0,.552.388.776.866.5l.977-.564a1.912,1.912,0,0,0,.866-1.5v-1.127c0-.552-.387-.776-.866-.5l-.976.563A1.917,1.917,0,0,0,137.609,281.039Z" fill="#3343E0"/><path d="M143.025,278.476c0,.864.646,1.19,1.443.73l13.359-7.713a3.094,3.094,0,0,0,1.443-2.4c0-.863-.646-1.19-1.443-.73l-13.359,7.712A3.1,3.1,0,0,0,143.025,278.476Z" fill="#e0e0e0"/><path d="M137.609,287.288v1.127c0,.552.388.776.866.5l.977-.564a1.914,1.914,0,0,0,.866-1.5v-1.127c0-.552-.387-.776-.866-.5l-.976.564A1.915,1.915,0,0,0,137.609,287.288Z" fill="#3343E0"/><path d="M143.025,284.725c0,.863.646,1.19,1.443.73l13.359-7.713a3.094,3.094,0,0,0,1.443-2.4c0-.863-.646-1.19-1.443-.73l-13.359,7.713A3.094,3.094,0,0,0,143.025,284.725Z" fill="#e0e0e0"/><path d="M137.609,293.534v1.126c0,.553.388.776.866.5l.977-.563a1.915,1.915,0,0,0,.866-1.5V291.97c0-.552-.387-.776-.866-.5l-.976.564A1.914,1.914,0,0,0,137.609,293.534Z" fill="#3343E0"/><path d="M143.025,290.97c0,.864.646,1.191,1.443.731l13.359-7.713a3.094,3.094,0,0,0,1.443-2.4c0-.863-.646-1.19-1.443-.73l-13.359,7.713A3.094,3.094,0,0,0,143.025,290.97Z" fill="#e0e0e0"/><path d="M138.939,301.147l18.774-10.839c.8-.46,1.443-.133,1.443.73a3.1,3.1,0,0,1-1.443,2.4l-18.775,10.839c-.8.46-1.443.133-1.443-.73A3.1,3.1,0,0,1,138.939,301.147Z" fill="#e0e0e0"/><path d="M137.495,309.233v1.127c0,.552.387.776.866.5l.976-.563a1.915,1.915,0,0,0,.866-1.5V307.67c0-.552-.388-.776-.866-.5l-.977.564A1.912,1.912,0,0,0,137.495,309.233Z" fill="#3343E0"/><path d="M142.91,306.67c0,.864.646,1.19,1.443.73l13.359-7.713a3.094,3.094,0,0,0,1.443-2.4c0-.863-.646-1.19-1.443-.73l-13.359,7.713A3.094,3.094,0,0,0,142.91,306.67Z" fill="#e0e0e0"/><path d="M311.942,66.014c1.5-.869,2.724-.165,2.724,1.573a6.023,6.023,0,0,1-2.724,4.718c-1.5.869-2.725.165-2.725-1.573A6.02,6.02,0,0,1,311.942,66.014Z" fill="#fff"/><path d="M302.133,71.669c1.505-.869,2.724-.165,2.724,1.573a6.019,6.019,0,0,1-2.724,4.718c-1.505.869-2.724.165-2.724-1.573A6.019,6.019,0,0,1,302.133,71.669Z" fill="#fff"/><ellipse cx="3.853" cy="2.224" rx="3.853" ry="2.224" transform="translate(288.472 82.694) rotate(-60.001)" fill="#fff"/><path d="M322.094,70.328v14.08L95.641,215.167v-14.08l4.451-2.578c1.191-.69,1.59-1.74,2.161-3.75l1.509-5.243c.476-1.819.97-3.059,2.17-3.75l51.651-29.822c1.2-.69,2.136-.766,3.048.742l1.853,3.361c.679,1.174,1.019,1.864,2.209,1.174Z" fill="#e6e6e6"/><path d="M95.642,201.087v14.08l-4.07-2.35v-14.07Z" fill="#e0e0e0"/><path d="M105.573,202.1l-3.4,1.962,1.3-2.492a.624.624,0,0,0,.026-.609c-.1-.119-.273-.035-.386.182l-1.844,3.547,0,.014a.707.707,0,0,0-.049.131c0,.014-.012.028-.016.043a.771.771,0,0,0-.023.183.479.479,0,0,0,.023.156.212.212,0,0,0,.016.025.2.2,0,0,0,.049.075l0,.007,1.844,1.418a.154.154,0,0,0,.18,0,.549.549,0,0,0,.206-.263c.1-.233.088-.492-.026-.579l-1.3-1,3.4-1.962a.723.723,0,0,0,.273-.579C105.846,202.132,105.724,202.014,105.573,202.1Z" fill="#455a64" opacity="0.5"/><path d="M108.412,200.462l3.4-1.962-1.3-1c-.114-.087-.126-.346-.026-.579s.273-.349.386-.263l1.844,1.418,0,.008a.2.2,0,0,1,.049.074.128.128,0,0,1,.015.025.478.478,0,0,1,.024.156.76.76,0,0,1-.024.183.313.313,0,0,1-.015.043.786.786,0,0,1-.049.131l0,.014-1.844,3.547a.512.512,0,0,1-.18.208.151.151,0,0,1-.206-.026.619.619,0,0,1,.026-.608l1.3-2.493-3.4,1.963c-.151.087-.273-.031-.273-.264A.723.723,0,0,1,108.412,200.462Z" fill="#455a64" opacity="0.5"/><path d="M119.562,190.675c-.021-.205-.2-.179-.29.043l-.466,1.139c-.794-.087-1.756.689-2.4,2.064-.842,1.782-.842,3.891,0,4.7a1.2,1.2,0,0,0,1.526.09,4.165,4.165,0,0,0,1.527-1.853.585.585,0,0,0,0-.595c-.107-.1-.28,0-.387.223-.628,1.329-1.651,1.922-2.28,1.316s-.628-2.179,0-3.51c.447-.947,1.091-1.507,1.653-1.541l-.351.858c-.091.222-.008.43.135.337l1.386-.9a.449.449,0,0,0,.155-.38Z" fill="#455a64" opacity="0.5"/><path d="M156.092,162.371l1.239-2.623a.8.8,0,0,0,0-.817c-.146-.141-.384,0-.53.306l-1.239,2.623-1.239-1.192c-.146-.141-.384,0-.53.306a.8.8,0,0,0,0,.817l1.239,1.192-1.239,2.623a.794.794,0,0,0,0,.816.207.207,0,0,0,.265.016.72.72,0,0,0,.265-.322l1.239-2.623,1.239,1.193a.21.21,0,0,0,.265.016.729.729,0,0,0,.265-.323.794.794,0,0,0,0-.816Z" fill="#455a64" opacity="0.5"/><path d="M124.072,193.9v-4.381a4.784,4.784,0,0,1,2.165-3.75L307.746,81.012c1.2-.69,2.164-.131,2.164,1.25v4.381a4.787,4.787,0,0,1-2.165,3.75L126.237,195.149C125.041,195.84,124.072,195.28,124.072,193.9Z" fill="#fafafa"/><path d="M306.483,83.327l.569,1.208a.136.136,0,0,0,.185.073l1.271-.488c.2-.078.283.207.137.481l-.92,1.727a.572.572,0,0,0-.071.331l.217,1.563c.035.249-.176.575-.357.553l-1.137-.141a.279.279,0,0,0-.229.132L305.01,90.22c-.18.231-.391.149-.357-.139l.217-1.814a.264.264,0,0,0-.07-.25l-.921-.665c-.146-.1-.065-.483.137-.638l1.271-.981a.584.584,0,0,0,.186-.286l.568-1.865C306.132,83.286,306.393,83.135,306.483,83.327Z" fill="none" stroke="#e0e0e0" stroke-miterlimit="10" stroke-width="0.75"/><g opacity="0.5"><path d="M312.463,80.477a.75.75,0,0,1-.375-1.4l6.092-3.518a.75.75,0,1,1,.75,1.3l-6.092,3.518A.751.751,0,0,1,312.463,80.477Z" fill="#455a64"/><path d="M312.463,84a.75.75,0,0,1-.375-1.4l6.092-3.518a.75.75,0,1,1,.75,1.3L312.838,83.9A.752.752,0,0,1,312.463,84Z" fill="#455a64"/><path d="M312.463,87.516a.75.75,0,0,1-.375-1.4L318.18,82.6a.75.75,0,1,1,.75,1.3l-6.092,3.518A.752.752,0,0,1,312.463,87.516Z" fill="#455a64"/></g><path d="M95.642,215.167l-.009,14.061L322.068,98.5l.026-14.087Z" fill="#455a64"/><path d="M121.007,206.2v2.719c0,.556.394.783.875.506L155.9,189.768v-4.74l-34.022,19.657A1.939,1.939,0,0,0,121.007,206.2Z" fill="#fafafa"/><path d="M160.5,182.373c.483-.279.875-.053.875.505v2.72a1.934,1.934,0,0,1-.875,1.515l-4.6,2.655v-4.74Z" fill="#3343E0"/><path d="M160.163,186.1l-.513-.16a2.8,2.8,0,0,0,.082-.66,1.209,1.209,0,0,0-.467-1.1.726.726,0,0,0-.748.037,2.621,2.621,0,0,0-1.025,2.132,1.21,1.21,0,0,0,.468,1.1.646.646,0,0,0,.325.087.837.837,0,0,0,.422-.124,2.155,2.155,0,0,0,.829-1.108l.514.16a.181.181,0,0,0,.056.008.19.19,0,0,0,.057-.372Zm-1.646.983a.352.352,0,0,1-.367.036.891.891,0,0,1-.277-.766,2.287,2.287,0,0,1,.834-1.8.475.475,0,0,1,.231-.073.267.267,0,0,1,.136.037.891.891,0,0,1,.278.766A2.284,2.284,0,0,1,158.517,187.084Z" fill="#fafafa"/><path d="M115.072,208.631l-2.325,1.342a1.915,1.915,0,0,0-.866,1.5v2.69c0,.553.388.777.866.5l2.325-1.342a1.914,1.914,0,0,0,.866-1.5v-2.69C115.938,208.578,115.551,208.355,115.072,208.631Z" fill="#fafafa"/><path d="M195.7,160.933a6.86,6.86,0,0,0-3.1,5.376c0,1.979,1.39,2.781,3.1,1.792a6.856,6.856,0,0,0,3.1-5.376C198.8,160.746,197.412,159.943,195.7,160.933Z" fill="#3343E0"/><path d="M195.337,164.09a.543.543,0,0,1-.275-.072.675.675,0,0,1-.3-.621,1.781,1.781,0,0,1,.817-1.415h0a.612.612,0,0,1,.986.57,1.781,1.781,0,0,1-.817,1.415A.833.833,0,0,1,195.337,164.09Z" fill="#fff"/><path d="M196.925,164.3a1.069,1.069,0,0,0-1.092.084l-.451.259a3.051,3.051,0,0,0-1.4,2.42v.319a1.731,1.731,0,0,0,1.713-.182,4.982,4.982,0,0,0,1.714-1.795v-.077A1.128,1.128,0,0,0,196.925,164.3Z" fill="#fff"/><path d="M202.8,158.526l21.255-12.272c.861-.5,1.559-.12,1.559.842a3.392,3.392,0,0,1-1.558,2.643L202.8,162.01c-.861.5-1.559.12-1.559-.842A3.39,3.39,0,0,1,202.8,158.526Z" fill="#e0e0e0"/><path d="M235.242,139.823l13.184-7.686c.861-.5,1.559-.12,1.559.842a3.393,3.393,0,0,1-1.558,2.643l-13.184,7.685c-.861.5-1.559.12-1.559-.842A3.39,3.39,0,0,1,235.242,139.823Z" fill="#e0e0e0"/><path d="M259.641,125.8l9.1-5.284c.861-.5,1.559-.12,1.56.842A3.391,3.391,0,0,1,268.737,124l-9.1,5.283c-.861.5-1.559.12-1.559-.842A3.39,3.39,0,0,1,259.641,125.8Z" fill="#e0e0e0"/><path d="M229.676,147.53a.375.375,0,0,1-.375-.375v-4.691a.375.375,0,0,1,.75,0v4.691A.376.376,0,0,1,229.676,147.53Z" fill="#263238"/><path d="M254.048,133.459a.374.374,0,0,1-.375-.375v-4.69a.375.375,0,0,1,.75,0v4.69A.376.376,0,0,1,254.048,133.459Z" fill="#263238"/><path d="M274.358,121.733a.374.374,0,0,1-.375-.375v-4.691a.375.375,0,0,1,.75,0v4.691A.375.375,0,0,1,274.358,121.733Z" fill="#263238"/><path d="M282.171,114.5v-.863c0-.984-.6-1.436-1.336-1.01h0a3.2,3.2,0,0,0-1.337,2.554v.77a3.058,3.058,0,0,1-.449,1.506l0,0a.841.841,0,0,0-.109.394h0c0,.248.15.362.336.255l3.122-1.8a.811.811,0,0,0,.336-.644h0a.315.315,0,0,0-.1-.26l-.005,0A.914.914,0,0,1,282.171,114.5Z" fill="#3343E0"/><path d="M281.476,117.1a1.535,1.535,0,0,1-.641,1.225c-.355.2-.642-.012-.642-.485Z" fill="#3343E0"/><path d="M287.88,110.719a.619.619,0,0,1-.311-.081.763.763,0,0,1-.337-.7,2.01,2.01,0,0,1,.922-1.6h0a.691.691,0,0,1,1.113.643,2.013,2.013,0,0,1-.922,1.6A.943.943,0,0,1,287.88,110.719Z" fill="#3343E0"/><path d="M289.673,110.952a1.209,1.209,0,0,0-1.233.095l-.509.292a3.443,3.443,0,0,0-1.576,2.731v.36a1.953,1.953,0,0,0,1.934-.205,5.619,5.619,0,0,0,1.934-2.026v-.087A1.272,1.272,0,0,0,289.673,110.952Z" fill="#3343E0"/><path d="M290.357,108.4a.619.619,0,0,1-.311-.081.763.763,0,0,1-.337-.7,2.013,2.013,0,0,1,.922-1.6h0a.69.69,0,0,1,1.113.643,2.01,2.01,0,0,1-.922,1.6A.934.934,0,0,1,290.357,108.4Z" fill="#3343E0"/><path d="M292.152,108.638a1.22,1.22,0,0,0-1.24.09l-.5.3a3.227,3.227,0,0,0-1.29,1.52,1.14,1.14,0,0,1,1.09-.02,1.267,1.267,0,0,1,.55,1.16v.22a5.549,5.549,0,0,0,1.94-2.02v-.09A1.267,1.267,0,0,0,292.152,108.638Z" fill="#3343E0"/><path d="M298.327,102.237a5.635,5.635,0,0,0-2.543,4.419,1.925,1.925,0,0,0,.57,1.512l-.319,1.507c-.041.193.088.273.21.13l1.144-1.338a2.441,2.441,0,0,0,.938-.328,5.637,5.637,0,0,0,2.543-4.419C300.87,102.09,299.731,101.427,298.327,102.237Z" fill="#3343E0"/><path d="M310.556,95.117a1.556,1.556,0,0,1,.63-.221.842.842,0,0,1,.515.1.857.857,0,0,1,.342.4,1.62,1.62,0,0,1,.126.686,2.567,2.567,0,0,1-.071.621,4.015,4.015,0,0,1-.182.556,4.983,4.983,0,0,1-.242.5c-.087.158-.173.312-.254.464s-.156.3-.221.454a1.862,1.862,0,0,0-.135.45.922.922,0,0,1-.057.208.258.258,0,0,1-.1.133l-.729.421a.087.087,0,0,1-.114-.008.2.2,0,0,1-.048-.147,2.186,2.186,0,0,1,.08-.589,4.332,4.332,0,0,1,.2-.553c.08-.177.167-.349.261-.513s.18-.32.259-.467a4.2,4.2,0,0,0,.2-.424,1.06,1.06,0,0,0,.08-.387c0-.177-.044-.292-.132-.343s-.222-.023-.406.083a1.057,1.057,0,0,0-.385.347,1.562,1.562,0,0,0-.17.369c-.036.12-.067.228-.093.325a.325.325,0,0,1-.152.212l-.73.421a.075.075,0,0,1-.092,0,.16.16,0,0,1-.038-.125,3.1,3.1,0,0,1,.119-.745,4.505,4.505,0,0,1,.325-.841,4.309,4.309,0,0,1,.518-.791A2.563,2.563,0,0,1,310.556,95.117Zm.52,5.981a.454.454,0,0,1-.048.2.3.3,0,0,1-.113.139l-.753.435a.086.086,0,0,1-.113-.009.194.194,0,0,1-.048-.147v-.928a.471.471,0,0,1,.048-.2.308.308,0,0,1,.113-.139l.753-.434a.086.086,0,0,1,.113.007.193.193,0,0,1,.048.147Z" fill="#3343E0"/><path d="M132.192,215.324v41.892c0,1.381.97,1.941,2.165,1.25l149.021-86.057a4.784,4.784,0,0,0,2.165-3.75V126.766c0-1.381-.969-1.94-2.165-1.25L134.357,211.574A4.786,4.786,0,0,0,132.192,215.324Z" fill="#3343E0"/><path d="M132.192,215.324v41.892c0,1.381.97,1.941,2.165,1.25l149.021-86.057a4.784,4.784,0,0,0,2.165-3.75V126.766c0-1.381-.969-1.94-2.165-1.25L134.357,211.574A4.786,4.786,0,0,0,132.192,215.324Z" fill="#fff" opacity="0.7"/><path d="M144.377,221.424c-4.487,2.592-8.125,8.891-8.124,14.073s3.638,7.281,8.125,4.69,8.128-8.891,8.123-14.073S148.859,218.834,144.377,221.424Z" fill="#3343E0"/><path d="M143.428,229.688a1.433,1.433,0,0,1-.72-.188,1.766,1.766,0,0,1-.783-1.626,4.665,4.665,0,0,1,2.139-3.7h0a1.6,1.6,0,0,1,2.582,1.492,4.668,4.668,0,0,1-2.139,3.705A2.188,2.188,0,0,1,143.428,229.688Z" fill="#fff"/><path d="M147.586,230.227a2.807,2.807,0,0,0-2.86.22l-1.18.679a7.987,7.987,0,0,0-3.655,6.334v.835c1.157.643,2.737.533,4.486-.475a13.038,13.038,0,0,0,4.486-4.7v-.2A2.953,2.953,0,0,0,147.586,230.227Z" fill="#fff"/><path d="M158.123,219.715l17.207-9.936c.861-.5,1.559-.184,1.559.7a3.266,3.266,0,0,1-1.559,2.5l-17.208,9.938c-.861.5-1.559.184-1.559-.7A3.27,3.27,0,0,1,158.123,219.715Z" fill="#455a64"/><path d="M157.48,226.367l10.117-5.841c.507-.292.917-.109.917.41a1.918,1.918,0,0,1-.917,1.469l-10.117,5.843c-.506.293-.917.108-.917-.411A1.923,1.923,0,0,1,157.48,226.367Z" fill="#455a64"/><path d="M134.357,258.524l149.021-86.056a4.787,4.787,0,0,0,2.165-3.75v-6.863L132.192,250.392v6.882C132.192,258.655,133.162,259.215,134.357,258.524Z" fill="#f5f5f5"/><path d="M172.811,234.293a.376.376,0,0,1-.375-.375v-4.69a.375.375,0,0,1,.75,0v4.69A.375.375,0,0,1,172.811,234.293Z" fill="#ebebeb"/><path d="M154.638,240.47l13.184-7.686c.861-.5,1.559-.12,1.559.843a3.39,3.39,0,0,1-1.558,2.642l-13.184,7.685c-.861.5-1.559.12-1.559-.842A3.39,3.39,0,0,1,154.638,240.47Z" fill="#e0e0e0"/><path d="M196.62,220.458a.375.375,0,0,1-.375-.375v-4.691a.375.375,0,0,1,.75,0v4.691A.375.375,0,0,1,196.62,220.458Z" fill="#ebebeb"/><path d="M178.447,226.635l13.184-7.686c.861-.5,1.559-.12,1.559.842a3.393,3.393,0,0,1-1.558,2.643l-13.184,7.685c-.861.5-1.559.12-1.559-.842A3.39,3.39,0,0,1,178.447,226.635Z" fill="#e0e0e0"/><path d="M220.429,206.622a.375.375,0,0,1-.375-.375v-4.69a.375.375,0,0,1,.75,0v4.69A.375.375,0,0,1,220.429,206.622Z" fill="#ebebeb"/><path d="M202.256,212.8l13.184-7.686c.861-.5,1.559-.12,1.559.842a3.393,3.393,0,0,1-1.558,2.642l-13.184,7.686c-.861.5-1.559.12-1.559-.842A3.39,3.39,0,0,1,202.256,212.8Z" fill="#e0e0e0"/><path d="M244.238,192.787a.375.375,0,0,1-.375-.375v-4.69a.375.375,0,0,1,.75,0v4.69A.375.375,0,0,1,244.238,192.787Z" fill="#ebebeb"/><path d="M226.065,198.964l13.184-7.686c.861-.5,1.559-.12,1.559.843a3.391,3.391,0,0,1-1.559,2.642l-13.183,7.685c-.861.5-1.559.121-1.559-.842A3.387,3.387,0,0,1,226.065,198.964Z" fill="#e0e0e0"/><path d="M249.874,185.129l13.184-7.686c.86-.5,1.559-.12,1.559.842a3.391,3.391,0,0,1-1.559,2.643l-13.183,7.685c-.861.5-1.559.12-1.559-.842A3.387,3.387,0,0,1,249.874,185.129Z" fill="#e0e0e0"/><path d="M126.957,398.892l13.295-7.659s8.247-24.279,6.159-46.639c-2.6-27.787-15.716-37.553-23.428-34.453s-6.115,14.171,2.054,29.017C131.515,350.931,131.53,378.054,126.957,398.892Z" fill="#3343E0"/><path d="M126.957,398.892l13.295-7.659s8.247-24.279,6.159-46.639c-2.6-27.787-15.716-37.553-23.428-34.453s-6.115,14.171,2.054,29.017C131.515,350.931,131.53,378.054,126.957,398.892Z" opacity="0.1"/><path d="M133.346,395.845a.6.6,0,0,0,.573-.416c8.56-26.21,8.918-63.02-7.28-79.614a.6.6,0,1,0-.863.843c15.291,15.665,15.566,52.161,7,78.4a.6.6,0,0,0,.386.761A.614.614,0,0,0,133.346,395.845Z" fill="#fff"/><path d="M103.077,412.677c-1.375.79-4.213-.938-5.3-1.667a13.136,13.136,0,0,1-4.368-5.015,12.3,12.3,0,0,1-1.094-7.393,29.093,29.093,0,0,1,.935-3.931q.549-1.908,1.1-3.817a9.657,9.657,0,0,0,.559-3.848c-.333-2.61-2.65-4.439-4.756-6.016-2.329-1.743-4.754-4.046-4.741-7.188a11.058,11.058,0,0,1,2.768-6.578c1.5-1.9,3.285-3.584,4.643-5.592a7.717,7.717,0,0,0,1.581-4.883,8.06,8.06,0,0,0-1.063-3.05c-1.11-2.045-2.573-3.919-3.339-6.117s-.656-4.932,1.06-6.5c1.408-1.291,3.5-1.471,5.406-1.345a12.393,12.393,0,0,1,5.028,1.77c4.988,2.773,7.835,8.681,13.129,10.815,2.041.824,4.278,1,6.406,1.566s4.3,1.65,5.284,3.618c1.943,3.881-1.663,8.664-.3,12.783,1.209,3.646,4.751,5.041,6.741,8.327a7.794,7.794,0,0,1,.93,4.772,22.915,22.915,0,0,1-2.012,8.065,57.39,57.39,0,0,1-4.427,7.265C127.165,398.8,103.288,412.556,103.077,412.677Z" fill="#3343E0"/><path d="M117.336,404.975a.537.537,0,0,0,.533-.471c2.57-20.363-7.151-47.83-21.667-61.228a.537.537,0,1,0-.729.79c14.292,13.191,23.86,40.243,21.329,60.3a.538.538,0,0,0,.466.6A.529.529,0,0,0,117.336,404.975Z" fill="#fff"/><path d="M114.853,378.918a.538.538,0,0,0,.323-.968c-8.011-6.01-20.253-4.963-20.77-4.916a.538.538,0,0,0-.486.585.544.544,0,0,0,.585.486c.123-.013,12.349-1.054,20.026,4.7A.538.538,0,0,0,114.853,378.918Z" fill="#fff"/><path d="M113.646,373.924a.538.538,0,0,0,.537-.517c.364-9.329,7.41-14.965,7.482-15.021a.538.538,0,0,0-.664-.847,22.448,22.448,0,0,0-7.893,15.825.538.538,0,0,0,.516.559Z" fill="#fff"/><path d="M245.93,395.738a68.165,68.165,0,0,1-33.324-48.882l-7.089-47.067A68.17,68.17,0,0,0,178,254.665l-9.252-6.676v5.277l5.016,3.62a68.162,68.162,0,0,1,27.5,45.006l7.227,47.393a68.169,68.169,0,0,0,33.3,48.761l4.129,2.383v-4.691Z" fill="#ebebeb"/><g fill="#fafafa" stroke-linecap="round" stroke-linejoin="round"><path d="M 245.9305725097656 395.1603088378906 C 241.6132965087891 392.6432189941406 237.5730895996094 389.6442565917969 233.9180145263672 386.2432250976563 C 230.2376403808594 382.8186950683594 226.9350128173828 378.9751586914063 224.1018829345703 374.8193664550781 C 221.2687377929688 370.6635131835938 218.8977966308594 366.1847534179688 217.054931640625 361.5074157714844 C 215.1895141601563 356.7728576660156 213.8590087890625 351.818359375 213.1004333496094 346.7815246582031 L 206.0114288330078 299.7145080566406 C 203.2775573730469 281.5665283203125 193.1748046875 264.9988403320313 178.2936096191406 254.2595367431641 L 169.6681976318359 248.0356597900391 L 282.456787109375 182.9178009033203 L 291.4453735351563 189.4054107666016 C 295.0999145507813 192.0427856445313 298.5023498535156 195.0577545166016 301.5581665039063 198.3666229248047 C 304.5847473144531 201.6438293457031 307.2973327636719 205.2372283935547 309.6204833984375 209.0469665527344 C 311.9437255859375 212.8567810058594 313.8962097167969 216.9135894775391 315.4237976074219 221.1047821044922 C 316.9661865234375 225.3365936279297 318.0885009765625 229.741943359375 318.7595825195313 234.1984405517578 L 325.8485717773438 281.2655029296875 C 328.9360656738281 301.7647705078125 340.8797912597656 319.5042724609375 358.6723022460938 330.0699157714844 L 245.9305725097656 395.1603088378906 Z" stroke="none"/><path d="M 282.426513671875 183.5126037597656 L 170.5873413085938 248.0823669433594 L 178.5862121582031 253.8540954589844 C 193.5757446289063 264.6716003417969 203.7521057128906 281.3599243164063 206.5058288574219 299.6400451660156 L 213.5948791503906 346.7070922851563 C 214.3478088378906 351.7066650390625 215.6684875488281 356.6245727539063 217.5200805664063 361.3241271972656 C 219.349365234375 365.9668579101563 221.7027893066406 370.4125671386719 224.5150146484375 374.5377197265625 C 227.3272094726563 378.6627807617188 230.6054382324219 382.4779357910156 234.2586059570313 385.877197265625 C 237.8160095214844 389.1873168945313 241.7410278320313 392.1138000488281 245.9324645996094 394.5818481445313 L 357.6878967285156 330.0609130859375 C 340.1703796386719 319.3696594238281 328.4215698242188 301.7060852050781 325.3541259765625 281.3399658203125 L 318.26513671875 234.2728881835938 C 317.5990600585938 229.8493347167969 316.4850463867188 225.4765319824219 314.9540405273438 221.2760009765625 C 313.437744140625 217.1157836914063 311.4996337890625 213.0889282226563 309.193603515625 209.3072814941406 C 306.8875732421875 205.5256958007813 304.195068359375 201.9588623046875 301.1908569335938 198.7058410644531 C 298.1576232910156 195.4214477539063 294.7803344726563 192.4287414550781 291.1527709960938 189.8108520507813 L 282.426513671875 183.5126037597656 M 282.4869995117188 182.322998046875 L 291.7380065917969 189 C 306.6050109863281 199.72900390625 316.5239868164063 215.9940185546875 319.2540283203125 234.1239929199219 L 326.3429870605469 281.1910095214844 C 329.4330139160156 301.7070007324219 341.6990051269531 319.698974609375 359.6669921875 330.072998046875 L 245.9299926757813 395.7379760742188 C 227.9620056152344 385.364990234375 215.6959838867188 367.3729858398438 212.6060180664063 346.8559875488281 L 205.5169982910156 299.7890014648438 C 202.7860107421875 281.6600036621094 192.8679809570313 265.3940124511719 178.0010070800781 254.6649780273438 L 168.7489929199219 247.989013671875 L 282.4869995117188 182.322998046875 Z" stroke="none" fill="#e0e0e0"/></g><path d="M245.93,395.738l113.737-65.666v4.69L245.93,400.429Z" fill="#f5f5f5"/><path d="M190.006,244.457c-3.965,1.688-4.39,5.157-.945,7.749a14.942,14.942,0,0,0,13.421,1.638c3.967-1.687,4.4-5.156.945-7.748A14.951,14.951,0,0,0,190.006,244.457Z" fill="#3343E0"/><path d="M194.3,248.674a5.462,5.462,0,0,1-1.039-.031,4.388,4.388,0,0,1-2.073-.745c-.921-.692-.812-1.589.249-2.04h0a4.97,4.97,0,0,1,4.264.521c.921.693.812,1.589-.248,2.04A3.581,3.581,0,0,1,194.3,248.674Z" fill="#fff"/><path d="M199.929,248.582a6.968,6.968,0,0,0-3.481.359l-1.044.443c-1.809.772-2,2.3-.423,3.487l.555.418a12.75,12.75,0,0,0,5.656-.449c1.713-.663,2.767-1.425,2.922-2.513l-.777-.51A7.289,7.289,0,0,0,199.929,248.582Z" fill="#fff"/><path d="M208.466,237.078l33.4-19.284a4.089,4.089,0,0,1,4.189.216c.1.079.2.16.306.241a1.618,1.618,0,0,1-.236,2.845l-33.37,19.33a3.879,3.879,0,0,1-4.077-.354c-.118-.093-.235-.186-.353-.277A1.507,1.507,0,0,1,208.466,237.078Z" fill="#455a64"/><path d="M215.81,244.858l16.716-9.652a.885.885,0,0,0,.179-1.488l-.3-.29a1.757,1.757,0,0,0-1.983-.232l-16.626,9.723a.894.894,0,0,0-.177,1.5l.21.2A1.763,1.763,0,0,0,215.81,244.858Z" fill="#455a64"/><path d="M204.882,263.186l90.149-52.048a2.782,2.782,0,0,1,3.613.788l.184.27a2.332,2.332,0,0,1-.8,3.346l-90.17,52.089a2.66,2.66,0,0,1-3.513-.855c-.064-.1-.129-.194-.194-.29A2.265,2.265,0,0,1,204.882,263.186Z" opacity="0.2"/><path d="M210.35,272.073l90.221-52.091a2.312,2.312,0,0,1,3.285.984c.047.1.093.2.14.294a2.8,2.8,0,0,1-1.138,3.529l-90.236,52.139a2.209,2.209,0,0,1-3.177-1.036c-.05-.109-.1-.218-.153-.327A2.723,2.723,0,0,1,210.35,272.073Z" opacity="0.2"/><path d="M214.411,281.719l90.295-52.126a1.922,1.922,0,0,1,2.929,1.131l.13.443a3.383,3.383,0,0,1-1.5,3.66L215.947,287a1.823,1.823,0,0,1-2.808-1.165c-.046-.161-.091-.32-.138-.479A3.288,3.288,0,0,1,214.411,281.719Z" opacity="0.2"/><path d="M217.023,292.241l52.482-30.307a1.592,1.592,0,0,1,2.544,1.221l.108.7a3.939,3.939,0,0,1-1.785,3.722l-52.491,30.34a1.585,1.585,0,0,1-2.536-1.22l-.111-.734A3.944,3.944,0,0,1,217.023,292.241Z" opacity="0.2"/><path d="M325.543,320.762l-85.89,49.6a5.54,5.54,0,0,1-7.25-1.557q-8.148-12.481-10.88-31.093l-3.435-22.8a7.9,7.9,0,0,1,3.585-7.444l86.04-49.68c2.392-1.381,4.664-.286,5.075,2.444l3.435,22.806A71.749,71.749,0,0,0,327,314.173,4.542,4.542,0,0,1,325.543,320.762Z" fill="#3343E0"/><path d="M325.543,320.762l-85.89,49.6a5.54,5.54,0,0,1-7.25-1.557q-8.148-12.481-10.88-31.093l-3.435-22.8a7.9,7.9,0,0,1,3.585-7.444l86.04-49.68c2.392-1.381,4.664-.286,5.075,2.444l3.435,22.806A71.749,71.749,0,0,0,327,314.173,4.542,4.542,0,0,1,325.543,320.762Z" fill="#fff" opacity="0.7"/><path d="M239.653,370.362l85.89-49.6A4.542,4.542,0,0,0,327,314.173a66.6,66.6,0,0,1-6.822-13.912l-26.644-7.523L281.7,318.988l12.848,10.335-44.836-23.6-22.937,52.129A62.658,62.658,0,0,0,232.4,368.8,5.54,5.54,0,0,0,239.653,370.362Z" fill="#3343E0"/><path d="M275.671,287.172c3.159-1.824,6.171-.312,6.726,3.377a10.555,10.555,0,0,1-4.714,9.983c-3.16,1.824-6.171.312-6.727-3.378A10.552,10.552,0,0,1,275.671,287.172Z" fill="#3343E0"/><path d="M301.754,350.152a4.556,4.556,0,0,1-.867-.026,3.677,3.677,0,0,1-1.733-.622c-.769-.579-.678-1.328.209-1.7h0a4.158,4.158,0,0,1,3.564.435c.769.579.678,1.328-.208,1.7A2.985,2.985,0,0,1,301.754,350.152Z" fill="#3343E0"/><path d="M306.46,350.075a5.831,5.831,0,0,0-2.909.3l-.872.37c-1.512.645-1.668,1.925-.354,2.914l.464.349a10.636,10.636,0,0,0,4.726-.375c1.432-.554,2.312-1.19,2.442-2.1l-.649-.426A6.1,6.1,0,0,0,306.46,350.075Z" fill="#3343E0"/><path d="M308.105,346.309l-3.213.158-.876.757a.307.307,0,0,0,.011.475l.875.687,3.268-.13Zm-3.431,1.359a.235.235,0,1,1,.235-.235A.235.235,0,0,1,304.674,347.668Z" fill="#3343E0"/><path d="M324.78,340.613c-.039.487-.628.9-.975,1.1a6.259,6.259,0,0,1-2.264.728C320.758,341.553,322.217,339.952,324.78,340.613Z" fill="#3343E0"/><path d="M324.9,337.458c-2.361-1.947-6.06-2.67-8.667-1.178s-3.108,4.637-.72,6.593,6.665,1.987,9.244.486S327.265,339.4,324.9,337.458Zm-3.958-.415a1.187,1.187,0,0,1,1.338.208.6.6,0,0,1-.117,1.012,1.228,1.228,0,0,1-1.392-.155A.652.652,0,0,1,320.947,337.043Zm-4.741,3.635a.652.652,0,0,1,.171-1.065,1.184,1.184,0,0,1,1.338.208.6.6,0,0,1-.118,1.011A1.226,1.226,0,0,1,316.206,340.678Zm7.847,1.462a7.385,7.385,0,0,1-3.605.87,7.255,7.255,0,0,1-3.153-.667l6.712-3.8a2.792,2.792,0,0,1,1.265,2.108A2.172,2.172,0,0,1,324.053,342.14Z" fill="#3343E0"/><path d="M339.006,328.674a3.98,3.98,0,0,0-.886-1,5.629,5.629,0,0,0-6.058-.823,2.7,2.7,0,0,0-.5,4.608,5.782,5.782,0,0,0,.669.441l.028.015c2.984,1.708,8.454,1.923,8.454,1.923A9.556,9.556,0,0,0,339.006,328.674Zm-2.6,1.885a2.975,2.975,0,0,1-3.091-.162,1.291,1.291,0,0,1,.241-2.2,2.693,2.693,0,0,1,2.9.393C337.242,329.237,337.267,330.057,336.4,330.559Z" fill="#3343E0"/><path d="M447.651,339.229l-12.862,37.528a1.207,1.207,0,0,1-2.286-.008l-12.695-37.827Z" fill="#ffa8a7"/><path d="M432.5,376.75a1.207,1.207,0,0,0,2.286.007l2.511-7.327h0a6.683,6.683,0,0,1-6.952-.386l-.56-.386Z" fill="#263238"/><path d="M420.294,171.575l-.008,3.672-.029,4.431L419.8,338.92c2.941,3.364,7.3,5.072,11.724,5.517,6.733.7,13.637-1.506,16.1-5.21l.448-159.145.023-8.47C447.785,177.1,420.049,177.079,420.294,171.575Z" fill="#3343E0"/><path d="M420.21,185.554l-.008,8.2c-.082,2.377,4.981,3.911,10.827,4.449,7.762.735,16.9-1.368,17.014-4.517l.017-6.044-.032-2.161c-.113,3.149-9.253,5.258-17.015,4.524-5.6-.523-10.5-1.978-10.781-4.2v-.024A.5.5,0,0,1,420.21,185.554Z" fill="#ebebeb"/><path d="M420.226,187.6c-.2,5.52,27.623,5.451,27.823-.069l.035-8.208c-.2,5.519-28.019,5.589-27.819.069Z" fill="#3343E0"/><path d="M420.294,171.575l-.037,8.1c-.235,5.418,26.612,5.577,27.824.4a1.1,1.1,0,0,0,.05-.308l-.027-8.162C447.785,177.1,420.049,177.079,420.294,171.575Z" fill="#ebebeb"/><path d="M448.235,136.855v-.343c0-3.954-6.228-7.159-13.91-7.159s-13.909,3.205-13.909,7.159v3.727l-.122,31.336c-.107,2.354,4.9,3.9,10.693,4.467,7.763.759,16.942-1.29,17.117-4.43.012-.012.012-.012.011-.037l.122-34.495C448.237,137.029,448.235,136.881,448.235,136.855Z" fill="#f28f8f"/><ellipse cx="13.909" cy="7.159" rx="13.909" ry="7.159" transform="translate(420.416 129.353)" fill="#fff" opacity="0.2"/><path d="M448.081,180.082l.154-43.227c-.189,3.387-5.954,6.588-12.252,6.816l-.449,200.9-.745,32.191,12.862-37.528h-.018Z" opacity="0.1"/><path d="M403.091,213.559c5.286-.768,11.812,3.21,16.352,9.591S439.8,245.06,441.536,250c1.263,3.6.522,10.368-6.927,7.2-7.214-3.073-30.2-25.625-30.2-25.625Z" fill="#b16668"/><path d="M400.561,213.559a26.136,26.136,0,0,1,5.179-.578c1.827.123,5.939,1.208,10.167,5.327s15.21,17.434,15.21,17.434.49,3.733-3.189,7.9-7.114,4.171-7.114,4.171l-16.314-13.5Z" fill="#37474f"/><path d="M436.395,242.675l11.557-16.84.035-12.371s2.562.857,3.579,4.844,2.289,8.627,1.781,12.03-8.541,23.949-12.863,26.857S436.395,242.675,436.395,242.675Z" fill="#b16668"/><path d="M384.2,207.973l2.256,14.233,14.11-.753-2.024-16.542Z" fill="#b16668"/><path d="M374.7,190.509s-3.363,5.1-2.98,5.6,2.858.954,2.858.954Z" fill="#9a4a4d"/><path d="M384.044,176.39c-6.807,1.436-8.772,4.428-9.413,15.241-.67,11.3.483,14.849,1.967,16.371,1,1.026,6.57,1.212,9.379.437,3.516-.969,11.46-3.784,15.181-9.467,4.377-6.687,5.527-15.749.841-19.466C395.4,174.274,386.814,175.806,384.044,176.39Z" fill="#b16668"/><path d="M384.319,208.754a28.2,28.2,0,0,0,3.585-.9,6.33,6.33,0,0,1-3.416,1.969Z" fill="#9a4a4d"/><path d="M374.2,179.819a12.691,12.691,0,0,0,2.962,1.211c1.66.48,1.409,1.1,1.641,2.622a6.142,6.142,0,0,0,1.872,3.591c.644.585,1.128.639,1.344,1.54a12.927,12.927,0,0,1,.039,2.83c.021,1.875,1.218,3.3,1.8.788,0,0,1.076-4.177,4.6-3.652,3.543.529,3.83,4.492,2.151,7.605-1.021,1.894-3.755,1.4-3.755,1.4a12.281,12.281,0,0,0,3.675,9.469s3.505,2.6,8.957-.1a71.794,71.794,0,0,0,6.256-9.511c2.442-4.246,4.546-9.461,3.716-14.456a9.257,9.257,0,0,0-2.368-4.956,3.4,3.4,0,0,1-1.135-2.5,4.812,4.812,0,0,0-6.663-3.543,4.122,4.122,0,0,0-3.158-3.7,7.578,7.578,0,0,0-5.072.7,5.592,5.592,0,0,0-9.4-.588,2.987,2.987,0,0,0-2.356-1.361,7.112,7.112,0,0,0-2.776.441,10.546,10.546,0,0,0-2.157.916,6.894,6.894,0,0,0-3.072,7.457A6,6,0,0,0,374.2,179.819Z" fill="#263238"/><path d="M406.067,178.692l4.073-2.4a2.364,2.364,0,0,0-4.073,2.4Z" fill="#263238"/><path d="M409.869,390.08l.09.915a16.743,16.743,0,0,1,.092,3.627,3.223,3.223,0,0,1-1.118,2.426,10,10,0,0,1-2.657,1.04,9.288,9.288,0,0,1-6.162-.6c-1.6-.777-2.851-1.993-4.586-2.478a34.58,34.58,0,0,0-5.438-.9,12.121,12.121,0,0,1-2.4-.441,11.053,11.053,0,0,1-1.731-.778,17.043,17.043,0,0,1-5.138-3.749,8.109,8.109,0,0,1-1.837-3.666c-.157-.8-.483-3.114.853-3.054,6.547.294,13.029,1.7,19.583,1.62a7.3,7.3,0,0,1,1.272.053,5.326,5.326,0,0,1,2.2,1.028,2.289,2.289,0,0,0,2.009.492,9.914,9.914,0,0,1,3.4.05,1.609,1.609,0,0,1,1.171.792,1.774,1.774,0,0,1,.1.5Q409.715,388.516,409.869,390.08Z" fill="#263238"/><path d="M409.2,382.236l-.338,4.936c-.319,1.879-6.722,3.029-8.041-.3l-.627-5.6Z" fill="#b16668"/><path d="M384.831,401.756a49.374,49.374,0,0,1,1.186,4.807c.321,1.78.77,4.754.12,6.073s-3.091,2.124-6.843,2.011c-2.43-.073-6.255,1.492-8.881,2.881-2.712,1.434-8.3,1.9-11.122,1.507-3.33-.467-6.745-2.481-7.254-3.876s.241-2.814,8.185-5.99c.073-.029,11.018-3.318,14.92-7.433Z" fill="#263238"/><path d="M384.9,398.587s-.06,2.175-.077,3.418-1.527,3.063-5.324,2.842c-2.667-.156-4.514-.916-4.359-3.111l.072-3.169Z" fill="#b16668"/><path d="M411.781,344.334c-1.126-9.608-1.969-15.113-1.969-15.113s.194-13.378.978-25.854c.846-13.475.656-30.443.989-33.8,0,0-43.293-9.247-43.644,6.364-.408,18.141.8,55.671,1.056,60.557.36,6.861.376,13.995,1.541,25.129,1.149,10.989,4.482,36.952,4.482,36.952a10.279,10.279,0,0,0,9.688.02s3.766-31.108,3.622-39.018a108.277,108.277,0,0,0-1.643-17.1l3.411-35.213s1.338,10.887,1.7,17.748,1.3,11.049,3,23.816c1.471,11.076,5.2,34.454,5.2,34.454a8.758,8.758,0,0,0,9.206-.368S412.907,353.941,411.781,344.334Z" fill="#3343E0"/><path d="M411.781,344.334c-1.126-9.608-1.969-15.113-1.969-15.113s.194-13.378.978-25.854c.846-13.475.656-30.443.989-33.8,0,0-43.293-9.247-43.644,6.364-.408,18.141.8,55.671,1.056,60.557.36,6.861.376,13.995,1.541,25.129,1.149,10.989,4.482,36.952,4.482,36.952a10.279,10.279,0,0,0,9.688.02s3.766-31.108,3.622-39.018a108.277,108.277,0,0,0-1.643-17.1l3.411-35.213s1.338,10.887,1.7,17.748,1.3,11.049,3,23.816c1.471,11.076,5.2,34.454,5.2,34.454a8.758,8.758,0,0,0,9.206-.368S412.907,353.941,411.781,344.334Z" opacity="0.3"/><path d="M406.758,290.877s-3,4.948-12.1,8.576l-2.532,8.5-.277,14.938c-.347-4.814-.878-10.073-1.556-15.64l1.026-8.759S401.368,295.45,406.758,290.877Z" opacity="0.15"/><path d="M413.446,222.769c-1.738-6.188-5.824-8.922-10.355-9.21-1.154-.074-3.493.026-3.493.026.321,2.621-7.757,4.47-14.04,2.991-1.893.5-5.029,1.208-6.606,1.732-4.515,1.5-9.93,7.145-10.633,21.872,0,0-.717,31.655-.495,40.85,11.149,4.7,21.911,5.292,28.409,4.025,13.528-2.638,15.751-8.434,15.751-8.434s-.128-8.046-.632-20.872C413.647,237.507,414.2,225.451,413.446,222.769Z" fill="#455a64"/><path d="M360.7,275.231a8.407,8.407,0,0,1,3.952,7.043c.186,2.873.183,6,1.533,8.6.223.43,1.4,1.4,1.864,1.264l.011-3.679c.748-.951,2.795-2.725,3.326-3.812.886-1.815-.149-4.038.385-5.987a9.184,9.184,0,0,0,.678-2.422A6.755,6.755,0,0,0,370.2,270.7a76.886,76.886,0,0,1-5.55-5.406c-2.318-2.333-5.538-5.762-7.858-8.1l15.572-14.935a22.672,22.672,0,0,0,4.44-5.909c2.543-4.9,6.033-13.487,2.148-18.043-5.551,0-8.706.85-14.372,7.461-4.889,5.7-20.5,24.4-22.511,27.576s-3.159,5.336.691,8.857a115.764,115.764,0,0,0,9.821,7.5C355.2,271.589,358.069,273.363,360.7,275.231Z" fill="#b16668"/><path d="M356.792,257.2a17.6,17.6,0,0,1-4.775,3.271,14.248,14.248,0,0,0,5.854-2.175Z" fill="#9a4a4d"/><path d="M380.689,217.8a27.224,27.224,0,0,0-6.721.5c-3.369.731-5.634,2.445-11.48,9.048s-9.938,12.021-9.938,12.021-1.684,3.727,3.008,7.939,8.9,3.489,8.9,3.489l13.116-12.754S386.928,228.241,380.689,217.8Z" fill="#37474f"/></g></svg>