<svg xmlns="http://www.w3.org/2000/svg" width="663.241" height="411.786" viewBox="0 0 663.241 411.786">
  <g id="Newsletter" transform="translate(-47.105 -41.758)">
    <g id="Background_Complete" data-name="Background Complete">
      <g id="Group_264" data-name="Group 264">
        <g id="Group_243" data-name="Group 243">
          <g id="Group_242" data-name="Group 242">
            <g id="Group_241" data-name="Group 241">
              <path id="Path_1414" data-name="Path 1414" d="M159.652,449.98c27.849-18.589,34.648-53.759,34.053-85.473-.1-5.295.574-10.865-1.9-15.545s-8.379-7.941-13.214-5.784c-4.01,1.789-5.817,6.335-8.1,10.082a31.217,31.217,0,0,1-12.757,11.666c-3.442,1.7-7.681,2.7-11.024.817-4.586-2.587-5.032-8.9-4.917-14.164q.323-14.709.644-29.42c.115-5.262.216-10.634-1.366-15.655s-5.172-9.713-10.223-11.192-11.37,1.316-12.52,6.45c-.48,2.138-.071,4.369-.253,6.551s-1.252,4.584-3.364,5.163c-2.136.584-4.247-.941-5.818-2.5-5.421-5.4-9.049-12.3-12.433-19.157s-6.664-13.877-11.567-19.747S73.145,261.5,65.516,260.96s-15.838,3.991-17.884,11.361c-2.05,7.389,2.22,14.982,6.9,21.059a118.241,118.241,0,0,0,24.418,23.684c1.663,1.2,3.465,2.5,4.078,4.461,1.1,3.524-2.32,6.961-5.847,8.062-4,1.246-8.3.774-12.466,1.2s-8.7,2.162-10.333,6.017c-2.266,5.348,2.2,11.053,6.632,14.813a102.22,102.22,0,0,0,29.909,17.641c3.9,1.477,8.008,2.78,11.129,5.547s4.956,7.526,2.989,11.2-6.894,4.8-10.991,3.982-7.74-3.069-11.633-4.586c-7.286-2.839-16.756-2.481-21.547,3.7-3.149,4.062-3.509,9.779-2.025,14.7s4.581,9.185,7.88,13.126c11.533,13.775,26.4,24.947,43.306,31.018s32.635,7.881,49.623,2.037" fill="#ebebeb"/>
            </g>
          </g>
        </g>
        <g id="Group_247" data-name="Group 247">
          <g id="Group_246" data-name="Group 246">
            <g id="Group_245" data-name="Group 245">
              <g id="Group_244" data-name="Group 244">
                <path id="Path_1415" data-name="Path 1415" d="M151.589,430.007c-4.482-16.063-10.873-33.268-18.18-51.042l-5.462-13.138c-1.8-4.311-3.586-8.58-5.6-12.651a235.028,235.028,0,0,0-12.9-22.744c-4.458-7.04-8.948-13.559-13.191-19.629S87.934,299.168,84,294.243a188.821,188.821,0,0,0-20.285-21.862c-2.592-2.388-4.66-4.177-6.078-5.374l-1.619-1.35c-.368-.3-.57-.439-.57-.439s.166.179.516.5c.379.339.9.808,1.569,1.408,1.381,1.236,3.417,3.06,5.971,5.48a197.406,197.406,0,0,1,20.055,21.984c3.9,4.936,7.937,10.521,12.166,16.59s8.679,12.607,13.111,19.643a236.439,236.439,0,0,1,12.816,22.693c1.994,4.055,3.764,8.3,5.566,12.615s3.614,8.7,5.456,13.135c7.3,17.762,13.7,34.926,18.21,50.939" fill="#e0e0e0"/>
              </g>
            </g>
          </g>
        </g>
        <g id="Group_251" data-name="Group 251">
          <g id="Group_250" data-name="Group 250">
            <g id="Group_249" data-name="Group 249">
              <g id="Group_248" data-name="Group 248">
                <path id="Path_1416" data-name="Path 1416" d="M122.154,353.094a12.7,12.7,0,0,0,.521-2.243c.29-1.452.649-3.565,1.056-6.179.82-5.231,1.713-12.49,2.679-20.5s1.983-15.239,2.914-20.438c.457-2.6.854-4.7,1.149-6.152a12.763,12.763,0,0,0,.367-2.272,12.8,12.8,0,0,0-.669,2.2c-.389,1.43-.87,3.521-1.4,6.116-1.077,5.187-2.185,12.428-3.152,20.446-.946,7.939-1.8,15.124-2.445,20.516-.325,2.51-.6,4.6-.806,6.21A12.747,12.747,0,0,0,122.154,353.094Z" fill="#e0e0e0"/>
              </g>
            </g>
          </g>
        </g>
        <g id="Group_255" data-name="Group 255">
          <g id="Group_254" data-name="Group 254">
            <g id="Group_253" data-name="Group 253">
              <g id="Group_252" data-name="Group 252">
                <path id="Path_1417" data-name="Path 1417" d="M53.8,339.426a2.419,2.419,0,0,0,.7.125l2.027.2c1.759.169,4.3.407,7.438.806,6.27.744,14.9,2.089,24.346,3.991,9.448,1.922,17.921,4.028,24,5.738,3.047.833,5.494,1.575,7.187,2.081l1.954.575a2.361,2.361,0,0,0,.7.148,2.5,2.5,0,0,0-.648-.3c-.524-.2-1.153-.432-1.909-.715-1.665-.6-4.092-1.424-7.126-2.329-6.055-1.85-14.532-4.05-24-5.975C79,341.865,70.331,340.606,64.025,340c-3.148-.327-5.708-.482-7.476-.555l-2.039-.056A2.44,2.44,0,0,0,53.8,339.426Z" fill="#e0e0e0"/>
              </g>
            </g>
          </g>
        </g>
        <g id="Group_259" data-name="Group 259">
          <g id="Group_258" data-name="Group 258">
            <g id="Group_257" data-name="Group 257">
              <g id="Group_256" data-name="Group 256">
                <path id="Path_1418" data-name="Path 1418" d="M150.847,428.726a4.208,4.208,0,0,0,.465-.826l1.2-2.437c1.032-2.119,2.449-5.222,4.152-9.076,3.412-7.708,7.8-18.5,12.486-30.463s8.989-22.779,12.266-30.535c1.624-3.8,2.952-6.911,3.916-9.171.434-1.021.784-1.848,1.059-2.5a4.248,4.248,0,0,0,.321-.894,4.193,4.193,0,0,0-.466.826l-1.2,2.437c-1.032,2.119-2.448,5.222-4.15,9.076-3.414,7.707-7.8,18.5-12.49,30.467s-8.987,22.774-12.264,30.531c-1.624,3.8-2.952,6.911-3.916,9.171-.434,1.02-.784,1.848-1.059,2.5A4.232,4.232,0,0,0,150.847,428.726Z" fill="#e0e0e0"/>
              </g>
            </g>
          </g>
        </g>
        <g id="Group_263" data-name="Group 263">
          <g id="Group_262" data-name="Group 262">
            <g id="Group_261" data-name="Group 261">
              <g id="Group_260" data-name="Group 260">
                <path id="Path_1419" data-name="Path 1419" d="M60.2,398.39a4.715,4.715,0,0,0,.9.364l2.638.9,9.717,3.238c8.2,2.744,19.481,6.672,31.933,11.043s23.775,8.221,32.025,10.829c4.126,1.307,7.472,2.332,9.8,3l2.682.756a4.494,4.494,0,0,0,.951.211,4.51,4.51,0,0,0-.9-.365l-2.637-.9c-2.389-.8-5.684-1.894-9.716-3.237-8.2-2.744-19.481-6.675-31.938-11.046s-23.771-8.219-32.02-10.827c-4.126-1.306-7.473-2.333-9.8-3L61.15,398.6A4.345,4.345,0,0,0,60.2,398.39Z" fill="#e0e0e0"/>
              </g>
            </g>
          </g>
        </g>
      </g>
      <g id="Group_273" data-name="Group 273">
        <g id="Group_265" data-name="Group 265">
          <rect id="Rectangle_36" data-name="Rectangle 36" width="88.557" height="131.384" transform="translate(555.667 328.59) rotate(-68.535)" fill="#ebebeb"/>
        </g>
        <g id="Group_268" data-name="Group 268">
          <g id="Group_267" data-name="Group 267">
            <g id="Group_266" data-name="Group 266">
              <path id="Path_1420" data-name="Path 1420" d="M710.345,295.4a9.119,9.119,0,0,1-1.569.649l-4.578,1.645-16.919,5.843-56.1,18.9-.462.156-.244-.424c-.186-.323-.387-.674-.589-1.024l-29.782-52.081-8.907-15.85c-.984-1.8-1.772-3.246-2.369-4.34a9.3,9.3,0,0,1-.755-1.553,9.478,9.478,0,0,1,.964,1.434c.645,1.065,1.5,2.47,2.563,4.227,2.246,3.81,5.385,9.132,9.235,15.661l30.084,51.906.59,1.025-.7-.268,56.208-18.565,17.039-5.485,4.647-1.434A9.123,9.123,0,0,1,710.345,295.4Z" fill="#e0e0e0"/>
            </g>
          </g>
        </g>
        <g id="Group_270" data-name="Group 270">
          <g id="Group_269" data-name="Group 269">
            <path id="Path_1421" data-name="Path 1421" d="M555.668,329.735c-.157-.29,13.48-7.972,30.455-17.156s30.869-16.4,31.025-16.108-13.477,7.97-30.457,17.157S555.825,330.024,555.668,329.735Z" fill="#e0e0e0"/>
          </g>
        </g>
        <g id="Group_272" data-name="Group 272">
          <g id="Group_271" data-name="Group 271">
            <path id="Path_1422" data-name="Path 1422" d="M658.2,311.422c.315-.094,4.991,14.693,10.442,33.024s9.616,33.273,9.3,33.367-4.991-14.69-10.443-33.027S657.881,311.516,658.2,311.422Z" fill="#e0e0e0"/>
          </g>
        </g>
      </g>
      <g id="Group_282" data-name="Group 282">
        <g id="Group_274" data-name="Group 274">
          <rect id="Rectangle_37" data-name="Rectangle 37" width="78.591" height="52.973" transform="translate(606.953 170.934) rotate(-23.535)" fill="#ebebeb"/>
        </g>
        <g id="Group_277" data-name="Group 277">
          <g id="Group_276" data-name="Group 276">
            <g id="Group_275" data-name="Group 275">
              <path id="Path_1423" data-name="Path 1423" d="M679.491,140.036a5.449,5.449,0,0,1-.39.939c-.312.664-.725,1.538-1.24,2.631l-4.685,9.629c-4.05,8.165-9.593,19.342-15.732,31.721l-.13.262-.282-.077-.683-.183-34.626-9.432-10.471-2.937-2.838-.833a5.69,5.69,0,0,1-.977-.338,5.528,5.528,0,0,1,1.015.2l2.872.7,10.53,2.718,34.68,9.23.683.184-.412.184c6.214-12.342,11.824-23.486,15.923-31.626,2.038-3.974,3.7-7.21,4.886-9.528l1.36-2.572A5.548,5.548,0,0,1,679.491,140.036Z" fill="#e0e0e0"/>
            </g>
          </g>
        </g>
        <g id="Group_279" data-name="Group 279">
          <g id="Group_278" data-name="Group 278">
            <path id="Path_1424" data-name="Path 1424" d="M628.59,219.984c-.189-.056,2.33-9.073,5.625-20.138s6.121-19.992,6.31-19.936-2.33,9.072-5.626,20.14S628.778,220.041,628.59,219.984Z" fill="#e0e0e0"/>
          </g>
        </g>
        <g id="Group_281" data-name="Group 281">
          <g id="Group_280" data-name="Group 280">
            <path id="Path_1425" data-name="Path 1425" d="M664.211,168.872c.094-.174,8.326,4.1,18.385,9.551s18.141,10.007,18.047,10.18-8.324-4.1-18.387-9.552S664.117,169.045,664.211,168.872Z" fill="#e0e0e0"/>
          </g>
        </g>
      </g>
    </g>
    <g id="Floor">
      <g id="Group_285" data-name="Group 285">
        <g id="Group_284" data-name="Group 284">
          <g id="Group_283" data-name="Group 283">
            <path id="Path_1426" data-name="Path 1426" d="M697.881,450.427c0,.143-144.57.26-322.866.26-178.357,0-322.9-.117-322.9-.26s144.539-.261,322.9-.261C553.311,450.166,697.881,450.283,697.881,450.427Z" fill="#263238"/>
          </g>
        </g>
      </g>
    </g>
    <g id="Device">
      <g id="Group_325" data-name="Group 325">
        <g id="Group_298" data-name="Group 298">
          <g id="Group_288" data-name="Group 288">
            <g id="Group_287" data-name="Group 287">
              <g id="Group_286" data-name="Group 286">
                <rect id="Rectangle_38" data-name="Rectangle 38" width="442.587" height="292.679" rx="14.567" transform="translate(153.753 153.786)" fill="#263238"/>
              </g>
            </g>
          </g>
          <g id="Group_291" data-name="Group 291">
            <g id="Group_290" data-name="Group 290">
              <g id="Group_289" data-name="Group 289">
                <path id="Rectangle_39" data-name="Rectangle 39" d="M0,0H479.51a0,0,0,0,1,0,0V7.812a17.8,17.8,0,0,1-17.8,17.8H17.8A17.8,17.8,0,0,1,0,7.812V0A0,0,0,0,1,0,0Z" transform="translate(135.245 424.818)" fill="#263238"/>
              </g>
            </g>
          </g>
          <g id="Group_294" data-name="Group 294">
            <g id="Group_293" data-name="Group 293">
              <g id="Group_292" data-name="Group 292">
                <rect id="Rectangle_40" data-name="Rectangle 40" width="417.589" height="247.163" transform="translate(165.634 165.414)" fill="#455a64"/>
              </g>
            </g>
          </g>
          <g id="Group_297" data-name="Group 297">
            <g id="Group_296" data-name="Group 296">
              <g id="Group_295" data-name="Group 295">
                <path id="Path_1427" data-name="Path 1427" d="M331.417,424.818l5.95,9.465H421.1l5.525-9.465Z" fill="#455a64"/>
              </g>
            </g>
          </g>
        </g>
        <g id="Group_321" data-name="Group 321">
          <g id="Group_320" data-name="Group 320">
            <g id="Group_319" data-name="Group 319">
              <g id="Group_302" data-name="Group 302">
                <g id="Group_301" data-name="Group 301">
                  <g id="Group_300" data-name="Group 300">
                    <g id="Group_299" data-name="Group 299">
                      <path id="Rectangle_41" data-name="Rectangle 41" d="M3.272,0h394.7a3.273,3.273,0,0,1,3.273,3.273V234.731A3.273,3.273,0,0,1,397.973,238H3.272A3.272,3.272,0,0,1,0,234.732V3.272A3.272,3.272,0,0,1,3.272,0Z" transform="translate(174.235 173.781)" fill="#ebebeb"/>
                    </g>
                  </g>
                </g>
              </g>
              <g id="Group_306" data-name="Group 306">
                <g id="Group_305" data-name="Group 305">
                  <g id="Group_304" data-name="Group 304">
                    <g id="Group_303" data-name="Group 303">
                      <rect id="Rectangle_42" data-name="Rectangle 42" width="401.246" height="220.566" transform="translate(174.235 191.22)" fill="#ebebeb"/>
                    </g>
                  </g>
                </g>
              </g>
              <g id="Group_310" data-name="Group 310">
                <g id="Group_309" data-name="Group 309">
                  <g id="Group_308" data-name="Group 308">
                    <g id="Group_307" data-name="Group 307">
                      <path id="Path_1428" data-name="Path 1428" d="M207.143,182.973a3.2,3.2,0,1,1-3.205-3.2A3.2,3.2,0,0,1,207.143,182.973Z" fill="#455a64"/>
                    </g>
                  </g>
                </g>
              </g>
              <g id="Group_314" data-name="Group 314">
                <g id="Group_313" data-name="Group 313">
                  <g id="Group_312" data-name="Group 312">
                    <g id="Group_311" data-name="Group 311">
                      <path id="Path_1429" data-name="Path 1429" d="M187.722,182.973a3.205,3.205,0,1,1-3.205-3.2A3.2,3.2,0,0,1,187.722,182.973Z" fill="#455a64"/>
                    </g>
                  </g>
                </g>
              </g>
              <g id="Group_318" data-name="Group 318">
                <g id="Group_317" data-name="Group 317">
                  <g id="Group_316" data-name="Group 316">
                    <g id="Group_315" data-name="Group 315">
                      <path id="Path_1430" data-name="Path 1430" d="M197.044,182.973a3.2,3.2,0,1,1-3.205-3.2A3.2,3.2,0,0,1,197.044,182.973Z" fill="#455a64"/>
                    </g>
                  </g>
                </g>
              </g>
            </g>
          </g>
        </g>
        <g id="Group_324" data-name="Group 324">
          <g id="Group_323" data-name="Group 323">
            <g id="Group_322" data-name="Group 322">
              <path id="Path_1431" data-name="Path 1431" d="M592.538,424.818c0,.158-98.234.286-219.382.286-121.191,0-219.4-.128-219.4-.286s98.212-.287,219.4-.287C494.3,424.531,592.538,424.659,592.538,424.818Z" fill="#455a64"/>
            </g>
          </g>
        </g>
      </g>
    </g>
    <g id="Paper_Plane" data-name="Paper Plane">
      <g id="Group_337" data-name="Group 337">
        <g id="Group_328" data-name="Group 328">
          <g id="Group_327" data-name="Group 327">
            <g id="Group_326" data-name="Group 326">
              <path id="Path_1432" data-name="Path 1432" d="M153.661,428.04a2.129,2.129,0,0,1-.339-.2l-.978-.65-1.6-1.086c-.634-.435-1.387-.919-2.167-1.567l-2.667-2.107c-.974-.786-1.955-1.744-3.063-2.728a74.19,74.19,0,0,1-6.97-7.5,77.981,77.981,0,0,1-13.167-24.658,97.124,97.124,0,0,1-4.149-36.773,105.5,105.5,0,0,1,3.734-21.294,86.184,86.184,0,0,1,9.236-21.536c1.048-1.743,2.231-3.425,3.459-5.088l3.918-4.86c1.393-1.567,2.844-3.105,4.281-4.677,1.47-1.54,3.06-2.983,4.6-4.5a153.958,153.958,0,0,1,21.13-16.171c15.315-9.908,32.63-18.107,50.453-26.647,17.767-8.7,36.492-17.05,55.691-25.492,76.894-33.676,147.267-62.365,198.53-82.283,25.615-10,46.524-17.629,60.985-22.857,7.245-2.577,12.9-4.5,16.723-5.822l4.36-1.483,1.115-.365a2.357,2.357,0,0,1,.381-.107,2.061,2.061,0,0,1-.364.157l-1.1.416-4.325,1.58-16.654,6c-14.416,5.345-35.28,13.072-60.856,23.162C422.679,159,352.36,187.8,275.485,221.463c-19.2,8.444-37.9,16.77-55.669,25.459-17.835,8.529-35.118,16.694-50.375,26.533a153.425,153.425,0,0,0-21.028,16.037c-1.533,1.5-3.115,2.928-4.576,4.452-1.427,1.557-2.87,3.079-4.254,4.63l-3.895,4.808c-1.215,1.641-2.383,3.292-3.423,5.012a85.546,85.546,0,0,0-9.2,21.3,105,105,0,0,0-3.772,21.128,96.839,96.839,0,0,0,3.969,36.541,78.148,78.148,0,0,0,12.929,24.584,75.478,75.478,0,0,0,6.865,7.522c1.093.993,2.059,1.96,3.019,2.755l2.627,2.14c.768.659,1.508,1.156,2.131,1.6L152.4,427.1l.947.693A2.357,2.357,0,0,1,153.661,428.04Z" fill="#263238"/>
            </g>
          </g>
        </g>
        <g id="Group_336" data-name="Group 336">
          <g id="Group_333" data-name="Group 333">
            <g id="Group_330" data-name="Group 330">
              <g id="Group_329" data-name="Group 329">
                <path id="Path_1433" data-name="Path 1433" d="M540.353,74.661l18.514,15.352-1.708,17.581,15.169-8.434,16.158,11.478L648.713,71.96Z" fill="#3343E0"/>
              </g>
            </g>
            <g id="Group_332" data-name="Group 332" opacity="0.5">
              <g id="Group_331" data-name="Group 331">
                <path id="Path_1434" data-name="Path 1434" d="M558.868,90.012,647.08,72,567.85,95.979l-10.691,11.615h0Z"/>
              </g>
            </g>
          </g>
          <g id="Group_335" data-name="Group 335" opacity="0.8">
            <g id="Group_334" data-name="Group 334">
              <path id="Path_1435" data-name="Path 1435" d="M567.85,95.979l4.478,3.181-15.169,8.434Z"/>
            </g>
          </g>
        </g>
      </g>
    </g>
    <g id="Letters">
      <g id="Group_344" data-name="Group 344">
        <g id="Group_341" data-name="Group 341">
          <g id="Group_338" data-name="Group 338">
            <rect id="Rectangle_43" data-name="Rectangle 43" width="96.633" height="65.134" transform="matrix(0.996, -0.094, 0.094, 0.996, 194.228, 314.94)" fill="#fff"/>
          </g>
          <g id="Group_340" data-name="Group 340">
            <g id="Group_339" data-name="Group 339">
              <path id="Path_1436" data-name="Path 1436" d="M296.58,370.657s-.066-.419-.153-1.2q-.131-1.224-.366-3.439c-.31-3.041-.759-7.442-1.331-13.06-1.116-11.281-2.713-27.436-4.659-47.11l.391.324-96.184,9.214c-.1.105.757-.923.4-.479l0,.017,0,.034.007.068.013.135.025.271.051.541.1,1.081.205,2.157q.2,2.154.406,4.292l.8,8.494q.8,8.43,1.566,16.579c1.019,10.853,2,21.287,2.928,31.168l-.447-.37,69.25-6.366,19.835-1.771,5.3-.452,1.376-.107a3.827,3.827,0,0,1,.483-.021,2.794,2.794,0,0,1-.431.065l-1.325.15-5.2.543L269.9,373.4l-69.481,6.795-.408.039-.04-.409c-.946-9.879-1.945-20.311-2.984-31.163q-.775-8.141-1.58-16.577-.4-4.215-.808-8.494-.2-2.139-.407-4.292l-.205-2.157-.1-1.081-.051-.541-.026-.271-.012-.136-.007-.067,0-.034,0-.017c-.363.43.491-.607.411-.5l96.2-9.036.359-.034.032.357c1.8,19.782,3.274,36.026,4.3,47.368.491,5.591.876,9.971,1.141,13q.182,2.18.281,3.38C296.571,370.284,296.58,370.657,296.58,370.657Z" fill="#455a64"/>
            </g>
          </g>
        </g>
        <g id="Group_343" data-name="Group 343">
          <g id="Group_342" data-name="Group 342">
            <path id="Path_1437" data-name="Path 1437" d="M290.429,305.814a6.38,6.38,0,0,1-.745.959l-2.267,2.641-8.483,9.634-28.46,31.827-.253.282-.321-.2-2.562-1.632-37.656-24.155-11.356-7.407-3.063-2.052a6.85,6.85,0,0,1-1.035-.767,6.983,6.983,0,0,1,1.132.615l3.154,1.91,11.509,7.166,37.8,23.933,2.562,1.633-.574.078,28.665-31.641,8.692-9.447,2.388-2.531A6.31,6.31,0,0,1,290.429,305.814Z" fill="#455a64"/>
          </g>
        </g>
      </g>
      <g id="Group_351" data-name="Group 351">
        <g id="Group_348" data-name="Group 348">
          <g id="Group_345" data-name="Group 345">
            <rect id="Rectangle_44" data-name="Rectangle 44" width="47.793" height="70.906" transform="translate(480.799 258.143) rotate(-74.218)" fill="#fff"/>
          </g>
          <g id="Group_347" data-name="Group 347">
            <g id="Group_346" data-name="Group 346">
              <path id="Path_1438" data-name="Path 1438" d="M549.032,277.429s.066-.3.214-.862q.236-.871.662-2.45l2.555-9.287c2.23-8.013,5.424-19.489,9.314-33.464l.182.325-68.245-19.22c-.093.046.763-.431.4-.223l0,.012-.007.024-.014.048-.027.1-.054.193L493.9,213l-.216.767-.433,1.53-.861,3.044-1.7,6.024q-1.692,5.979-3.328,11.757l-6.268,22.1-.208-.371,49.064,14.021,14.039,4.052,3.742,1.1.969.292a2.728,2.728,0,0,1,.337.114,2.162,2.162,0,0,1-.312-.07l-.947-.249c-.868-.237-2.107-.575-3.7-1.009l-14.017-3.878-49.335-13.79-.29-.081.082-.291c1.975-7.009,4.059-14.411,6.228-22.11q1.629-5.773,3.318-11.76.845-2.989,1.7-6.024.428-1.518.86-3.045l.432-1.53.217-.767.108-.384.055-.192.027-.1.013-.048.007-.024,0-.012c-.362.2.5-.284.414-.232L562.1,231.184l.255.072-.073.253c-4.019,14.01-7.32,25.514-9.625,33.546-1.148,3.955-2.047,7.054-2.668,9.2l-.705,2.386C549.124,277.171,549.032,277.429,549.032,277.429Z" fill="#455a64"/>
            </g>
          </g>
        </g>
        <g id="Group_350" data-name="Group 350">
          <g id="Group_349" data-name="Group 349">
            <path id="Path_1439" data-name="Path 1439" d="M562.031,231.437a4.618,4.618,0,0,1-.764.459l-2.252,1.205-8.36,4.34-27.915,14.22-.248.126-.165-.225-1.32-1.8-19.35-26.517-5.8-8.081-1.551-2.216a5.056,5.056,0,0,1-.505-.8,5.18,5.18,0,0,1,.612.721l1.65,2.144c1.454,1.936,3.483,4.64,5.972,7.956l19.506,26.4,1.319,1.8-.413-.1,28.006-14.039,8.453-4.156,2.3-1.1A4.7,4.7,0,0,1,562.031,231.437Z" fill="#455a64"/>
          </g>
        </g>
      </g>
    </g>
    <g id="Plant">
      <g id="Group_383" data-name="Group 383">
        <g id="Group_354" data-name="Group 354">
          <g id="Group_353" data-name="Group 353">
            <g id="Group_352" data-name="Group 352">
              <path id="Path_1440" data-name="Path 1440" d="M202.164,201.177s4.705-3.81,12,7.62a156.927,156.927,0,0,1,10.284,18.14s1.863,2.362,3.434.548,3.49-6.714,6.512-6.158c3.135.577,4.469,3.884,4.372,8.943s.1,16.151.116,17.153c.021.985.72,2.371,1.989,1.307s8.241-10.525,12.532-6.947,1.7,17.626,1.45,19.167.1,2.155.852,2.458,2.794-3.1,4.888-5.708,4.978-5.268,7.281-3,3.956,12.464-4.194,30.07l-4.31,7.91-9.041.372c-19.4-.385-27.836-6.335-28.869-9.4s2.62-4.494,5.882-5.233,7.216-1.088,7.272-1.895-.34-1.4-1.836-1.842-15.259-4.274-16.6-9.7,10.221-7.549,11.734-8.223.572-1.91-.3-2.36c-.892-.458-10.778-5.49-15.369-7.618s-6.98-4.775-6.125-7.846c.823-2.961,6.069-2.539,8.388-3.157s1.011-3.328,1.011-3.328a156.892,156.892,0,0,1-11.8-17.19c-7.082-11.561-1.446-14.159-1.446-14.159" fill="#3343E0"/>
            </g>
          </g>
        </g>
        <g id="Group_358" data-name="Group 358">
          <g id="Group_357" data-name="Group 357">
            <g id="Group_356" data-name="Group 356">
              <g id="Group_355" data-name="Group 355">
                <path id="Path_1441" data-name="Path 1441" d="M208.711,211.4s.041.088.135.25l.423.719,1.652,2.748c1.437,2.385,3.543,5.82,6.161,10.055,5.232,8.471,12.561,20.112,20.7,32.941s15.495,24.455,20.775,32.9l6.242,10,1.7,2.718.449.7c.1.158.162.234.162.234s-.041-.087-.135-.25-.242-.412-.423-.718l-1.652-2.748c-1.437-2.385-3.542-5.82-6.16-10.054-5.233-8.472-12.562-20.114-20.7-32.947s-15.493-24.45-20.772-32.891c-2.63-4.215-4.761-7.629-6.243-10l-1.7-2.718-.449-.7C208.77,211.479,208.711,211.4,208.711,211.4Z" fill="#263238"/>
              </g>
            </g>
          </g>
        </g>
        <g id="Group_362" data-name="Group 362">
          <g id="Group_361" data-name="Group 361">
            <g id="Group_360" data-name="Group 360">
              <g id="Group_359" data-name="Group 359">
                <path id="Path_1442" data-name="Path 1442" d="M231.983,228.29a2.752,2.752,0,0,0-.172.63c-.093.408-.209,1-.346,1.739-.269,1.472-.588,3.516-.9,5.777-.295,2.226-.561,4.238-.767,5.793q-.143,1.033-.241,1.753a2.682,2.682,0,0,0-.06.649,2.606,2.606,0,0,0,.177-.628c.092-.409.208-1,.337-1.741.255-1.476.547-3.523.857-5.784.31-2.222.591-4.232.808-5.785q.147-1.032.25-1.753A2.674,2.674,0,0,0,231.983,228.29Z" fill="#263238"/>
              </g>
            </g>
          </g>
        </g>
        <g id="Group_366" data-name="Group 366">
          <g id="Group_365" data-name="Group 365">
            <g id="Group_364" data-name="Group 364">
              <g id="Group_363" data-name="Group 363">
                <path id="Path_1443" data-name="Path 1443" d="M228.691,244.871c.015-.083-4.168-.929-9.343-1.889s-9.384-1.672-9.4-1.589,4.167.929,9.343,1.889S228.675,244.953,228.691,244.871Z" fill="#263238"/>
              </g>
            </g>
          </g>
        </g>
        <g id="Group_370" data-name="Group 370">
          <g id="Group_369" data-name="Group 369">
            <g id="Group_368" data-name="Group 368">
              <g id="Group_367" data-name="Group 367">
                <path id="Path_1444" data-name="Path 1444" d="M242.076,264.011a2.831,2.831,0,0,0-.666.029l-1.8.176c-1.518.148-3.617.345-5.939.479s-4.43.194-5.956.222l-1.807.037a2.7,2.7,0,0,0-.664.049,2.851,2.851,0,0,0,.662.07c.427.024,1.045.048,1.81.06,1.528.027,3.642.007,5.973-.133s4.431-.366,5.946-.569c.758-.105,1.369-.2,1.79-.273A2.8,2.8,0,0,0,242.076,264.011Z" fill="#263238"/>
              </g>
            </g>
          </g>
        </g>
        <g id="Group_374" data-name="Group 374">
          <g id="Group_373" data-name="Group 373">
            <g id="Group_372" data-name="Group 372">
              <g id="Group_371" data-name="Group 371">
                <path id="Path_1445" data-name="Path 1445" d="M248.354,249.67a2.434,2.434,0,0,0-.307.533c-.179.352-.43.866-.734,1.5-.607,1.273-1.427,3.042-2.316,5s-1.678,3.744-2.235,5.04c-.278.649-.5,1.175-.645,1.542a2.368,2.368,0,0,0-.2.583,2.428,2.428,0,0,0,.307-.534c.179-.351.43-.865.734-1.5.607-1.273,1.427-3.042,2.316-5s1.678-3.744,2.235-5.04c.279-.649.5-1.175.646-1.542A2.332,2.332,0,0,0,248.354,249.67Z" fill="#263238"/>
              </g>
            </g>
          </g>
        </g>
        <g id="Group_378" data-name="Group 378">
          <g id="Group_377" data-name="Group 377">
            <g id="Group_376" data-name="Group 376">
              <g id="Group_375" data-name="Group 375">
                <path id="Path_1446" data-name="Path 1446" d="M262.317,265.066a3.95,3.95,0,0,0-.385.688l-.946,1.921c-.787,1.629-1.856,3.887-3.018,6.389s-2.2,4.777-2.938,6.428l-.859,1.963a3.945,3.945,0,0,0-.277.737,3.909,3.909,0,0,0,.385-.687l.947-1.922c.787-1.628,1.855-3.887,3.018-6.39s2.2-4.775,2.938-6.427c.343-.786.631-1.444.858-1.962A3.871,3.871,0,0,0,262.317,265.066Z" fill="#263238"/>
              </g>
            </g>
          </g>
        </g>
        <g id="Group_382" data-name="Group 382">
          <g id="Group_381" data-name="Group 381">
            <g id="Group_380" data-name="Group 380">
              <g id="Group_379" data-name="Group 379">
                <path id="Path_1447" data-name="Path 1447" d="M253.974,282.7a4.5,4.5,0,0,0-.844.016l-2.289.143c-1.932.119-4.6.275-7.554.366s-5.627.112-7.563.112l-2.294,0a4.447,4.447,0,0,0-.842.036,4.374,4.374,0,0,0,.839.082c.541.033,1.325.068,2.294.094,1.938.055,4.618.072,7.576-.023s5.63-.282,7.561-.456c.965-.09,1.745-.171,2.283-.239A4.47,4.47,0,0,0,253.974,282.7Z" fill="#263238"/>
              </g>
            </g>
          </g>
        </g>
      </g>
      <g id="Group_393" data-name="Group 393">
        <g id="Group_384" data-name="Group 384">
          <path id="Path_1448" data-name="Path 1448" d="M551.875,291.377a13.779,13.779,0,0,0-10.793.08,24.334,24.334,0,0,0-8.8,6.607c-4.759,5.347-7.409,13.149-8.738,20.183,7.89.973,15.6-4.087,19.352-6.9,5.928-4.444,13.942-16.077,8.976-19.971" fill="#3343E0"/>
        </g>
        <g id="Group_385" data-name="Group 385">
          <path id="Path_1449" data-name="Path 1449" d="M509.277,321.01a11.759,11.759,0,0,0,6.518-9.845,15.614,15.614,0,0,0-4.2-11.313c-1.281-1.418-2.98-2.706-4.889-2.61a5.032,5.032,0,0,0-4.079,3.057,10.2,10.2,0,0,0-.631,5.259c.6,6.1,2.3,11.888,7.283,15.452" fill="#3343E0"/>
        </g>
        <g id="Group_387" data-name="Group 387">
          <g id="Group_386" data-name="Group 386">
            <path id="Path_1450" data-name="Path 1450" d="M498.914,340.908a5.464,5.464,0,0,0,.994-1.13c.6-.758,1.439-1.872,2.438-3.281a50.485,50.485,0,0,0,6.485-11.86,25.3,25.3,0,0,0,1.2-13.436,16.561,16.561,0,0,0-1.3-3.909,4.611,4.611,0,0,0-.782-1.291,35.082,35.082,0,0,1,1.529,5.3,26.543,26.543,0,0,1-1.4,13.063,58.431,58.431,0,0,1-6.2,11.811A45.3,45.3,0,0,0,498.914,340.908Z" fill="#263238"/>
          </g>
        </g>
        <g id="Group_389" data-name="Group 389">
          <g id="Group_388" data-name="Group 388">
            <path id="Path_1451" data-name="Path 1451" d="M544.758,299.551a14.539,14.539,0,0,0-2,1.471c-1.254.986-3.043,2.444-5.236,4.268-4.384,3.647-10.36,8.785-16.817,14.62s-12.172,11.267-16.242,15.262c-2.036,2-3.665,3.631-4.773,4.779a14.625,14.625,0,0,0-1.665,1.839,14.788,14.788,0,0,0,1.883-1.615l4.947-4.593c4.167-3.888,9.937-9.244,16.388-15.077s12.36-11.029,16.648-14.784l5.068-4.46A14.868,14.868,0,0,0,544.758,299.551Z" fill="#263238"/>
          </g>
        </g>
        <g id="Group_390" data-name="Group 390">
          <path id="Path_1452" data-name="Path 1452" d="M513.819,331.8A27.509,27.509,0,0,1,538.8,329c2.067.807,4.31,2.288,4.347,4.507s-2.171,3.78-4.234,4.606a23.5,23.5,0,0,1-25.421-5.815" fill="#3343E0"/>
        </g>
        <g id="Group_392" data-name="Group 392">
          <g id="Group_391" data-name="Group 391">
            <path id="Path_1453" data-name="Path 1453" d="M533.434,333.036a4.974,4.974,0,0,0-1.292-.64,11.7,11.7,0,0,0-1.586-.582,19.612,19.612,0,0,0-2.161-.6,28.965,28.965,0,0,0-5.8-.728,30.947,30.947,0,0,0-13.913,2.936,28.957,28.957,0,0,0-5.007,3.008,19.742,19.742,0,0,0-1.735,1.419,11.715,11.715,0,0,0-1.216,1.174c-.634.678-.962,1.068-.922,1.106.11.112,1.515-1.384,4.2-3.238a32.323,32.323,0,0,1,4.985-2.8,32.66,32.66,0,0,1,13.6-2.869,32.312,32.312,0,0,1,5.69.545C531.488,332.382,533.377,333.182,533.434,333.036Z" fill="#263238"/>
          </g>
        </g>
      </g>
    </g>
    <g id="Newletter">
      <g id="Group_429" data-name="Group 429">
        <g id="Group_425" data-name="Group 425">
          <g id="Group_399" data-name="Group 399">
            <g id="Group_395" data-name="Group 395">
              <g id="Group_394" data-name="Group 394">
                <rect id="Rectangle_45" data-name="Rectangle 45" width="252.736" height="277.126" transform="translate(254.433 114.054)" fill="#fafafa"/>
              </g>
            </g>
            <g id="Group_398" data-name="Group 398">
              <g id="Group_397" data-name="Group 397">
                <g id="Group_396" data-name="Group 396">
                  <path id="Path_1454" data-name="Path 1454" d="M507.169,391.181c0-1.972-.092-111.516-.229-277.126l.229.228-252.711.032h-.025l.26-.26c-.014,101.972-.027,197.207-.039,277.126l-.221-.222,252.736.222-252.736.222h-.222v-.222c-.011-79.919-.024-175.154-.039-277.126v-.261h.286l252.711.032h.228v.229C507.261,279.665,507.17,389.211,507.169,391.181Z" fill="#263238"/>
                </g>
              </g>
            </g>
          </g>
          <g id="Group_416" data-name="Group 416">
            <g id="Group_401" data-name="Group 401">
              <g id="Group_400" data-name="Group 400">
                <rect id="Rectangle_46" data-name="Rectangle 46" width="125.604" height="31.961" rx="14.505" transform="translate(327.73 333.861)" fill="#3343E0"/>
              </g>
            </g>
            <g id="Group_403" data-name="Group 403" opacity="0.5">
              <g id="Group_402" data-name="Group 402">
                <rect id="Rectangle_47" data-name="Rectangle 47" width="125.604" height="31.961" rx="14.505" transform="translate(327.73 333.861)"/>
              </g>
            </g>
            <g id="Group_405" data-name="Group 405">
              <g id="Group_404" data-name="Group 404">
                <rect id="Rectangle_48" data-name="Rectangle 48" width="125.604" height="31.961" rx="14.505" transform="translate(317.183 333.861)" fill="#3343E0"/>
              </g>
            </g>
            <g id="Group_415" data-name="Group 415">
              <g id="Group_406" data-name="Group 406">
                <path id="Path_1455" data-name="Path 1455" d="M351.842,351.911l.426-.955a3.664,3.664,0,0,0,2.185.729c1.031,0,1.467-.369,1.467-.861,0-1.429-3.936-.493-3.936-2.952,0-1.069.851-1.977,2.667-1.977a4.192,4.192,0,0,1,2.2.586l-.388.956a3.672,3.672,0,0,0-1.826-.521c-1.021,0-1.438.4-1.438.9,0,1.41,3.926.492,3.926,2.924,0,1.059-.86,1.967-2.677,1.967A4.261,4.261,0,0,1,351.842,351.911Z" fill="#fafafa"/>
                <path id="Path_1456" data-name="Path 1456" d="M354.453,352.732a4.258,4.258,0,0,1-2.627-.8l-.014-.012.007-.016.439-.986.025.021a3.667,3.667,0,0,0,2.17.722c.916,0,1.442-.3,1.442-.835,0-.6-.72-.77-1.553-.968-1.117-.267-2.383-.569-2.383-1.984,0-.967.707-2,2.692-2a4.208,4.208,0,0,1,2.219.59l.017.011-.008.019-.4.983-.025-.015a3.645,3.645,0,0,0-1.813-.516c-.9,0-1.413.318-1.413.873,0,.59.717.761,1.548.958,1.115.264,2.378.565,2.378,1.966a1.774,1.774,0,0,1-.666,1.4A3.2,3.2,0,0,1,354.453,352.732Zm-2.581-.827a4.3,4.3,0,0,0,2.581.776c1.612,0,2.653-.762,2.653-1.942,0-1.361-1.244-1.657-2.341-1.917-.851-.2-1.586-.378-1.586-1.007,0-.587.533-.924,1.463-.924a3.691,3.691,0,0,1,1.814.51l.369-.911a4.181,4.181,0,0,0-2.174-.57c-1.948,0-2.642,1.008-2.642,1.952,0,1.376,1.245,1.673,2.344,1.935.854.2,1.591.379,1.591,1.017,0,.563-.543.886-1.491.886a3.737,3.737,0,0,1-2.176-.714Z" fill="none"/>
              </g>
              <g id="Group_407" data-name="Group 407">
                <path id="Path_1457" data-name="Path 1457" d="M358.3,349.726V345.99h1.23v3.689c0,1.362.615,1.948,1.684,1.948s1.675-.586,1.675-1.948V345.99H364.1v3.736a2.9,2.9,0,1,1-5.8,0Z" fill="#fafafa"/>
                <path id="Path_1458" data-name="Path 1458" d="M361.2,352.732a2.7,2.7,0,0,1-2.929-3.006v-3.762h1.279v3.715c0,1.294.543,1.923,1.659,1.923s1.65-.629,1.65-1.923v-3.715h1.261v3.762A2.7,2.7,0,0,1,361.2,352.732Zm-2.88-6.717v3.711a2.876,2.876,0,1,0,5.75,0v-3.711h-1.161v3.664c0,1.31-.572,1.974-1.7,1.974s-1.708-.664-1.708-1.974v-3.664Z" fill="none"/>
              </g>
              <g id="Group_408" data-name="Group 408">
                <path id="Path_1459" data-name="Path 1459" d="M371.708,350.814c0,1.136-.89,1.8-2.592,1.8h-3.293V345.99h3.1c1.59,0,2.441.671,2.441,1.721a1.589,1.589,0,0,1-.851,1.457A1.631,1.631,0,0,1,371.708,350.814Zm-4.655-3.86v1.827h1.741c.852,0,1.334-.3,1.334-.909s-.482-.918-1.334-.918Zm3.415,3.737c0-.662-.5-.955-1.428-.955h-1.987v1.911h1.987C369.967,351.647,370.468,351.354,370.468,350.691Z" fill="#fafafa"/>
                <path id="Path_1460" data-name="Path 1460" d="M369.116,352.637H365.8v-6.673h3.128c1.544,0,2.466.654,2.466,1.747a1.6,1.6,0,0,1-.815,1.451,1.657,1.657,0,0,1,1.156,1.652C371.733,351.99,370.8,352.637,369.116,352.637Zm-3.268-.051h3.268c1.656,0,2.567-.629,2.567-1.772a1.613,1.613,0,0,0-1.175-1.622l-.056-.018.052-.028a1.556,1.556,0,0,0,.838-1.435c0-1.078-.88-1.7-2.416-1.7h-3.078Zm3.192-.914h-2.012V349.71h2.012c.978,0,1.453.322,1.453.981S370.018,351.672,369.04,351.672Zm-1.962-.051h1.962c.944,0,1.4-.3,1.4-.93s-.459-.93-1.4-.93h-1.962Zm1.716-2.815h-1.766v-1.877h1.766c.889,0,1.359.326,1.359.943S369.683,348.806,368.794,348.806Zm-1.716-.051h1.716c.6,0,1.309-.153,1.309-.883s-.712-.892-1.309-.892h-1.716Z" fill="none"/>
              </g>
              <g id="Group_409" data-name="Group 409">
                <path id="Path_1461" data-name="Path 1461" d="M372.469,351.911l.426-.955a3.664,3.664,0,0,0,2.185.729c1.031,0,1.466-.369,1.466-.861,0-1.429-3.935-.493-3.935-2.952,0-1.069.851-1.977,2.667-1.977a4.192,4.192,0,0,1,2.2.586l-.389.956a3.665,3.665,0,0,0-1.825-.521c-1.021,0-1.438.4-1.438.9,0,1.41,3.926.492,3.926,2.924,0,1.059-.861,1.967-2.677,1.967A4.262,4.262,0,0,1,372.469,351.911Z" fill="#fafafa"/>
                <path id="Path_1462" data-name="Path 1462" d="M375.08,352.732a4.258,4.258,0,0,1-2.627-.8l-.014-.012.007-.016.439-.986.025.021a3.667,3.667,0,0,0,2.17.722c.916,0,1.441-.3,1.441-.835,0-.6-.719-.77-1.552-.968-1.117-.267-2.383-.569-2.383-1.984,0-.967.707-2,2.692-2a4.21,4.21,0,0,1,2.219.59l.017.011-.008.019-.4.983-.025-.015a3.651,3.651,0,0,0-1.813-.516c-.9,0-1.413.318-1.413.873,0,.59.717.761,1.548.958,1.115.264,2.379.565,2.379,1.966C377.783,351.95,376.721,352.732,375.08,352.732ZM372.5,351.9a4.3,4.3,0,0,0,2.581.776c1.611,0,2.652-.762,2.652-1.942,0-1.361-1.243-1.657-2.34-1.917-.851-.2-1.586-.378-1.586-1.007,0-.587.533-.924,1.463-.924a3.687,3.687,0,0,1,1.813.51l.37-.911a4.181,4.181,0,0,0-2.174-.57c-1.948,0-2.642,1.008-2.642,1.952,0,1.376,1.245,1.673,2.344,1.935.854.2,1.592.379,1.592,1.017,0,.563-.544.886-1.492.886A3.737,3.737,0,0,1,372.9,351Z" fill="none"/>
              </g>
              <g id="Group_410" data-name="Group 410">
                <path id="Path_1463" data-name="Path 1463" d="M378.507,349.3a3.584,3.584,0,0,1,6.169-2.3l-.795.748a2.326,2.326,0,0,0-1.769-.776,2.327,2.327,0,1,0,0,4.654,2.3,2.3,0,0,0,1.769-.785l.795.757a3.583,3.583,0,0,1-6.169-2.3Z" fill="#fafafa"/>
                <path id="Path_1464" data-name="Path 1464" d="M382.046,352.732a3.433,3.433,0,1,1,2.649-5.747l.016.018-.017.017-.814.764-.017-.018a2.3,2.3,0,0,0-1.751-.768,2.3,2.3,0,1,0,0,4.6,2.284,2.284,0,0,0,1.751-.776l.017-.02.831.791-.016.018A3.4,3.4,0,0,1,382.046,352.732Zm.009-6.812a3.382,3.382,0,1,0,2.587,5.681l-.76-.723a2.325,2.325,0,0,1-1.77.775,2.353,2.353,0,1,1,0-4.705,2.346,2.346,0,0,1,1.77.766l.76-.715A3.349,3.349,0,0,0,382.055,345.92Z" fill="none"/>
              </g>
              <g id="Group_411" data-name="Group 411">
                <path id="Path_1465" data-name="Path 1465" d="M390.2,352.612l-1.354-1.94a2.173,2.173,0,0,1-.255.01h-1.495v1.93h-1.229V345.99h2.724c1.741,0,2.82.888,2.82,2.355a2.119,2.119,0,0,1-1.41,2.091l1.523,2.176Zm-1.666-5.582h-1.438v2.639h1.438c1.079,0,1.637-.492,1.637-1.324S389.609,347.03,388.53,347.03Z" fill="#fafafa"/>
                <path id="Path_1466" data-name="Path 1466" d="M391.568,352.637h-1.385l-.008-.011-1.344-1.927c-.082.008-.164.008-.244.008h-1.469v1.93h-1.281v-6.673h2.75c1.755,0,2.845.912,2.845,2.381a2.14,2.14,0,0,1-1.4,2.1Zm-1.359-.051h1.263l-1.514-2.162.03-.012a2.092,2.092,0,0,0,1.393-2.067c0-1.437-1.07-2.33-2.794-2.33h-2.7v6.571h1.179v-1.929h1.52a2.357,2.357,0,0,0,.252-.009l.015,0,.009.012ZM388.53,349.7h-1.463V347h1.463c1.071,0,1.662.477,1.662,1.341S389.6,349.7,388.53,349.7Zm-1.412-.051h1.412c1.039,0,1.611-.461,1.611-1.3s-.572-1.29-1.611-1.29h-1.412Z" fill="none"/>
              </g>
              <g id="Group_412" data-name="Group 412">
                <path id="Path_1467" data-name="Path 1467" d="M392.783,345.99h1.229v6.622h-1.229Z" fill="#fafafa"/>
                <path id="Path_1468" data-name="Path 1468" d="M394.038,352.637h-1.281v-6.673h1.281Zm-1.23-.051h1.179v-6.571h-1.179Z" fill="none"/>
              </g>
              <g id="Group_413" data-name="Group 413">
                <path id="Path_1469" data-name="Path 1469" d="M401.686,350.814c0,1.136-.889,1.8-2.592,1.8H395.8V345.99h3.1c1.59,0,2.441.671,2.441,1.721a1.589,1.589,0,0,1-.851,1.457A1.63,1.63,0,0,1,401.686,350.814Zm-4.654-3.86v1.827h1.74c.852,0,1.334-.3,1.334-.909s-.482-.918-1.334-.918Zm3.415,3.737c0-.662-.5-.955-1.429-.955h-1.986v1.911h1.986C399.946,351.647,400.447,351.354,400.447,350.691Z" fill="#fafafa"/>
                <path id="Path_1470" data-name="Path 1470" d="M399.094,352.637h-3.317v-6.673H398.9c1.544,0,2.467.654,2.467,1.747a1.6,1.6,0,0,1-.816,1.451,1.657,1.657,0,0,1,1.156,1.652C401.712,351.99,400.782,352.637,399.094,352.637Zm-3.266-.051h3.266c1.656,0,2.567-.629,2.567-1.772a1.613,1.613,0,0,0-1.174-1.622l-.056-.018.052-.028a1.556,1.556,0,0,0,.838-1.435c0-1.078-.88-1.7-2.416-1.7h-3.077Zm3.19-.914h-2.012V349.71h2.012c.979,0,1.454.322,1.454.981S400,351.672,399.018,351.672Zm-1.961-.051h1.961c.944,0,1.4-.3,1.4-.93s-.459-.93-1.4-.93h-1.961Zm1.715-2.815h-1.766v-1.877h1.766c.889,0,1.359.326,1.359.943S399.661,348.806,398.772,348.806Zm-1.715-.051h1.715c.6,0,1.309-.153,1.309-.883s-.712-.892-1.309-.892h-1.715Z" fill="none"/>
              </g>
              <g id="Group_414" data-name="Group 414">
                <path id="Path_1471" data-name="Path 1471" d="M407.973,351.58v1.032h-4.967V345.99h4.834v1.031h-3.6v1.722h3.2v1.011h-3.2v1.826Z" fill="#fafafa"/>
                <path id="Path_1472" data-name="Path 1472" d="M408,352.637h-5.018v-6.673h4.885v1.082h-3.605v1.671h3.2v1.063h-3.2v1.775H408Zm-4.967-.051h4.916v-.98h-3.737v-1.877h3.2v-.961h-3.2v-1.773h3.6v-.98h-4.783Z" fill="none"/>
              </g>
            </g>
          </g>
          <g id="Group_418" data-name="Group 418">
            <g id="Group_417" data-name="Group 417">
              <path id="Path_1473" data-name="Path 1473" d="M428.342,239.368" fill="#3343E0"/>
            </g>
          </g>
          <g id="Group_421" data-name="Group 421">
            <g id="Group_420" data-name="Group 420">
              <g id="Group_419" data-name="Group 419">
                <path id="Path_1474" data-name="Path 1474" d="M454.348,312.546c0,.144-32.142.26-71.78.26s-71.787-.116-71.787-.26,32.134-.261,71.787-.261S454.348,312.4,454.348,312.546Z" fill="#263238"/>
              </g>
            </g>
          </g>
          <g id="Group_424" data-name="Group 424">
            <g id="Group_423" data-name="Group 423">
              <g id="Group_422" data-name="Group 422">
                <path id="Path_1475" data-name="Path 1475" d="M476.808,321.23c0,.144-42.2.261-94.239.261-52.06,0-94.249-.117-94.249-.261s42.189-.26,94.249-.26C434.61,320.97,476.808,321.087,476.808,321.23Z" fill="#263238"/>
              </g>
            </g>
          </g>
        </g>
        <g id="Group_426" data-name="Group 426">
          <path id="Path_1476" data-name="Path 1476" d="M266.314,124.834a2.139,2.139,0,1,1-2.14-2.14A2.14,2.14,0,0,1,266.314,124.834Z" fill="#e0e0e0"/>
        </g>
        <g id="Group_427" data-name="Group 427">
          <circle id="Ellipse_14" data-name="Ellipse 14" cx="2.14" cy="2.14" r="2.14" transform="translate(269.169 122.694)" fill="#e0e0e0"/>
        </g>
        <g id="Group_428" data-name="Group 428">
          <path id="Path_1477" data-name="Path 1477" d="M280.582,124.834a2.139,2.139,0,1,1-2.14-2.14A2.14,2.14,0,0,1,280.582,124.834Z" fill="#e0e0e0"/>
        </g>
      </g>
    </g>
    <g id="Character">
      <g id="Group_609" data-name="Group 609">
        <g id="Group_430" data-name="Group 430">
          <path id="Path_1478" data-name="Path 1478" d="M488.361,169.65l4.155-14.987s1.5-6.089,1.856-7.512c.472-1.882-.848-2.474-1.626-1.193-.3.485-3.585,6.686-3.585,6.686s2.621-10.15,2.716-10.519c.849-3.314-1.2-2.971-1.8-1.786-.621,1.225-4.333,11.213-4.333,11.213,3.485-13.053,2.4-14.2,1.415-14.408s-4.054,11.729-4.054,11.729a11.168,11.168,0,0,0-3.151-3.446c-3.153-2.167-8.4,0-8.659,1.482s1.624,1.9,1.624,1.9c3.949-2.545,8,.538,7.584,4.306s-5.187,3.245-5.781.563c-1.3-5.886-3.33-3.973-3.33-3.973l2.029,12.981-2.149,6.529" fill="#ffbe9d"/>
        </g>
        <g id="Group_443" data-name="Group 443">
          <g id="Group_432" data-name="Group 432">
            <g id="Group_431" data-name="Group 431">
              <path id="Path_1479" data-name="Path 1479" d="M338.663,230.741l89.85-.6,2.469,61.088-93.036-.917Z" fill="#455a64"/>
            </g>
          </g>
          <g id="Group_434" data-name="Group 434">
            <g id="Group_433" data-name="Group 433">
              <path id="Path_1480" data-name="Path 1480" d="M338.663,230.741,384.3,193.857l44.213,36.284" fill="#263238"/>
            </g>
          </g>
          <g id="Group_437" data-name="Group 437">
            <g id="Group_436" data-name="Group 436">
              <g id="Group_435" data-name="Group 435">
                <path id="Path_1481" data-name="Path 1481" d="M337.946,290.312c-.112-.105,7.086-7.955,16.075-17.53s16.369-17.256,16.481-17.151-7.084,7.953-16.076,17.532S338.058,290.417,337.946,290.312Z" fill="#263238"/>
              </g>
            </g>
          </g>
          <g id="Group_440" data-name="Group 440">
            <g id="Group_439" data-name="Group 439">
              <g id="Group_438" data-name="Group 438">
                <path id="Path_1482" data-name="Path 1482" d="M430.982,291.229c-.115.1-7.116-7.6-15.634-17.194s-15.335-17.463-15.22-17.565,7.114,7.6,15.636,17.2S431.1,291.127,430.982,291.229Z" fill="#263238"/>
              </g>
            </g>
          </g>
          <g id="Group_442" data-name="Group 442">
            <g id="Group_441" data-name="Group 441">
              <path id="Path_1483" data-name="Path 1483" d="M428.513,230.141l-45.139,36.016-44.711-35.416" fill="#263238"/>
            </g>
          </g>
        </g>
        <g id="Group_474" data-name="Group 474">
          <g id="Group_472" data-name="Group 472">
            <g id="Group_445" data-name="Group 445">
              <g id="Group_444" data-name="Group 444">
                <path id="Path_1484" data-name="Path 1484" d="M278.624,161.9l.3-.009-1.205-4.02-3.849-15.362a2.819,2.819,0,0,1,1.808-3.346l2.77-.094,9.488-4.438a2.958,2.958,0,0,1,4,2.295c.346,2.823,2.266,10.409,4.31,7.752.048-.063.1-.114.147-.175,2.873-3.954,6.45-6.087,7.922-6.027a1.651,1.651,0,0,1,1.005,2.836,1.745,1.745,0,0,1-.542.469c-.1.052-.209.145-.311.21a24.523,24.523,0,0,0-3.414,3.747,12.979,12.979,0,0,0-2.091,4c-.507,1.593-.883,2.99-1.167,4.174l.737,7.841" fill="#ffbe9d"/>
              </g>
            </g>
            <g id="Group_471" data-name="Group 471">
              <g id="Group_454" data-name="Group 454">
                <g id="Group_447" data-name="Group 447">
                  <g id="Group_446" data-name="Group 446">
                    <path id="Path_1485" data-name="Path 1485" d="M303.939,92.312s-11.088-2.124-27.017-16.595S253.146,41.652,251.251,41.8s-10.292-3.462-25.081,31.271-8.354,42.519-5.22,42.366,24.263-6.693,37.608-5.558,30.64,7.582,30.64,7.582Z" fill="#455a64"/>
                  </g>
                </g>
                <g id="Group_449" data-name="Group 449">
                  <g id="Group_448" data-name="Group 448">
                    <path id="Path_1486" data-name="Path 1486" d="M327.877,110.337l-3.557,7.253-1.593,3.25a9.331,9.331,0,0,1-12.042,4.475l-23.85-7.558L299.7,85.966,323.65,97.872A9.332,9.332,0,0,1,327.877,110.337Z" fill="#263238"/>
                  </g>
                </g>
                <g id="Group_451" data-name="Group 451">
                  <g id="Group_450" data-name="Group 450">
                    <path id="Path_1487" data-name="Path 1487" d="M314.585,122.166l-7.109,14.964-3.794-.939-24.011,20.69-7.249-13.252s14.347-6.668,16.886-11.924-.6-6.342-.6-6.342l6.616-7.962Z" fill="#263238"/>
                  </g>
                </g>
                <g id="Group_453" data-name="Group 453">
                  <g id="Group_452" data-name="Group 452">
                    <path id="Path_1488" data-name="Path 1488" d="M227.462,73.662c-7.862,18.811-10.884,35.461-6.751,37.188s13.857-12.122,21.718-30.933,10.884-35.46,6.751-37.188S235.323,54.851,227.462,73.662Z" fill="#263238"/>
                  </g>
                </g>
              </g>
              <g id="Group_456" data-name="Group 456">
                <g id="Group_455" data-name="Group 455">
                  <path id="Path_1489" data-name="Path 1489" d="M330.2,120.606l-6.458-1.829,3.748-7.644,4.885,2.848Z" fill="#455a64"/>
                </g>
              </g>
              <g id="Group_458" data-name="Group 458">
                <g id="Group_457" data-name="Group 457">
                  <path id="Path_1490" data-name="Path 1490" d="M293.058,120.13l17.514,10.483,2.027-4.266Z" fill="#455a64"/>
                </g>
              </g>
              <g id="Group_460" data-name="Group 460">
                <g id="Group_459" data-name="Group 459">
                  <path id="Path_1491" data-name="Path 1491" d="M327.486,111.133l-3.748,7.644,1.327.376,3.005-7.68Z" fill="#455a64"/>
                </g>
              </g>
              <g id="Group_462" data-name="Group 462">
                <g id="Group_461" data-name="Group 461">
                  <path id="Path_1492" data-name="Path 1492" d="M323.125,113c-.088.21-3.318-.942-7.214-2.571s-6.985-3.121-6.9-3.331,3.316.942,7.214,2.572S323.212,112.787,323.125,113Z" fill="#455a64"/>
                </g>
              </g>
              <g id="Group_464" data-name="Group 464">
                <g id="Group_463" data-name="Group 463">
                  <path id="Path_1493" data-name="Path 1493" d="M324.966,108.454c-.1.207-3.02-.929-6.534-2.538s-6.288-3.08-6.193-3.287,3.019.93,6.535,2.539S325.06,108.248,324.966,108.454Z" fill="#455a64"/>
                </g>
              </g>
              <g id="Group_466" data-name="Group 466">
                <g id="Group_465" data-name="Group 465">
                  <path id="Path_1494" data-name="Path 1494" d="M320.775,117.771c-.031.11-.8-.044-2.02-.384-.611-.17-1.336-.386-2.138-.639s-1.629-.654-2.518-1.027c-3.548-1.527-6.267-3.042-6.185-3.233.1-.226,2.992.964,6.507,2.476.881.369,1.7.781,2.471,1.077s1.466.556,2.045.794C320.1,117.311,320.8,117.662,320.775,117.771Z" fill="#455a64"/>
                </g>
              </g>
              <g id="Group_468" data-name="Group 468">
                <g id="Group_467" data-name="Group 467">
                  <path id="Path_1495" data-name="Path 1495" d="M244.446,69.046s-9.745-5.666-14.618,7.421,5.264,14.93,5.264,14.93A86.251,86.251,0,0,0,244.446,69.046Z" fill="#455a64"/>
                </g>
              </g>
              <g id="Group_470" data-name="Group 470">
                <g id="Group_469" data-name="Group 469">
                  <path id="Path_1496" data-name="Path 1496" d="M254.194,53.337a14.5,14.5,0,0,1-.3,2.483c-.258,1.589-.621,3.9-1.156,6.732-.365,1.4-.765,2.927-1.193,4.566l-.673,2.542-.353,1.33c-.131.446-.305.885-.459,1.336-.639,1.8-1.31,3.688-2,5.644q-.261.735-.529,1.48c-.172.5-.422.973-.632,1.466q-.66,1.467-1.34,2.975l-1.344,2.975c-.231.484-.421.984-.681,1.445s-.508.921-.76,1.376l-2.905,5.24c-.237.414-.451.835-.7,1.228L238.4,97.3l-1.464,2.191-2.637,3.92c-1.768,2.271-3.254,4.065-4.275,5.31a14.467,14.467,0,0,1-1.661,1.873,14.726,14.726,0,0,1,1.409-2.07l4.067-5.469,2.533-3.947q.686-1.062,1.416-2.193c.244-.376.491-.759.742-1.145s.448-.815.679-1.229l2.844-5.228q.372-.678.749-1.369c.256-.458.443-.956.671-1.438q.657-1.457,1.331-2.955t1.334-2.952c.21-.49.46-.959.633-1.454l.532-1.467c.705-1.937,1.387-3.807,2.036-5.59.158-.447.336-.881.472-1.322s.247-.883.368-1.316q.364-1.3.708-2.516c.46-1.62.89-3.132,1.284-4.516.587-2.779,1.065-5.042,1.406-6.654A14.817,14.817,0,0,1,254.194,53.337Z" fill="#263238"/>
                </g>
              </g>
            </g>
          </g>
          <g id="Group_473" data-name="Group 473">
            <path id="Path_1497" data-name="Path 1497" d="M422.617,220.264" fill="#3343E0"/>
          </g>
        </g>
        <g id="Group_527" data-name="Group 527">
          <g id="Group_476" data-name="Group 476">
            <g id="Group_475" data-name="Group 475">
              <path id="Path_1498" data-name="Path 1498" d="M347.591,207.81" fill="#3343E0"/>
            </g>
          </g>
          <g id="Group_478" data-name="Group 478">
            <g id="Group_477" data-name="Group 477">
              <path id="Path_1499" data-name="Path 1499" d="M311.777,196.273,301.863,158.6l-24.778.656,7.706,52.57c.986,11.439,7.716,18.929,19.054,20.746,6.8,1.089,14.162-5.391,19.62-9.584,3.565-2.737,4.2-2.2,7.875-5.538h0L347.3,205.912l.391,1.894-.1,0,2.712,32.122,33.057,25.957L422.791,234.3l-.9-13.664c.1-.012.194-.2-.013-.2l-1.02-15.486,20.2,23.171A23.062,23.062,0,0,0,481.6,223.4L492,170.44l-22.839-4.915-10.7,38.162-25.521-29.329c-14.714-19.174-31.9-17.553-31.9-17.553l-31.675-.562c-.025,0-.047,0-.072,0-.94.05-18.642.585-30.64,13.406Z" fill="#3343E0"/>
            </g>
          </g>
          <g id="Group_481" data-name="Group 481">
            <g id="Group_480" data-name="Group 480">
              <g id="Group_479" data-name="Group 479">
                <path id="Path_1500" data-name="Path 1500" d="M434.234,176.448c-.014.031-.342-.161-1.019-.373a7.968,7.968,0,0,0-3.056-.315,14.131,14.131,0,0,0-4.685,1.344c-1.752.777-3.563,2.015-5.674,3.228a14.744,14.744,0,0,1-7.57,2.4,13.252,13.252,0,0,1-4.357-1.015c-1.427-.558-2.832-1.252-4.31-1.837a17.074,17.074,0,0,0-9.735-.923c-3.4.648-6.519,2.557-9.71,4.408a36.689,36.689,0,0,1-4.933,2.468,20.151,20.151,0,0,1-5.222,1.27,20.559,20.559,0,0,1-9.985-1.386,38.083,38.083,0,0,1-7.851-4.675c-2.311-1.673-4.437-3.265-6.524-4.473a23.5,23.5,0,0,0-5.988-2.468,14.929,14.929,0,0,0-4.861-.4,12.536,12.536,0,0,0-4.008,1.136,1.206,1.206,0,0,1,.237-.145c.161-.086.4-.221.724-.376a11.025,11.025,0,0,1,3.026-.817,14.8,14.8,0,0,1,4.949.323,23.394,23.394,0,0,1,6.1,2.431,78.986,78.986,0,0,1,6.593,4.442,38.057,38.057,0,0,0,7.779,4.581,20.14,20.14,0,0,0,9.75,1.323A19.671,19.671,0,0,0,379,185.351a36.36,36.36,0,0,0,4.861-2.436c3.177-1.84,6.353-3.792,9.871-4.458a17.518,17.518,0,0,1,10.011.978c2.973,1.215,5.674,2.778,8.5,2.866s5.286-1.138,7.374-2.289c2.1-1.181,3.946-2.409,5.736-3.174a14.046,14.046,0,0,1,4.791-1.28,7.68,7.68,0,0,1,3.1.418A4.367,4.367,0,0,1,434.234,176.448Z" fill="#fafafa"/>
              </g>
            </g>
          </g>
          <g id="Group_484" data-name="Group 484">
            <g id="Group_483" data-name="Group 483">
              <g id="Group_482" data-name="Group 482">
                <path id="Path_1501" data-name="Path 1501" d="M452.6,195.214a5.685,5.685,0,0,1-.541,1.393,8.961,8.961,0,0,1-2.869,3.167,13.211,13.211,0,0,1-6.368,2.255,41.513,41.513,0,0,1-8.97-.4c-3.269-.331-6.99-.735-10.677.479a24.29,24.29,0,0,0-5.3,2.784,38.254,38.254,0,0,1-5.572,3.239,23.616,23.616,0,0,1-13.631,1.594,22.742,22.742,0,0,1-6.923-2.426c-2.2-1.18-4.243-2.642-6.364-4.013a26.34,26.34,0,0,0-6.62-3.325,16.592,16.592,0,0,0-7.107-.443c-4.7.683-8.965,2.573-13.217,3.724a25.441,25.441,0,0,1-6.368,1.067,15.126,15.126,0,0,1-6.012-1.015c-3.691-1.521-6.406-4.114-8.822-6.359a42.333,42.333,0,0,0-6.882-5.666,14.278,14.278,0,0,0-6.292-2.146,10.01,10.01,0,0,0-4.181.5c-.912.339-1.344.628-1.361.6a6.21,6.21,0,0,1,1.324-.7,9.794,9.794,0,0,1,4.232-.608,14.324,14.324,0,0,1,6.428,2.1,41.981,41.981,0,0,1,6.983,5.645c2.428,2.227,5.136,4.77,8.731,6.228a14.7,14.7,0,0,0,5.839.958,25.086,25.086,0,0,0,6.252-1.071c2.1-.593,4.226-1.336,6.418-2.044a40.5,40.5,0,0,1,6.857-1.724,17.086,17.086,0,0,1,7.327.453,26.753,26.753,0,0,1,6.754,3.384c2.133,1.379,4.17,2.834,6.327,3.993a22.262,22.262,0,0,0,6.768,2.381,23.189,23.189,0,0,0,13.346-1.531c3.979-1.737,7.1-4.752,10.924-5.993a17.72,17.72,0,0,1,5.635-.809,46.081,46.081,0,0,1,5.22.373,41.992,41.992,0,0,0,8.9.472,13.121,13.121,0,0,0,6.282-2.133,9.117,9.117,0,0,0,2.892-3.05C452.442,195.707,452.57,195.2,452.6,195.214Z" fill="#fafafa"/>
              </g>
            </g>
          </g>
          <g id="Group_487" data-name="Group 487">
            <g id="Group_486" data-name="Group 486">
              <g id="Group_485" data-name="Group 485">
                <path id="Path_1502" data-name="Path 1502" d="M481.5,220.67a7.658,7.658,0,0,0-1.384-1.134,6.946,6.946,0,0,0-4.7-.7,15.214,15.214,0,0,0-6.327,3.379c-1.088.844-2.217,1.77-3.494,2.6a10.971,10.971,0,0,1-9.063,1.74,34.668,34.668,0,0,1-4.191-1.221c-1.31-.449-2.541-.894-3.717-1.2a18.31,18.31,0,0,0-3.329-.564,9.332,9.332,0,0,0-4.76.762,17.822,17.822,0,0,0-1.534.939c-.012-.013.1-.129.328-.341a2.956,2.956,0,0,1,.448-.36,4.329,4.329,0,0,1,.666-.419,9.146,9.146,0,0,1,4.872-.949,18.058,18.058,0,0,1,3.415.513c1.207.3,2.455.732,3.764,1.166,2.591.843,5.571,1.868,8.665,1.294a11.714,11.714,0,0,0,4.159-1.787c1.251-.8,2.376-1.713,3.479-2.552a15.2,15.2,0,0,1,6.557-3.362,6.964,6.964,0,0,1,4.866.892,4.679,4.679,0,0,1,1.019.907A1.674,1.674,0,0,1,481.5,220.67Z" fill="#fafafa"/>
              </g>
            </g>
          </g>
          <g id="Group_490" data-name="Group 490">
            <g id="Group_489" data-name="Group 489">
              <g id="Group_488" data-name="Group 488">
                <path id="Path_1503" data-name="Path 1503" d="M486.519,191.931a2.691,2.691,0,0,1-.86.539,7.932,7.932,0,0,1-2.686.679,13.205,13.205,0,0,1-4.09-.368,40.619,40.619,0,0,1-4.738-1.578,26.532,26.532,0,0,0-4.708-1.406,11.354,11.354,0,0,0-3.96-.014,9.043,9.043,0,0,0-3.355,1.447,2.584,2.584,0,0,1,.739-.7,7.025,7.025,0,0,1,2.541-1.111,11.094,11.094,0,0,1,4.111-.1,24.646,24.646,0,0,1,4.813,1.391,46.764,46.764,0,0,0,4.672,1.6,13.748,13.748,0,0,0,3.951.466A10.767,10.767,0,0,0,486.519,191.931Z" fill="#fafafa"/>
              </g>
            </g>
          </g>
          <g id="Group_493" data-name="Group 493">
            <g id="Group_492" data-name="Group 492">
              <g id="Group_491" data-name="Group 491">
                <path id="Path_1504" data-name="Path 1504" d="M420.212,229.728a25.873,25.873,0,0,0-2.617-1.2,17.682,17.682,0,0,0-7.721-.8,33.06,33.06,0,0,0-11.026,3.5c-3.967,1.867-8.169,4.369-13.056,5.952a24.267,24.267,0,0,1-7.361,1.271,22.518,22.518,0,0,1-6.859-1.181,57.773,57.773,0,0,1-5.831-2.319c-1.793-.79-3.449-1.553-4.994-2.16a25.955,25.955,0,0,0-7.562-1.974c-.461-.026-.872-.066-1.229-.074l-.9.029a4.091,4.091,0,0,1-.751-.008,3.961,3.961,0,0,1,.743-.1l.909-.079c.359-.008.775.016,1.244.027a24.809,24.809,0,0,1,7.682,1.833c1.565.59,3.234,1.335,5.033,2.108a59.485,59.485,0,0,0,5.8,2.257,22.233,22.233,0,0,0,6.71,1.128,24.011,24.011,0,0,0,7.2-1.256c4.813-1.557,9.009-4.034,13.011-5.891a32.791,32.791,0,0,1,11.2-3.434,17.288,17.288,0,0,1,7.826.974A10.051,10.051,0,0,1,420.212,229.728Z" fill="#fafafa"/>
              </g>
            </g>
          </g>
          <g id="Group_496" data-name="Group 496">
            <g id="Group_495" data-name="Group 495">
              <g id="Group_494" data-name="Group 494">
                <path id="Path_1505" data-name="Path 1505" d="M283.638,204.173a1.341,1.341,0,0,1,.477-.227,2.6,2.6,0,0,1,1.512.061,4.321,4.321,0,0,1,1.97,1.365,14.431,14.431,0,0,1,1.586,2.723,9.277,9.277,0,0,0,2.212,2.945,10.808,10.808,0,0,0,3.7,2.044,20.859,20.859,0,0,0,9.738.467,68.847,68.847,0,0,1,9.913-1.192,14.052,14.052,0,0,1,7.841,2.174,8.86,8.86,0,0,1,3.575,4.154,5.386,5.386,0,0,1,.418,1.976,17.629,17.629,0,0,0-.606-1.9,8.927,8.927,0,0,0-3.585-3.921,13.888,13.888,0,0,0-7.642-2.006,73.167,73.167,0,0,0-9.841,1.228,20.988,20.988,0,0,1-9.964-.527,11.12,11.12,0,0,1-3.832-2.176,9.529,9.529,0,0,1-2.256-3.1,14.8,14.8,0,0,0-1.483-2.705,4.219,4.219,0,0,0-1.809-1.356A2.8,2.8,0,0,0,283.638,204.173Z" fill="#fafafa"/>
              </g>
            </g>
          </g>
          <g id="Group_499" data-name="Group 499">
            <g id="Group_498" data-name="Group 498">
              <g id="Group_497" data-name="Group 497">
                <path id="Path_1506" data-name="Path 1506" d="M305.33,173.622a10.174,10.174,0,0,0-3.487-1.811,11.362,11.362,0,0,0-4.236-.278,18.5,18.5,0,0,0-5.034,1.451c-1.724.74-3.314,1.584-4.787,2.309a35.6,35.6,0,0,1-4.014,1.742,15.939,15.939,0,0,1-2.864.734,3.479,3.479,0,0,1-1.082.067,35.332,35.332,0,0,0,3.818-1.146,42.682,42.682,0,0,0,3.926-1.825c1.455-.745,3.045-1.607,4.8-2.36a17.979,17.979,0,0,1,5.186-1.449,11.163,11.163,0,0,1,4.391.4,7.863,7.863,0,0,1,2.632,1.378A2.939,2.939,0,0,1,305.33,173.622Z" fill="#fafafa"/>
              </g>
            </g>
          </g>
          <g id="Group_502" data-name="Group 502" opacity="0.3">
            <g id="Group_501" data-name="Group 501">
              <g id="Group_500" data-name="Group 500">
                <path id="Path_1507" data-name="Path 1507" d="M377.738,261.474c12.835-7.444,27.7-16.172,35.106-29.027,4.739-8.221,7.093-18.053,8.013-27.5l1.934,29.347L383.36,265.889Z"/>
              </g>
            </g>
          </g>
          <g id="Group_505" data-name="Group 505" opacity="0.2">
            <g id="Group_504" data-name="Group 504">
              <g id="Group_503" data-name="Group 503">
                <path id="Path_1508" data-name="Path 1508" d="M344.465,164.384A56.639,56.639,0,0,1,326.836,193a21.948,21.948,0,0,1-7.092,4.482,9.812,9.812,0,0,1-8.158-.538l.191-.672,19.984-19.788Z"/>
              </g>
            </g>
          </g>
          <g id="Group_508" data-name="Group 508">
            <g id="Group_507" data-name="Group 507">
              <g id="Group_506" data-name="Group 506">
                <path id="Path_1509" data-name="Path 1509" d="M314.321,212.013c-.085-.032.241-.909.51-2.374a16.856,16.856,0,0,0-1.851-11.218c-.726-1.3-1.316-2.026-1.246-2.083a6.86,6.86,0,0,1,1.562,1.9,15.1,15.1,0,0,1,1.9,11.483A6.867,6.867,0,0,1,314.321,212.013Z" fill="#263238"/>
              </g>
            </g>
          </g>
          <g id="Group_511" data-name="Group 511">
            <g id="Group_510" data-name="Group 510">
              <g id="Group_509" data-name="Group 509">
                <path id="Path_1510" data-name="Path 1510" d="M308.6,206.972a14.293,14.293,0,0,0,2.816-10.176,3.639,3.639,0,0,1,.4,1.578,10.646,10.646,0,0,1-2.062,7.45C309.131,206.626,308.638,207.015,308.6,206.972Z" fill="#263238"/>
              </g>
            </g>
          </g>
          <g id="Group_514" data-name="Group 514">
            <g id="Group_513" data-name="Group 513">
              <g id="Group_512" data-name="Group 512">
                <path id="Path_1511" data-name="Path 1511" d="M345.8,186.3c.143-.013.964,7.959,1.833,17.8s1.458,17.838,1.315,17.85-.964-7.957-1.834-17.8S345.653,186.309,345.8,186.3Z" fill="#263238"/>
              </g>
            </g>
          </g>
          <g id="Group_517" data-name="Group 517">
            <g id="Group_516" data-name="Group 516">
              <g id="Group_515" data-name="Group 515">
                <path id="Path_1512" data-name="Path 1512" d="M399.184,155.659a2.454,2.454,0,0,1,.215.539,11.264,11.264,0,0,1,.436,1.607,15.258,15.258,0,0,1-.1,6.107,15.807,15.807,0,0,1-4.361,7.906,15.547,15.547,0,0,1-20.559.449,15.79,15.79,0,0,1-4.7-7.708,15.237,15.237,0,0,1-.362-6.1,11.071,11.071,0,0,1,.365-1.624,2.391,2.391,0,0,1,.191-.548c.062.017-.2.777-.355,2.2a15.859,15.859,0,0,0,.516,5.974,15.649,15.649,0,0,0,4.664,7.445,15.194,15.194,0,0,0,19.911-.436,15.648,15.648,0,0,0,4.334-7.64,15.873,15.873,0,0,0,.255-5.991C399.413,156.427,399.122,155.678,399.184,155.659Z" fill="#263238"/>
              </g>
            </g>
          </g>
          <g id="Group_520" data-name="Group 520">
            <g id="Group_519" data-name="Group 519">
              <g id="Group_518" data-name="Group 518">
                <path id="Path_1513" data-name="Path 1513" d="M457.278,215.9a37.911,37.911,0,0,1,.71-12.493c.149.022-.163,2.8-.355,6.247S457.429,215.9,457.278,215.9Z" fill="#263238"/>
              </g>
            </g>
          </g>
          <g id="Group_523" data-name="Group 523">
            <g id="Group_522" data-name="Group 522">
              <g id="Group_521" data-name="Group 521">
                <path id="Path_1514" data-name="Path 1514" d="M461.294,217.722a8.2,8.2,0,0,1-.855-2.041,44.358,44.358,0,0,1-2.156-10.429,8.258,8.258,0,0,1-.025-2.213c.156-.011.454,3.339,1.3,7.387C460.386,214.476,461.441,217.671,461.294,217.722Z" fill="#263238"/>
              </g>
            </g>
          </g>
          <g id="Group_526" data-name="Group 526">
            <g id="Group_525" data-name="Group 525">
              <g id="Group_524" data-name="Group 524">
                <path id="Path_1515" data-name="Path 1515" d="M420.856,218.3c-.144,0-.472-5.629-.733-12.583s-.356-12.6-.212-12.6.471,5.628.732,12.584S421,218.29,420.856,218.3Z" fill="#263238"/>
              </g>
            </g>
          </g>
        </g>
        <g id="Group_608" data-name="Group 608">
          <g id="Group_604" data-name="Group 604">
            <g id="Group_540" data-name="Group 540">
              <g id="Group_539" data-name="Group 539">
                <g id="Group_538" data-name="Group 538">
                  <g id="Group_532" data-name="Group 532">
                    <g id="Group_531" data-name="Group 531">
                      <g id="Group_530" data-name="Group 530">
                        <g id="Group_529" data-name="Group 529">
                          <g id="Group_528" data-name="Group 528">
                            <path id="Path_1516" data-name="Path 1516" d="M385.012,174.358h0a14.18,14.18,0,0,1-13.9-13.585c-.229-5.48-.418-10.512-.418-10.512s-11.47-1.218-12.162-12.593.013-37.607.013-37.607h0a39.607,39.607,0,0,1,39.991,3.069l1.75,1.217-.832,56.046A14.179,14.179,0,0,1,385.012,174.358Z" fill="#ffbe9d"/>
                          </g>
                        </g>
                      </g>
                    </g>
                  </g>
                  <g id="Group_537" data-name="Group 537">
                    <g id="Group_536" data-name="Group 536">
                      <g id="Group_535" data-name="Group 535">
                        <g id="Group_534" data-name="Group 534">
                          <g id="Group_533" data-name="Group 533">
                            <path id="Path_1517" data-name="Path 1517" d="M370.668,150.1a26.5,26.5,0,0,0,14.634-4.937s-3.111,8.362-14.518,7.887Z" fill="#eb996e"/>
                          </g>
                        </g>
                      </g>
                    </g>
                  </g>
                </g>
              </g>
            </g>
            <g id="Group_552" data-name="Group 552">
              <g id="Group_545" data-name="Group 545">
                <g id="Group_544" data-name="Group 544">
                  <g id="Group_543" data-name="Group 543">
                    <g id="Group_542" data-name="Group 542">
                      <g id="Group_541" data-name="Group 541">
                        <path id="Path_1518" data-name="Path 1518" d="M399.455,116.2c.19-.093,7.708-2.692,7.837,5.1s-7.722,6.315-7.74,6.092S399.455,116.2,399.455,116.2Z" fill="#ffbe9d"/>
                      </g>
                    </g>
                  </g>
                </g>
              </g>
              <g id="Group_551" data-name="Group 551">
                <g id="Group_550" data-name="Group 550">
                  <g id="Group_549" data-name="Group 549">
                    <g id="Group_548" data-name="Group 548">
                      <g id="Group_547" data-name="Group 547">
                        <g id="Group_546" data-name="Group 546">
                          <path id="Path_1519" data-name="Path 1519" d="M401.884,124.406c.034-.026.138.093.369.194a1.355,1.355,0,0,0,1.015,0c.818-.316,1.49-1.634,1.505-3.04a4.493,4.493,0,0,0-.412-1.937,1.57,1.57,0,0,0-1.039-1.026.692.692,0,0,0-.795.386c-.1.219-.049.374-.09.388-.021.02-.169-.127-.112-.45a.867.867,0,0,1,.3-.494,1.026,1.026,0,0,1,.747-.211,1.911,1.911,0,0,1,1.439,1.185,4.62,4.62,0,0,1,.506,2.165c-.024,1.571-.8,3.054-1.925,3.4a1.451,1.451,0,0,1-1.245-.186C401.9,124.594,401.858,124.42,401.884,124.406Z" fill="#eb996e"/>
                        </g>
                      </g>
                    </g>
                  </g>
                </g>
              </g>
            </g>
            <g id="Group_603" data-name="Group 603">
              <g id="Group_602" data-name="Group 602">
                <g id="Group_591" data-name="Group 591">
                  <g id="Group_590" data-name="Group 590">
                    <g id="Group_589" data-name="Group 589">
                      <g id="Group_564" data-name="Group 564">
                        <g id="Group_557" data-name="Group 557">
                          <g id="Group_556" data-name="Group 556">
                            <g id="Group_555" data-name="Group 555">
                              <g id="Group_554" data-name="Group 554">
                                <g id="Group_553" data-name="Group 553">
                                  <path id="Path_1520" data-name="Path 1520" d="M363.988,117.273a1.626,1.626,0,0,0,1.569,1.641,1.555,1.555,0,0,0,1.677-1.467,1.627,1.627,0,0,0-1.567-1.643A1.558,1.558,0,0,0,363.988,117.273Z" fill="#263238"/>
                                </g>
                              </g>
                            </g>
                          </g>
                        </g>
                        <g id="Group_563" data-name="Group 563">
                          <g id="Group_562" data-name="Group 562">
                            <g id="Group_561" data-name="Group 561">
                              <g id="Group_560" data-name="Group 560">
                                <g id="Group_559" data-name="Group 559">
                                  <g id="Group_558" data-name="Group 558">
                                    <path id="Path_1521" data-name="Path 1521" d="M362.008,115.643c.2.212,1.435-.7,3.186-.7,1.749-.02,3.035.881,3.225.666.093-.1-.113-.477-.672-.885a4.469,4.469,0,0,0-2.581-.8,4.288,4.288,0,0,0-2.536.819C362.091,115.164,361.909,115.548,362.008,115.643Z" fill="#263238"/>
                                  </g>
                                </g>
                              </g>
                            </g>
                          </g>
                        </g>
                      </g>
                      <g id="Group_576" data-name="Group 576">
                        <g id="Group_569" data-name="Group 569">
                          <g id="Group_568" data-name="Group 568">
                            <g id="Group_567" data-name="Group 567">
                              <g id="Group_566" data-name="Group 566">
                                <g id="Group_565" data-name="Group 565">
                                  <path id="Path_1522" data-name="Path 1522" d="M380.8,117.472a1.626,1.626,0,0,0,1.569,1.642,1.555,1.555,0,0,0,1.677-1.467A1.627,1.627,0,0,0,382.481,116,1.557,1.557,0,0,0,380.8,117.472Z" fill="#263238"/>
                                </g>
                              </g>
                            </g>
                          </g>
                        </g>
                        <g id="Group_575" data-name="Group 575">
                          <g id="Group_574" data-name="Group 574">
                            <g id="Group_573" data-name="Group 573">
                              <g id="Group_572" data-name="Group 572">
                                <g id="Group_571" data-name="Group 571">
                                  <g id="Group_570" data-name="Group 570">
                                    <path id="Path_1523" data-name="Path 1523" d="M379.221,115.97c.2.212,1.437-.7,3.187-.7,1.749-.02,3.034.881,3.224.666.093-.1-.11-.478-.672-.885a4.464,4.464,0,0,0-2.581-.8,4.29,4.29,0,0,0-2.536.819C379.306,115.491,379.123,115.875,379.221,115.97Z" fill="#263238"/>
                                  </g>
                                </g>
                              </g>
                            </g>
                          </g>
                        </g>
                      </g>
                      <g id="Group_582" data-name="Group 582">
                        <g id="Group_581" data-name="Group 581">
                          <g id="Group_580" data-name="Group 580">
                            <g id="Group_579" data-name="Group 579">
                              <g id="Group_578" data-name="Group 578">
                                <g id="Group_577" data-name="Group 577">
                                  <path id="Path_1524" data-name="Path 1524" d="M372.866,128.956a11.654,11.654,0,0,0-2.844-.513c-.447-.046-.87-.135-.946-.44a2.277,2.277,0,0,1,.3-1.325l1.322-3.4c1.837-4.848,3.166-8.834,2.97-8.907s-1.843,3.8-3.68,8.647q-.663,1.792-1.266,3.425a2.579,2.579,0,0,0-.232,1.755,1.12,1.12,0,0,0,.735.654,3.088,3.088,0,0,0,.759.106A11.36,11.36,0,0,0,372.866,128.956Z" fill="#263238"/>
                                </g>
                              </g>
                            </g>
                          </g>
                        </g>
                      </g>
                      <g id="Group_588" data-name="Group 588">
                        <g id="Group_587" data-name="Group 587">
                          <g id="Group_586" data-name="Group 586">
                            <g id="Group_585" data-name="Group 585">
                              <g id="Group_584" data-name="Group 584">
                                <g id="Group_583" data-name="Group 583">
                                  <path id="Path_1525" data-name="Path 1525" d="M378.02,130.168c-.285-.017-.289,1.884-1.915,3.233s-3.651,1.14-3.666,1.406c-.026.119.452.369,1.307.393a4.733,4.733,0,0,0,3.059-1.067,4.115,4.115,0,0,0,1.484-2.711C378.362,130.628,378.15,130.157,378.02,130.168Z" fill="#263238"/>
                                </g>
                              </g>
                            </g>
                          </g>
                        </g>
                      </g>
                    </g>
                  </g>
                </g>
                <g id="Group_596" data-name="Group 596">
                  <g id="Group_595" data-name="Group 595">
                    <g id="Group_594" data-name="Group 594">
                      <g id="Group_593" data-name="Group 593">
                        <g id="Group_592" data-name="Group 592">
                          <path id="Path_1526" data-name="Path 1526" d="M378.769,109.107c.173.476,1.922.25,3.976.5,2.06.206,3.717.808,3.989.381.122-.2-.167-.652-.837-1.113a6.967,6.967,0,0,0-6.068-.67C379.075,108.507,378.7,108.881,378.769,109.107Z" fill="#263238"/>
                        </g>
                      </g>
                    </g>
                  </g>
                </g>
                <g id="Group_601" data-name="Group 601">
                  <g id="Group_600" data-name="Group 600">
                    <g id="Group_599" data-name="Group 599">
                      <g id="Group_598" data-name="Group 598">
                        <g id="Group_597" data-name="Group 597">
                          <path id="Path_1527" data-name="Path 1527" d="M362.652,110.575c.308.4,1.514-.015,2.965-.035,1.45-.07,2.679.268,2.962-.148.124-.2-.069-.6-.606-.977a4.295,4.295,0,0,0-4.776.147C362.685,109.971,362.516,110.381,362.652,110.575Z" fill="#263238"/>
                        </g>
                      </g>
                    </g>
                  </g>
                </g>
              </g>
            </g>
          </g>
          <g id="Group_607" data-name="Group 607">
            <g id="Group_606" data-name="Group 606">
              <g id="Group_605" data-name="Group 605">
                <path id="Path_1528" data-name="Path 1528" d="M352.732,92.543a4.209,4.209,0,0,1,1.553-3.759,2.985,2.985,0,0,1,3.866.29,3.482,3.482,0,0,1,2.994-4.223c1.858-.118,3.443,1.286,5.239,1.778a8.462,8.462,0,0,0,5.321-.614c1.686-.679,3.262-1.616,4.969-2.24a14.573,14.573,0,0,1,18.638,8.557,6.469,6.469,0,0,1,6.861,2.6,10.615,10.615,0,0,1,1.625,7.477,23.812,23.812,0,0,1-1.3,5.113c0,.146.014.29.012.437-.118,6.266-.826,13.625-3.5,13.666-4.659.071-3.549-8.707-3.549-8.707-5.718-2.21-3.588-10.777-5.018-12.077s-4.421-4.32-16.393,1.8c-4.648,2.376-10.83,2.3-14.2,1.537-.1-.022-.2-.037-.3-.061l-.069-.014c-.037-.009-.063-.03-.1-.04a10.762,10.762,0,0,1-3.07-1.3,6.065,6.065,0,0,1-2.531-2.813,3.322,3.322,0,0,1,.654-3.567A7.3,7.3,0,0,1,352.732,92.543Z" fill="#263238"/>
              </g>
            </g>
          </g>
        </g>
      </g>
    </g>
  </g>
</svg>
