<svg xmlns="http://www.w3.org/2000/svg" xmlns:xlink="http://www.w3.org/1999/xlink" width="403.569" height="254.67" viewBox="0 0 403.569 254.67">
  <defs>
    <linearGradient id="linear-gradient" x1="-4.862" y1="18.954" x2="-3.708" y2="18.954" gradientUnits="objectBoundingBox">
      <stop offset="0" stop-color="#311b61"/>
      <stop offset="0.203" stop-color="#290e52"/>
      <stop offset="0.495" stop-color="#200041"/>
      <stop offset="1" stop-color="#0f001f"/>
    </linearGradient>
    <linearGradient id="linear-gradient-2" x1="72.367" y1="-0.51" x2="72.012" y2="0.643" gradientUnits="objectBoundingBox">
      <stop offset="0.035" stop-color="#1e1f21"/>
      <stop offset="0.31" stop-color="#2c2d30"/>
      <stop offset="0.84" stop-color="#505358"/>
      <stop offset="1" stop-color="#5d6066"/>
    </linearGradient>
  </defs>
  <g id="Press_Release" transform="translate(-253.95 -99.897)">
    <g id="Group_612" data-name="Group 612">
      <g id="Group_611" data-name="Group 611">
        <path id="Path_1529" data-name="Path 1529" d="M473.726,327.427l-111.8-64.549c-4.415-2.549-3.862-7,1.236-9.945L426.61,216.3c5.1-2.943,12.81-3.263,17.225-.714l111.8,64.549c4.415,2.549,3.861,7-1.237,9.945l-63.45,36.633C485.853,329.656,478.141,329.976,473.726,327.427Z" fill="#92b4d1" opacity="0.2"/>
        <path id="Path_1530" data-name="Path 1530" d="M473.726,323.137l-111.8-64.549c-1.968-1.136-2.948-2.65-2.98-4.24,0-.051,0-5.487,0-5.538.035-1.933,1.463,1.423,4.216-.167l63.45-36.633c5.1-2.943,12.81-3.263,17.225-.714l111.8,64.549c1.473.851,2.542-2.76,2.924-1.612.128.382.047,5.449.055,5.846.042,1.98-1.387,4.078-4.216,5.711l-63.45,36.633C485.853,325.366,478.141,325.686,473.726,323.137Z" fill="#2672ab"/>
        <path id="Path_1531" data-name="Path 1531" d="M473.726,317.7l-111.8-64.549c-4.415-2.549-3.862-7,1.236-9.945l63.45-36.633c5.1-2.943,12.81-3.263,17.225-.714l111.8,64.549c4.415,2.549,3.861,7-1.237,9.945l-63.45,36.633C485.853,319.93,478.141,320.25,473.726,317.7Z" fill="#d1ebff"/>
        <path id="Path_1532" data-name="Path 1532" d="M473.726,323.137c4.415,2.549,12.127,2.229,17.225-.714v-5.436c-5.1,2.943-12.81,3.263-17.225.714Z" fill="#3f92d1" opacity="0.5"/>
        <path id="Path_1533" data-name="Path 1533" d="M473.726,317.7l-111.8-64.549c-2.135-1.233-3.1-2.911-2.957-4.647a2.212,2.212,0,0,0-.023.3c0,.052,0,5.488,0,5.539.032,1.59,1.012,3.1,2.98,4.24l111.8,64.549Z" fill="#3f92d1"/>
        <path id="Path_1534" data-name="Path 1534" d="M554.4,279.431l-63.45,36.633c-5.1,2.943-12.81,3.263-17.225.714l-111.8-64.549a5.281,5.281,0,0,1-2.947-3.913c-.229,1.8.735,3.559,2.947,4.836l111.8,64.549c4.415,2.549,12.127,2.229,17.225-.714l63.45-36.633c2.983-1.722,4.4-3.96,4.183-6.032C558.356,276.118,556.944,277.962,554.4,279.431Z" fill="#fff"/>
        <path id="Path_1535" data-name="Path 1535" d="M448.276,295.152l-39.79-22.973c-.8-.46-.7-1.264.223-1.795l14.939-8.625a3.456,3.456,0,0,1,3.109-.128L466.546,284.6c.8.46.7,1.264-.223,1.8l-14.939,8.625A3.455,3.455,0,0,1,448.276,295.152Z" fill="#fff" opacity="0.3"/>
        <path id="Path_1536" data-name="Path 1536" d="M408.709,271.328l14.939-8.625a3.457,3.457,0,0,1,3.109-.129l39.79,22.973a1.21,1.21,0,0,1,.367.322.832.832,0,0,0-.367-1.266l-39.79-22.973a3.46,3.46,0,0,0-3.109.129l-14.939,8.625c-.732.423-.935,1.015-.59,1.472A1.735,1.735,0,0,1,408.709,271.328Z" fill="#a8cff0"/>
        <path id="Path_1537" data-name="Path 1537" d="M436.557,214.156l6.857,3.959a3.48,3.48,0,0,0,3.149,0,.959.959,0,0,0-.01-1.817l-6.858-3.959a3.478,3.478,0,0,0-3.148-.006A.96.96,0,0,0,436.557,214.156Zm11.741,6.778,3.248,1.875a3.475,3.475,0,0,0,3.148.006.959.959,0,0,0-.01-1.817l-3.248-1.876a3.478,3.478,0,0,0-3.148,0A.959.959,0,0,0,448.3,220.934Zm8.132,4.695,3.248,1.875a3.478,3.478,0,0,0,3.148.006.96.96,0,0,0-.01-1.818l-3.248-1.875a3.481,3.481,0,0,0-3.148-.006A.96.96,0,0,0,456.43,225.629Zm8.132,4.7,3.248,1.875a3.478,3.478,0,0,0,3.148.006.96.96,0,0,0-.01-1.818l-3.248-1.875a3.478,3.478,0,0,0-3.148-.006A.959.959,0,0,0,464.562,230.324Zm8.131,4.695,3.249,1.875a3.478,3.478,0,0,0,3.148.006.96.96,0,0,0-.01-1.818l-3.248-1.875a3.48,3.48,0,0,0-3.149-.006A.96.96,0,0,0,472.693,235.019Zm8.132,4.7,3.248,1.875a3.478,3.478,0,0,0,3.148.006.96.96,0,0,0-.009-1.818l-3.249-1.875a3.478,3.478,0,0,0-3.148-.006A.96.96,0,0,0,480.825,239.714Zm8.132,4.694,3.248,1.876a3.482,3.482,0,0,0,3.148.006.96.96,0,0,0-.01-1.818L492.1,242.6a3.478,3.478,0,0,0-3.148-.006A.959.959,0,0,0,488.957,244.408Zm8.132,4.695,3.248,1.876a3.482,3.482,0,0,0,3.148.006.96.96,0,0,0-.01-1.818l-3.248-1.875a3.475,3.475,0,0,0-3.148-.006A.959.959,0,0,0,497.089,249.1Zm8.131,4.7,3.249,1.876a3.478,3.478,0,0,0,3.148.005.959.959,0,0,0-.01-1.817l-3.248-1.876a3.478,3.478,0,0,0-3.148,0A.959.959,0,0,0,505.22,253.8Zm8.132,4.7,3.248,1.876a3.481,3.481,0,0,0,3.149.005.959.959,0,0,0-.01-1.817l-3.248-1.876a3.481,3.481,0,0,0-3.149-.005A.959.959,0,0,0,513.352,258.493Zm8.132,4.695,3.248,1.875a3.478,3.478,0,0,0,3.148.006.959.959,0,0,0-.01-1.817l-3.248-1.876a3.478,3.478,0,0,0-3.148-.005A.959.959,0,0,0,521.484,263.188Zm8.132,4.7,3.248,1.875a3.478,3.478,0,0,0,3.148.006.959.959,0,0,0-.01-1.817l-3.248-1.876a3.481,3.481,0,0,0-3.148-.006A.96.96,0,0,0,529.616,267.883Zm8.3,4.792,3.248,1.876a3.482,3.482,0,0,0,3.148.006.96.96,0,0,0-.01-1.818l-3.248-1.875a3.478,3.478,0,0,0-3.148-.006A.959.959,0,0,0,537.917,272.675ZM429.243,218.63l2.812,1.624a3.964,3.964,0,0,0,3.583.006l2.8-1.613a1.092,1.092,0,0,0-.011-2.069l-2.813-1.624a3.959,3.959,0,0,0-3.582-.006l-2.8,1.613A1.092,1.092,0,0,0,429.243,218.63Zm14.527,6.325,2.8-1.614a1.091,1.091,0,0,0-.012-2.068l-2.812-1.624a3.958,3.958,0,0,0-3.583-.006l-2.794,1.613a1.092,1.092,0,0,0,.011,2.069l2.812,1.623A3.961,3.961,0,0,0,443.77,224.955Zm1.737,3.065,2.812,1.623a3.961,3.961,0,0,0,3.583.007l2.794-1.614a1.091,1.091,0,0,0-.011-2.068l-2.812-1.624a3.958,3.958,0,0,0-3.583-.006l-2.794,1.613A1.092,1.092,0,0,0,445.507,228.02Zm8.132,4.695,2.812,1.623a3.961,3.961,0,0,0,3.583.007l2.794-1.614a1.092,1.092,0,0,0-.011-2.068l-2.812-1.624a3.961,3.961,0,0,0-3.583-.007l-2.795,1.614A1.092,1.092,0,0,0,453.639,232.715Zm17.31,2.643-2.812-1.624a3.961,3.961,0,0,0-3.583-.007l-2.795,1.614a1.092,1.092,0,0,0,.011,2.068l2.813,1.624a3.959,3.959,0,0,0,3.582.007l2.795-1.614A1.092,1.092,0,0,0,470.949,235.358Zm8.131,4.694-2.812-1.623a3.959,3.959,0,0,0-3.582-.007l-2.8,1.614a1.092,1.092,0,0,0,.011,2.068l2.812,1.624a3.958,3.958,0,0,0,3.583.006l2.8-1.613A1.092,1.092,0,0,0,479.08,240.052Zm8.132,4.695-2.812-1.623a3.961,3.961,0,0,0-3.583-.007l-2.794,1.614a1.091,1.091,0,0,0,.011,2.068l2.812,1.624a3.958,3.958,0,0,0,3.583.006l2.8-1.613A1.092,1.092,0,0,0,487.212,244.747Zm8.132,4.7-2.812-1.623a3.961,3.961,0,0,0-3.583-.007l-2.794,1.613a1.092,1.092,0,0,0,.011,2.069l2.812,1.624a3.958,3.958,0,0,0,3.583.006l2.794-1.613A1.092,1.092,0,0,0,495.344,249.442Zm8.132,4.695-2.812-1.623a3.961,3.961,0,0,0-3.583-.007l-2.795,1.613a1.092,1.092,0,0,0,.012,2.069l2.812,1.624a3.958,3.958,0,0,0,3.583.006l2.794-1.613A1.092,1.092,0,0,0,503.476,254.137Zm8.132,4.7-2.812-1.624a3.958,3.958,0,0,0-3.583-.006l-2.8,1.613a1.092,1.092,0,0,0,.011,2.069l2.812,1.623a3.958,3.958,0,0,0,3.583.007l2.795-1.614A1.092,1.092,0,0,0,511.608,258.832Zm-1.047,6.747,2.812,1.623a3.961,3.961,0,0,0,3.583.007l2.795-1.614a1.091,1.091,0,0,0-.012-2.068l-2.812-1.624a3.958,3.958,0,0,0-3.583-.006l-2.794,1.613A1.092,1.092,0,0,0,510.561,265.579Zm17.31,2.643-2.812-1.624a3.958,3.958,0,0,0-3.583-.006l-2.794,1.613a1.092,1.092,0,0,0,.011,2.069l2.812,1.623a3.961,3.961,0,0,0,3.583.007l2.794-1.614A1.091,1.091,0,0,0,527.871,268.222Zm11.91,6.876-6.421-3.707a3.961,3.961,0,0,0-3.583-.007L526.983,273a1.091,1.091,0,0,0,.011,2.068l6.421,3.707a3.961,3.961,0,0,0,3.583.007l2.8-1.614A1.091,1.091,0,0,0,539.781,275.1Zm-118.07-52.12,6.422,3.708a3.958,3.958,0,0,0,3.583.006l2.794-1.613a1.092,1.092,0,0,0-.011-2.069l-6.421-3.707a3.961,3.961,0,0,0-3.583-.007L421.7,220.91A1.092,1.092,0,0,0,421.711,222.978Zm11.741,6.779,2.812,1.624a3.958,3.958,0,0,0,3.583.006l2.8-1.613a1.092,1.092,0,0,0-.011-2.069l-2.812-1.623a3.958,3.958,0,0,0-3.583-.007l-2.795,1.613A1.092,1.092,0,0,0,433.452,229.757Zm10.944,6.319a3.965,3.965,0,0,0,3.583.006l2.795-1.613a1.092,1.092,0,0,0-.012-2.069l-2.812-1.624a3.961,3.961,0,0,0-3.583-.006l-2.794,1.613a1.092,1.092,0,0,0,.011,2.069Zm8.132,4.694a3.961,3.961,0,0,0,3.583.007l2.794-1.614a1.091,1.091,0,0,0-.011-2.068l-2.812-1.624a3.958,3.958,0,0,0-3.583-.006l-2.794,1.613a1.092,1.092,0,0,0,.011,2.069Zm8.1-.61-2.794,1.613a1.092,1.092,0,0,0,.011,2.069l2.812,1.623a3.961,3.961,0,0,0,3.583.007l2.794-1.614a1.091,1.091,0,0,0-.011-2.068l-2.812-1.624A3.958,3.958,0,0,0,460.631,240.16Zm8.3,4.6-3.139,1.812a.987.987,0,0,0,.011,1.87l3.158,1.823a3.577,3.577,0,0,0,3.238.006l3.138-1.812a.987.987,0,0,0-.01-1.87l-3.158-1.823A3.58,3.58,0,0,0,468.935,244.755Zm8.131,4.695-3.138,1.812a.987.987,0,0,0,.01,1.87l3.158,1.823a3.58,3.58,0,0,0,3.238.006l3.139-1.812a.987.987,0,0,0-.01-1.87l-3.158-1.823A3.582,3.582,0,0,0,477.066,249.45Zm8.132,4.7-3.138,1.812a.986.986,0,0,0,.01,1.869l3.158,1.824a3.58,3.58,0,0,0,3.238.006l3.138-1.812a.987.987,0,0,0-.01-1.87l-3.158-1.823A3.577,3.577,0,0,0,485.2,254.145Zm8.132,4.695-3.138,1.812a.986.986,0,0,0,.01,1.869l3.158,1.824a3.583,3.583,0,0,0,3.238.006l3.138-1.812a.987.987,0,0,0-.01-1.87l-3.158-1.823A3.577,3.577,0,0,0,493.33,258.84Zm8.132,4.7-3.138,1.812a.986.986,0,0,0,.01,1.869l3.158,1.824a3.58,3.58,0,0,0,3.238.005l3.138-1.811a.987.987,0,0,0-.01-1.87l-3.158-1.823A3.577,3.577,0,0,0,501.462,263.535Zm11.4,10.2L516,271.928a.987.987,0,0,0-.01-1.869l-3.158-1.823a3.577,3.577,0,0,0-3.238-.006l-3.139,1.812a.987.987,0,0,0,.01,1.869l3.158,1.823A3.579,3.579,0,0,0,512.862,273.74Zm8.131,4.7,3.139-1.812a.986.986,0,0,0-.011-1.869l-3.158-1.823a3.577,3.577,0,0,0-3.238-.006l-3.138,1.812a.986.986,0,0,0,.01,1.869l3.158,1.823A3.577,3.577,0,0,0,520.993,278.435Zm11.429,1.111-3.158-1.823a3.58,3.58,0,0,0-3.238-.006l-3.138,1.812a.987.987,0,0,0,.01,1.87l3.158,1.823a3.58,3.58,0,0,0,3.238.006l3.139-1.812A.987.987,0,0,0,532.422,279.546ZM414.007,227.227l10.2,5.887a3.582,3.582,0,0,0,3.239.005l3.138-1.811a.987.987,0,0,0-.01-1.87l-10.2-5.887a3.58,3.58,0,0,0-3.238,0L414,225.358A.986.986,0,0,0,414.007,227.227Zm15.169,8.758,3.158,1.823a3.577,3.577,0,0,0,3.238.006L438.711,236a.987.987,0,0,0-.011-1.869l-3.158-1.823a3.577,3.577,0,0,0-3.238-.006l-3.138,1.812A.986.986,0,0,0,429.176,235.985Zm8.132,4.695,3.158,1.823a3.577,3.577,0,0,0,3.238.006l3.138-1.812a.986.986,0,0,0-.01-1.869l-3.158-1.823a3.577,3.577,0,0,0-3.238-.006l-3.138,1.812A.986.986,0,0,0,437.308,240.68Zm8.132,4.7L448.6,247.2a3.577,3.577,0,0,0,3.238.006l3.138-1.812a.986.986,0,0,0-.01-1.869l-3.158-1.823a3.577,3.577,0,0,0-3.238-.006l-3.138,1.811A.987.987,0,0,0,445.44,245.375Zm14.528,6.524,3.138-1.812a.986.986,0,0,0-.01-1.869l-3.158-1.824a3.58,3.58,0,0,0-3.238,0l-3.139,1.811a.987.987,0,0,0,.011,1.87l3.158,1.823A3.577,3.577,0,0,0,459.968,251.9Zm8.131,4.695,3.139-1.812a.986.986,0,0,0-.01-1.869l-3.158-1.824a3.58,3.58,0,0,0-3.238-.006l-3.139,1.812a.987.987,0,0,0,.01,1.87l3.158,1.823A3.577,3.577,0,0,0,468.1,256.594Zm8.132,4.7,3.138-1.812a.987.987,0,0,0-.01-1.87l-3.158-1.823a3.58,3.58,0,0,0-3.238-.006l-3.138,1.812a.987.987,0,0,0,.01,1.87l3.158,1.823A3.58,3.58,0,0,0,476.231,261.289Zm8.132,4.7,3.138-1.812a.987.987,0,0,0-.01-1.87l-3.158-1.823a3.58,3.58,0,0,0-3.238-.006l-3.138,1.812a.987.987,0,0,0,.01,1.87l3.158,1.823A3.58,3.58,0,0,0,484.363,265.984Zm8.132,4.695,3.138-1.812a.987.987,0,0,0-.01-1.87l-3.158-1.823a3.577,3.577,0,0,0-3.238-.006l-3.138,1.812a.986.986,0,0,0,.01,1.869l3.158,1.824A3.58,3.58,0,0,0,492.495,270.679Zm8.132,4.694,3.138-1.812a.987.987,0,0,0-.01-1.869l-3.158-1.823a3.577,3.577,0,0,0-3.238-.006l-3.139,1.812a.987.987,0,0,0,.011,1.869l3.157,1.824A3.582,3.582,0,0,0,500.627,275.373Zm1.735,2.866,3.158,1.824a3.58,3.58,0,0,0,3.238.005l3.139-1.812a.987.987,0,0,0-.011-1.869l-3.158-1.823a3.577,3.577,0,0,0-3.238-.006l-3.138,1.812A.987.987,0,0,0,502.362,278.239Zm22.529,5.656-8.031-4.636a3.577,3.577,0,0,0-3.238-.006l-3.138,1.812a.986.986,0,0,0,.01,1.869l8.03,4.636a3.577,3.577,0,0,0,3.238.006l3.139-1.812A.987.987,0,0,0,524.891,283.895ZM406.506,231.8l14.467,8.352a4.039,4.039,0,0,0,3.657.006l2.72-1.57a1.115,1.115,0,0,0-.011-2.112l-14.467-8.352a4.041,4.041,0,0,0-3.658-.006l-2.719,1.57A1.115,1.115,0,0,0,406.506,231.8Zm19.861,11.467,2.737,1.58a4.041,4.041,0,0,0,3.658.006l2.72-1.57a1.115,1.115,0,0,0-.011-2.112l-2.737-1.58a4.044,4.044,0,0,0-3.658-.007l-2.72,1.571A1.115,1.115,0,0,0,426.367,243.268Zm8.132,4.694,2.737,1.581a4.041,4.041,0,0,0,3.658.006l2.72-1.57a1.115,1.115,0,0,0-.012-2.112l-2.737-1.58a4.042,4.042,0,0,0-3.657-.007l-2.72,1.571A1.114,1.114,0,0,0,434.5,247.962Zm8.132,4.695,2.737,1.581a4.041,4.041,0,0,0,3.658.006l2.72-1.57a1.115,1.115,0,0,0-.012-2.112L449,248.982a4.044,4.044,0,0,0-3.658-.007l-2.719,1.571A1.114,1.114,0,0,0,442.631,252.657Zm8.132,4.695,2.737,1.581a4.047,4.047,0,0,0,3.658.006l2.719-1.57a1.115,1.115,0,0,0-.011-2.112l-2.737-1.58a4.044,4.044,0,0,0-3.658-.007l-2.72,1.57A1.115,1.115,0,0,0,450.763,257.352Zm8.132,4.7,2.737,1.58a4.042,4.042,0,0,0,3.657.007l2.72-1.57a1.115,1.115,0,0,0-.011-2.112l-2.737-1.58a4.044,4.044,0,0,0-3.658-.007l-2.72,1.57A1.115,1.115,0,0,0,458.895,262.047Zm8.131,4.7,2.737,1.58a4.044,4.044,0,0,0,3.658.007l2.72-1.571a1.114,1.114,0,0,0-.012-2.111l-2.736-1.58a4.044,4.044,0,0,0-3.658-.007l-2.72,1.57A1.115,1.115,0,0,0,467.026,266.742Zm8.132,4.7,2.737,1.58a4.044,4.044,0,0,0,3.658.007l2.72-1.571a1.114,1.114,0,0,0-.012-2.111l-2.737-1.581a4.042,4.042,0,0,0-3.657-.006l-2.72,1.57A1.115,1.115,0,0,0,475.158,271.437Zm8.132,4.695,2.737,1.58a4.044,4.044,0,0,0,3.658.007l2.72-1.571a1.114,1.114,0,0,0-.012-2.111l-2.737-1.581A4.041,4.041,0,0,0,486,272.45l-2.719,1.57A1.115,1.115,0,0,0,483.29,276.132Zm8.132,4.7,2.737,1.58a4.042,4.042,0,0,0,3.657.007l2.72-1.571a1.115,1.115,0,0,0-.011-2.112l-2.737-1.58a4.041,4.041,0,0,0-3.658-.006l-2.72,1.57A1.115,1.115,0,0,0,491.422,280.827Zm8.132,4.7,2.736,1.58a4.041,4.041,0,0,0,3.658.006l2.72-1.57a1.115,1.115,0,0,0-.011-2.112l-2.737-1.58a4.041,4.041,0,0,0-3.658-.006l-2.72,1.57A1.115,1.115,0,0,0,499.554,285.522Zm17.415,2.7-2.737-1.58a4.041,4.041,0,0,0-3.658-.006l-2.72,1.57a1.115,1.115,0,0,0,.012,2.112l2.737,1.58a4.041,4.041,0,0,0,3.658.006l2.719-1.57A1.115,1.115,0,0,0,516.969,288.225ZM411.686,236.138l-6.346-3.664a4.042,4.042,0,0,0-3.657-.007l-2.72,1.57a1.115,1.115,0,0,0,.011,2.112l6.346,3.664a4.044,4.044,0,0,0,3.658.007l2.72-1.571A1.114,1.114,0,0,0,411.686,236.138Zm8.132,4.694-2.737-1.58a4.039,4.039,0,0,0-3.657-.006l-2.72,1.57a1.115,1.115,0,0,0,.011,2.112l2.737,1.58a4.041,4.041,0,0,0,3.658.006l2.72-1.57A1.115,1.115,0,0,0,419.818,240.832Zm8.132,4.695-2.737-1.58a4.041,4.041,0,0,0-3.658-.006l-2.72,1.57a1.115,1.115,0,0,0,.012,2.112l2.737,1.58a4.041,4.041,0,0,0,3.658.006l2.719-1.57A1.115,1.115,0,0,0,427.95,245.527Zm56.923,32.864-51.528-29.749a4.044,4.044,0,0,0-3.658-.007l-2.72,1.571a1.114,1.114,0,0,0,.012,2.111l51.527,29.75a4.044,4.044,0,0,0,3.658.007l2.72-1.571A1.115,1.115,0,0,0,484.873,278.391Zm8.131,4.7-2.737-1.58a4.039,4.039,0,0,0-3.657-.006l-2.72,1.57a1.115,1.115,0,0,0,.011,2.112l2.737,1.58a4.044,4.044,0,0,0,3.658.007l2.72-1.571A1.115,1.115,0,0,0,493,283.086Zm8.132,4.7L498.4,286.2a4.044,4.044,0,0,0-3.658-.007l-2.719,1.571a1.115,1.115,0,0,0,.011,2.112l2.737,1.58a4.041,4.041,0,0,0,3.658.006l2.72-1.57A1.115,1.115,0,0,0,501.136,287.781Zm8.3,4.793-2.737-1.58a4.044,4.044,0,0,0-3.658-.007l-2.72,1.57a1.115,1.115,0,0,0,.012,2.112l2.737,1.58a4.044,4.044,0,0,0,3.658.007l2.719-1.57A1.115,1.115,0,0,0,509.437,292.574Z" fill="#72b5e8"/>
        <path id="Path_1538" data-name="Path 1538" d="M436.557,213.4l6.857,3.959a3.48,3.48,0,0,0,3.149.006.96.96,0,0,0-.01-1.818l-6.858-3.959a3.478,3.478,0,0,0-3.148-.005A.959.959,0,0,0,436.557,213.4Zm11.741,6.779,3.248,1.875a3.478,3.478,0,0,0,3.148.006.96.96,0,0,0-.01-1.818l-3.248-1.875a3.478,3.478,0,0,0-3.148-.006A.96.96,0,0,0,448.3,220.177Zm8.132,4.695,3.248,1.875a3.481,3.481,0,0,0,3.148.006.96.96,0,0,0-.01-1.818l-3.248-1.875a3.478,3.478,0,0,0-3.148-.006A.96.96,0,0,0,456.43,224.872Zm8.132,4.7,3.248,1.875a3.482,3.482,0,0,0,3.148.006.96.96,0,0,0-.01-1.818l-3.248-1.875a3.475,3.475,0,0,0-3.148-.006A.959.959,0,0,0,464.562,229.567Zm8.131,4.694,3.249,1.876a3.478,3.478,0,0,0,3.148.005.959.959,0,0,0-.01-1.817l-3.248-1.875a3.477,3.477,0,0,0-3.149-.006A.959.959,0,0,0,472.693,234.261Zm8.132,4.695,3.248,1.876a3.478,3.478,0,0,0,3.148.005.959.959,0,0,0-.009-1.817l-3.249-1.876a3.478,3.478,0,0,0-3.148,0A.959.959,0,0,0,480.825,238.956Zm8.132,4.7,3.248,1.875a3.478,3.478,0,0,0,3.148.006.959.959,0,0,0-.01-1.817l-3.248-1.876a3.478,3.478,0,0,0-3.148-.005A.959.959,0,0,0,488.957,243.651Zm8.132,4.695,3.248,1.875a3.478,3.478,0,0,0,3.148.006.96.96,0,0,0-.01-1.818l-3.248-1.875a3.482,3.482,0,0,0-3.148-.006A.96.96,0,0,0,497.089,248.346Zm8.131,4.7,3.249,1.875a3.478,3.478,0,0,0,3.148.006.96.96,0,0,0-.01-1.818l-3.248-1.875a3.482,3.482,0,0,0-3.148-.006A.96.96,0,0,0,505.22,253.041Zm8.132,4.695,3.248,1.875a3.481,3.481,0,0,0,3.149.006.96.96,0,0,0-.01-1.818l-3.248-1.875a3.481,3.481,0,0,0-3.149-.006A.96.96,0,0,0,513.352,257.736Zm8.132,4.7,3.248,1.875a3.482,3.482,0,0,0,3.148.006.959.959,0,0,0-.01-1.818l-3.248-1.875a3.478,3.478,0,0,0-3.148-.006A.96.96,0,0,0,521.484,262.431Zm8.132,4.7L532.864,269a3.482,3.482,0,0,0,3.148.006.96.96,0,0,0-.01-1.818l-3.248-1.875a3.478,3.478,0,0,0-3.148-.006A.96.96,0,0,0,529.616,267.126Zm8.3,4.792,3.248,1.875a3.478,3.478,0,0,0,3.148.006.959.959,0,0,0-.01-1.817l-3.248-1.876a3.478,3.478,0,0,0-3.148,0A.959.959,0,0,0,537.917,271.918ZM429.243,217.872l2.812,1.624a3.961,3.961,0,0,0,3.583.007l2.8-1.614a1.092,1.092,0,0,0-.011-2.069l-2.813-1.623a3.956,3.956,0,0,0-3.582-.006l-2.8,1.613A1.092,1.092,0,0,0,429.243,217.872ZM443.77,224.2l2.8-1.613a1.092,1.092,0,0,0-.012-2.069l-2.812-1.623a3.961,3.961,0,0,0-3.583-.007l-2.794,1.614a1.092,1.092,0,0,0,.011,2.068l2.812,1.624A3.958,3.958,0,0,0,443.77,224.2Zm1.737,3.065,2.812,1.624a3.958,3.958,0,0,0,3.583.006l2.794-1.613a1.092,1.092,0,0,0-.011-2.069l-2.812-1.623a3.961,3.961,0,0,0-3.583-.007l-2.794,1.614A1.091,1.091,0,0,0,445.507,227.262Zm8.132,4.7,2.812,1.624a3.958,3.958,0,0,0,3.583.006l2.794-1.613a1.092,1.092,0,0,0-.011-2.069l-2.812-1.623a3.961,3.961,0,0,0-3.583-.007l-2.795,1.614A1.091,1.091,0,0,0,453.639,231.957Zm17.31,2.643-2.812-1.623a3.961,3.961,0,0,0-3.583-.007l-2.795,1.613a1.092,1.092,0,0,0,.011,2.069l2.813,1.624a3.956,3.956,0,0,0,3.582.006l2.795-1.613A1.092,1.092,0,0,0,470.949,234.6Zm8.131,4.695-2.812-1.624a3.956,3.956,0,0,0-3.582-.006l-2.8,1.613a1.092,1.092,0,0,0,.011,2.069l2.812,1.623a3.961,3.961,0,0,0,3.583.007l2.8-1.614A1.091,1.091,0,0,0,479.08,239.295Zm8.132,4.7-2.812-1.624a3.958,3.958,0,0,0-3.583-.006l-2.794,1.613a1.092,1.092,0,0,0,.011,2.069l2.812,1.623a3.961,3.961,0,0,0,3.583.007l2.8-1.614A1.091,1.091,0,0,0,487.212,243.99Zm8.132,4.695-2.812-1.624a3.958,3.958,0,0,0-3.583-.006l-2.794,1.613a1.092,1.092,0,0,0,.011,2.069l2.812,1.623a3.961,3.961,0,0,0,3.583.007l2.794-1.614A1.091,1.091,0,0,0,495.344,248.685Zm8.132,4.7-2.812-1.624a3.958,3.958,0,0,0-3.583-.006l-2.795,1.613a1.092,1.092,0,0,0,.012,2.069l2.812,1.623a3.961,3.961,0,0,0,3.583.007l2.794-1.614A1.092,1.092,0,0,0,503.476,253.38Zm8.132,4.7-2.812-1.624a3.961,3.961,0,0,0-3.583-.007l-2.8,1.614a1.092,1.092,0,0,0,.011,2.069l2.812,1.623a3.958,3.958,0,0,0,3.583.006l2.795-1.613A1.092,1.092,0,0,0,511.608,258.075Zm-1.047,6.746,2.812,1.624a3.958,3.958,0,0,0,3.583.006l2.795-1.613a1.092,1.092,0,0,0-.012-2.069l-2.812-1.623a3.961,3.961,0,0,0-3.583-.007l-2.794,1.614A1.092,1.092,0,0,0,510.561,264.821Zm17.31,2.643-2.812-1.623a3.961,3.961,0,0,0-3.583-.007l-2.794,1.614a1.091,1.091,0,0,0,.011,2.068l2.812,1.624a3.958,3.958,0,0,0,3.583.006l2.794-1.613A1.092,1.092,0,0,0,527.871,267.464Zm11.91,6.877-6.421-3.708a3.958,3.958,0,0,0-3.583-.006l-2.794,1.613a1.092,1.092,0,0,0,.011,2.069l6.421,3.707a3.961,3.961,0,0,0,3.583.007l2.8-1.614A1.091,1.091,0,0,0,539.781,274.341Zm-118.07-52.12,6.422,3.707a3.961,3.961,0,0,0,3.583.007l2.794-1.614a1.092,1.092,0,0,0-.011-2.068l-6.421-3.707a3.955,3.955,0,0,0-3.583-.007l-2.795,1.613A1.092,1.092,0,0,0,421.711,222.221ZM433.452,229l2.812,1.623a3.961,3.961,0,0,0,3.583.007l2.8-1.614a1.092,1.092,0,0,0-.011-2.068l-2.812-1.624a3.958,3.958,0,0,0-3.583-.006l-2.795,1.613A1.092,1.092,0,0,0,433.452,229Zm10.944,6.318a3.961,3.961,0,0,0,3.583.007l2.795-1.614a1.092,1.092,0,0,0-.012-2.069l-2.812-1.623a3.958,3.958,0,0,0-3.583-.006l-2.794,1.613a1.092,1.092,0,0,0,.011,2.068Zm8.132,4.7a3.958,3.958,0,0,0,3.583.006l2.794-1.613a1.092,1.092,0,0,0-.011-2.069l-2.812-1.623a3.961,3.961,0,0,0-3.583-.007l-2.794,1.614a1.091,1.091,0,0,0,.011,2.068Zm8.1-.611-2.794,1.614a1.091,1.091,0,0,0,.011,2.068l2.812,1.624a3.958,3.958,0,0,0,3.583.006l2.794-1.613a1.092,1.092,0,0,0-.011-2.069l-2.812-1.623A3.961,3.961,0,0,0,460.631,239.4Zm8.3,4.6L465.8,245.81a.987.987,0,0,0,.011,1.869l3.158,1.824a3.58,3.58,0,0,0,3.238,0l3.138-1.811a.987.987,0,0,0-.01-1.87L472.173,244A3.577,3.577,0,0,0,468.935,244Zm8.131,4.695-3.138,1.812a.986.986,0,0,0,.01,1.869L477.1,254.2a3.577,3.577,0,0,0,3.238.006l3.139-1.812a.987.987,0,0,0-.01-1.869L480.3,248.7A3.579,3.579,0,0,0,477.066,248.693Zm8.132,4.7L482.06,255.2a.986.986,0,0,0,.01,1.869l3.158,1.823a3.577,3.577,0,0,0,3.238.006l3.138-1.812a.986.986,0,0,0-.01-1.869l-3.158-1.823A3.577,3.577,0,0,0,485.2,253.388Zm8.132,4.7-3.138,1.812a.986.986,0,0,0,.01,1.869l3.158,1.823a3.577,3.577,0,0,0,3.238.006l3.138-1.812a.986.986,0,0,0-.01-1.869l-3.158-1.824A3.58,3.58,0,0,0,493.33,258.083Zm8.132,4.7-3.138,1.811a.987.987,0,0,0,.01,1.87l3.158,1.823a3.577,3.577,0,0,0,3.238.006l3.138-1.812a.987.987,0,0,0-.01-1.869l-3.158-1.824A3.577,3.577,0,0,0,501.462,262.778Zm11.4,10.2L516,271.171a.987.987,0,0,0-.01-1.87l-3.158-1.823a3.58,3.58,0,0,0-3.238-.006l-3.139,1.812a.987.987,0,0,0,.01,1.87l3.158,1.823A3.582,3.582,0,0,0,512.862,272.983Zm8.131,4.7,3.139-1.812a.987.987,0,0,0-.011-1.87l-3.158-1.823a3.58,3.58,0,0,0-3.238-.006l-3.138,1.812a.987.987,0,0,0,.01,1.87l3.158,1.823A3.58,3.58,0,0,0,520.993,277.678Zm11.429,1.111-3.158-1.823a3.577,3.577,0,0,0-3.238-.006l-3.138,1.812a.986.986,0,0,0,.01,1.869l3.158,1.823a3.577,3.577,0,0,0,3.238.006l3.139-1.812A.986.986,0,0,0,532.422,278.789ZM414.007,226.47l10.2,5.886a3.579,3.579,0,0,0,3.239.006l3.138-1.812a.986.986,0,0,0-.01-1.869l-10.2-5.887a3.58,3.58,0,0,0-3.238-.006L414,224.6A.987.987,0,0,0,414.007,226.47Zm15.169,8.758,3.158,1.823a3.577,3.577,0,0,0,3.238.006l3.139-1.812a.986.986,0,0,0-.011-1.869l-3.158-1.824a3.58,3.58,0,0,0-3.238-.006l-3.138,1.812A.987.987,0,0,0,429.176,235.228Zm8.132,4.7,3.158,1.823a3.58,3.58,0,0,0,3.238.006l3.138-1.812a.987.987,0,0,0-.01-1.87l-3.158-1.823a3.58,3.58,0,0,0-3.238-.006l-3.138,1.812A.987.987,0,0,0,437.308,239.923Zm8.132,4.695,3.158,1.823a3.58,3.58,0,0,0,3.238.006l3.138-1.812a.987.987,0,0,0-.01-1.87l-3.158-1.823a3.58,3.58,0,0,0-3.238-.006l-3.138,1.812A.987.987,0,0,0,445.44,244.618Zm14.528,6.524,3.138-1.812a.987.987,0,0,0-.01-1.87l-3.158-1.823a3.577,3.577,0,0,0-3.238-.006l-3.139,1.812a.987.987,0,0,0,.011,1.869l3.158,1.824A3.58,3.58,0,0,0,459.968,251.142Zm8.131,4.694,3.139-1.811a.987.987,0,0,0-.01-1.87l-3.158-1.823a3.577,3.577,0,0,0-3.238-.006l-3.139,1.812a.986.986,0,0,0,.01,1.869l3.158,1.824A3.577,3.577,0,0,0,468.1,255.836Zm8.132,4.7,3.138-1.812a.986.986,0,0,0-.01-1.869l-3.158-1.823a3.577,3.577,0,0,0-3.238-.006l-3.138,1.812a.986.986,0,0,0,.01,1.869l3.158,1.823A3.577,3.577,0,0,0,476.231,260.531Zm8.132,4.7,3.138-1.812a.986.986,0,0,0-.01-1.869l-3.158-1.823a3.577,3.577,0,0,0-3.238-.006l-3.138,1.812a.986.986,0,0,0,.01,1.869l3.158,1.823A3.577,3.577,0,0,0,484.363,265.226Zm8.132,4.695,3.138-1.812a.987.987,0,0,0-.01-1.869l-3.158-1.824a3.58,3.58,0,0,0-3.238,0l-3.138,1.811a.987.987,0,0,0,.01,1.87l3.158,1.823A3.577,3.577,0,0,0,492.495,269.921Zm8.132,4.7,3.138-1.812a.986.986,0,0,0-.01-1.869l-3.158-1.824a3.583,3.583,0,0,0-3.238-.006l-3.139,1.812a.987.987,0,0,0,.011,1.87l3.157,1.823A3.579,3.579,0,0,0,500.627,274.616Zm1.735,2.866,3.158,1.823a3.577,3.577,0,0,0,3.238.006L511.9,277.5a.987.987,0,0,0-.011-1.87l-3.158-1.823a3.58,3.58,0,0,0-3.238-.006l-3.138,1.812A.987.987,0,0,0,502.362,277.482Zm22.529,5.655L516.86,278.5a3.58,3.58,0,0,0-3.238-.006l-3.138,1.812a.987.987,0,0,0,.01,1.87l8.03,4.636a3.58,3.58,0,0,0,3.238.006l3.139-1.812A.987.987,0,0,0,524.891,283.137ZM406.506,231.043l14.467,8.353a4.045,4.045,0,0,0,3.657.006l2.72-1.57a1.115,1.115,0,0,0-.011-2.112l-14.467-8.352a4.044,4.044,0,0,0-3.658-.007l-2.719,1.57A1.115,1.115,0,0,0,406.506,231.043Zm19.861,11.467,2.737,1.58a4.044,4.044,0,0,0,3.658.007l2.72-1.57a1.115,1.115,0,0,0-.011-2.112l-2.737-1.58a4.044,4.044,0,0,0-3.658-.007l-2.72,1.57A1.115,1.115,0,0,0,426.367,242.51Zm8.132,4.7,2.737,1.58a4.044,4.044,0,0,0,3.658.007l2.72-1.57a1.115,1.115,0,0,0-.012-2.112l-2.737-1.58a4.042,4.042,0,0,0-3.657-.007l-2.72,1.57A1.115,1.115,0,0,0,434.5,247.205Zm8.132,4.695,2.737,1.58a4.044,4.044,0,0,0,3.658.007l2.72-1.571a1.114,1.114,0,0,0-.012-2.111L449,248.225a4.041,4.041,0,0,0-3.658-.007l-2.719,1.57A1.115,1.115,0,0,0,442.631,251.9Zm8.132,4.7,2.737,1.58a4.044,4.044,0,0,0,3.658.007l2.719-1.571a1.115,1.115,0,0,0-.011-2.112l-2.737-1.58a4.041,4.041,0,0,0-3.658-.006l-2.72,1.57A1.115,1.115,0,0,0,450.763,256.6Zm8.132,4.7,2.737,1.58a4.042,4.042,0,0,0,3.657.007l2.72-1.571a1.115,1.115,0,0,0-.011-2.112l-2.737-1.58a4.041,4.041,0,0,0-3.658-.006l-2.72,1.57A1.115,1.115,0,0,0,458.895,261.29Zm8.131,4.695,2.737,1.58a4.041,4.041,0,0,0,3.658.006l2.72-1.57a1.115,1.115,0,0,0-.012-2.112l-2.736-1.58a4.044,4.044,0,0,0-3.658-.007l-2.72,1.571A1.115,1.115,0,0,0,467.026,265.985Zm8.132,4.7,2.737,1.58a4.041,4.041,0,0,0,3.658.006l2.72-1.57a1.115,1.115,0,0,0-.012-2.112L481.524,267a4.042,4.042,0,0,0-3.657-.007l-2.72,1.571A1.115,1.115,0,0,0,475.158,270.68Zm8.132,4.694,2.737,1.581a4.044,4.044,0,0,0,3.658.006l2.72-1.57a1.115,1.115,0,0,0-.012-2.112l-2.737-1.58a4.044,4.044,0,0,0-3.658-.007l-2.719,1.571A1.114,1.114,0,0,0,483.29,275.374Zm8.132,4.7,2.737,1.58a4.039,4.039,0,0,0,3.657.007l2.72-1.57a1.115,1.115,0,0,0-.011-2.112l-2.737-1.58a4.044,4.044,0,0,0-3.658-.007l-2.72,1.571A1.114,1.114,0,0,0,491.422,280.069Zm8.132,4.7,2.736,1.58a4.044,4.044,0,0,0,3.658.007l2.72-1.57a1.115,1.115,0,0,0-.011-2.112l-2.737-1.58a4.044,4.044,0,0,0-3.658-.007l-2.72,1.57A1.115,1.115,0,0,0,499.554,284.764Zm17.415,2.7-2.737-1.58a4.044,4.044,0,0,0-3.658-.007l-2.72,1.57a1.115,1.115,0,0,0,.012,2.112l2.737,1.58a4.044,4.044,0,0,0,3.658.007l2.719-1.57A1.115,1.115,0,0,0,516.969,287.468ZM411.686,235.38l-6.346-3.664a4.039,4.039,0,0,0-3.657-.006l-2.72,1.57a1.115,1.115,0,0,0,.011,2.112l6.346,3.664a4.041,4.041,0,0,0,3.658.006l2.72-1.57A1.115,1.115,0,0,0,411.686,235.38Zm8.132,4.695-2.737-1.58a4.042,4.042,0,0,0-3.657-.007l-2.72,1.57a1.115,1.115,0,0,0,.011,2.112l2.737,1.581a4.047,4.047,0,0,0,3.658.006l2.72-1.57A1.115,1.115,0,0,0,419.818,240.075Zm8.132,4.7-2.737-1.58a4.044,4.044,0,0,0-3.658-.007l-2.72,1.57a1.115,1.115,0,0,0,.012,2.112l2.737,1.58a4.044,4.044,0,0,0,3.658.007l2.719-1.57A1.115,1.115,0,0,0,427.95,244.77Zm56.923,32.864-51.528-29.749a4.044,4.044,0,0,0-3.658-.007l-2.72,1.57a1.115,1.115,0,0,0,.012,2.112l51.527,29.75a4.041,4.041,0,0,0,3.658.006l2.72-1.57A1.115,1.115,0,0,0,484.873,277.634Zm8.131,4.7-2.737-1.58a4.042,4.042,0,0,0-3.657-.007l-2.72,1.571a1.114,1.114,0,0,0,.011,2.111l2.737,1.58a4.041,4.041,0,0,0,3.658.007l2.72-1.57A1.115,1.115,0,0,0,493,282.329Zm8.132,4.695-2.737-1.58a4.044,4.044,0,0,0-3.658-.007l-2.719,1.57a1.115,1.115,0,0,0,.011,2.112l2.737,1.58a4.044,4.044,0,0,0,3.658.007l2.72-1.57A1.115,1.115,0,0,0,501.136,287.024Zm8.3,4.792-2.737-1.58a4.041,4.041,0,0,0-3.658-.006l-2.72,1.57a1.115,1.115,0,0,0,.012,2.112l2.737,1.58a4.041,4.041,0,0,0,3.658.006l2.719-1.57A1.115,1.115,0,0,0,509.437,291.816Z" fill="#a8cff0"/>
        <g id="Group_610" data-name="Group 610">
          <path id="Path_1539" data-name="Path 1539" d="M553.866,269.552l-107.722-62.23c-4.171-2.408-7.552-8.868-7.552-14.428V108.388c0-5.561,3.381-8.117,7.552-5.709l107.722,62.23c4.17,2.408,7.551,8.868,7.551,14.428v84.506C561.417,269.4,558.036,271.96,553.866,269.552Z" fill="#a8cff0"/>
          <path id="Path_1540" data-name="Path 1540" d="M554.838,265.209,448.266,203.65c-3.356-2.133-5.432-6.395-5.432-10.756V107.978a1.339,1.339,0,0,1,2.016-1.153l.236.138,106.658,61.618c4,2.3,5.432,6.4,5.432,10.757v84.717a1.446,1.446,0,0,1-2.161,1.255Z" fill="#03336e"/>
          <path id="Path_1541" data-name="Path 1541" d="M551.744,168.581,445.086,106.963l-.236-.138a1.339,1.339,0,0,0-2.016,1.153v84.915c0,4.362,2.076,8.624,5.432,10.757l106.572,61.559.177.1a1.445,1.445,0,0,0,2.161-1.254V179.338C557.176,174.976,555.74,170.884,551.744,168.581Zm4.584,95.475a.6.6,0,0,1-.6.6.588.588,0,0,1-.293-.08L448.69,202.915c-3.031-1.927-5.008-5.868-5.008-10.022V107.978a.493.493,0,0,1,.493-.491.484.484,0,0,1,.246.07l106.9,61.758c4.139,2.386,5.008,6.768,5.008,10.022Z" fill="#022652"/>
          <path id="Path_1542" data-name="Path 1542" d="M556.006,163.772l-107.722-62.23a5.105,5.105,0,0,0-4.419-.648c-.158.061-2.263,1.179-2.412,1.261l-.007.005a4.941,4.941,0,0,1,4.7.519l107.722,62.23c4.17,2.408,7.551,8.868,7.551,14.428v84.506c0,3.47-1.317,5.77-3.321,6.423a1.248,1.248,0,0,0,.662-.225c.1-.055,2.381-1.344,2.472-1.408,1.434-1,2.327-3.069,2.327-5.927V178.2C563.557,172.64,560.177,166.18,556.006,163.772Z" fill="#3f92d1"/>
          <path id="Path_1543" data-name="Path 1543" d="M556.006,163.772l-107.722-62.23a5.105,5.105,0,0,0-4.419-.648c-.158.061-2.263,1.179-2.412,1.261l-.007.005a4.941,4.941,0,0,1,4.7.519l107.722,62.23Z" fill="#4f9fdb"/>
          <path id="Path_1544" data-name="Path 1544" d="M554.228,164.728,446.506,102.5a5.011,5.011,0,0,0-4.548-.581,5.577,5.577,0,0,1,3.642.853L553.322,165c4.171,2.408,7.552,8.867,7.552,14.428v84.506c0,3.28-1.182,5.5-3,6.29,2.329-.37,3.909-2.763,3.909-6.562V179.156C561.78,173.6,558.4,167.136,554.228,164.728Z" fill="#fff" style="mix-blend-mode: screen;isolation: isolate"/>
        </g>
      </g>
    </g>
    <path id="Path_1545" data-name="Path 1545" d="M544.8,169.061l-90.051-51.17c-.23,11.988-.022,49.55-.089,61.823-.108,19.874-3.082,35.526-26.024,53.484-7.3,5.714-39.509,23.26-65.644,36.994-10.6,5.571-11.407,7.922-16.769,12.464-5.2,4.4-13.166,8.492-15.5,9.85l89.455,51.727c1.672-.992,10.375-5.357,16.09-10.2,5.361-4.542,6.166-9.385,16.769-14.957,26.135-13.733,70.912-41.233,78.862-46,10.2-6.119,12.806-9.971,12.806-26.061C544.707,234.673,544.563,180.827,544.8,169.061Z" fill="#001a46" opacity="0.1"/>
    <path id="Path_1546" data-name="Path 1546" d="M544.8,169.424l-90.051-51.17c-.23,5.733-.022,53.283-.089,65.556-.108,19.874-3.082,25.538-26.024,43.5-7.3,5.714-39.509,23.26-65.644,36.994-10.6,5.571-12.314,12.681-17.676,17.223-5.2,4.4-10.957,5.6-13.288,6.963l89.455,51.726c1.672-.991,8.166-2.469,13.881-7.31,5.362-4.542,7.073-11.651,17.676-17.223,26.135-13.733,58.343-31.28,65.643-36.994,22.943-17.957,25.917-23.622,26.025-43.495C544.775,222.847,544.563,174.935,544.8,169.424Z" fill="#fff"/>
    <g id="Group_617" data-name="Group 617">
      <path id="Path_1547" data-name="Path 1547" d="M463.717,137.931,536.573,179.4v24.108L463.717,162.04V137.931Zm-1.443-2.482v27.43l75.742,43.115v-27.43l-75.742-43.115Z" fill="#fc0"/>
      <path id="Path_1548" data-name="Path 1548" d="M462.53,169.486v14.107l32.084,18.263V187.749Z" fill="#a8cff0"/>
      <path id="Path_1549" data-name="Path 1549" d="M514.531,273.381c18.5-14.483,22.419-19.546,23.234-31.329L506.784,224.6c-.87,11.529-4.891,16.639-23.206,30.974Z" fill="#a8cff0"/>
      <g id="Group_613" data-name="Group 613">
        <path id="Path_1550" data-name="Path 1550" d="M450.646,216.87q-.854.939-1.795,1.9l43.892,24.569q1.012-.943,1.9-1.838Z" fill="#a8cff0"/>
        <path id="Path_1551" data-name="Path 1551" d="M438.738,227.847q-1.026.843-2.116,1.72l43.443,24.318c.1-.077.214-.159.306-.231.638-.5,1.254-.985,1.858-1.462Z" fill="#a8cff0"/>
        <path id="Path_1552" data-name="Path 1552" d="M503.248,225.7c.136-.925.241-1.888.32-2.9L460.256,198.4c-.191.98-.414,1.928-.665,2.855Z" fill="#a8cff0"/>
        <path id="Path_1553" data-name="Path 1553" d="M442.926,224.31q-.99.862-2.05,1.757l43.545,24.375c.73-.587,1.441-1.163,2.117-1.719Z" fill="#a8cff0"/>
        <path id="Path_1554" data-name="Path 1554" d="M456.714,208.505q-.594,1.1-1.283,2.186l44.246,24.768a23.952,23.952,0,0,0,1.263-2.2Z" fill="#a8cff0"/>
        <path id="Path_1555" data-name="Path 1555" d="M458.806,203.795q-.428,1.209-.944,2.375l44.117,24.7a23.392,23.392,0,0,0,.75-2.484Z" fill="#a8cff0"/>
        <path id="Path_1556" data-name="Path 1556" d="M446.925,220.668q-.933.893-1.947,1.814l43.694,24.459q1.068-.906,2.039-1.762Z" fill="#a8cff0"/>
        <path id="Path_1557" data-name="Path 1557" d="M453.958,212.843q-.741,1.008-1.575,2.022l44.107,24.691c.6-.671,1.153-1.327,1.661-1.975Z" fill="#a8cff0"/>
      </g>
      <path id="Path_1558" data-name="Path 1558" d="M356.881,279.142a38.222,38.222,0,0,1-5.962,6.77,32.8,32.8,0,0,1-3.205,2.391l75.755,43.523a30.412,30.412,0,0,0,9-4.95,27.378,27.378,0,0,0,3.859-4.532Z" fill="#a8cff0"/>
      <path id="Path_1559" data-name="Path 1559" d="M396.916,288.546c5.217-2.742,15.2-8.017,25.959-13.855l-31.6-17.653C380.4,262.944,370.27,268.3,365,271.065Z" fill="#a8cff0"/>
      <g id="Group_614" data-name="Group 614">
        <path id="Path_1560" data-name="Path 1560" d="M472.185,297.834l2.636-1.425-77.092-43.078q-1.317.722-2.63,1.436Z" fill="#a8cff0"/>
        <path id="Path_1561" data-name="Path 1561" d="M403.032,250.412l-2.617,1.444,77.107,43.086q1.33-.723,2.626-1.431Z" fill="#a8cff0"/>
        <path id="Path_1562" data-name="Path 1562" d="M413.54,244.517q-1.272.726-2.581,1.465l77.166,43.135c.882-.49,1.752-.974,2.6-1.447Z" fill="#a8cff0"/>
        <path id="Path_1563" data-name="Path 1563" d="M408.306,247.475q-1.291.723-2.6,1.454l77.133,43.108q1.33-.73,2.613-1.439Z" fill="#a8cff0"/>
        <path id="Path_1564" data-name="Path 1564" d="M428.8,235.391c-.754.49-1.563,1.006-2.434,1.549l77.39,43.284q1.324-.78,2.516-1.495Z" fill="#a8cff0"/>
        <path id="Path_1565" data-name="Path 1565" d="M423.826,238.5c-.8.487-1.644.99-2.512,1.505L498.6,283.218c.88-.5,1.734-1,2.554-1.473Z" fill="#a8cff0"/>
        <path id="Path_1566" data-name="Path 1566" d="M418.721,241.529q-1.248.729-2.553,1.481l77.213,43.169q1.323-.745,2.58-1.458Z" fill="#a8cff0"/>
      </g>
      <g id="Group_615" data-name="Group 615">
        <path id="Path_1567" data-name="Path 1567" d="M407.386,288.25l-2.671,1.414,40.732,22.764q1.124-.792,2.4-1.563Z" fill="#a8cff0"/>
        <path id="Path_1568" data-name="Path 1568" d="M412.781,285.382l-2.664,1.418L450.5,309.375l2.674-1.409Z" fill="#a8cff0"/>
        <path id="Path_1569" data-name="Path 1569" d="M401.976,291.109l-1.7.894-.981.515,41.884,23.4q.936-.891,2.01-1.778Z" fill="#a8cff0"/>
        <path id="Path_1570" data-name="Path 1570" d="M423.522,279.617q-1.336.723-2.648,1.429l40.437,22.612c.894-.475,1.783-.949,2.66-1.417Z" fill="#a8cff0"/>
        <path id="Path_1571" data-name="Path 1571" d="M418.16,282.5q-1.353.726-2.656,1.423l40.411,22.594,2.667-1.413Z" fill="#a8cff0"/>
        <path id="Path_1572" data-name="Path 1572" d="M428.867,276.721l-2.575,1.4-.066.035,40.465,22.633,2.653-1.422Z" fill="#a8cff0"/>
      </g>
      <g id="Group_616" data-name="Group 616">
        <path id="Path_1573" data-name="Path 1573" d="M462.273,190.866,538.13,233.8v-3.141l-75.857-42.933Z" fill="#a8cff0"/>
        <path id="Path_1574" data-name="Path 1574" d="M498.265,198.984l39.865,22.562V218.4l-39.865-22.562Z" fill="#a8cff0"/>
        <path id="Path_1575" data-name="Path 1575" d="M498.265,189.456v3.4L538.13,215.42v-3.272Z" fill="#a8cff0"/>
        <path id="Path_1576" data-name="Path 1576" d="M498.265,205.11l39.865,22.563v-3.141l-39.865-22.562Z" fill="#a8cff0"/>
      </g>
    </g>
    <g id="Group_623" data-name="Group 623">
      <path id="Path_1577" data-name="Path 1577" d="M611.739,139.254c-9.4-5.427-17.96-6.246-24.384-3.2l-5.169,2.928v.027c6.411-2.98,14.925-2.136,24.267,3.258,19.943,11.514,36.109,39.4,36.109,62.283,0,11.107-3.809,18.994-10.01,22.854l3.465-2.025c7.267-3.383,11.83-11.683,11.83-23.84C647.848,178.653,631.681,150.768,611.739,139.254Z" fill="#001a46"/>
      <g id="Group_619" data-name="Group 619">
        <path id="Path_1578" data-name="Path 1578" d="M606.454,142.265c-19.942-11.514-36.109-2.3-36.109,20.587s16.167,50.769,36.109,62.283,36.109,2.3,36.109-20.588S626.4,153.779,606.454,142.265Z" fill="url(#linear-gradient)"/>
        <g id="Group_618" data-name="Group 618">
          <path id="Path_1579" data-name="Path 1579" d="M606.989,141.959c-10.114-5.839-19.254-6.343-25.809-2.44,6.513-3.566,15.433-2.936,25.274,2.746,19.942,11.514,36.109,39.4,36.109,62.282,0,11.279-3.929,19.234-10.3,23.028,6.685-3.661,10.834-11.742,10.834-23.333C643.1,181.358,626.932,153.473,606.989,141.959Z" fill="#084c94"/>
        </g>
        <ellipse id="Ellipse_15" data-name="Ellipse 15" cx="29.39" cy="50.907" rx="29.39" ry="50.907" transform="matrix(0.863, -0.505, 0.505, 0.863, 555.389, 154.584)" fill="#03336e"/>
        <ellipse id="Ellipse_16" data-name="Ellipse 16" cx="27.799" cy="48.151" rx="27.799" ry="48.151" transform="matrix(0.863, -0.505, 0.505, 0.863, 558.154, 156.161)" fill="#e6f4ff"/>
        <ellipse id="Ellipse_17" data-name="Ellipse 17" cx="23.792" cy="41.21" rx="23.792" ry="41.21" transform="translate(565.116 160.13) rotate(-30.311)" fill="#72b5e8"/>
        <ellipse id="Ellipse_18" data-name="Ellipse 18" cx="19.284" cy="33.402" rx="19.284" ry="33.402" transform="matrix(0.863, -0.505, 0.505, 0.863, 572.949, 164.596)" fill="#e6f4ff"/>
        <ellipse id="Ellipse_19" data-name="Ellipse 19" cx="15.026" cy="26.028" rx="15.026" ry="26.028" transform="matrix(0.863, -0.505, 0.505, 0.863, 580.346, 168.814)" fill="#72b5e8"/>
        <ellipse id="Ellipse_20" data-name="Ellipse 20" cx="11.019" cy="19.087" rx="11.019" ry="19.087" transform="translate(587.308 172.783) rotate(-30.311)" fill="#e6f4ff"/>
        <path id="Path_1580" data-name="Path 1580" d="M606.981,222.562c-18.863-10.89-34.154-37.265-34.154-58.911,0-10.333,3.487-17.717,9.182-21.431-6.006,3.6-9.709,11.113-9.709,21.761,0,21.645,15.291,48.02,34.154,58.91,9.858,5.692,18.738,6.025,24.972,1.959C625.224,228.564,616.564,228.1,606.981,222.562Z" fill="#a8cff0"/>
        <path id="Path_1581" data-name="Path 1581" d="M606.981,210.558C593.9,203,583.289,184.707,583.289,169.692c0-7.2,2.44-12.325,6.418-14.892-4.291,2.443-6.945,7.71-6.945,15.221,0,15.015,10.607,33.311,23.692,40.866,6.814,3.934,12.953,4.172,17.275,1.383C619.442,214.711,613.521,214.333,606.981,210.558Z" fill="#a8cff0"/>
        <path id="Path_1582" data-name="Path 1582" d="M606.981,198.906c-7.477-4.317-13.538-14.772-13.538-23.352,0-4,1.318-6.885,3.482-8.389-2.475,1.386-4.009,4.4-4.009,8.718,0,8.58,6.061,19.035,13.538,23.352,3.991,2.3,7.578,2.393,10.056.671C614.064,201.275,610.7,201.052,606.981,198.906Z" fill="#a8cff0"/>
        <path id="Path_1583" data-name="Path 1583" d="M614.762,188.5c0,5.265-3.72,7.386-8.308,4.737s-8.308-9.065-8.308-14.329,3.72-7.386,8.308-4.737S614.762,183.231,614.762,188.5Z" fill="#eb4680"/>
        <path id="Path_1584" data-name="Path 1584" d="M607.16,183.815c0,.313-.222.439-.495.281a1.087,1.087,0,0,1-.494-.852c0-.313.221-.439.494-.282A1.09,1.09,0,0,1,607.16,183.815Z" fill="#231f20" opacity="0.5"/>
        <path id="Path_1585" data-name="Path 1585" d="M606.454,174.167c-2.075-1.2-3.971-1.418-5.427-.815a6.6,6.6,0,0,1,4.875,1c4.588,2.649,8.308,9.065,8.308,14.329,0,2.884-1.118,4.822-2.881,5.552,2.08-.532,3.433-2.561,3.433-5.736C614.762,183.231,611.042,176.816,606.454,174.167Z" fill="#f779a5"/>
      </g>
      <g id="Group_622" data-name="Group 622">
        <path id="Path_1586" data-name="Path 1586" d="M535.159,225.373l-3.079-.415a1.56,1.56,0,0,1-.2-3.05l17.262-4.718Z" fill="#fc0"/>
        <path id="Path_1587" data-name="Path 1587" d="M535.28,225.072l-3.079-.415a1.549,1.549,0,0,1-1.292-1.982,1.559,1.559,0,0,0,1.171,2.283l3.079.415,13.98-8.183-.739.2Z" fill="#ffde17"/>
        <path id="Path_1588" data-name="Path 1588" d="M532.154,224.745l3.079.415,13.362-7.822-.195.054-13.12,7.68-3.079-.415a1.549,1.549,0,0,1-1.292-1.982c-.018.035-.033.071-.048.107A1.544,1.544,0,0,0,532.154,224.745Z" fill="#fff"/>
        <g id="Group_620" data-name="Group 620">
          <path id="Path_1589" data-name="Path 1589" d="M606.928,183.631a.157.157,0,0,1-.063.142,20.761,20.761,0,0,1-6.035,4.864c-6.122,3.546-7.1,3.785-7.1,3.785-.165.092-.061-.113-.308-.256a1.975,1.975,0,0,1-.9-1.547c0-.281-.26-.283-.1-.377,0,0,.709-.693,6.838-4.238a20.108,20.108,0,0,1,7.285-2.777.161.161,0,0,1,.157.017A.492.492,0,0,1,606.928,183.631Z" fill="#fc0"/>
          <path id="Path_1590" data-name="Path 1590" d="M593.955,191.861c0,.569-.4.8-.9.512a1.978,1.978,0,0,1-.9-1.547c0-.569.4-.8.9-.512A1.978,1.978,0,0,1,593.955,191.861Z" fill="#ffde17"/>
        </g>
        <g id="Group_621" data-name="Group 621">
          <path id="Path_1591" data-name="Path 1591" d="M593.776,191.882a.6.6,0,0,1-.241.544l-59.324,34.749c-.155.087-.056-.11-.291-.245a1.887,1.887,0,0,1-.856-1.477c0-.269-.248-.271-.1-.36l59.354-34.754a.611.611,0,0,1,.6.066A1.887,1.887,0,0,1,593.776,191.882Z" fill="#2672ab"/>
          <path id="Path_1592" data-name="Path 1592" d="M534.429,226.638c0,.543-.383.761-.856.488a1.885,1.885,0,0,1-.856-1.476c0-.543.383-.762.856-.489A1.887,1.887,0,0,1,534.429,226.638Z" fill="#3f92d1"/>
        </g>
        <path id="Path_1593" data-name="Path 1593" d="M534.645,224.243l14.279-8.226L537.78,215.1a4.819,4.819,0,0,0-4.207,7.75Z" fill="#ffde17"/>
        <path id="Path_1594" data-name="Path 1594" d="M534.871,224.2l14.279-8.227-11.144-.912a4.819,4.819,0,0,0-4.207,7.75Z" fill="#fc0"/>
        <path id="Path_1595" data-name="Path 1595" d="M534.01,222.9a4.82,4.82,0,0,1,4.207-7.751l10.822.886.111-.064-11.144-.912a4.819,4.819,0,0,0-4.207,7.75l1.072,1.389.1-.057Z" fill="#fff"/>
        <path id="Path_1596" data-name="Path 1596" d="M535.549,225.919l.351,1.26a4.03,4.03,0,0,0,7.283,1.084l6.645-10.443Z" fill="#ffde17"/>
        <path id="Path_1597" data-name="Path 1597" d="M535.77,225.738l.351,1.26a4.03,4.03,0,0,0,7.283,1.084l6.645-10.442Z" fill="#fc0"/>
        <path id="Path_1598" data-name="Path 1598" d="M543.525,227.871a4.031,4.031,0,0,1-7.284-1.084l-.316-1.137-.155.088.351,1.26a4.03,4.03,0,0,0,7.283,1.084l6.645-10.442-.021.012Z" fill="#fff"/>
      </g>
    </g>
    <g id="Group_644" data-name="Group 644">
      <path id="Path_1599" data-name="Path 1599" d="M398.989,158.1l11.394-12.016a2.579,2.579,0,0,1,2.243-.827,2.151,2.151,0,0,1,.783.292l9.787,5.837a2.832,2.832,0,0,1,1.381,2.432v10.7a2.774,2.774,0,0,1-.115.784,3.882,3.882,0,0,1-3.042,2.619l-15.53,2.967Z" fill="#084c94"/>
      <path id="Path_1600" data-name="Path 1600" d="M407.1,162.827v6.494a1.626,1.626,0,0,1-2.438,1.408l-5.619-3.244a1.625,1.625,0,0,1-.813-1.408v-6.6a1.626,1.626,0,0,1,2.459-1.4l5.618,3.351A1.624,1.624,0,0,1,407.1,162.827Z" fill="#2672ab"/>
      <g id="Group_624" data-name="Group 624">
        <path id="Path_1601" data-name="Path 1601" d="M406.687,167.779a2.8,2.8,0,0,1-1.171,2.539c-.025.015-22.356,12.318-22.382,12.332-.916.512-1.456-.02-2.952-.883-2.761-1.594-5-5.125-5-7.886,0-1.355-.372-1.795.5-2.19.066-.03,22.551-12.41,22.621-12.434a4.219,4.219,0,0,1,3.379.636C404.448,161.487,406.687,165.018,406.687,167.779Z" fill="#3f92d1"/>
        <path id="Path_1602" data-name="Path 1602" d="M388.841,178.515c0,2.792-2.264,3.749-5.057,2.137s-5.056-5.183-5.056-7.976,2.264-3.749,5.056-2.137S388.841,175.722,388.841,178.515Z"/>
      </g>
      <g id="Group_625" data-name="Group 625">
        <path id="Path_1603" data-name="Path 1603" d="M329.585,206.262v46.812l-24.257-14V191.8Z" fill="#a8cff0"/>
        <path id="Path_1604" data-name="Path 1604" d="M327.889,207.225l-20.865-12.444v43.312l20.865,12.043Z" fill="#2672ab"/>
        <path id="Path_1605" data-name="Path 1605" d="M329.518,206.262v46.812l65.542-37.736V168.06Z" fill="#72b5e8"/>
        <path id="Path_1606" data-name="Path 1606" d="M393.364,214.357V171.011l-62.15,36.225v42.9Z" fill="#084c94"/>
        <path id="Path_1607" data-name="Path 1607" d="M395.06,168.06l-65.542,38.2L305.328,191.8l65.658-38.037Z" fill="#d1ebff"/>
        <path id="Path_1608" data-name="Path 1608" d="M391.716,168.046l-20.741-12.322-62.3,36.094,20.859,12.474Z" fill="#2672ab"/>
      </g>
      <g id="Group_626" data-name="Group 626">
        <path id="Path_1609" data-name="Path 1609" d="M359.759,198.025v24.719l-3.33-1.878v-24.84Z" fill="#a8cff0"/>
        <path id="Path_1610" data-name="Path 1610" d="M359.742,198.025v24.719l36.9-21.314V176.59Z" fill="#72b5e8"/>
        <path id="Path_1611" data-name="Path 1611" d="M396.645,176.59l-36.9,21.435-3.313-2,36.933-21.392Z" fill="#d1ebff"/>
      </g>
      <g id="Group_627" data-name="Group 627">
        <path id="Path_1612" data-name="Path 1612" d="M332.706,165.861v32.63L315.8,188.731V155.777Z" fill="#a8cff0"/>
        <path id="Path_1613" data-name="Path 1613" d="M332.659,165.861v32.63l40.613-23.4V142.135Z" fill="#3f92d1"/>
        <path id="Path_1614" data-name="Path 1614" d="M373.272,142.135l-40.613,23.725L315.8,155.777l40.694-23.611Z" fill="url(#linear-gradient-2)"/>
      </g>
      <g id="Group_629" data-name="Group 629">
        <ellipse id="Ellipse_21" data-name="Ellipse 21" cx="29.979" cy="16.96" rx="29.979" ry="16.96" transform="translate(329.955 147.814) rotate(-53.051)" fill="#a8cff0"/>
        <ellipse id="Ellipse_22" data-name="Ellipse 22" cx="29.979" cy="16.96" rx="29.979" ry="16.96" transform="matrix(0.601, -0.799, 0.799, 0.601, 331.559, 148.536)" fill="#72b5e8"/>
        <path id="Path_1615" data-name="Path 1615" d="M341.69,148.044c0,5.4,1.941,9.222,5.163,11.194.108.066,14.576,8.291,14.687,8.353,4.038,2.256,6.421-.089,13.013-3.9,12.171-7.027,22.037-22.59,22.037-34.76,0-5.975,1.641-7.915-2.22-9.655-.291-.131-15.436-8.695-15.744-8.8-3.922-1.336-9.154-.514-14.9,2.8C351.557,120.311,341.69,135.873,341.69,148.044Z" fill="#03336e"/>
        <ellipse id="Ellipse_23" data-name="Ellipse 23" cx="29.979" cy="16.96" rx="29.979" ry="16.96" transform="translate(344.61 155.776) rotate(-53.051)" fill="#a8cff0"/>
        <ellipse id="Ellipse_24" data-name="Ellipse 24" cx="29.979" cy="16.96" rx="29.979" ry="16.96" transform="translate(346.099 156.721) rotate(-53.051)" fill="#72b5e8"/>
        <ellipse id="Ellipse_25" data-name="Ellipse 25" cx="25.478" cy="14.414" rx="25.478" ry="14.414" transform="matrix(0.601, -0.799, 0.799, 0.601, 350.886, 154.755)" fill="#3f92d1"/>
        <path id="Path_1616" data-name="Path 1616" d="M389.171,121.079c4.082,1.158,6.671,4.865,6.671,10.674,0,10.584-8.58,24.117-19.164,30.228-4.293,2.478-8.256,3.354-11.45,2.815,3.355.951,7.718.182,12.493-2.575,10.583-6.11,19.163-19.644,19.163-30.227C396.884,125.7,393.853,121.87,389.171,121.079Z" fill="#2672ab"/>
        <g id="Group_628" data-name="Group 628">
          <path id="Path_1617" data-name="Path 1617" d="M370.908,146.154a3.327,3.327,0,0,0,1.394,3.023l2.65,1.505c1.091.609,1.734-.024,3.514-1.052,3.287-1.9,5.951-6.1,5.951-9.386,0-1.613.443-2.137-.6-2.607-.079-.035-2.853-1.6-2.936-1.626a5.019,5.019,0,0,0-4.023.757C373.573,138.665,370.908,142.868,370.908,146.154Z" fill="#a8cff0"/>
          <path id="Path_1618" data-name="Path 1618" d="M373.477,147.623c0,3.286,2.664,4.412,5.95,2.514s5.951-6.1,5.951-9.386-2.664-4.412-5.951-2.515S373.477,144.336,373.477,147.623Z" fill="#72b5e8"/>
          <path id="Path_1619" data-name="Path 1619" d="M374.682,146.853c0,2.6,2.1,3.487,4.7,1.988s4.7-4.821,4.7-7.419-2.106-3.487-4.7-1.987S374.682,144.256,374.682,146.853Z" fill="#084c94"/>
          <path id="Path_1620" data-name="Path 1620" d="M382.113,138.737a2.67,2.67,0,0,1,1.012,2.325c0,2.6-2.105,5.918-4.7,7.418a4.4,4.4,0,0,1-2.727.7c.861.593,2.192.527,3.69-.337,2.6-1.5,4.7-4.821,4.7-7.419C384.088,139.843,383.307,138.9,382.113,138.737Z" fill="#03336e"/>
        </g>
      </g>
      <g id="Group_630" data-name="Group 630">
        <path id="Path_1621" data-name="Path 1621" d="M324.5,225.149a4.779,4.779,0,0,1-2,4.342c-.042.025-3.764,2.139-3.807,2.163-1.567.875-2.491-.035-5.048-1.511-4.721-2.726-8.548-8.763-8.548-13.484,0-2.317-.637-3.07.861-3.745.113-.051,4.1-2.295,4.217-2.336,1.521-.518,3.551-.2,5.779,1.087C320.671,214.391,324.5,220.428,324.5,225.149Z" fill="#3f92d1"/>
        <ellipse id="Ellipse_26" data-name="Ellipse 26" cx="6.43" cy="11.365" rx="6.43" ry="11.365" transform="matrix(0.799, -0.601, 0.601, 0.799, 300.291, 217.106)" fill="#72b5e8"/>
      </g>
      <g id="Group_631" data-name="Group 631">
        <path id="Path_1622" data-name="Path 1622" d="M318.011,227.116a4.02,4.02,0,0,1-1.684,3.652c-.035.021-15.517,8.714-15.553,8.734-1.317.736-2.1-.029-4.245-1.271-3.97-2.292-7.189-7.369-7.189-11.339,0-1.95-.535-2.582.724-3.15.1-.043,15.8-8.846,15.9-8.88a6.065,6.065,0,0,1,4.86.914C314.793,218.069,318.011,223.146,318.011,227.116Z" fill="#084c94"/>
      </g>
      <g id="Group_632" data-name="Group 632">
        <path id="Path_1623" data-name="Path 1623" d="M256.862,219.529l40.752-.205a2.66,2.66,0,0,1,1.737.211l7.53,4.49a2.178,2.178,0,0,1,1.062,1.871v8.228a4.371,4.371,0,0,1-1.083,2.356l-19.929,34.714Z" fill="#084c94"/>
      </g>
      <path id="Path_1624" data-name="Path 1624" d="M386.972,201.671V188.029l-19.7,11.339v13.726Z" fill="#03336e"/>
      <path id="Path_1625" data-name="Path 1625" d="M372.6,194.952v-1.833l-4.756,2.845v1.822Z" fill="#3f92d1"/>
      <path id="Path_1626" data-name="Path 1626" d="M372.9,195.073v-1.834l-4.756,2.845v1.822Z" fill="#a8cff0"/>
      <path id="Path_1627" data-name="Path 1627" d="M379.007,191.163V189.33l-4.756,2.845V194Z" fill="#3f92d1"/>
      <path id="Path_1628" data-name="Path 1628" d="M379.308,191.284V189.45l-4.756,2.845v1.822Z" fill="#a8cff0"/>
      <path id="Path_1629" data-name="Path 1629" d="M385.443,187.375v-1.833l-4.756,2.845v1.822Z" fill="#3f92d1"/>
      <path id="Path_1630" data-name="Path 1630" d="M385.743,187.495v-1.833l-4.756,2.845v1.822Z" fill="#a8cff0"/>
      <path id="Path_1631" data-name="Path 1631" d="M372.6,212.724v-1.834l-4.756,2.845v1.822Z" fill="#3f92d1"/>
      <path id="Path_1632" data-name="Path 1632" d="M372.9,212.844v-1.834l-4.756,2.845v1.822Z" fill="#a8cff0"/>
      <path id="Path_1633" data-name="Path 1633" d="M379.007,208.935V207.1l-4.756,2.845v1.822Z" fill="#3f92d1"/>
      <path id="Path_1634" data-name="Path 1634" d="M379.308,209.055v-1.834l-4.756,2.845v1.822Z" fill="#a8cff0"/>
      <path id="Path_1635" data-name="Path 1635" d="M385.443,205.146v-1.833l-4.756,2.845v1.822Z" fill="#3f92d1"/>
      <path id="Path_1636" data-name="Path 1636" d="M385.743,205.267v-1.834l-4.756,2.845V208.1Z" fill="#a8cff0"/>
      <path id="Path_1637" data-name="Path 1637" d="M386.29,188.422V201.35l-19.015,11.028v.716l19.7-11.423V188.029Z" fill="#001a46"/>
      <g id="Group_633" data-name="Group 633">
        <path id="Path_1638" data-name="Path 1638" d="M388.538,189.548a2.328,2.328,0,0,1,1.057-1.823.734.734,0,0,1,.764-.066l.567.308-.207.35c0,.02,0,.039,0,.059a2.33,2.33,0,0,1-1.057,1.824c-.028.016-.054.029-.081.042l-.17.288-.476-.263A.686.686,0,0,1,388.538,189.548Z" fill="#3f92d1"/>
        <path id="Path_1639" data-name="Path 1639" d="M389.088,189.847c0,.67.473.94,1.057.6a2.329,2.329,0,0,0,1.058-1.823c0-.67-.474-.94-1.058-.6A2.328,2.328,0,0,0,389.088,189.847Z" fill="#a8cff0"/>
      </g>
      <g id="Group_634" data-name="Group 634">
        <path id="Path_1640" data-name="Path 1640" d="M388.538,194.537a2.33,2.33,0,0,1,1.057-1.824.734.734,0,0,1,.764-.065l.567.307-.207.351c0,.019,0,.038,0,.059a2.328,2.328,0,0,1-1.057,1.823c-.028.016-.054.029-.081.042l-.17.289-.476-.264A.684.684,0,0,1,388.538,194.537Z" fill="#3f92d1"/>
        <path id="Path_1641" data-name="Path 1641" d="M389.088,194.836c0,.67.473.94,1.057.6a2.331,2.331,0,0,0,1.058-1.824c0-.67-.474-.94-1.058-.6A2.33,2.33,0,0,0,389.088,194.836Z" fill="#a8cff0"/>
      </g>
      <g id="Group_635" data-name="Group 635">
        <path id="Path_1642" data-name="Path 1642" d="M388.538,199.237a2.328,2.328,0,0,1,1.057-1.823.734.734,0,0,1,.764-.065l.567.307-.207.35c0,.02,0,.039,0,.059a2.33,2.33,0,0,1-1.057,1.824c-.028.016-.054.029-.081.042l-.17.289-.476-.264A.686.686,0,0,1,388.538,199.237Z" fill="#3f92d1"/>
        <path id="Path_1643" data-name="Path 1643" d="M389.088,199.537c0,.67.473.939,1.057.6a2.329,2.329,0,0,0,1.058-1.823c0-.67-.474-.94-1.058-.6A2.33,2.33,0,0,0,389.088,199.537Z" fill="#a8cff0"/>
      </g>
      <g id="Group_636" data-name="Group 636">
        <path id="Path_1644" data-name="Path 1644" d="M392.086,187.792a2.332,2.332,0,0,1,1.058-1.824.736.736,0,0,1,.764-.065l.566.308-.206.35c0,.02,0,.039,0,.059a2.33,2.33,0,0,1-1.057,1.824c-.027.015-.054.028-.081.042l-.17.288-.475-.263A.685.685,0,0,1,392.086,187.792Z" fill="#3f92d1"/>
        <path id="Path_1645" data-name="Path 1645" d="M392.636,188.091c0,.67.474.94,1.058.6a2.328,2.328,0,0,0,1.057-1.823c0-.671-.473-.94-1.057-.6A2.329,2.329,0,0,0,392.636,188.091Z" fill="#a8cff0"/>
      </g>
      <g id="Group_637" data-name="Group 637">
        <path id="Path_1646" data-name="Path 1646" d="M392.086,192.781a2.329,2.329,0,0,1,1.058-1.824.734.734,0,0,1,.764-.065l.566.307-.206.351c0,.019,0,.038,0,.059a2.328,2.328,0,0,1-1.057,1.823c-.027.016-.054.029-.081.042l-.17.289-.475-.264A.684.684,0,0,1,392.086,192.781Z" fill="#3f92d1"/>
        <path id="Path_1647" data-name="Path 1647" d="M392.636,193.08c0,.67.474.94,1.058.6a2.331,2.331,0,0,0,1.057-1.824c0-.67-.473-.94-1.057-.6A2.331,2.331,0,0,0,392.636,193.08Z" fill="#a8cff0"/>
      </g>
      <g id="Group_638" data-name="Group 638">
        <path id="Path_1648" data-name="Path 1648" d="M392.086,197.481a2.329,2.329,0,0,1,1.058-1.823.734.734,0,0,1,.764-.066l.566.308-.206.35c0,.02,0,.039,0,.059a2.33,2.33,0,0,1-1.057,1.824c-.027.016-.054.029-.081.042l-.17.288-.475-.263A.685.685,0,0,1,392.086,197.481Z" fill="#3f92d1"/>
        <path id="Path_1649" data-name="Path 1649" d="M392.636,197.78c0,.67.474.94,1.058.6a2.328,2.328,0,0,0,1.057-1.823c0-.67-.473-.94-1.057-.6A2.329,2.329,0,0,0,392.636,197.78Z" fill="#a8cff0"/>
      </g>
      <g id="Group_639" data-name="Group 639">
        <path id="Path_1650" data-name="Path 1650" d="M362.677,203.22a2.329,2.329,0,0,1,1.058-1.823.732.732,0,0,1,.764-.065l.566.307-.206.35c0,.02,0,.039,0,.059a2.33,2.33,0,0,1-1.057,1.824c-.027.016-.054.029-.081.042l-.17.289-.475-.264A.685.685,0,0,1,362.677,203.22Z" fill="#3f92d1"/>
        <path id="Path_1651" data-name="Path 1651" d="M363.227,203.52c0,.67.474.94,1.058.6a2.328,2.328,0,0,0,1.057-1.823c0-.67-.473-.94-1.057-.6A2.331,2.331,0,0,0,363.227,203.52Z" fill="#a8cff0"/>
      </g>
      <g id="Group_640" data-name="Group 640">
        <path id="Path_1652" data-name="Path 1652" d="M362.677,208.209a2.331,2.331,0,0,1,1.058-1.824.734.734,0,0,1,.764-.065l.566.307-.206.351c0,.019,0,.038,0,.059a2.328,2.328,0,0,1-1.057,1.823c-.027.016-.054.029-.081.042l-.17.289-.475-.264A.683.683,0,0,1,362.677,208.209Z" fill="#3f92d1"/>
        <path id="Path_1653" data-name="Path 1653" d="M363.227,208.508c0,.67.474.94,1.058.6a2.33,2.33,0,0,0,1.057-1.824c0-.67-.473-.94-1.057-.6A2.331,2.331,0,0,0,363.227,208.508Z" fill="#a8cff0"/>
      </g>
      <g id="Group_641" data-name="Group 641">
        <path id="Path_1654" data-name="Path 1654" d="M362.677,212.909a2.329,2.329,0,0,1,1.058-1.823.732.732,0,0,1,.764-.065l.566.307-.206.35c0,.02,0,.039,0,.059a2.33,2.33,0,0,1-1.057,1.824c-.027.016-.054.029-.081.042l-.17.289-.475-.264A.685.685,0,0,1,362.677,212.909Z" fill="#3f92d1"/>
        <path id="Path_1655" data-name="Path 1655" d="M363.227,213.209c0,.67.474.939,1.058.6a2.328,2.328,0,0,0,1.057-1.823c0-.67-.473-.94-1.057-.6A2.331,2.331,0,0,0,363.227,213.209Z" fill="#a8cff0"/>
      </g>
      <path id="Path_1656" data-name="Path 1656" d="M282.223,272.088l-22.7-13.105c-3.079-1.777-5.575-6.547-5.575-10.652V224.358c0-4.1,2.5-5.992,5.575-4.215l22.7,13.1c3.079,1.777,5.575,6.546,5.575,10.652v23.973C287.8,271.978,285.3,273.865,282.223,272.088Z" fill="#2672ab"/>
      <path id="Path_1657" data-name="Path 1657" d="M282.223,233.248l-22.7-13.1a3.771,3.771,0,0,0-3.236-.48,4.017,4.017,0,0,1,2.815.6l22.7,13.1c3.079,1.778,5.575,6.547,5.575,10.652v23.973c0,2.495-.925,4.163-2.339,4.695,1.649-.339,2.76-2.081,2.76-4.815V243.9C287.8,239.794,285.3,235.025,282.223,233.248Z" fill="#3f92d1"/>
      <path id="Path_1658" data-name="Path 1658" d="M281.19,269.435l-21.168-12.221c-2.432-1.4-4.4-5.172-4.4-8.416V226.145c0-3.243,1.972-4.734,4.4-3.33l21.168,12.222c2.433,1.4,4.4,5.172,4.4,8.415v22.654C285.6,269.349,283.623,270.84,281.19,269.435Z" fill="#022652"/>
      <g id="Group_643" data-name="Group 643">
        <ellipse id="Ellipse_27" data-name="Ellipse 27" cx="29.979" cy="16.96" rx="29.979" ry="16.96" transform="matrix(0.601, -0.799, 0.799, 0.601, 284.729, 174.276)" fill="#a8cff0"/>
        <ellipse id="Ellipse_28" data-name="Ellipse 28" cx="29.979" cy="16.96" rx="29.979" ry="16.96" transform="matrix(0.601, -0.799, 0.799, 0.601, 286.333, 174.998)" fill="#72b5e8"/>
        <path id="Path_1659" data-name="Path 1659" d="M296.464,174.506c0,5.4,1.941,9.222,5.163,11.194.108.066,14.576,8.291,14.687,8.353,4.038,2.256,6.421-.089,13.013-3.895,12.171-7.027,22.037-22.589,22.037-34.76,0-5.975,1.641-7.914-2.22-9.655-.291-.131-15.436-8.695-15.744-8.8-3.922-1.336-9.154-.514-14.9,2.8C306.331,146.773,296.464,162.335,296.464,174.506Z" fill="#03336e"/>
        <ellipse id="Ellipse_29" data-name="Ellipse 29" cx="29.979" cy="16.96" rx="29.979" ry="16.96" transform="matrix(0.601, -0.799, 0.799, 0.601, 299.384, 182.238)" fill="#a8cff0"/>
        <ellipse id="Ellipse_30" data-name="Ellipse 30" cx="29.979" cy="16.96" rx="29.979" ry="16.96" transform="translate(300.873 183.183) rotate(-53.051)" fill="#72b5e8"/>
        <ellipse id="Ellipse_31" data-name="Ellipse 31" cx="25.478" cy="14.414" rx="25.478" ry="14.414" transform="translate(305.66 181.217) rotate(-53.051)" fill="#3f92d1"/>
        <path id="Path_1660" data-name="Path 1660" d="M343.945,147.541c4.082,1.158,6.671,4.865,6.671,10.674,0,10.584-8.58,24.117-19.164,30.228-4.293,2.478-8.256,3.354-11.45,2.815,3.355.951,7.718.182,12.492-2.575,10.584-6.11,19.164-19.644,19.164-30.227C351.658,152.165,348.627,148.332,343.945,147.541Z" fill="#2672ab"/>
        <g id="Group_642" data-name="Group 642">
          <path id="Path_1661" data-name="Path 1661" d="M325.682,172.616a3.327,3.327,0,0,0,1.394,3.023l2.65,1.5c1.091.609,1.734-.024,3.514-1.052,3.287-1.9,5.951-6.1,5.951-9.386,0-1.613.443-2.137-.6-2.607-.079-.035-2.853-1.6-2.936-1.626a5.019,5.019,0,0,0-4.023.757C328.346,165.127,325.682,169.33,325.682,172.616Z" fill="#a8cff0"/>
          <path id="Path_1662" data-name="Path 1662" d="M328.251,174.085c0,3.286,2.664,4.412,5.95,2.515s5.951-6.1,5.951-9.387-2.664-4.412-5.951-2.515S328.251,170.8,328.251,174.085Z" fill="#72b5e8"/>
          <path id="Path_1663" data-name="Path 1663" d="M329.456,173.315c0,2.6,2.105,3.487,4.7,1.988s4.7-4.821,4.7-7.418-2.106-3.488-4.7-1.988S329.456,170.718,329.456,173.315Z" fill="#084c94"/>
          <path id="Path_1664" data-name="Path 1664" d="M336.887,165.2a2.67,2.67,0,0,1,1.012,2.325c0,2.6-2.1,5.918-4.7,7.418a4.4,4.4,0,0,1-2.728.7c.862.594,2.193.527,3.691-.337,2.6-1.5,4.7-4.821,4.7-7.418C338.862,166.3,338.081,165.362,336.887,165.2Z" fill="#03336e"/>
        </g>
      </g>
    </g>
    <g id="Group_645" data-name="Group 645">
      <path id="Path_1665" data-name="Path 1665" d="M467.6,146.213l2.331,1.346a4.581,4.581,0,0,1,1.771,1.749,5.029,5.029,0,0,1,.59,2.471v1.139q0,1.4-.59,1.79t-1.771-.295l-.748-.432v4.706l-1.583-.914Zm2.331,6.548c.259.15.454.18.583.089s.2-.334.2-.73v-1.371a2,2,0,0,0-.2-.954,1.481,1.481,0,0,0-.583-.584l-.748-.432v3.55Z" fill="#fc0"/>
      <path id="Path_1666" data-name="Path 1666" d="M473.157,149.421l2.346,1.354a4.69,4.69,0,0,1,1.784,1.683,4.6,4.6,0,0,1,.562,2.33v.71q0,1.8-1.037,1.681v.033a2.9,2.9,0,0,1,.813,1.278,5.867,5.867,0,0,1,.238,1.773v2.031c0,.33.009.6.029.817a3.2,3.2,0,0,0,.144.686l-1.612-.93a4.1,4.1,0,0,1-.115-.6c-.02-.177-.029-.479-.029-.909v-2.114a2.8,2.8,0,0,0-.223-1.235,1.873,1.873,0,0,0-.77-.758l-.547-.316v4.954l-1.583-.914Zm2.159,6.2c.316.183.554.227.712.131s.237-.364.237-.8v-.891a2.3,2.3,0,0,0-.194-1.021,1.489,1.489,0,0,0-.611-.634l-.72-.415v3.3Z" fill="#fc0"/>
      <path id="Path_1667" data-name="Path 1667" d="M478.957,152.769l4.317,2.493v1.651l-2.734-1.579v3.056l2.173,1.254V161.3l-2.173-1.255v3.551l2.734,1.578v1.652l-4.317-2.493Z" fill="#fc0"/>
      <path id="Path_1668" data-name="Path 1668" d="M484.526,166.958a5.171,5.171,0,0,1-.59-2.5v-.66l1.5.864v.793a1.692,1.692,0,0,0,.82,1.6c.269.155.472.182.612.081s.208-.356.208-.763a3.885,3.885,0,0,0-.287-1.446,12.877,12.877,0,0,0-1.065-1.944,15.382,15.382,0,0,1-1.368-2.582,5.7,5.7,0,0,1-.388-2.032q0-1.371.6-1.773t1.756.262a4.394,4.394,0,0,1,1.72,1.744,5.2,5.2,0,0,1,.583,2.492v.479l-1.5-.864v-.6a2.117,2.117,0,0,0-.2-.983,1.481,1.481,0,0,0-.59-.613q-.79-.458-.791.649a3.526,3.526,0,0,0,.295,1.343,13.591,13.591,0,0,0,1.072,1.94,14.257,14.257,0,0,1,1.367,2.59,6.105,6.105,0,0,1,.374,2.115q0,1.421-.611,1.826t-1.778-.266A4.46,4.46,0,0,1,484.526,166.958Z" fill="#fc0"/>
      <path id="Path_1669" data-name="Path 1669" d="M489.88,170.049a5.16,5.16,0,0,1-.59-2.5v-.66l1.5.864v.793a1.693,1.693,0,0,0,.821,1.6q.4.232.611.081t.209-.763a3.859,3.859,0,0,0-.288-1.446,12.876,12.876,0,0,0-1.065-1.944,15.44,15.44,0,0,1-1.367-2.582,5.7,5.7,0,0,1-.389-2.032q0-1.371.605-1.774t1.756.263a4.385,4.385,0,0,1,1.719,1.744,5.192,5.192,0,0,1,.583,2.492v.479l-1.5-.864v-.6a2.13,2.13,0,0,0-.2-.983,1.476,1.476,0,0,0-.59-.613q-.792-.457-.792.649a3.544,3.544,0,0,0,.3,1.343,13.614,13.614,0,0,0,1.073,1.94,14.349,14.349,0,0,1,1.367,2.589,6.138,6.138,0,0,1,.374,2.116q0,1.42-.612,1.826t-1.777-.266A4.453,4.453,0,0,1,489.88,170.049Z" fill="#fc0"/>
      <path id="Path_1670" data-name="Path 1670" d="M497.219,163.313l2.346,1.354a4.69,4.69,0,0,1,1.784,1.683,4.592,4.592,0,0,1,.562,2.33v.711q0,1.8-1.037,1.68v.033a2.912,2.912,0,0,1,.814,1.279,5.893,5.893,0,0,1,.237,1.772v2.031c0,.33.009.6.029.818a3.226,3.226,0,0,0,.144.686l-1.612-.931a4.082,4.082,0,0,1-.115-.6c-.02-.176-.029-.479-.029-.908v-2.114a2.784,2.784,0,0,0-.223-1.235,1.869,1.869,0,0,0-.77-.759l-.547-.315v4.954l-1.583-.914Zm2.159,6.2c.316.183.554.227.712.131s.238-.364.238-.8v-.892a2.3,2.3,0,0,0-.2-1.02,1.484,1.484,0,0,0-.611-.634l-.72-.416v3.3Z" fill="#fc0"/>
      <path id="Path_1671" data-name="Path 1671" d="M503.019,166.661l4.317,2.493V170.8l-2.734-1.578v3.055l2.173,1.255v1.651l-2.173-1.255v3.551l2.734,1.578v1.652l-4.317-2.493Z" fill="#fc0"/>
      <path id="Path_1672" data-name="Path 1672" d="M508.243,169.677l1.583.914V180.5l2.605,1.5v1.651l-4.188-2.418Z" fill="#fc0"/>
      <path id="Path_1673" data-name="Path 1673" d="M513.193,172.536l4.318,2.492v1.652l-2.734-1.579v3.055l2.173,1.255v1.651l-2.173-1.255v3.551l2.734,1.579v1.651l-4.318-2.492Z" fill="#fc0"/>
      <path id="Path_1674" data-name="Path 1674" d="M519.641,176.258l2.144,1.238L523.426,190l-1.583-.914-.288-2.462v.034l-1.8-1.039-.288,2.1L518,186.871Zm1.727,8.726-.7-6.121-.029-.017-.691,5.315Z" fill="#fc0"/>
      <path id="Path_1675" data-name="Path 1675" d="M524.462,190.015a5.16,5.16,0,0,1-.59-2.5v-.66l1.5.864v.793a1.693,1.693,0,0,0,.821,1.6q.4.232.611.081t.209-.763a3.859,3.859,0,0,0-.288-1.446,12.926,12.926,0,0,0-1.065-1.945,15.4,15.4,0,0,1-1.367-2.581,5.7,5.7,0,0,1-.388-2.032q0-1.371.6-1.773t1.756.262a4.388,4.388,0,0,1,1.72,1.744,5.2,5.2,0,0,1,.582,2.492v.479l-1.5-.864v-.6a2.117,2.117,0,0,0-.2-.983,1.482,1.482,0,0,0-.59-.613q-.792-.457-.791.649a3.525,3.525,0,0,0,.295,1.343,13.589,13.589,0,0,0,1.072,1.94,14.349,14.349,0,0,1,1.367,2.589,6.139,6.139,0,0,1,.374,2.116q0,1.42-.611,1.826t-1.778-.266A4.46,4.46,0,0,1,524.462,190.015Z" fill="#fc0"/>
      <path id="Path_1676" data-name="Path 1676" d="M529.5,181.949l4.317,2.493v1.652l-2.734-1.579v3.055l2.173,1.255v1.651l-2.173-1.255v3.551l2.734,1.579V196L529.5,193.51Z" fill="#fc0"/>
    </g>
    <g id="Group_652" data-name="Group 652">
      <g id="Group_647" data-name="Group 647">
        <path id="Path_1677" data-name="Path 1677" d="M591.442,322.752l-.046-.357c-.979-7.679-4.458-13.548-4.458-20.75V293.01l-12.295-7.1-6.612,3.937s9.093,17.416,8.083,24.054a8.685,8.685,0,0,0,3.942,6.8l.108.062,1.141,9.672,8.675-5.014A2.567,2.567,0,0,0,591.442,322.752Z" fill="#03336e"/>
        <path id="Path_1678" data-name="Path 1678" d="M577.9,330.544l-7.443-4.3a8.686,8.686,0,0,1-3.942-6.8h0a139.665,139.665,0,0,0,1.516-20.961v-8.637l12.295,7.1v8.634a177.261,177.261,0,0,0,1.47,22.357l.046.357C581.842,330.794,580.077,331.8,577.9,330.544Z" fill="#084c94"/>
        <path id="Path_1679" data-name="Path 1679" d="M582.123,327.775a177.063,177.063,0,0,1-1.47-22.356v-8.635l-12.3-7.1v.622L580,297.029v8.635a177.107,177.107,0,0,0,1.471,22.357l.045.357a2.758,2.758,0,0,1-1.117,2.506c1.066-.194,1.771-1.174,1.771-2.751Z" fill="#2672ab"/>
        <g id="Group_646" data-name="Group 646">
          <path id="Path_1680" data-name="Path 1680" d="M576.223,304.573l-1.052,8.529,2.292-1.323v-7.954Z" fill="#001a46"/>
          <path id="Path_1681" data-name="Path 1681" d="M576.229,304.573l-1.052,8.529-4.49-2.537,1.051-8.573Z" fill="#03336e"/>
          <path id="Path_1682" data-name="Path 1682" d="M571.739,301.992l4.49,2.581,1.235-.749-4.5-2.565Z" fill="#2672ab"/>
        </g>
      </g>
      <g id="Group_648" data-name="Group 648">
        <path id="Path_1683" data-name="Path 1683" d="M609.749,273.454c0,4.971-1.716,8.492-4.505,10.2-.083.051-14.565,8.581-14.651,8.629-2.9,1.622-1.046-2.059-5.452-4.6-8.869-5.12-16.058-17.521-16.058-27.7,0-5.032-4.652-5.072-1.8-6.752.08-.047,15.12-8.665,15.2-8.709,2.894-1.567,6.849-1.278,11.21,1.239C602.559,250.877,609.749,263.277,609.749,273.454Z" fill="#03336e"/>
        <path id="Path_1684" data-name="Path 1684" d="M579.406,254.129c-4.251-2.455-8.114-2.785-10.986-1.349,2.678-.749,6-.19,9.6,1.888,8.869,5.121,16.058,17.521,16.058,27.7,0,5.3-1.952,8.944-5.071,10.5,3.92-1.1,6.458-5,6.458-11.044C595.464,271.65,588.275,259.249,579.406,254.129Z" fill="#2672ab"/>
        <ellipse id="Ellipse_32" data-name="Ellipse 32" cx="13.07" cy="22.639" rx="13.07" ry="22.639" transform="translate(555.927 259.993) rotate(-30.311)" fill="#084c94"/>
      </g>
      <g id="Group_649" data-name="Group 649">
        <path id="Path_1685" data-name="Path 1685" d="M592.205,283.249c0,4.829-1.666,8.249-4.376,9.9-.017.011-2.562,1.488-6.164,3.578a82,82,0,0,0-34,37.843l-.031.07c-4.765,2.664-42.954-61.358-38.276-64.117h.02A83.453,83.453,0,0,0,557.41,259.9l8.306-4.765c2.811-1.523,6.653-1.242,10.889,1.2C585.221,261.316,592.205,273.362,592.205,283.249Z" fill="#72b5e8"/>
      </g>
      <g id="Group_650" data-name="Group 650">
        <path id="Path_1686" data-name="Path 1686" d="M551.329,321.94c0,8.652-2.986,14.781-7.841,17.748-.145.089-4.664,2.956-4.813,3.039-5.05,2.824-1.82-3.584-9.49-8.012-15.438-8.913-27.952-30.5-27.952-48.212,0-8.759-8.1-8.83-3.138-11.755.139-.082,5.629-3.1,5.77-3.178,5.037-2.727,11.921-2.225,19.512,2.158C538.814,282.64,551.329,304.226,551.329,321.94Z" fill="#084c94"/>
        <path id="Path_1687" data-name="Path 1687" d="M518.682,276.282c-7.4-4.272-15.057-3.987-18.6-2.31,4.661-1.3,11.249-.515,17.514,3.1,15.437,8.913,27.952,30.5,27.952,48.212,0,9.222-4.2,15.754-9.634,18.469,5.7-2.107,10.722-8.736,10.722-19.261C546.633,306.78,534.119,285.2,518.682,276.282Z" fill="#3f92d1"/>
        <ellipse id="Ellipse_33" data-name="Ellipse 33" cx="22.75" cy="39.406" rx="22.75" ry="39.406" transform="matrix(0.863, -0.505, 0.505, 0.863, 478.333, 286.527)" fill="#2672ab"/>
        <ellipse id="Ellipse_34" data-name="Ellipse 34" cx="21.269" cy="36.84" rx="21.269" ry="36.84" transform="matrix(0.863, -0.505, 0.505, 0.863, 480.907, 287.995)" fill="#d1ebff"/>
        <path id="Path_1688" data-name="Path 1688" d="M523,336.895c-14.432-8.332-26.131-28.512-26.131-45.072,0-7.634,2.49-13.159,6.584-16.089-7.063,1.29-11.724,7.795-11.724,18.244,0,16.561,11.7,36.74,26.131,45.072,7.779,4.491,14.76,4.617,19.547,1.191C533.277,340.995,528.326,339.97,523,336.895Z" fill="#084c94"/>
      </g>
      <g id="Group_651" data-name="Group 651">
        <path id="Path_1689" data-name="Path 1689" d="M532.513,292.7c-1.637,1.334-12.722,10.412-12.743,10.424-.788.464.5.476.5,1.868a9.785,9.785,0,0,0,4.441,7.66c1.219.7.706,1.722,1.508,1.274.021-.012,11.569-4.423,14.71-5.628A63.247,63.247,0,0,0,532.513,292.7Z" fill="#03336e"/>
        <path id="Path_1690" data-name="Path 1690" d="M527.352,311.136c0,2.815-1.988,3.949-4.441,2.532a9.786,9.786,0,0,1-4.441-7.661c0-2.814,1.988-3.948,4.441-2.532A9.786,9.786,0,0,1,527.352,311.136Z" fill="#2672ab"/>
        <path id="Path_1691" data-name="Path 1691" d="M525.963,310.334c0,1.934-1.367,2.713-3.052,1.74a6.726,6.726,0,0,1-3.052-5.264c0-1.934,1.367-2.713,3.052-1.74A6.726,6.726,0,0,1,525.963,310.334Z" fill="#03336e"/>
        <path id="Path_1692" data-name="Path 1692" d="M523.124,303.369a3.206,3.206,0,0,0-3.039-.373,3.489,3.489,0,0,1,2.655.522,9.787,9.787,0,0,1,4.442,7.661,3.018,3.018,0,0,1-1.4,2.905c1.085-.3,1.787-1.382,1.787-3.055A9.786,9.786,0,0,0,523.124,303.369Z" fill="#3f92d1" style="mix-blend-mode: screen;isolation: isolate"/>
      </g>
    </g>
  </g>
</svg>
