<svg xmlns="http://www.w3.org/2000/svg" width="444.542" height="446.16" viewBox="0 0 444.542 446.16"><g transform="translate(-27.503 -23.886)"><path d="M136.306,126.371h0a34.259,34.259,0,0,1-34.259-34.259h0a34.259,34.259,0,0,1,34.259-34.259h0a34.259,34.259,0,0,1,34.26,34.259h0A34.259,34.259,0,0,1,136.306,126.371Z" fill="#ebebeb"/><rect width="7.09" height="22.906" transform="translate(120.772 84.475)" fill="#fff"/><path d="M124.283,81.476a4.227,4.227,0,1,0-4.193-4.228A4.21,4.21,0,0,0,124.283,81.476Z" fill="#fff"/><path d="M139.2,95.357c0-3.22,1.482-5.139,4.32-5.139,2.607,0,3.86,1.842,3.86,5.139v12.024h7.057v-14.5c0-6.136-3.478-9.1-8.334-9.1a7.986,7.986,0,0,0-6.9,3.784V84.475h-6.8v22.906h6.8Z" fill="#fff"/><path d="M182.22,23.886l4.691,8.578,8.578,4.691-8.578,4.691-4.691,8.578-4.691-8.578-8.578-4.691,8.578-4.691Z" fill="#f5f5f5"/><path d="M377.87,256.273l3.518,6.433,6.433,3.518-6.433,3.518-3.518,6.433-3.519-6.433-6.433-3.518,6.433-3.518Z" fill="#ebebeb"/><path d="M387.822,224.508l1.587,2.9,2.9,1.587-2.9,1.587-1.587,2.9-1.587-2.9-2.9-1.587,2.9-1.587Z" fill="#e0e0e0"/><path d="M148.714,27.112l1.587,2.9,2.9,1.587-2.9,1.587-1.587,2.9-1.587-2.9-2.9-1.587,2.9-1.587Z" fill="#e0e0e0"/><path d="M69.133,296.758a10.372,10.372,0,0,0,6.056-9.674c-.051-5.729-4.447-10.337-9.819-10.292s-9.685,4.725-9.634,10.454a10.353,10.353,0,0,0,6.323,9.6C47.121,299.3,48.01,315.556,48.01,315.556l35.4-.3S84,298.806,69.133,296.758Z" fill="#e0e0e0"/><path d="M408.636,403.938a5.509,5.509,0,0,0-10.866.323,5.509,5.509,0,0,0-10.868-.228,7.437,7.437,0,0,0,1.335,5.366,22.142,22.142,0,0,0,3.885,4.106c1.978,1.76,3.806,3.415,5.784,5.175,1.962-1.777,3.631-3.448,5.593-5.225a22.036,22.036,0,0,0,3.849-4.141A7.436,7.436,0,0,0,408.636,403.938Z" fill="#ebebeb"/><path d="M431.688,193.15l3.792-.752,5.99-13.176-1.5-7.571s5.791-1.523,7.067,8.527,1.522,7.378,1.522,7.378,12.457-2.42,13.706-1.544c.908.636,3.7,12.933,5.16,19.613a7.4,7.4,0,0,1-3.694,8.334,5.574,5.574,0,0,1-1.3.446c-3.1.616-19.468,1.237-19.468,1.237l-6.551,1.3Z" fill="#e0e0e0"/><path d="M420.418,193.225,427.9,218.7l6.5-1.288L429.35,192Z" fill="#e0e0e0"/><path d="M470.469,469.323c0,.144-99.169.26-221.472.26-122.346,0-221.494-.116-221.494-.26s99.148-.26,221.494-.26C371.3,469.063,470.469,469.179,470.469,469.323Z" fill="#263238"/><path d="M393.433,183.15h0a40.63,40.63,0,0,1-54.308-18.767h0a40.63,40.63,0,0,1,18.767-54.309h0A40.632,40.632,0,0,1,412.2,128.841h0A40.631,40.631,0,0,1,393.433,183.15Z" fill="#3343E0"/><path d="M365.621,155.694a.955.955,0,0,0,.945-1.23c-.1-.492-.363-1.729-.465-2.248-.137-.708-.308-.894-1.034-1.214a8,8,0,0,1-4.022-4.09c-3.064-6.3-1.094-14.23,6.466-17.907,6.693-3.255,12.36-.954,15.017,4.51,3.495,7.186,3.265,14.8-1.457,17.1a4.291,4.291,0,0,1-6.27-2.886c-.784-3.524-.992-7.637-2.1-9.917-.992-2.04-2.915-3.21-5.182-2.107-2.666,1.3-3.466,5.1-1.67,8.79a10.668,10.668,0,0,0,2.715,3.557s2.894,12.886,3.4,15.142c1.007,4.494,4.22,9.043,4.532,9.508a.369.369,0,0,0,.662-.144c.09-.441,1.358-5.9.531-10.346-.232-1.257-1.577-7.7-1.577-7.7,1.669,1.231,4.908,1.453,7.6.145,8.014-3.9,9.9-13.846,5.141-23.624-3.6-7.394-13.206-11.234-22.725-6.605-11.843,5.76-13.685,17.155-10.241,24.236C357.97,152.942,361.449,155.967,365.621,155.694Z" fill="#fff"/><path d="M434.013,297.755h0a28.023,28.023,0,0,1-16.175-36.179h0A28.023,28.023,0,0,1,454.017,245.4h0a28.023,28.023,0,0,1,16.175,36.179h0A28.022,28.022,0,0,1,434.013,297.755Z" fill="#3343E0"/><path d="M458.644,276.336a15.1,15.1,0,0,0-28.077-11.023c-.084.2-.169.4-.247.609a14.868,14.868,0,0,0-.742,8l-5.409,6.533,8.756.5a15.111,15.111,0,0,0,25.589-4.26C458.559,276.576,458.605,276.457,458.644,276.336Zm-18.721,6.733a12.638,12.638,0,0,1-5.777-4.438l-5.108-.288,3.147-3.8a12.465,12.465,0,0,1,.379-7.759,11.688,11.688,0,0,1,.495-1.119,12.694,12.694,0,0,1,23.522,9.245c-.09.314-.192.622-.311.932A12.653,12.653,0,0,1,439.923,283.069Z" fill="#fff" fill-rule="evenodd"/><path d="M449.8,276.6c-.284-.3-1.663-1.785-1.937-2.018s-.482-.381-.844-.126-1.324.772-1.608.921-.5.1-.785-.2a10.03,10.03,0,0,1-2.128-2.764,10.988,10.988,0,0,1-1.015-3.1c-.067-.418.182-.535.419-.641.219-.1.5-.271.751-.4.069-.042.129-.08.188-.118a4.036,4.036,0,0,0,.375-.326.662.662,0,0,0,.2-.61c-.02-.205-.068-2.159-.1-2.956s-.357-.787-.562-.866-.416-.2-.647-.285a1.37,1.37,0,0,0-1.088.076,4.111,4.111,0,0,0-2.3,2.4,4.672,4.672,0,0,0-.269,1.237,8.322,8.322,0,0,0,.327,2.847c.085.29.936,4.714,3.92,7.435s3.17,2.255,3.826,2.438a3.691,3.691,0,0,0,2.953-.74,3.028,3.028,0,0,0,.827-1.552C450.275,277.079,450.076,276.9,449.8,276.6Z" fill="#fff" fill-rule="evenodd"/><path d="M69.631,168.241h0a21.368,21.368,0,0,1-21.368-21.369h0A21.368,21.368,0,0,1,69.631,125.5h0A21.368,21.368,0,0,1,91,146.872h0A21.369,21.369,0,0,1,69.631,168.241Z" fill="#3343E0"/><path d="M58.246,154.026a13.286,13.286,0,0,0,20.439-11.8,9.469,9.469,0,0,0,2.331-2.418,9.328,9.328,0,0,1-2.683.735,4.683,4.683,0,0,0,2.054-2.584,9.385,9.385,0,0,1-2.966,1.134,4.675,4.675,0,0,0-7.961,4.261,13.257,13.257,0,0,1-9.628-4.882,4.678,4.678,0,0,0,1.445,6.238,4.645,4.645,0,0,1-2.116-.585,4.675,4.675,0,0,0,3.747,4.64,4.676,4.676,0,0,1-2.109.08,4.673,4.673,0,0,0,4.363,3.244A9.386,9.386,0,0,1,58.246,154.026Z" fill="#fff"/><path d="M108.032,407.613h0A36.8,36.8,0,0,1,63.7,380.341h0A36.8,36.8,0,0,1,90.974,336.01h0A36.8,36.8,0,0,1,135.3,363.283h0A36.8,36.8,0,0,1,108.032,407.613Z" fill="#455a64"/><path d="M95.669,355.718c5.242-1.248,5.867-1.376,7.959-1.775a11.185,11.185,0,0,1,3.807-.192,6.685,6.685,0,0,1,4.613,2.838,11.2,11.2,0,0,1,1.544,3.484c.587,2.048.756,2.664,2,7.9s1.376,5.867,1.775,7.96a11.188,11.188,0,0,1,.193,3.806,6.68,6.68,0,0,1-2.838,4.612,11.162,11.162,0,0,1-3.484,1.545c-2.048.587-2.663.755-7.9,2s-5.868,1.376-7.96,1.776a11.144,11.144,0,0,1-3.806.191,6.679,6.679,0,0,1-4.613-2.837,11.18,11.18,0,0,1-1.544-3.484c-.588-2.048-.756-2.664-2-7.9s-1.377-5.867-1.776-7.96a11.179,11.179,0,0,1-.192-3.806,6.685,6.685,0,0,1,2.838-4.613,11.18,11.18,0,0,1,3.484-1.544c2.047-.588,2.664-.756,7.9-2.005m-.842-3.536c-5.332,1.27-6,1.452-8.066,2.046a14.8,14.8,0,0,0-4.547,2.048,10.309,10.309,0,0,0-4.373,7.109,14.786,14.786,0,0,0,.222,4.982c.4,2.116.54,2.79,1.81,8.121s1.452,5.995,2.046,8.066a14.794,14.794,0,0,0,2.048,4.547,10.316,10.316,0,0,0,7.108,4.374,14.849,14.849,0,0,0,4.983-.223c2.116-.4,2.79-.54,8.121-1.81s5.994-1.452,8.066-2.046a14.8,14.8,0,0,0,4.547-2.048,10.315,10.315,0,0,0,4.374-7.109,14.844,14.844,0,0,0-.223-4.982c-.4-2.116-.54-2.79-1.81-8.121s-1.452-5.995-2.046-8.066a14.8,14.8,0,0,0-2.048-4.547,10.315,10.315,0,0,0-7.109-4.374,14.843,14.843,0,0,0-4.982.223c-2.117.4-2.79.54-8.121,1.81" fill="#fff"/><path d="M97.1,361.732a10.362,10.362,0,1,0,12.481,7.679A10.361,10.361,0,0,0,97.1,361.732m3.96,16.623a6.726,6.726,0,1,1,4.984-8.1,6.726,6.726,0,0,1-4.984,8.1" fill="#fff"/><path d="M109.841,358.276a2.422,2.422,0,1,1-2.917-1.8,2.422,2.422,0,0,1,2.917,1.8" fill="#fff"/><path d="M386.807,375.222h0a17.164,17.164,0,0,1-17.163-17.164h0a17.163,17.163,0,0,1,17.163-17.163h0a17.163,17.163,0,0,1,17.163,17.163h0A17.164,17.164,0,0,1,386.807,375.222Z" fill="#455a64"/><path d="M384.191,368.433h4.178V357.97h2.915l.311-3.5h-3.226v-2c0-.826.166-1.152.965-1.152H391.6v-3.636H388.7c-3.109,0-4.511,1.37-4.511,3.99v2.793h-2.173v3.547h2.173Z" fill="#fff"/><path d="M328.27,470.046l-137.887-.081a30.036,30.036,0,0,1-30.018-30.042l.068-345.685a30.037,30.037,0,0,1,30.053-30.031l137.888.082a30.036,30.036,0,0,1,30.018,30.042l-.068,345.686A30.034,30.034,0,0,1,328.27,470.046Z" fill="#263238"/><path d="M328.227,76.515,301.493,76.5A6.641,6.641,0,0,0,295,83.282l0,4.85a6.641,6.641,0,0,1-6.492,6.782L236.4,94.883a6.647,6.647,0,0,1-6.49-6.79V83.244a6.647,6.647,0,0,0-6.491-6.79l-9.4-.006-23.4-.013a21.035,21.035,0,0,0-21.048,21.031L169.5,434.88a21.036,21.036,0,0,0,21.023,21.041l137.612.08a21.035,21.035,0,0,0,21.047-21.031l.066-337.415A21.035,21.035,0,0,0,328.227,76.515Z" fill="#fff"/><path d="M330.24,103.927c0,.09-3.475.192-7.764.228s-7.766-.009-7.767-.1,3.475-.192,7.765-.228S330.24,103.836,330.24,103.927Z" fill="#263238"/><path d="M330.273,107.9c0,.09-3.476.192-7.764.228s-7.766-.01-7.767-.1,3.475-.193,7.764-.228S330.272,107.81,330.273,107.9Z" fill="#263238"/><path d="M330.306,111.874c0,.091-3.476.193-7.764.228s-7.767-.009-7.767-.1,3.475-.193,7.764-.228S330.3,111.784,330.306,111.874Z" fill="#263238"/><path d="M184.019,115.75a3.188,3.188,0,0,1,.407-.027l1.132-.037,4.18-.1-.116.118q-.022-1.391-.049-3.031c.006-.563-.048-1.094.006-1.745a1.607,1.607,0,0,1,1.4-1.288c.673-.013,1.266-.044,2-.01a1.623,1.623,0,0,1,1.371,1.614c.016,1.413.033,2.889.05,4.42l-.194-.19,5.272-.054-.2.2c-.019-2.123-.039-4.319-.059-6.569q-.006-.841-.014-1.673a1.7,1.7,0,0,0-.741-1.246l-2.3-2.272q-1.133-1.116-2.223-2.194l-1.078-1.064c-.37-.357-.661-.726-1.09-.814a1.42,1.42,0,0,0-1.21.231c-.319.27-.659.652-.981.965q-.974.982-1.892,1.908c-1.19,1.236-2.429,2.365-3.33,3.433a3.727,3.727,0,0,0-.265,1.967q0,.981,0,1.858-.011,1.708-.019,2.993c-.009.764-.016,1.4-.021,1.913a6.789,6.789,0,0,1-.026.69,5.019,5.019,0,0,1-.036-.634c-.014-.509-.032-1.131-.053-1.884q-.028-1.293-.068-3.016-.017-.9-.035-1.9-.007-.505-.016-1.036a2.193,2.193,0,0,1,.291-1.1c.975-1.195,2.139-2.253,3.338-3.525l1.877-1.923c.338-.332.615-.662,1.018-1.008a1.791,1.791,0,0,1,1.528-.3,2.847,2.847,0,0,1,1.266.9l1.082,1.06q1.094,1.072,2.231,2.187l2.309,2.267a4.394,4.394,0,0,1,.589.638,1.727,1.727,0,0,1,.276.889q.008.835.015,1.681c.017,2.25.034,4.446.05,6.57l0,.2h-.2l-5.273.034h-.193v-.192c-.008-1.53-.015-3.007-.023-4.42a1.272,1.272,0,0,0-1.065-1.28c-.607-.032-1.322-.011-1.912-.006a1.294,1.294,0,0,0-1.137,1.025c-.051.53-.012,1.148-.023,1.685q0,1.638,0,3.031v.118h-.116l-4.249-.03-1.106-.019A2.076,2.076,0,0,1,184.019,115.75Z" fill="#263238"/><path d="M274.98,379.406a7.662,7.662,0,0,1-1.445.1l-3.94.083c-3.327.047-7.923.076-13,.076s-9.674-.029-13-.076l-3.94-.083a7.662,7.662,0,0,1-1.445-.1,7.726,7.726,0,0,1,1.445-.1l3.94-.083c3.326-.047,7.923-.076,13-.076s9.672.029,13,.076l3.94.083A7.726,7.726,0,0,1,274.98,379.406Z" fill="#455a64"/><path d="M332.771,388.452c0,.144-21.17.26-47.278.26s-47.282-.116-47.282-.26,21.165-.26,47.282-.26S332.771,388.308,332.771,388.452Z" fill="#455a64"/><path d="M303.221,396.962c0,.143-14.554.26-32.5.26s-32.507-.117-32.507-.26,14.551-.261,32.507-.261S303.221,396.818,303.221,396.962Z" fill="#455a64"/><path d="M334.64,413.526l-2.938-2.947-2.8,2.79.013-8.435,5.735.009Zm-2.937-3.314.092.092,2.586,2.6.012-7.7-5.216-.008-.012,7.549Z" fill="#263238"/><path d="M256.408,412.429l-1.036-.462a2.84,2.84,0,1,1,1.514-2.5,2.871,2.871,0,0,1-.717,1.92Zm-2.423-5.616a2.683,2.683,0,0,0,.043,5.365,2.767,2.767,0,0,0,1.291-.407l.043-.025.765.342-.174-.752.035-.038a2.678,2.678,0,0,0-2-4.485Z" fill="#263238"/><path d="M263.074,411.984l-1.189-2.9-2.228-2.031,5.4-.043Zm-2.912-4.737,1.9,1.742,1.012,2.47,1.7-4.249Z" fill="#263238"/><rect width="3.516" height="0.197" transform="translate(262.007 408.927) rotate(-33.054)" fill="#263238"/><path d="M247.9,407.659a1.672,1.672,0,0,0-3.3.11,1.672,1.672,0,0,0-3.3-.057,2.256,2.256,0,0,0,.411,1.627,6.713,6.713,0,0,0,1.183,1.241c.6.532,1.159,1.032,1.761,1.564.593-.541,1.1-1.05,1.691-1.592a6.649,6.649,0,0,0,1.164-1.26A2.262,2.262,0,0,0,247.9,407.659Z" fill="#3343E0"/><path d="M340.662,420.988s-.012-.324-.018-.941-.01-1.539-.018-2.736c-.01-2.413-.024-5.962-.042-10.558-.022-9.191-.054-22.562-.094-39.335l.172.172-159.917.089h-.01l.261-.261c0,18.617-.006,36.676-.009,53.57l-.252-.252,114.434.117,33.4.07,8.965.033,2.323.016c.524.005.8.016.8.016s-.254.01-.768.016l-2.294.016-8.91.032-33.348.071-114.607.117h-.252v-.252c0-16.894-.005-34.953-.008-53.57v-.26h.27l159.917.089h.172v.171c-.04,16.817-.072,30.223-.094,39.438-.018,4.58-.032,8.115-.042,10.519q-.012,1.776-.018,2.706C340.673,420.687,340.662,420.988,340.662,420.988Z" fill="#263238"/><rect width="35.416" height="44.3" transform="matrix(0.006, -1, 1, 0.006, 187.185, 411.785)" fill="#ebebeb"/><path d="M231.685,376.621a1.737,1.737,0,0,1-.222.012l-.628.01-2.418.014-9.083.01-31.949-.065.234-.232c-.052,10.545-.111,22.627-.174,35.413.055.062-.485-.493-.251-.259h.373l.383,0,.767,0,1.527.009,3.032.018,5.969.036,11.493.074,20.747.15-.218.215c.107-10.634.2-19.457.258-25.651.042-3.08.074-5.505.1-7.19q.022-1.221.035-1.9c.011-.433.028-.668.028-.668s.015.2.02.622q.006.67.014,1.864c0,1.673.009,4.083.016,7.142-.009,6.227-.021,15.1-.035,25.789v.216h-.218l-20.746-.086-11.494-.056-5.969-.032-3.032-.017-1.527-.008-.767,0-.383,0h-.373c.228.234-.325-.317-.267-.265.083-12.786.161-24.868.229-35.412v-.234l.233,0,32.1.3,9.03.113,2.372.041.6.017A.861.861,0,0,1,231.685,376.621Z" fill="#263238"/><rect width="30.957" height="41.187" transform="matrix(0.006, -1, 1, 0.006, 188.725, 409.564)" fill="#e0e0e0"/><path d="M188.725,409.564,203.219,390.4l8.843,12.09,6.081-6.4L229.911,409.8Z" fill="#f5f5f5"/><path d="M215.927,388.118a3.243,3.243,0,1,1-3.225-3.261A3.245,3.245,0,0,1,215.927,388.118Z" fill="#f5f5f5"/><path d="M262.087,146.872a1.636,1.636,0,0,1-.473.053l-1.356.049-4.989.082c-4.213.048-10.033.077-16.461.077s-12.25-.029-16.463-.077l-4.988-.082L216,146.925a1.636,1.636,0,0,1-.473-.053,1.666,1.666,0,0,1,.473-.052l1.357-.049,4.988-.083c4.213-.047,10.034-.076,16.463-.076s12.248.029,16.461.076l4.989.083,1.356.049A1.666,1.666,0,0,1,262.087,146.872Z" fill="#263238"/><path d="M327.532,342.653l-4.365-4.379-4.158,4.146.02-12.535,8.523.013Zm-4.364-4.924.136.135,3.844,3.857.018-11.438-7.752-.012L319.4,341.49Z" fill="#263238"/><path d="M216.674,341.334l-2.041-.91a5.59,5.59,0,1,1,2.981-4.91,5.649,5.649,0,0,1-1.411,3.78ZM211.9,330.28a5.28,5.28,0,1,0,.085,10.56,5.442,5.442,0,0,0,2.543-.8l.084-.047,1.5.671-.34-1.478.068-.075a5.274,5.274,0,0,0-3.944-8.829Z" fill="#263238"/><path d="M229.794,340.459l-2.339-5.709-4.386-4,10.638-.085Zm-5.732-9.326,3.736,3.429,1.992,4.863,3.342-8.365Z" fill="#263238"/><rect width="6.92" height="0.389" transform="matrix(0.838, -0.545, 0.545, 0.838, 227.694, 334.441)" fill="#263238"/><path d="M199.933,331.945a3.291,3.291,0,0,0-6.489.217,3.29,3.29,0,0,0-6.491-.112,4.44,4.44,0,0,0,.809,3.2,13.142,13.142,0,0,0,2.329,2.444c1.185,1.047,2.28,2.032,3.465,3.079,1.168-1.066,2.162-2.067,3.33-3.133a13.191,13.191,0,0,0,2.29-2.481A4.441,4.441,0,0,0,199.933,331.945Z" fill="#3343E0"/><circle cx="7.216" cy="7.216" r="7.216" transform="translate(191.747 139.656)" fill="#ebebeb"/><path d="M324.807,301.255c0,.144-30.26.26-67.579.26s-67.585-.116-67.585-.26,30.253-.261,67.585-.261S324.807,301.111,324.807,301.255Z" fill="#455a64"/><path d="M324.807,290c0,.144-30.26.261-67.579.261s-67.585-.117-67.585-.261,30.253-.26,67.585-.26S324.807,289.855,324.807,290Z" fill="#455a64"/><path d="M263.214,312.66c0,.144-16.471.261-36.784.261s-36.787-.117-36.787-.261,16.467-.26,36.787-.26S263.214,312.517,263.214,312.66Z" fill="#455a64"/><path d="M254.135,435.29a2.872,2.872,0,1,1-2.859-2.927A2.892,2.892,0,0,1,254.135,435.29Z" fill="#263238"/><path d="M263.033,435.331a2.872,2.872,0,1,1-2.859-2.927A2.891,2.891,0,0,1,263.033,435.331Z" fill="#263238"/><path d="M271.931,435.372a2.872,2.872,0,1,1-2.859-2.927A2.89,2.89,0,0,1,271.931,435.372Z" fill="#263238"/><rect width="159.927" height="97.804" transform="translate(181.694 161.154)" fill="#e0e0e0"/><path d="M196.457,258.975l45.828-61.338L270.7,236l19.256-20.517,37.766,43.457Z" fill="#f5f5f5"/><path d="M282.738,190.113A10.336,10.336,0,1,1,272.4,179.781,10.335,10.335,0,0,1,282.738,190.113Z" fill="#f5f5f5"/><path d="M341.19,349.853c0-2.092-.1-90.445-.236-221.24l.236.237-159.908.024h-.018l.26-.261c-.018,82.739-.035,159.311-.049,221.24l-.211-.212,159.926.212-159.926.212h-.212v-.212c-.014-61.929-.031-138.5-.049-221.24v-.26h.279l159.908.024h.236v.236c-.048,65.462-.088,120.8-.117,159.773-.027,19.46-.048,34.835-.063,45.352-.012,5.244-.022,9.276-.028,12q-.009,2.031-.014,3.079C341.2,349.51,341.19,349.853,341.19,349.853Z" fill="#263238"/><path d="M266.043,377.3l3.538-11.887c.617-2.578,1.437-5.619,2.54-9.089.992-3.119,3.536-6.4,5.856-8.756,3.612-3.673,5.329-3.7,7.757-5.647.221-.142.467-.344.676-.457a3.828,3.828,0,0,0,1.18-1.021c2.092-2.263.083-5.765-4.165-5.432-3.2.251-8.415,1.166-16.9,9.916-.106.133-.217.244-.321.38-4.452,5.786-8.632-10.732-9.386-16.88a6.443,6.443,0,0,0-8.709-5l-20.661,9.664a9.644,9.644,0,0,0-6.031.2,6.141,6.141,0,0,0-3.936,7.289l8.38,33.451-24.613,81.893H254.3Z" fill="#ffbe9d"/><path d="M306.8,302.084l-16.4,32.133-8.2-2.278-41.215,33.527a8.349,8.349,0,0,1-11.6-1.031L213.694,346.2s31.641-13.631,37.493-24.913-.91-13.842-.91-13.842l14.892-16.923Z" fill="#3343E0"/><path d="M285.527,236.443s-24-5.309-57.783-37.792-49.65-75.617-53.785-75.407-22.188-8.171-56.524,66.52-20.811,92.036-13.979,91.9,53.227-13.069,82.2-9.775,66.225,18.4,66.225,18.4Z" fill="#3343E0"/><path d="M336.52,277.155l-8.189,15.57-3.669,6.974a20.32,20.32,0,0,1-26.488,9l-51.449-17.926,29.963-68.4,51.4,27.393A20.322,20.322,0,0,1,336.52,277.155Z" fill="#3343E0"/><g opacity="0.4"><path d="M336.52,277.155l-8.189,15.57-3.669,6.974a20.32,20.32,0,0,1-26.488,9l-51.449-17.926,29.963-68.4,51.4,27.393A20.322,20.322,0,0,1,336.52,277.155Z"/></g><path d="M120.209,191.124c-18.273,40.46-25.88,76.515-16.99,80.531s30.911-25.531,49.185-65.991,25.88-76.515,16.99-80.53S138.484,150.663,120.209,191.124Z" fill="#3343E0"/><g opacity="0.5"><path d="M120.209,191.124c-18.273,40.46-25.88,76.515-16.99,80.531s30.911-25.531,49.185-65.991,25.88-76.515,16.99-80.53S138.484,150.663,120.209,191.124Z"/></g><path d="M340.936,299.652l-13.945-4.38,8.629-16.408,10.458,6.5Z" fill="#3343E0"/><g opacity="0.6"><path d="M335.62,278.865l-8.629,16.408,2.865.9,7.016-16.531Z"/></g><path d="M326.012,282.65c-.2.451-7.165-2.254-15.543-6.042s-15.013-7.225-14.808-7.675,7.161,2.255,15.544,6.043S326.214,282.2,326.012,282.65Z" fill="#3343E0"/><path d="M330.3,272.878c-.22.445-6.517-2.21-14.067-5.928s-13.495-7.093-13.275-7.538,6.513,2.212,14.066,5.931S330.518,272.434,330.3,272.878Z" fill="#3343E0"/><path d="M320.6,292.9c-.074.238-1.73-.145-4.373-.961-1.32-.408-2.884-.924-4.615-1.523-1.719-.623-3.5-1.526-5.417-2.392-7.629-3.542-13.454-7.009-13.263-7.42.225-.485,6.452,2.285,14.01,5.792,1.9.859,3.655,1.8,5.313,2.5,1.664.673,3.157,1.3,4.4,1.854C319.155,291.856,320.674,292.663,320.6,292.9Z" fill="#3343E0"/><path d="M157.465,182.126s-20.863-12.937-32.278,15.25S135.723,230.2,135.723,230.2A187.8,187.8,0,0,0,157.465,182.126Z" fill="#3343E0"/><g opacity="0.5"><path d="M179.653,148.533c.122.021-.174,1.935-.817,5.385-.66,3.445-1.593,8.445-2.931,14.583-.882,3.024-1.846,6.325-2.88,9.864q-.784,2.661-1.621,5.494-.42,1.418-.851,2.872c-.312.963-.718,1.908-1.081,2.881-1.5,3.878-3.079,7.946-4.713,12.161q-.615,1.583-1.242,3.19c-.406,1.077-.98,2.09-1.467,3.15q-1.53,3.154-3.1,6.394t-3.111,6.392c-.532,1.039-.976,2.117-1.57,3.1l-1.74,2.949-6.648,11.226c-.542.887-1.032,1.79-1.6,2.63q-.877,1.242-1.734,2.45-1.712,2.41-3.322,4.679c-2.146,3-4.148,5.8-5.981,8.37-3.989,4.834-7.335,8.647-9.633,11.294s-3.636,4.054-3.731,3.975a31.8,31.8,0,0,1,3.193-4.419l9.191-11.653,5.757-8.436q1.557-2.27,3.218-4.686l1.685-2.447c.549-.841,1.028-1.746,1.555-2.633L151,226.1l1.714-2.936c.587-.98,1.023-2.052,1.55-3.086q1.518-3.134,3.079-6.351l3.087-6.345c.487-1.051,1.061-2.057,1.467-3.124s.835-2.116,1.248-3.161c1.656-4.174,3.255-8.2,4.778-12.042.371-.963.786-1.9,1.108-2.848q.447-1.441.883-2.842.873-2.8,1.7-5.434c1.1-3.5,2.131-6.761,3.075-9.749l3.471-14.4A32.211,32.211,0,0,1,179.653,148.533Z"/></g><g opacity="0.4"><path d="M218.693,343.961c1.9,3.455,3.845,6.964,6.662,9.725s6.684,4.717,10.608,4.322,7.643-3.655,7.685-7.6c1.884,1.416,4.771.649,6.331-1.117s2.067-4.219,2.254-6.567c2.558,1.509,6.116.312,7.823-2.118a10.115,10.115,0,0,0,.986-8.557,29.963,29.963,0,0,0-4.107-7.866c1.969.159,4.056.3,5.818-.6s2.953-3.224,1.924-4.912a4.894,4.894,0,0,0-2.868-1.829c-3.087-.966-5.253-1.74-8.466-1.367-.747.008,1.286,8.476-18.884,20.059C222.552,342.376,218.693,343.961,218.693,343.961Z"/></g><path d="M264.113,356.2c-.013.093-1.356-.165-3.532-.106a19.968,19.968,0,0,0-14.824,7.107c-1.408,1.66-2.048,2.868-2.129,2.82a3.088,3.088,0,0,1,.395-.875,15.972,15.972,0,0,1,1.449-2.178,18.894,18.894,0,0,1,15.106-7.242,16.1,16.1,0,0,1,2.606.233A3.078,3.078,0,0,1,264.113,356.2Z" fill="#eb996e"/><path d="M220.008,338.59c3.249,3.121,5.471,6.567,8.879,9.71,1.548,1.428,3.954,4.134,6.03,4.494s3.4.084,4.227-1.856c.665-1.571-.53-3.718-1.355-5.013-2.171-3.4-4.247-6.068-5.873-8.716-.762-1.24.224-1.5.584-.922,1.564,1.621,3.9,3.026,5.3,4.791,1.918,2.417,2.266,5.617,7.285,4.605a4.523,4.523,0,0,0,1.863-.774c1.889-1.446,1.968-3.96,1.173-5.974a16.352,16.352,0,0,0-2.794-4.227c2.136,2.412,4.468,4.952,7.865,5.226a4.679,4.679,0,0,0,4.756-2.574c1.005-2.282-.436-4.488-1.882-6.272a65.327,65.327,0,0,0-8.529-8.713,6.489,6.489,0,0,0-4.146-1.537c-1.756-.012-3.955.319-5.041,1.847a6.819,6.819,0,0,0-1.364,5.227s-4.406-2.234-7.946.1a11.228,11.228,0,0,0-4.416,6.352Z" fill="#ffbe9d"/><path d="M243.453,319.87a5.278,5.278,0,0,1-.623-5.96c.749-1.468,1.695-2.895,2.653-3.219,4.191-1.414,22.5,1.754,22.335,5.819-.171,4.173-1.5,6.009-11.442,4.574-1.748-.252-4.491-.6-4.491-.6l-2.4,3.6Z" fill="#ffbe9d"/><path d="M246.732,336.887a24.039,24.039,0,0,0-10.09-9.148,5.852,5.852,0,0,1,1.938.683,17.391,17.391,0,0,1,7.283,6.6A5.851,5.851,0,0,1,246.732,336.887Z" fill="#eb996e"/><path d="M249.814,324.4c-.092.085-1.3-.9-2.949-1.91a20.73,20.73,0,0,0-2.149-1.185c-.566-.266-.941-.339-.94-.417s.431-.12,1.067.072a9.845,9.845,0,0,1,2.3,1.087C248.829,323.079,249.936,324.289,249.814,324.4Z" fill="#eb996e"/><path d="M252.888,320.621a7.912,7.912,0,0,1-3.527-.4,6.446,6.446,0,0,1-2.257-1.183c-.5-.428-.712-.785-.663-.828a14.762,14.762,0,0,0,3.074,1.513C251.331,320.253,252.915,320.449,252.888,320.621Z" fill="#eb996e"/><path d="M235.091,341.918a12.753,12.753,0,0,1-1.669-2.17,19.69,19.69,0,0,0-4.275-4.858,8.616,8.616,0,0,0-6.054-1.6,11.009,11.009,0,0,0-2.55.811c-.018-.023.174-.209.584-.462a5.7,5.7,0,0,1,1.907-.712,8.507,8.507,0,0,1,6.417,1.544,17.4,17.4,0,0,1,4.278,5.078A16.267,16.267,0,0,1,235.091,341.918Z" fill="#eb996e"/><path d="M249.1,382.418a55.031,55.031,0,0,1-7.485,1.076,55.071,55.071,0,0,1-7.541.558,55,55,0,0,1,7.485-1.076A55.07,55.07,0,0,1,249.1,382.418Z" fill="#eb996e"/><path d="M406.632,49.844l1.129,2.064,2.064,1.129-2.064,1.129-1.129,2.064L405.5,54.166l-2.064-1.129,2.064-1.129Z" fill="#3343E0"/><path d="M430.236,101.014l1.129,2.064,2.064,1.129-2.064,1.129-1.129,2.064-1.129-2.064-2.064-1.129,2.064-1.129Z" fill="#3343E0"/><path d="M51.9,237.533l1.129,2.064,2.064,1.129-2.064,1.129L51.9,243.919l-1.129-2.064-2.064-1.129,2.064-1.129Z" fill="#3343E0"/><path d="M375.662,62.562l2.607,4.766,4.766,2.607-4.766,2.607-2.607,4.767-2.607-4.767-4.766-2.607,4.766-2.607Z" fill="#3343E0"/><path d="M73.061,205.1l2.6,4.756,4.756,2.6-4.756,2.6-2.6,4.756-2.6-4.756-4.756-2.6,4.756-2.6Z" fill="#3343E0"/><path d="M436.658,318.565l2.6,4.756,4.756,2.6-4.756,2.6-2.6,4.756-2.6-4.756-4.756-2.6,4.756-2.6Z" fill="#3343E0"/></g></svg>