<svg xmlns="http://www.w3.org/2000/svg" width="475.681" height="471.12" viewBox="0 0 475.681 471.12"><g transform="translate(-12.16 -15.315)"><path d="M81.822,446.215c-92.883-53.626-92.883-140.57,0-194.195s243.474-53.626,336.357,0,92.882,140.569,0,194.195S174.7,499.842,81.822,446.215Z" fill="#f0f0f0"/><path d="M207.673,456.335l-141.8-81.927c-5.532-3.194-5.532-8.42,0-11.614l229.6-132.659a9.189,9.189,0,0,1,8.283,0L449.04,314.079a4.383,4.383,0,0,1,0,7.592L215.956,456.335A9.189,9.189,0,0,1,207.673,456.335Z" fill="#e0e0e0"/><ellipse cx="52.556" cy="30.343" rx="52.556" ry="30.343" transform="translate(331.733 384.293)" fill="#e0e0e0"/><path d="M80.507,326.806s-.3-21.348-9.168-38.775S49.059,258.943,35.7,256.539s-25.461,8.9-11.9,18.837,38.284,21.165,46.893,54.147Z" fill="#3343E0"/><path d="M80.507,326.806s-.3-21.348-9.168-38.775S49.059,258.943,35.7,256.539s-25.461,8.9-11.9,18.837,38.284,21.165,46.893,54.147Z" opacity="0.15"/><path d="M77.106,320.931a.636.636,0,0,0,.147-.028.72.72,0,0,0,.488-.9c-10.723-36.4-36.313-53.7-48.347-57.761a.723.723,0,0,0-.463,1.369c11.788,3.979,36.869,20.973,47.425,56.8A.722.722,0,0,0,77.106,320.931Z" fill="#fff"/><path d="M81.862,346.95c-4.958,2.852-7.8,4.7-16.9,5.463a48.16,48.16,0,0,1-19.1-2.594c-1.687-.608-4.3-1.939-2.829-3.563.757-.839,9.677-2.255,12.868-6.008a58.488,58.488,0,0,1-12.51,2.218,16.319,16.319,0,0,1-10.851-3.322c-2.944-2.462-4.536-6.138-6.027-9.674-.509-1.207-.992-2.687-.211-3.739a3.83,3.83,0,0,1,2.161-1.154L38.6,321.755c2.205-.47.649-1.927-.186-2.051a19.122,19.122,0,0,0-3.674-.165c-3.87.207-8.144.936-11.3-1.309a9.42,9.42,0,0,1-3.48-5.839c-.166-.8-.832-11.244-.373-11.369a51.949,51.949,0,0,1,7.733-1.346c2.451-.281,4.839-.395,7.281-.725a60.621,60.621,0,0,1,8.321-.545,5.1,5.1,0,0,1,2.739.547,4.4,4.4,0,0,1,1.672,3.365,15.972,15.972,0,0,0,.521,3.842c1.188-.1,1.576-1.647,1.546-2.838s-.008-2.678,1.067-3.193a2.834,2.834,0,0,1,1.781-.034A48.641,48.641,0,0,1,63.2,303.736a12.594,12.594,0,0,1,4.337,2.959c1.695,1.976,2.195,4.717,2.21,7.321s-.388,5.205-.218,7.8c2.036-1.819,4.87-7.351,5.093-10.073,4.38,2.817,6.976,8.621,7.792,16.558a80.472,80.472,0,0,1-.322,17.443C82.065,345.93,82.024,346.857,81.862,346.95Z" fill="#3343E0"/><path d="M81.862,346.95c-4.958,2.852-7.8,4.7-16.9,5.463a48.16,48.16,0,0,1-19.1-2.594c-1.687-.608-4.3-1.939-2.829-3.563.757-.839,9.677-2.255,12.868-6.008a58.488,58.488,0,0,1-12.51,2.218,16.319,16.319,0,0,1-10.851-3.322c-2.944-2.462-4.536-6.138-6.027-9.674-.509-1.207-.992-2.687-.211-3.739a3.83,3.83,0,0,1,2.161-1.154L38.6,321.755c2.205-.47.649-1.927-.186-2.051a19.122,19.122,0,0,0-3.674-.165c-3.87.207-8.144.936-11.3-1.309a9.42,9.42,0,0,1-3.48-5.839c-.166-.8-.832-11.244-.373-11.369a51.949,51.949,0,0,1,7.733-1.346c2.451-.281,4.839-.395,7.281-.725a60.621,60.621,0,0,1,8.321-.545,5.1,5.1,0,0,1,2.739.547,4.4,4.4,0,0,1,1.672,3.365,15.972,15.972,0,0,0,.521,3.842c1.188-.1,1.576-1.647,1.546-2.838s-.008-2.678,1.067-3.193a2.834,2.834,0,0,1,1.781-.034A48.641,48.641,0,0,1,63.2,303.736a12.594,12.594,0,0,1,4.337,2.959c1.695,1.976,2.195,4.717,2.21,7.321s-.388,5.205-.218,7.8c2.036-1.819,4.87-7.351,5.093-10.073,4.38,2.817,6.976,8.621,7.792,16.558a80.472,80.472,0,0,1-.322,17.443C82.065,345.93,82.024,346.857,81.862,346.95Z" opacity="0.3"/><path d="M81.042,345.963a.6.6,0,0,1-.533-.323c-14.185-27.241-45.57-38.721-53.2-40.3a.6.6,0,0,1-.466-.71.612.612,0,0,1,.71-.466c7.746,1.608,39.614,13.265,54.019,40.925a.6.6,0,0,1-.532.878Z" fill="#fff"/><path d="M39.818,330.266a.6.6,0,0,1-.046-1.2c15.657-1.229,20.721-7.359,20.77-7.421a.6.6,0,0,1,.942.744c-.212.268-5.37,6.6-21.618,7.875Z" fill="#fff"/><path d="M460.035,254.3c-6.94,7.59-19.67,20.08-27.07,32.14a.4.4,0,0,0-.05.09c-2.89,4.73-4.96,9.39-5.53,13.66l-.52,7.71-3.17-1.83-.53-.31-1.31-.75h0a6.257,6.257,0,0,1-3.114-5.243c-.509-18.8,4.515-34.782,9.375-44.455,6.65-13.21,19.109-26.682,29.939-25.362C468.125,231.177,469.715,243.717,460.035,254.3Z" fill="#3343E0"/><path d="M460.035,254.3c-6.94,7.59-19.67,20.08-27.07,32.14a.4.4,0,0,0-.05.09c-2.89,4.73-4.96,9.39-5.53,13.66l-.52,7.71-3.17-1.83-.53-.31-1.31-.75h0a6.257,6.257,0,0,1-3.114-5.243c-.509-18.8,4.515-34.782,9.375-44.455,6.65-13.21,19.109-26.682,29.939-25.362C468.125,231.177,469.715,243.717,460.035,254.3Z" opacity="0.15"/><path d="M454.925,237.237c-13.26,8.38-32.19,37.59-31.76,68.52l-1.31-.75c-.11-31.12,18.98-60.4,32.37-68.87a.652.652,0,0,1,.7,1.1Z" fill="#fff"/><path d="M467.895,279.077c-2.31,6.27-15.49,11.71-25.22,20.76A63.182,63.182,0,0,0,436,307.09a6.126,6.126,0,0,1-7.9,1.517h0l-1.16-.67-.08-.04-3.17-1.83a64,64,0,0,1,9.22-19.54.4.4,0,0,1,.05-.09c6.44-9.34,14.39-16.09,19.94-17.62C463.815,265.817,470.665,271.547,467.895,279.077Z" fill="#3343E0"/><path d="M467.895,279.077c-2.31,6.27-15.49,11.71-25.22,20.76A63.182,63.182,0,0,0,436,307.09a6.126,6.126,0,0,1-7.9,1.517h0l-1.16-.67-.08-.04-3.17-1.83a64,64,0,0,1,9.22-19.54.4.4,0,0,1,.05-.09c6.44-9.34,14.39-16.09,19.94-17.62C463.815,265.817,470.665,271.547,467.895,279.077Z" opacity="0.3"/><path d="M458.625,275.307c-7.97,2.25-23.41,11.97-30.52,33.3l-1.16-.67c7.21-21.59,22.56-31.41,31.33-33.88a.649.649,0,1,1,.35,1.25Z" fill="#fff"/><path d="M73.1,359.309c0,3.47,2.6,7.782,5.8,9.631l126.287,72.927a12.825,12.825,0,0,0,11.6,0l222.376-128.39c3.2-1.849,5.8-6.161,5.8-9.632s-2.6-7.782-5.8-9.632L312.878,221.288a12.818,12.818,0,0,0-11.6,0L78.9,349.676C75.695,351.526,73.1,355.838,73.1,359.309Z" fill="#455a64"/><path d="M444.969,303.846c0,3.473-2.6,7.779-5.8,9.63L216.785,441.871a11.954,11.954,0,0,1-5.792,1.383V430.692a11.848,11.848,0,0,0,5.792-1.393L439.166,300.914c2.806-1.617,3.156-4.119,1.052-5.96C442.913,297.048,444.969,300.767,444.969,303.846Z" fill="#37474f"/><path d="M210.99,430.7V443.25a11.816,11.816,0,0,1-5.8-1.38L78.9,368.941c-3.2-1.849-5.8-6.162-5.8-9.632,0-3.255,2.291-7.247,5.211-9.256-2.6,1.862-2.4,4.6.589,6.323L205.19,429.3A11.821,11.821,0,0,0,210.99,430.7Z" fill="#263238"/><path d="M67.658,349.884c-2.836-2-2.842-4.665-2.842-8.364V154.644a12.823,12.823,0,0,1,5.8-10.047L292.992,16.208c3.2-1.849,6.158-.509,9.164,1.226s4.921,3.232,4.921,6.931V211.241a12.823,12.823,0,0,1-5.8,10.047L78.9,349.676C74.05,352.946,70.744,352.061,67.658,349.884Z" fill="#37474f"/><path d="M78.9,349.679c-4.848,3.264-8.16,2.381-11.241.2-2.832-2-2.841-4.666-2.841-8.361V154.647a11.946,11.946,0,0,1,1.689-5.711l8.285,4.819a11.758,11.758,0,0,0-1.69,5.692V346.329C73.1,350.024,75.693,351.522,78.9,349.679Z" fill="#263238"/><path d="M307.079,24.36c0-3.692-2.6-5.189-5.8-3.348L78.9,149.407a11.775,11.775,0,0,0-4.1,4.336l-8.277-4.814H66.51a11.907,11.907,0,0,1,4.108-4.337L292.989,16.207c3.2-1.851,6.157-.512,9.162,1.225S307.079,20.668,307.079,24.36Z" fill="#455a64"/><path d="M82.019,156.1l214.4-123.752c1.922-1.11,3.481-.21,3.481,2.01V205.76a7.7,7.7,0,0,1-3.481,6.028L82.019,335.537c-1.922,1.11-3.48.21-3.48-2.009v-171.4A7.692,7.692,0,0,1,82.019,156.1Z" fill="#263238"/><path d="M82.019,156.1a7.692,7.692,0,0,0-3.48,6.028v170.37L291.677,209.473a7.692,7.692,0,0,0,3.481-6.029V33.072Z" fill="#3343E0"/><path d="M82.019,156.1a7.692,7.692,0,0,0-3.48,6.028v170.37L291.677,209.473a7.692,7.692,0,0,0,3.481-6.029V33.072Z" fill="#fff" opacity="0.65"/><path d="M94.951,350.019,301.365,230.847a6.416,6.416,0,0,1,5.8,0L313.171,234c1.6.925,1.6,2.424,0,3.349L106.726,356.5a6.416,6.416,0,0,1-5.8,0l-5.974-3.136C93.349,352.443,93.349,350.944,94.951,350.019Z" fill="#37474f"/><path d="M111.141,359.646,317.552,240.473a5.915,5.915,0,0,1,5.3-.289l53.727,31.02c1.325.765,1.1,2.135-.5,3.06L169.906,393.275a5.946,5.946,0,0,1-5.306.3L110.646,362.7C109.318,361.937,109.539,360.571,111.141,359.646Z" fill="#263238"/><path d="M288.3,290.039l6.463-3.731c.275-.159.315-.393.09-.522l-5.7-3.292a1.011,1.011,0,0,0-.9.052l-6.463,3.732c-.275.158-.315.392-.09.522l5.7,3.291A1.011,1.011,0,0,0,288.3,290.039Zm-9.018-12.669-6.463,3.731c-.274.159-.314.393-.09.523l5.7,3.291a1.011,1.011,0,0,0,.9-.052l6.463-3.731c.275-.159.316-.393.091-.522l-5.7-3.292A1.011,1.011,0,0,0,279.277,277.37ZM258.4,289.425,247.46,295.74c-.274.158-.314.392-.09.521l5.7,3.292a1.011,1.011,0,0,0,.9-.052l10.937-6.314c.274-.159.315-.393.09-.523l-5.7-3.291A1.01,1.01,0,0,0,258.4,289.425Zm11.435-6.6-6.464,3.732c-.274.158-.314.392-.089.522l5.7,3.291a1.008,1.008,0,0,0,.9-.052l6.463-3.731c.274-.159.315-.392.09-.522l-5.7-3.291A1.007,1.007,0,0,0,269.832,282.823Zm-25.354,14.638-6.463,3.732c-.275.158-.315.392-.09.522l5.7,3.292a1.014,1.014,0,0,0,.9-.052l6.463-3.732c.274-.158.315-.392.09-.522l-5.7-3.291A1.011,1.011,0,0,0,244.478,297.461Zm-9.446,5.454-6.463,3.731c-.275.159-.314.393-.09.522l5.7,3.292a1.013,1.013,0,0,0,.905-.052l6.462-3.732c.275-.158.315-.392.09-.522l-5.7-3.291A1.011,1.011,0,0,0,235.032,302.915Zm23.949,14.4,6.463-3.731c.274-.159.315-.393.09-.522l-5.7-3.291a1.008,1.008,0,0,0-.9.052l-6.463,3.73c-.275.159-.315.393-.09.523l5.7,3.291A1.008,1.008,0,0,0,258.981,317.316Zm-9.445,5.453L256,319.038c.274-.158.314-.392.089-.522l-5.7-3.291a1.01,1.01,0,0,0-.9.052l-6.462,3.731c-.275.158-.315.392-.091.522l5.7,3.292A1.013,1.013,0,0,0,249.536,322.769Zm-9.446,5.454,6.463-3.731c.275-.159.315-.392.09-.522l-5.7-3.292a1.011,1.011,0,0,0-.9.052l-6.463,3.731c-.275.159-.315.393-.09.523l5.7,3.291A1.011,1.011,0,0,0,240.09,328.223Zm-9.446,5.453,6.463-3.731c.275-.158.315-.392.09-.522l-5.7-3.291a1.008,1.008,0,0,0-.9.052l-6.463,3.731c-.274.158-.315.392-.09.522l5.7,3.291A1.008,1.008,0,0,0,230.644,333.676Zm48.206-38.183,6.462-3.732c.275-.158.315-.392.09-.522l-5.7-3.291a1.009,1.009,0,0,0-.9.052l-6.463,3.731c-.275.159-.316.392-.091.522l5.7,3.292A1.013,1.013,0,0,0,278.85,295.493Zm-10.423,16.37,14.417-8.324c.275-.159.314-.392.089-.522l-14.666-8.468a1.014,1.014,0,0,0-.9.052l-7.457,4.306c-.275.158-.314.392-.09.522l8.152,4.706c.224.13.184.364-.091.522l-5.965,3.444c-.275.159-.315.393-.09.522l5.7,3.292A1.011,1.011,0,0,0,268.427,311.863Zm-42.84-3.495-6.464,3.732c-.274.158-.314.392-.089.522l5.7,3.291a1.01,1.01,0,0,0,.905-.052l6.463-3.731c.274-.158.314-.392.089-.522l-5.7-3.292A1.014,1.014,0,0,0,225.587,308.368Zm-9.446,5.454-6.463,3.731c-.275.159-.315.392-.09.522l5.7,3.292a1.011,1.011,0,0,0,.9-.052l6.463-3.732c.275-.158.315-.392.09-.522l-5.7-3.291A1.011,1.011,0,0,0,216.141,313.822ZM163.621,371.9a1.011,1.011,0,0,0,.9-.052l6.463-3.732c.274-.158.314-.392.09-.522l-5.7-3.291a1.01,1.01,0,0,0-.9.052l-6.462,3.731c-.275.159-.315.392-.091.522Zm-23.046-14.454-6.462,3.732c-.275.158-.315.392-.09.522l5.7,3.291a1.008,1.008,0,0,0,.9-.052l6.463-3.731c.274-.159.315-.392.09-.522l-5.7-3.291A1.013,1.013,0,0,0,140.575,357.449Zm11.594,10.712a1.01,1.01,0,0,0,.9-.051l6.463-3.732c.275-.158.315-.392.09-.522l-5.7-3.291a1.01,1.01,0,0,0-.9.052l-6.463,3.731c-.275.159-.315.392-.089.522Zm26.293,6,6.462-3.732c.275-.158.315-.392.091-.522l-5.7-3.291a1.01,1.01,0,0,0-.9.052l-6.463,3.731c-.273.158-.314.393-.089.522l5.7,3.291A1.01,1.01,0,0,0,178.462,374.157Zm-10.35,5.5a1.008,1.008,0,0,0,.9-.052l6.463-3.732c.274-.158.315-.391.09-.521l-5.7-3.292a1.011,1.011,0,0,0-.9.052l-6.463,3.732c-.275.158-.315.392-.09.522ZM150.021,352l-6.462,3.731c-.276.159-.315.392-.09.522l5.7,3.292a1.013,1.013,0,0,0,.9-.052l6.462-3.732c.275-.158.315-.392.09-.521l-5.7-3.292A1.01,1.01,0,0,0,150.021,352Zm47.228-27.267-6.463,3.731c-.274.159-.314.392-.089.522l5.7,3.292a1.011,1.011,0,0,0,.9-.052l6.464-3.732c.274-.158.314-.392.09-.522l-5.7-3.291A1.01,1.01,0,0,0,197.249,324.729Zm-37.782,21.814L153,350.274c-.274.158-.315.392-.09.522l5.7,3.291a1.01,1.01,0,0,0,.9-.052l6.462-3.731c.275-.158.315-.392.09-.522l-5.7-3.292A1.013,1.013,0,0,0,159.467,346.543ZM206.7,319.275l-6.463,3.732c-.275.158-.315.392-.089.522l5.7,3.291a1.01,1.01,0,0,0,.9-.052l6.462-3.731c.275-.159.315-.392.091-.522l-5.7-3.292A1.013,1.013,0,0,0,206.7,319.275ZM187.8,330.182l-6.463,3.731c-.274.159-.315.393-.09.523l5.7,3.291a1.01,1.01,0,0,0,.9-.052l6.462-3.731c.274-.159.315-.393.09-.522l-5.7-3.291A1.007,1.007,0,0,0,187.8,330.182Zm-9.446,5.453-6.462,3.732c-.275.158-.316.393-.091.522l5.7,3.292a1.013,1.013,0,0,0,.9-.053l6.463-3.73c.274-.159.314-.393.089-.523l-5.7-3.291A1.013,1.013,0,0,0,178.358,335.635Zm-9.445,5.454-6.463,3.731c-.275.159-.315.393-.09.523l5.7,3.291a1.011,1.011,0,0,0,.9-.052l6.463-3.731c.274-.159.315-.393.09-.523l-5.7-3.291A1.011,1.011,0,0,0,168.913,341.089Zm42.84,3.5,6.463-3.732c.274-.158.315-.393.09-.522l-5.7-3.291a1.01,1.01,0,0,0-.9.052l-6.462,3.731c-.275.159-.315.392-.09.522l5.7,3.292A1.011,1.011,0,0,0,211.753,344.584Zm88.4-79.269-6.463,3.731c-.274.159-.314.393-.09.522l5.7,3.292a1.013,1.013,0,0,0,.9-.052l6.462-3.731c.275-.159.315-.392.09-.522l-5.7-3.292A1.011,1.011,0,0,0,300.157,265.315Zm-11.434,6.6-6.463,3.731c-.275.158-.315.392-.09.522l5.7,3.291a1.008,1.008,0,0,0,.9-.052l6.463-3.731c.275-.158.315-.392.09-.522l-5.7-3.292A1.011,1.011,0,0,0,288.723,271.917ZM309.6,259.862l-6.462,3.731c-.274.158-.315.392-.09.522l5.7,3.291a1.008,1.008,0,0,0,.9-.052l6.463-3.731c.274-.158.315-.392.09-.522l-5.7-3.292A1.013,1.013,0,0,0,309.6,259.862Zm-52.626,48.26,6.462-3.731c.275-.159.315-.393.09-.523l-5.7-3.291a1.01,1.01,0,0,0-.9.052l-6.463,3.731c-.274.158-.314.392-.09.522l5.7,3.292A1.016,1.016,0,0,0,256.976,308.122Zm62.977-53.766a1.013,1.013,0,0,0-.9.052l-6.462,3.731c-.275.159-.315.393-.09.522l5.7,3.292a1.006,1.006,0,0,0,.9-.052l6.463-3.732c.275-.158.316-.391.091-.521ZM221.2,339.13l6.462-3.731c.275-.159.315-.392.09-.522l-5.7-3.292a1.013,1.013,0,0,0-.9.052l-6.463,3.732c-.274.158-.314.392-.089.521l5.7,3.292A1.013,1.013,0,0,0,221.2,339.13Zm115.833-66.877,6.463-3.731c.274-.158.314-.392.09-.522l-5.7-3.291a1.008,1.008,0,0,0-.9.052l-6.463,3.731c-.273.158-.315.393-.089.522l5.7,3.292A1.013,1.013,0,0,0,337.032,272.253Zm-18.411.278,6.463-3.732c.274-.158.314-.391.089-.521l-5.7-3.292a1.008,1.008,0,0,0-.9.052l-6.462,3.731c-.275.159-.316.392-.091.522l5.7,3.292A1.011,1.011,0,0,0,318.621,272.531Zm10.3-13a1.007,1.007,0,0,0-.9.051l-6.463,3.732c-.274.158-.315.392-.09.522l5.7,3.291a1.014,1.014,0,0,0,.9-.051l6.463-3.732c.275-.159.315-.392.09-.522Zm1.989-1.148,14.666,8.467a1.011,1.011,0,0,0,.9-.052l6.463-3.731c.275-.159.315-.392.091-.522l-14.667-8.468a1.013,1.013,0,0,0-.9.052L331,257.862C330.722,258.021,330.682,258.255,330.907,258.385Zm-21.784,12.107-6.463,3.731c-.275.158-.315.392-.09.522l5.7,3.291a1.008,1.008,0,0,0,.9-.052l6.463-3.731c.274-.159.315-.393.09-.522l-5.7-3.292A1.011,1.011,0,0,0,309.123,270.492Zm-71.091,41.043-6.463,3.732c-.275.158-.315.392-.09.522l5.7,3.291a1.008,1.008,0,0,0,.9-.052l6.463-3.731c.275-.159.315-.392.09-.522l-5.7-3.291A1.011,1.011,0,0,0,238.032,311.535Zm88.65-33.776a1.013,1.013,0,0,0,.9-.052l6.463-3.731c.274-.159.314-.393.089-.522l-5.7-3.292a1.011,1.011,0,0,0-.9.052l-6.463,3.732c-.274.158-.315.392-.09.521Zm-79.205,28.323-6.462,3.731c-.275.159-.315.393-.09.523l5.7,3.291a1.008,1.008,0,0,0,.9-.052l6.463-3.731c.274-.159.315-.393.09-.522l-5.7-3.292A1.013,1.013,0,0,0,247.477,306.082Zm-74.411,60.367a1.013,1.013,0,0,0,.9-.052l6.463-3.731c.274-.159.314-.392.089-.522l-5.7-3.292a1.011,1.011,0,0,0-.9.052l-6.463,3.732c-.274.158-.314.392-.09.521Zm-10.6-11.286L156,358.895c-.274.158-.315.392-.09.521l5.7,3.292a1.011,1.011,0,0,0,.9-.052l6.463-3.731c.275-.159.315-.392.09-.523l-5.7-3.291A1.011,1.011,0,0,0,162.467,355.163Zm20.949,5.781,6.463-3.732c.274-.158.315-.392.09-.522l-5.7-3.291a1.01,1.01,0,0,0-.9.052l-6.462,3.731c-.274.159-.315.393-.09.522l5.7,3.291A1.011,1.011,0,0,0,183.416,360.944Zm9.445-5.453,6.463-3.732c.275-.159.316-.392.091-.522l-5.7-3.292a1.014,1.014,0,0,0-.9.052l-6.463,3.731c-.274.159-.315.393-.089.523l5.7,3.291A1.008,1.008,0,0,0,192.861,355.491Zm9.446-5.454,6.463-3.731c.275-.159.315-.393.09-.523l-5.7-3.291a1.008,1.008,0,0,0-.9.052l-6.463,3.731c-.275.159-.315.393-.09.522l5.7,3.292A1.011,1.011,0,0,0,202.307,350.037Zm-30.4-.327-6.462,3.731c-.275.158-.315.392-.091.522l5.7,3.291a1.008,1.008,0,0,0,.9-.052l6.463-3.731c.274-.158.315-.392.09-.522l-5.7-3.291A1.01,1.01,0,0,0,171.912,349.71Zm9.446-5.454-6.462,3.731c-.275.159-.316.393-.091.523l5.7,3.291a1.01,1.01,0,0,0,.9-.052l6.462-3.731c.275-.159.315-.392.09-.522l-5.7-3.292A1.011,1.011,0,0,0,181.358,344.256Zm37.783-21.813-6.463,3.73c-.275.16-.315.393-.09.523l5.7,3.291a1.008,1.008,0,0,0,.9-.052l6.463-3.731c.274-.158.315-.393.09-.522l-5.7-3.291A1.008,1.008,0,0,0,219.141,322.443ZM209.7,327.9l-6.463,3.731c-.274.159-.315.393-.09.522l5.7,3.292a1.014,1.014,0,0,0,.9-.052l6.463-3.731c.275-.159.315-.393.09-.523l-5.7-3.291A1.008,1.008,0,0,0,209.7,327.9Zm18.891-10.907-6.463,3.731c-.274.159-.314.393-.089.522l5.7,3.292a1.013,1.013,0,0,0,.905-.052l6.463-3.732c.274-.158.314-.392.089-.521l-5.7-3.292A1.011,1.011,0,0,0,228.586,316.989ZM190.8,338.8l-6.463,3.732c-.275.159-.315.393-.09.522l5.7,3.291a1.011,1.011,0,0,0,.9-.051l6.463-3.731c.274-.159.315-.393.09-.523l-5.7-3.291A1.01,1.01,0,0,0,190.8,338.8Zm9.445-5.453-6.463,3.732c-.274.158-.315.392-.089.522l5.7,3.291a1.011,1.011,0,0,0,.9-.051l6.462-3.732c.275-.158.316-.393.091-.522l-5.7-3.291A1.008,1.008,0,0,0,200.249,333.349ZM187.907,368.7l6.463-3.731c.275-.158.315-.392.091-.522l-5.7-3.292a1.014,1.014,0,0,0-.9.052l-6.463,3.731c-.274.159-.315.393-.09.523l5.7,3.292A1.011,1.011,0,0,0,187.907,368.7Zm-50.172-2.561-5.7-3.291a1.008,1.008,0,0,0-.9.052l-6.463,3.731c-.275.159-.315.392-.09.522l5.7,3.292a1.011,1.011,0,0,0,.9-.052l6.463-3.731C137.92,366.506,137.96,366.272,137.735,366.142Zm12.446,3.167-5.7-3.291a1.011,1.011,0,0,0-.9.052l-9.942,5.74c-.275.159-.315.393-.09.523l5.7,3.291a1.011,1.011,0,0,0,.9-.052l9.943-5.74C150.365,369.673,150.4,369.439,150.181,369.309Zm-20.839-9.735-5.7-3.291a1.013,1.013,0,0,0-.9.052l-7.954,4.593c-.274.158-.315.392-.09.522l5.7,3.291a1.011,1.011,0,0,0,.9-.052l7.955-4.593C129.527,359.939,129.567,359.7,129.342,359.574Zm6.1-3.52a1.011,1.011,0,0,0,.9-.052l6.462-3.732c.275-.158.316-.392.091-.521l-5.7-3.292a1.013,1.013,0,0,0-.9.052l-6.462,3.731c-.275.159-.315.392-.091.522Zm26.191,17-5.7-3.292a1.011,1.011,0,0,0-.9.053L142.6,376.987c-.274.159-.315.392-.089.522l5.7,3.291a1.01,1.01,0,0,0,.9-.051l12.429-7.176C161.817,373.414,161.857,373.181,161.632,373.051Zm4.491,7.759-5.7-3.291a1.008,1.008,0,0,0-.9.051l-7.955,4.593c-.275.159-.315.393-.09.522l5.7,3.292a1.014,1.014,0,0,0,.9-.052l7.955-4.593C166.308,381.174,166.348,380.94,166.123,380.81Zm39.547-65.3a1.011,1.011,0,0,0,.9-.051l6.462-3.732c.275-.159.316-.392.091-.522l-5.7-3.291a1.009,1.009,0,0,0-.9.051l-6.462,3.731c-.275.159-.315.393-.09.523Zm-18.892,10.907a1.013,1.013,0,0,0,.9-.052l6.463-3.732c.274-.158.314-.391.089-.521l-5.7-3.292a1.013,1.013,0,0,0-.9.052l-6.462,3.731c-.275.159-.315.392-.091.523ZM144.886,350.6a1.008,1.008,0,0,0,.9-.052l6.463-3.731c.275-.158.315-.392.09-.522l-5.7-3.292a1.011,1.011,0,0,0-.9.053l-6.463,3.731c-.274.158-.315.392-.09.522Zm51.338-29.64a1.008,1.008,0,0,0,.9-.052l6.463-3.731c.275-.158.315-.392.09-.522l-5.7-3.291a1.008,1.008,0,0,0-.9.052l-6.463,3.731c-.274.158-.315.392-.09.522Zm-18.891,10.908a1.011,1.011,0,0,0,.9-.053l6.463-3.731c.275-.158.315-.392.09-.522l-5.7-3.291a1.008,1.008,0,0,0-.9.052l-6.463,3.731c-.275.158-.315.392-.09.522Zm-5.956,49.679a1.01,1.01,0,0,0-.9.052l-9.942,5.74c-.275.159-.315.393-.09.523l5.7,3.291a1.01,1.01,0,0,0,.9-.052l9.943-5.741c.274-.158.314-.392.089-.522Zm-7.6-41.853a1.016,1.016,0,0,0,.905-.052l6.462-3.731c.275-.159.315-.393.09-.523l-5.7-3.291a1.01,1.01,0,0,0-.9.052l-6.462,3.731c-.275.158-.315.392-.09.522Zm-9.445,5.453a1.008,1.008,0,0,0,.9-.052l6.463-3.731c.274-.159.315-.393.09-.522l-5.7-3.292a1.011,1.011,0,0,0-.9.052l-6.463,3.731c-.275.159-.315.393-.09.523Zm192.037-64.632a1.008,1.008,0,0,0-.9.052l-15.908,9.184c-.275.159-.315.393-.091.523l5.7,3.291a1.008,1.008,0,0,0,.9-.052l15.908-9.185c.275-.158.315-.392.09-.522Zm-20.88,12.055a1.008,1.008,0,0,0-.9.052l-6.463,3.731c-.274.159-.314.392-.089.522l5.7,3.292a1.013,1.013,0,0,0,.9-.053l6.463-3.731c.274-.158.314-.392.089-.522ZM197.353,363.25l6.463-3.731c.275-.159.315-.393.089-.523l-5.7-3.291a1.008,1.008,0,0,0-.9.052l-6.463,3.731c-.275.159-.315.392-.09.522l5.7,3.292A1.011,1.011,0,0,0,197.353,363.25ZM306.6,303.477a1.008,1.008,0,0,0-.9.052l-6.463,3.731c-.275.159-.315.392-.09.522l5.7,3.292a1.014,1.014,0,0,0,.9-.052l6.463-3.732c.275-.158.315-.392.09-.522Zm49.217-28.416a1.011,1.011,0,0,0-.9.052l-6.463,3.732c-.274.158-.315.392-.09.522l5.7,3.291a1.008,1.008,0,0,0,.9-.052l6.463-3.731c.275-.159.315-.392.09-.522Zm15.147-2.161L356.3,264.431a1.014,1.014,0,0,0-.9.052l-6.463,3.732c-.275.158-.315.392-.09.522L363.5,277.2a1.011,1.011,0,0,0,.9-.052l6.464-3.732C371.146,273.263,371.186,273.029,370.962,272.9ZM271.3,323.855a1.011,1.011,0,0,0-.9.052l-7.954,4.593c-.275.158-.315.392-.09.522l5.7,3.291a1.008,1.008,0,0,0,.9-.052l7.954-4.592c.275-.159.315-.393.09-.522Zm23.863-13.777a1.011,1.011,0,0,0-.9.052l-9.943,5.741c-.274.158-.315.392-.09.522l5.7,3.291a1.013,1.013,0,0,0,.9-.052l9.942-5.741c.275-.158.315-.391.09-.522Zm-45.736,26.406a1.013,1.013,0,0,0-.9.052L195.33,367.248c-.275.158-.316.392-.091.521l5.7,3.292a1.01,1.01,0,0,0,.9-.052L255.038,340.3c.275-.159.315-.393.09-.523Zm-56.177,32.434a1.008,1.008,0,0,0-.9.052l-7.955,4.592c-.275.158-.315.392-.09.522l5.7,3.292a1.014,1.014,0,0,0,.9-.052l7.955-4.593c.274-.158.314-.392.09-.522Zm67.113-38.748a1.008,1.008,0,0,0-.9.052l-7.954,4.592c-.275.159-.315.392-.09.522l5.7,3.291a1.008,1.008,0,0,0,.9-.051l7.954-4.593c.275-.158.315-.392.09-.522Zm-78.05,45.062a1.013,1.013,0,0,0-.9.052l-7.954,4.593c-.275.158-.315.392-.09.522l5.7,3.291a1.011,1.011,0,0,0,.9-.051l7.954-4.593c.275-.159.315-.392.091-.522Zm99.924-57.691a1.008,1.008,0,0,0-.9.052l-7.954,4.592c-.274.159-.315.392-.09.522l5.7,3.291a1.01,1.01,0,0,0,.9-.051l7.955-4.593c.274-.158.314-.392.089-.522Zm33.806-19.518a1.013,1.013,0,0,0-.9.052l-6.462,3.731c-.275.159-.315.392-.09.522l5.7,3.292a1.011,1.011,0,0,0,.9-.052l6.463-3.731c.275-.159.314-.392.09-.523Zm20.508-15.14,6.462-3.731c.275-.159.316-.392.091-.522l-5.7-3.291a1.01,1.01,0,0,0-.9.052l-6.462,3.731c-.274.158-.315.392-.09.522l5.7,3.291A1.008,1.008,0,0,0,336.552,282.883Zm-38.811,1.7,6.463-3.732c.274-.158.314-.392.09-.522l-5.7-3.291a1.01,1.01,0,0,0-.9.052l-6.462,3.731c-.275.159-.315.392-.09.522l5.7,3.291A1.013,1.013,0,0,0,297.741,284.586Zm-24.823,35.036,18.892-10.907c.274-.158.314-.392.089-.522l-5.7-3.291a1.01,1.01,0,0,0-.9.052L266.4,315.861c-.275.158-.315.392-.09.522l5.7,3.291A1.008,1.008,0,0,0,272.918,319.622ZM326.2,288.389a1.011,1.011,0,0,0,.9-.052l6.463-3.731c.275-.159.315-.393.09-.523l-5.7-3.291a1.008,1.008,0,0,0-.9.052l-6.463,3.731c-.274.159-.315.393-.09.522Zm-8.061-5.228,6.463-3.732c.274-.158.315-.392.089-.522l-5.7-3.291a1.013,1.013,0,0,0-.9.051l-6.462,3.732c-.275.159-.316.392-.091.522l5.7,3.291A1.011,1.011,0,0,0,318.141,283.161Zm-54.669,41.915,6.463-3.732c.275-.158.315-.392.09-.521l-5.7-3.292a1.008,1.008,0,0,0-.9.052l-6.463,3.731c-.274.159-.315.392-.089.522l5.7,3.292A1.014,1.014,0,0,0,263.472,325.076Zm41.85-24.632a1.013,1.013,0,0,0,.9-.052l6.462-3.732c.275-.158.315-.392.09-.521l-5.7-3.292a1.008,1.008,0,0,0-.9.052l-6.463,3.731c-.275.159-.315.392-.09.522Zm-89.078,51.9,6.463-3.732c.275-.158.315-.391.09-.521l-5.7-3.292a1.008,1.008,0,0,0-.9.052l-6.463,3.731c-.274.159-.314.393-.09.522l5.7,3.292A1.011,1.011,0,0,0,216.244,352.343Zm9.446-5.454,6.463-3.731c.274-.159.315-.392.09-.522l-5.7-3.292a1.011,1.011,0,0,0-.9.053l-6.463,3.731c-.275.158-.315.392-.09.522l5.7,3.291A1.008,1.008,0,0,0,225.69,346.889ZM206.8,357.8l6.463-3.731c.274-.158.315-.393.089-.522l-5.7-3.291a1.013,1.013,0,0,0-.9.051l-6.462,3.732c-.275.158-.315.392-.091.522l5.7,3.292A1.013,1.013,0,0,0,206.8,357.8Zm37.782-21.813,6.463-3.731c.275-.159.315-.393.09-.523l-5.7-3.291a1.008,1.008,0,0,0-.9.052l-6.463,3.731c-.274.158-.315.392-.09.522l5.7,3.292A1.014,1.014,0,0,0,244.581,335.983Zm-9.445,5.453L241.6,337.7c.275-.158.315-.392.091-.522l-5.7-3.292a1.011,1.011,0,0,0-.9.052l-6.463,3.731c-.274.159-.315.393-.089.523l5.7,3.291A1.008,1.008,0,0,0,235.136,341.436Zm18.891-10.907,6.463-3.731c.274-.158.315-.393.09-.522l-5.7-3.291a1.007,1.007,0,0,0-.9.051l-6.464,3.731c-.274.159-.314.393-.089.523l5.7,3.292A1.013,1.013,0,0,0,254.027,330.529Zm52.193-75.49a1.013,1.013,0,0,0,.9-.052l6.463-3.732c.275-.158.314-.391.089-.521l-1.517-.877a1.011,1.011,0,0,0-.9.052l-6.464,3.732c-.273.158-.314.392-.089.522ZM259.1,284.661a1.011,1.011,0,0,0,.9-.051l6.463-3.732c.274-.158.315-.392.09-.522l-5.7-3.291a1,1,0,0,0-.9.052l-6.463,3.731c-.275.159-.315.392-.09.522Zm18.891-10.906a1.011,1.011,0,0,0,.9-.052l6.463-3.731c.275-.159.314-.393.09-.523l-5.7-3.291a1.008,1.008,0,0,0-.9.052l-6.463,3.731c-.274.158-.315.393-.09.522Zm-30.425,17.566a1.014,1.014,0,0,0,.9-.052l6.463-3.732c.274-.158.315-.392.09-.522l-5.7-3.291a1.008,1.008,0,0,0-.9.052l-6.463,3.731c-.275.159-.315.392-.09.522Zm20.979-12.113a1.01,1.01,0,0,0,.905-.052l6.463-3.731c.274-.159.314-.392.089-.522l-5.7-3.291a1.007,1.007,0,0,0-.9.051l-6.462,3.732c-.275.158-.316.392-.091.522Zm-39.871,23.02a1.013,1.013,0,0,0,.9-.053l6.463-3.731c.274-.158.314-.392.09-.522l-5.7-3.291a1.01,1.01,0,0,0-.9.052l-6.462,3.731c-.275.159-.315.392-.09.522Zm9.446-5.454a1.01,1.01,0,0,0,.9-.052l6.463-3.731c.274-.159.314-.392.089-.522l-5.7-3.292a1.011,1.011,0,0,0-.9.052l-6.462,3.731c-.275.159-.315.392-.09.523Zm49.213-30.828a1.016,1.016,0,0,0,.9-.052l6.463-3.732c.274-.158.314-.392.09-.522l-1.518-.876a1.014,1.014,0,0,0-.9.051l-6.463,3.732c-.275.159-.315.393-.09.522Zm28.337-16.361a1.013,1.013,0,0,0,.905-.051l6.463-3.732c.274-.159.314-.392.089-.522l-1.517-.876a1.01,1.01,0,0,0-.9.052l-6.463,3.731c-.274.158-.314.393-.089.522Zm11.976,6.914a1.01,1.01,0,0,0,.9-.051l6.463-3.732c.275-.158.315-.392.09-.522l-5.7-3.291a1.008,1.008,0,0,0-.9.051l-6.463,3.732c-.275.159-.315.392-.09.522ZM346,277.43l6.463-3.732c.275-.158.316-.392.09-.521l-5.7-3.292a1.013,1.013,0,0,0-.9.052l-6.463,3.731c-.274.159-.314.392-.089.522l5.7,3.292A1.011,1.011,0,0,0,346,277.43Zm-49.222-16.938a1.008,1.008,0,0,0,.9-.052l6.463-3.731c.275-.158.315-.393.09-.522l-1.518-.876a1.008,1.008,0,0,0-.9.052l-6.463,3.731c-.274.159-.315.392-.09.522Zm-77.55,47.189a1.008,1.008,0,0,0,.9-.052l6.463-3.731c.275-.159.315-.393.09-.522l-5.7-3.292a1.011,1.011,0,0,0-.9.052l-6.463,3.732c-.274.158-.315.391-.09.521Z" fill="#455a64"/><path d="M248.145,356.458l1.325.764,35.2,20.318L347.261,341.4l1.3-.742-36.522-21.082Z" fill="#263238"/><path d="M346.677,341.738l-34.635-19.982-61.988,35.8,34.613,19.981Z" fill="#37474f"/><path d="M386.217,63.423c0-2.635-.919-4.491-2.408-5.366-1.506-.886-10.229-5.918-11.745-6.781s-3.573-.725-5.858.594L202.95,146.126v54.03l11.7,6.753L377.9,112.654c4.592-2.651,8.314-9.1,8.314-14.4Z" fill="#3343E0"/><path d="M386.217,63.423c0-2.635-.919-4.491-2.408-5.366-1.506-.886-10.229-5.918-11.745-6.781s-3.573-.725-5.858.594L202.95,146.126v54.03l11.7,6.753L377.9,112.654c4.592-2.651,8.314-9.1,8.314-14.4Z" opacity="0.15"/><path d="M377.9,58.623c4.591-2.65,8.313-.5,8.314,4.8V98.255c0,5.3-3.722,11.748-8.314,14.4L214.649,206.909v-54.03Z" fill="#3343E0"/><path d="M376.228,108.2a12.432,12.432,0,0,0,5.6-9.706V66.321c0-2.537-1.8-3.574-3.994-2.306L217.935,156.4v43.259Z" fill="#fafafa"/><path d="M245.8,172.976a1.712,1.712,0,0,1-.176.741,1.109,1.109,0,0,1-.417.512l-2.762,1.594a.317.317,0,0,1-.417-.03.72.72,0,0,1-.175-.539v-8.54a3.516,3.516,0,0,0-.46-2.063q-.46-.61-1.447-.041a3.3,3.3,0,0,0-1.436,1.705,7.02,7.02,0,0,0-.45,2.589v8.54a1.718,1.718,0,0,1-.175.742,1.11,1.11,0,0,1-.416.511l-2.763,1.594a.315.315,0,0,1-.416-.029.714.714,0,0,1-.176-.539V157.58a1.706,1.706,0,0,1,.176-.742,1.112,1.112,0,0,1,.416-.512l2.763-1.594a.318.318,0,0,1,.416.03.719.719,0,0,1,.175.539v7.189a10.237,10.237,0,0,1,1.162-2.037,5.8,5.8,0,0,1,1.82-1.709,4.442,4.442,0,0,1,1.929-.658,1.953,1.953,0,0,1,1.5.534,3.916,3.916,0,0,1,.975,1.833,12.291,12.291,0,0,1,.352,3.241Z" fill="#455a64"/><path d="M253.389,162.657a1.9,1.9,0,0,0,.219,1.071q.221.294.725,0l1.753-1.013a.321.321,0,0,1,.417.029.728.728,0,0,1,.175.541V166.7a1.736,1.736,0,0,1-.175.742,1.111,1.111,0,0,1-.417.511l-2.082,1.2a4.139,4.139,0,0,1-1.875.626,1.979,1.979,0,0,1-1.437-.487,3.378,3.378,0,0,1-.92-1.56,8.785,8.785,0,0,1-.329-2.6v-5.672l-1.622.938a.319.319,0,0,1-.417-.03.726.726,0,0,1-.175-.541v-3.408a1.732,1.732,0,0,1,.175-.742,1.125,1.125,0,0,1,.417-.512l1.622-.935v-5.5a1.74,1.74,0,0,1,.175-.743,1.122,1.122,0,0,1,.417-.511l2.763-1.594a.319.319,0,0,1,.417.029.726.726,0,0,1,.174.539v5.5l2.478-1.429a.32.32,0,0,1,.417.029.727.727,0,0,1,.175.54V154.5a1.729,1.729,0,0,1-.175.742,1.118,1.118,0,0,1-.417.511l-2.478,1.431Z" fill="#455a64"/><path d="M263.781,156.657a1.887,1.887,0,0,0,.219,1.072q.219.294.724,0l1.753-1.013a.32.32,0,0,1,.417.028.726.726,0,0,1,.175.541V160.7a1.712,1.712,0,0,1-.175.742,1.107,1.107,0,0,1-.417.511l-2.082,1.2a4.117,4.117,0,0,1-1.875.625,1.98,1.98,0,0,1-1.436-.486,3.37,3.37,0,0,1-.92-1.56,8.764,8.764,0,0,1-.329-2.6v-5.671l-1.622.937a.318.318,0,0,1-.417-.03.722.722,0,0,1-.175-.54v-3.409a1.739,1.739,0,0,1,.175-.742,1.122,1.122,0,0,1,.417-.511l1.622-.936v-5.5a1.732,1.732,0,0,1,.175-.743,1.112,1.112,0,0,1,.417-.51l2.762-1.6a.32.32,0,0,1,.417.029.729.729,0,0,1,.175.54v5.5l2.478-1.43a.32.32,0,0,1,.417.03.724.724,0,0,1,.174.54V148.5a1.735,1.735,0,0,1-.174.743,1.129,1.129,0,0,1-.417.511l-2.478,1.43Z" fill="#455a64"/><path d="M275.816,156.9a3.363,3.363,0,0,1-1.117.443,1.931,1.931,0,0,1-.833-.025,1.516,1.516,0,0,1-.593-.317,2.6,2.6,0,0,1-.393-.43v7.189a1.737,1.737,0,0,1-.176.742,1.116,1.116,0,0,1-.416.511l-2.764,1.6a.317.317,0,0,1-.416-.032.716.716,0,0,1-.176-.539V143.893a1.73,1.73,0,0,1,.176-.742,1.113,1.113,0,0,1,.416-.51l2.654-1.532a.318.318,0,0,1,.416.03.717.717,0,0,1,.175.539v.776c.131-.3.275-.619.428-.954a6.1,6.1,0,0,1,.569-.988,6.523,6.523,0,0,1,.833-.953,6.414,6.414,0,0,1,1.217-.889,4.28,4.28,0,0,1,1.865-.621,2.056,2.056,0,0,1,1.534.533,4.058,4.058,0,0,1,1.063,1.8,11.071,11.071,0,0,1,.449,3.183q.023.494.023,1.354c0,.574-.008,1.033-.023,1.38a17.405,17.405,0,0,1-.449,3.7,14.6,14.6,0,0,1-1.063,3.027,10.16,10.16,0,0,1-1.534,2.32A7.691,7.691,0,0,1,275.816,156.9Zm.988-8.739a14.163,14.163,0,0,0,0-1.889,3.4,3.4,0,0,0-.5-1.769q-.438-.622-1.468-.029a2.939,2.939,0,0,0-.833.718,4.275,4.275,0,0,0-.581.96,6.1,6.1,0,0,0-.362,1.07,6.941,6.941,0,0,0-.175,1.079c-.031.355-.044.757-.044,1.207s.013.835.044,1.155a3.835,3.835,0,0,0,.175.879,1.79,1.79,0,0,0,.362.651.858.858,0,0,0,.581.289,1.45,1.45,0,0,0,.833-.244,3.322,3.322,0,0,0,1.468-1.725A7.581,7.581,0,0,0,276.8,148.158Z" fill="#455a64"/><path d="M286.821,137.481a1.718,1.718,0,0,1-.175.742,1.12,1.12,0,0,1-.417.512l-2.871,1.657a.316.316,0,0,1-.417-.031.715.715,0,0,1-.175-.538V135.4a1.732,1.732,0,0,1,.175-.743,1.091,1.091,0,0,1,.417-.51l2.871-1.658a.319.319,0,0,1,.417.029.725.725,0,0,1,.175.54Zm0,11.814a1.714,1.714,0,0,1-.175.741,1.1,1.1,0,0,1-.417.511l-2.871,1.658a.316.316,0,0,1-.417-.029.721.721,0,0,1-.175-.54v-4.422a1.729,1.729,0,0,1,.175-.743,1.112,1.112,0,0,1,.417-.51l2.871-1.658a.321.321,0,0,1,.417.029.724.724,0,0,1,.175.541Z" fill="#455a64"/><path d="M295.942,119.422a4.548,4.548,0,0,1,.328-.881,1.578,1.578,0,0,1,.637-.688l2.718-1.57a.259.259,0,0,1,.34.024.594.594,0,0,1,.142.441,1.486,1.486,0,0,1-.044.329l-7.387,31.572a4.355,4.355,0,0,1-.307.852,1.6,1.6,0,0,1-.658.717l-2.675,1.544a.26.26,0,0,1-.34-.023.584.584,0,0,1-.142-.44,1.555,1.555,0,0,1,.043-.33Z" fill="#455a64"/><path d="M303.462,115.08a4.489,4.489,0,0,1,.329-.881,1.57,1.57,0,0,1,.636-.688l2.718-1.569a.258.258,0,0,1,.34.023.591.591,0,0,1,.142.442,1.5,1.5,0,0,1-.044.329L300.2,144.307a4.294,4.294,0,0,1-.307.852,1.6,1.6,0,0,1-.658.717l-2.675,1.544a.259.259,0,0,1-.339-.022.588.588,0,0,1-.143-.441,1.5,1.5,0,0,1,.044-.33Z" fill="#455a64"/><path d="M317.953,114.68c.219-.126.387-.132.5-.02a.891.891,0,0,1,.241.4l1.622,6.725,1.623-8.6a3.077,3.077,0,0,1,.241-.68,1.238,1.238,0,0,1,.5-.561l2.718-1.57a.285.285,0,0,1,.373.022.647.647,0,0,1,.153.485,1.859,1.859,0,0,1-.021.282l-3.486,17.641a3.178,3.178,0,0,1-.23.7,1.185,1.185,0,0,1-.494.557l-2.5,1.442c-.219.126-.38.13-.483.008a1.373,1.373,0,0,1-.241-.435l-1.556-6.188-1.556,7.986a4.854,4.854,0,0,1-.241.712,1.132,1.132,0,0,1-.484.55l-2.5,1.442q-.327.19-.493.015a.974.974,0,0,1-.229-.441l-3.487-13.615a1.517,1.517,0,0,1-.022-.257,1.549,1.549,0,0,1,.154-.663.98.98,0,0,1,.372-.451l2.719-1.57c.22-.126.387-.132.505-.02a.879.879,0,0,1,.24.4l1.622,6.725,1.623-8.6a3.148,3.148,0,0,1,.242-.679,1.245,1.245,0,0,1,.5-.562Z" fill="#455a64"/><path d="M336.938,103.719c.22-.127.387-.133.5-.021a.885.885,0,0,1,.241.4l1.623,6.724,1.623-8.6a3.071,3.071,0,0,1,.241-.679,1.236,1.236,0,0,1,.5-.562l2.718-1.569a.284.284,0,0,1,.373.021.653.653,0,0,1,.153.485,1.994,1.994,0,0,1-.021.282l-3.486,17.641a3.205,3.205,0,0,1-.23.706,1.183,1.183,0,0,1-.494.556l-2.5,1.442c-.218.127-.379.13-.481.008a1.322,1.322,0,0,1-.241-.434l-1.557-6.189-1.557,7.986a4.571,4.571,0,0,1-.241.713,1.12,1.12,0,0,1-.482.549l-2.5,1.443c-.22.127-.384.131-.493.014a.954.954,0,0,1-.231-.44l-3.486-13.615a1.5,1.5,0,0,1,.133-.92.962.962,0,0,1,.372-.451l2.718-1.57c.219-.127.387-.133.5-.021a.879.879,0,0,1,.242.4l1.622,6.724,1.623-8.6a3.087,3.087,0,0,1,.241-.679,1.232,1.232,0,0,1,.5-.563Z" fill="#455a64"/><path d="M355.925,92.758c.218-.127.386-.133.5-.022a.9.9,0,0,1,.241.4l1.622,6.726,1.623-8.6a3.069,3.069,0,0,1,.241-.679,1.232,1.232,0,0,1,.5-.561l2.718-1.57a.285.285,0,0,1,.373.021.656.656,0,0,1,.153.486,1.97,1.97,0,0,1-.021.281L360.4,106.883a3.224,3.224,0,0,1-.229.707,1.185,1.185,0,0,1-.494.555l-2.5,1.443c-.219.127-.38.129-.483.008a1.389,1.389,0,0,1-.241-.434l-1.557-6.189-1.555,7.986a4.725,4.725,0,0,1-.242.713,1.127,1.127,0,0,1-.483.549l-2.5,1.443q-.329.189-.493.014a.977.977,0,0,1-.23-.44L345.9,99.622a1.415,1.415,0,0,1-.022-.257,1.537,1.537,0,0,1,.154-.663.985.985,0,0,1,.372-.451l2.719-1.569c.219-.127.386-.133.505-.022a.9.9,0,0,1,.24.4l1.622,6.725,1.623-8.6a3.155,3.155,0,0,1,.241-.679,1.238,1.238,0,0,1,.5-.561Z" fill="#455a64"/><path d="M368.75,101.993a1.724,1.724,0,0,1-.176.743,1.1,1.1,0,0,1-.416.51l-2.872,1.658a.318.318,0,0,1-.417-.029.722.722,0,0,1-.175-.54V99.913a1.729,1.729,0,0,1,.175-.743,1.113,1.113,0,0,1,.417-.51L368.158,97a.316.316,0,0,1,.416.03.722.722,0,0,1,.176.54Z" fill="#455a64"/><path d="M207.444,137.153v0l-.078-.048-.008-.005-20.006-11.877-.018-.011-.11-.068,0,.006c-8.811-5.312-20.569-4.475-33.215,3.781-25.406,16.589-44.765,56.824-43.24,89.867.76,16.47,6.567,28.042,15.345,33.455l0,0,.078.047.009.006,20.01,11.88.008.005.093.057,0,0c8.814,5.327,20.581,4.495,33.237-3.769,25.406-16.588,44.765-56.823,43.241-89.867C222.029,154.137,216.222,142.566,207.444,137.153Z" fill="#37474f"/><path d="M145.566,263.778,126.2,252.3h-.014l-.085-.06c-8.773-5.426-14.577-17-15.336-33.445-.681-14.737,2.8-30.9,9.1-45.739l.127-.326,19.886,12.2c-6.315,14.845-9.783,31-9.1,45.739C131.525,246.793,137.1,258.216,145.566,263.778Z" fill="#263238"/><path d="M179.548,260.474c25.406-16.588,44.765-56.823,43.24-89.867s-23.355-46.382-48.761-29.793-44.765,56.822-43.24,89.866S154.143,277.062,179.548,260.474Z" fill="#455a64"/><path d="M165.21,251.748a18.768,18.768,0,0,1-9.471-2.475c-8-4.6-12.594-15.158-12.594-28.957,0-25.387,15.434-55.019,34.4-66.054,8.626-5.019,17.054-5.664,23.732-1.823,8,4.6,12.594,15.157,12.594,28.957,0,25.386-15.434,55.017-34.4,66.053A28.641,28.641,0,0,1,165.21,251.748ZM191.8,153.8a24.872,24.872,0,0,0-12.333,3.77c-17.921,10.424-32.5,38.573-32.5,62.747,0,12.393,3.891,21.739,10.675,25.641,5.443,3.128,12.511,2.487,19.9-1.814,17.921-10.426,32.5-38.574,32.5-62.747,0-12.394-3.891-21.739-10.675-25.642A14.994,14.994,0,0,0,191.8,153.8Z" fill="#3343E0"/><path d="M165.205,188.268a18.157,18.157,0,0,1-11.423-3.93l1.77-2.258c5.844,4.58,13.743,4.382,22.237-.561,8.8-5.121,17.073-14.606,23.288-26.705l2.553,1.31c-6.464,12.582-15.128,22.482-24.4,27.875A28.2,28.2,0,0,1,165.205,188.268Z" fill="#3343E0"/><path d="M155.944,246.9l-2.553-1.311c6.462-12.581,15.127-22.48,24.4-27.874,9.581-5.572,18.617-5.691,25.449-.34l-1.769,2.258c-5.846-4.578-13.744-4.378-22.237.563C170.429,225.313,162.158,234.8,155.944,246.9Z" fill="#3343E0"/><path d="M174.807,248.325a7.7,7.7,0,0,1-3.875-1.072C164.19,243.375,160,229.4,160,210.787c0-25.663,7.812-50.31,17.786-56.112a7.91,7.91,0,0,1,8.3-.218c6.741,3.878,10.928,17.851,10.928,36.467,0,25.662-7.812,50.31-17.785,56.112A8.78,8.78,0,0,1,174.807,248.325Zm7.4-92.071a5.912,5.912,0,0,0-2.975.9c-8.868,5.159-16.36,29.719-16.36,53.632,0,19.7,4.767,31.262,9.49,33.979a5.063,5.063,0,0,0,5.427-.21c8.868-5.158,16.359-29.719,16.359-53.632,0-19.7-4.766-31.263-9.49-33.98A4.862,4.862,0,0,0,182.207,156.254Z" fill="#3343E0"/><rect width="2.869" height="89.881" transform="translate(177.076 155.915)" fill="#3343E0"/><rect width="77.4" height="2.87" transform="translate(144.339 219.08) rotate(-30.195)" fill="#3343E0"/><path d="M412.591,137.483a3.085,3.085,0,0,0-1.194-1.392h.007l-2.98-1.721v.008c-1.3-.745-2.882-.008-3.72.507l-1.86-1.074h0c-2.258-1.363-5.395,1.488-6.1,2.173l-.805-.464h0c-1.062-.64-2.507-.235-3.788.412V125.1a2.72,2.72,0,0,0-1.069-2.441h0l-.031-.018-.05-.029-2.925-1.692-.007,0-.02-.012v0a2.7,2.7,0,0,0-2.68.279,8.457,8.457,0,0,0-3.826,6.627V161q-.228-.111-.456-.212c-2.615-1.843-5.359-2.938-7.783-2.507a8.262,8.262,0,0,0-4.979,3.439c-1.265,2.23.823,3.63,3.512,6.706,2.665,3.048,5.017,6.719,7.445,8.984a13.122,13.122,0,0,0,4.188,2.854V184.6l2.954,1.706,22.48-12.979V168.99s2.79-11.121,3.681-15.769S414.3,141.047,412.591,137.483Z" fill="#3343E0"/><path d="M412.591,137.483a3.085,3.085,0,0,0-1.194-1.392h.007l-2.98-1.721v.008c-1.3-.745-2.882-.008-3.72.507l-1.86-1.074h0c-2.258-1.363-5.395,1.488-6.1,2.173l-.805-.464h0c-1.062-.64-2.507-.235-3.788.412V125.1a2.72,2.72,0,0,0-1.069-2.441h0l-.031-.018-.05-.029-2.925-1.692-.007,0-.02-.012v0a2.7,2.7,0,0,0-2.68.279,8.457,8.457,0,0,0-3.826,6.627V161q-.228-.111-.456-.212c-2.615-1.843-5.359-2.938-7.783-2.507a8.262,8.262,0,0,0-4.979,3.439c-1.265,2.23.823,3.63,3.512,6.706,2.665,3.048,5.017,6.719,7.445,8.984a13.122,13.122,0,0,0,4.188,2.854V184.6l2.954,1.706,22.48-12.979V168.99s2.79-11.121,3.681-15.769S414.3,141.047,412.591,137.483Z" fill="#fff" opacity="0.8"/><path d="M392.157,135.968v3.676l.007-.007a16.1,16.1,0,0,1,2.887-1.975Zm13.579-1.6a6.516,6.516,0,0,0-1.029.515l.953.555a3.394,3.394,0,0,1,1.413,1.55,6.912,6.912,0,0,1,1.7-.953Zm-6.995.035a12.648,12.648,0,0,0-2,1.577l1.948,1.132a.852.852,0,0,1,.109.061,2.192,2.192,0,0,1,.755.659l.007-.007a12.646,12.646,0,0,1,2.071-1.68Zm-17.193-6.6V161a19.026,19.026,0,0,1,2.955,1.824V129.515Zm10.6,8.155.014.006v-.034Zm-9.9,43.15c-2.427-2.263-4.78-5.932-7.441-8.984-2.523-2.887-4.526-4.3-3.7-6.309l-2.956-1.708c-.823,2.009,1.173,3.422,3.7,6.316,2.667,3.045,5.013,6.714,7.441,8.984a13.217,13.217,0,0,0,4.19,2.853V184.6l2.956,1.708v-4.341A13.1,13.1,0,0,1,382.24,179.112Z" fill="#3343E0" opacity="0.2"/><path d="M392.157,135.968v3.676l.007-.007a16.1,16.1,0,0,1,2.887-1.975Zm13.579-1.6a6.516,6.516,0,0,0-1.029.515l.953.555a3.394,3.394,0,0,1,1.413,1.55,6.912,6.912,0,0,1,1.7-.953Zm-6.995.035a12.648,12.648,0,0,0-2,1.577l1.948,1.132a.852.852,0,0,1,.109.061,2.192,2.192,0,0,1,.755.659l.007-.007a12.646,12.646,0,0,1,2.071-1.68Zm-17.193-6.6V161a19.026,19.026,0,0,1,2.955,1.824V129.515Zm10.6,8.155.014.006v-.034Zm-9.9,43.15c-2.427-2.263-4.78-5.932-7.441-8.984-2.523-2.887-4.526-4.3-3.7-6.309l-2.956-1.708c-.823,2.009,1.173,3.422,3.7,6.316,2.667,3.045,5.013,6.714,7.441,8.984a13.217,13.217,0,0,0,4.19,2.853V184.6l2.956,1.708v-4.341A13.1,13.1,0,0,1,382.24,179.112Z" opacity="0.1"/><path d="M386.43,186.311v-4.342a13.122,13.122,0,0,1-4.188-2.854c-2.428-2.265-4.779-5.936-7.445-8.985-2.689-3.075-4.777-4.475-3.511-6.705a8.262,8.262,0,0,1,4.979-3.439c2.565-.456,5.489.8,8.238,2.835V129.512a8.457,8.457,0,0,1,3.826-6.626h0c2.113-1.22,3.826-.231,3.826,2.209v14.548s5.271-4.681,7.4-1.81c0,0,5.18-5.426,7.518-.843,0,0,3.8-3.071,5.517.493s.891,11.091,0,15.738-3.681,15.769-3.681,15.769v4.342Z" fill="#3343E0"/><path d="M386.43,186.311v-4.342a13.122,13.122,0,0,1-4.188-2.854c-2.428-2.265-4.779-5.936-7.445-8.985-2.689-3.075-4.777-4.475-3.511-6.705a8.262,8.262,0,0,1,4.979-3.439c2.565-.456,5.489.8,8.238,2.835V129.512a8.457,8.457,0,0,1,3.826-6.626h0c2.113-1.22,3.826-.231,3.826,2.209v14.548s5.271-4.681,7.4-1.81c0,0,5.18-5.426,7.518-.843,0,0,3.8-3.071,5.517.493s.891,11.091,0,15.738-3.681,15.769-3.681,15.769v4.342Z" fill="#fff" opacity="0.65"/><g opacity="0.1"><path d="M392.155,145.89s.48-6.638,2.918-8.216l-.087.025a15.953,15.953,0,0,0-2.831,1.944v-.125a.152.152,0,0,0,0,.125Z"/><path d="M399.557,137.832V143.9s.673-6.244,2.073-7.753A12.522,12.522,0,0,0,399.557,137.832Z"/><path d="M407.075,136.989h0v6.1s.371-6.14,1.693-7.046A6.86,6.86,0,0,0,407.075,136.989Z"/></g><path d="M336.526,311.4c-17.271,8.607-25.111,17.649-16.17,23.984S353.627,350.3,353.627,350.3l3.19,10.724,35.345-20.407V328.475s-21.808-15.035-30.324-17.931S346.648,306.355,336.526,311.4Z" opacity="0.15"/><path d="M385.264,366.131s-5.338,13.084-5.61,18.245c-.284,5.378-1.584,7.16-.672,13.009.2,1.274.868,3.828,1.034,4.863a1.525,1.525,0,0,1-1.381,1.907c-2.334.484-6.21-3.9-8.054-8.671a141.06,141.06,0,0,1-4.621-16.818,7.357,7.357,0,0,1,.738-3.765,11.269,11.269,0,0,1,1.073-1.949c.772-2.342,1.142-6.792,1.793-9.871Z" fill="#ffa8a7"/><path d="M361.4,383.568a5.54,5.54,0,0,0-.625,1.763c-.056,1.072,2.367,4.607,3.317,5.894a8.612,8.612,0,0,1,1.749,6.113,14.865,14.865,0,0,0,3.6,9.572,23.6,23.6,0,0,0,11.731,7.677c5.665,1.744,7.663-1.1,7.663-1.1s1.756-2.734.7-3.854S361.4,383.568,361.4,383.568Z" fill="#263238"/><path d="M367.771,372.952c-.173-.007-.477-.055-.921.48-.168.2-1.2,2.75-2.059,4.087-.918,1.432-3.107,3.877-3.395,6.049,1.311,4.2,5.251,7.122,5.842,11.087s.659,8.568,6.753,13.42,12.359,5.354,14.611,4.069,2.045-3.7-1.094-8.292c-3.331-4.876-5.575-15.443-5.576-15.448a35,35,0,0,1-.589-4.494,29.583,29.583,0,0,1,.42-4.448,3.3,3.3,0,0,0-.284-2.014,3.413,3.413,0,0,0-1.676-1.159,14.848,14.848,0,0,0-3.13-1.061,4.981,4.981,0,0,0-3.226.391c-.7.378-1.278.98-2.015,1.286a2.889,2.889,0,0,1-2.993-.535,2.473,2.473,0,0,1-.809-2.75A6.247,6.247,0,0,1,367.771,372.952Z" fill="#455a64"/><path d="M370.429,404.185a9.708,9.708,0,0,1,8.831-4.776c6.471.025,8.71,3.317,9.694,5.254,1.172,2.3,2.394,6.485-.277,7.684-2.885,1.3-6.225.9-11.479-1.739S370.429,404.185,370.429,404.185Z" fill="#fafafa"/><path d="M371.608,384.7a.665.665,0,0,0,.59,0c1-.51,6.288-1.616,9.368,1.242.4-.32.317-.9-.193-1.729-3.6-2.29-8.61-1.268-9.817-.652a.615.615,0,0,0-.251.86A.679.679,0,0,0,371.608,384.7Z" fill="#fafafa"/><path d="M382.231,389.7a2,2,0,0,0-.373-1.777,12.1,12.1,0,0,0-9.363-.376.615.615,0,0,0-.251.86.684.684,0,0,0,.893.279C374.108,388.2,379.124,387.152,382.231,389.7Z" fill="#fafafa"/><path d="M384.87,398.448a3.68,3.68,0,0,0-.827-2.342c-3.592-2.165-8.481-1.164-9.671-.558a.614.614,0,0,0-.251.86.681.681,0,0,0,.892.279C376.068,396.149,381.9,394.95,384.87,398.448Z" fill="#fafafa"/><path d="M373.484,392.692a.671.671,0,0,0,.591,0c.988-.5,6.168-1.583,9.261,1.153a2.266,2.266,0,0,0-.54-1.916,12.1,12.1,0,0,0-9.363-.376.616.616,0,0,0-.251.86A.689.689,0,0,0,373.484,392.692Z" fill="#fafafa"/><path d="M391.013,382.2s2.646,15.958,5.588,22.151,4.454,9.182,8.507,13.866c.882,1.021,2.893,2.916,3.614,3.742a1.6,1.6,0,0,1-.168,2.458c-1.8,1.724-9.444,2.133-13.726-1.077s-8.182-10.049-10.735-12.632c-.96-.971-1.863-1.963-2.722-3.017-.828-1.015-.6-1.98-.675-3.118-.035-.55.044-2.051.044-2.051-.585-2.688-2.171-6.9-3.013-9.523Z" fill="#ffa8a7"/><path d="M379.231,414.579a5.811,5.811,0,0,0,.2,1.947c.427,1.04,4.3,3.3,5.772,4.1a9.009,9.009,0,0,1,4.386,5c1.4,3.312,4.314,5.763,7.678,7.453a24.692,24.692,0,0,0,14.529,2.024c6.14-.881,6.762-4.459,6.762-4.459s.441-3.372-1.059-3.96S379.231,414.579,379.231,414.579Z" fill="#263238"/><path d="M380.521,401.686c-.166.071-.475.16-.657.865-.068.267.092,3.139-.122,4.788-.229,1.764-1.209,5.056-.511,7.24,3.117,3.388,8.15,4.394,10.481,7.882s4.45,7.813,12.384,9.683,14.087-.455,15.644-2.676.284-4.412-4.738-7.358c-5.331-3.127-12.175-12.123-12.178-12.127a36.828,36.828,0,0,1-2.565-3.99,31.151,31.151,0,0,1-1.589-4.4,3.45,3.45,0,0,0-1.169-1.779,3.569,3.569,0,0,0-2.1-.348,15.575,15.575,0,0,0-3.436.394,5.213,5.213,0,0,0-2.878,1.811,24.828,24.828,0,0,1-1.333,2.117,3.018,3.018,0,0,1-3.07.83,2.587,2.587,0,0,1-1.995-2.24A6.63,6.63,0,0,1,380.521,401.686Z" fill="#455a64"/><path d="M396.989,430.054a10.155,10.155,0,0,1,6.223-8.464c6.134-2.867,9.723-.752,11.52.641,2.139,1.658,5.162,5.067,3.17,7.4-2.151,2.514-5.491,3.627-11.64,3.482S396.989,430.054,396.989,430.054Z" fill="#fafafa"/><path d="M389.4,411.084a.7.7,0,0,0,.557-.266c.719-.929,5.228-4.338,9.42-3.009.234-.481-.1-1-.955-1.55-4.434-.556-8.714,2.647-9.58,3.768a.643.643,0,0,0,.146.926A.7.7,0,0,0,389.4,411.084Z" fill="#fafafa"/><path d="M401.689,411.08a2.1,2.1,0,0,0-1.148-1.516,12.667,12.667,0,0,0-9.028,3.827.646.646,0,0,0,.147.927.719.719,0,0,0,.412.131.7.7,0,0,0,.557-.267C393.327,413.28,397.608,410.052,401.689,411.08Z" fill="#fafafa"/><path d="M408.091,418.174a3.847,3.847,0,0,0-1.829-1.846c-4.365-.445-8.545,2.686-9.4,3.792a.644.644,0,0,0,.147.926.717.717,0,0,0,.412.131.7.7,0,0,0,.557-.267C398.735,419.93,403.717,416.191,408.091,418.174Z" fill="#fafafa"/><path d="M394.746,417.813a.7.7,0,0,0,.557-.267c.711-.918,5.13-4.252,9.279-3.046a2.37,2.37,0,0,0-1.367-1.571,12.654,12.654,0,0,0-9.028,3.827.644.644,0,0,0,.147.926A.719.719,0,0,0,394.746,417.813Z" fill="#fafafa"/><path d="M355.8,291.319c6.543,4.8,29.33,17.95,38.583,26.515,2.673,2.474,3.553,5.731,2.895,12.83-.892,9.634-8.463,42.466-8.463,42.466-1.043,1.854-2.877-1.663-2.877-1.663l-36.108-45.841Z" fill="#3343E0"/><path d="M355.8,291.319c6.543,4.8,29.33,17.95,38.583,26.515,2.673,2.474,3.553,5.731,2.895,12.83-.892,9.634-8.463,42.466-8.463,42.466-1.043,1.854-2.877-1.663-2.877-1.663l-36.108-45.841Z" opacity="0.3"/><path d="M387.25,362.907c-8.355-6.981-35.343-49.563-35.343-49.563l.014-.013c3.675-3.1,5.571-13.872,5.571-13.872,1.457,4.154-.082,10.419-1.213,12.708,2.125,1.84,14.133,11.715,22.474,18.317a11.923,11.923,0,0,1,4.947,7.469C385.419,346.985,387.447,361.08,387.25,362.907Z" opacity="0.3"/><path d="M355.8,291.319h0l-46.481,10.29c2.27,8.532,2.917,12.938,5.286,17.431s5.009,9.314,17.1,15.267c11.638,5.731,25.857,11.633,28.7,12.986,2.143,1.02,3.165,5.306,4.135,10.863,1.015,5.829,1.107,10.39,6.873,22.622,5.645,11.978,6.8,14.566,6.8,14.566s8.735.909,14.533-4.192c0,0-7.911-41.067-9.6-48.46-.942-4.13-.962-6.306-6.088-10.844-4.4-3.89-24.027-18.748-24.027-18.748S360.833,302.628,355.8,291.319Z" fill="#3343E0"/><path d="M355.8,291.319h0l-46.481,10.29c2.27,8.532,2.917,12.938,5.286,17.431s5.009,9.314,17.1,15.267c11.638,5.731,25.857,11.633,28.7,12.986,2.143,1.02,3.165,5.306,4.135,10.863,1.015,5.829,1.107,10.39,6.873,22.622,5.645,11.978,6.8,14.566,6.8,14.566s8.735.909,14.533-4.192c0,0-7.911-41.067-9.6-48.46-.942-4.13-.962-6.306-6.088-10.844-4.4-3.89-24.027-18.748-24.027-18.748S360.833,302.628,355.8,291.319Z" opacity="0.3"/><path d="M409.228,214.1a4.45,4.45,0,0,0-2.3.463,14.455,14.455,0,0,0-2.356,1.536q-1.734,1.276-3.556,2.426a9.871,9.871,0,0,1-3.505,1.657c-.431.071-1.348.086-.879-.568a18.448,18.448,0,0,0,1.756-2.607,3.78,3.78,0,0,0,.259-3.043,1.293,1.293,0,0,0-.6-.708c-.407-.187-.614.03-.847.3a8.529,8.529,0,0,1-.82.768c-.58.512-1.16,1.026-1.733,1.546-3.344,3.037-7.41,5.67-8.841,10.059a27.027,27.027,0,0,0-1.185,8.347c-.03,4.819-.315,21.59-.315,21.59s-13.32-11.2-19.1-16.031c-2.785-2.328-6.678-5.154-10.968-5.561-3.035-.288-4.807-.27-4.807-.27l9.085,22.023s17.178,12.78,25.414,17.18c7.433,3.971,11.047,1.111,11.946-.973,1.489-3.454,3.017-5.073.921-24.352-.15-1.492-.335-5.76-.5-7.25-.216-3.112.136-6.274,1.342-6.95a36.6,36.6,0,0,0,6.3-4.275,19.048,19.048,0,0,0,3.331-3.744,5.864,5.864,0,0,0,1.14-2.151c.074-.725-.244-1.493-.024-2.209.151-.488.479-.887.6-1.409.251-1.062.159-2.282.836-3.2.371-.506.99-.962.9-1.584a1.3,1.3,0,0,0-1.069-.931A3.048,3.048,0,0,0,409.228,214.1Z" fill="#ffa8a7"/><path d="M395.64,222.47a13.957,13.957,0,0,1-3.473,6.936,8.168,8.168,0,0,0,2.952-2.992C396.079,224.427,395.97,223.417,395.64,222.47Z" fill="#f28f8f"/><path d="M348.515,233.559c4.637.2,8.25.3,12.2,2.587s21.607,17.06,21.607,17.06.174-7.523.625-11.487c.313-2.747.769-3.611,1.626-3.475,0,0,1.531,2.348,5.869,2.673s5.8-1.475,5.8-1.475,1.265-.3,1.72,1.475,1.273,20.992.482,26.529-3.273,8.111-6.6,8.891-11.036-3.882-20.294-10.109S352.237,254.2,352.237,254.2Z" fill="#3343E0"/><path d="M348.515,233.559c4.637.2,8.25.3,12.2,2.587s21.607,17.06,21.607,17.06.174-7.523.625-11.487c.313-2.747.769-3.611,1.626-3.475,0,0,1.531,2.348,5.869,2.673s5.8-1.475,5.8-1.475,1.265-.3,1.72,1.475,1.273,20.992.482,26.529-3.273,8.111-6.6,8.891-11.036-3.882-20.294-10.109S352.237,254.2,352.237,254.2Z" fill="#fff" opacity="0.7"/><path d="M382.325,253.206a36.518,36.518,0,0,0,.381,10.789s-3.386-6.542-2.343-12.532Z" opacity="0.1"/><path d="M310.4,237.619c-.765,4.052-8.462,42.549.293,71.258,15.764,1.859,43.45-5.378,47.6-15.812,0,0-2.8-9.9-4.01-14.741.257-7.942,0-23.1-.163-27.79-.318-9.294-1.769-16.483-6.379-17.162,0,0-9.259-.366-14.862-.137-4.84.2-8.477.251-8.477.251Z" fill="#fafafa"/><path d="M333.553,298.811c-1.018-2.259-19.73-13.812-19.73-13.812s.285-5.351,1.4-15.2,1.444-21.647-2.1-27.579l-3.578.139c-2.024,11.944-6.137,42.614,1.152,66.516,8.4.991,20.2-.6,30.006-3.89C338.888,303.773,334.364,300.611,333.553,298.811Z" fill="#f0f0f0"/><path d="M322.778,224.45c.031-1.992-3.787-7.943-5.515-12.649-2.891-7.871-3.143-14.937,3.99-18,0,0,4.459-7.69,15.7-8.073s19.885,9.108,16.15,21.8Z" fill="#455a64"/><path d="M325.557,212.291c-1.468,0-2-2.108-3.01-3.24a4.347,4.347,0,0,0-6.718.835c-2.077,3.007-.058,7.341,2.209,9.018,2.855,2.111,4.824.074,4.824.074l-.258,15.889s.506,3.523,7,5.568c7.5,2.362,13.6-1.584,9.133-6.53l.166-4.186a21.564,21.564,0,0,0,7.247.4c2.5-.38,4.5-2.263,5.789-6.118,2.508-7.526,1.812-17.561-.778-26.723-2.473,1.956-13.919,5.624-24.228,1.988C327.294,205.6,326.992,212.291,325.557,212.291Z" fill="#ffa8a7"/><path d="M321.483,217.2a.93.93,0,1,1-.93-.93A.93.93,0,0,1,321.483,217.2Z" fill="#263238"/><path d="M338.9,229.719s-6.256-1.826-8.723-3.557a12.014,12.014,0,0,1-3.837-4.377,16.056,16.056,0,0,0,2.643,5.293c2.986,3.393,9.835,4.96,9.835,4.96Z" fill="#f28f8f"/><path d="M338.4,212.205a1.558,1.558,0,1,1-1.588-1.593A1.584,1.584,0,0,1,338.4,212.205Z" fill="#263238"/><path d="M336.694,206.894l-3.366,1.775a2,2,0,0,1,.827-2.637A1.857,1.857,0,0,1,336.694,206.894Z" fill="#263238"/><path d="M337.907,220.39l5.355,1.707a2.949,2.949,0,0,1-3.634,1.86A2.742,2.742,0,0,1,337.907,220.39Z" fill="#f28f8f"/><path d="M351.105,206.827l-3.7-1.013a1.84,1.84,0,0,1,2.29-1.376A2.014,2.014,0,0,1,351.105,206.827Z" fill="#263238"/><path d="M350.148,210.976a1.558,1.558,0,1,1-1.588-1.593A1.583,1.583,0,0,1,350.148,210.976Z" fill="#263238"/><path d="M351.871,197.282c3.456-2.464,5.38-5.758,4.462-10.294-1.348,1.355-5.13,1.6-8.438.019a25.9,25.9,0,0,0-16.957-2.453c-6.107,1.182-9.685,5.827-9.685,9.243,1.2,2.445,2.839,3.747,5.676,5.473a22.64,22.64,0,0,0,14.74,4.243,14.557,14.557,0,0,0,8.679-3.14s-3.192.281-4.687-.712A16.511,16.511,0,0,0,351.871,197.282Z" fill="#37474f"/><path d="M343.451,218.4l4.769-2.176-6.095-8.4Z" fill="#f28f8f"/><path d="M395.834,319.535a9.132,9.132,0,0,0-1.449-1.7c-5.558-5.145-16-11.944-24.868-17.6l-40.356,23.3a.372.372,0,0,0,0,.643l29.308,16.923Z" opacity="0.15"/><path d="M408.07,307.686v.653a2.685,2.685,0,0,1-1.34,2.323l-46.921,27.089a2.651,2.651,0,0,1-1.336.355,2.7,2.7,0,0,1-1.349-.357L331.548,323.03a2.691,2.691,0,0,1-1.338-2.323v-.9h.006v.009a.336.336,0,0,0,.17.3l28.087,16.22Z" fill="#37474f"/><path d="M358.47,336.323v1.785a2.677,2.677,0,0,0,1.339-.357l46.922-27.089a2.685,2.685,0,0,0,1.343-2.325v-.653Z" fill="#263238"/><path d="M408.074,307.684l-27.822-16.061a1.6,1.6,0,0,0-1.6,0l-48.266,27.87a.356.356,0,0,0,0,.616l28.082,16.216Z" fill="#455a64"/><path d="M358.214,333.962l-15.006-8.655,43.878-25.333,15.084,8.609Z" fill="#37474f"/><path d="M402.169,308.584l-.573.33-14.512-8.28-43.3,25-.573-.33,43.873-25.335Z" fill="#263238"/><path d="M350.839,309.887l.277.16,7.355,4.246,13.08-7.552.272-.155-7.632-4.405Z" fill="#263238"/><path d="M351.116,310.047l7.355,4.246,13.08-7.552-7.359-4.246Z" fill="#37474f"/><path d="M365.073,315.143c-2.1-2.087-5.157-4.98-7.722-5.83a14.356,14.356,0,0,0-1.8-.561,20.426,20.426,0,0,0,2.636-.526,4.654,4.654,0,0,0,2.227-1.476c.223-.288.38-.746.1-.976a.607.607,0,0,0-.365-.135c-1.922-.058-3.437-.357-5.183-.483a7.274,7.274,0,0,0-2.353.043c-.716.2-1.43.4-2.133.646-3.188,1.1-6.094,2.1-10.608,1.045l-8.122-4.333s-1.735-.434-4.293,3.9-1.063,6.709-1.063,6.709l9.123,3.15h0l.132.051a30.156,30.156,0,0,0,4.305,1.9c2.843.873,6.48-.159,8.95-.291s6.657,1.01,8.948,1.94,5.042-2.6,6.191-2.174S367.178,317.229,365.073,315.143Z" fill="#ffa8a7"/><path d="M354.484,307.393a8.647,8.647,0,0,0-3.5.565,19.051,19.051,0,0,1,4.561.794,20.393,20.393,0,0,0,2.636-.526,4.859,4.859,0,0,0,2.022-1.236C358.824,307.929,356.146,307.562,354.484,307.393Z" fill="#f28f8f"/><path d="M310.4,237.619c2.311.913,5.318,10.547,3.465,19.817l-4.3,28.986s5.27,3.12,12.665,7.7c5.125,3.173,9.518,6.083,9.52,8.435-3.356,1.2-6.372,7.385-5.356,10.606-2.292,2.716-23.45-9.014-30.848-14.073-3.43-2.346-5.159-3.271-3.839-13.861,1.46-11.721,2.461-24.743,4.744-33.432C298.83,242.728,301.483,239.207,310.4,237.619Z" fill="#3343E0"/><path d="M310.4,237.619c2.311.913,5.318,10.547,3.465,19.817l-4.3,28.986s5.27,3.12,12.665,7.7c5.125,3.173,9.518,6.083,9.52,8.435-3.356,1.2-6.372,7.385-5.356,10.606-2.292,2.716-23.45-9.014-30.848-14.073-3.43-2.346-5.159-3.271-3.839-13.861,1.46-11.721,2.461-24.743,4.744-33.432C298.83,242.728,301.483,239.207,310.4,237.619Z" fill="#fff" opacity="0.7"/><path d="M359.226,336.719a3.173,3.173,0,0,0,2.738-.211l46.716-26.972a3.178,3.178,0,0,0,1.545-2.221l5.114-30.5a3.145,3.145,0,0,0,.042-.521,3.18,3.18,0,0,0-.939-2.259l-48.547,28.033a2.357,2.357,0,0,0-1.141,1.644Z" fill="#37474f"/><path d="M358.47,336.325l.32.183a3.719,3.719,0,0,0,.436.211l5.528-33.006a2.357,2.357,0,0,1,1.141-1.644l48.547-28.033a3.248,3.248,0,0,0-.648-.493l-48.645,28.085a2.357,2.357,0,0,0-1.142,1.643Z" fill="#455a64"/><path d="M365.2,302.691l-.753-.435a2.359,2.359,0,0,0-.445,1.015l-5.537,33.054.32.183a3.719,3.719,0,0,0,.436.211l5.528-33.006A2.338,2.338,0,0,1,365.2,302.691Z" fill="#263238"/><path d="M385.537,308.565c.342-2.042,2.45-4.754,4.708-6.058s3.811-.7,3.469,1.337-2.451,4.754-4.709,6.058S385.194,310.607,385.537,308.565Z" fill="#3343E0"/></g></svg>