<svg xmlns="http://www.w3.org/2000/svg" width="447.926" height="357.041" viewBox="0 0 447.926 357.041"><g transform="translate(-32.441 -65.475)"><path d="M98.04,388.246c87.462,45.692,229.269,45.694,316.729,0s87.464-119.772,0-165.464-229.268-45.692-316.731,0S10.576,342.556,98.04,388.246Z" fill="#f5f5f5"/><path d="M138.956,340.114s.118-15.86-9.882-27.751c-8.858-10.532-13.566-17.213-10.769-20.289s8.781-3.819,16.875,4.692,8.719,32.12,7.6,37.462Z" fill="#3343E0"/><path d="M138.956,340.114s.118-15.86-9.882-27.751c-8.858-10.532-13.566-17.213-10.769-20.289s8.781-3.819,16.875,4.692,8.719,32.12,7.6,37.462Z" opacity="0.2"/><path d="M140.68,323.063a.5.5,0,0,1-.488-.4c-3.5-16.371-12.486-25.422-17.531-29.359a.5.5,0,0,1,.615-.789c5.153,4.022,14.328,13.258,17.893,29.939a.5.5,0,0,1-.384.594A.536.536,0,0,1,140.68,323.063Z" fill="#fff"/><path d="M138.615,346.015l-4.062,2.345a7.358,7.358,0,0,0-5.485-4.69c-4.445-1.043-9.07-.834-12.183-4.692s.677-8.053,0-10.9-1.129-3.66-6.705-6.5-7.78-7.552-3.583-10.747,11.017-.849,15.123,1.954c3.664,2.5,7.143,3.162,11.226,3.664s10.751,2.786,9.731,12.283A74.911,74.911,0,0,1,138.615,346.015Z" fill="#3343E0"/><path d="M122.969,333.52a.5.5,0,0,1-.153-.976c.367-.117,9.022-2.85,12.677.086a.5.5,0,0,1-.626.779c-3.242-2.6-11.661.06-11.745.086A.485.485,0,0,1,122.969,333.52Z" fill="#fff"/><path d="M139.074,345.244a.5.5,0,0,1-.5-.447c-2.227-21.059-27.595-31.05-27.851-31.149a.5.5,0,1,1,.358-.933c.262.1,26.2,10.306,28.487,31.976a.5.5,0,0,1-.444.55Z" fill="#fff"/><path d="M387.8,332.166c.115-.343,4.4-22.43,0-38.09-4.038-14.358-9.219-19.657-16.656-20.825s-10.666,4.188-6.716,11.444,13.454,16.9,15.79,33.115c.962,6.676,1.76,12.478,1.76,12.478Z" fill="#3343E0"/><path d="M387.8,332.166c.115-.343,4.4-22.43,0-38.09-4.038-14.358-9.219-19.657-16.656-20.825s-10.666,4.188-6.716,11.444,13.454,16.9,15.79,33.115c.962,6.676,1.76,12.478,1.76,12.478Z" opacity="0.2"/><path d="M385.3,319.487h-.028a.5.5,0,0,1-.471-.527c1.024-17.877-4.841-33.842-15.308-41.665a.5.5,0,0,1,.6-.8c10.731,8.021,16.75,24.315,15.706,42.523A.5.5,0,0,1,385.3,319.487Z" fill="#fff"/><path d="M399.313,343.67c-.574-4.105,1.79-10.273,7.4-11.727s8.112-4.682,6.087-8.2-1.547-6.748,3.545-8.213,9.55-4.02,6.615-9.379c-2.127-3.887-2.6-6.4,2.621-14.072,4.328-6.357.79-10.087-4.633-9.381s-8.765,7.152-12.15,8.24-4.177-4.687-8.647-2.107-4.194,9.193-4.336,13.8-.442,5.654-4.484,5.088-7.985.1-7.908,9.873c.065,8.385,4.542,18.763,4.542,18.763Z" fill="#3343E0"/><path d="M392.223,337.418l-.057,0a.5.5,0,0,1-.441-.553c2.816-25.2,24.438-46.44,30.075-50.751a.5.5,0,0,1,.607.8c-5.564,4.255-26.912,25.224-29.688,50.068A.5.5,0,0,1,392.223,337.418Z" fill="#fff"/><path d="M402.081,310.491a.5.5,0,0,1-.175-.969c8.068-3,17.2-1.587,17.59-1.525a.5.5,0,0,1,.414.573.508.508,0,0,1-.572.415c-.091-.016-9.269-1.434-17.082,1.475A.513.513,0,0,1,402.081,310.491Z" fill="#fff"/><path d="M394.9,325.626a.5.5,0,0,1-.375-.169,29.41,29.41,0,0,1-6.588-13.669.5.5,0,0,1,.989-.151,28.938,28.938,0,0,0,6.349,13.158.5.5,0,0,1-.375.831Z" fill="#fff"/><path d="M138.615,191.23V346.015l158.42-91.463V113.838l-117.8,68.011-4.062-11.726Z" fill="#3343E0"/><path d="M138.615,191.23V346.015l158.42-91.463V113.838l-117.8,68.011-4.062-11.726Z" opacity="0.7"/><path d="M138.615,346.015,146.738,205.3l158.419-91.463-8.122,140.714Z" fill="#e0e0e0"/><path d="M138.615,346.015,150.8,207.646,309.22,116.183,297.035,254.552Z" fill="#3343E0"/><path d="M138.615,346.015,150.8,207.646,309.22,116.183,297.035,254.552Z" opacity="0.7"/><path d="M162.988,205.3V360.086l158.42-91.463V127.91l-117.8,68.011-4.062-11.727Z" fill="#3343E0"/><path d="M162.988,205.3V360.086l158.42-91.463V127.91l-117.8,68.011-4.062-11.727Z" opacity="0.5"/><path d="M162.988,360.086l8.123-140.713L329.53,127.909l-8.122,140.714Z" fill="#e0e0e0"/><path d="M162.988,360.086l12.185-138.368,158.419-91.463L321.408,268.623Z" fill="#3343E0"/><path d="M162.988,360.086l12.185-138.368,158.419-91.463L321.408,268.623Z" opacity="0.5"/><path d="M297.035,409.336c-28.434-16.417-54.815-34.265-66.858-55.209l36.558-21.107Z" fill="#e0e0e0"/><path d="M191.421,221.718V376.5l158.42-91.464V144.326l-117.8,68.011-4.062-11.726Z" fill="#3343E0"/><path d="M191.421,221.718V376.5l158.42-91.464V144.326l-117.8,68.011-4.062-11.726Z" opacity="0.2"/><path d="M237.061,267.482c-.4,0-.459-.46-.459-.736V134.723a3.332,3.332,0,0,1,1.482-2.567L352.42,66.145a1.1,1.1,0,0,1,.523-.17c.4,0,.459.461.459.736V198.735a3.329,3.329,0,0,1-1.482,2.567L237.584,267.314A1.1,1.1,0,0,1,237.061,267.482Z" fill="#fff"/><path d="M352.877,66.486a.875.875,0,0,1,.025.225V198.735a2.859,2.859,0,0,1-1.232,2.134L237.334,266.88a.141.141,0,1,1-.232-.134V134.723a2.856,2.856,0,0,1,1.232-2.134L352.67,66.578a.872.872,0,0,1,.207-.092m.066-1.011a1.575,1.575,0,0,0-.773.236L237.834,131.723a3.829,3.829,0,0,0-1.732,3V266.746c0,.783.391,1.236.959,1.236a1.569,1.569,0,0,0,.773-.236L352.17,201.735a3.828,3.828,0,0,0,1.732-3V66.711c0-.783-.39-1.236-.959-1.236Z" fill="#3343E0"/><path d="M352.877,66.486a.875.875,0,0,1,.025.225V198.735a2.859,2.859,0,0,1-1.232,2.134L237.334,266.88a.141.141,0,1,1-.232-.134V134.723a2.856,2.856,0,0,1,1.232-2.134L352.67,66.578a.872.872,0,0,1,.207-.092m.066-1.011a1.575,1.575,0,0,0-.773.236L237.834,131.723a3.829,3.829,0,0,0-1.732,3V266.746c0,.783.391,1.236.959,1.236a1.569,1.569,0,0,0,.773-.236L352.17,201.735a3.828,3.828,0,0,0,1.732-3V66.711c0-.783-.39-1.236-.959-1.236Z" fill="#fff" opacity="0.7"/><path d="M248.289,139.758l40.62-23.452v46.9l-40.62,23.452Z" fill="#3343E0"/><path d="M248.289,139.758l40.62-23.452v46.9l-40.62,23.452Z" fill="#fff" opacity="0.8"/><path d="M282.816,128.032V142.1l-1.272.711V138.5c0-2.38-1.939-3.191-4.33-1.811l-17.23,9.948c-2.391,1.38-4.33,4.429-4.33,6.81v4.311l-1.272.759V144.449Z" fill="#fff"/><path d="M274.981,163.9c-2.084,1.2-3.773-.06-3.773-2.821V138.5l-5.218,2.84v22.742c0,2.762-1.688,5.975-3.772,7.179l-3.774,2.178v1.493l20.311-11.726v-1.493Z" fill="#fff"/><path d="M297.033,113.961c0,1.295,1.164,1.674,2.6.846l39.486-22.8a5.2,5.2,0,0,0,2.6-3.845c0-1.295-1.163-1.674-2.6-.846l-39.486,22.8A5.2,5.2,0,0,0,297.033,113.961Z" fill="#455a64"/><path d="M297.033,128.032c0,1.3,1.164,1.674,2.6.846l39.486-22.8a5.2,5.2,0,0,0,2.6-3.846c0-1.295-1.163-1.674-2.6-.845l-39.486,22.8A5.2,5.2,0,0,0,297.033,128.032Z" fill="#455a64"/><path d="M297.033,142.1c0,1.295,1.164,1.673,2.6.845l39.486-22.8a5.2,5.2,0,0,0,2.6-3.846c0-1.295-1.163-1.673-2.6-.845l-39.486,22.8A5.2,5.2,0,0,0,297.033,142.1Z" fill="#455a64"/><path d="M297.033,156.175c0,1.295,1.164,1.674,2.6.845l39.486-22.8a5.2,5.2,0,0,0,2.6-3.846c0-1.294-1.163-1.673-2.6-.845l-39.486,22.8A5.2,5.2,0,0,0,297.033,156.175Z" fill="#455a64"/><path d="M248.289,198.394c0,1.295,1.164,1.673,2.6.845l88.231-50.944a5.2,5.2,0,0,0,2.6-3.846c0-1.295-1.163-1.674-2.6-.845l-88.231,50.944A5.2,5.2,0,0,0,248.289,198.394Z" fill="#455a64"/><path d="M248.289,212.465c0,1.295,1.164,1.674,2.6.845l88.231-50.944a5.2,5.2,0,0,0,2.6-3.846c0-1.295-1.163-1.673-2.6-.845l-88.231,50.944A5.2,5.2,0,0,0,248.289,212.465Z" fill="#455a64"/><path d="M248.289,226.536c0,1.295,1.164,1.674,2.6.845l88.231-50.943a5.2,5.2,0,0,0,2.6-3.846c0-1.3-1.163-1.674-2.6-.845l-88.231,50.944A5.2,5.2,0,0,0,248.289,226.536Z" fill="#455a64"/><path d="M191.422,376.5l28.434-124.3,158.419-91.463-28.434,124.3Z" fill="#3343E0"/><path d="M230.177,261.941v92.186l36.559-21.108V240.835Z" fill="#3343E0"/><path d="M230.177,261.941v92.186l36.559-21.108V240.835Z" opacity="0.2"/><path d="M297.068,408.739c-3.106-2.314-33.085-25.231-48.324-57.961-16.223-34.839-16.208-75.475-16.2-90.772v-.476l108.676-62.743c-.006,15.436.015,56.129,16.3,91.092,14.885,31.97,43.717,54.624,48.29,58.083Z" fill="#fff"/><path d="M340.717,197.653c0,16.078.312,56.011,16.343,90.438,14.385,30.894,41.747,53.116,47.843,57.813L297.1,408.142c-4.213-3.176-33.067-25.7-47.907-57.576-16.175-34.738-16.161-75.293-16.156-90.56v-.187l107.676-62.166m1-1.732-109.676,63.32c0,14.386-.3,56.2,16.249,91.748,16.248,34.895,48.745,58.347,48.745,58.347l109.676-63.32s-32.5-23.453-48.745-58.348c-16.553-35.549-16.249-77.361-16.249-91.747Z" fill="#3343E0"/><path d="M340.717,197.653c0,16.078.312,56.011,16.343,90.438,14.385,30.894,41.747,53.116,47.843,57.813L297.1,408.142c-4.213-3.176-33.067-25.7-47.907-57.576-16.175-34.738-16.161-75.293-16.156-90.56v-.187l107.676-62.166m1-1.732-109.676,63.32c0,14.386-.3,56.2,16.249,91.748,16.248,34.895,48.745,58.347,48.745,58.347l109.676-63.32s-32.5-23.453-48.745-58.348c-16.553-35.549-16.249-77.361-16.249-91.747Z" fill="#fff" opacity="0.7"/><path d="M329.314,217.152l-34.685,20.026a4.932,4.932,0,0,0-2.52,3.8c.049,1.267,1.26,1.623,2.7.795l34.685-20.027a4.908,4.908,0,0,0,2.5-3.794C331.943,216.68,330.749,216.324,329.314,217.152Z" fill="#455a64"/><path d="M330.053,230.8l-34.686,20.026a4.611,4.611,0,0,0-2.415,3.736c.107,1.233,1.366,1.56,2.8.732l34.686-20.026a4.584,4.584,0,0,0,2.4-3.733C332.728,230.3,331.487,229.969,330.053,230.8Z" fill="#455a64"/><path d="M331.438,244.069,296.753,264.1c-1.436.828-2.472,2.471-2.3,3.668s1.483,1.495,2.917.666L332.056,248.4c1.434-.829,2.45-2.469,2.279-3.666S332.873,243.24,331.438,244.069Z" fill="#455a64"/><path d="M333.518,256.94l-34.686,20.025c-1.436.829-2.418,2.442-2.183,3.6s1.6,1.425,3.036.6l34.686-20.026c1.435-.828,2.4-2.437,2.16-3.6S334.952,256.111,333.518,256.94Z" fill="#455a64"/><path d="M336.338,269.382l-34.686,20.026c-1.434.828-2.361,2.409-2.053,3.527s1.731,1.35,3.166.521L337.45,273.43c1.436-.828,2.337-2.4,2.03-3.521S337.773,268.554,336.338,269.382Z" fill="#455a64"/><path d="M339.948,281.37,255.41,330.178c-1.434.829-2.3,2.374-1.91,3.445s1.878,1.264,3.312.436l84.539-48.808c1.434-.829,2.271-2.365,1.883-3.436S341.383,280.541,339.948,281.37Z" fill="#455a64"/><path d="M344.453,292.819l-84.538,48.809c-1.435.828-2.222,2.331-1.747,3.352s2.029,1.175,3.464.347l84.538-48.808c1.435-.829,2.206-2.325,1.732-3.346S345.888,291.991,344.453,292.819Z" fill="#455a64"/><path d="M349.967,303.733l-84.538,48.808c-1.435.828-2.15,2.291-1.581,3.258s2.207,1.071,3.642.243l84.537-48.809c1.436-.828,2.123-2.275,1.555-3.243S351.4,302.9,349.967,303.733Z" fill="#455a64"/><path d="M356.475,314.046l-84.539,48.807c-1.434.829-2.078,2.252-1.423,3.17s2.359.981,3.794.153l84.538-48.809c1.434-.828,2.056-2.235,1.4-3.152S357.909,313.217,356.475,314.046Z" fill="#455a64"/><path d="M363.852,323.855l-84.539,48.809c-1.434.828-2.015,2.217-1.285,3.09s2.494.9,3.93.073L366.5,327.02c1.435-.829,2-2.2,1.267-3.074S365.286,323.027,363.852,323.855Z" fill="#455a64"/><path d="M372.023,333.2l-84.537,48.809c-1.435.828-1.959,2.183-1.158,3.016s2.619.829,4.055,0l84.538-48.807c1.434-.829,1.941-2.168,1.141-3S373.459,332.375,372.023,333.2Z" fill="#455a64"/><path d="M380.961,342.127l-84.538,48.808c-1.435.828-1.9,2.152-1.033,2.946s2.744.757,4.178-.072L384.106,345c1.435-.828,1.886-2.135,1.017-2.929S382.395,341.3,380.961,342.127Z" fill="#455a64"/><path d="M282.06,244.435l-39.882,23.026c.444,14.444,2.091,35.293,8.136,56.278L290.2,300.713C284.151,279.728,282.5,258.88,282.06,244.435Z" fill="#3343E0"/><path d="M282.06,244.435l-39.882,23.026c.444,14.444,2.091,35.293,8.136,56.278L290.2,300.713C284.151,279.728,282.5,258.88,282.06,244.435Z" fill="#fff" opacity="0.8"/><path d="M258.444,264.261a6.609,6.609,0,0,0-1.949-5.066l-14.317,8.266c.117,3.816.323,8.09.667,12.685a9.356,9.356,0,0,0,5.417-.955C253.886,276.568,258.444,269.884,258.444,264.261Z" fill="#3343E0"/><path d="M258.444,264.261a6.609,6.609,0,0,0-1.949-5.066l-14.317,8.266c.117,3.816.323,8.09.667,12.685a9.356,9.356,0,0,0,5.417-.955C253.886,276.568,258.444,269.884,258.444,264.261Z" fill="#fff" opacity="0.6"/><path d="M286.814,286.915h0c-2.66-3.355-8.07-13.7-10.381-18.211a1,1,0,0,0-1.848.169,109.729,109.729,0,0,0-4.327,26.252,38.072,38.072,0,0,1-8.466-9.423.883.883,0,0,0-1.588.276c-4.361,16.793-2.174,33.308-2.174,33.308h0L290.2,300.713C288.863,296.083,287.754,291.465,286.814,286.915Z" fill="#3343E0"/><path d="M286.814,286.915h0c-2.66-3.355-8.07-13.7-10.381-18.211a1,1,0,0,0-1.848.169,109.729,109.729,0,0,0-4.327,26.252,38.072,38.072,0,0,1-8.466-9.423.883.883,0,0,0-1.588.276c-4.361,16.793-2.174,33.308-2.174,33.308h0L290.2,300.713C288.863,296.083,287.754,291.465,286.814,286.915Z" fill="#fff" opacity="0.6"/></g></svg>