<svg xmlns="http://www.w3.org/2000/svg" width="94.221" height="94.22" viewBox="0 0 94.221 94.22">
  <g id="wrBg" opacity="0.9">
    <path id="Path_1823" data-name="Path 1823" d="M46.247,251.685h57.471a1.19,1.19,0,0,0,0-2.38H46.247a16.037,16.037,0,0,1-15.979-15.98v-.09a1.2,1.2,0,0,0-2.391.021v.069A18.387,18.387,0,0,0,46.247,251.685Zm74.66-58.32a1.2,1.2,0,1,0-1.2-1.189A1.2,1.2,0,0,0,120.907,193.365Zm-91.84,24.77a1.189,1.189,0,1,0-1.19-1.189A1.194,1.194,0,0,0,29.067,218.135Zm91.84-41.069a1.2,1.2,0,0,0,1.191-1.191v-.039a18.391,18.391,0,0,0-18.37-18.371H46.3a1.2,1.2,0,0,0,0,2.391h57.43a16.024,16.024,0,0,1,15.979,15.98v.039A1.2,1.2,0,0,0,120.907,177.066Z" transform="translate(-27.877 -157.465)" fill="#303778"/>
  </g>
</svg>
